<svg xmlns="http://www.w3.org/2000/svg" width="86.249" height="86.249" viewBox="0 0 86.249 86.249">
  <defs>
    <style>
      .cls-1 {
        fill: #00bed6;
      }
    </style>
  </defs>
  <g id="グループ_77" data-name="グループ 77" transform="translate(-493.869 -4542.285)">
    <path id="パス_173" data-name="パス 173" class="cls-1" d="M536.993,4628.534a42.163,42.163,0,0,1-11.471-1.552,43.775,43.775,0,0,1-10.307-4.356,43.174,43.174,0,0,1-15.438-15.438,43.747,43.747,0,0,1-4.356-10.307,43.171,43.171,0,0,1,0-22.943,43.714,43.714,0,0,1,4.356-10.306,43.187,43.187,0,0,1,15.438-15.439,43.754,43.754,0,0,1,10.307-4.356,43.075,43.075,0,0,1,28.247,1.855,43.077,43.077,0,0,1,22.942,22.942,43.071,43.071,0,0,1,1.855,28.247,43.789,43.789,0,0,1-4.356,10.307,43.175,43.175,0,0,1-15.438,15.438,43.782,43.782,0,0,1-10.308,4.356,42.162,42.162,0,0,1-11.471,1.552Zm20.786-60.892H516.9a1.5,1.5,0,0,0-1.035.388,1.38,1.38,0,0,0-.431,1.078v4.572c0,.23.087.344.259.344l21.475,12.248.174.086a.352.352,0,0,0,.259-.086l20.785-12.248a.665.665,0,0,1,.259-.086.653.653,0,0,0,.259-.086.305.305,0,0,0,.345-.345v-4.4a1.377,1.377,0,0,0-.432-1.078,1.493,1.493,0,0,0-1.035-.388Zm-29.325,18.371a.35.35,0,0,0,.087-.259c0-.172-.058-.258-.173-.258l-12.333-7.073a.562.562,0,0,0-.431,0c-.115,0-.173.087-.173.259v18.543a.338.338,0,0,0,.259.345h.172c.115,0,.173-.029.173-.086Zm15.008,1.38c-.057-.173-.2-.2-.432-.086l-4.743,2.76a1.714,1.714,0,0,1-1.812,0l-4.14-2.329c-.172-.115-.315-.115-.431,0L516.121,4602.4a.5.5,0,0,0-.087.345c0,.057.058.143.173.258a2.819,2.819,0,0,0,.69.173h40.451a.5.5,0,0,0,.345-.173.676.676,0,0,0-.087-.431Zm15.525-9.315h-.345l-11.73,6.986c-.115,0-.173.087-.173.259-.057.058-.028.144.086.259l11.73,12.678c.115.115.2.173.259.173h.173c.173-.173.259-.287.259-.345v-19.664q0-.174-.259-.346Zm0,0"/>
  </g>
</svg>
