<svg xmlns="http://www.w3.org/2000/svg" width="85.076" height="85.076" viewBox="0 0 85.076 85.076">
  <defs>
    <style>
      .cls-1 {
        fill: #00bed6;
      }
    </style>
  </defs>
  <g id="グループ_507" data-name="グループ 507" transform="translate(-256.64 -4543.458)">
    <circle id="楕円形_11" data-name="楕円形 11" class="cls-1" cx="8.198" cy="8.198" r="8.198" transform="matrix(0.383, -0.924, 0.924, 0.383, 288.511, 4591.324)"/>
    <path id="パス_171" data-name="パス 171" class="cls-1" d="M318.393,4572.383a8.144,8.144,0,0,0-4.667-4.668,13.614,13.614,0,0,0-4.566-.847c-2.594-.118-3.372-.143-9.938-.143s-7.345.025-9.938.143a13.621,13.621,0,0,0-4.567.847,8.144,8.144,0,0,0-4.667,4.668,13.59,13.59,0,0,0-.847,4.566c-.118,2.594-.143,3.371-.143,9.938s.025,7.345.143,9.938a13.6,13.6,0,0,0,.847,4.567,8.135,8.135,0,0,0,4.667,4.667,13.6,13.6,0,0,0,4.567.847c2.593.118,3.37.143,9.938.143s7.344-.025,9.938-.143a13.589,13.589,0,0,0,4.566-.847,8.135,8.135,0,0,0,4.667-4.667,13.6,13.6,0,0,0,.847-4.567c.119-2.593.144-3.371.144-9.938s-.025-7.344-.144-9.938A13.588,13.588,0,0,0,318.393,4572.383Zm-19.171,27.133a12.629,12.629,0,1,1,12.629-12.629A12.629,12.629,0,0,1,299.222,4599.516Zm13.128-22.805a2.951,2.951,0,1,1,2.951-2.952A2.952,2.952,0,0,1,312.35,4576.711Z"/>
    <path id="パス_172" data-name="パス 172" class="cls-1" d="M299.178,4543.458A42.538,42.538,0,1,0,341.716,4586,42.538,42.538,0,0,0,299.178,4543.458Zm24.489,53.569a18.048,18.048,0,0,1-1.143,5.97,12.574,12.574,0,0,1-7.193,7.192,18.065,18.065,0,0,1-5.97,1.144c-2.623.119-3.46.148-10.139.148s-7.517-.029-10.14-.148a18.065,18.065,0,0,1-5.97-1.144A12.568,12.568,0,0,1,275.92,4603a18.071,18.071,0,0,1-1.144-5.97c-.119-2.623-.148-3.46-.148-10.14s.029-7.516.148-10.14a18.059,18.059,0,0,1,1.144-5.969,12.574,12.574,0,0,1,7.192-7.193,18.043,18.043,0,0,1,5.97-1.143c2.623-.12,3.461-.148,10.14-.148s7.516.028,10.139.148a18.043,18.043,0,0,1,5.97,1.143,12.579,12.579,0,0,1,7.193,7.193,18.036,18.036,0,0,1,1.143,5.969c.12,2.624.148,3.461.148,10.14S323.787,4594.4,323.667,4597.027Z"/>
  </g>
</svg>
