<svg xmlns="http://www.w3.org/2000/svg" width="85.076" height="85.076" viewBox="0 0 85.076 85.076">
  <defs>
    <style>
      .cls-1 {
        fill: #00bed6;
      }
    </style>
  </defs>
  <g id="グループ_78" data-name="グループ 78" transform="translate(-613.363 -4543.458)">
    <rect id="長方形_43" data-name="長方形 43" class="cls-1" width="3.018" height="14.407" rx="1.179" transform="translate(647.143 4574.911)"/>
    <path id="パス_174" data-name="パス 174" class="cls-1" d="M644.2,4586.3h-4.526v-9.882a1.509,1.509,0,0,0-3.018,0v11.391a1.509,1.509,0,0,0,1.51,1.508H644.2a1.509,1.509,0,1,0,0-3.017Z"/>
    <path id="パス_175" data-name="パス 175" class="cls-1" d="M662.682,4574.911a1.509,1.509,0,0,0-1.509,1.508v6.959s-6.025-7.859-6.117-7.962a1.5,1.5,0,0,0-1.183-.5,1.549,1.549,0,0,0-1.45,1.57v11.328a1.509,1.509,0,0,0,3.017,0v-6.916s6.117,7.927,6.207,8.012a1.5,1.5,0,0,0,1.021.412,1.562,1.562,0,0,0,1.522-1.571v-11.328A1.508,1.508,0,0,0,662.682,4574.911Z"/>
    <path id="パス_176" data-name="パス 176" class="cls-1" d="M655.9,4543.458A42.538,42.538,0,1,0,698.439,4586,42.538,42.538,0,0,0,655.9,4543.458Zm29.482,39.293a14.48,14.48,0,0,1-.233,1.785A19.71,19.71,0,0,1,682.9,4591c-.528.953-3.115,4.577-3.908,5.533-4.36,5.252-11.662,11.315-23.873,17.208a1.608,1.608,0,0,1-2.3-1.622l.615-5.538a1.6,1.6,0,0,0-1.422-1.774c-14.453-1.512-25.609-11.349-25.609-23.257,0-12.957,13.205-23.46,29.494-23.46,15.83,0,28.747,9.92,29.463,22.37A22.365,22.365,0,0,1,685.383,4582.751Z"/>
    <path id="パス_177" data-name="パス 177" class="cls-1" d="M674,4577.928a1.509,1.509,0,1,0,0-3.017h-6.034a1.509,1.509,0,0,0-1.509,1.508v11.391a1.509,1.509,0,0,0,1.509,1.508H674a1.509,1.509,0,1,0,0-3.017H669.47v-2.678H674a1.509,1.509,0,1,0,0-3.018H669.47v-2.677Z"/>
  </g>
</svg>
