<svg xmlns="http://www.w3.org/2000/svg" width="85.076" height="85.076" viewBox="0 0 85.076 85.076">
  <defs>
    <style>
      .cls-1 {
        fill: #00bed6;
      }
    </style>
  </defs>
  <path id="パス_170" data-name="パス 170" class="cls-1" d="M418.086,4543.458A42.538,42.538,0,1,0,460.624,4586,42.538,42.538,0,0,0,418.086,4543.458Zm5.451,57.128c-3.3,0-6.411-1.785-7.473-3.813,0,0-1.778,7.049-2.154,8.41-1.324,4.807-5.221,9.62-5.524,10.015a.407.407,0,0,1-.727-.177c-.085-.613-1.078-6.68.092-11.628.587-2.484,3.936-16.673,3.936-16.673a11.771,11.771,0,0,1-.977-4.843c0-4.534,2.628-7.92,5.9-7.92,2.782,0,4.126,2.09,4.126,4.594,0,2.8-1.78,6.983-2.7,10.859a4.737,4.737,0,0,0,4.831,5.893c5.8,0,9.7-7.446,9.7-16.267,0-6.708-4.515-11.729-12.731-11.729-9.281,0-15.066,6.923-15.066,14.655a8.83,8.83,0,0,0,2.019,6,1.478,1.478,0,0,1,.44,1.7c-.149.565-.484,1.92-.624,2.457a1.053,1.053,0,0,1-1.532.764c-4.273-1.743-6.267-6.425-6.267-11.689,0-8.692,7.331-19.115,21.869-19.115,11.685,0,19.372,8.453,19.372,17.529C440.048,4591.619,433.375,4600.586,423.537,4600.586Z" transform="translate(-375.548 -4543.458)"/>
</svg>
