<svg xmlns="http://www.w3.org/2000/svg" width="113.55" height="92.087" viewBox="0 0 113.55 92.087">
  <defs>
    <style>
      .cls-1 {
        fill: #00bed6;
      }
    </style>
  </defs>
  <g id="グループ_71" data-name="グループ 71" transform="translate(-1046.327 -4516.596)">
    <g id="グループ_66" data-name="グループ 66">
      <g id="グループ_63" data-name="グループ 63">
        <path id="パス_140" data-name="パス 140" class="cls-1" d="M1078.32,4568.334c4.067-2.829,8.074-5.627,12.1-8.4a3,3,0,0,1,2.848.165c4.8,3.918,10.326,4.181,15.421.652a5.024,5.024,0,0,1,3.39-1.065c7.149.494,12.194,3.98,14.7,10.676,2,5.345,3.624,10.836,5.376,16.275a8.694,8.694,0,0,1,.441,2.557c.028,3.693.156,7.4-.087,11.076a9.031,9.031,0,0,1-8.005,8.293,13.49,13.49,0,0,1-1.841.118q-21.583.009-43.167,0c-4.048,0-7.2-1.628-8.974-5.327a11.179,11.179,0,0,1-1-4.386c-.1-3.364.072-6.735.085-10.1a1.7,1.7,0,0,1,.915-1.565c1.274-.83,2.512-1.717,3.759-2.589,5.434-3.8,7.045-9.724,4.29-15.763C1078.5,4568.788,1078.436,4568.62,1078.32,4568.334Zm22.785,34.887a16.189,16.189,0,1,0-16.217-16.184A16.256,16.256,0,0,0,1101.1,4603.221Z"/>
      </g>
      <g id="グループ_64" data-name="グループ 64">
        <path id="パス_141" data-name="パス 141" class="cls-1" d="M1047,4572.1a22.382,22.382,0,0,1,4.8-20.114c6.184-7.53,12.346-15.081,18.675-22.489,6.56-7.676,14.865-10.023,24.564-7.314a20.377,20.377,0,0,1,7.578,4.147,4.927,4.927,0,0,1,.805,6.931c-2.616,3.332-5.331,6.59-8.109,9.789a4.9,4.9,0,0,1-6.35.775c-.4-.249-.767-.544-1.14-.83a5.124,5.124,0,0,0-7.522.8c-3.879,4.642-7.725,9.311-11.582,13.971-.508.614-1.034,1.218-1.485,1.872a5.026,5.026,0,0,0,.614,6.547c.434.436.917.823,1.347,1.262a4.828,4.828,0,0,1,.585,6.361c-2.692,3.455-5.477,6.846-8.384,10.122a4.9,4.9,0,0,1-6.892.183A23.413,23.413,0,0,1,1047,4572.1Z"/>
      </g>
      <g id="グループ_65" data-name="グループ 65">
        <path id="パス_142" data-name="パス 142" class="cls-1" d="M1100.608,4577.923a9.133,9.133,0,1,1-8.572,10.4A9.08,9.08,0,0,1,1100.608,4577.923Z"/>
      </g>
    </g>
    <g id="グループ_70" data-name="グループ 70">
      <g id="グループ_67" data-name="グループ 67">
        <path id="パス_143" data-name="パス 143" class="cls-1" d="M1133.554,4555.208l-.094.012a2.152,2.152,0,0,1-2.363-1.919c-.319-3.064-1.373-5.254-3.134-6.509-2.915-2.078-7.02-1.154-7.061-1.144a2.152,2.152,0,0,1-1-4.186c.244-.058,6-1.4,10.527,1.8,2.834,2,4.5,5.23,4.953,9.6A2.153,2.153,0,0,1,1133.554,4555.208Z"/>
      </g>
      <g id="グループ_68" data-name="グループ 68">
        <path id="パス_144" data-name="パス 144" class="cls-1" d="M1145.677,4552.833l-.1.012a2.152,2.152,0,0,1-2.355-1.928c-.612-6.142-2.9-10.805-6.806-13.86-7.134-5.583-17.482-4.164-17.586-4.149a2.153,2.153,0,0,1-.627-4.259c.5-.073,12.229-1.717,20.838,5,4.883,3.807,7.73,9.475,8.465,16.845A2.153,2.153,0,0,1,1145.677,4552.833Z"/>
      </g>
      <g id="グループ_69" data-name="グループ 69">
        <path id="パス_145" data-name="パス 145" class="cls-1" d="M1158.041,4551.585c-.034,0-.068.01-.1.013a2.154,2.154,0,0,1-2.356-1.929c-.966-9.7-4.615-17.087-10.843-21.944-11.314-8.823-27.48-6.552-27.642-6.529a2.152,2.152,0,1,1-.63-4.258c.736-.109,18.167-2.552,30.919,7.392,7.193,5.609,11.392,13.991,12.48,24.913A2.151,2.151,0,0,1,1158.041,4551.585Z"/>
      </g>
    </g>
  </g>
</svg>
