<svg xmlns="http://www.w3.org/2000/svg" width="1920" height="212" viewBox="0 0 1920 212">
  <defs>
    <style>
      .cls-1 {
        fill: #7dd1d3;
      }

      .cls-2 {
        fill: #d7f4f4;
      }
    </style>
  </defs>
  <g id="グループ_408" data-name="グループ 408" transform="translate(0 -2416)">
    <path id="パス_383" data-name="パス 383" class="cls-1" d="M124.835,2558.01c67.692-39,138.9-8.175,158.241,5.6a207.421,207.421,0,0,1,100.623-30.5,90.984,90.984,0,0,0-117.132-5.283,91.1,91.1,0,0,0-98.915-35.535A137.66,137.66,0,0,0,0,2423.365v106.619S58.022,2525.314,124.835,2558.01Z"/>
    <path id="パス_384" data-name="パス 384" class="cls-1" d="M1857.5,2416a121.352,121.352,0,0,0-99.515,51.787,91.077,91.077,0,0,0-106.552,33.048,91.013,91.013,0,0,0-135.306,28.532,161.067,161.067,0,0,1,17.646,8.092c46.885-31.76,138.317-15.646,166.449,4.671,48.351-30.125,97.58-3.5,119.562,14.012,38.679-55.348,100.216-54.177,100.216-54.177v-68.672A120.927,120.927,0,0,0,1857.5,2416Z"/>
    <path id="パス_386" data-name="パス 386" class="cls-2" d="M1819.784,2556.142c-21.982-17.516-71.211-44.137-119.562-14.012-28.132-20.317-119.564-36.431-166.449-4.671a161.067,161.067,0,0,0-17.646-8.092c-63.193-24.677-164.378-23.363-229.682,36.12-14.356-24.758-126.007-54.184-161.761-.938-62.708-61.654-213.917-97.387-293.035-26.158-21.98-17.282-103.736-34.1-150.04,15.886-32.767-12.828-110.819-19.131-152.188,15.723h-.467c-26.831-15.292-82.2-39.573-145.255-36.882a207.421,207.421,0,0,0-100.623,30.5c-19.339-13.778-90.549-44.6-158.241-5.6C58.022,2525.314,0,2529.984,0,2529.984V2628H1668.487c.709-.933,1.407-1.874,2.08-2.835,1.277.983,2.591,1.92,3.921,2.835H1920V2501.965S1858.463,2500.794,1819.784,2556.142Z"/>
  </g>
</svg>
