<svg xmlns="http://www.w3.org/2000/svg" width="1920" height="210.351" viewBox="0 0 1920 210.351">
  <defs>
    <style>
      .cls-1 {
        fill: #f2f2f2;
      }

      .cls-2 {
        fill: #b2b2b2;
      }
    </style>
  </defs>
  <g id="グループ_256" data-name="グループ 256" transform="translate(0 -1479)">
    <path id="パス_360" data-name="パス 360" class="cls-1" d="M1815.106,1593c-67.761-31.891-143.354-67.313-143.354-67.313l-7.791,2.979-9.744-8.475-34.1,10.169-49.687,18.645-16.563-1.356-39.943,14.575h-41.891l-45.586,13.642-76.189-24.828h-28.252L1303.5,1556.8l-187.046-67.457L991.342,1539.7c-21.362-9.529-70.937-29.857-70.937-29.857l-34.1,10.168-49.684,18.644L820.06,1537.3l-39.944,14.576H738.225l-45.585,13.642-76.19-24.828H588.2l-18.508,5.764L382.638,1479,102.33,1593H0v96H439.234l2.833.351h979.907l3.675-.351H1920v-96Z"/>
    <g id="グループ_254" data-name="グループ 254">
      <path id="パス_361" data-name="パス 361" class="cls-2" d="M1638.634,1560.19l15.583-16.948c4.875,0,10.718,21.017,10.718,21.017l-10.718,6.61,5.359,9.66-47.25,10.509,14.616-23.9Z"/>
      <path id="パス_362" data-name="パス 362" class="cls-2" d="M1597.713,1572.733l-24.356,9.835-19.482,2.028,6.817,8.137-30.2,2.033,17.537-14.238,39.946-7.8,11.686-19.153-11.686-1.524-28.254,15.084-43.839,13.052v10.845l21.432,9.492-40.917,14.236,6.82-20.677-21.438-26.949,35.074-2.2,9.337-7.187,27.682-10.1,16.563,1.355,49.687-18.645,22.2-6.621-3.689,13.4Z"/>
      <path id="パス_363" data-name="パス 363" class="cls-2" d="M953.59,1596.549l-31.1,2.908,24.587-4.8v-12.728l-17.4,9.285L902.7,1599.25l8.869,5.592,4.324,6.927-25.186,8.763,14.107-8.614-17.5-3.173-5.6-17.529,21.59-1.355,16.277-1.612,6.507-9.029,33.544-26.749,20.9,12.03-2.269,8.25Z"/>
      <path id="パス_364" data-name="パス 364" class="cls-2" d="M1473.009,1589.342l8.77,7.8,6.822,15.931-37.016,1.7,11.686-9.15Z"/>
      <path id="パス_365" data-name="パス 365" class="cls-2" d="M1451.585,1574.767v18.982l-37.02,13.9-7.317-12.642-36.521,18.405-9.765-5.962-19.985,23.425-3.374-12.041-132.495-2.031,158.8-39.324,2.919-.5,4.182-.716,37.142-6.361,18.3,5.965,45.586-13.642h7.21c-4.631,3.336-9.158,6.781-9.158,6.781Z"/>
      <path id="パス_366" data-name="パス 366" class="cls-2" d="M1353.251,1560.248l7.012,7.428,13.265,4.782-20.277-.847Z"/>
      <path id="パス_367" data-name="パス 367" class="cls-2" d="M1310.319,1582.568l-11.573-27.481,4.757,1.715,18.508-5.764h24.18c.444,2.065.661,3.729.661,3.729Z"/>
      <path id="パス_368" data-name="パス 368" class="cls-2" d="M1172.952,1614.766l-5.843-2.711,24.354-10-10.715-17.116,8.767-7.8-22.406-24.068h33.134l4.864-9.829,56.5,32.542-5.848,6.783-15.581,4.91-6.822,8.981-41.9,10.85Z"/>
      <path id="パス_369" data-name="パス 369" class="cls-2" d="M1123.276,1498.836l20.453,8.814-6.819,18.037-4.76-9.374,3.181-8.051-6.659,1.2Z"/>
      <path id="パス_370" data-name="パス 370" class="cls-2" d="M1103.791,1515.447l-22.411,13.22-16.558,13.218-88.656,32.207-16.534-21.62,144.4-58.126,12.43-5Z"/>
      <path id="パス_371" data-name="パス 371" class="cls-2" d="M1122.963,1621.841l-41.656,4.068-6.287-3.246,7.264-8.35-20.346-20.208s-20.595,7.652-42.881,15.827c-3.189,1.167-1.006,20.936-3.4,19.555-4.705-2.71-12.873-13.605-16.116-12.426-39.315,14.294-70.089,79.674-35.368,12.309.968-1.886-5.851-12.951-5.851-12.951l21.437-26.775,15.582-3.564v14.406L1008,1605.91s29.665-26.9,29.394-27.953c2.574-.794,15.427-5.267,15.427-5.267l10.709-16.27,18.514-7.459,10.717,37.119-10.717,6.611,13.633,8.473,16.569-4.747v-6.773l17.045-7.123,15.1,32.541,27.276,19.66Z"/>
      <path id="パス_372" data-name="パス 372" class="cls-2" d="M1041.439,1570.869c.107-.047.158-.031.166.011C1041.1,1571.038,1040.957,1571.066,1041.439,1570.869Z"/>
    </g>
    <g id="グループ_255" data-name="グループ 255">
      <path id="パス_373" data-name="パス 373" class="cls-2" d="M863.9,1562.389l-24.359,9.835-19.482,2.028,6.817,8.137-30.2,2.033,17.537-14.237,39.946-7.8,11.686-19.152-11.686-1.525L825.908,1556.8l-43.839,13.051v10.847l21.433,9.491-40.917,14.236,6.82-20.677L747.969,1556.8l35.074-2.2,9.334-7.187,27.682-10.1,16.563,1.355,49.685-18.643,22.2-6.621-3.689,13.4Z"/>
      <path id="パス_374" data-name="パス 374" class="cls-2" d="M739.2,1579l8.77,7.8,6.819,15.931-37.019,1.694,11.689-9.151Z"/>
      <path id="パス_375" data-name="パス 375" class="cls-2" d="M717.769,1564.423v18.983l-37.016,13.9-7.317-12.642-36.522,18.405-9.765-5.96-19.985,23.424-3.374-12.04-132.5-2.033,158.8-39.323,2.921-.5,4.182-.715,37.145-6.362,18.3,5.965,45.585-13.642h7.213c-4.634,3.337-9.16,6.782-9.16,6.782Z"/>
      <path id="パス_376" data-name="パス 376" class="cls-2" d="M619.439,1549.9l7.015,7.429,13.262,4.78-20.276-.846Z"/>
      <path id="パス_377" data-name="パス 377" class="cls-2" d="M576.5,1572.224l-11.568-27.48,4.754,1.714,18.508-5.764h24.18c.444,2.064.661,3.729.661,3.729Z"/>
      <path id="パス_378" data-name="パス 378" class="cls-2" d="M419.826,1526.307l9.606.553,2.279,13.083,41.763,9.787,9.164,7.742,64.016,12-23.929,7.969,16.022,8.271L433.254,1575.8,424,1569.49l1.5-7.3-12.923-8.129,8.7-17.916Z"/>
      <path id="パス_379" data-name="パス 379" class="cls-2" d="M369.973,1505.1l-22.4,13.221-16.563,13.22-70.076,17.42-32.217,22.047-41.985,6.288-97.14,20.886,136.23-56.056L370.219,1484l4.626,2.119Z"/>
      <path id="パス_380" data-name="パス 380" class="cls-2" d="M393.359,1604.422,351.7,1608.49l-6.285-3.246,7.261-8.352-24.6-.606s-90.6,17.289-93.52,15.665S228.714,1599,228.714,1599l21.435-26.775,15.586-3.562v14.4l12.663,5.425s29.662-26.9,29.4-27.954c2.568-.793,15.421-5.266,15.421-5.266L333.928,1539l18.514-7.458,10.714,37.121-10.714,6.61,13.633,8.473L382.638,1579v-6.774l17.051-7.123,15.1,32.54,27.278,19.662Z"/>
      <path id="パス_381" data-name="パス 381" class="cls-2" d="M307.626,1560.525c.11-.048.155-.032.169.011C307.284,1560.693,307.142,1560.721,307.626,1560.525Z"/>
    </g>
    <path id="パス_382" data-name="パス 382" class="cls-2" d="M933.255,1520.781,956.4,1529.2l6.127,13.359-11.387-10.888-14.2-5.984-1.051,5.984-11.571-5.984-7.363-9.115,10.517,5.745Z"/>
  </g>
</svg>
