<svg xmlns="http://www.w3.org/2000/svg" width="171.833" height="170.412" viewBox="0 0 171.833 170.412">
  <path id="Path_13095" data-name="Path 13095" d="M1374.327,6700.012a9.455,9.455,0,0,0,.793,3.261c.788,1.756,1.957,2.65,3.209,2.749,2.564.2,3.893-1.929,4.075-4.144,1.416-17.208,10.2-33.857,22.653-45.634a74.027,74.027,0,0,1,107.211,101.8c-.424.522-.847,1.046-1.288,1.555a43.344,43.344,0,0,1-4.233,4.252,74.02,74.02,0,0,1-105.311-3.739,77.7,77.7,0,0,1-9.259-12.467,53.906,53.906,0,0,0,2.587,5.089,58.31,58.31,0,0,0,6.881,9.306c.658.711,1.281,1.455,1.964,2.142l2.031,2.075c1.4,1.329,2.772,2.7,4.218,3.973a103.43,103.43,0,0,0,8.9,7.456c.768.6,1.579,1.139,2.389,1.684s1.616,1.107,2.47,1.585,1.69,1,2.555,1.468q1.317.661,2.656,1.3a79.194,79.194,0,0,0,11.188,4.069,75.735,75.735,0,0,0,11.759,2.193,63.773,63.773,0,0,0,11.965-.1c3.972-.433,7.891-1.145,11.778-1.964a81.037,81.037,0,0,0,11.407-3.448l2.765-1.127c.907-.407,1.806-.836,2.71-1.254.913-.4,1.778-.9,2.664-1.351l1.323-.7c.438-.236.861-.5,1.292-.751.853-.516,1.735-.984,2.575-1.521l2.535-1.591c1.649-1.122,3.329-2.215,4.908-3.446a62.618,62.618,0,0,0,8.953-8.038,84.555,84.555,0,0,0,7.49-9.47,82.487,82.487,0,0,0,5.976-10.522,66.312,66.312,0,0,0,3.961-11.455l.685-2.952c.211-.988.373-1.985.568-2.974.089-.5.2-.987.275-1.486l.222-1.5.234-1.492.121-.745.088-.75.371-2.951c.111-.985.173-1.975.268-2.963l.13-1.485.064-1.488c.032-.993.114-1.988.108-2.983a72.249,72.249,0,0,0-.812-11.947c-.616-3.962-1.4-7.892-2.4-11.8l-.82-2.917c-.313-.96-.644-1.916-.974-2.876-.312-.968-.722-1.9-1.108-2.837s-.783-1.88-1.256-2.783a52.1,52.1,0,0,0-6.76-10.243c-1.271-1.611-2.671-3.111-4.01-4.646q-1.054-1.11-2.077-2.237c-.334-.382-.688-.746-1.042-1.109l-1.042-1.106c-2.774-2.942-5.535-5.915-8.593-8.62-.74-.708-1.535-1.346-2.322-2s-1.574-1.32-2.413-1.91-1.661-1.218-2.517-1.8q-1.3-.828-2.642-1.625a65.907,65.907,0,0,0-11.407-5.049c-3.964-1.308-8-2.36-12.05-3.271a92.538,92.538,0,0,0-12.778-1.847,89.816,89.816,0,0,0-12.99.143,106.523,106.523,0,0,0-12.929,1.98l-3.2.776-3.157.943-.79.241-.778.277-1.552.567-1.552.58-1.52.659-1.521.666-.763.332-.746.362-2.994,1.451-2.934,1.577c-.494.256-.975.535-1.449.825l-1.431.858a71.461,71.461,0,0,0-10.779,7.939,63.732,63.732,0,0,0-8.85,10.108,119.637,119.637,0,0,0-7.031,11.4l-.794,1.464c-.265.488-.533.974-.764,1.479l-1.425,3.008c-.858,2.044-1.729,4.083-2.418,6.19a76.884,76.884,0,0,0-3.274,12.857A16.668,16.668,0,0,0,1374.327,6700.012Z" transform="translate(-1369.825 -6624.248)" fill="#3a302b" opacity="0.76"/>
</svg>
