<svg id="Group_749" data-name="Group 749" xmlns="http://www.w3.org/2000/svg" width="3024.496" height="708.547" viewBox="0 0 3024.496 708.547">
  <path id="Path_17747" data-name="Path 17747" d="M1098.754,2743.434c-2.713,3.265-9.288,1.894-15.241,1.27C1089.062,2743.514,1092.349,2740.835,1098.754,2743.434Z" transform="translate(357.542 -2740.335)" fill-rule="evenodd"/>
  <path id="Path_17748" data-name="Path 17748" d="M1419.738,2782.148c-14.605-.525-28.8-.456-39.32-4.631C1395.075,2774.7,1408.588,2780.887,1419.738,2782.148Z" transform="translate(390.463 -2746.763)" fill-rule="evenodd"/>
  <path id="Path_17749" data-name="Path 17749" d="M1071.8,2741.971c.068,5.359-6.991,1.8-9.919,1.9-7.6.248-19.958.741-31.062-1.605C1041.281,2739.339,1062.582,2738.937,1071.8,2741.971Z" transform="translate(356.708 -2739.875)" fill-rule="evenodd"/>
  <path id="Path_17750" data-name="Path 17750" d="M1537.976,2805.45c-.318-2.3,2.209-1.193,2.487-2.746-6.115-.979.226,5.872-6.849,3.272,4.522-4.793-.139-4.641-3.661-5.549,2.013-3.607,3.049-1.693,7.681-1.148,1.356-4.075-6.493-1.258-7.086-3.9,17.706.708,30.036,11.253,50.422,11.056.014,1.742-2.116,2.4-.355,3.023-4.3,3.364-12.477-5.107-14.173,1.4l-12.752-1.5c.536-1.287,2.052-1.37,2.477-2.773l-7.441-.876c-3.274-.7,2.369,3.239-1.41,2.9-3.93-.592-2.517-1.776-1.66-4.273C1543.365,2805.15,1540.751,2808.634,1537.976,2805.45Zm20.206,2.379c2.131.744,6.632,2.288,7.664-1.123C1561.7,2807.725,1559.9,2804.915,1558.182,2807.829Z" transform="translate(407.677 -2750.232)" fill-rule="evenodd"/>
  <path id="Path_17751" data-name="Path 17751" d="M1435.167,2784.148c1.676.3,4.108-.01,4.12,1.525C1440.046,2789.347,1432.459,2787.6,1435.167,2784.148Z" transform="translate(388.452 -2748.137)" fill-rule="evenodd"/>
  <path id="Path_17752" data-name="Path 17752" d="M1403.2,2786.5c3.152-1.992,10.308.849,15,.753C1415.069,2789.219,1407.91,2786.4,1403.2,2786.5Z" transform="translate(387.63 -2748.442)" fill-rule="evenodd"/>
  <path id="Path_17753" data-name="Path 17753" d="M1465.628,2796.285c5.651-3.673,14.123,3.456,0,0Z" transform="translate(391.966 -2750.199)" fill-rule="evenodd"/>
  <path id="Path_17754" data-name="Path 17754" d="M1490.059,2798.228c1.922.772,9.547,1.955,7.22,2.877-5.293-.519-5.126-1.592-9.575-1.127C1488.089,2798.906,1489.891,2799.533,1490.059,2798.228Z" transform="translate(394.517 -2750.764)" fill-rule="evenodd"/>
  <path id="Path_17755" data-name="Path 17755" d="M1634.907,2818.485c-12.1,1.537-32.084-3.856-41.231-6.881C1608.037,2811.061,1621.334,2817.458,1634.907,2818.485Z" transform="translate(411.667 -2753.254)" fill-rule="evenodd"/>
  <path id="Path_17756" data-name="Path 17756" d="M1159.762,2762.6l-10.63-1.252C1149.317,2758.618,1160.508,2759.054,1159.762,2762.6Z" transform="translate(362.936 -2743.552)" fill-rule="evenodd"/>
  <path id="Path_17757" data-name="Path 17757" d="M1781.232,2849.958c-37.354-3.178-77.1-15.13-113.715-22.586-2.345.607-3.5,2.705-6.733,2.273a2.94,2.94,0,0,1,3.427-1.649c-1.544-1.9-5.621-1.934-7.087-3.9C1693.959,2826.46,1738.882,2838.971,1781.232,2849.958Z" transform="translate(438.781 -2755.591)" fill-rule="evenodd"/>
  <path id="Path_17758" data-name="Path 17758" d="M1586.423,2816.9c5.28-1.69,10.83,1.171,14.885,1.753C1597.625,2820.735,1590.174,2817.832,1586.423,2816.9Z" transform="translate(404.869 -2754.149)" fill-rule="evenodd"/>
  <path id="Path_17759" data-name="Path 17759" d="M1630.853,2823.4c-1.757,2.131-7.448-.487-10.748-.252C1622.37,2819.961,1627.271,2822.539,1630.853,2823.4Z" transform="translate(407.082 -2755.125)" fill-rule="evenodd"/>
  <path id="Path_17760" data-name="Path 17760" d="M912.455,2740.831c-5.709,4.289-16.852,2.042-26.111,2.043C893.078,2738.836,905.412,2741.561,912.455,2740.831Z" transform="translate(340.491 -2740.011)" fill-rule="evenodd"/>
  <path id="Path_17761" data-name="Path 17761" d="M881.476,2742.98c1.446,1.444-6.965.765-9.788.9C873.73,2742.121,877.443,2742.348,881.476,2742.98Z" transform="translate(336.842 -2740.368)" fill-rule="evenodd"/>
  <path id="Path_17762" data-name="Path 17762" d="M1650.582,2834.442c.69-1.321,9.88-1.331,8.389,2.028C1656.5,2835.555,1654.293,2834.437,1650.582,2834.442Z" transform="translate(409.421 -2757.368)" fill-rule="evenodd"/>
  <path id="Path_17763" data-name="Path 17763" d="M814.329,2746.905c2-2.674,9.671-3.043,12.041-1.647,14.833-.487,1.349.757-4.612,2.522C817.906,2747.118,817.856,2745.918,814.329,2746.905Z" transform="translate(332.631 -2740.731)" fill-rule="evenodd"/>
  <path id="Path_17764" data-name="Path 17764" d="M1851.953,2868.2c.416-1.432,9.03-1.327,7.325,1.875C1856.455,2869.743,1853.168,2869.745,1851.953,2868.2Z" transform="translate(427.974 -2763.656)" fill-rule="evenodd"/>
  <path id="Path_17765" data-name="Path 17765" d="M811.421,2745.959c-.56,1.725-8.163,4.312-7.561.122C805.4,2744.86,808.6,2745.626,811.421,2745.959Z" transform="translate(330.184 -2740.909)" fill-rule="evenodd"/>
  <path id="Path_17766" data-name="Path 17766" d="M1908.446,2883.5c-12.527-2-24.084-4.68-33.416-9.052,2.557-4.036,10.912-1.027,12.647,2.5C1897.341,2876.865,1902.4,2879.357,1908.446,2883.5Z" transform="translate(437.008 -2764.626)" fill-rule="evenodd"/>
  <path id="Path_17767" data-name="Path 17767" d="M824.966,2751.312c1.174.5,2.478,2.111.83,2.15-32.9,1.944-63.608,6.485-96.845,8C756.766,2753.076,791.628,2753.1,824.966,2751.312Z" transform="translate(334.454 -2742.009)" fill-rule="evenodd"/>
  <path id="Path_17768" data-name="Path 17768" d="M792.68,2747.515c-1.281,1.928-4.335,1.7-7.681,1.148C785.488,2745.785,789.647,2747.34,792.68,2747.515Z" transform="translate(328.439 -2741.193)" fill-rule="evenodd"/>
  <path id="Path_17769" data-name="Path 17769" d="M2039.025,2902.017c5,4.485,10.228-.692,13.475,4.651-6.539,1.8-16.232,4.454-23.868,1.269,3.446-1.6,7.386-4.819,11.1-2.772A4.654,4.654,0,0,1,2039.025,2902.017Z" transform="translate(583.697 -2770.131)" fill-rule="evenodd"/>
  <path id="Path_17770" data-name="Path 17770" d="M1938.9,2894.96c6.287.688,5.313,1.4,10.393,3.276.46,2.834-2.345,1.776-2.595,3.773C1944.55,2899.314,1938.959,2899.226,1938.9,2894.96Z" transform="translate(436.872 -2768.814)" fill-rule="evenodd"/>
  <path id="Path_17771" data-name="Path 17771" d="M1954.444,2898.067c2.182,2.05,7.941,1.4,10.394,3.251-1.428,2.715-1.721,4.161,2.7,4.422C1961.974,2907.734,1955.015,2902.862,1954.444,2898.067Z" transform="translate(439.053 -2769.394)" fill-rule="evenodd"/>
  <path id="Path_17772" data-name="Path 17772" d="M1437.992,2842.444c-7.75,5.347-12.818.7-21.616.52C1419.734,2838.164,1430.567,2842.349,1437.992,2842.444Z" transform="translate(390.245 -2758.682)" fill-rule="evenodd"/>
  <path id="Path_17773" data-name="Path 17773" d="M2098.314,2924.915c3.42-2.168,7.411,3,11.459,3.4C2105.827,2930.891,2102.122,2925.494,2098.314,2924.915Z" transform="translate(570.694 -2774.305)" fill-rule="evenodd"/>
  <path id="Path_17774" data-name="Path 17774" d="M1185.757,2838.706c-4.57,2.321-11.327,2.719-18.31,2.936C1171.208,2838.6,1179.173,2839.257,1185.757,2838.706Z" transform="translate(365.995 -2758.317)" fill-rule="evenodd"/>
  <path id="Path_17775" data-name="Path 17775" d="M2222.73,2948.42c5.121-1.969,9,4.9,14.4,5.772C2231.2,2956.768,2227.232,2949.964,2222.73,2948.42Z" transform="translate(547.478 -2798.425)" fill-rule="evenodd"/>
  <path id="Path_17776" data-name="Path 17776" d="M1977.811,2924.459c1.763-2.415,6.537.535,8.5,1C1984.09,2928.238,1980.714,2924.23,1977.811,2924.459Z" transform="translate(439.979 -2774.144)" fill-rule="evenodd"/>
  <path id="Path_17777" data-name="Path 17777" d="M2147.367,2944.828c-.521,1.29-2.05,1.37-2.476,2.775-.594,1.671.6,1.993,1.881,2.273-1.889,4.064-3.484-.41-6.375-.751C2141.049,2945.7,2144.088,2945.118,2147.367,2944.828Z" transform="translate(562.841 -2797.515)" fill-rule="evenodd"/>
  <path id="Path_17778" data-name="Path 17778" d="M1601.587,2883.7c-4.731,1.91-18.017-2.251-23.262-3.753-7.362-2.139,1.38-1.031,5.429-.4C1589.639,2880.5,1596.47,2883.538,1601.587,2883.7Z" transform="translate(406.4 -2765.779)" fill-rule="evenodd"/>
  <path id="Path_17779" data-name="Path 17779" d="M1176.651,2850c-1.73,2.576-7.735,1.427-12.171,1.632C1166.191,2849.054,1172.2,2850.2,1176.651,2850Z" transform="translate(364.637 -2760.409)" fill-rule="evenodd"/>
  <path id="Path_17780" data-name="Path 17780" d="M1160.239,2851.49c-2.406,1.224-6.659.852-10.551.81C1151.09,2850.075,1157.293,2849.064,1160.239,2851.49Z" transform="translate(362.968 -2760.441)" fill-rule="evenodd"/>
  <path id="Path_17781" data-name="Path 17781" d="M1683.075,2896.261c4.966.273,9.2,1.083,11.459,3.4C1691.743,2901.385,1683.221,2899.551,1683.075,2896.261Z" transform="translate(413.153 -2769.057)" fill-rule="evenodd"/>
  <path id="Path_17782" data-name="Path 17782" d="M1771.37,2915.538c-.063,3.448,4.551,3.341,6.98,4.927-3.01,2.763-6.314-1.964-10.63-1.252C1768.275,2917.174,1770.816,2917.577,1771.37,2915.538Z" transform="translate(420.885 -2772.654)" fill-rule="evenodd"/>
  <path id="Path_17783" data-name="Path 17783" d="M2079.281,2951.7c10.406,2.238,13.067,4.629,22.9,6.8-.2,3.3-3.068,4.548,1.531,5.272-1.969,2.886-4.565-1.369-7.443-.876.314-1.157,2.044-.616,3.3-.625C2095.233,2956.952,2082.992,2957.511,2079.281,2951.7Z" transform="translate(574.246 -2799.608)" fill-rule="evenodd"/>
  <path id="Path_17784" data-name="Path 17784" d="M2157.965,2969.55c1.576-2.569,5.538.652,7.442.876C2163.818,2972.992,2159.859,2969.746,2157.965,2969.55Z" transform="translate(559.563 -2804.083)" fill-rule="evenodd"/>
  <path id="Path_17785" data-name="Path 17785" d="M2125.425,2968.165c-1.429,1.91-8.364.21-9.563-1.127C2118.8,2963.7,2120.492,2968.545,2125.425,2968.165Z" transform="translate(567.42 -2803.333)" fill-rule="evenodd"/>
  <path id="Path_17786" data-name="Path 17786" d="M1838.131,2940.49c.373-1.074,2.188-.445,2.345-1.776,1.93.124,2.112,1.495,4.135,1.526C1844.271,2943,1839.319,2942.032,1838.131,2940.49Z" transform="translate(426.409 -2795.713)" fill-rule="evenodd"/>
  <path id="Path_17787" data-name="Path 17787" d="M1858.873,2944.392c.711-2.2,5.739-.128,6.375.751C1864.54,2947.32,1859.525,2945.249,1858.873,2944.392Z" transform="translate(428.314 -2797.019)" fill-rule="evenodd"/>
  <path id="Path_17788" data-name="Path 17788" d="M1766.957,2948.752c7.51-1.791,17.874,3.585,22.088,4.654C1784.035,2957,1771.074,2949.029,1766.957,2948.752Z" transform="translate(423.694 -2798.496)" fill-rule="evenodd"/>
  <path id="Path_17789" data-name="Path 17789" d="M1100.234,2887.733c-4.773,2.919-12.368,3.324-21.276,2.613C1084.244,2887.9,1092.874,2888.4,1100.234,2887.733Z" transform="translate(358.11 -2767.466)" fill-rule="evenodd"/>
  <path id="Path_17790" data-name="Path 17790" d="M1740.124,2950.028c-2.168-1.943-5.792-.476-6.259-1.75C1733.569,2944.4,1742.207,2946.767,1740.124,2950.028Z" transform="translate(416.721 -2797.846)" fill-rule="evenodd"/>
  <path id="Path_17791" data-name="Path 17791" d="M2140.926,3001.628c-6.944-.689-9.653-3.5-16.519-6.024C2128.218,2991.04,2138.184,2997.226,2140.926,3001.628Z" transform="translate(565.825 -2811.37)" fill-rule="evenodd"/>
  <path id="Path_17792" data-name="Path 17792" d="M1057.861,2889.219c-6.334,3.748-19.892,1.19-28.747,2.771C1034.466,2887.372,1048.026,2889.93,1057.861,2889.219Z" transform="translate(354.568 -2767.728)" fill-rule="evenodd"/>
  <path id="Path_17793" data-name="Path 17793" d="M1935.955,2976.087c2.675-2.828,5.871,1.653,9.562,1.126C1943.55,2979.5,1938.041,2976.75,1935.955,2976.087Z" transform="translate(436.357 -2805.935)" fill-rule="evenodd"/>
  <path id="Path_17794" data-name="Path 17794" d="M1781.594,2959.375c3.51.439,7.587.478,7.1,3.9C1787.107,2961.4,1780.853,2963,1781.594,2959.375Z" transform="translate(421.317 -2801.532)" fill-rule="evenodd"/>
  <path id="Path_17795" data-name="Path 17795" d="M1802.457,2961.839c2.717.424,5,1.161,6.138,2.775C1808.61,2968.538,1800.407,2965.286,1802.457,2961.839Z" transform="translate(423.051 -2802.241)" fill-rule="evenodd"/>
  <path id="Path_17796" data-name="Path 17796" d="M2150.107,3002.767c4.225,3.9,11.455,5.53,17.347,8.172C2161.5,3012,2150.611,3008.852,2150.107,3002.767Z" transform="translate(561.03 -2813.86)" fill-rule="evenodd"/>
  <path id="Path_17797" data-name="Path 17797" d="M230.487,2797.528c-1.269,2.369-8.951,2.062-10.552.809C222.256,2797.025,225.943,2796.888,230.487,2797.528Z" transform="translate(148.806 -2750.564)" fill-rule="evenodd"/>
  <path id="Path_17798" data-name="Path 17798" d="M1925.883,2982.244c-3.4,2.483-8.017-1.931-11.566-2.374C1917.538,2977.521,1923.178,2981.147,1925.883,2982.244Z" transform="translate(434.871 -2807.07)" fill-rule="evenodd"/>
  <path id="Path_17799" data-name="Path 17799" d="M1660.686,2951.427c5.769.55,8.246,2.764,15.7,3.876C1670.35,2956.228,1662.9,2955.559,1660.686,2951.427Z" transform="translate(412.061 -2799.308)" fill-rule="evenodd"/>
  <path id="Path_17800" data-name="Path 17800" d="M552.515,2842.054a9.305,9.305,0,0,0,4.287,1.519c-4.39,2.574-8.5,8.454-7.432,12.424-10.669-1.1-9.4-4.8-16-3.936.071-2.537,2.693-2.853,3.557-4.7C542.934,2850.277,551.266,2846.843,552.515,2842.054Z" transform="translate(306.473 -2758.942)" fill-rule="evenodd"/>
  <path id="Path_17801" data-name="Path 17801" d="M1928.38,2990.558c2.832.021,2.481,2.421,2.714,4.4l-5.321-.626C1925.311,2991.494,1928.117,2992.552,1928.38,2990.558Z" transform="translate(434.272 -2810.306)" fill-rule="evenodd"/>
  <path id="Path_17802" data-name="Path 17802" d="M1958.092,2998.223c-3.954.21-3.808-2.656-7.19-2.9C1951.73,2992.02,1957.784,2995.616,1958.092,2998.223Z" transform="translate(437.109 -2811.267)" fill-rule="evenodd"/>
  <path id="Path_17803" data-name="Path 17803" d="M499.14,2848.074c4.058-.223,2.608,2.411,4.07,3.545,3.579-.2,2.938-4.122,9.226-1.979-1.024.789-2.011,1.582-.238,2.024-1.624,1.185-4.174,1.536-6.282,2.326,1.122,1.612,1.837,3.438,5.573,3.7-9.656,5.305-18.412-1.545-30.23,2.6-2.416-1.271-2.587-3.708-5.429-4.744-9.451-.8-8.428,7.476-20.015,4.813-1.193-5.855-10-1.75-12.92-4.587,1.863-2.092,9.327.708,7.962-4.18,2.539.247,3.739,1.194,4.207,2.547,3.087.1.915-4.386,3.519-4.7,9.261,1.765,18.846,5.284,26.927.1,2.417,3.532,10.678-1.886,8.5,4.066C498.759,2852.939,494.917,2850.2,499.14,2848.074Z" transform="translate(301.878 -2760.063)" fill-rule="evenodd"/>
  <path id="Path_17804" data-name="Path 17804" d="M2039.95,3014.757c2.862-2.677,6.014,2.189,7.1,3.9-1.588,2.566-5.55-.654-7.455-.878C2039.58,3016.039,2041.711,3015.38,2039.95,3014.757Z" transform="translate(581.652 -2816.925)" fill-rule="evenodd"/>
  <path id="Path_17805" data-name="Path 17805" d="M145.994,2817.716c-.168,3.2-4.2,3.038-7.866,3.179C139.572,2818.805,141.565,2817.221,145.994,2817.716Z" transform="translate(164.072 -2754.384)" fill-rule="evenodd"/>
  <path id="Path_17806" data-name="Path 17806" d="M102.759,2825.019c3.612.01,2.989,2.224,7.272,1.87-1.45,1.336-2.59,2.941-6.263,2.328A4.46,4.46,0,0,1,102.759,2825.019Z" transform="translate(170.694 -2755.763)" fill-rule="evenodd"/>
  <path id="Path_17807" data-name="Path 17807" d="M1914.555,3026.647c2.227,4,7.726,7.43,12.631,11.7-4.38.808-11.8-4.013-16.518-6.024C1911.6,3029.988,1915.482,3031.224,1914.555,3026.647Z" transform="translate(435.861 -2820.698)" fill-rule="evenodd"/>
  <path id="Path_17808" data-name="Path 17808" d="M2278.627,3080c-11.021-6.416-26.549-5.387-39.556-11.8,1.237-3.646,5.256.724,7.324,1.875C2257.28,3071.717,2271.93,3072.221,2278.627,3080Z" transform="translate(544.429 -2832.064)" fill-rule="evenodd"/>
  <path id="Path_17809" data-name="Path 17809" d="M2474.017,3093.914c3.043,1.6,1.087,3.323,2.358,7.421,7.9,1.139,10.688,6.116,17.36,8.175-9.6.116-19.586-7.423-27.752-11.45C2469.016,3095.792,2474.4,3101.492,2474.017,3093.914Z" transform="translate(502.087 -2839.82)" fill-rule="evenodd"/>
  <path id="Path_17810" data-name="Path 17810" d="M428.551,2873.544c1.517,4.724-7.43,4.657-6.047.326C425.153,2874.313,425.781,2873.01,428.551,2873.544Z" transform="translate(294.489 -2764.794)" fill-rule="evenodd"/>
  <path id="Path_17811" data-name="Path 17811" d="M2336.914,3081.272c4.081-.585,3.181,2.53,4.966,3.65C2340.564,3087.027,2336.664,3083.4,2336.914,3081.272Z" transform="translate(526.173 -2835.77)" fill-rule="evenodd"/>
  <path id="Path_17812" data-name="Path 17812" d="M2051.631,3049.008c1.611.631.518,3.283,4.007,2.5-2.571,1.827.547,3.389-1.648,4.923C2051.712,3055.07,2048.506,3051.6,2051.631,3049.008Z" transform="translate(579.648 -2826.838)" fill-rule="evenodd"/>
  <path id="Path_17813" data-name="Path 17813" d="M2289.575,3078.238c8.068,1.029,15.806,2.3,18.545,7.3-3.689.63-6.667-4.448-6.614,1.273-1.934-.1-2.094-1.52-4.135-1.527.3-1.159,2.032-.617,3.306-.623C2298.518,3080.1,2289.037,3085.6,2289.575,3078.238Z" transform="translate(535.009 -2835.108)" fill-rule="evenodd"/>
  <path id="Path_17814" data-name="Path 17814" d="M2073.219,3054.081c2.7.447,1.722,3.631,1.406,6.322a6.136,6.136,0,0,0-4.12-1.525C2071.742,3057.673,2071.982,3055.285,2073.219,3054.081Z" transform="translate(575.884 -2828.224)" fill-rule="evenodd"/>
  <path id="Path_17815" data-name="Path 17815" d="M2057.885,3053.48c3.492-.472,3.109,1.977,5.072,2.625C2062.25,3058.046,2055.289,3057.045,2057.885,3053.48Z" transform="translate(578.346 -2827.94)" fill-rule="evenodd"/>
  <path id="Path_17816" data-name="Path 17816" d="M1886.511,3035.8c2.584.85,6.406.728,6.017,3.8C1892.029,3037.2,1885.071,3039.652,1886.511,3035.8Z" transform="translate(430.835 -2822.994)" fill-rule="evenodd"/>
  <path id="Path_17817" data-name="Path 17817" d="M281.551,2866.4a4.29,4.29,0,0,1,2.486,4.4c-1.686-.379-2.649-.1-3.08.651-4.689-.059-5.588-2.112-8.594-3.064C272.06,2864.82,280.436,2868.767,281.551,2866.4Z" transform="translate(139.025 -2763.486)" fill-rule="evenodd"/>
  <path id="Path_17818" data-name="Path 17818" d="M267.561,2867.4c-2.217,2.519-7.691,2.187-13.632,1.461C257.628,2867.634,263.106,2867.941,267.561,2867.4Z" transform="translate(142.463 -2763.672)" fill-rule="evenodd"/>
  <path id="Path_17819" data-name="Path 17819" d="M2340.378,3096.774c.988-.378,11.572-.118,10.273,4.275C2347.937,3099.094,2343.122,3098.707,2340.378,3096.774Z" transform="translate(525.525 -2840.113)" fill-rule="evenodd"/>
  <path id="Path_17820" data-name="Path 17820" d="M2104.055,3070.305c-3.992,2.958,2.191,3.011,3.767,4.522-2.522,2.118-8.279-1.1-8.154-4.025A6.375,6.375,0,0,1,2104.055,3070.305Z" transform="translate(570.442 -2832.706)" fill-rule="evenodd"/>
  <path id="Path_17821" data-name="Path 17821" d="M2148.68,3078.706c-2.184-2.854-8.129.653-7.2-2.9C2144.157,3075.264,2148.549,3075.053,2148.68,3078.706Z" transform="translate(562.658 -2834.124)" fill-rule="evenodd"/>
  <path id="Path_17822" data-name="Path 17822" d="M2364.492,3105.838c2.405-1.12,10.53,1.292,11.327,4.4C2371.734,3109,2368.369,3107.23,2364.492,3105.838Z" transform="translate(521.025 -2842.627)" fill-rule="evenodd"/>
  <path id="Path_17823" data-name="Path 17823" d="M2033.538,3075.174c-4.182-2.285-15.658-2.753-19.378-9.425,1.212.3,1.92-.008,2.255-.773C2022.228,3070.153,2030.859,3068.962,2033.538,3075.174Z" transform="translate(586.398 -2831.439)" fill-rule="evenodd"/>
  <path id="Path_17824" data-name="Path 17824" d="M2128.308,3083.552c-4.252,2.383-10.239-4.115-12.527-3.528C2117.923,3075.212,2122.761,3082.977,2128.308,3083.552Z" transform="translate(567.435 -2835.051)" fill-rule="evenodd"/>
  <path id="Path_17825" data-name="Path 17825" d="M2391.528,3113.742c-.771.844-1.512,1.667-.238,2.024-1.853,1.314-5.974-3.456-10.393-3.276C2383.3,3108.124,2386.615,3114.41,2391.528,3113.742Z" transform="translate(517.964 -2844.155)" fill-rule="evenodd"/>
  <path id="Path_17826" data-name="Path 17826" d="M2191.606,3089.388c1.19,3.388-6.678,4.149-5.427.374A7.461,7.461,0,0,1,2191.606,3089.388Z" transform="translate(554.324 -2837.933)" fill-rule="evenodd"/>
  <path id="Path_17827" data-name="Path 17827" d="M2196.364,3093.548c1.3-1.485,7.079,1.405,7.085,3.9A8.947,8.947,0,0,1,2196.364,3093.548Z" transform="translate(552.398 -2839.124)" fill-rule="evenodd"/>
  <path id="Path_17828" data-name="Path 17828" d="M2400.928,3117.772c1.988-.832,7.888,3.267,8.969,6.174-4.982-.25-6.853-2.859-11.458-3.4C2397.761,3118.386,2404.09,3119.183,2400.928,3117.772Z" transform="translate(514.7 -2846.101)" fill-rule="evenodd"/>
  <path id="Path_17829" data-name="Path 17829" d="M2137.413,3087.956c5.908-.733,5.314,3.379,9.221,4.152C2144.655,3095.9,2137.637,3091.179,2137.413,3087.956Z" transform="translate(563.398 -2837.697)" fill-rule="evenodd"/>
  <path id="Path_17830" data-name="Path 17830" d="M2190.665,3096.741c3.393-.094,3.992,1.924,6.152,2.777C2195.457,3101.643,2189.6,3099.473,2190.665,3096.741Z" transform="translate(553.485 -2840.105)" fill-rule="evenodd"/>
  <path id="Path_17831" data-name="Path 17831" d="M2160.707,3099.7c8.4-2.829,13.07,5.176,21.718,7.675.092,4.115-7.693-.829-4.479,1.524-6.5-1-12.839-9.123-24.564-11.075-.094-5.83,4.233-2.931,7.8-2.146C2162.714,3097.882,2160.934,3096.945,2160.707,3099.7Z" transform="translate(560.419 -2839.884)" fill-rule="evenodd"/>
  <path id="Path_17832" data-name="Path 17832" d="M1583.605,3032.4c-.409,2.549-4.251,1.914-5.443.4.809-.943,2.569-.763,2.476-2.773C1581.988,3030.542,1582.106,3031.984,1583.605,3032.4Z" transform="translate(401.953 -2821.382)" fill-rule="evenodd"/>
  <path id="Path_17833" data-name="Path 17833" d="M2192.65,3113.111c.951-2.382,5.426.092,4.005,2.5-1.893-.326-2.39.992-4.361.525C2192.266,3114.39,2194.4,3113.732,2192.65,3113.111Z" transform="translate(553.158 -2844.452)" fill-rule="evenodd"/>
  <path id="Path_17834" data-name="Path 17834" d="M2200.424,3115.477c1.951-.393,4.054,3.491,5.309.625,2.08,1.518,2.439,4.287,4.714,5.673.2-4.133,8.245.685,11.566,2.375-2.187,1.717-2.024.566-1.529,3.925C2212.392,3124.912,2203.127,3122.654,2200.424,3115.477Z" transform="translate(551.641 -2845.764)" fill-rule="evenodd"/>
  <path id="Path_17835" data-name="Path 17835" d="M2079.178,3107.341c-8.467,2.354-10.127-4.362,0,0Z" transform="translate(575.569 -2842.589)" fill-rule="evenodd"/>
  <path id="Path_17836" data-name="Path 17836" d="M120.216,2893.729c-1.56,1.609-5.634,1.026-6.382,3.326C107.482,2894.828,113.884,2891.478,120.216,2893.729Z" transform="translate(169.094 -2768.445)" fill-rule="evenodd"/>
  <path id="Path_17837" data-name="Path 17837" d="M1953.3,3093.992c2.893,3.925,9.584,1.881,16.514,6.049-4.338,5.671-12.887-1.154-19.125-2.252C1951.336,3096.255,1954.142,3097.313,1953.3,3093.992Z" transform="translate(440.357 -2839.529)" fill-rule="evenodd"/>
  <path id="Path_17838" data-name="Path 17838" d="M2062.2,3108.022c.569.639,4.745,2.949,5.308.625.929-.1.953.5.934,1.124l-.238,2.024C2065.248,3109.343,2061.855,3112.917,2062.2,3108.022Z" transform="translate(577.438 -2843.28)" fill-rule="evenodd"/>
  <path id="Path_17839" data-name="Path 17839" d="M2227.762,3127.562c3.124,3.121,8.013.554,11.327,4.4-1.708,5.435-7.052-.233-13,.495C2228.311,3130.926,2225.195,3129.364,2227.762,3127.562Z" transform="translate(546.851 -2848.907)" fill-rule="evenodd"/>
  <path id="Path_17840" data-name="Path 17840" d="M1987.44,3107.609c-6.155.755-7.909-1.918-13.819-1.627C1976.2,3101.922,1984.5,3106.2,1987.44,3107.609Z" transform="translate(441.057 -2842.215)" fill-rule="evenodd"/>
  <path id="Path_17841" data-name="Path 17841" d="M2218.681,3140.244c1.33,2.08,6.942.948,8.272,3.026C2225.081,3145.207,2218.115,3143.191,2218.681,3140.244Z" transform="translate(548.24 -2852.332)" fill-rule="evenodd"/>
  <path id="Path_17842" data-name="Path 17842" d="M2300.871,3151.2c7.127,5.073,13.857,10.489,21.958,14.845C2316.142,3162.245,2301.432,3161.786,2300.871,3151.2Z" transform="translate(532.897 -2855.954)" fill-rule="evenodd"/>
  <path id="Path_17843" data-name="Path 17843" d="M2283.519,3160.94c-2.551,1.545-7.682.005-10.868.773-3.731-4.258-10.868-5.982-18.531-7.3C2265.988,3153.057,2270.26,3157.016,2283.519,3160.94Z" transform="translate(541.621 -2856.422)" fill-rule="evenodd"/>
  <path id="Path_17844" data-name="Path 17844" d="M2488.848,3183.691a5.423,5.423,0,0,1-.579-4.147c3.1-.491,2.575,1.733,5.191,1.624C2492.369,3182.52,2491.489,3184.183,2488.848,3183.691Z" transform="translate(497.955 -2863.377)" fill-rule="evenodd"/>
  <path id="Path_17845" data-name="Path 17845" d="M2064.765,3130.937c2.347,1,5.324,1.537,7.2,2.9C2070.365,3135.832,2063.681,3133.979,2064.765,3130.937Z" transform="translate(576.977 -2849.715)" fill-rule="evenodd"/>
  <path id="Path_17846" data-name="Path 17846" d="M2096.015,3135.7c2.353-2.3,6.333,1.939,9.443,2.15C2103.6,3139.767,2098.349,3136.472,2096.015,3135.7Z" transform="translate(571.123 -2850.848)" fill-rule="evenodd"/>
  <path id="Path_17847" data-name="Path 17847" d="M2483.55,3190.2c-2,6.414-8.342-2.073-15.006-.728C2472.6,3186.075,2477.579,3189.959,2483.55,3190.2Z" transform="translate(501.609 -2865.809)" fill-rule="evenodd"/>
  <path id="Path_17848" data-name="Path 17848" d="M2160.32,3152.214c2.909.888,5.349,2.137,8.258,3.025C2167.471,3156.615,2159.947,3155.027,2160.32,3152.214Z" transform="translate(559.127 -2855.681)" fill-rule="evenodd"/>
  <path id="Path_17849" data-name="Path 17849" d="M2302.6,3170.245c5.037.827,9.613,1.989,11.209,5.4C2308.341,3175.129,2303.135,3174.438,2302.6,3170.245Z" transform="translate(532.574 -2860.84)" fill-rule="evenodd"/>
  <path id="Path_17850" data-name="Path 17850" d="M2283.572,3174.3l4.254.5c.229,2.6.444,4.26,4.718,5.647C2288.635,3182.71,2283.56,3178.009,2283.572,3174.3Z" transform="translate(536.125 -2862.049)" fill-rule="evenodd"/>
  <path id="Path_17851" data-name="Path 17851" d="M2345.476,3210.5c2.556,2.378,5.847,4.194,8.958,6.146C2350.658,3218.821,2343.408,3215.735,2345.476,3210.5Z" transform="translate(524.641 -2872.236)" fill-rule="evenodd"/>
  <path id="Path_17852" data-name="Path 17852" d="M1912.185,3163.092c-2.378,2.292-5.179.845-7.56.123C1906.167,3159.423,1908.3,3163.493,1912.185,3163.092Z" transform="translate(432.892 -2858.274)" fill-rule="evenodd"/>
  <path id="Path_17853" data-name="Path 17853" d="M1677.519,3142.5c-7.384.144-17.68-3.717-24.212-4.876C1662.023,3136.754,1672.9,3135.8,1677.519,3142.5Z" transform="translate(413.39 -2851.504)" fill-rule="evenodd"/>
  <path id="Path_17854" data-name="Path 17854" d="M1693.4,3142.378c-3.059,2.262.377,4.355,2.593,5.421-.422,2.547-3.8,1.58-6.61,1.249-1.556-1.9-1.793-4.784-3.542-6.549C1687.071,3138.93,1689.221,3143,1693.4,3142.378Z" transform="translate(413.099 -2852.773)" fill-rule="evenodd"/>
  <path id="Path_17855" data-name="Path 17855" d="M2089.708,3192.441c-3.769,2.6-9.639-2.8-8.375-2.024C2076.908,3187.635,2085.631,3190.325,2089.708,3192.441Z" transform="translate(574.091 -2866.097)" fill-rule="evenodd"/>
  <path id="Path_17856" data-name="Path 17856" d="M1723.852,3152.432c2.526.869,5.37,1.49,4.847,4.65l-7.442-.876C1721.505,3154.208,1724.311,3155.266,1723.852,3152.432Z" transform="translate(415.769 -2855.797)" fill-rule="evenodd"/>
  <path id="Path_17857" data-name="Path 17857" d="M2204.862,3212.63c3.619-2.354,7.728,2.754,11.448,3.373C2213.263,3217.931,2208.329,3213.427,2204.862,3212.63Z" transform="translate(550.812 -2872.528)" fill-rule="evenodd"/>
  <path id="Path_17858" data-name="Path 17858" d="M1749.857,3161.473c.2-1.534,8.133-1.276,6.24,1.775C1753.477,3163.068,1750.974,3162.8,1749.857,3161.473Z" transform="translate(418.197 -2857.982)" fill-rule="evenodd"/>
  <path id="Path_17859" data-name="Path 17859" d="M1762.91,3163.222a49.219,49.219,0,0,1,10.51,2.277C1772.161,3166.65,1761.932,3166.77,1762.91,3163.222Z" transform="translate(420.414 -2858.746)" fill-rule="evenodd"/>
  <path id="Path_17860" data-name="Path 17860" d="M1832.091,3171.355c4.805-.811,1.807,4.188,6.018,3.774C1836.366,3177.262,1830.213,3174.979,1832.091,3171.355Z" transform="translate(425.785 -2861.091)" fill-rule="evenodd"/>
  <path id="Path_17861" data-name="Path 17861" d="M1858.768,3182.12c-.59,1.983-.142,3.178,1.778,3.275-2.4,2.912-4.436-2.107-7.325-1.876C1853.644,3181.335,1856.149,3181.682,1858.768,3182.12Z" transform="translate(428.034 -2864.04)" fill-rule="evenodd"/>
  <path id="Path_17862" data-name="Path 17862" d="M1906.155,3193.806l-.238,2.023c-3.327.336-2.915-2.109-6.254-1.775-.434-2.831,4.937,1.336,4.5-1.5C1904.995,3192.838,1905.088,3193.68,1906.155,3193.806Z" transform="translate(432.149 -2867)" fill-rule="evenodd"/>
  <path id="Path_17863" data-name="Path 17863" d="M2311,3250.441c-12.757,1.226-23.167-4.339-36.6-9.428C2283.722,3240.11,2299.647,3243.492,2311,3250.441Z" transform="translate(537.836 -2880.951)" fill-rule="evenodd"/>
  <path id="Path_17864" data-name="Path 17864" d="M2320.685,3252.785c3.968-.208,5.582,1.333,7.2,2.9C2326.372,3257.636,2320.025,3255.487,2320.685,3252.785Z" transform="translate(529.208 -2883.93)" fill-rule="evenodd"/>
  <path id="Path_17865" data-name="Path 17865" d="M2331,3255.248c4.174,1.192,6.218,3.952,10.157,5.274C2338.591,3261.8,2330.844,3259.1,2331,3255.248Z" transform="translate(527.276 -2884.745)" fill-rule="evenodd"/>
  <path id="Path_17866" data-name="Path 17866" d="M2040.629,3224.583c-6.9,3.11-6.73-4.949,0,0Z" transform="translate(582.412 -2875.478)" fill-rule="evenodd"/>
  <path id="Path_17867" data-name="Path 17867" d="M2082.954,3234.863c1.758,1.116,5.256.957,6.139,2.749C2089.619,3241.181,2080.862,3238.332,2082.954,3234.863Z" transform="translate(573.621 -2878.944)" fill-rule="evenodd"/>
  <path id="Path_17868" data-name="Path 17868" d="M2093.035,3239.81c7.531.367,11.986,4.165,15.6,4.9C2104.337,3246.049,2093.225,3244.585,2093.035,3239.81Z" transform="translate(571.68 -2880.392)" fill-rule="evenodd"/>
  <path id="Path_17869" data-name="Path 17869" d="M2113.215,3248.256c2.875-2.676,6.311,1.99,9.456,2.152C2120.292,3252.7,2115.592,3249,2113.215,3248.256Z" transform="translate(567.914 -2882.434)" fill-rule="evenodd"/>
  <path id="Path_17870" data-name="Path 17870" d="M2349.631,3280.631c-6.583.316-17.966-3.726-26.33-5.153C2330.837,3271.95,2341.562,3278.8,2349.631,3280.631Z" transform="translate(528.711 -2890.188)" fill-rule="evenodd"/>
  <path id="Path_17871" data-name="Path 17871" d="M1616.409,3192.247c2.945-3.031,5.5,1.946,7.19,2.9C1621.812,3197.3,1617.971,3193.288,1616.409,3192.247Z" transform="translate(405.914 -2866.704)" fill-rule="evenodd"/>
  <path id="Path_17872" data-name="Path 17872" d="M1735.739,3214.209c7.841,4.352,11.021,1.428,21.021,4.527-9.968,3.138-18.5-1.841-26.686-2.129C1730.224,3213.717,1736.886,3218.657,1735.739,3214.209Z" transform="translate(421.329 -2873.207)" fill-rule="evenodd"/>
  <path id="Path_17873" data-name="Path 17873" d="M1765.506,3220.084c5.926.153,9.944,1.743,14.754,2.751C1775.351,3224.282,1767.693,3224.887,1765.506,3220.084Z" transform="translate(421.71 -2874.757)" fill-rule="evenodd"/>
  <path id="Path_17874" data-name="Path 17874" d="M-167.863,3014.284c2.414,0,2.419,1.245,4.289,1.517.884,2.988-2.37,2.372-2.058,4.875C-169.389,3020.13-168.158,3016.95-167.863,3014.284Z" transform="translate(221.25 -2817.037)" fill-rule="evenodd"/>
  <path id="Path_17875" data-name="Path 17875" d="M2351.462,3295.341a36.27,36.27,0,0,1,13.58,3.651C2360.686,3299.467,2352,3299.379,2351.462,3295.341Z" transform="translate(523.456 -2895.899)" fill-rule="evenodd"/>
  <path id="Path_17876" data-name="Path 17876" d="M2167.407,3284.2c-1.423-.011-2.719-4.476-4.121-1.523C2160.081,3278.742,2169.156,3279.473,2167.407,3284.2Z" transform="translate(558.7 -2891.642)" fill-rule="evenodd"/>
  <path id="Path_17877" data-name="Path 17877" d="M2193.048,3290.424c2.975-1.545,9.929,1.741,11.326,4.4C2199.238,3293.205,2197.619,3293.352,2193.048,3290.424Z" transform="translate(553.017 -2894.469)" fill-rule="evenodd"/>
  <path id="Path_17878" data-name="Path 17878" d="M2110.6,3281.839c.711-2.2,5.272.231,7.547-.125l-.473,4.023C2117.349,3282.946,2112.278,3283.673,2110.6,3281.839Z" transform="translate(568.401 -2891.908)" fill-rule="evenodd"/>
  <path id="Path_17879" data-name="Path 17879" d="M2212.221,3296.32c2.215-2.752,5.591,1.255,8.5,1C2218.951,3299.761,2214.179,3296.784,2212.221,3296.32Z" transform="translate(549.439 -2895.841)" fill-rule="evenodd"/>
  <path id="Path_17880" data-name="Path 17880" d="M1876.258,3258.181c5.373-1.212,13.515,3.385,19.968,4.4C1890.325,3264.2,1880.065,3261.2,1876.258,3258.181Z" transform="translate(433.528 -2885.479)" fill-rule="evenodd"/>
  <path id="Path_17881" data-name="Path 17881" d="M1903.122,3266.28c2.352-2.295,6.33,1.94,9.445,2.126C1909.944,3270.9,1905.244,3267.206,1903.122,3266.28Z" transform="translate(433.254 -2887.534)" fill-rule="evenodd"/>
  <path id="Path_17882" data-name="Path 17882" d="M2124.413,3294.534c-4.164,2.445-9.839-1.809-13.7-2.652C2114.91,3288.479,2118.209,3294.3,2124.413,3294.534Z" transform="translate(568.38 -2894.669)" fill-rule="evenodd"/>
  <path id="Path_17883" data-name="Path 17883" d="M1938.392,3270.59c5.516,2.467,17.141,1.42,21.853,6.65C1953.663,3274.517,1942.014,3275.536,1938.392,3270.59Z" transform="translate(439.939 -2889.124)" fill-rule="evenodd"/>
  <path id="Path_17884" data-name="Path 17884" d="M2120.446,3299.563c2.028,1.85,6.982,1.524,9.339,3.152C2127.712,3304.5,2120.306,3302.481,2120.446,3299.563Z" transform="translate(566.565 -2897.084)" fill-rule="evenodd"/>
  <path id="Path_17885" data-name="Path 17885" d="M2241.657,3316.359c1.5,2.256,7.867.875,9.338,3.152C2249.84,3320.6,2241.489,3319.3,2241.657,3316.359Z" transform="translate(543.946 -2901.782)" fill-rule="evenodd"/>
  <path id="Path_17886" data-name="Path 17886" d="M1858.515,3285.215c-1.828,4.59-3.372-2.762-6.509.271-.042,1.865,3.533,1.041,4.033,2.5-6.668,2.436-19.235-2.264-26.333-5.126,6.894-2.383,13.8,3.132,21.128,3.5-12.2-9.855-29.619-7.333-42.385-15.227,11.8-7.182,23.751,6.824,34.84,6.154.075-.978-1.206-.921-2.017-1.25,2.6-3.332,3.57,2.135,3.9,3.524C1851.427,3281.912,1855.833,3281.6,1858.515,3285.215Z" transform="translate(434.951 -2889.528)" fill-rule="evenodd"/>
  <path id="Path_17887" data-name="Path 17887" d="M2255.762,3320.543c3.047,1.683,8.391,1.663,11.448,3.375C2264.523,3325.575,2256.192,3323.632,2255.762,3320.543Z" transform="translate(541.314 -2902.988)" fill-rule="evenodd"/>
  <path id="Path_17888" data-name="Path 17888" d="M1967.721,3291.688c-3.773,2.05-1.454,4.321-3.188,8.82-3.838-1.127,1.365-4.49-2.476-6.422-3.76-1.43-1.075,4.835-5.677,2.4,1.672-2.453,2.7-2.774,1.778-5.921C1961.761,3293.816,1964.7,3288.656,1967.721,3291.688Z" transform="translate(438.755 -2894.957)" fill-rule="evenodd"/>
  <path id="Path_17889" data-name="Path 17889" d="M1737.371,3272.227c-17.878-3.2-30.139-6.069-48.422-9.781C1703.11,3259.88,1726.627,3266.129,1737.371,3272.227Z" transform="translate(422.746 -2886.899)" fill-rule="evenodd"/>
  <path id="Path_17890" data-name="Path 17890" d="M1985.67,3297.662c3.968.39,6.61,1.792,9.325,3.15-4.286,1.86-6.841,2.988-14.292,2.4C1978.729,3301.495,1988.047,3303.657,1985.67,3297.662Z" transform="translate(441.906 -2896.674)" fill-rule="evenodd"/>
  <path id="Path_17891" data-name="Path 17891" d="M2005.269,3303.788c-.3,1.158.045,1.823.842,2.151-3.114,3.062-4.225,1.684-9.812.87C1998.5,3304.835,2000.677,3302.883,2005.269,3303.788Z" transform="translate(589.731 -2898.237)" fill-rule="evenodd"/>
  <path id="Path_17892" data-name="Path 17892" d="M2018.09,3308.943c3.35,1.1,1.9,6.744-1.764,5.922,1.346-1.322,1.423-2.326-.726-3.151C2016.423,3310.772,2018.183,3310.953,2018.09,3308.943Z" transform="translate(586.129 -2899.865)" fill-rule="evenodd"/>
  <path id="Path_17893" data-name="Path 17893" d="M1796.234,3285.073c.428-1.431,9.03-1.327,7.325,1.875C1800.044,3287.131,1798.7,3285.674,1796.234,3285.073Z" transform="translate(422.775 -2892.699)" fill-rule="evenodd"/>
  <path id="Path_17894" data-name="Path 17894" d="M1894.095,3297.9c3-2.193,8.017,1.931,11.58,2.377C1904.76,3303.283,1895.79,3300.02,1894.095,3297.9Z" transform="translate(432.978 -2896.463)" fill-rule="evenodd"/>
  <path id="Path_17895" data-name="Path 17895" d="M1836.855,3295.632c-12.562-1.013-7.822-8.247,0,0Z" transform="translate(425.893 -2894.889)" fill-rule="evenodd"/>
  <path id="Path_17896" data-name="Path 17896" d="M1803.506,3291.065c1.617-.823,11.048-.44,7.073,3.9-1.323-3.066-2.021-.861-6.254-1.776C1804.635,3292.054,1804.3,3291.393,1803.506,3291.065Z" transform="translate(423.579 -2894.626)" fill-rule="evenodd"/>
  <path id="Path_17897" data-name="Path 17897" d="M1887.116,3300.888c4.359-1.669,12.484,1.677,14.528,4.776C1897.753,3303.362,1891.5,3302.833,1887.116,3300.888Z" transform="translate(433.107 -2897.424)" fill-rule="evenodd"/>
  <path id="Path_17898" data-name="Path 17898" d="M1748.478,3285.705c2.666-2.518,7.56,1.046,10.631,1.252C1755.6,3288.959,1749.988,3286.143,1748.478,3285.705Z" transform="translate(419.082 -2892.877)" fill-rule="evenodd"/>
  <path id="Path_17899" data-name="Path 17899" d="M1845.013,3298.434c2.706-.772,8.873-.695,10.391,3.276A36.276,36.276,0,0,1,1845.013,3298.434Z" transform="translate(428.065 -2896.648)" fill-rule="evenodd"/>
  <path id="Path_17900" data-name="Path 17900" d="M1362.081,3241.749c1.475,2.355.137,3.834-1.769,5.948C1356.206,3246.175,1360.954,3243.643,1362.081,3241.749Z" transform="translate(381.253 -2880.971)" fill-rule="evenodd"/>
  <path id="Path_17901" data-name="Path 17901" d="M1899.816,3309.873c-4.187,1.715-14.646.172-14.871-1.751C1888.855,3306.323,1895.9,3308.738,1899.816,3309.873Z" transform="translate(432.993 -2899.261)" fill-rule="evenodd"/>
  <path id="Path_17902" data-name="Path 17902" d="M1768.346,3297.064c5.129,1.8,8.98,1.889,16.9,3C1782.615,3303.809,1770.188,3299.9,1768.346,3297.064Z" transform="translate(422.518 -2896.429)" fill-rule="evenodd"/>
  <path id="Path_17903" data-name="Path 17903" d="M1897.714,3312.3c2.84.647,3.6,1.9,8.259,3C1904.1,3317.233,1897.134,3315.243,1897.714,3312.3Z" transform="translate(432.439 -2900.657)" fill-rule="evenodd"/>
  <path id="Path_17904" data-name="Path 17904" d="M1831.386,3308.107c.711-2.2,5.275.205,7.549-.15.907,1.483,2.642,2.336,2.71,4.423,2.636.18,5.138.448,6.258,1.749,1.419.038,7.7.751,4.137,1.5-9.067-1.041-17.261-3.9-23.145-4.751.383-2.216,4.562.1,6.5-.275C1835.446,3308.741,1831.87,3309.567,1831.386,3308.107Z" transform="translate(430.144 -2899.532)" fill-rule="evenodd"/>
  <path id="Path_17905" data-name="Path 17905" d="M1916.589,3320.756c5.479-.705,16.584,2.316,19.717,6.426-4.775,1.126-11.743-5.877-17.834-4.152C1919.064,3321.359,1917.87,3321.036,1916.589,3320.756Z" transform="translate(437.286 -2903.203)" fill-rule="evenodd"/>
  <path id="Path_17906" data-name="Path 17906" d="M1888.99,3318.59c1.767-2.443,6.538.535,8.511,1C1895.18,3322.435,1892.587,3317.817,1888.99,3318.59Z" transform="translate(431.685 -2902.097)" fill-rule="evenodd"/>
  <path id="Path_17907" data-name="Path 17907" d="M1927.562,3328.84c-3.97,1.272-11.248-2.053-17.837-4.127C1895.4,3320.168,1918.552,3324.869,1927.562,3328.84Z" transform="translate(436.927 -2903.793)" fill-rule="evenodd"/>
  <path id="Path_17908" data-name="Path 17908" d="M1773.575,3308.984c2.014,2.784,11.49,0,11.34,4.4C1782.185,3311.115,1773.861,3313.071,1773.575,3308.984Z" transform="translate(421.612 -2899.769)" fill-rule="evenodd"/>
  <path id="Path_17909" data-name="Path 17909" d="M1952.251,3337.509c.485-1.319,2.757-.507,4.372-.5-.506-2.684-2.977-3.909-7.1-3.9,2.728-4.095,7.458,1.319,11.936-.647,16.864,6.921,29.63,11.438,46.284,18.75,6.877,10.785,30.737,8.893,36.368,20.621,4.313,1.052,8.846,1.976,10.153,5.3C2018.275,3365.623,1986.957,3344.22,1952.251,3337.509Z" transform="translate(464.734 -2909.149)" fill-rule="evenodd"/>
  <path id="Path_17910" data-name="Path 17910" d="M1795.356,3315.192c2.408-.911,6.552-1.1,6.14,2.748C1798.356,3317.857,1798.493,3315.3,1795.356,3315.192Z" transform="translate(422.345 -2901.284)" fill-rule="evenodd"/>
  <path id="Path_17911" data-name="Path 17911" d="M1851.311,3328.882c-6.436-1.64-13.911-2.469-19.955-4.4C1834.932,3323.292,1848.517,3324.813,1851.311,3328.882Z" transform="translate(429.265 -2904.04)" fill-rule="evenodd"/>
  <path id="Path_17912" data-name="Path 17912" d="M1801.445,3319.8c6.562.9,12.265,2.483,16.649,5.024C1815.161,3324.848,1803.2,3323.725,1801.445,3319.8Z" transform="translate(425.58 -2902.852)" fill-rule="evenodd"/>
  <path id="Path_17913" data-name="Path 17913" d="M1871.26,3330.558c1.3-2.653,3.157,1.8,6.376.751-3.219,3.958-2.8.423-.591,5.022-3.618-2.192-10.39-2.029-13.463-4.651,2.569-2.736,5.433,2.016,9.577,1.127C1872.79,3331.856,1872.437,3330.9,1871.26,3330.558Z" transform="translate(430.766 -2905.746)" fill-rule="evenodd"/>
  <path id="Path_17914" data-name="Path 17914" d="M2096.277,3368.634c-13.418-2-26.549-10.27-39.3-13.823C2070.473,3351.932,2083.744,3364.716,2096.277,3368.634Z" transform="translate(578.409 -2913.252)" fill-rule="evenodd"/>
  <path id="Path_17915" data-name="Path 17915" d="M-149.068,3118.5c-14.833-2.553-12.768,9.613-29.083,5.77-3.707.967-8.875,5.788-10.688,1.808-1.087.832.086,5.568-7.863,3.177,1.01-.841,3.869-3.311-1.123-3.223,12.125-6.1,28.32-8.665,43.343-12.248C-150.744,3114.327-148.935,3115.917-149.068,3118.5Z" transform="translate(226.762 -2845.454)" fill-rule="evenodd"/>
  <path id="Path_17916" data-name="Path 17916" d="M2211.713,3376.6c-4.384,1.536-9.58,1.236-12.749-1.5C2201.561,3371.764,2207.512,3375.764,2211.713,3376.6Z" transform="translate(551.913 -2917.926)" fill-rule="evenodd"/>
  <path id="Path_17917" data-name="Path 17917" d="M1812.982,3333.426c-3.23,2.659-7.768-1.487-11.684-1.376C1802.35,3328.823,1809.6,3332.766,1812.982,3333.426Z" transform="translate(424.299 -2905.835)" fill-rule="evenodd"/>
  <path id="Path_17918" data-name="Path 17918" d="M1463.019,3296.094c-10.6.908-13.053-4.524,0,0Z" transform="translate(391.138 -2895.473)" fill-rule="evenodd"/>
  <path id="Path_17919" data-name="Path 17919" d="M1636.614,3316.541c-1.389,2.148-6.731-.4-9.694-.128C1628.007,3312.878,1634.289,3315.592,1636.614,3316.541Z" transform="translate(407.476 -2901.249)" fill-rule="evenodd"/>
  <path id="Path_17920" data-name="Path 17920" d="M1568.683,3312.5c-1.268,1.929-4.339,1.724-7.681,1.148C1560.6,3309.705,1566.178,3312.959,1568.683,3312.5Z" transform="translate(400.859 -2900.387)" fill-rule="evenodd"/>
  <path id="Path_17921" data-name="Path 17921" d="M1265.546,3279.286c.069,1.853-9.467-.31-3.427,1.648-2.094,2.091-8.159-.6-11.815-.378,3.817-3.109-5.335-2.135-8.257-3.024C1249.661,3273.935,1258.453,3280.217,1265.546,3279.286Z" transform="translate(374.023 -2890.676)" fill-rule="evenodd"/>
  <path id="Path_17922" data-name="Path 17922" d="M1239.255,3277.311c1.134,4.445-5.531-.471-5.678,2.4C1230.175,3277.773,1238.018,3273.735,1239.255,3277.311Z" transform="translate(370.034 -2890.432)" fill-rule="evenodd"/>
  <path id="Path_17923" data-name="Path 17923" d="M1503.212,3309.165c-28.484.334-47.073-3.569-74.753-5.738C1450.53,3301.715,1479.453,3306.7,1503.212,3309.165Z" transform="translate(402.818 -2898.223)" fill-rule="evenodd"/>
  <path id="Path_17924" data-name="Path 17924" d="M1540.684,3314.88c-3.041-2.437-9.148.818-12.634-2.5C1529.508,3310.005,1541.82,3309.87,1540.684,3314.88Z" transform="translate(398.888 -2900.255)" fill-rule="evenodd"/>
  <path id="Path_17925" data-name="Path 17925" d="M1552.587,3314.2c-1.936,2.836-4.953,1.13-7.549.15C1546.462,3310.621,1549.408,3314.111,1552.587,3314.2Z" transform="translate(399.338 -2900.708)" fill-rule="evenodd"/>
  <path id="Path_17926" data-name="Path 17926" d="M1296.466,3284.276c-.49,2.878-4.647,1.323-7.667,1.149C1289.285,3282.572,1293.447,3284.1,1296.466,3284.276Z" transform="translate(375.452 -2892.533)" fill-rule="evenodd"/>
  <path id="Path_17927" data-name="Path 17927" d="M1771.093,3341.328c7.041-.834,12.2,1.956,20.075,3.377C1785.486,3349,1778.647,3343.464,1771.093,3341.328Z" transform="translate(423.578 -2908.864)" fill-rule="evenodd"/>
  <path id="Path_17928" data-name="Path 17928" d="M1803.609,3346.438c2.588,2.668,10.977.98,11.206,5.423C1811.985,3349.372,1803.18,3351.349,1803.609,3346.438Z" transform="translate(424.397 -2910.365)" fill-rule="evenodd"/>
  <path id="Path_17929" data-name="Path 17929" d="M1266.544,3285.75c-2.647.961-9.066,1.166-10.747-.254-1.407-.035-7.7-.752-4.139-1.5C1259.021,3285.434,1263.276,3283.962,1266.544,3285.75Z" transform="translate(373.426 -2892.628)" fill-rule="evenodd"/>
  <path id="Path_17930" data-name="Path 17930" d="M1280.232,3287.247c-.725,2.2-5.275-.206-7.547.124C1274.338,3286.006,1278.521,3285.149,1280.232,3287.247Z" transform="translate(373.925 -2893.165)" fill-rule="evenodd"/>
  <path id="Path_17931" data-name="Path 17931" d="M1292.351,3287.559c.586,3.759-4.353.916-6.613,1.274C1286.148,3286.284,1289.539,3287.255,1292.351,3287.559Z" transform="translate(374.975 -2893.498)" fill-rule="evenodd"/>
  <path id="Path_17932" data-name="Path 17932" d="M1826.026,3354.781c-3.407.093-3.541-2.261-7.325-1.875C1819.2,3349.8,1826.256,3351.9,1826.026,3354.781Z" transform="translate(424.816 -2911.605)" fill-rule="evenodd"/>
  <path id="Path_17933" data-name="Path 17933" d="M1467.974,3310.882c.167,4.048-5.973.493-8.734,1.024C1461.375,3310.65,1464.522,3310.554,1467.974,3310.882Z" transform="translate(391.583 -2900.104)" fill-rule="evenodd"/>
  <path id="Path_17934" data-name="Path 17934" d="M1836.711,3357.845c9.634-.866,15.712,3.227,25.264,5.027C1855.461,3366.313,1845.334,3358.7,1836.711,3357.845Z" transform="translate(431.162 -2913.583)" fill-rule="evenodd"/>
  <path id="Path_17935" data-name="Path 17935" d="M-200.7,3134.983c-2.914,1.164-4.377,3.59-9.324,2.98C-207.66,3136.32-206.2,3133.895-200.7,3134.983Z" transform="translate(229.037 -2850.757)" fill-rule="evenodd"/>
  <path id="Path_17936" data-name="Path 17936" d="M1814.74,3358.522c-4.091.323-4.92-1.827-8.379-2C1806.257,3353.913,1814.911,3355.555,1814.74,3358.522Z" transform="translate(423.933 -2912.681)" fill-rule="evenodd"/>
  <path id="Path_17937" data-name="Path 17937" d="M2082.212,3388.057c3.578,3.123,11.338,3.154,11.936,8.549C2090.937,3393.164,2083.76,3392.708,2082.212,3388.057Z" transform="translate(573.699 -2922.305)" fill-rule="evenodd"/>
  <path id="Path_17938" data-name="Path 17938" d="M1827.188,3360.45c-1.093,1.377-1.972,3.015-4.61,2.522.315-1.157-.019-1.82-.83-2.15C1823.616,3358.679,1824.519,3359.617,1827.188,3360.45Z" transform="translate(424.616 -2913.902)" fill-rule="evenodd"/>
  <path id="Path_17939" data-name="Path 17939" d="M1434.052,3317.638c-1.162,1.967-7.528.2-8.494-1C1426.781,3312.99,1431.576,3316.8,1434.052,3317.638Z" transform="translate(388.385 -2901.417)" fill-rule="evenodd"/>
  <path id="Path_17940" data-name="Path 17940" d="M1880.4,3369.182c3.078-1.951,8.9,1.879,12.634,2.5C1889.566,3373.923,1882.814,3370.791,1880.4,3369.182Z" transform="translate(431.972 -2916.485)" fill-rule="evenodd"/>
  <path id="Path_17941" data-name="Path 17941" d="M-231.554,3146.285c4.106,1.781-.02,5.816,1.757,10.441C-235.249,3154.577-233.366,3150.045-231.554,3146.285Z" transform="translate(233.4 -2854.351)" fill-rule="evenodd"/>
  <path id="Path_17942" data-name="Path 17942" d="M-117.457,3161.215c1.984,6.728,5.215,7.212,10.61,11.458-6.693.64-14.029-2.276-20.528-3.431C-123.141,3165.092-123.86,3163.448-117.457,3161.215Z" transform="translate(213.615 -2858.613)" fill-rule="evenodd"/>
  <path id="Path_17943" data-name="Path 17943" d="M1432.373,3334.876c-8.057-2.871-19.764-3-29.639-4.5C1412.021,3327.1,1423.64,3330.886,1432.373,3334.876Z" transform="translate(390.612 -2905.523)" fill-rule="evenodd"/>
  <path id="Path_17944" data-name="Path 17944" d="M1967.508,3394.638c4.929.01,5.6,3.153,9.207,4.149C1975.266,3399.811,1967.871,3397.486,1967.508,3394.638Z" transform="translate(439.212 -2923.833)" fill-rule="evenodd"/>
  <path id="Path_17945" data-name="Path 17945" d="M1445.859,3335.681a15.344,15.344,0,0,1,8.511,1C1453.206,3338.651,1446.831,3336.861,1445.859,3335.681Z" transform="translate(390.285 -2907.042)" fill-rule="evenodd"/>
  <path id="Path_17946" data-name="Path 17946" d="M1994.4,3403.5c-2.56,4.53-7.063-3.508-10.63-1.252C1985.6,3395.708,1990.121,3403.513,1994.4,3403.5Z" transform="translate(592.069 -2925.306)" fill-rule="evenodd"/>
  <path id="Path_17947" data-name="Path 17947" d="M1528.842,3347.094l5.309.625c-1.845,6.588,9.195,3.55,9.8,8.3-21.166-1.92-45.714-4.292-62.82-6.358,2.729-3.056,2.94-3.108,4.02-6.7,3.9,1.29-.348,3.543,1.54,5.3,7.77.188,13.5.6,18.058,2.126,2.342.121,2.582-2.267,2.729-4.795,2.236,1.717,6.729,1.7,5.782,5.8C1520.469,3352.368,1528.566,3354.439,1528.842,3347.094Z" transform="translate(405.491 -2909.94)" fill-rule="evenodd"/>
  <path id="Path_17948" data-name="Path 17948" d="M1384.92,3335.7c-6.741-1.729-10.765-.333-16.872-3.027C1374.661,3332,1381.827,3330.691,1384.92,3335.7Z" transform="translate(384.693 -2906.188)" fill-rule="evenodd"/>
  <path id="Path_17949" data-name="Path 17949" d="M1407.253,3335.25c3.1,2.262,7.223,3.786,10.039,6.274-6.972,4.893-17.228-.938-26.11,2.043-3.207-2.534-2.68-6.083,0-9.2,2.515.269,2.941,2.112,6.271,1.75,3.308,1.558-2.987.817-4.375.524.606,4.618,11.993,3.983,13.7,2.626C1397.716,3335.3,1401.556,3338.97,1407.253,3335.25Z" transform="translate(389.018 -2907.241)" fill-rule="evenodd"/>
  <path id="Path_17950" data-name="Path 17950" d="M1470.819,3348.208c-4.691,1.006-12.408,1.526-17.138-.979C1457.156,3340.39,1465.286,3346.361,1470.819,3348.208Z" transform="translate(392.84 -2909.658)" fill-rule="evenodd"/>
  <path id="Path_17951" data-name="Path 17951" d="M-134.928,3174.158c8.339,5.4,11.626,13.473,21.848,17.9-3.023,2.424-8.842-1.613-11.7-2.391-1.576.621.129,3.574-3.537,4.676-7.635,1.074-8.166-7.015-11.676-2.389-2.558-1.522-.563-5.391-2.13-7.42,3.033-1.539,3.707.333,7.369.868C-137.656,3182.643-137.732,3177.308-134.928,3174.158Z" transform="translate(216.366 -2862.722)" fill-rule="evenodd"/>
  <path id="Path_17952" data-name="Path 17952" d="M1232.959,3320.7c4.144.28,6.545,1.861,6.966,4.925C1236.18,3325.678,1231.509,3326.5,1232.959,3320.7Z" transform="translate(370.137 -2903.102)" fill-rule="evenodd"/>
  <path id="Path_17953" data-name="Path 17953" d="M1376.942,3340.109c-2.611,2.29-11.706,1.48-15.015-.755C1363.882,3335.766,1371.014,3340.917,1376.942,3340.109Z" transform="translate(383.743 -2907.87)" fill-rule="evenodd"/>
  <path id="Path_17954" data-name="Path 17954" d="M2031.27,3416.123c.333,3.573-4.154,3.174-5.543,1.375C2026.792,3416.116,2029.315,3416.439,2031.27,3416.123Z" transform="translate(584.239 -2929.736)" fill-rule="evenodd"/>
  <path id="Path_17955" data-name="Path 17955" d="M1318.381,3335.342c4.489.605,2.254,2.6.59,4.174,12.089,1.423,17.681,5.926,21.5,9.675-12.805-7.2-41.566-1.829-52.439-12.306C1295.839,3333.6,1315.01,3343.958,1318.381,3335.342Z" transform="translate(384.048 -2907.849)" fill-rule="evenodd"/>
  <path id="Path_17956" data-name="Path 17956" d="M1698.866,3383.006c-3.31,6-15.188,2.212-19.245-1.253-5.687-.541-10.017,2.846-13.831-1.628C1672.911,3375.714,1686.684,3382.143,1698.866,3383.006Z" transform="translate(416.72 -2919.566)" fill-rule="evenodd"/>
  <path id="Path_17957" data-name="Path 17957" d="M1736.148,3392.573c-6.344.266-16.835,1.083-15.347-6.9C1726.14,3384.875,1735.338,3387.128,1736.148,3392.573Z" transform="translate(417.666 -2921.487)" fill-rule="evenodd"/>
  <path id="Path_17958" data-name="Path 17958" d="M1382.673,3349.621c-9.7,3.145-21.472-.242-31.049-1.6C1359.638,3342.883,1370.6,3348.745,1382.673,3349.621Z" transform="translate(385.985 -2910.192)" fill-rule="evenodd"/>
  <path id="Path_17959" data-name="Path 17959" d="M1142.141,3325.707c-1.857,1.47-4.1-.846-6.258-1.75C1136.283,3320.912,1143.78,3321.9,1142.141,3325.707Z" transform="translate(360.981 -2903.445)" fill-rule="evenodd"/>
  <path id="Path_17960" data-name="Path 17960" d="M1177.3,3330.8c-2.7-.422-5-1.16-6.127-2.749C1171.067,3324.172,1180.835,3326.232,1177.3,3330.8Z" transform="translate(364.34 -2904.58)" fill-rule="evenodd"/>
  <path id="Path_17961" data-name="Path 17961" d="M1187.382,3328c-.077,1.81-1.548,1.975-1.541,3.9-.86-1.191-3.881-.77-2.831-3.4A6.378,6.378,0,0,1,1187.382,3328Z" transform="translate(365.016 -2905.045)" fill-rule="evenodd"/>
  <path id="Path_17962" data-name="Path 17962" d="M1492.75,3373.008c-1.982,4.156-6.876,4.775-12.409,4.669.315-1.159-.019-1.82-.818-2.123C1481.74,3372.075,1489.932,3375.767,1492.75,3373.008Z" transform="translate(394.441 -2917.778)" fill-rule="evenodd"/>
  <path id="Path_17963" data-name="Path 17963" d="M1469.406,3382.93c-.3,1.159-2.044.615-3.3.625.568,1.105,2.32,1.337,1.764,3.271-5.241,1.825-9.292-2.029-15.938-1.877C1458.961,3383.259,1461.663,3382.512,1469.406,3382.93Z" transform="translate(392.746 -2920.52)" fill-rule="evenodd"/>
  <path id="Path_17964" data-name="Path 17964" d="M1381.239,3374.471c-.725,2.2-5.289-.207-7.563.149C1374.79,3372.594,1379.608,3372.512,1381.239,3374.471Z" transform="translate(383.351 -2917.616)" fill-rule="evenodd"/>
  <path id="Path_17965" data-name="Path 17965" d="M1555.419,3394.187c5.165,4.5,13.271,2.185,16.411,7.049-4.325-.379-18.541-1.3-28.582-4.4C1546.026,3394.406,1554.128,3398.4,1555.419,3394.187Z" transform="translate(403.875 -2923.913)" fill-rule="evenodd"/>
  <path id="Path_17966" data-name="Path 17966" d="M1405.044,3378.465c1.053-2.189,6.005.291,8.617-.025C1411.922,3379.949,1406.99,3380.667,1405.044,3378.465Z" transform="translate(386.494 -2918.875)" fill-rule="evenodd"/>
  <path id="Path_17967" data-name="Path 17967" d="M1428.7,3380.182c3.4,1.44,11.825-.867,11.446,3.4C1436.745,3382.142,1428.324,3384.449,1428.7,3380.182Z" transform="translate(389.296 -2919.696)" fill-rule="evenodd"/>
  <path id="Path_17968" data-name="Path 17968" d="M1530.859,3393.667c-3.176,4.872-17.672-1.693-26.818-1.132C1509.374,3389.344,1525.694,3393.214,1530.859,3393.667Z" transform="translate(399.723 -2922.875)" fill-rule="evenodd"/>
  <path id="Path_17969" data-name="Path 17969" d="M-120.508,3215.954c6.417,1.04-1.107,9.4,3.118,11.615C-122.494,3229.435-126.89,3217.514-120.508,3215.954Z" transform="translate(212.926 -2874.054)" fill-rule="evenodd"/>
  <path id="Path_17970" data-name="Path 17970" d="M867.861,3316.818c-.187,2.862-2.948,2.588-5.678,2.4C862.168,3316.1,865.9,3317.548,867.861,3316.818Z" transform="translate(335.368 -2901.841)" fill-rule="evenodd"/>
  <path id="Path_17971" data-name="Path 17971" d="M-151.2,3214.989c-2.241,2.879-5.65,4.712-8.319,7.2C-162.452,3219.2-156.087,3214.855-151.2,3214.989Z" transform="translate(219.752 -2873.518)" fill-rule="evenodd"/>
  <path id="Path_17972" data-name="Path 17972" d="M1474.566,3395.438c1.994-2.286,7.491.465,9.577,1.127C1481.708,3399.214,1477.553,3395.425,1474.566,3395.438Z" transform="translate(393.195 -2923.696)" fill-rule="evenodd"/>
  <path id="Path_17973" data-name="Path 17973" d="M1483.365,3401.714c-1.957,5.458-12.72.917-16.056-.878C1471.935,3397.485,1478.138,3403.306,1483.365,3401.714Z" transform="translate(393.896 -2925.289)" fill-rule="evenodd"/>
  <path id="Path_17974" data-name="Path 17974" d="M1285.793,3384.188c-4.036-1.645-3.933-.672-8.377-2C1277.313,3379.579,1285.953,3381.219,1285.793,3384.188Z" transform="translate(374.524 -2919.886)" fill-rule="evenodd"/>
  <path id="Path_17975" data-name="Path 17975" d="M1324.805,3389.893c-13.536-1.23-9.188-8.147,0,0Z" transform="translate(378.189 -2921.365)" fill-rule="evenodd"/>
  <path id="Path_17976" data-name="Path 17976" d="M1334.85,3389.256c1.9,2.639,4.364-.889,6.259,1.75.141,2.874-5.705-1.451-5.561,1.4-.926.072-.938-.526-.933-1.149Z" transform="translate(379.498 -2922.226)" fill-rule="evenodd"/>
  <path id="Path_17977" data-name="Path 17977" d="M2108.147,3482.8c3.126,1.357,6.119,2.8,9.221,4.151C2115.2,3488.511,2108.45,3485.691,2108.147,3482.8Z" transform="translate(568.86 -2948.62)" fill-rule="evenodd"/>
  <path id="Path_17978" data-name="Path 17978" d="M1671.085,3436.538c4.464,3.721,14.3,3.425,22.093,4.628,2.008,1.665-3.013,4.529,2.709,4.423-9.409,1.983-20.869-1.99-30.7-4.629.725-2.2,5.289.207,7.564-.148C1672.007,3438.933,1668.227,3438.591,1671.085,3436.538Z" transform="translate(416.087 -2936.036)" fill-rule="evenodd"/>
  <path id="Path_17979" data-name="Path 17979" d="M1768.12,3456.588c3.92.436,7.253,1.322,6.966,4.925C1771.877,3460.512,1767.583,3460.344,1768.12,3456.588Z" transform="translate(420.018 -2941.283)" fill-rule="evenodd"/>
  <path id="Path_17980" data-name="Path 17980" d="M1942.2,3482.323c10.623,8.628,29.167,6.863,40.135,15.948-16.9-4.51-36.4-7.117-47.7-15.825C1938.326,3481.245,1941.747,3486.843,1942.2,3482.323Z" transform="translate(446.741 -2949.49)" fill-rule="evenodd"/>
  <path id="Path_17981" data-name="Path 17981" d="M666.794,3333.7c-4.4,3.534-12.532,2.577-18.785,3.918C651.992,3333.57,659.742,3334.041,666.794,3333.7Z" transform="translate(316.881 -2906.68)" fill-rule="evenodd"/>
  <path id="Path_17982" data-name="Path 17982" d="M1803.071,3473.074c.084-2.225,3.823-.018,5.442-.4-.11,1.624-.953,3.784.576,4.172-.894,2.363-4.274,1.758-6.731,2.272C1802.116,3476.183,1810.237,3473.969,1803.071,3473.074Z" transform="translate(423.14 -2945.818)" fill-rule="evenodd"/>
  <path id="Path_17983" data-name="Path 17983" d="M1532.59,3443.928c-1.07,1.407-3.576,1.059-5.547,1.4-.651,2.624,6.067-.248,3.9,3.524-3.881.971-6.462-3.62-8.5-1-1.836-.451.211-5.742,2.716-4.8C1522.692,3448.088,1529.441,3439.608,1532.59,3443.928Z" transform="translate(397.887 -2937.485)" fill-rule="evenodd"/>
  <path id="Path_17984" data-name="Path 17984" d="M1796.367,3474.993l3.188.375-.477,4.048C1796.246,3479.394,1795.759,3477.6,1796.367,3474.993Z" transform="translate(421.723 -2946.412)" fill-rule="evenodd"/>
  <path id="Path_17985" data-name="Path 17985" d="M1352.826,3424.138c-.348,1.8,1.047,2.281.594,4.149-9.865-2.513-17.316-3.442-25.516-3C1327.885,3417.073,1345.21,3425.554,1352.826,3424.138Z" transform="translate(382.622 -2931.604)" fill-rule="evenodd"/>
  <path id="Path_17986" data-name="Path 17986" d="M1371.467,3428.414c.128,3.677-9.794,1.185-10.738-.226C1362.106,3423.935,1369.148,3426.245,1371.467,3428.414Z" transform="translate(382.776 -2932.6)" fill-rule="evenodd"/>
  <path id="Path_17987" data-name="Path 17987" d="M1403.749,3431.117c2.741-2.586,7.558,1.046,8.271,3.026-1.236,2.348-7.749,1.841-9.695-.128C1400.768,3431.079,1407.242,3432.62,1403.749,3431.117Z" transform="translate(386.487 -2933.92)" fill-rule="evenodd"/>
  <path id="Path_17988" data-name="Path 17988" d="M1383.969,3430.114c-.974,3.393-5.317.958-7.564.148C1379.027,3427.767,1381.842,3429.214,1383.969,3430.114Z" transform="translate(383.606 -2933.337)" fill-rule="evenodd"/>
  <path id="Path_17989" data-name="Path 17989" d="M1995.9,3502.237c7.955-.674,12.931,4.509,20.9,5.552C2010.048,3509.436,2002.528,3503.745,1995.9,3502.237Z" transform="translate(589.805 -2954.184)" fill-rule="evenodd"/>
  <path id="Path_17990" data-name="Path 17990" d="M1395.578,3432.712c-.725,2.2-5.289-.207-7.56.124C1389.132,3430.811,1393.949,3430.728,1395.578,3432.712Z" transform="translate(384.689 -2933.96)" fill-rule="evenodd"/>
  <path id="Path_17991" data-name="Path 17991" d="M1494.109,3443.17l5.308.625C1499.042,3446.868,1492.7,3447.237,1494.109,3443.17Z" transform="translate(394.128 -2937.352)" fill-rule="evenodd"/>
  <path id="Path_17992" data-name="Path 17992" d="M1509.684,3446.07c1.152-1.994,7.515-.206,8.5,1-.98,1.7-1.947-.1-3.175-.374-1.042-.1-.982,1.132-1.319,1.9C1510.71,3448.97,1511.791,3446.318,1509.684,3446.07Z" transform="translate(396.245 -2937.953)" fill-rule="evenodd"/>
  <path id="Path_17993" data-name="Path 17993" d="M1853.179,3487.809c4.771-2.608,9.129,2.945,13.594,3.653C1862.888,3493.395,1857.044,3488.94,1853.179,3487.809Z" transform="translate(429.666 -2949.854)" fill-rule="evenodd"/>
  <path id="Path_17994" data-name="Path 17994" d="M1878.342,3497.634c-1.786-1.119-2.384-3.138-6.15-2.776C1873.262,3491.348,1879.156,3494.329,1878.342,3497.634Z" transform="translate(429.516 -2951.543)" fill-rule="evenodd"/>
  <path id="Path_17995" data-name="Path 17995" d="M2025.225,3511.811c1.781-2.441,5.411,1.39,7.325,1.874C2030.754,3516.15,2027.136,3512.32,2025.225,3511.811Z" transform="translate(584.333 -2956.445)" fill-rule="evenodd"/>
  <path id="Path_17996" data-name="Path 17996" d="M1773.034,3482.3c4.014,1.615,9.819,1.857,13.579,3.65C1783.689,3487.529,1774.082,3487.825,1773.034,3482.3Z" transform="translate(422.124 -2948.484)" fill-rule="evenodd"/>
  <path id="Path_17997" data-name="Path 17997" d="M1882.445,3503.61c-1.988,4.208-3.738-1.868-8.509-1C1875.429,3498.758,1880.213,3502.568,1882.445,3503.61Z" transform="translate(430.278 -2953.676)" fill-rule="evenodd"/>
  <path id="Path_17998" data-name="Path 17998" d="M1918.748,3514.807c-2.514-1.206-6.024-1.646-5.912-4.8C1915.976,3509.155,1919.683,3510.24,1918.748,3514.807Z" transform="translate(433.257 -2956.233)" fill-rule="evenodd"/>
  <path id="Path_17999" data-name="Path 17999" d="M1909.608,3514.737c1.741,1.141,5.72.621,4.952,3.647C1911.51,3518.233,1908.753,3517.8,1909.608,3514.737Z" transform="translate(432.714 -2957.507)" fill-rule="evenodd"/>
  <path id="Path_18000" data-name="Path 18000" d="M1566.083,3484.316c6.7,7.31,22.608.714,24.67,10.075-8.723-3.157-15.067.954-23.381-2.752C1570.7,3487.667,1564.4,3489.314,1566.083,3484.316Z" transform="translate(405.211 -2949.533)" fill-rule="evenodd"/>
  <path id="Path_18001" data-name="Path 18001" d="M1949.707,3534.333c2.253-2.514,6.349,1.319,8.377,2C1955.723,3538.938,1952.723,3534.3,1949.707,3534.333Z" transform="translate(437.321 -2980.363)" fill-rule="evenodd"/>
  <path id="Path_18002" data-name="Path 18002" d="M2062.221,3557.663c2.368-2.32,7.068,1.378,9.445,2.125C2069.3,3562.081,2065.338,3557.821,2062.221,3557.663Z" transform="translate(577.43 -2984.732)" fill-rule="evenodd"/>
  <path id="Path_18003" data-name="Path 18003" d="M1891.834,3541.55c5.231,1.864,9.061,7.718,16.637,5.025-.415,2.938-2.856,3.43-4.834,4.522C1898.654,3547.367,1889.459,3548.465,1891.834,3541.55Z" transform="translate(434.18 -2981.866)" fill-rule="evenodd"/>
  <path id="Path_18004" data-name="Path 18004" d="M1733.344,3526.651c3.445.172,4.29,2.3,8.379,2C1741.046,3529.973,1731.86,3529.957,1733.344,3526.651Z" transform="translate(417.136 -2960.776)" fill-rule="evenodd"/>
  <path id="Path_18005" data-name="Path 18005" d="M1699.191,3523.877c3.543.729,9.385-.271,8.167,4.026-1.993-2.495-3.3.911-6.506.248C1701.073,3526.151,1698.111,3526.529,1699.191,3523.877Z" transform="translate(413.944 -2960.14)" fill-rule="evenodd"/>
  <path id="Path_18006" data-name="Path 18006" d="M1712.125,3525.418c2.833.021,3.32,1.82,2.714,4.4C1711.972,3529.4,1710.005,3526.908,1712.125,3525.418Z" transform="translate(413.946 -2960.576)" fill-rule="evenodd"/>
  <path id="Path_18007" data-name="Path 18007" d="M1915.861,3550.466c3.273-2.678,6.747,2.25,9.325,3.15-.641,3.121-7.058,5.274-9.919,1.9-.724-3.151,2.575-1.514,4.479-1.524C1920.385,3551.363,1917.836,3551.14,1915.861,3550.466Z" transform="translate(434.536 -2983.383)" fill-rule="evenodd"/>
  <path id="Path_18008" data-name="Path 18008" d="M1938.949,3558.3c2.688-1.657,8.223,2.4,11.448,3.375C1946.852,3563.989,1942.207,3559.259,1938.949,3558.3Z" transform="translate(437.15 -2984.919)" fill-rule="evenodd"/>
  <path id="Path_18009" data-name="Path 18009" d="M1929.417,3559.772c4.173-.314,3.509,5.322-.477,4.048Z" transform="translate(434.018 -2985.264)" fill-rule="evenodd"/>
  <path id="Path_18010" data-name="Path 18010" d="M1383.117,3507.615l-11.711-1.379C1371.829,3503.454,1383.606,3504.037,1383.117,3507.615Z" transform="translate(383.974 -2954.581)" fill-rule="evenodd"/>
  <path id="Path_18011" data-name="Path 18011" d="M1981.763,3577.1c4.861-2.674,9.024,3.037,13.582,3.626-2.69,1.215-4.1,1.076-2.714,4.8-1.562-2.209-7.356-1.255-6.966-4.924,1.8,2.135,2.66.443,5.322.627C1989.165,3578.908,1984.742,3578.542,1981.763,3577.1Z" transform="translate(592.443 -2988.368)" fill-rule="evenodd"/>
  <path id="Path_18012" data-name="Path 18012" d="M1272.12,3494.929c10.9-.482,29.458,1.261,36.963,6.38C1297.053,3502.645,1284.309,3496.546,1272.12,3494.929Z" transform="translate(379.469 -2952.191)" fill-rule="evenodd"/>
  <path id="Path_18013" data-name="Path 18013" d="M1870.2,3565.409c5.441-.4,3.21,4.95,6.851,5.9-3.276,3.277-4.582-2.617-8.393-2C1868.462,3567.153,1869.7,3566.727,1870.2,3565.409Z" transform="translate(429.758 -2986.315)" fill-rule="evenodd"/>
  <path id="Path_18014" data-name="Path 18014" d="M1375.123,3510.475c-7,4.164-18.7-3.656-27.5-4.251C1351.562,3504.375,1368.059,3508.6,1375.123,3510.475Z" transform="translate(384.887 -2955.194)" fill-rule="evenodd"/>
  <path id="Path_18015" data-name="Path 18015" d="M2013.064,3587.816c-4.23,2.2-10.134-2.205-13.579-3.651C2003.074,3581.472,2007.889,3587.1,2013.064,3587.816Z" transform="translate(589.136 -2989.683)" fill-rule="evenodd"/>
  <path id="Path_18016" data-name="Path 18016" d="M1870.977,3577.845l-3.188-.375c3.466-2.216,5.836,1.388,9.695.128a24.821,24.821,0,0,0-4.728,3.523C1870.428,3581.339,1870.9,3579.446,1870.977,3577.845Z" transform="translate(430.015 -2988.431)" fill-rule="evenodd"/>
  <path id="Path_18017" data-name="Path 18017" d="M-70.8,3378.728c-4.243-.941-6.481-2.918-6.794-5.917C-73,3370.338-67.5,3377.064-70.8,3378.728Z" transform="translate(204.325 -2917.704)" fill-rule="evenodd"/>
  <path id="Path_18018" data-name="Path 18018" d="M1880.724,3585.538c4.342,1.627-4.352,5.669,3.542,6.547-1.778,2.309-3.882,1.336-6.492.249-1.1-2.675,3.6-3.811.591-5.021C1878.764,3586.242,1880.554,3586.868,1880.724,3585.538Z" transform="translate(430.134 -2990.075)" fill-rule="evenodd"/>
  <path id="Path_18019" data-name="Path 18019" d="M1886.3,3588.642c3.836.919,5.953,1.195,10.4,3.25-3.535.83.256,3.876-4.728,3.521,2.8-4.345-1.933-4.046-6.023-3.748Z" transform="translate(431.993 -2990.654)" fill-rule="evenodd"/>
  <path id="Path_18020" data-name="Path 18020" d="M1960.314,3612.238c-7.494,2.6-8.706-4.453,0,0Z" transform="translate(437.118 -2994.775)" fill-rule="evenodd"/>
  <path id="Path_18021" data-name="Path 18021" d="M1962.733,3615.2c16.71,2.538,40.425,7.8,51.831,17.351C1999.779,3628.548,1978.728,3621.366,1962.733,3615.2Z" transform="translate(450.682 -2995.609)" fill-rule="evenodd"/>
  <path id="Path_18022" data-name="Path 18022" d="M1237.881,3532.284a10.627,10.627,0,0,1-8.614,0C1231.122,3529.669,1234.257,3531.416,1237.881,3532.284Z" transform="translate(370.069 -2979.88)" fill-rule="evenodd"/>
  <path id="Path_18023" data-name="Path 18023" d="M1956.917,3619.258c2.146-3.931,7.365,2.113,10.381,3.248C1962.979,3625.686,1961.861,3618.671,1956.917,3619.258Z" transform="translate(438.543 -2996.122)" fill-rule="evenodd"/>
  <path id="Path_18024" data-name="Path 18024" d="M2074.372,3645.939c12.072.175,26.316,6.684,35.181,12.325C2099.914,3656.272,2084.8,3650.414,2074.372,3645.939Z" transform="translate(575.162 -3001.346)" fill-rule="evenodd"/>
  <path id="Path_18025" data-name="Path 18025" d="M1215.919,3550.017c.18,4.049-5.975.492-8.745,1C1208.543,3548.811,1212.322,3549.517,1215.919,3550.017Z" transform="translate(368.029 -2983.35)" fill-rule="evenodd"/>
  <path id="Path_18026" data-name="Path 18026" d="M1659.582,3613.579c3.321-.648,1.628,2.452,1.66,4.274-3.375-.528-8.249.042-7.086-3.9,2.665.159,3.095,1.975,5.07,2.649Z" transform="translate(409.53 -2995.291)" fill-rule="evenodd"/>
  <path id="Path_18027" data-name="Path 18027" d="M1585.8,3610.229c-3.064-.154-5.824-.557-4.953-3.648C1582.7,3605.187,1585.667,3607.641,1585.8,3610.229Z" transform="translate(402.114 -2993.926)" fill-rule="evenodd"/>
  <path id="Path_18028" data-name="Path 18028" d="M1633.5,3611.75c5.2,2.249,5.466,4.047,11.34,4.4-3.489,1.953-11.01-.933-16.057-.877C1628.74,3612.176,1632.849,3614.037,1633.5,3611.75Z" transform="translate(409.135 -2994.966)" fill-rule="evenodd"/>
  <path id="Path_18029" data-name="Path 18029" d="M1889.247,3655.619c-1.2,3.573-8.306.763-10.748-.252C1881.132,3654.4,1887.569,3654.175,1889.247,3655.619Z" transform="translate(431.295 -3002.96)" fill-rule="evenodd"/>
  <path id="Path_18030" data-name="Path 18030" d="M40.708,3469.9c5.666,1.447,12.021,2.533,11.082,7.435-6.346-1.475-8.509.739-14.875-.739.171-.966,1.909-.555,3.081-.651C39.229,3472.275,36.239,3472.157,40.708,3469.9Z" transform="translate(182.958 -2945.243)" fill-rule="evenodd"/>
  <path id="Path_18031" data-name="Path 18031" d="M2135.045,3700.875a21.106,21.106,0,0,1,4.845,4.676c-1.629,1.392-4.238,4.124-6.611,1.247C2137.683,3705.809,2135.491,3704.875,2135.045,3700.875Z" transform="translate(564.17 -3011.597)" fill-rule="evenodd"/>
  <path id="Path_18032" data-name="Path 18032" d="M2193.831,3711.361c2.351-2.294,6.331,1.942,9.442,2.152C2200.4,3716.187,2196.975,3711.524,2193.831,3711.361Z" transform="translate(552.871 -3013.427)" fill-rule="evenodd"/>
  <path id="Path_18033" data-name="Path 18033" d="M2151.833,3706.624c-.336,6.688,9.658,5.658,10.5,11.445-4.048-4.944-17.5-2.84-17.008-11.172C2147.557,3709.68,2147.376,3704.464,2151.833,3706.624Z" transform="translate(561.925 -3012.569)" fill-rule="evenodd"/>
  <path id="Path_18034" data-name="Path 18034" d="M2211.528,3718.521c3.348-2.152,7.879,2.642,11.461,3.376C2219.554,3724.09,2215.562,3718.918,2211.528,3718.521Z" transform="translate(549.568 -3014.787)" fill-rule="evenodd"/>
  <path id="Path_18035" data-name="Path 18035" d="M2016.169,3700.669c2.469,1.823,4.455,4.03,4.479,7.67C2015.878,3708.245,2015.168,3705.1,2016.169,3700.669Z" transform="translate(586.096 -3011.558)" fill-rule="evenodd"/>
  <path id="Path_18036" data-name="Path 18036" d="M2153.076,3723.324c-4.2-.546-5.9-2.954-9.208-4.15C2145.278,3715.807,2153.123,3719.9,2153.076,3723.324Z" transform="translate(562.194 -3014.777)" fill-rule="evenodd"/>
  <path id="Path_18037" data-name="Path 18037" d="M17.307,3488.41c4.974,1.027,8.852,6.03,6.559,7.915C19.945,3494.591,17.076,3492.306,17.307,3488.41Z" transform="translate(186.62 -2950.492)" fill-rule="evenodd"/>
  <path id="Path_18038" data-name="Path 18038" d="M70.569,3602.076c7.722,3.845.838,15.32,16.158,15.177-.681,1.271-2.792,1.282-3.3,2.7,9.481,6.675,2.352,20.876-1.859,28.38-6.679-4.631-4.729-8.115-15.151-10.98,1.586-2.826,3.558,1.744,7.369.868,1.636-3.081-1.958-3.4-2.369-5.4a44.171,44.171,0,0,1-9.071.984c2.164-2.552,2.329-6.869,6.837-7.378-.77-3.624-7.666-.279-9.975-4.239-4.612.417-5.194,4.375-10.926,3.83,4.348-6.424,5.917-13.928,10-21.317C64.651,3606.964,70.148,3607.586,70.569,3602.076Z" transform="translate(180.837 -2993.161)" fill-rule="evenodd"/>
  <path id="Path_18039" data-name="Path 18039" d="M439.308,3682.052l-8.833-1.04C430.768,3677.877,441.053,3677.711,439.308,3682.052Z" transform="translate(295.466 -3007.463)" fill-rule="evenodd"/>
  <path id="Path_18041" data-name="Path 18041" d="M1807.464,3234.854c4.552-3.777,15.9,4.522,22.421,1.6,2.866,1.351-1.858,2.509.59,4.174,2.563-2.582,5.619-.844,8.509,1C1831.253,3243.214,1814.256,3236.486,1807.464,3234.854Z" transform="translate(429.99 -2878.872)" fill-rule="evenodd"/>
  <path id="Path_18042" data-name="Path 18042" d="M1810.7,2856.045c9.71.235,15.382,2.072,23.975,6.9-9.207,2.137-18.61-5.932-24.448-2.879C1807.511,2859.515,1811.89,2858.5,1810.7,2856.045Z" transform="translate(428.568 -2761.553)" fill-rule="evenodd"/>
  <path id="Path_18043" data-name="Path 18043" d="M722.995,2745.833c-3.733.885-6.421,3.01-12.053,1.646C714.054,2745.819,718.325,2745.594,722.995,2745.833Z" transform="translate(322.043 -2740.972)" fill-rule="evenodd"/>
  <path id="Path_18044" data-name="Path 18044" d="M734.8,2753.492c-2.391,2.395-9.426,1.306-14.413,3.42C720.179,2754.343,728.722,2752.387,734.8,2753.492Z" transform="translate(323.212 -2742.357)" fill-rule="evenodd"/>
  <path id="Path_18045" data-name="Path 18045" d="M2047.528,2921.339c-.192,10.238,24.141,10.143,31.3,17.974,1.619-.251-.267-1.331.356-3.023,8.436,4.422,15.533,9.855,26.554,12.322,2.212.754,2.2-1.2,2.49-2.772,3.167,3.464,7.64,5.938,10.734,9.447-41.676-12.987-76.6-31-119.968-42.753-.4-2.879,7.14-2.017,4.742-3.52,10.207,3.1,24.778,10.893,38.118,14.723,1.71-.682-.106-1.543,1.557-3.92-2.448-3.977-10.871-3.513-11.935-8.549,2.565,1.133,7.487,3.765,12.173,6.524C2046.923,2919.736,2055.026,2923.833,2047.528,2921.339Z" transform="translate(589.231 -2788.281)" fill-rule="evenodd"/>
  <path id="Path_18046" data-name="Path 18046" d="M1976.427,2912.057c1.012-3.127-1.618-3.36.594-5.046,4.417,2.857,9.575,5.1,14.171,7.824C1986.995,2914.991,1982.516,2912.567,1976.427,2912.057Z" transform="translate(441.642 -2771.063)" fill-rule="evenodd"/>
  <path id="Path_18047" data-name="Path 18047" d="M2067.378,2928.924c5.244-1.148,12.635,4.008,17.6,6.152C2079.346,2936.49,2073.385,2930.256,2067.378,2928.924Z" transform="translate(576.467 -2775.121)" fill-rule="evenodd"/>
  <path id="Path_18048" data-name="Path 18048" d="M1791.579,2922.427c-1.044-.1-.969,1.132-1.289,1.874-3.366.1-3.514-2.96-1.661-4.273,1.518.724,2.514,1.8,4.018,2.526C1792.31,2923.656,1791.512,2922.991,1791.579,2922.427Z" transform="translate(421.365 -2773.492)" fill-rule="evenodd"/>
  <path id="Path_18049" data-name="Path 18049" d="M2114.114,2970.714c4.066-2.665,7,3.319,12.631,2.526C2125.384,2977.106,2118.544,2970.533,2114.114,2970.714Z" transform="translate(567.746 -2804.538)" fill-rule="evenodd"/>
  <path id="Path_18050" data-name="Path 18050" d="M2142.233,2975.647c-.643,1.508-3.449.452-2.608,3.771a7.207,7.207,0,0,0-5.19-1.624C2136.478,2973.931,2138.763,2976.381,2142.233,2975.647Z" transform="translate(563.954 -2806.073)" fill-rule="evenodd"/>
  <path id="Path_18051" data-name="Path 18051" d="M1892.267,2953.563c32.072,8.374,61.675,23.056,91.5,28.153.669,5.015,9.253,4.1,12.038,7.548,3,1.521,4.528-4.376,5.56-1.4,4.694-.435,2.646,4.156,5.9,4.8,3.183,1.129,2.38-2.525,5.561-1.4,54.794,18.245,93.9,34.7,147,51.027-2.339,1.022-5.675.864-7.8,2.146-.059,1.89,3.532,1.04,4.016,2.525-3.57,4.152-4.163-1.632-6.021-3.773-1.631.25.269,1.33-.355,3.022-11.468-3.324-24.188-7.757-36.247-12.45-7.9-3.06-18.111-6.106-23.619-9.925-.392-.28,1.824-1.188,2.241-.774-28.26-7.251-68.434-21.021-100.832-31.279-.055,1.864,3.533,1.041,4.005,2.5C1961.8,2983.727,1924.792,2967.861,1892.267,2953.563Zm123.158,43.1c-12.565-6.1-10.926.454,0,0Z" transform="translate(609.143 -2802.495)" fill-rule="evenodd"/>
  <path id="Path_18052" data-name="Path 18052" d="M2019.873,3006.248c4.454-.852,12.514,3.5,15.343,6.925C2030.184,3010.787,2025.659,3008.046,2019.873,3006.248Z" transform="translate(585.332 -2814.766)" fill-rule="evenodd"/>
  <path id="Path_18053" data-name="Path 18053" d="M2020.747,3013.65c3.341-.334,3.756,1.481,6.268,1.777-.045-1.823-1.565-2.522-4.016-2.525,2.876-2.675,6.288,1.962,9.446,2.126-.214,3.325-4.906,4.331-6.731,2.271-1.905,4.193,4.917,1.852,3.66,5.549-5.947-1.142-5.752-7.327-12.289-5.552.262-2.566.94-1.11,2.252-.748C2020.613,3016.543,2020.461,3014.811,2020.747,3013.65Z" transform="translate(585.852 -2816.557)" fill-rule="evenodd"/>
  <path id="Path_18054" data-name="Path 18054" d="M2225.42,3071.558c2.718-4.694,7.176,2.56,10.748.252C2234.5,3075.745,2230.368,3070.712,2225.42,3071.558Z" transform="translate(546.976 -2832.569)" fill-rule="evenodd"/>
  <path id="Path_18055" data-name="Path 18055" d="M2239.636,3074.88c6.354.931,12.107,10.1.71,3.15C2240.61,3076.605,2240.859,3075.18,2239.636,3074.88Z" transform="translate(544.323 -2834.049)" fill-rule="evenodd"/>
  <path id="Path_18056" data-name="Path 18056" d="M2318.556,3089.885c-1.911-5.758,5.184.168,7.667-1.149C2325.212,3093.37,2320.718,3086.633,2318.556,3089.885Z" transform="translate(529.657 -2837.438)" fill-rule="evenodd"/>
  <path id="Path_18057" data-name="Path 18057" d="M1950.3,3045.657c.421-2.989,10.559,4.413,14.871,1.751-.613,3.228,3.507,2.906,4.845,4.674C1964.533,3052.789,1957.3,3046.871,1950.3,3045.657Z" transform="translate(440.482 -2825.684)" fill-rule="evenodd"/>
  <path id="Path_18058" data-name="Path 18058" d="M2258.21,3084.927c2.018-1.788.071-1.289.473-4.021,1.892,4.4,7.491,6.05,13.107,7.673C2266.734,3091.386,2263.651,3084.891,2258.21,3084.927Z" transform="translate(540.857 -2835.851)" fill-rule="evenodd"/>
  <path id="Path_18059" data-name="Path 18059" d="M1982.9,3059.568a5.479,5.479,0,0,0,1.541-3.9c-3.853-1.933-2.365,2.528-5.56,1.4,1.751-1.611,1.245-2.191-1.882-2.273.768-.818,1.509-1.641.239-2.024,8.669.579,19.779,7.29,28.937,10.576-3.34,3.01-5.473-2.592-9.456-2.151-2.458.281,1.109,1.74-1.41,2.9C1988.814,3064.343,1989.723,3059.073,1982.9,3059.568Z" transform="translate(445.661 -2828.049)" fill-rule="evenodd"/>
  <path id="Path_18060" data-name="Path 18060" d="M2462.938,3113.725c18.7,3.657,39.521,18.031,58.9,21.249C2503.017,3134.576,2478.514,3126,2462.938,3113.725Z" transform="translate(502.655 -2845.672)" fill-rule="evenodd"/>
  <path id="Path_18061" data-name="Path 18061" d="M2026.21,3064.7c7.269-2.652,10.623,5.511,16.414,7.024,2.455-.256-1.1-1.713,1.421-2.871,11.989,7.386,24.863,10.747,36.486,19.622-3.325,2.414-6.348-3.189-10.393-3.276-2.5-.267.056,2.787,1.883,2.274-1.577,2.569-5.534-.677-7.442-.877.768-7.805-11.876-8.463-19.125-11.447-2.147,4.059,5.93.464,3.781,4.524-2.514-.271-2.927-2.112-6.257-1.75.232-2.778,2.01-1.842.477-4.048-3.293-.881-2.769,2.817-6.614,1.274.252-3.893.907-.258,3.291-.626A25.033,25.033,0,0,0,2026.21,3064.7Z" transform="translate(584.149 -2831.798)" fill-rule="evenodd"/>
  <path id="Path_18062" data-name="Path 18062" d="M1933.223,3064.614c-2.36-2.408-2.1-1.7-6.257-1.75C1924.362,3062.3,1936.217,3058.965,1933.223,3064.614Z" transform="translate(434.823 -2830.157)" fill-rule="evenodd"/>
  <path id="Path_18063" data-name="Path 18063" d="M2234.366,3119.42c-5.93,2.108-8.32-3.654-13.354-5.677-9.732-3.873-23.962-1.653-31.047-10.8,11.026-.364,17.062,10.01,25.159,6.028C2217.973,3113.257,2228.158,3115.157,2234.366,3119.42Z" transform="translate(553.592 -2842.427)" fill-rule="evenodd"/>
  <path id="Path_18064" data-name="Path 18064" d="M2029.173,3091.4c-1.585-.734.043-1.061,1.171-.876-1.885,4.142,4.533,2.793,5.663,6.8-4.045-1.7-9.012.705-9.087-5.174C2028.91,3092.822,2030.84,3091.906,2029.173,3091.4Z" transform="translate(584.017 -2838.479)" fill-rule="evenodd"/>
  <path id="Path_18065" data-name="Path 18065" d="M2446.932,3148.279c7.38.947,13.031,11.094,18.544,16.5C2459.432,3162.843,2453.466,3152.918,2446.932,3148.279Z" transform="translate(505.642 -2855.212)" fill-rule="evenodd"/>
  <path id="Path_18066" data-name="Path 18066" d="M2242.946,3136.7c6.1-2.945,17.049,5.359,23.857,7.9C2260.761,3142.875,2250.588,3141,2242.946,3136.7Z" transform="translate(543.706 -2851.384)" fill-rule="evenodd"/>
  <path id="Path_18067" data-name="Path 18067" d="M1999.322,3113.125c6.671-1.293,14.855,4.216,20.786,6.525C2014.385,3120.223,2005.942,3114.942,1999.322,3113.125Z" transform="translate(589.167 -2844.792)" fill-rule="evenodd"/>
  <path id="Path_18068" data-name="Path 18068" d="M2495.81,3185.294c2.123.82-1.9,3.725-4.61,2.521.014-2.674.9-4.283,3.648-3.649C2494.34,3185.925,2495.62,3186.336,2495.81,3185.294Z" transform="translate(497.381 -2864.645)" fill-rule="evenodd"/>
  <path id="Path_18069" data-name="Path 18069" d="M2083.659,3139.293c14.635-3.783,32.883,13.484,46.182,10.556,12.1,4.827,25.274,8.536,36.959,15.6-12.24,2.766-23.488-8.819-37.554-10.552-.089.977,1.2.946,2,1.248C2122.061,3150.206,2094.7,3143.711,2083.659,3139.293Z" transform="translate(573.429 -2853.046)" fill-rule="evenodd"/>
  <path id="Path_18070" data-name="Path 18070" d="M2323.383,3207.514c1.258-6.267-11.411-8.929-15.569-14.094,10.712-2.116,19.586,12.073,29.28,16.747C2333.339,3211.336,2328.058,3203.623,2323.383,3207.514Z" transform="translate(531.601 -2867.932)" fill-rule="evenodd"/>
  <path id="Path_18071" data-name="Path 18071" d="M1708.045,3145.271c3.256-2.656,6.863,2.186,11.7,1.377C1718.816,3150.67,1712.692,3144.416,1708.045,3145.271Z" transform="translate(415.553 -2853.506)" fill-rule="evenodd"/>
  <path id="Path_18072" data-name="Path 18072" d="M2051.686,3197.226c3.537,3.223,5.626,1.883,10.26,4.274C2060.323,3202.374,2050.735,3201.348,2051.686,3197.226Z" transform="translate(579.408 -2868.379)" fill-rule="evenodd"/>
  <path id="Path_18073" data-name="Path 18073" d="M1932.2,3198.347c1.27-2.862,1.306,2.519,4.139,1.5,1.5-4.187-3.908-3.213-3.544-6.547,25.551,7.242,48.517,13.636,71.921,20.73-1.195,3.392-3.293.286-5.323-.627a4.65,4.65,0,0,1,.7,3.146c-21.545-3.809-46.255-15.16-67.193-15.055C1933.161,3200.072,1933.409,3198.647,1932.2,3198.347Z" transform="translate(453.53 -2868.304)" fill-rule="evenodd"/>
  <path id="Path_18074" data-name="Path 18074" d="M2259,3248.037c10.322-.681,20.562,6.681,31.284,8.775C2280.124,3257.357,2268.95,3250.716,2259,3248.037Z" transform="translate(540.711 -2882.903)" fill-rule="evenodd"/>
  <path id="Path_18075" data-name="Path 18075" d="M2068.941,3230.366c2.5-3.29,5.076.156,7.325,1.876C2074.6,3233.112,2070.731,3230.629,2068.941,3230.366Z" transform="translate(576.176 -2877.24)" fill-rule="evenodd"/>
  <path id="Path_18076" data-name="Path 18076" d="M2127.784,3283.883c-.074,4.123.4,2.567,1.419,6.323-1.185-1.567-4.949-1.231-6.138-2.774-.42-3.634,6.479-2.458,1.663-4.922,5.089-.413,13.718,4.447,20.9,5.527-.582-1.108-2.322-1.339-1.778-3.276,13.487,6.186,29.592,10.369,43.335,16.351C2169.033,3297.833,2147.283,3289.245,2127.784,3283.883Z" transform="translate(566.079 -2893.255)" fill-rule="evenodd"/>
  <path id="Path_18077" data-name="Path 18077" d="M1886.821,3272.156c-5.808,4.564-15.312-3.232-25.261-5.027-3.539-.649-7,.918-7.087-3.9,10.206,2.993,30.176,4.357,35.181,12.325A5.441,5.441,0,0,1,1886.821,3272.156Z" transform="translate(435.494 -2887.411)" fill-rule="evenodd"/>
  <path id="Path_18078" data-name="Path 18078" d="M1969.178,3279.172c6.392-1.376,15.041,3.46,22.076,4.652C1985.805,3284.506,1975.146,3281.174,1969.178,3279.172Z" transform="translate(442.928 -2891.362)" fill-rule="evenodd"/>
  <path id="Path_18079" data-name="Path 18079" d="M2206.842,3308.433c5.071-1.324,13.1,3.049,18.887,4.276C2219.838,3314.016,2210.5,3309.306,2206.842,3308.433Z" transform="translate(550.443 -2899.568)" fill-rule="evenodd"/>
  <path id="Path_18080" data-name="Path 18080" d="M1903.248,3276.273c.865-2.806,4.758,1,8.51,1-.662,1.9-4.227.308-3.661,3.648C1903.36,3281.716,1907.351,3275.977,1903.248,3276.273Z" transform="translate(433.017 -2890.375)" fill-rule="evenodd"/>
  <path id="Path_18081" data-name="Path 18081" d="M1944.479,3286.157c1.975-2.573,6.387.648,7.325,1.875C1951.028,3289.734,1946.812,3286.354,1944.479,3286.157Z" transform="translate(436.547 -2893.013)" fill-rule="evenodd"/>
  <path id="Path_18082" data-name="Path 18082" d="M1974.847,3298.919c1.63,1.283-2.059,5.862-4.967,5.547.447-2.52,2.414-2.937-.578-4.173,1-1.7,1.951.073,3.188.376C1973.5,3300.346,1974.5,3300.022,1974.847,3298.919Z" transform="translate(438.483 -2897.018)" fill-rule="evenodd"/>
  <path id="Path_18083" data-name="Path 18083" d="M1870.932,3289.07c4.811,1.008,7.914,3.268,12.395,4.524.021,2.73-5.845-1.649-4.61,2.522-4.366.213-5.953-1.663-9.445-2.125,1.966-2.86,4.563,1.368,7.443.876C1880.026,3290.582,1869.635,3294.268,1870.932,3289.07Z" transform="translate(431.301 -2894.348)" fill-rule="evenodd"/>
  <path id="Path_18084" data-name="Path 18084" d="M-135.966,3081.205c-10.961,14.788-40.62,4.619-59.427,9.341C-178.045,3081.913-153.069,3085.5-135.966,3081.205Z" transform="translate(226.308 -2835.974)" fill-rule="evenodd"/>
  <path id="Path_18085" data-name="Path 18085" d="M1829.771,3303.656c2.4-7.355,8.651,4.214,11.106-2.8,5.122,8.137,22.41,7.16,31.994,11.951C1859.031,3311.725,1847.087,3305.928,1829.771,3303.656Z" transform="translate(435.199 -2897.992)" fill-rule="evenodd"/>
  <path id="Path_18086" data-name="Path 18086" d="M1896.826,3337.208c1.073,2.05-.808,4.426,4.849,4.65-7.969,1.841-9.494-4.391-17.835-4.153-3.776-2.472,5.394,1.285,3.558-2.646C1890.931,3336.9,1893.161,3340.88,1896.826,3337.208Z" transform="translate(433.836 -2907.289)" fill-rule="evenodd"/>
  <path id="Path_18087" data-name="Path 18087" d="M1738.617,3323.527c-2-2.573,4.256,1.541,6.272,1.752C1743.394,3329.129,1739.621,3325.36,1738.617,3323.527Z" transform="translate(417.145 -2903.608)" fill-rule="evenodd"/>
  <path id="Path_18088" data-name="Path 18088" d="M1547.945,3348.628c-2.1.376,7.144,4.686,10.391,3.276-.573-1.99-3.093-1.066-.71-3.15,7.384,1.6,27.076,9.865,39.332,4.631,3.509-.5,1.88,2.872,3.9,3.524,2.169-1.328-.681-3.639,3.66-3.646,2.722.269,1.21.9.819,2.122,11.4-1.93,25.043,4.221,35.789,7.28a7.809,7.809,0,0,0-2.967-2.376c5.475-2.525,11.7,2.261,14.53,4.776,1.635-.276-.265-1.356.355-3.024,9.616,3.939,24.5,1.484,32.352,8.9-6.145-.256-7.895-2.383-12.749-1.5,7.628,3.133,16.558,4.054,23.142,4.777-1.8-2.03-6.7-1.749-8.154-4.024,19.887,2.652,35.224,9.628,59.763,14.18-6.742-6.119-25.725-9.706-42.507-14.2-15.785-4.223-26.275-7.588-42.995-10.154.3-.8,1.2-.9,1.319-1.9-65.67-15.89-136.817-24.112-204.183-32.227-1.752-2.907,12.017,2.974,10.142-3.9-.512-2.4-5.895-1.109-8.376-2.024,3.933-2.576,10.793-1.639,15.48-3.3-.568-1.105-2.325-1.313-1.764-3.272,34.072.349,57.655,5.1,84.182,7.886-.714-1.616-2.405-2.491-5.071-2.649,3.465-2.215,5.834,1.389,9.7.1a5.518,5.518,0,0,1,.577,4.172c3.515-.782.244-4.05,5.784-3.423,1.031,2.875,19.621,7.947,25.4,4.029,6.183,4.6,17.185-1.146,25.041,7.028.646-2.938,2.094-1.858,6.731-2.274,1.532,2.233-.248,1.3-.477,4.048,7.3.366,11.321,3.178,17.838,4.126,3-.555-2.979-2.611.473-4.022,4.287.349,2.49,2.917,1.512,5.3,10.5,2.274,19.989,5.289,30.364,7.653-1.985,2.312-7.491-.468-9.577-1.128,9.2,5.759,28.876,14.6,41.81,11.053,14.443,11.208,43.927,11.9,61.866,23.65,27.654,1.7,42.477,14.561,66.375,22.1-8.005,4.148,6.358,2.541,4.476,7.7,1.4-1.031,3.876-.713,6.5-.274.357,2.2,2.293,3.206,1.406,6.321,4.545,1.99,3.187-3.105,6.734-2.3,2.156,8.332,12.012,6.142,15.816,12.1,2.458-.282-1.1-1.715,1.424-2.9,1.6,2.787,5.143,4.113,7.9,6.049-20.336-.811-40.638-17.384-64.224-21.875,6.841,9.584,24.715,10.961,30.925,21.019,13.28.966,27.513,8.72,35.774,16.473,4.232.81,11.122-.352,9.09,5.149-3.418.766-7.229-6.072-10.616-1.25-3.015-.8-2.016-4.626-4.731-5.648-4.2.519-2.448,3.816-3.9,5.646-24.477-11.117-49.688-21.7-74.87-32.3-3.117,2.386,3.044,5.657,5.677,6.8-3.061,1.224-13.327-7.31-20.783-6.552-2.537-2.3,3.074.051,4.254.5.293-1.784-1.25-4.148,5.665-2.4a148.291,148.291,0,0,0-18.535-7.275c-.351-.274-.708,7.19,3.543,6.548-2.212,3.09-11.617-4.278-18.072-2.128.568,1.105,2.323,1.313,1.778,3.275-9.931-2.779-17.718.2-25.618-11.2-5.271-7.582-35.161-1.334-37.447-11.578-7.884,2.059-29.1,3.717-29.283-7.527-3.155-1-9.295.205-10.511-2.251-2.5.667-3.5,2.888-5.782,3.4-8.843,2.05-17.177-6.126-23.619-9.924,1.973-4.548-1.836-4.762-3.542-6.549-2.511.042-1.542,4.26-3.783,4.673-3.359.046-3.133-2.577-2.593-5.424-2.768,3.857-3.113-.885-7.442-.876,1.52,4.648-7.676-4.254-14.515-4.774a1.011,1.011,0,0,0-.235,2c-9.479,1.4-18.5-2.958-29.653-4.505-15.575-2.172-29.39-3.824-44.509-6.253-3.706-.982-3.041,3.253-6.732,2.272-.246-2.21,1.739-1.742,3.426-1.649-2.5-4.009-7.984-.109-10.275-4.274-6.086,3.31-22.46,4.083-27.752-2.256,3.864.793,9.512.264,11.576,2.4C1507.095,3338.623,1526.231,3351.033,1547.945,3348.628Zm20.906-22.06c1.88-3.052-6.045-3.31-6.243-1.749C1564.546,3327.542,1567.427,3324.478,1568.851,3326.569Zm31.891,3.756c6.21-.985-5.128-.527-12.512-3.526-4.854,1.688-8.865-2.395-12.988.523C1583.992,3328.013,1594.869,3331.242,1600.742,3330.324Zm-25.634,7.189c-8.085-5.185-21.647-2-26.216-6.126C1549.835,3339.681,1571.159,3336.737,1575.108,3337.513Zm64.355,39.269c5.766-.36,13.642,1.84,14.529-4.419-6.15-2.777-14.333-4-23.156-4.779C1629.974,3373.873,1639.577,3369.652,1639.464,3376.782Zm36.605.232c-6.218-.472-16.542-6.987-21.261-2.5,8.658-.954,7.435,5.473,12.039,7.548a6.431,6.431,0,0,0-.46-5.171C1668.871,3377.674,1673.044,3377.23,1676.069,3377.014Zm32.231,9.926c.481,3.356,12.341,1.375,15.583,4.9C1722.372,3386.649,1708.273,3386.7,1708.3,3386.94Zm36.608,9.4c-4.057-.659-10.048-4.69-13.7-2.626C1735.129,3394.489,1742.543,3397.466,1744.908,3396.343Zm70.97,10.409c.049-2.853-7.6-4.662-9.325-3.15C1810.051,3404.377,1810.921,3407.1,1815.878,3406.752Zm-45.473,1.814c-2.188-1.427-4.028-3.124-8.272-3.026C1761.778,3408.329,1769.3,3409.916,1770.405,3408.566Z" transform="translate(502.515 -2911.641)" fill-rule="evenodd"/>
  <path id="Path_18089" data-name="Path 18089" d="M1987.253,3384.22c.424-2.209,2.517,1.648,5.322.627.1,1.675-1.206,1.625-1.427,2.923l-2.121-.25A2.824,2.824,0,0,0,1987.253,3384.22Z" transform="translate(591.419 -2920.7)" fill-rule="evenodd"/>
  <path id="Path_18090" data-name="Path 18090" d="M1312.558,3364.48c-.328-2.22,6.021.969,9.68.127-.036-2.135-4.626-.831-5.083-2.651,1.162-1.968,7.526-.179,8.51,1a5.349,5.349,0,0,0-1.528,3.9C1319,3367.005,1316.95,3364.868,1312.558,3364.48Z" transform="translate(378.721 -2914.507)" fill-rule="evenodd"/>
  <path id="Path_18091" data-name="Path 18091" d="M1340.17,3363.7c2.67,1.509,3.193,1.259,1.646,4.272,9.692.855,15.539,2.479,23.382,2.753-3.866,3.285-12.381-.108-17.124-1-6.138-1.138-21.675-2.007-12.633-2.5a7.235,7.235,0,0,1,5.44-.373A4.575,4.575,0,0,1,1340.17,3363.7Z" transform="translate(384.455 -2915.441)" fill-rule="evenodd"/>
  <path id="Path_18092" data-name="Path 18092" d="M1578.765,3399.415c16.075,2.23,32.807,3.993,47.472,8.655,26.8-.793,49.041,7.437,70.84,11.407,11,2.024,23.865,4.446,36.025,5.281,12.09,6.878,26.344,8.063,39.436,12.826,3.285,1.635,1.2-3.184,4.493-1.523-1.2,3.339,3.707,2.125,3.766,4.522,13.539,2.84,34.208,7.456,47,12.677,2.4.984,1.449.378.83,2.15,7.523-1.322,14.952,3.63,26.448,4.153-5.66,4.58-15.795-2.744-22.207-3.654-7.19,4.427-14.36-2.835-23.38-2.753,27.446,14.635,56.931,22.419,82.887,37.372-20.28-.83-47.137-18.019-68.359-23.4,9.822,9.054,22.985,12.162,34.127,21.4,1.532-4.522-5.542-2.6-6.983-4.9,5.956.131,23.169,3.742,20.315,10.549-3.026-4.434-6.588-5.815-12.174-6.525-.1,3.158,3.411,3.6,5.915,4.776-31.628-14.116-67.83-31.5-106.982-43.25-5.792-1.747-11.98-1.541-17.94-3.126-10.835-2.887-21.654-7.3-32.242-9.953-11.391-2.822-20.086-3.067-30.454-6.652-3.5-1.192-11.977-4.346-15.585-4.874-2.555-.405-4.935,2.25-7.322-1.9-2.1-.585-3.36-.188-3.427,1.649-15.493-8.917-36.265-8.349-58.931-12.057-.594,1.671.6,1.993,1.881,2.273-16.921.19-50.221-1.938-73.316-8.633,9.892-.5,23.017,1.074,31.994,2.756.506-4.175-2.833-2.8-6.965-4.925,6.892-2.357,19.867,2.469,30.942,2.631,2.38-.682-1.532-4.312-4.967-3.65.773-3.312,6.32-.866,9.8-.9A2.949,2.949,0,0,0,1578.765,3399.415Zm108.511,20.96c-3.326-.132-8.115-2.723-11.7-1.377C1678.788,3419.428,1684.377,3422.787,1687.276,3420.375Zm-116.207-10.619c-2.325-.949-8.606-3.663-9.67-.1C1566.357,3409.877,1569.031,3410.79,1571.069,3409.756Zm5.2,1.652c5.915-.81,13.032,4.34,14.993.726C1587.072,3412.134,1575.424,3409.178,1576.271,3411.408Z" transform="translate(492.109 -2933.138)" fill-rule="evenodd"/>
  <path id="Path_18093" data-name="Path 18093" d="M1953.478,3519.268c-1.7,1.8-5.233-2.774-8.271-3.026C1947.646,3513.9,1951.73,3518.073,1953.478,3519.268Z" transform="translate(436.872 -2957.779)" fill-rule="evenodd"/>
  <path id="Path_18094" data-name="Path 18094" d="M1255.863,3363.588c-6.312,2.894-21.7,2.174-26.569-3.128C1221.138,3359.838,1247.7,3360.42,1255.863,3363.588Z" transform="translate(373.514 -2914.215)" fill-rule="evenodd"/>
  <path id="Path_18095" data-name="Path 18095" d="M2059.237,3459.287c-.336-3.312,5.074,4.7,8.378,2-2.842,1.458-2.41,1.976,1.883,2.274C2065.384,3467.908,2061.1,3462.052,2059.237,3459.287Z" transform="translate(577.989 -2941.959)" fill-rule="evenodd"/>
  <path id="Path_18096" data-name="Path 18096" d="M2076.706,3467.652c-2.414-1.947,7.212.745,4.833,4.673C2078.11,3472.13,2080.328,3467.715,2076.706,3467.652Z" transform="translate(574.8 -2944.245)" fill-rule="evenodd"/>
  <path id="Path_18097" data-name="Path 18097" d="M2087.839,3474.992c.383-1.046,2.188-.443,2.342-1.75,1.412,1.387.961,4.164,3.782,4.522C2091.93,3480.382,2090.251,3475.093,2087.839,3474.992Z" transform="translate(572.649 -2945.992)" fill-rule="evenodd"/>
  <path id="Path_18098" data-name="Path 18098" d="M-197.826,3244.522c3.4-1.6-2.222,5.48-3.773,6.7C-204.862,3249.383-199.25,3245.965-197.826,3244.522Z" transform="translate(227.653 -2881.744)" fill-rule="evenodd"/>
  <path id="Path_18099" data-name="Path 18099" d="M1919.208,3477.956c-1.573-2.575,6.444,1.331,7.2,2.9C1923.844,3483.593,1922.375,3477.808,1919.208,3477.956Z" transform="translate(434.193 -2947.01)" fill-rule="evenodd"/>
  <path id="Path_18100" data-name="Path 18100" d="M1816.391,3480.056c1.652-3.91,4.293-.171,5.191,1.625,1.208-.844,2.4-1.745,3.556-2.647-3.228-3.627-5.581-2.372-10.273-4.275l.474-4.022c5.165-2.12,12.29-.761,17,2,.235,2.184-1.753,1.742-3.423,1.623,2.5,4.556,10.861,4.761,14.038,8.823-1.415,2.717-4.479-.813-6.375-.751-.292,3.29,6.253,1.437,4.73,5.648-8.2-.758-6.407-3.274-14.648-3.75.048,1.8,1.554,2.495,4.019,2.5C1820.141,3487.641,1828.015,3482.515,1816.391,3480.056Zm17.942,3.126c1.818-3.579-5.81-4.737-7.19-2.9C1829.413,3481.355,1831.039,3482.9,1834.333,3483.182Z" transform="translate(429.81 -2946.153)" fill-rule="evenodd"/>
  <path id="Path_18101" data-name="Path 18101" d="M2182.036,3519.154c2.239.758,11.323,1.646,11.209,5.4C2188.174,3523.773,2185.555,3521.127,2182.036,3519.154Z" transform="translate(555.072 -2958.909)" fill-rule="evenodd"/>
  <path id="Path_18102" data-name="Path 18102" d="M1856.532,3493.376c2.714,1.957,7.53,2.342,10.272,4.3C1863.334,3498.177,1856.717,3496.8,1856.532,3493.376Z" transform="translate(429.112 -2951.574)" fill-rule="evenodd"/>
  <path id="Path_18103" data-name="Path 18103" d="M1801.047,3491.862c.937.759,9.475-2.079,8.271,3.026C1807.011,3493.551,1802.982,3493.466,1801.047,3491.862Z" transform="translate(423.437 -2951.004)" fill-rule="evenodd"/>
  <path id="Path_18104" data-name="Path 18104" d="M1925.756,3523.793c2.135-4.294,5.816,1.074,8.391,2C1933.051,3527.432,1927.662,3524.589,1925.756,3523.793Z" transform="translate(435.088 -2959.635)" fill-rule="evenodd"/>
  <path id="Path_18105" data-name="Path 18105" d="M1275,3451.08c3.334,2.626-11.905,2.832-9.456-2.154C1268.354,3449.336,1273.37,3452.81,1275,3451.08Z" transform="translate(373.731 -2939.051)" fill-rule="evenodd"/>
  <path id="Path_18106" data-name="Path 18106" d="M1885.389,3529.446c.913-.075.938.525.934,1.148,2.357,1.6,5.827,2.374,8.139,4.024C1892.585,3535.67,1884.618,3533.432,1885.389,3529.446Z" transform="translate(431.506 -2979.607)" fill-rule="evenodd"/>
  <path id="Path_18107" data-name="Path 18107" d="M1868.832,3545.735c.337-1.1,1.131-.412,1.068.125a2.8,2.8,0,0,0,2.474-2.748,8.99,8.99,0,0,1,7.089,3.874C1875.883,3548.541,1871.28,3548.44,1868.832,3545.735Z" transform="translate(430.359 -2982.158)" fill-rule="evenodd"/>
  <path id="Path_18108" data-name="Path 18108" d="M1970.121,3567.985c-3.62,4.457-10.64-1.746-14.767-2.751C1959.75,3563.958,1965.447,3565.46,1970.121,3567.985Z" transform="translate(439.599 -2986.199)" fill-rule="evenodd"/>
  <path id="Path_18109" data-name="Path 18109" d="M2112.29,3593.737c3.828-2.509,6.767,3.473,11.462,3.376C2120.4,3599.265,2115.859,3594.469,2112.29,3593.737Z" transform="translate(568.086 -2991.49)" fill-rule="evenodd"/>
  <path id="Path_18110" data-name="Path 18110" d="M2032.435,3596.906c5.346-2.357,7,4.046,11.459,3.4C2040.34,3602.59,2035.689,3597.886,2032.435,3596.906Z" transform="translate(582.988 -2992.098)" fill-rule="evenodd"/>
  <path id="Path_18111" data-name="Path 18111" d="M2050.13,3626.728c2.948-.953,10.748,2.356,11.094,6.4C2058.31,3630.419,2053.584,3629.032,2050.13,3626.728Z" transform="translate(579.686 -2997.73)" fill-rule="evenodd"/>
  <path id="Path_18112" data-name="Path 18112" d="M2029.223,3635.609c15.461,5.119,37.09,12.394,54.428,22.748-10.253-2.142-25.254-8.714-33.772-15.225C2043.394,3645.408,2033.443,3638.962,2029.223,3635.609Z" transform="translate(583.587 -2999.418)" fill-rule="evenodd"/>
  <path id="Path_18113" data-name="Path 18113" d="M-44.345,3441.773c-11.318,7.317,8.228,13.593,3.434,21.861-8.328-1.942-11.262-6.728-15.171-10.982,3.207-4.973,6.264-10.095,10.629-14.074,5.341,1.3,5.652.587,8.494,4.064C-38.341,3445.026-41.01,3438.789-44.345,3441.773Z" transform="translate(200.312 -2937.934)" fill-rule="evenodd"/>
  <path id="Path_18114" data-name="Path 18114" d="M1910.483,3657.189c-2.306-1.128,9.012,2.074,6.734,6.9-8.086-1-9.891.135-22.328-2.629,4.061-5.185,9.133.583,17.372-.993C1913.108,3658.277,1910.393,3658.764,1910.483,3657.189Z" transform="translate(436.011 -3003.403)" fill-rule="evenodd"/>
  <path id="Path_18115" data-name="Path 18115" d="M1942.018,3666.6c-4.86.1-15.181,1.927-16.783-4,3.341-.36,3.755,1.481,6.257,1.75.9-1.115,2.12-4.505-1.528-5.272,2-2.335,6.2,1.406,6.018,3.774,1.711-2.317,3.832,1.542,4.375-.524,1.962,2.076-.14,3.75,4.017,2.525-.347,7.6,11.255,6.286,13.686,11.82-3.637-2.741-6.244-1.879-12.513-3.525C1947.66,3670.092,1945.557,3667.818,1942.018,3666.6Z" transform="translate(441.694 -3003.658)" fill-rule="evenodd"/>
  <path id="Path_18116" data-name="Path 18116" d="M2108.107,3705.306c3.145-2.279-2.332-1.365-.473-5.172,3.244.952,4.221,3.588,6.969,4.9,3.619-4.093,10.281,1.782,11.223,5.4C2120.929,3711.778,2114.3,3703.179,2108.107,3705.306Z" transform="translate(569.029 -3011.459)" fill-rule="evenodd"/>
  <path id="Path_18117" data-name="Path 18117" d="M2053.911,2946.936c.29-3.291-6.25-1.464-4.715-5.672a36.282,36.282,0,0,0,10.379,3.274c.724,3.149-2.572,1.488-4.478,1.5,6.336,4.461,15.585,6.745,23.615,9.951-30.368-8.07-67.671-19.243-89.146-29.928,12.931,4.509,29.944,8.072,45.1,10.428.107,1.648-1.214,1.6-1.41,2.9,2.265-.15,2.73,1.022,4.125,1.5,1.631-.25-.268-1.33.356-3.022,3.421-.09,3.541,2.26,7.334,1.9-.376,4.475-2.954-.841-4.5,1.5C2044.2,2943.767,2050.515,2944.25,2053.911,2946.936Z" transform="translate(590.987 -2792.766)" fill-rule="evenodd"/>
  <path id="Path_18118" data-name="Path 18118" d="M567.537,2850.78c3.544-3.3,2.156,3.812,7.151,2.868-1.312,3.715-3.41,6.689-9.683,6.03,2.567-3.569-3.821-2.425-2.369-5.4C567.056,2856.153,571.335,2852.422,567.537,2850.78Z" transform="translate(308.123 -2760.406)" fill-rule="evenodd"/>
  <path id="Path_18119" data-name="Path 18119" d="M2079.686,3058.568c-.117,3.778,5.542,6.548,8.257,3.023,1.044,2.305,3.655,3.392,3.542,6.549-4.726-.453-5.921-3.555-11.462-3.376C2079.512,3062.6,2077.171,3060.376,2079.686,3058.568Z" transform="translate(574.384 -2829.61)" fill-rule="evenodd"/>
  <path id="Path_18120" data-name="Path 18120" d="M2245.246,3161.521l.355-3.023c11.083,3.8,23.672,8.891,28.463,14.6C2261.884,3171.168,2255.728,3164.728,2245.246,3161.521Z" transform="translate(543.277 -2858.001)" fill-rule="evenodd"/>
  <path id="Path_18121" data-name="Path 18121" d="M1999.011,3286.668c8.031,1.933,60.248,13.9,72.5,24.877-13.2-6.283-29.268-6.148-40.251-14.975-3.267,1.226-14.593-.055-11.462-3.375-8.564,1.9-15.819-1.967-25.4-4C1993.573,3284.236,1999.193,3292.093,1999.011,3286.668Z" transform="translate(590.101 -2894.86)" fill-rule="evenodd"/>
  <path id="Path_18122" data-name="Path 18122" d="M1822.184,3309.9c-5.759-1.926-15.106-2.558-17.822-4.151,3.983-4.519,4.726.453,11.8.376C1807.743,3301.578,1826.264,3302.227,1822.184,3309.9Z" transform="translate(426.309 -2898.315)" fill-rule="evenodd"/>
  <path id="Path_18123" data-name="Path 18123" d="M1303.143,3280.075c15.564,4.482,47.819,7.345,69.786,11.283-3.974,5.948,3.418.974,3.66,5.549l-10.63-1.252c.835-1.981,3.433-1.6,1.543-3.922-2.951.874-3.412.481-2.61,3.8-3.953,1.118-.231-3.509-2.818-3.4-1.638,7.288-28.7-1.8-43.93-2.108-3.838-.089-9.206.5-13.818-1.627,2.082-2.093,8.149.569,11.8.35-3.2-4.819-12.562-2.284-16.888-3,.274-3.137,3.555-2.622,6.732-2.273C1306.677,3281.115,1301.073,3283.469,1303.143,3280.075Z" transform="translate(390.172 -2892.455)" fill-rule="evenodd"/>
  <path id="Path_18124" data-name="Path 18124" d="M1265.827,3338.609c-3.81.019-10.042-2.87-9.93,1.872-3.654-2.457-7.122-.918-11.684-1.376.566-2.246.188-3.8-1.646-4.273-3.864-1.962-.747,4.485-4.61,2.523,4.645-5.376-10.986-2.541-13.344-5.651-2.519-.01-2.805,2.424-.356,3.023-7.414-.535-19.02,2.073-24.21-4.9,1.724-1.381,5.546-.23,8.627,0-.023-2.132-4.64-.831-5.084-2.651.739-2.2,5.29.207,7.56-.122.121,1.65-1.2,1.625-1.408,2.9l10.616,1.25c1.635-.274-.268-1.329.355-3.023,1.5.255,2.994.508,3.306-.624a140.405,140.405,0,0,0,20.089,3.379C1251.243,3331.514,1262.415,3330.025,1265.827,3338.609Z" transform="translate(377.835 -2905.309)" fill-rule="evenodd"/>
  <path id="Path_18125" data-name="Path 18125" d="M1664.637,3437.026c-5.845,2.9-6.68,4.513-16.294,1.147C1651.283,3433.091,1660.2,3437.932,1664.637,3437.026Z" transform="translate(411.037 -2935.389)" fill-rule="evenodd"/>
  <path id="Path_18126" data-name="Path 18126" d="M1891.35,3501.277c6.358,1.373,13.407,2.1,16.3,8.024-5.7-.048-7.1-1.771-8.854,2.049a24.754,24.754,0,0,0-6.152-2.776C1899.831,3506.952,1890.578,3505.862,1891.35,3501.277Z" transform="translate(433.985 -2954.31)" fill-rule="evenodd"/>
</svg>
