<svg xmlns="http://www.w3.org/2000/svg" width="160.088" height="198.25" viewBox="0 0 160.088 198.25">
  <g id="Group_724" data-name="Group 724" transform="translate(-1455.417 -6586.182)">
    <path id="Path_13096" data-name="Path 13096" d="M1595.391,6607.482a6.76,6.76,0,0,1-.567.683A2.453,2.453,0,0,1,1595.391,6607.482Z" fill-rule="evenodd"/>
    <path id="Path_13097" data-name="Path 13097" d="M1596.866,6605.826a8.792,8.792,0,0,1-.751.816C1596.284,6606.388,1596.766,6605.811,1596.866,6605.826Z" fill-rule="evenodd"/>
    <path id="Path_13098" data-name="Path 13098" d="M1600.169,6601.945a15.015,15.015,0,0,1-1.2,1.449c-.049.035-.1.069-.112.049C1599.217,6602.982,1599.79,6602.4,1600.169,6601.945Z" fill-rule="evenodd"/>
    <path id="Path_13099" data-name="Path 13099" d="M1601.644,6600.289c-.21.241-.467.556-.593.661C1601.007,6600.9,1601.675,6600.093,1601.644,6600.289Z" fill-rule="evenodd"/>
    <path id="Path_13100" data-name="Path 13100" d="M1602.8,6598.946c-.276.309-.411.461-.81.912A4.387,4.387,0,0,1,1602.8,6598.946Z" fill-rule="evenodd"/>
    <path id="Path_13101" data-name="Path 13101" d="M1593.68,6609.518c.224-.262.247-.2.533-.564C1594.273,6608.953,1593.652,6609.664,1593.68,6609.518Z" fill-rule="evenodd"/>
    <path id="Path_13102" data-name="Path 13102" d="M1584.478,6620.314a8.355,8.355,0,0,1-.71.85A5.747,5.747,0,0,1,1584.478,6620.314Z" fill-rule="evenodd"/>
    <path id="Path_13103" data-name="Path 13103" d="M1581.332,6624.04c-.351.4-.692.875-1.014,1.176A6.641,6.641,0,0,1,1581.332,6624.04Z" fill-rule="evenodd"/>
    <path id="Path_13104" data-name="Path 13104" d="M1578.5,6627.3c.041.008-.367.57-.422.516A5.378,5.378,0,0,1,1578.5,6627.3Z" fill-rule="evenodd"/>
    <path id="Path_13105" data-name="Path 13105" d="M1607.616,6594.17c-.918,1.1-2.31,2.674-3.285,3.754C1605.259,6596.75,1606.639,6595.289,1607.616,6594.17Z" fill-rule="evenodd"/>
    <path id="Path_13106" data-name="Path 13106" d="M1583.44,6622.346a11.443,11.443,0,0,1-.842,1.03A12.913,12.913,0,0,1,1583.44,6622.346Z" fill-rule="evenodd"/>
    <path id="Path_13107" data-name="Path 13107" d="M1596.461,6607.819c-.887,1.135-2.434,2.923-3.424,4.074C1594,6610.689,1595.225,6609.257,1596.461,6607.819Z" fill-rule="evenodd"/>
    <path id="Path_13108" data-name="Path 13108" d="M1592.676,6612.311a3.309,3.309,0,0,1-.493.6A2.923,2.923,0,0,1,1592.676,6612.311Z" fill-rule="evenodd"/>
    <path id="Path_13109" data-name="Path 13109" d="M1592.024,6613.066c-.612.8-1.909,2.268-2.493,2.97C1590.113,6615.257,1591.128,6614.112,1592.024,6613.066Z" fill-rule="evenodd"/>
    <path id="Path_13110" data-name="Path 13110" d="M1528.408,6686.837a8.376,8.376,0,0,1-.7.862C1527.867,6687.477,1528.162,6687.136,1528.408,6686.837Z" fill-rule="evenodd"/>
    <path id="Path_13111" data-name="Path 13111" d="M1589.444,6616.11c-.388.541-1.522,1.8-2.278,2.72C1587.753,6618.068,1588.6,6617.089,1589.444,6616.11Z" fill-rule="evenodd"/>
    <path id="Path_13112" data-name="Path 13112" d="M1600.127,6603.811c-.188.28-.742.869-1.073,1.27A14.624,14.624,0,0,1,1600.127,6603.811Z" fill-rule="evenodd"/>
    <path id="Path_13113" data-name="Path 13113" d="M1595.243,6609.55a16.531,16.531,0,0,1,1.133-1.365C1596.06,6608.621,1595.542,6609.175,1595.243,6609.55Z" fill-rule="evenodd"/>
    <path id="Path_13114" data-name="Path 13114" d="M1581.4,6625.564c.033.01-.061.127-.019.129-.27.347-.192.134-.461.48C1580.892,6626.13,1581.2,6625.8,1581.4,6625.564Z" fill-rule="evenodd"/>
    <path id="Path_13115" data-name="Path 13115" d="M1604.873,6598.391c.535-.6-1.3,1.479-.072.083C1604.825,6598.448,1604.849,6598.418,1604.873,6598.391Z" fill-rule="evenodd"/>
    <path id="Path_13116" data-name="Path 13116" d="M1615.227,6586.394c.581-.643-.273.341-.638.765-.545.636-2.248,2.533-1.33,1.488C1613.632,6588.222,1614.7,6587.022,1615.227,6586.394Z" fill-rule="evenodd"/>
    <path id="Path_13117" data-name="Path 13117" d="M1603.8,6599.661c-3.137,3.753-6.806,8.087-9.511,11.262C1596.889,6607.687,1600.261,6603.813,1603.8,6599.661Z" fill-rule="evenodd"/>
    <path id="Path_13118" data-name="Path 13118" d="M1605.545,6597.8c-.2.26-.591.681-1.072,1.269A8.323,8.323,0,0,1,1605.545,6597.8Z" fill-rule="evenodd"/>
    <path id="Path_13119" data-name="Path 13119" d="M1603.169,6600.579c-.443.545-.862,1.072-1.277,1.533A17.411,17.411,0,0,1,1603.169,6600.579Z" fill-rule="evenodd"/>
    <path id="Path_13120" data-name="Path 13120" d="M1604.1,6599.478c-.272.418-1.012,1.131,0,0Z" fill-rule="evenodd"/>
    <path id="Path_13121" data-name="Path 13121" d="M1580.723,6626.589c-1.64,2.06-3.4,4.056-5.568,6.613C1576.81,6631.129,1578.763,6628.88,1580.723,6626.589Z" fill-rule="evenodd"/>
    <path id="Path_13122" data-name="Path 13122" d="M1593.275,6612.1c.112-.048-.468.673-.493.6C1592.948,6612.5,1593.033,6612.363,1593.275,6612.1Z" fill-rule="evenodd"/>
    <path id="Path_13123" data-name="Path 13123" d="M1589.761,6616.384a3.078,3.078,0,0,1-.408.526C1589.236,6616.949,1589.62,6616.563,1589.761,6616.384Z" fill-rule="evenodd"/>
    <path id="Path_13124" data-name="Path 13124" d="M1582.028,6625.372a2.035,2.035,0,0,0-.237.38c-.724.734-1.758,2.04-2.52,2.948C1579.765,6627.909,1581.192,6626.412,1582.028,6625.372Z" fill-rule="evenodd"/>
    <path id="Path_13125" data-name="Path 13125" d="M1584.463,6622.791a8.206,8.206,0,0,1-.566.682A4.62,4.62,0,0,1,1584.463,6622.791Z" fill-rule="evenodd"/>
    <path id="Path_13126" data-name="Path 13126" d="M1586.931,6620.09c-.76.959-1.238,1.484-2.217,2.624C1585.335,6621.9,1586.47,6620.636,1586.931,6620.09Z" fill-rule="evenodd"/>
    <path id="Path_13127" data-name="Path 13127" d="M1600.366,6604.6c-.2.356-.682.814-1.046,1.292C1599.492,6605.572,1600.1,6604.965,1600.366,6604.6Z" fill-rule="evenodd"/>
    <path id="Path_13128" data-name="Path 13128" d="M1580.468,6627.687a22.488,22.488,0,0,1-1.87,2.193C1579.432,6628.928,1579.81,6628.453,1580.468,6627.687Z" fill-rule="evenodd"/>
    <path id="Path_13129" data-name="Path 13129" d="M1578.323,6630.226c.064-.07.062-.083.059-.1a21.3,21.3,0,0,1-1.6,1.987c-1.68,2.027-3.673,4.452-5.614,6.719.761-1.074,2.59-3.052,3.356-4.13C1575.781,6633.287,1577.273,6631.429,1578.323,6630.226Z" fill-rule="evenodd"/>
    <path id="Path_13130" data-name="Path 13130" d="M1607.672,6596.27c-.924,1.181-1.857,2.189-2.929,3.474C1605.451,6598.8,1606.91,6597.071,1607.672,6596.27Z" fill-rule="evenodd"/>
    <path id="Path_13131" data-name="Path 13131" d="M1609.095,6594.568c.125-.1.387-.428.413-.372-.294.313-.291.351-.519.575C1609,6594.726,1609.1,6594.6,1609.095,6594.568Z" fill-rule="evenodd"/>
    <path id="Path_13132" data-name="Path 13132" d="M1608.265,6595.61a8.047,8.047,0,0,1,.566-.683A3.252,3.252,0,0,1,1608.265,6595.61Z" fill-rule="evenodd"/>
    <path id="Path_13133" data-name="Path 13133" d="M1580.258,6628.091c.094-.171.547-.645.783-.935C1580.947,6627.327,1580.493,6627.8,1580.258,6628.091Z" fill-rule="evenodd"/>
    <path id="Path_13134" data-name="Path 13134" d="M1598.589,6606.875c-.421.476-.561.679-.868,1.006A6.32,6.32,0,0,1,1598.589,6606.875Z" fill-rule="evenodd"/>
    <path id="Path_13135" data-name="Path 13135" d="M1604.066,6600.475l.507-.587c.108-.023-.326.411-.48.61Z" fill-rule="evenodd"/>
    <path id="Path_13136" data-name="Path 13136" d="M1568,6642.4c-.973,1.115-1.606,1.907-2.653,3.126A34.234,34.234,0,0,1,1568,6642.4Z" fill-rule="evenodd"/>
    <path id="Path_13137" data-name="Path 13137" d="M1595.549,6610.4c.1,0-.383.475-.553.694C1594.8,6611.269,1595.481,6610.517,1595.549,6610.4Z" fill-rule="evenodd"/>
    <path id="Path_13138" data-name="Path 13138" d="M1595.778,6610.159a14.022,14.022,0,0,1,1.015-1.175C1596.489,6609.382,1596.08,6609.829,1595.778,6610.159Z" fill-rule="evenodd"/>
    <path id="Path_13139" data-name="Path 13139" d="M1594.877,6611.283c-1.218,1.515-3.07,3.545-5.041,5.9-1.942,2.444-4.793,5.73-7.542,9.007.789-1.112,2.554-3.068,3.757-4.514C1589,6618.126,1591.954,6614.523,1594.877,6611.283Z" fill-rule="evenodd"/>
    <path id="Path_13140" data-name="Path 13140" d="M1579.89,6628.944c-.517.581-.773.941-1.289,1.521A15.169,15.169,0,0,1,1579.89,6628.944Z" fill-rule="evenodd"/>
    <path id="Path_13141" data-name="Path 13141" d="M1594.212,6612.321c.282-.4.5-.5.869-1.007.024.021-.367.5-.078.225C1594.7,6612,1594.609,6611.826,1594.212,6612.321Z" fill-rule="evenodd"/>
    <path id="Path_13142" data-name="Path 13142" d="M1597.439,6608.663c.051-.044.374-.371.36-.418.073-.083.074-.052.1-.063l.026.023C1597.814,6608.276,1597.385,6608.858,1597.439,6608.663Z" fill-rule="evenodd"/>
    <path id="Path_13143" data-name="Path 13143" d="M1508.218,6712.451c.5-.92,2.548-3.151,3.58-4.522.118-.147.146-.149.171-.145C1510.667,6709.383,1509.392,6710.959,1508.218,6712.451Z" fill-rule="evenodd"/>
    <path id="Path_13144" data-name="Path 13144" d="M1588.744,6618.872c-1,1.211-2.531,3.1-3.772,4.5C1586.162,6621.9,1587.306,6620.5,1588.744,6618.872Z" fill-rule="evenodd"/>
    <path id="Path_13145" data-name="Path 13145" d="M1594.661,6612.122c.579-.65.654-.559.785-.642-.221.353-.448.439-.81.911C1594.606,6612.3,1594.911,6611.978,1594.661,6612.122Z" fill-rule="evenodd"/>
    <path id="Path_13146" data-name="Path 13146" d="M1584.188,6624.311c-.384.49-.883,1.079-1.42,1.7C1583.065,6625.588,1583.837,6624.713,1584.188,6624.311Z" fill-rule="evenodd"/>
    <path id="Path_13147" data-name="Path 13147" d="M1595.859,6610.813c.551-.593.908-.873,1.6-1.693-.148.253-.512.69-.8,1.064.353-.5-.386.363-.691.721C1596.133,6610.616,1595.969,6610.795,1595.859,6610.813Z" fill-rule="evenodd"/>
    <path id="Path_13148" data-name="Path 13148" d="M1602.664,6602.928c.061-.076.075-.076.087-.074.254-.218.4-.454.75-.816a15.658,15.658,0,0,1-1.073,1.27C1602.351,6603.313,1602.782,6602.888,1602.664,6602.928Z" fill-rule="evenodd"/>
    <path id="Path_13149" data-name="Path 13149" d="M1581.392,6627.6a11.11,11.11,0,0,1-.915,1.113C1580.708,6628.41,1581.046,6628.01,1581.392,6627.6Z" fill-rule="evenodd"/>
    <path id="Path_13150" data-name="Path 13150" d="M1590.153,6617.453c-.337.47-.9,1.1-1.481,1.8a21.38,21.38,0,0,1-2.244,2.6C1587.266,6620.807,1588.977,6618.87,1590.153,6617.453Z" fill-rule="evenodd"/>
    <path id="Path_13151" data-name="Path 13151" d="M1601.013,6604.868c.256-.314.306-.3.534-.565C1601.488,6604.427,1601.027,6604.925,1601.013,6604.868Z" fill-rule="evenodd"/>
    <path id="Path_13152" data-name="Path 13152" d="M1563.356,6648.639a5.434,5.434,0,0,1-.7.86A10.014,10.014,0,0,1,1563.356,6648.639Z" fill-rule="evenodd"/>
    <path id="Path_13153" data-name="Path 13153" d="M1592.562,6614.848c-.2.324-.6.708-.842,1.03A6.327,6.327,0,0,1,1592.562,6614.848Z" fill-rule="evenodd"/>
    <path id="Path_13154" data-name="Path 13154" d="M1591.489,6616.118c-.3.42-1,1.25-1.421,1.7C1590.353,6617.415,1591.153,6616.494,1591.489,6616.118Z" fill-rule="evenodd"/>
    <path id="Path_13155" data-name="Path 13155" d="M1580.525,6628.9c-.3.284.246-.342.408-.526.4-.442-.2.267-.35.431C1580.519,6628.879,1580.519,6628.894,1580.525,6628.9Z" fill-rule="evenodd"/>
    <path id="Path_13156" data-name="Path 13156" d="M1597.8,6608.829a5.868,5.868,0,0,1-.625.778A7.166,7.166,0,0,1,1597.8,6608.829Z" fill-rule="evenodd"/>
    <path id="Path_13157" data-name="Path 13157" d="M1609.11,6595.753c-.041-.011.25-.3.348-.43.058,0-.117.2-.248.368C1609.2,6595.666,1609.169,6595.69,1609.11,6595.753Z" fill-rule="evenodd"/>
    <path id="Path_13158" data-name="Path 13158" d="M1579.667,6629.924c-.139.032,1.235-1.428.06-.1C1579.663,6629.9,1579.664,6629.912,1579.667,6629.924Z" fill-rule="evenodd"/>
    <path id="Path_13159" data-name="Path 13159" d="M1611.381,6593.175c.662-.733,1.823-2.013,2.647-2.987A29.675,29.675,0,0,1,1611.381,6593.175Z" fill-rule="evenodd"/>
    <path id="Path_13160" data-name="Path 13160" d="M1592.016,6615.694c-3.462,4.228-7.094,8.313-10.445,12.505.877-.943-.657.9-.691.721C1584.334,6624.722,1588.564,6619.692,1592.016,6615.694Z" fill-rule="evenodd"/>
    <path id="Path_13161" data-name="Path 13161" d="M1614.981,6589.11c0-.037.566-.718.521-.577A7.11,7.11,0,0,1,1614.981,6589.11Z" fill-rule="evenodd"/>
    <path id="Path_13162" data-name="Path 13162" d="M1599.224,6607.423c.07-.143.5-.589.711-.851C1599.864,6606.715,1599.436,6607.16,1599.224,6607.423Z" fill-rule="evenodd"/>
    <path id="Path_13163" data-name="Path 13163" d="M1594.347,6613.314c.047-.193-.552.738-.824.9-.127.128-.288.388-.118.19-.468.478-1.848,2.152-2.473,2.84-.1.131.045-.018.039.034-.15.215-.316.358-.349.432-.248.257.031-.113.191-.275-.076-.038-.367.473-.4.386,1.849-2.165,3.559-4.195,5.681-6.662.241-.257-.111.163-.2.263-.357.44-.612.729-1.146,1.354C1594.478,6613.067,1594.611,6613.023,1594.347,6613.314Z" fill-rule="evenodd"/>
    <path id="Path_13164" data-name="Path 13164" d="M1590.325,6617.894a9.137,9.137,0,0,1-1.046,1.293c-1.162,1.376-2.415,2.843-3.351,3.99a7.483,7.483,0,0,1,.757-.958C1587.839,6620.825,1589.013,6619.482,1590.325,6617.894Z" fill-rule="evenodd"/>
    <path id="Path_13165" data-name="Path 13165" d="M1580.6,6629.267c-3.635,4.377-7.967,9.624-11.906,14.17C1572.218,6639.205,1576.809,6633.684,1580.6,6629.267Z" fill-rule="evenodd"/>
    <path id="Path_13166" data-name="Path 13166" d="M1589.726,6618.7a.917.917,0,0,1-.19.273c0,.026.04-.021.085-.071.024-.006-.016.043-.059.094l-.144.168c.032-.061.064-.122-.027-.023A4.36,4.36,0,0,1,1589.726,6618.7Z" fill-rule="evenodd"/>
    <path id="Path_13167" data-name="Path 13167" d="M1580.347,6629.778c-.113.185-.415.531-.611.788A4.53,4.53,0,0,1,1580.347,6629.778Z" fill-rule="evenodd"/>
    <path id="Path_13168" data-name="Path 13168" d="M1577.937,6632.677a5.257,5.257,0,0,1-.611.788A3.411,3.411,0,0,1,1577.937,6632.677Z" fill-rule="evenodd"/>
    <path id="Path_13169" data-name="Path 13169" d="M1578.722,6631.74a3.3,3.3,0,0,1-.4.539A1.915,1.915,0,0,1,1578.722,6631.74Z" fill-rule="evenodd"/>
    <path id="Path_13170" data-name="Path 13170" d="M1568.54,6643.593a3.092,3.092,0,0,1-.482.612A5.347,5.347,0,0,1,1568.54,6643.593Z" fill-rule="evenodd"/>
    <path id="Path_13171" data-name="Path 13171" d="M1574.706,6636.474c-.443.682-1.624,1.973-2.526,3.088C1572.8,6638.642,1574.014,6637.317,1574.706,6636.474Z" fill-rule="evenodd"/>
    <path id="Path_13172" data-name="Path 13172" d="M1575.009,6636.15c.1-.165.192-.218.422-.515C1575.546,6635.6,1575.072,6636.1,1575.009,6636.15Z" fill-rule="evenodd"/>
    <path id="Path_13173" data-name="Path 13173" d="M1600.581,6606.545c.19-.153-.309.471-.513.728l-.053-.046A4.808,4.808,0,0,0,1600.581,6606.545Z" fill-rule="evenodd"/>
    <path id="Path_13174" data-name="Path 13174" d="M1598.278,6609.24c.1-.11.093-.041.125-.038-.089.131-.718.942-.579.671-.272.311-.423.595-.626.778.017-.112.5-.618.6-.8a.893.893,0,0,1,.184-.134,3.212,3.212,0,0,1,.337-.443Z" fill-rule="evenodd"/>
    <path id="Path_13175" data-name="Path 13175" d="M1571.732,6640.054c-.528.687-1.263,1.512-1.975,2.4,0-.027-.039,0-.1.061C1569.943,6642.137,1571.06,6640.84,1571.732,6640.054Z" fill-rule="evenodd"/>
    <path id="Path_13176" data-name="Path 13176" d="M1568.474,6643.83a2.812,2.812,0,0,0,.23-.24,4.692,4.692,0,0,1-.4.538C1568.3,6644.079,1568.479,6643.878,1568.474,6643.83Z" fill-rule="evenodd"/>
    <path id="Path_13177" data-name="Path 13177" d="M1592.459,6616.223c.011.014-.078.112-.131.179,0,.061.321-.387.256-.217-.421.477-.53.652-.869,1.007A4.072,4.072,0,0,1,1592.459,6616.223Z" fill-rule="evenodd"/>
    <path id="Path_13178" data-name="Path 13178" d="M1593.381,6615.262l-.725.84A3.651,3.651,0,0,1,1593.381,6615.262Z" fill-rule="evenodd"/>
    <path id="Path_13179" data-name="Path 13179" d="M1596.093,6612.039c-.31.452-1.42,1.672-1.625,1.963C1594.5,6613.869,1595.549,6612.681,1596.093,6612.039Z" fill-rule="evenodd"/>
    <path id="Path_13180" data-name="Path 13180" d="M1593.5,6615.071c.427-.5.382-.424.736-.827a8.107,8.107,0,0,1-.769.945C1593.495,6615.135,1593.521,6615.083,1593.5,6615.071Z" fill-rule="evenodd"/>
    <path id="Path_13181" data-name="Path 13181" d="M1596.258,6612.035c-.267.415-1.118,1.323-1.468,1.808A18.941,18.941,0,0,1,1596.258,6612.035Z" fill-rule="evenodd"/>
    <path id="Path_13182" data-name="Path 13182" d="M1582.653,6627.96c-.358.417-.623.754-.914,1.113A5.073,5.073,0,0,1,1582.653,6627.96Z" fill-rule="evenodd"/>
    <path id="Path_13183" data-name="Path 13183" d="M1581.982,6628.846a7.8,7.8,0,0,1-.83,1.041C1581.3,6629.648,1581.715,6629.184,1581.982,6628.846Z" fill-rule="evenodd"/>
    <path id="Path_13184" data-name="Path 13184" d="M1583.331,6627.522a8.318,8.318,0,0,1-.685.874C1582.707,6628.246,1583.152,6627.771,1583.331,6627.522Z" fill-rule="evenodd"/>
    <path id="Path_13185" data-name="Path 13185" d="M1595.364,6613.6c-.585.754-1.966,2.328-3.073,3.642C1593.056,6616.268,1594.511,6614.583,1595.364,6613.6Z" fill-rule="evenodd"/>
    <path id="Path_13186" data-name="Path 13186" d="M1599.6,6608.774c-.683.8-1.336,1.578-2.232,2.612-.237.316-.088.011-.257.218-.443.55-1.334,1.569-1.534,1.751C1596.9,6611.781,1598.517,6609.948,1599.6,6608.774Z" fill-rule="evenodd"/>
    <path id="Path_13187" data-name="Path 13187" d="M1574.886,6637.361c.025.055-.337.436-.552.694A6.189,6.189,0,0,1,1574.886,6637.361Z" fill-rule="evenodd"/>
    <path id="Path_13188" data-name="Path 13188" d="M1572.353,6640.59c.284-.45,1.2-1.439,1.6-1.986.184-.215.1-.093.1-.061C1573.449,6639.256,1572.928,6639.9,1572.353,6640.59Z" fill-rule="evenodd"/>
    <path id="Path_13189" data-name="Path 13189" d="M1597.628,6611.169c-.66.86-1.5,1.869-2.125,2.7A27.774,27.774,0,0,1,1597.628,6611.169Z" fill-rule="evenodd"/>
    <path id="Path_13190" data-name="Path 13190" d="M1569.272,6644.08c.058.019-.514.6-.322.454a2.412,2.412,0,0,1-.276.346c.017-.059.073-.152.092-.213A5.855,5.855,0,0,1,1569.272,6644.08Z" fill-rule="evenodd"/>
    <path id="Path_13191" data-name="Path 13191" d="M1593.672,6615.806a5.824,5.824,0,0,1,.652-.755C1594.023,6615.376,1593.81,6615.687,1593.672,6615.806Z" fill-rule="evenodd"/>
    <path id="Path_13192" data-name="Path 13192" d="M1608.554,6598.641c-.426.576-1.042,1.178-1.592,1.845C1607.028,6600.366,1608.2,6599,1608.554,6598.641Z" fill-rule="evenodd"/>
    <path id="Path_13193" data-name="Path 13193" d="M1614.131,6592.179a12.128,12.128,0,0,1,1.223-1.284C1614.86,6591.389,1614.476,6591.9,1614.131,6592.179Z" fill-rule="evenodd"/>
    <path id="Path_13194" data-name="Path 13194" d="M1592.028,6617.9a4.19,4.19,0,0,1,.421-.515c-.006.064.128-.1.243-.228-.087.157-.5.591-.625.777C1592.029,6617.932,1592.156,6617.761,1592.028,6617.9Z" fill-rule="evenodd"/>
    <path id="Path_13195" data-name="Path 13195" d="M1596.6,6612.626c.006.048-.169.248-.163.3a1.967,1.967,0,0,0-.39.4A6.185,6.185,0,0,1,1596.6,6612.626Z" fill-rule="evenodd"/>
    <path id="Path_13196" data-name="Path 13196" d="M1598.873,6610.046c-.492.621-1.138,1.321-2.1,2.434C1597,6612.17,1598.358,6610.6,1598.873,6610.046Z" fill-rule="evenodd"/>
    <path id="Path_13197" data-name="Path 13197" d="M1462.562,6768.349c-1.125,1.224-3.164,4.158-4.448,5.235,1.747-2.214,3.8-4.624,5.449-6.715.107-.038-.221.292-.165.3.265-.3.325-.425.554-.695C1463.654,6767.006,1462.8,6767.891,1462.562,6768.349Z" fill-rule="evenodd"/>
    <path id="Path_13198" data-name="Path 13198" d="M1573.737,6639.441l.434-.5C1574.2,6638.985,1573.718,6639.576,1573.737,6639.441Z" fill-rule="evenodd"/>
    <path id="Path_13199" data-name="Path 13199" d="M1588.1,6622.852c-.177.248-.451.578-.771.947A11.57,11.57,0,0,1,1588.1,6622.852Z" fill-rule="evenodd"/>
    <path id="Path_13200" data-name="Path 13200" d="M1599.973,6609.093a9.469,9.469,0,0,1-1.034,1.3,15.821,15.821,0,0,1-1.454,1.819c-1.079,1.275-2.051,2.541-3.133,3.738-1.048,1.369-2.679,3.352-4.094,4.957.671-.982,2.292-2.769,3.126-3.889-.018-.069-.335.344-.474.469.094-.171.548-.645.784-.935,0,.036-.211.253-.192.276a19.783,19.783,0,0,0,1.857-2.206c-.017-.038-.262.292-.375.408C1596.284,6613.427,1598.223,6611.15,1599.973,6609.093Z" fill-rule="evenodd"/>
    <path id="Path_13201" data-name="Path 13201" d="M1583.767,6627.9a7.1,7.1,0,0,1-.7.863C1583.227,6628.537,1583.52,6628.2,1583.767,6627.9Z" fill-rule="evenodd"/>
    <path id="Path_13202" data-name="Path 13202" d="M1582.707,6629.18c-.242.364-.8.99-1.263,1.544C1581.727,6630.321,1582.183,6629.825,1582.707,6629.18Z" fill-rule="evenodd"/>
    <path id="Path_13203" data-name="Path 13203" d="M1587.928,6623.291c-.185.292-.662.831-1.047,1.293A12.669,12.669,0,0,1,1587.928,6623.291Z" fill-rule="evenodd"/>
    <path id="Path_13204" data-name="Path 13204" d="M1574.052,6639.423c-.253.362-.459.55-.841,1.029A7.485,7.485,0,0,1,1574.052,6639.423Z" fill-rule="evenodd"/>
    <path id="Path_13205" data-name="Path 13205" d="M1586.736,6624.753c-.385.536-1.168,1.41-1.6,1.985A24.922,24.922,0,0,1,1586.736,6624.753Z" fill-rule="evenodd"/>
    <path id="Path_13206" data-name="Path 13206" d="M1580.307,6632.229c-.533.745-.815.949,0,0Z" fill-rule="evenodd"/>
    <path id="Path_13207" data-name="Path 13207" d="M1581.576,6630.838a5.12,5.12,0,0,1,.435-.5C1582.425,6629.849,1581.483,6631.052,1581.576,6630.838Z" fill-rule="evenodd"/>
    <path id="Path_13208" data-name="Path 13208" d="M1590.087,6621.057a21.687,21.687,0,0,1-1.488,1.937A19.367,19.367,0,0,1,1590.087,6621.057Z" fill-rule="evenodd"/>
    <path id="Path_13209" data-name="Path 13209" d="M1575.416,6638.11c-.121.186-.438.537-.626.779A4.994,4.994,0,0,1,1575.416,6638.11Z" fill-rule="evenodd"/>
    <path id="Path_13210" data-name="Path 13210" d="M1594.952,6615.739a14.221,14.221,0,0,1-.987,1.2A12.454,12.454,0,0,1,1594.952,6615.739Z" fill-rule="evenodd"/>
    <path id="Path_13211" data-name="Path 13211" d="M1593.57,6617.475c-.3.276-.488.561-.751.816C1593.011,6618.046,1593.563,6617.305,1593.57,6617.475Z" fill-rule="evenodd"/>
    <path id="Path_13212" data-name="Path 13212" d="M1591.6,6619.729c-.87,1.089-2.073,2.577-2.955,3.744a11.442,11.442,0,0,0-1.362,1.6c.39-.372-.336.481-.6.8.223-.3.212-.31-.052-.046.6-.866,1.536-1.918,2.3-2.85C1589.783,6621.942,1590.62,6620.878,1591.6,6619.729Z" fill-rule="evenodd"/>
    <path id="Path_13213" data-name="Path 13213" d="M1564.668,6651.232c-.2.265-.757.973-1.045,1.292A11.656,11.656,0,0,1,1564.668,6651.232Z" fill-rule="evenodd"/>
    <path id="Path_13214" data-name="Path 13214" d="M1584.909,6627.858c-.39.541-1.06,1.319-1.6,1.988C1583.1,6629.849,1584.407,6628.526,1584.909,6627.858Z" fill-rule="evenodd"/>
    <path id="Path_13215" data-name="Path 13215" d="M1586.528,6626.036a13.343,13.343,0,0,1-1.639,1.952C1585.262,6627.575,1586.119,6626.6,1586.528,6626.036Z" fill-rule="evenodd"/>
    <path id="Path_13216" data-name="Path 13216" d="M1580.552,6633.174c-.359.409-.526.657-.929,1.1C1579.26,6634.5,1580.4,6633.231,1580.552,6633.174Z" fill-rule="evenodd"/>
    <path id="Path_13217" data-name="Path 13217" d="M1560.278,6656.667c-.137.2-.385.491-.624.777A5.071,5.071,0,0,1,1560.278,6656.667Z" fill-rule="evenodd"/>
    <path id="Path_13218" data-name="Path 13218" d="M1580.374,6633.46l.362-.419c.119-.048-.2.278-.336.442Z" fill-rule="evenodd"/>
    <path id="Path_13219" data-name="Path 13219" d="M1457.321,6776.266c-.009.045-.107.166-.105.2l.362-.42c-.242.4-.883,1.14-1.37,1.748-.248.163.517-.7.2-.557A7.8,7.8,0,0,1,1457.321,6776.266Z" fill-rule="evenodd"/>
    <path id="Path_13220" data-name="Path 13220" d="M1549.117,6670.161c-.21.241-.468.558-.594.662C1548.653,6670.683,1549.01,6670.136,1549.117,6670.161Z" fill-rule="evenodd"/>
    <path id="Path_13221" data-name="Path 13221" d="M1549.234,6669.972a5.435,5.435,0,0,1,.581-.673A4.264,4.264,0,0,1,1549.234,6669.972Z" fill-rule="evenodd"/>
    <path id="Path_13222" data-name="Path 13222" d="M1456.986,6777c.042,0-.046.1-.033.117.363-.4.342-.391.724-.838a21.123,21.123,0,0,1-1.653,1.942C1456.145,6777.984,1456.675,6777.4,1456.986,6777Z" fill-rule="evenodd"/>
    <path id="Path_13223" data-name="Path 13223" d="M1458,6775.828l.579-.671C1458.617,6775.228,1458.109,6775.8,1458,6775.828Z" fill-rule="evenodd"/>
    <path id="Path_13224" data-name="Path 13224" d="M1545.865,6674.09c-.345.482-1.137,1.433-1.625,1.964C1544.834,6675.311,1545.273,6674.8,1545.865,6674.09Z" fill-rule="evenodd"/>
    <path id="Path_13225" data-name="Path 13225" d="M1455.92,6778.423c-.235.235-.236.3-.447.493C1455.494,6778.831,1455.848,6778.392,1455.92,6778.423Z" fill-rule="evenodd"/>
    <path id="Path_13226" data-name="Path 13226" d="M1536.828,6684.589a7.092,7.092,0,0,1-.613.79c-.294.353-.792.941-.374.407C1535.971,6685.619,1536.45,6685.051,1536.828,6684.589Z" fill-rule="evenodd"/>
    <path id="Path_13227" data-name="Path 13227" d="M1572.694,6643.081a2.743,2.743,0,0,1-.422.516A2.743,2.743,0,0,1,1572.694,6643.081Z" fill-rule="evenodd"/>
    <path id="Path_13228" data-name="Path 13228" d="M1544.1,6676.374c.312-.468,1.286-1.531.347-.43C1544.292,6676.129,1544.345,6676.1,1544.1,6676.374Z" fill-rule="evenodd"/>
    <path id="Path_13229" data-name="Path 13229" d="M1543.726,6676.783c-.289.425-.913,1.134-1.481,1.8C1542.639,6678.015,1543.128,6677.5,1543.726,6676.783Z" fill-rule="evenodd"/>
    <path id="Path_13230" data-name="Path 13230" d="M1551.829,6667.527c-.331.45-.724.822-1.158,1.342A7.519,7.519,0,0,1,1551.829,6667.527Z" fill-rule="evenodd"/>
    <path id="Path_13231" data-name="Path 13231" d="M1532.254,6690.156c.216-.249.439-.511.474-.469C1532.487,6689.974,1532.311,6690.224,1532.254,6690.156Z" fill-rule="evenodd"/>
    <path id="Path_13232" data-name="Path 13232" d="M1545.661,6674.647a5.673,5.673,0,0,1-.525.716C1544.893,6675.536,1545.495,6674.781,1545.661,6674.647Z" fill-rule="evenodd"/>
    <path id="Path_13233" data-name="Path 13233" d="M1546.314,6673.891a4.214,4.214,0,0,1,.506-.587,3.855,3.855,0,0,1-.48.61C1546.372,6673.853,1546.4,6673.792,1546.314,6673.891Z" fill-rule="evenodd"/>
    <path id="Path_13234" data-name="Path 13234" d="M1544.082,6676.5c-1.406,1.817-2.833,3.383-4.213,5.148a21.869,21.869,0,0,1,2.284-2.86C1542.847,6677.939,1543.373,6677.266,1544.082,6676.5Z" fill-rule="evenodd"/>
    <path id="Path_13235" data-name="Path 13235" d="M1544.95,6675.5a5.187,5.187,0,0,1-.8,1.063c.049-.132.435-.561.02-.13A7.456,7.456,0,0,1,1544.95,6675.5Z" fill-rule="evenodd"/>
    <path id="Path_13236" data-name="Path 13236" d="M1529.831,6693.044c.263-.326.362-.387.593-.66C1530.407,6692.44,1529.8,6693.168,1529.831,6693.044Z" fill-rule="evenodd"/>
    <path id="Path_13237" data-name="Path 13237" d="M1538.882,6682.557a8.05,8.05,0,0,1-.7.86A8.31,8.31,0,0,1,1538.882,6682.557Z" fill-rule="evenodd"/>
    <path id="Path_13238" data-name="Path 13238" d="M1559.241,6658.991c.356-.314-.485.575-.467.621C1558.417,6659.928,1559.257,6659.039,1559.241,6658.991Z" fill-rule="evenodd"/>
    <path id="Path_13239" data-name="Path 13239" d="M1563.381,6654.221a6.072,6.072,0,0,1-.493.6A3.316,3.316,0,0,1,1563.381,6654.221Z" fill-rule="evenodd"/>
    <path id="Path_13240" data-name="Path 13240" d="M1536.447,6685.432c-.236.4-.823.992-1.409,1.712C1535.25,6686.791,1536.113,6685.888,1536.447,6685.432Z" fill-rule="evenodd"/>
    <path id="Path_13241" data-name="Path 13241" d="M1534.807,6687.385a7.087,7.087,0,0,1-.624.777A9.044,9.044,0,0,1,1534.807,6687.385Z" fill-rule="evenodd"/>
    <path id="Path_13242" data-name="Path 13242" d="M1556.786,6662c-.167.089.308-.366.25-.369.553-.614,1.149-1.372.664-.744C1557.544,6661.086,1557.159,6661.555,1556.786,6662Z" fill-rule="evenodd"/>
    <path id="Path_13243" data-name="Path 13243" d="M1532.735,6689.84c-.012.1-.688.976-.783.934C1532.244,6690.41,1532.337,6690.316,1532.735,6689.84Z" fill-rule="evenodd"/>
    <path id="Path_13244" data-name="Path 13244" d="M1538.673,6682.959a10.185,10.185,0,0,1-.843,1.03C1537.771,6684.023,1538.391,6683.289,1538.673,6682.959Z" fill-rule="evenodd"/>
    <path id="Path_13245" data-name="Path 13245" d="M1555.654,6663.362c-1.825,2.175-3.328,4.029-5.18,6.215.827-1.1,1.959-2.375,2.962-3.592A27.124,27.124,0,0,1,1555.654,6663.362Z" fill-rule="evenodd"/>
    <path id="Path_13246" data-name="Path 13246" d="M1456.749,6777.97c.193-.2.406-.435.666-.744C1457.442,6777.275,1456.727,6778.115,1456.749,6777.97Z" fill-rule="evenodd"/>
    <path id="Path_13247" data-name="Path 13247" d="M1558.695,6659.837a9.618,9.618,0,0,1-.771.947C1558.109,6660.529,1558.4,6660.185,1558.695,6659.837Z" fill-rule="evenodd"/>
    <path id="Path_13248" data-name="Path 13248" d="M1557.793,6660.963c-.519.628-1.1,1.309-1.554,1.88A14.593,14.593,0,0,1,1557.793,6660.963Z" fill-rule="evenodd"/>
    <path id="Path_13249" data-name="Path 13249" d="M1531.069,6692.063c-.771.84-1.928,2.321-3,3.557A31.235,31.235,0,0,1,1531.069,6692.063Z" fill-rule="evenodd"/>
    <path id="Path_13250" data-name="Path 13250" d="M1527.081,6696.819c-.716.809-1.178,1.4-1.783,2.12A18.279,18.279,0,0,1,1527.081,6696.819Z" fill-rule="evenodd"/>
    <path id="Path_13251" data-name="Path 13251" d="M1530.367,6693.065c-.175.182-.542.676-.534.565C1529.927,6693.481,1530.38,6692.941,1530.367,6693.065Z" fill-rule="evenodd"/>
    <path id="Path_13252" data-name="Path 13252" d="M1545.558,6675.435a10.086,10.086,0,0,1-.842,1.029C1544.813,6676.234,1545.291,6675.815,1545.558,6675.435Z" fill-rule="evenodd"/>
    <path id="Path_13253" data-name="Path 13253" d="M1524.021,6700.471c-1.6,1.874-2.534,3.138-3.963,4.779C1520.871,6704.166,1522.9,6701.711,1524.021,6700.471Z" fill-rule="evenodd"/>
    <path id="Path_13254" data-name="Path 13254" d="M1543.181,6678.216a.869.869,0,0,1-.164.3c-.274.323-.037.021-.112.051-1.23,1.447-1.884,2.408-3.311,4.022a34.539,34.539,0,0,1,2.226-2.765C1542.289,6679.262,1542.779,6678.708,1543.181,6678.216Z" fill-rule="evenodd"/>
    <path id="Path_13255" data-name="Path 13255" d="M1457.435,6777.684c.25-.211-.287.437-.44.643C1456.985,6778.245,1457.366,6777.832,1457.435,6777.684Z" fill-rule="evenodd"/>
    <path id="Path_13256" data-name="Path 13256" d="M1542.518,6679.252c.231-.34.662-.821.768-.945.692-.807,1.025-1.193.448-.492C1543.491,6678.111,1543.017,6678.689,1542.518,6679.252Z" fill-rule="evenodd"/>
    <path id="Path_13257" data-name="Path 13257" d="M1536.336,6686.361c.319-.374-.023.1-.19.274-1.321,1.729-3.608,4.233-4.891,5.881-1.839,2.009-3.288,4.014-4.856,5.761.619-.907,1.956-2.425,3.165-3.854C1531.791,6691.79,1534.22,6688.886,1536.336,6686.361Z" fill-rule="evenodd"/>
    <path id="Path_13258" data-name="Path 13258" d="M1539.865,6682.378c.308-.328.448-.53.869-1.007A4.346,4.346,0,0,1,1539.865,6682.378Z" fill-rule="evenodd"/>
    <path id="Path_13259" data-name="Path 13259" d="M1539.805,6682.475c-.238.337-.693.858-1.131,1.364A16.417,16.417,0,0,1,1539.805,6682.475Z" fill-rule="evenodd"/>
    <path id="Path_13260" data-name="Path 13260" d="M1538.515,6684c-.33.49-.866,1.05-1.336,1.628C1537.316,6685.343,1538.237,6684.4,1538.515,6684Z" fill-rule="evenodd"/>
    <path id="Path_13261" data-name="Path 13261" d="M1536.31,6686.632c-.426.578-1.193,1.447-1.842,2.214C1534.787,6688.4,1535.576,6687.493,1536.31,6686.632Z" fill-rule="evenodd"/>
    <path id="Path_13262" data-name="Path 13262" d="M1555.511,6664.409c.227-.279.345-.382.52-.576-.019.113.1,0-.223.393C1556.046,6663.838,1555.552,6664.444,1555.511,6664.409Z" fill-rule="evenodd"/>
    <path id="Path_13263" data-name="Path 13263" d="M1526.082,6698.59a17.22,17.22,0,0,1-1.119,1.378A14.96,14.96,0,0,1,1526.082,6698.59Z" fill-rule="evenodd"/>
    <path id="Path_13264" data-name="Path 13264" d="M1524.384,6700.639c-.476.687-1.351,1.716-2.322,2.824-.852.972-1.954,2.542-2.851,3.544-.217.242-.482.555-.573.531C1520.524,6705.251,1522.452,6702.912,1524.384,6700.639Z" fill-rule="evenodd"/>
    <path id="Path_13265" data-name="Path 13265" d="M1524.443,6700.544l.362-.42c.119-.049-.2.278-.336.443Z" fill-rule="evenodd"/>
    <path id="Path_13266" data-name="Path 13266" d="M1531.54,6692.32c-.7.9-1.674,2.02-2.554,3.066C1529.418,6694.708,1530.634,6693.433,1531.54,6692.32Z" fill-rule="evenodd"/>
    <path id="Path_13267" data-name="Path 13267" d="M1551.792,6668.958a4.46,4.46,0,0,0-.335.443c-.18.2-.06-.02.032-.118-.014-.01-.1.094-.158.156C1551.341,6669.327,1551.789,6668.867,1551.792,6668.958Z" fill-rule="evenodd"/>
    <path id="Path_13268" data-name="Path 13268" d="M1527.958,6696.55c.316-.311.623-.713.941-1.09A6.307,6.307,0,0,1,1527.958,6696.55Z" fill-rule="evenodd"/>
    <path id="Path_13269" data-name="Path 13269" d="M1527.766,6696.826c-.633.779-1.321,1.667-2.059,2.466C1526.032,6698.749,1527.195,6697.513,1527.766,6696.826Z" fill-rule="evenodd"/>
    <path id="Path_13270" data-name="Path 13270" d="M1518.493,6707.705a44.759,44.759,0,0,1-3.3,4.175C1515.965,6710.765,1517.279,6709.193,1518.493,6707.705Z" fill-rule="evenodd"/>
    <path id="Path_13271" data-name="Path 13271" d="M1458.28,6777.533a2.8,2.8,0,0,1-.453.632A4.3,4.3,0,0,1,1458.28,6777.533Z" fill-rule="evenodd"/>
    <path id="Path_13272" data-name="Path 13272" d="M1458.563,6777.338a9.676,9.676,0,0,1-.862,1.16C1457.881,6778.2,1458.284,6777.717,1458.563,6777.338Z" fill-rule="evenodd"/>
    <path id="Path_13273" data-name="Path 13273" d="M1513.728,6713.547c-.127.207.047,0,.244-.229a3.533,3.533,0,0,1-.467.621c.058-.191-.042,0-.316.313A3.905,3.905,0,0,1,1513.728,6713.547Z" fill-rule="evenodd"/>
    <path id="Path_13274" data-name="Path 13274" d="M1514.683,6712.468c-.147.207-.356.467-.54.706C1514.123,6713.107,1514.435,6712.761,1514.683,6712.468Z" fill-rule="evenodd"/>
    <path id="Path_13275" data-name="Path 13275" d="M1499.058,6730.6a6.087,6.087,0,0,1-.554.7A4.907,4.907,0,0,1,1499.058,6730.6Z" fill-rule="evenodd"/>
    <path id="Path_13276" data-name="Path 13276" d="M1513.031,6714.409c-.474.659-.912,1.28-1.836,2.368A15.848,15.848,0,0,1,1513.031,6714.409Z" fill-rule="evenodd"/>
    <path id="Path_13277" data-name="Path 13277" d="M1462.374,6773.162c.114-.118.2-.194.317-.313-.03.082-.13.154-.217.252-.145.168-.057.138-.264.359C1462.2,6773.412,1462.381,6773.209,1462.374,6773.162Z" fill-rule="evenodd"/>
    <path id="Path_13278" data-name="Path 13278" d="M1510.208,6717.974c-.525.6-.775,1.046-1.264,1.544A5.992,5.992,0,0,1,1510.208,6717.974Z" fill-rule="evenodd"/>
    <path id="Path_13279" data-name="Path 13279" d="M1512.945,6714.775a5.827,5.827,0,0,1-.611.789A4.256,4.256,0,0,1,1512.945,6714.775Z" fill-rule="evenodd"/>
    <path id="Path_13280" data-name="Path 13280" d="M1508.759,6719.653c.108.014-.239.413-.584.811C1508.16,6720.37,1508.4,6720.063,1508.759,6719.653Z" fill-rule="evenodd"/>
    <path id="Path_13281" data-name="Path 13281" d="M1511.755,6716.235a6.677,6.677,0,0,1-.757.958C1511.062,6717.033,1511.57,6716.5,1511.755,6716.235Z" fill-rule="evenodd"/>
    <path id="Path_13282" data-name="Path 13282" d="M1523.464,6702.774a12.612,12.612,0,0,1-.842,1.028A5.262,5.262,0,0,1,1523.464,6702.774Z" fill-rule="evenodd"/>
    <path id="Path_13283" data-name="Path 13283" d="M1510.709,6717.528c-.4.546-1.124,1.469-1.586,2C1509.222,6719.241,1510.111,6718.324,1510.709,6717.528Z" fill-rule="evenodd"/>
    <path id="Path_13284" data-name="Path 13284" d="M1499.665,6730.832l.289-.334c.048.019-.138.237-.323.453C1499.66,6730.9,1499.685,6730.845,1499.665,6730.832Z" fill-rule="evenodd"/>
    <path id="Path_13285" data-name="Path 13285" d="M1494.788,6736.724c-1.151,1.474-2.668,3.373-4.028,5.016C1492,6740.157,1493.224,6738.584,1494.788,6736.724Z" fill-rule="evenodd"/>
    <path id="Path_13286" data-name="Path 13286" d="M1491.22,6740.966a8.433,8.433,0,0,1-.611.788A3.891,3.891,0,0,1,1491.22,6740.966Z" fill-rule="evenodd"/>
    <path id="Path_13287" data-name="Path 13287" d="M1495.676,6735.882a15.2,15.2,0,0,1-1.237,1.567A11.512,11.512,0,0,1,1495.676,6735.882Z" fill-rule="evenodd"/>
    <path id="Path_13288" data-name="Path 13288" d="M1456.928,6781.05c.2-.2-.1.286-.236.38C1456.664,6781.4,1456.955,6781.088,1456.928,6781.05Z" fill-rule="evenodd"/>
    <path id="Path_13289" data-name="Path 13289" d="M1494.953,6737.014c-.6.767-1.226,1.55-1.948,2.418C1493.363,6738.872,1494.3,6737.82,1494.953,6737.014Z" fill-rule="evenodd"/>
    <path id="Path_13290" data-name="Path 13290" d="M1491.057,6741.555c-.127.254-.327.432.006.154-.368.462-.382.353-.75.815C1490.271,6742.537,1490.848,6741.831,1491.057,6741.555Z" fill-rule="evenodd"/>
    <path id="Path_13291" data-name="Path 13291" d="M1484.955,6748.733c-.131.225-.544.687-.743.968A6.885,6.885,0,0,1,1484.955,6748.733Z" fill-rule="evenodd"/>
    <path id="Path_13292" data-name="Path 13292" d="M1492.86,6739.6c-.6.791-1.52,1.964-2.138,2.692C1490.952,6741.8,1492.245,6740.414,1492.86,6739.6Z" fill-rule="evenodd"/>
    <path id="Path_13293" data-name="Path 13293" d="M1481.3,6753.34c.171-.2.238-.229.448-.492.077-.005-.322.393-.323.454C1481.326,6753.411,1481.335,6753.342,1481.3,6753.34Z" fill-rule="evenodd"/>
    <path id="Path_13294" data-name="Path 13294" d="M1494.624,6737.9a7.394,7.394,0,0,1-.584.812A4.285,4.285,0,0,1,1494.624,6737.9Z" fill-rule="evenodd"/>
    <path id="Path_13295" data-name="Path 13295" d="M1493.592,6739.206a4.439,4.439,0,0,1-.454.633A3.315,3.315,0,0,1,1493.592,6739.206Z" fill-rule="evenodd"/>
    <path id="Path_13296" data-name="Path 13296" d="M1480.152,6754.833c.264-.326.241-.106-.008.143C1480.275,6754.768,1480.039,6755.011,1480.152,6754.833Z" fill-rule="evenodd"/>
    <path id="Path_13297" data-name="Path 13297" d="M1455.818,6783.165c-.211.291.02.209-.4.679A2.362,2.362,0,0,1,1455.818,6783.165Z" fill-rule="evenodd"/>
    <path id="Path_13298" data-name="Path 13298" d="M1491.236,6742.15a3.381,3.381,0,0,1-.7.861C1490.732,6742.831,1490.954,6742.476,1491.236,6742.15Z" fill-rule="evenodd"/>
    <path id="Path_13299" data-name="Path 13299" d="M1484.108,6750.489a9.186,9.186,0,0,1-.626.779A7.15,7.15,0,0,1,1484.108,6750.489Z" fill-rule="evenodd"/>
    <path id="Path_13300" data-name="Path 13300" d="M1486.327,6748.159c-.373.671-1.618,2.037-2.548,3.219C1484.461,6750.447,1485.349,6749.341,1486.327,6748.159Z" fill-rule="evenodd"/>
    <path id="Path_13301" data-name="Path 13301" d="M1475.492,6760.768a8.417,8.417,0,0,1-.54.705C1474.847,6761.48,1475.252,6761.053,1475.492,6760.768Z" fill-rule="evenodd"/>
    <path id="Path_13302" data-name="Path 13302" d="M1482.865,6752.785a3.031,3.031,0,0,1-.408.526C1482.34,6753.35,1482.723,6752.966,1482.865,6752.785Z" fill-rule="evenodd"/>
    <path id="Path_13303" data-name="Path 13303" d="M1458.228,6781.441a4.925,4.925,0,0,1-1.106,1.388C1457.689,6782.2,1457.662,6782.07,1458.228,6781.441Z" fill-rule="evenodd"/>
    <path id="Path_13304" data-name="Path 13304" d="M1474.039,6763.467c.206-.173-.015.207-.012.281C1473.668,6764.108,1474.041,6763.548,1474.039,6763.467Z" fill-rule="evenodd"/>
    <path id="Path_13305" data-name="Path 13305" d="M1469.183,6769.521c-.354.5-.835,1.114-1.271,1.687C1468.182,6770.776,1468.7,6770.137,1469.183,6769.521Z" fill-rule="evenodd"/>
    <path id="Path_13306" data-name="Path 13306" d="M1461.871,6778.582c.271-.214-.188.384-.414.667C1461.443,6779.156,1461.78,6778.764,1461.871,6778.582Z" fill-rule="evenodd"/>
    <path id="Path_13307" data-name="Path 13307" d="M1465,6774.986a4.683,4.683,0,0,1-.467.621A3.819,3.819,0,0,1,1465,6774.986Z" fill-rule="evenodd"/>
    <path id="Path_13308" data-name="Path 13308" d="M1468.361,6771.3a25.522,25.522,0,0,1-2.052,2.619A27.28,27.28,0,0,1,1468.361,6771.3Z" fill-rule="evenodd"/>
    <path id="Path_13309" data-name="Path 13309" d="M1465.241,6775.05c.305-.359.426-.422.751-.816A3.847,3.847,0,0,1,1465.241,6775.05Z" fill-rule="evenodd"/>
    <path id="Path_13310" data-name="Path 13310" d="M1585.166,6620.907c.173-.242.364-.41.553-.694-.724.749-.988,1.3-1.745,2.156a4.977,4.977,0,0,1,.684-.874c-.526.551-1.443,1.672-1.638,1.951-3.087,3.794-6.973,8.178-10.024,11.991.033-.062.064-.122-.027-.022-1.55,1.84-2.445,2.958-3.9,4.682-.293.379.041.1-.442.645,1.331-1.542,3.036-3.531,4.266-5.1.151.032,1.161-1.528,1.23-1.426.235-.259.123-.224.409-.526a11.973,11.973,0,0,0,1.276-1.534c.985-1.19,2.152-2.484,2.751-3.187-.233.386-.878,1.005-.96,1.219a1.236,1.236,0,0,0-.4.385c-.233.3.2-.23.112-.05a3.423,3.423,0,0,1-.606.649c-.682.92-1.753,2.122-2.165,2.669a5.914,5.914,0,0,0,.519-.575c-.157.252-.793.959-.914,1.113-.139.142-.035-.008-.039-.034-.115.145-.738.851-.6.8-.413.486-.528.64-.987,1.2,2.71-3.075,5.031-5.918,7.912-9.276-1.629,2.058-3.761,4.54-5.575,6.754.039.014.314-.352.447-.491-1.251,1.526-3.542,4.148-4.777,5.83-1.367,1.576-3.068,3.747-4.009,4.885-.541.655-1.015,1.16-1.42,1.7-.061.08-.162.248-.048.108-.117.144-.392.428-.52.576-.7.815-1.152,1.557-1.907,2.451a16.487,16.487,0,0,0,1.257-1.4c.75-.876,1.8-2.13,2.567-3.055a12.1,12.1,0,0,1,.856-1.018c.429-.539,2.813-3.344,3.7-4.418-.993,1.3-2.226,2.687-3.468,4.179.237-.214.55-.624.679-.734-.146.222-.426.557-.685.874.868-.945,2.028-2.379,2.824-3.272-1.108,1.372-2.411,2.988-3.687,4.432-1.074,1.421-2.71,3.319-4.153,5.052.4-.405.983-1.157,1.3-1.51-.623.848-1.463,1.759-2.179,2.659a9.357,9.357,0,0,1,.757-.958c-.667.732-2.011,2.351-2.349,2.8-.712.932-1.731,1.941-2.092,2.585,1.385-1.694,3.187-3.762,4.639-5.51.018.151-.435.592-.815,1.051-.673.813-1.491,1.832-2.252,2.743a26.128,26.128,0,0,0-1.875,2.333c3.767-4.413,7.332-8.775,10.893-13,.145-.115.32-.31.125-.038.493-.534.058-.215.5-.739-.251.437.677-.739.968-1.069-.262.381-.8.978-1.046,1.293,2.755-3.135,5.576-6.614,8.918-10.6.018.037-.154.235-.335.442-.1.123.014.063-.1.2-2.586,3.118-5.6,6.66-8.049,9.594.1-.078.115-.066.053.045.269-.278.694-.807.94-1.09-.872,1.134-2.293,2.822-3.468,4.18.043-.1.586-.7.177-.285a5.168,5.168,0,0,1,.724-.84c.1-.291,1.159-1.4,1.513-1.913-2.358,2.741-4.582,5.443-6.7,7.976a10.272,10.272,0,0,0-.875,1.148c1.757-2.152,3.693-4.427,5.086-6-.785,1-2.045,2.41-2.829,3.411,1.934-2.161,3.66-4.317,5.3-6.253,1.862-2.191,3.624-4.284,5.528-6.646-.6.634-1.668,2.075-2.185,2.506-.018.065-.017.127-.275.345-.007-.123.506-.6.65-.754,1.15-1.564,2.649-3.089,4.134-4.923-.278.382-.778.98-1.133,1.365a14.016,14.016,0,0,0,1.39-1.583c1.365-1.626,3-3.525,3.948-4.79.048-.047.312-.294.289-.335.259-.122-.515.726-.861,1.159-.571.714-1.228,1.608-2.08,2.6.264-.244.89-1.077,1.391-1.584.244-.26.058-.155.163-.3,1.212-1.434,2.2-2.557,3.376-3.966-.792,1.162-2.236,2.746-3.383,4.108-.287.342-.55.694-.841,1.028-.272.312-.651.67-.909.973-.307.361-.343.494-.658.9-.7.891-2.218,2.644-2.81,3.282-2.424,3.038-5.244,6.257-7.5,9.042a13.483,13.483,0,0,0-1.3,1.511c.268-.222.71-.792.848-.876.1-.026-.394.573-.466.62a12.688,12.688,0,0,1-1.474,1.948c.757-.719,1.709-1.959,2.607-3.02,1.367-1.616,2.828-3.328,4-4.743.094-.129-.064.04.046-.107,1.123-1.5,3.377-3.937,4.773-5.691a10.188,10.188,0,0,1-.844,1.032c.887-.963,1.8-2.14,2.725-3.212-.474.489-.671.8-1.23,1.426-.316.366-.035-.006.131-.179a17.02,17.02,0,0,1,1.318-1.5c.232-.3-.207.231-.113.05.3-.328.4-.491.639-.767.061-.013-.079.143-.192.276.267-.228.519-.634.869-1.007.2-.218.112-.186.178-.287,2.234-2.681,4.581-5.521,6.957-8.194.1-.124-.015-.063.1-.2.275-.323.036-.02.113-.05.75-.963,2.317-2.6,2.7-3.233.144-.121.436-.483.664-.743-.26.39-.744.968-1.163,1.483-.663.813-1.478,1.78-2.205,2.634-2.411,2.836-4.773,5.692-7.121,8.493.015.095.559-.661.559-.541-.245.247-.37.482-.7.861a18.568,18.568,0,0,0,1.382-1.736c.01.067-.315.418-.381.549,2.241-2.674,5.133-6.191,7.884-9.3.312-.386.567-.855,1.21-1.59.174-.137.437-.419.527-.423-.331.426-.222.249-.4.385-.213.307-.845,1.131-1.369,1.746-.151.178-.323.316-.461.481-.369.44-.639.835-.96,1.219-.3.364-.76.819-.955,1.08-.062.084.057.014-.033.119-.232.271.095-.165-.111.049-.61.631-1.693,2.094-2.225,2.764-.113.12.012-.048-.039-.034-3.954,4.728-8.3,9.967-12.506,14.972-.2.243-.275.384-.467.622-2.873,3.337-5.626,6.72-8.129,9.82.052-.054.091.051-.25.37.693-.7,1.938-2.292,2.535-2.938.29-.253-.467.655-.625.778-.505.692-1.66,1.933-2.021,2.5,2.984-3.359,6.254-7.413,9.5-11.275a5.121,5.121,0,0,1-.48.611c.341-.327.745-.9,1.23-1.426-.481.671-1.528,1.81-1.974,2.394,1.049-1.134,2.185-2.561,2.942-3.461-.038-.016-.313.35-.447.491.629-.867,2.11-2.566,2.9-3.5-.544.7-1.468,1.839-2.211,2.776,1.373-1.558,3.13-3.7,3.792-4.341-6.1,7.3-12.3,14.829-18.316,22.107-.844,1.021-1.716,2.076-2.639,3.138-1.236,1.422-2.621,3.214-4.1,4.958-2.157,2.552-4.418,5.386-6.344,7.7a30.62,30.62,0,0,0-2.079,2.6c2.79-3.225,5.6-6.734,8.154-9.8,4.48-5.364,8.781-10.621,14-16.755,1.453-1.709,3.114-3.717,4.4-5.283a14.953,14.953,0,0,1-1.322,1.639c-2.031,2.462-4.484,5.446-6.563,7.952.4-.333.754-.954,1.027-1.163-.106.21-.653.794-.9,1.125,2.8-3.189,6.03-7.165,9.281-11.021.093-.059-.406.487-.119.19-2.326,2.752-5.136,6.338-7.884,9.591-.683.808-1.169,1.4-1.671,2.07a4.266,4.266,0,0,0,.506-.587,4.312,4.312,0,0,1-.658.9c-.206.176.078-.163.079-.226a3.385,3.385,0,0,0-.474.763,3.687,3.687,0,0,1-.414.373c-1.068,1.354-2.21,2.61-2.949,3.6-.09.067-.113.142-.243.228-5.333,6.543-11.182,13.506-16.862,20.287a9.538,9.538,0,0,0-1.205,1.449c-1.013,1.112-2.687,3.119-3.555,4.253.224-.346.039-.089-.184.134.225-.3.549-.69.915-1.113-1.453,1.619-2.7,3.247-3.514,4.285-.043-.031.351-.432.308-.464-.839,1-1.584,1.927-2.091,2.584-.063.016.077-.141.19-.274-.451.428-.242.365-.685.874-.049.011.032-.087.119-.191-.714.737-.95,1.182-1.481,1.8-.363.42-1.25,1.357-1.856,2.2-.673.662-1.337,1.638-1.739,2.015-.007.11.254-.212.3-.184.231-.341.317-.418.684-.874.284-.334,0,.045.185-.133,1.607-1.865,2.995-3.572,4.522-5.321-5.629,6.734-10.233,12.3-15.415,18.61-.2.171-.052-.07-.1-.091-3.36,4.246-7.651,9.052-10.439,12.657a7.851,7.851,0,0,0-1.164,1.483c-.247.2-.544.685-.678.732-1.361,1.733-2.666,3.314-4.344,5.328.026-.1.364-.459.468-.623-3.026,3.527-4.43,5.875-7.4,9.427.452-.454.011.033-.4.538-1.172,1.456-3.582,4.578-5.029,6.2a5.05,5.05,0,0,1,.6-.8c-.877.9-1.475,1.936-2.329,2.966.1-.037.165-.226.363-.42-1.233,1.617-2.73,3.456-4.135,5.218a9.262,9.262,0,0,0,1.12-1.377c3.956-4.629,7.228-9.047,11.121-13.823a31.808,31.808,0,0,1,2.035-2.491c.047.028-.18.288-.395.538.9-.965,2-2.478,2.594-3.033.267-.3-.11.019.322-.453-.249.412.539-.648.869-1.006-.4.56-1.116,1.381-1.587,2-.061.013.079-.143.191-.276-1.22,1.47-2.573,3.249-3.955,4.931-.161.136.019-.07-.066-.057-.578.753-1.394,1.707-1.936,2.43.388-.456,1.253-1.5,1.541-1.892-.238.4-1.207,1.514-1.849,2.357-.005-.05.11-.2.164-.3-1.216,1.494-2.045,2.526-3.2,3.973.307-.276.472-.625.927-1.1a6.706,6.706,0,0,1-1.072,1.269c.015.031.117-.079.125-.038-1.013,1.181-1.949,2.509-3.053,3.8-1.894,2.223-4.867,6.041-6.963,8.629-.966,1.194-1.911,2.381-2.62,3.3a4.493,4.493,0,0,0-.676,1.024c.206-.195.335-.495.7-.86-.065.107-.181.258-.077.223.35-.425.521-.7.888-1.135-.216.3-.383.565-.732.98.266-.306,1.282-1.388,1.166-1.484a4.834,4.834,0,0,0,.665-.744,2.614,2.614,0,0,1-.467.621c.059-.041.18-.18.185-.133,1.99-2.394,4.132-5.11,6.219-7.662-.338.476-.533.829-1.04,1.446-.179.169.058-.133-.112.05-1.322,1.508-1.884,2.478-2.9,3.649-.114.12.011-.047-.04-.035-.485.6-1.007,1.23-1.383,1.736-.138.222.176-.117.165,0-1.9,2.406-3.9,4.9-5.619,7.152,0,.109.278-.23.25-.076-.507.58-.547.765-.934,1.243.007.1-.09.307.073.209,2.63-3.175,4.16-5.421,6.639-8.468.028.01.015.084.126-.039-1.6,2.034-3,3.874-4.494,5.929-.447.615-1.041,1.43-1.58,2.151a35.235,35.235,0,0,1-2.329,2.967c-.4.286-.457.038-1.193.874,0-.085-.11,0-.164,0a5.888,5.888,0,0,1-1.153,1.2,22.481,22.481,0,0,1-1.592,2.14,21.508,21.508,0,0,1-1.691,2.2c.429-.774,1.627-2.277,2.56-3.5.955-1.253,1.891-2.491,2.743-3.633a.892.892,0,0,1,.271-.207c.144-.19.057-.184.137-.319-3.241,4.1-6.143,7.87-9.095,11.768a5.046,5.046,0,0,1,.837-1.184c-.228.109-.143,0,0-.293-1.057.951-2.276,2.783-3.415,3.931-.632.852-1.157,1.613-2.1,2.727a7.079,7.079,0,0,0,.5-.74c-.568.544-1.127,1.166-1.6,1.7a37.219,37.219,0,0,0,2.317-2.979c-.246.252-.358.447-.712.851a23,23,0,0,1,1.56-2.021,1.313,1.313,0,0,0-.356.279c-.3.362-.3.462-.585.811-.013-.023-.025-.046-.113.051-.27.275.3-.5.086-.367.409-.617,1.028-1.412,1.322-1.933a3.355,3.355,0,0,0-.625.778c-.036.047-.2.189-.3.324-.972,1.258-2.065,2.77-3.166,4.149-.21.155.461-.631.572-.823-.485.543-.981,1.036-1.4,1.571.443-.631.583-1.006,1.177-1.765-.141.126-.331.4-.591.658.241-.293.156-.312.182-.425.963-1.256,1.349-2.029,2.362-3.377-.041-.106-.5.386-.434.208-.43.529-.667.685-.955,1.08.145-.209.109-.182.007-.142,1.542-1.93,2.917-3.719,3.955-5.224-1.659,1.768-2.413,3.137-4.2,5.16.183-.4.882-1.107,1.111-1.527a28.54,28.54,0,0,0,1.909-2.453c.023-.127-.384.387-.21.111.183-.223-.015-.1.381-.549-.114-.029-.752.766-.882,1-.242.2.256-.411.441-.644.013-.1-.164.111-.152.015.17-.219.248-.36.468-.622-.028.091-.324.411-.31.466.045-.025.373-.442.1-.061.382-.392.575-.818,1.093-1.4-.155.274-.61.8-.777,1.087.11-.053.3-.36.435-.5.016.031-.231.286-.178.286.3-.332.2-.321.3-.477.3-.411.582-.619.967-1.067-.141.224-.646.758-.927,1.1.389-.372,1.514-1.714,1.2-1.307a5.78,5.78,0,0,0,.745-.969,5.215,5.215,0,0,0,.8-1.064c-.092.009-.213.064-.553.4.072-.168.135-.347-.211.11a4.6,4.6,0,0,0,.27-.5,5.276,5.276,0,0,0-.567.683c-.086-.018.283-.421.441-.645a31.456,31.456,0,0,0-2.125,2.7c.8-1.284,2.983-3.942,4.25-5.7-.83.936-1.517,1.948-2.257,2.883-.056-.065.454-.611.487-.752-1.256,1.557-2.2,2.721-3.233,4.094.017-.091.3-.408.3-.478-.875.992-1.721,2.075-2.468,2.993.24-.414.962-1.237,1.256-1.7-.474.47-.579.821-1.178,1.472.242-.431.936-1.245,1.059-1.575a1.445,1.445,0,0,0-.23.241c-.071-.009.292-.383.4-.538-.038-.015-.313.351-.448.492,1.1-1.355,2.368-3.039,3.264-4.21.241-.307.11-.174.164-.3.2-.149,1.094-1.329.849-1.17-1.09,1.271-1.81,2.313-2.652,3.42.032-.067.884-1.147.539-1-.353.378-.433.5-.954,1.079-.042-.055.24-.384.269-.5-.54.63-1.042,1.2-1.415,1.559.2-.338-.086.046-.166.006.658-.732,1.171-1.422,1.436-1.691a25.39,25.39,0,0,0-2.035,2.2c0-.153-.571.332-.324-.133a4.261,4.261,0,0,0,.718-.992c-.174.085-.673.569-.39.1-.043-.093-.53.528-.612.5.409-.554,1.126-1.239,1.35-1.618.2-.264.157-.122.2-.121,1.359-1.55,2.32-2.8,3.529-4.277-.134.107-.345.338-.489.461a15.778,15.778,0,0,1,1.159-1.343c1.989-2.551,4.088-5.256,6.232-7.943,1.17-1.467,1.852-2.468,3.2-4.115,2.463-3,4.965-6.207,7.642-9.363,2.02-2.381,4.495-5.566,6.844-8.438.857-1.048,1.682-2.085,2.5-3.111-.032.117-.507.61-.44.644.677-.845,2.466-2.826,2.961-3.592-.22.174-.252.378-.552.694.171-.356.972-1.246,1.342-1.769-.511.548.676-.87,1.093-1.4,1.552-1.978,3.786-4.653,5.9-7.207,2.535-3.066,5.053-6.256,7.55-9.149-.467.74-1.973,2.435-2.217,2.916-.186.217-.1.095-.1.063-.693.927-1.482,1.853-2.427,3.026.867-.917,1.678-2.076,2.828-3.411.147-.145-.03-.118.118-.19.227-.317,0,.011.16-.159.955-1.045,1.494-1.841,2.224-2.764,1.974-2.493,4.375-5.294,6.18-7.7-.538.586-1.338,1.7-1.989,2.385.535-.667,1.056-1.433,1.745-2.155,1.986-2.711,4.5-5.613,6.989-8.607,2.609-3.137,5.192-6.382,7.957-9.675,2.668-3.176,5.313-6.337,8.049-9.594,3.822-4.549,7.515-8.925,11.182-13.332,1.39-1.669,3.061-3.6,4.411-5.271,1.294-1.6,2.431-3.132,3.817-4.61.3-.324.6-.72.927-1.1,4.883-5.787,10.557-12.571,15.659-18.547.007.078.365-.412.343-.29-5.349,6.443-10.77,12.835-16.131,19.307,3.691-4.338,9.764-11.552,13.622-16.053,1.447-1.688,2.777-3.379,3.694-4.28.2-.206.272-.4.3-.325l-.219.253c1.913-2.3,4.274-5.248,6.583-7.787.108-.136-.087.053.046-.108a24.157,24.157,0,0,0,1.757-2.143c1.432-1.652,3.346-3.9,4.766-5.548a.8.8,0,0,1,.27-.207c.284-.3.173-.267.408-.526-.036-.008-.254.277-.317.313.694-.922,1.908-2.218,2.442-3.016a5.806,5.806,0,0,0-.521.576c.269-.38.878-1.084,1.206-1.45a6.92,6.92,0,0,1-.527.718c.859-.939,2.045-2.421,3.3-3.882-.362.311-1.2,1.384-1.894,2.169.035-.151.723-.854.9-1.124a10.21,10.21,0,0,0-1.014,1.174c-.648.755-1.387,1.52-1.928,2.288-.408.578-1.372,1.668-2.191,2.646,0-.116.534-.678.656-.894a27.094,27.094,0,0,0-2.072,2.455c-.261.272.4-.6.388-.691,4.849-5.679,10.21-11.926,14.862-17.329.221-.279.185-.144.329-.3.654-.792,1.61-1.843,2.461-2.852.009.053-.335.4-.237.382-1.654,1.92-3.375,3.9-4.909,5.715.431-.372.891-.942,1.468-1.513-.349.534-.884,1.09-1.381,1.734.684-.763,1.272-1.455,2.1-2.433a18.07,18.07,0,0,1-1.224,1.578c-1.7,2.043-3.7,4.267-5.391,6.328-.032-.113.462-.531.526-.717-1.023,1.13-1.2,1.635-2.455,3-.088.029.118-.19.093-.214-1.505,1.791-2.364,2.938-3.975,4.767-.033.016,0-.058.046-.107-.64.658-1.9,2.521-2.785,3.306A15.115,15.115,0,0,1,1585.166,6620.907Zm11.53-14.056c.653-.744.29-.383-.158.156-1.324,1.564-3,3.406-3.581,4.231C1594.595,6609.279,1595.182,6608.723,1596.7,6606.851Zm.5-.446a7.259,7.259,0,0,0,.685-.874A5.912,5.912,0,0,0,1597.2,6606.4Zm-3.212,3.963c.723-.9,2.235-2.558,3-3.559C1595.808,6608.138,1594.826,6609.275,1593.984,6610.368Zm-13.347,15.707a24,24,0,0,0,1.914-2.3C1581.778,6624.7,1581.311,6625.236,1580.637,6626.075Zm-25.071,29.453a20.236,20.236,0,0,0,1.349-1.617C1556.445,6654.452,1555.656,6655.383,1555.566,6655.528Zm-24.708,29.62c.352-.313,1.2-1.459.889-1.137C1531.58,6684.28,1530.817,6685.054,1530.858,6685.148Zm27.963-31.5c2.9-3.521,5.754-6.872,8.649-10.4C1564.551,6646.752,1561.313,6650.518,1558.821,6653.653Zm6.794-7.312c.881-1.048,2.147-2.514,2.8-3.435C1567.477,6644.056,1566.4,6645.326,1565.615,6646.341Zm-22,26.243a17.646,17.646,0,0,0,1.19-1.459A12.207,12.207,0,0,0,1543.614,6672.584Zm34.214-39.272c.238-.285.645-.712.539-.706A4.257,4.257,0,0,0,1577.828,6633.312Zm-13.6,15.784c.258-.346.858-.982.973-1.207A14.6,14.6,0,0,0,1564.229,6649.1Zm9.757-10.318a3.794,3.794,0,0,0,.48-.609C1574.263,6638.409,1573.958,6638.735,1573.986,6638.778Zm-12.072,14.177a6.244,6.244,0,0,0,.613-.791A6.764,6.764,0,0,0,1561.914,6652.955Zm-8.794,10.269c-.089.031.117-.189.092-.213-1.484,1.96-2.32,2.827-3.777,4.644,0-.035.1-.156.1-.2-.224.31-.528.688-.729.978a8.913,8.913,0,0,0,.65-.754c.022.012-.005.065-.033.119a16.593,16.593,0,0,0,1.25-1.555c.006.024-.1.174.04.034.713-.9,2.046-2.4,2.528-3.09.269-.211,1-1.192,1.521-1.762-.253.175.1-.278-.119-.1C1554.134,6662.007,1553.661,6662.547,1553.12,6663.224Zm-13.208,15.975c-.478.585-1.034,1.236-1.311,1.651,2.8-3.324,5.336-6.287,6.977-8.618C1543.454,6674.859,1541.149,6677.453,1539.912,6679.2Zm-2.12,2.563c-.154.07.116-.219.065-.236l-.36.418A.661.661,0,0,0,1537.792,6681.762Zm-30.312,35.178c.7-.84,1.321-1.616,2.048-2.48A23.909,23.909,0,0,0,1507.48,6716.94Zm2.028-2.35c-1.012,1.264-2.709,3.356-3.763,4.655a18.223,18.223,0,0,1-1.7,2.048c.2-.239.508-.565.48-.609a11.659,11.659,0,0,0-1.461,1.96c2.4-3,4.736-5.635,6.411-7.937-.13.214-.029.1-.079.226.5-.563,1.406-1.636,1.928-2.289.019-.127-.408.464-.415.375.054-.068.143-.167.133-.181-.382.415-.4.5-.4.538-.129.084-.255.326-.3.324,0-.036.1-.156.1-.2C1509.955,6714.137,1509.866,6714.143,1509.508,6714.59Zm2.475-2.841a12.286,12.286,0,0,0,1.218-1.439C1512.728,6710.847,1512.445,6711.29,1511.983,6711.749Zm-53.156,62.158c.38-.443.487-.654.9-1.125C1459.554,6772.777,1458.695,6773.857,1458.827,6773.907Zm92.4-107.047c-2.4,2.93-5.117,6.049-7.141,8.623C1546.662,6672.4,1549.264,6669.306,1551.228,6666.86Zm-16.5,19.577c.593-.568,1.779-2.012,2.463-2.855-.087.1-.1.074-.112.05.256-.344.6-.764.8-1.062C1536.807,6683.876,1535.318,6685.536,1534.726,6686.437Zm.251-.078c.93-1.088,1.9-2.207,2.554-3.066C1536.725,6684.277,1535.61,6685.522,1534.977,6686.359Zm-25.664,29.819c.51-.6.879-1.075,1.251-1.555C1510.066,6715.209,1509.574,6715.792,1509.313,6716.178Zm25.019-28.911c1.607-1.87,3.579-4.153,5.293-6.267C1537.792,6683.111,1536.168,6684.956,1534.332,6687.267Zm-27.2,31.569c-.053,0,.195-.256.177-.285a24.077,24.077,0,0,0-1.947,2.416c-.388.3-1.682,1.975-1.271,1.687,1.673-2.057,3.256-4.038,4.871-6.045C1508.292,6717.4,1507.616,6718.2,1507.135,6718.836Zm26.256-30.479a5.482,5.482,0,0,1,.679-.733c-.107.038.22-.291.164-.3A8.688,8.688,0,0,0,1533.391,6688.357Zm-6.759,8.074c.558-.689,1.175-1.338,1.626-1.965C1527.721,6695.117,1527,6695.921,1526.632,6696.431Zm-66.381,76.948a5.533,5.533,0,0,0,.75-.817c-.059.03.017-.157-.138.027C1460.757,6772.769,1460.338,6773.215,1460.251,6773.379Zm43.884-49.811c1.745-2.025,3.369-4.135,4.937-5.988-2.433,3.073-5.4,6.659-7.476,9.357.2-.193.322-.432.362-.419-.239.376-1,1.193-1.151,1.5,3.513-4.27,7.967-9.856,12.392-15.215a20.464,20.464,0,0,1,1.316-1.793c-.219.209-.317.411-.46.481a2.443,2.443,0,0,0,.335-.442c-1.232,1.5-2.906,3.592-4.035,4.863.151-.226.6-.706.771-.947.2-.289-.231.214-.04-.034a2.751,2.751,0,0,1,.447-.491c1.451-1.735,2.9-3.521,4.068-4.981a3.871,3.871,0,0,0,.624-.777C1512.14,6713.658,1507.194,6719.427,1504.135,6723.568Zm21-24.919a6.394,6.394,0,0,0,.539-.705A4.221,4.221,0,0,0,1525.133,6698.649Zm-4.055,4.992c.39-.556,1.607-1.834,1.863-2.346A25.032,25.032,0,0,0,1521.078,6703.641Zm-57.448,66.944a10.392,10.392,0,0,0,.9-1.124A10.092,10.092,0,0,0,1463.63,6770.585Zm-.434,1.091c.545-.65.886-1.127,1.211-1.59C1463.906,6770.7,1463.565,6771.175,1463.2,6771.676Zm2.923-3.334a8.1,8.1,0,0,0,.73-.98A3.052,3.052,0,0,0,1466.119,6768.342Zm15.63-16.081c.471-.557.787-.97.961-1.22A12.741,12.741,0,0,0,1481.749,6752.261Zm-6.245,8.225a8.288,8.288,0,0,0,.744-.969c-.106.117-.144.123-.243.229C1475.91,6759.932,1475.608,6760.293,1475.5,6760.486Zm-1.084,1.551c.367-.378.051.071-.067.237.854-1.039,1.526-1.924,2.442-3.017-.051-.008-.8.856-.454.34C1475.588,6760.506,1474.919,6761.343,1474.42,6762.037Zm.724-.546c-.008-.046.257-.323.249-.369-.376.416-.392.528-.683.873.061.01.316-.292.368-.267a25.7,25.7,0,0,0,1.724-2.319C1476.086,6760.227,1475.711,6760.876,1475.144,6761.491Zm-5.772,7.17a4,4,0,0,1,.494-.6c.169-.346.877-1.022,1.223-1.578-.367.407-.655.848-.461.481A15.763,15.763,0,0,0,1469.372,6768.661Zm-11.222,13.591c.632-.738,1.189-1.413,1.784-2.12-.146.071-.628.684-.73.686C1458.872,6781.28,1458.335,6781.915,1458.15,6782.252Z" fill-rule="evenodd"/>
    <path id="Path_13311" data-name="Path 13311" d="M1491.772,6739.978a15.817,15.817,0,0,1-1.032,1.3C1491.037,6740.837,1491.366,6740.5,1491.772,6739.978Z" fill-rule="evenodd"/>
    <path id="Path_13312" data-name="Path 13312" d="M1579.978,6630.338c.234-.285-.388.5-.552.694C1579.33,6631.038,1579.808,6630.557,1579.978,6630.338Z" fill-rule="evenodd"/>
    <path id="Path_13313" data-name="Path 13313" d="M1562.83,6645.987c-2.807,3.453-4.762,5.887-7.871,9.6a2.394,2.394,0,0,1-.329.3c-1.083,1.355-2.455,2.919-3.672,4.442a30.809,30.809,0,0,1-1.962,2.407c-.317.331-.462.468-.9.984-.774.921-1.781,2.112-2.626,3.149-.407.5-.739.959-1.106,1.389-.171.2-.3.316-.448.492a32.527,32.527,0,0,1-3.1,3.619c-.607.779-1.228,1.464-1.844,2.216-.345.421-.642.849-1.032,1.3a36.718,36.718,0,0,0-2.687,3.246c-1.872,2.293-3.628,4.067-5.172,6.073-.1.136.009.017.086-.073-.659.784-2.539,3.212-3.523,4.136a7.444,7.444,0,0,1-.861,1.159c-.089.03.118-.191.092-.215-.772.977-1.259,1.474-1.744,2.156.033-.062.064-.122-.027-.023-.87,1.263-2.243,2.794-3.514,4.286-.436.512-.738.958-1.165,1.483-.144.179-.177.153-.316.313-.338.391-1.277,1.647-1.935,2.43-.6.718-1.131,1.326-1.71,2.034-.188.226-.256.26-.271.208-.316.373-.5.634-.842,1.029a1.323,1.323,0,0,1-.138.32c-.264.285-.13.057-.066-.057l-.506.586c-.158.188-.123.21-.08.227-1.446,1.762-2.254,2.884-4.067,4.98-.22.279-.183.143-.33.3a27.612,27.612,0,0,0-1.73,2.166,18.389,18.389,0,0,0-1.52,1.762c.02.086.172-.221.315-.312-.059.14-.437.55-.611.788-.089.031.118-.19.092-.213-.121.185-.433.532-.54.705.028,0,.143-.142.23-.239a34.757,34.757,0,0,1-2.9,3.5c-1.676,1.961-3.11,3.717-4.441,5.387-.095.118-.027.1-.02.13-.555.646-1.271,1.617-2.106,2.574a15.613,15.613,0,0,0-1.389,1.583c.257-.158.577-.755.75-.817-.894,1.057-1.8,2.281-2.731,3.353a13.368,13.368,0,0,0-1.685,2.059c-.932,1.288-2.324,2.769-3.468,4.179-.19.247.242-.255.039.035-1.03,1.271-2.07,2.54-3.191,3.831.026,0,.142-.142.229-.239-1.916,2.335-4.939,6.186-7.4,8.981-1.758,1.993-3.439,4.2-5.172,6.367-.577.722-1.15,1.493-1.691,2.2-1.544,2.019-3.143,4.1-4.349,5.76-.223.206-.642.728-.956,1.081a62.84,62.84,0,0,1,4.014-5.318c.087-.128-.051.014.106-.2.308-.376-.032.09.17-.144.275-.391.787-.983.922-1.255,1.534-1.756,2.613-3.35,3.989-5.05,2.581-3.189,5.494-6.627,7.989-9.792,5.289-6.329,10.143-12.58,15.472-19,.952-1.146,2.1-2.488,2.805-3.436.806-.905,1.8-2.138,2.381-2.92,4.834-5.852,9.85-12.094,14.974-18.26,3.266-3.93,6.179-7.372,9.141-10.993,1.169-1.43,2.411-2.809,3.595-4.219,1.462-1.743,2.946-3.591,4.553-5.437s3.307-4,5.035-6.048c.4-.479.835-.958,1.231-1.426,1.824-2.157,3.585-4.442,5.233-6.172a.888.888,0,0,0,.223-.392c1.528-1.614,2.973-3.607,4.265-5.1-.113.193.033-.009.112-.05.806-1.036,1.45-1.751,2.771-3.318a3.053,3.053,0,0,1-.408.527,6.377,6.377,0,0,0,.783-.934c.776-.829,1.529-1.912,2.541-3.078-.5.707,1.529-1.815,1.783-2.12.309-.372.069-.04.3-.325.033-.062.064-.122-.026-.023C1559.97,6649.394,1561.4,6647.658,1562.83,6645.987Zm-50.565,60.733a17.543,17.543,0,0,0,1.177-1.472C1512.944,6705.828,1512.547,6706.323,1512.265,6706.72Z" fill-rule="evenodd"/>
    <path id="Path_13314" data-name="Path 13314" d="M1584.315,6621.2c-.51.7-1.192,1.441-1.975,2.4a9.881,9.881,0,0,1,1.224-1.579c.3-.3-.347.4-.263.358C1583.81,6621.874,1583.762,6621.821,1584.315,6621.2Z" fill-rule="evenodd"/>
    <path id="Path_13315" data-name="Path 13315" d="M1592.71,6612.78a8.4,8.4,0,0,1-.612.789C1591.977,6613.67,1592.4,6613.12,1592.71,6612.78Z" fill-rule="evenodd"/>
    <path id="Path_13316" data-name="Path 13316" d="M1582.148,6625.767a20.746,20.746,0,0,1,1.7-2.047c-.017.112-.439.568-.514.729C1583.351,6624.286,1582.438,6625.36,1582.148,6625.767Z" fill-rule="evenodd"/>
    <path id="Path_13317" data-name="Path 13317" d="M1598.944,6606.3c-.609.8-1.2,1.391-1.928,2.289-.027-.023-.215.214-.2.122a17.919,17.919,0,0,0,1.231-1.427c0,.026-.06.1-.045.107l.362-.421C1597.833,6607.457,1598.662,6606.65,1598.944,6606.3Z" fill-rule="evenodd"/>
    <path id="Path_13318" data-name="Path 13318" d="M1587.662,6619.4c-.108.178-.121.162-.019.13-1.585,1.779-2.341,2.853-4.028,4.721C1585.005,6622.516,1586.1,6621.295,1587.662,6619.4Z" fill-rule="evenodd"/>
    <path id="Path_13319" data-name="Path 13319" d="M1568.963,6641.179c.009.068-.414.5-.466.62C1568.328,6641.959,1568.894,6641.225,1568.963,6641.179Z" fill-rule="evenodd"/>
    <path id="Path_13320" data-name="Path 13320" d="M1506.453,6713.855l.289-.335c.118-.04-.3.373-.322.454C1506.159,6714.248,1506.617,6713.737,1506.453,6713.855Z" fill-rule="evenodd"/>
    <path id="Path_13321" data-name="Path 13321" d="M1597.3,6609.276c-.016-.025-.085,0,.018-.129.255-.268.267-.145.645-.614C1597.783,6608.847,1597.578,6608.92,1597.3,6609.276Z" fill-rule="evenodd"/>
    <path id="Path_13322" data-name="Path 13322" d="M1583.788,6624.989c.054.056.345-.454.4-.385-.342.38-.387.508-.7.862l-.039-.034c-.675.767-.771,1.043-1.454,1.818-.1.036.067-.147.007-.141.9-1.076,1.723-2.092,2.526-3.088A9.061,9.061,0,0,1,1583.788,6624.989Z" fill-rule="evenodd"/>
    <path id="Path_13323" data-name="Path 13323" d="M1569.945,6641a8.073,8.073,0,0,1-.625.778A9.239,9.239,0,0,1,1569.945,6641Z" fill-rule="evenodd"/>
    <path id="Path_13324" data-name="Path 13324" d="M1606.424,6599c-.048-.019.187-.278.152-.308-.308.365-.773.865-.671.884a14.346,14.346,0,0,0-1.034,1.011c.252-.351.929-1.025,1.534-1.751-.464.435.513-.633.242-.228,1.048-1.18,1.553-1.862,2.364-2.792C1608.3,6596.795,1607,6598.162,1606.424,6599Z" fill-rule="evenodd"/>
    <path id="Path_13325" data-name="Path 13325" d="M1589.562,6618.4c-.731,1.021-1.837,2.221-2.772,3.318-.477.56-.869,1.083-1.363,1.606.688-.876,1.546-1.9,2.31-2.836-.392.569.2-.233.29-.336C1588.475,6619.617,1588.964,6619.088,1589.562,6618.4Z" fill-rule="evenodd"/>
    <path id="Path_13326" data-name="Path 13326" d="M1591.984,6616.4c-.04-.014-.165.225-.361.418.06-.042.18-.181.184-.133-.137.135-.446.482-.2.264-.078.113-.578.693-.671.885-.36.163.434-.775.869-1.3.614-.742,1.678-1.947,2.435-2.876.154-.192.129-.1.244-.229.318-.351.252-.378.54-.706-.031.148.329-.333.415-.374a55.237,55.237,0,0,1,3.58-4.228c-1.537,1.76-2.69,3.266-3.871,4.565-.081.1-.036.091-.031.117-1.273,1.421-2.026,2.473-3.337,4C1591.734,6616.761,1592.052,6616.417,1591.984,6616.4Z" fill-rule="evenodd"/>
    <path id="Path_13327" data-name="Path 13327" d="M1600.33,6606.621a.9.9,0,0,1-.243.229,7.138,7.138,0,0,1-.711.85A5.987,5.987,0,0,1,1600.33,6606.621Z" fill-rule="evenodd"/>
    <path id="Path_13328" data-name="Path 13328" d="M1575.865,6635.131c.54-.631.68-.8,1-1.185A6.608,6.608,0,0,1,1575.865,6635.131Z" fill-rule="evenodd"/>
    <path id="Path_13329" data-name="Path 13329" d="M1599.437,6607.9c.069-.08.071-.05.1-.06.25-.257.013-.1.263-.358l.039.034C1599.634,6607.754,1599.445,6607.972,1599.437,6607.9Z" fill-rule="evenodd"/>
    <path id="Path_13330" data-name="Path 13330" d="M1567.145,6645.611c-.131.145-.189.172-.2.122a10.018,10.018,0,0,1,.882-1A10.11,10.11,0,0,0,1567.145,6645.611Z" fill-rule="evenodd"/>
    <path id="Path_13331" data-name="Path 13331" d="M1580.3,6630.9c.035-.026-.977,1.215-1.481,1.8C1579.175,6632.216,1579.716,6631.577,1580.3,6630.9Z" fill-rule="evenodd"/>
    <path id="Path_13332" data-name="Path 13332" d="M1568.7,6644.61c.194-.2-.3.545-.35.432C1568.5,6644.828,1568.667,6644.684,1568.7,6644.61Z" fill-rule="evenodd"/>
    <path id="Path_13333" data-name="Path 13333" d="M1464.287,6766.029c.2-.048-.489.724,0,0Z" fill-rule="evenodd"/>
    <path id="Path_13334" data-name="Path 13334" d="M1587.243,6623.871c-.026.143-.706.839-.9,1.125C1586.24,6625.051,1587.035,6624.153,1587.243,6623.871Z" fill-rule="evenodd"/>
    <path id="Path_13335" data-name="Path 13335" d="M1457.166,6774.816c-.068.023-.217.175-.224.1.393-.447.782-.888,1.112-1.234-.234.351-.635.82-.888,1.135.012.056.394-.482.329-.3-.184.195-.558.664-.335.441-.148.226-.521.535-.881,1C1456.266,6775.808,1456.96,6775.09,1457.166,6774.816Z" fill-rule="evenodd"/>
    <path id="Path_13336" data-name="Path 13336" d="M1574.493,6638.779c.128-.169,1.187-1.444,1.375-1.594a21.259,21.259,0,0,1-1.408,1.712C1574.4,6638.926,1574.71,6638.542,1574.493,6638.779Z" fill-rule="evenodd"/>
    <path id="Path_13337" data-name="Path 13337" d="M1552.5,6665.035a5.2,5.2,0,0,1-.466.621C1551.91,6665.776,1552.26,6665.3,1552.5,6665.035Z" fill-rule="evenodd"/>
    <path id="Path_13338" data-name="Path 13338" d="M1555.631,6662.319c-.184.172-.572.786-.809.911,1.408-1.644,2.4-2.937,3.832-4.6.41-.49.273-.269-.061.1-.825,1.007-1.684,2.044-2.54,3.078a8.318,8.318,0,0,0,.594-.662c-.233.363-.841,1.044-1.338,1.63C1555.33,6662.694,1555.639,6662.373,1555.631,6662.319Z" fill-rule="evenodd"/>
    <path id="Path_13339" data-name="Path 13339" d="M1561.194,6655.847c-.131.3-.679.821-.862,1.158.059-.009.409-.448.348-.43a17.275,17.275,0,0,1-1.329,1.781c-.1.036.069-.149.007-.142-.06-.016-.366.509-.388.4.207-.232.433-.5.709-.848-.059.041-.178.179-.184.133C1560.286,6656.984,1560.486,6656.642,1561.194,6655.847Zm-1.323,1.639c.028.014.025.054-.019.129.231-.248.251-.318.421-.515-.01-.049-.068-.021-.2.122A1.191,1.191,0,0,1,1559.871,6657.486Z" fill-rule="evenodd"/>
    <path id="Path_13340" data-name="Path 13340" d="M1558.4,6659.293c.032.014.226-.294.435-.5-.494.743-1.554,1.887-2.173,2.811.054,0,.276-.269.285-.2a12.351,12.351,0,0,1-.955,1.079c-.058-.01.122-.224.065-.236-.223.287-.359.5-.514.729-.231.287-.143.111-.111.049-.461.641-1.582,1.925-1.962,2.407-.182.207-.066-.013-.053-.045-.714.821-1.771,2.258-2.165,2.669-.246.228.159-.284.138-.321a9.011,9.011,0,0,0-.914,1.113c.118-.085.118-.2.361-.418.12-.049-.2.278-.335.441.016.04.263-.292.374-.407-.185.255-.415.548-.683.873-.053,0,.194-.255.177-.286-.245.267-.936,1.1-1.146,1.354.255-.253.132-.056-.176.285.351-.511-.652.739-.837.89-.12-.221,2.154-2.569,2.567-3.349.384-.431.563-.687.843-1.03-.18.148-.556.612-.764.8.7-.876,1.32-1.552,2.027-2.349-.012-.057-.394.481-.329.3.893-1.008,1.3-1.59,2.073-2.455-.639.884-1.63,1.963-2.272,2.872a9.165,9.165,0,0,0,1.238-1.567c.088-.058.679-.64.548-.555.146-.2.877-.885.841-1.028,1.215-1.467,2.69-3.272,4-4.744C1558.93,6658.636,1558.506,6659.1,1558.4,6659.293Zm-2.29,3c.261-.281.258-.339.494-.6-.009-.04-.111.07-.126.038l-.362.42C1556.293,6662.053,1556.1,6662.221,1556.114,6662.294Z" fill-rule="evenodd"/>
    <path id="Path_13341" data-name="Path 13341" d="M1457.376,6776.9c0-.033.372-.406.579-.67-.152.146-.288.266-.474.469a12.478,12.478,0,0,1,.869-1.007,2.833,2.833,0,0,0-.245.23c.218-.327.458-.411.9-.985A18.624,18.624,0,0,1,1457.376,6776.9Z" fill-rule="evenodd"/>
    <path id="Path_13342" data-name="Path 13342" d="M1555.3,6663.934c.042,0-.856,1-.8,1.063-.21.229-.4.419-.607.65-1.676,2.061-3.7,4.442-5.6,6.728-.963,1.16-2.072,2.445-2.731,3.352-.374.323-.83.979-1.258,1.4C1547.809,6672.911,1551.844,6668.057,1555.3,6663.934Z" fill-rule="evenodd"/>
    <path id="Path_13343" data-name="Path 13343" d="M1513.418,6713.132c-.443.5-.493.659-.988,1.2A12.359,12.359,0,0,1,1513.418,6713.132Z" fill-rule="evenodd"/>
    <path id="Path_13344" data-name="Path 13344" d="M1534.237,6689.087c-.472.665-2.134,2.573-2.481,2.982C1532.321,6691.3,1533.5,6690.007,1534.237,6689.087Z" fill-rule="evenodd"/>
    <path id="Path_13345" data-name="Path 13345" d="M1520.415,6705.558c1.618-1.744,2.7-3.322,4.509-5.332-1.925,2.361-4.053,4.893-5.995,7.269C1519.158,6707.074,1520.361,6705.83,1520.415,6705.558Z" fill-rule="evenodd"/>
    <path id="Path_13346" data-name="Path 13346" d="M1518.639,6707.831c-1.736,2.19-3.719,4.562-5.462,6.7-.081.045.4-.578.486-.751C1515.557,6711.731,1516.615,6710.152,1518.639,6707.831Z" fill-rule="evenodd"/>
    <path id="Path_13347" data-name="Path 13347" d="M1456.768,6780.033c.341-.507.83-1.14,1.328-1.779C1457.761,6778.755,1457.264,6779.4,1456.768,6780.033Z" fill-rule="evenodd"/>
    <path id="Path_13348" data-name="Path 13348" d="M1458.5,6778.161l-1.48,2.089A20.715,20.715,0,0,1,1458.5,6778.161Z" fill-rule="evenodd"/>
    <path id="Path_13349" data-name="Path 13349" d="M1490.168,6742.692c-1.08,1.345-1.631,2.164-2.784,3.6-.04,0,.047-.1.034-.12-.232.249-.25.317-.421.515.086-.02.141-.189.289-.335-.5.819-1.3,1.539-2.251,2.742C1486.633,6747.056,1488.467,6744.818,1490.168,6742.692Z" fill-rule="evenodd"/>
    <path id="Path_13350" data-name="Path 13350" d="M1490.576,6742.46c-1.115,1.411-2.106,2.717-3.46,4.33C1488,6745.573,1489.483,6743.852,1490.576,6742.46Z" fill-rule="evenodd"/>
    <path id="Path_13351" data-name="Path 13351" d="M1482.783,6751.543a9.474,9.474,0,0,1-.8,1.064C1481.828,6752.7,1482.444,6751.945,1482.783,6751.543Z" fill-rule="evenodd"/>
    <path id="Path_13352" data-name="Path 13352" d="M1486.549,6747.474c-.686.882-1.422,1.806-2.3,2.848C1484.817,6749.543,1485.781,6748.425,1486.549,6747.474Z" fill-rule="evenodd"/>
    <path id="Path_13353" data-name="Path 13353" d="M1483.41,6751.351c-.374.5-.888,1.115-1.4,1.725C1482.419,6752.552,1482.844,6752.012,1483.41,6751.351Z" fill-rule="evenodd"/>
    <path id="Path_13354" data-name="Path 13354" d="M1481.942,6753.16c-.544.747-1.506,1.847-2.152,2.68C1480.116,6755.368,1481.16,6754.093,1481.942,6753.16Z" fill-rule="evenodd"/>
    <path id="Path_13355" data-name="Path 13355" d="M1458.38,6781.425a16.178,16.178,0,0,1-1.093,1.4C1457.513,6782.475,1457.982,6781.92,1458.38,6781.425Z" fill-rule="evenodd"/>
    <path id="Path_13356" data-name="Path 13356" d="M1467.767,6771.376c-.439.665-1.3,1.686-1.881,2.474C1466.144,6773.428,1467.172,6772.158,1467.767,6771.376Z" fill-rule="evenodd"/>
    <path id="Path_13357" data-name="Path 13357" d="M1469.309,6770.363a6.458,6.458,0,0,1-.539.705c-1.011,1.4-2.122,2.87-3.172,4.29-1.033,1.4-1.977,2.809-3.369,4.412C1464.594,6776.631,1466.614,6773.783,1469.309,6770.363Z" fill-rule="evenodd"/>
    <path id="Path_13358" data-name="Path 13358" d="M1590.216,6615.456c.063.032-.116.126-.192.276a6.484,6.484,0,0,0,.842-1.03c-.118.281.666-.7.935-.95-.007.075-.252.35-.138.32-1.636,1.908-3.191,3.767-5.073,6.014.059-.042.178-.18.183-.133-.279.32-.519.628-.4.385-1.553,1.768-3.065,3.536-4.014,4.732-.234.256-.188.064-.324.162.726-.858,1.6-1.891,2.653-3.127a3.524,3.524,0,0,1-.467.621c.449-.434,1.542-1.781,2.171-2.516-.155.031-.442.47-.677.731-1.334,1.483-3.235,3.655-4.8,5.514,1.7-2.115,4.622-5.421,6.884-8.111.028-.055.054-.106.032-.118C1588.782,6617.109,1589.3,6616.554,1590.216,6615.456Z" fill-rule="evenodd"/>
    <path id="Path_13359" data-name="Path 13359" d="M1593.852,6613.326l.04.035.361-.419c0-.062-.322.388-.256.217l.434-.5c.1-.085.049-.014.04.035.353-.427.573-.639.882-1-.882,1.113-1.81,2.115-2.652,3.127-.117.039.267-.347.408-.526.093-.18-.345.348-.112.05C1593.146,6614.121,1593.57,6613.663,1593.852,6613.326Z" fill-rule="evenodd"/>
    <path id="Path_13360" data-name="Path 13360" d="M1572.508,6638.381c-.355.54-1.49,1.83-1.917,2.3a3.062,3.062,0,0,1,.64-.768c.123-.15.141-.21.091-.213A16.859,16.859,0,0,1,1572.508,6638.381Z" fill-rule="evenodd"/>
    <path id="Path_13361" data-name="Path 13361" d="M1590.589,6618.417c-2.2,2.725-5.144,6.189-7.272,8.8,0-.033.136-.175.119-.192-.3.3-.572.762-.665.744C1585.288,6624.728,1587.71,6621.765,1590.589,6618.417Z" fill-rule="evenodd"/>
    <path id="Path_13362" data-name="Path 13362" d="M1566.262,6649.386c-.171.213-.451.552-.858,1.02.043,0,.156-.119.318-.315-.041.178-.707.762-.824.9a43.142,43.142,0,0,1,2.824-3.272c.2-.276-.331.362-.27.206,1.614-2.042,3.453-4.123,5.194-6.206,4.12-4.932,8.251-9.979,12.32-14.837-2.848,3.6-6.269,7.654-8.99,10.978-1.558,1.9-3.224,3.819-4.884,5.74-.641.885-1.889,2.271-2.56,3.206-.731.853-1.394,1.647-2.073,2.456C1566.257,6649.5,1566.185,6649.506,1566.262,6649.386Z" fill-rule="evenodd"/>
    <path id="Path_13363" data-name="Path 13363" d="M1548.406,6671.012c-.427.588-1.13,1.409-1.745,2.155C1547.128,6672.561,1547.768,6671.687,1548.406,6671.012Z" fill-rule="evenodd"/>
    <path id="Path_13364" data-name="Path 13364" d="M1550,6670.047c.052.063.186-.209.344-.292-.19.236-.593.653-.64.768-.146.055-.252.246-.606.649C1549.136,6671.019,1549.854,6670.29,1550,6670.047Z" fill-rule="evenodd"/>
    <path id="Path_13365" data-name="Path 13365" d="M1549.025,6671.256c-.6.9-2.2,2.658-3.02,3.688C1546.546,6674.124,1548.122,6672.307,1549.025,6671.256Z" fill-rule="evenodd"/>
    <path id="Path_13366" data-name="Path 13366" d="M1515.88,6710.279c-.9,1.2-2.258,2.871-3.211,3.962C1513.437,6713.2,1514.761,6711.674,1515.88,6710.279Z" fill-rule="evenodd"/>
  </g>
</svg>
