<svg xmlns="http://www.w3.org/2000/svg" xmlns:xlink="http://www.w3.org/1999/xlink" width="253" height="39" viewBox="0 0 253 39">
  <defs>
    <clipPath id="clip-path">
      <rect id="Rectangle_239" data-name="Rectangle 239" width="253" height="39" transform="translate(839 7893)" fill="none"/>
    </clipPath>
  </defs>
  <g id="Mask_Group_10" data-name="Mask Group 10" transform="translate(-839 -7893)" clip-path="url(#clip-path)">
    <g id="Group_1357" data-name="Group 1357" transform="translate(5347.292 2838.687) rotate(45)">
      <path id="Path_12824" data-name="Path 12824" d="M548.391,6607.482a6.76,6.76,0,0,1-.567.683A2.452,2.452,0,0,1,548.391,6607.482Z" fill-rule="evenodd"/>
      <path id="Path_12825" data-name="Path 12825" d="M549.866,6605.826a8.8,8.8,0,0,1-.751.816C549.284,6606.388,549.766,6605.811,549.866,6605.826Z" fill-rule="evenodd"/>
      <path id="Path_12826" data-name="Path 12826" d="M553.169,6601.945a15.052,15.052,0,0,1-1.2,1.449c-.049.035-.1.069-.112.049C552.217,6602.982,552.79,6602.4,553.169,6601.945Z" fill-rule="evenodd"/>
      <path id="Path_12827" data-name="Path 12827" d="M554.644,6600.289c-.21.241-.467.556-.593.661C554.007,6600.9,554.675,6600.093,554.644,6600.289Z" fill-rule="evenodd"/>
      <path id="Path_12828" data-name="Path 12828" d="M555.8,6598.946c-.276.309-.411.461-.81.912A4.389,4.389,0,0,1,555.8,6598.946Z" fill-rule="evenodd"/>
      <path id="Path_12829" data-name="Path 12829" d="M546.68,6609.518c.224-.262.247-.2.533-.564C547.273,6608.953,546.652,6609.664,546.68,6609.518Z" fill-rule="evenodd"/>
      <path id="Path_12830" data-name="Path 12830" d="M537.478,6620.314a8.354,8.354,0,0,1-.71.85A5.746,5.746,0,0,1,537.478,6620.314Z" fill-rule="evenodd"/>
      <path id="Path_12831" data-name="Path 12831" d="M534.332,6624.04c-.351.4-.692.875-1.014,1.176A6.643,6.643,0,0,1,534.332,6624.04Z" fill-rule="evenodd"/>
      <path id="Path_12832" data-name="Path 12832" d="M531.5,6627.3c.041.008-.367.57-.422.516A5.387,5.387,0,0,1,531.5,6627.3Z" fill-rule="evenodd"/>
      <path id="Path_12833" data-name="Path 12833" d="M560.616,6594.17c-.918,1.1-2.31,2.674-3.285,3.754C558.259,6596.75,559.639,6595.289,560.616,6594.17Z" fill-rule="evenodd"/>
      <path id="Path_12834" data-name="Path 12834" d="M536.44,6622.346a11.468,11.468,0,0,1-.842,1.03A12.876,12.876,0,0,1,536.44,6622.346Z" fill-rule="evenodd"/>
      <path id="Path_12835" data-name="Path 12835" d="M549.461,6607.819c-.887,1.135-2.434,2.923-3.424,4.074C547,6610.689,548.225,6609.257,549.461,6607.819Z" fill-rule="evenodd"/>
      <path id="Path_12836" data-name="Path 12836" d="M545.676,6612.311a3.312,3.312,0,0,1-.493.6A2.919,2.919,0,0,1,545.676,6612.311Z" fill-rule="evenodd"/>
      <path id="Path_12837" data-name="Path 12837" d="M545.024,6613.066c-.612.8-1.909,2.268-2.493,2.97C543.113,6615.257,544.128,6614.112,545.024,6613.066Z" fill-rule="evenodd"/>
      <path id="Path_12838" data-name="Path 12838" d="M481.408,6686.837a8.389,8.389,0,0,1-.7.862C480.867,6687.477,481.162,6687.136,481.408,6686.837Z" fill-rule="evenodd"/>
      <path id="Path_12839" data-name="Path 12839" d="M542.444,6616.11c-.388.541-1.522,1.8-2.278,2.72C540.753,6618.068,541.6,6617.089,542.444,6616.11Z" fill-rule="evenodd"/>
      <path id="Path_12840" data-name="Path 12840" d="M553.127,6603.811c-.188.28-.742.869-1.073,1.27A14.6,14.6,0,0,1,553.127,6603.811Z" fill-rule="evenodd"/>
      <path id="Path_12841" data-name="Path 12841" d="M548.243,6609.55a16.547,16.547,0,0,1,1.133-1.365C549.06,6608.621,548.542,6609.175,548.243,6609.55Z" fill-rule="evenodd"/>
      <path id="Path_12842" data-name="Path 12842" d="M534.4,6625.564c.033.01-.061.127-.019.129-.27.347-.192.134-.461.48C533.892,6626.13,534.2,6625.8,534.4,6625.564Z" fill-rule="evenodd"/>
      <path id="Path_12843" data-name="Path 12843" d="M557.873,6598.391c.535-.6-1.3,1.479-.072.083C557.825,6598.448,557.849,6598.418,557.873,6598.391Z" fill-rule="evenodd"/>
      <path id="Path_12844" data-name="Path 12844" d="M568.227,6586.394c.581-.643-.273.341-.638.765-.545.636-2.248,2.533-1.33,1.488C566.632,6588.222,567.7,6587.022,568.227,6586.394Z" fill-rule="evenodd"/>
      <path id="Path_12845" data-name="Path 12845" d="M556.8,6599.661c-3.137,3.753-6.806,8.087-9.511,11.262C549.889,6607.687,553.261,6603.813,556.8,6599.661Z" fill-rule="evenodd"/>
      <path id="Path_12846" data-name="Path 12846" d="M558.545,6597.8c-.2.26-.591.681-1.072,1.269A8.33,8.33,0,0,1,558.545,6597.8Z" fill-rule="evenodd"/>
      <path id="Path_12847" data-name="Path 12847" d="M556.169,6600.579c-.443.545-.862,1.072-1.277,1.533A17.4,17.4,0,0,1,556.169,6600.579Z" fill-rule="evenodd"/>
      <path id="Path_12848" data-name="Path 12848" d="M557.1,6599.478c-.272.418-1.012,1.131,0,0Z" fill-rule="evenodd"/>
      <path id="Path_12849" data-name="Path 12849" d="M533.723,6626.589c-1.64,2.06-3.4,4.056-5.568,6.613C529.81,6631.129,531.763,6628.88,533.723,6626.589Z" fill-rule="evenodd"/>
      <path id="Path_12850" data-name="Path 12850" d="M546.275,6612.1c.112-.048-.468.673-.493.6C545.948,6612.5,546.033,6612.363,546.275,6612.1Z" fill-rule="evenodd"/>
      <path id="Path_12851" data-name="Path 12851" d="M542.761,6616.384a3.075,3.075,0,0,1-.408.526C542.236,6616.949,542.62,6616.563,542.761,6616.384Z" fill-rule="evenodd"/>
      <path id="Path_12852" data-name="Path 12852" d="M535.028,6625.372a2.03,2.03,0,0,0-.237.38c-.724.734-1.758,2.04-2.52,2.948C532.765,6627.909,534.192,6626.412,535.028,6625.372Z" fill-rule="evenodd"/>
      <path id="Path_12853" data-name="Path 12853" d="M537.463,6622.791a8.194,8.194,0,0,1-.566.682A4.616,4.616,0,0,1,537.463,6622.791Z" fill-rule="evenodd"/>
      <path id="Path_12854" data-name="Path 12854" d="M539.931,6620.09c-.76.959-1.238,1.484-2.217,2.624C538.335,6621.9,539.47,6620.636,539.931,6620.09Z" fill-rule="evenodd"/>
      <path id="Path_12855" data-name="Path 12855" d="M553.366,6604.6c-.2.356-.682.814-1.046,1.292C552.492,6605.572,553.1,6604.965,553.366,6604.6Z" fill-rule="evenodd"/>
      <path id="Path_12856" data-name="Path 12856" d="M533.468,6627.687a22.488,22.488,0,0,1-1.87,2.193C532.432,6628.928,532.81,6628.453,533.468,6627.687Z" fill-rule="evenodd"/>
      <path id="Path_12857" data-name="Path 12857" d="M531.323,6630.226c.064-.07.062-.083.059-.1a21.317,21.317,0,0,1-1.6,1.987c-1.68,2.027-3.673,4.452-5.614,6.719.761-1.074,2.59-3.052,3.356-4.13C528.781,6633.287,530.273,6631.429,531.323,6630.226Z" fill-rule="evenodd"/>
      <path id="Path_12858" data-name="Path 12858" d="M560.672,6596.27c-.924,1.181-1.857,2.189-2.929,3.474C558.451,6598.8,559.91,6597.071,560.672,6596.27Z" fill-rule="evenodd"/>
      <path id="Path_12859" data-name="Path 12859" d="M562.095,6594.568c.125-.1.387-.428.413-.372-.294.313-.291.351-.519.575C562,6594.726,562.1,6594.6,562.095,6594.568Z" fill-rule="evenodd"/>
      <path id="Path_12860" data-name="Path 12860" d="M561.265,6595.61a8.056,8.056,0,0,1,.566-.683A3.25,3.25,0,0,1,561.265,6595.61Z" fill-rule="evenodd"/>
      <path id="Path_12861" data-name="Path 12861" d="M533.258,6628.091c.094-.171.547-.645.783-.935C533.947,6627.327,533.493,6627.8,533.258,6628.091Z" fill-rule="evenodd"/>
      <path id="Path_12862" data-name="Path 12862" d="M551.589,6606.875c-.421.476-.561.679-.868,1.006A6.32,6.32,0,0,1,551.589,6606.875Z" fill-rule="evenodd"/>
      <path id="Path_12863" data-name="Path 12863" d="M557.066,6600.475l.507-.587c.108-.023-.326.411-.48.61Z" fill-rule="evenodd"/>
      <path id="Path_12864" data-name="Path 12864" d="M521,6642.4c-.973,1.115-1.606,1.907-2.653,3.126A34.254,34.254,0,0,1,521,6642.4Z" fill-rule="evenodd"/>
      <path id="Path_12865" data-name="Path 12865" d="M548.549,6610.4c.1,0-.383.475-.553.694C547.8,6611.269,548.481,6610.517,548.549,6610.4Z" fill-rule="evenodd"/>
      <path id="Path_12866" data-name="Path 12866" d="M548.778,6610.159a14.011,14.011,0,0,1,1.015-1.175C549.489,6609.382,549.08,6609.829,548.778,6610.159Z" fill-rule="evenodd"/>
      <path id="Path_12867" data-name="Path 12867" d="M547.877,6611.283c-1.218,1.515-3.07,3.545-5.041,5.9-1.942,2.444-4.793,5.73-7.542,9.007.789-1.112,2.554-3.068,3.757-4.514C542,6618.126,544.954,6614.523,547.877,6611.283Z" fill-rule="evenodd"/>
      <path id="Path_12868" data-name="Path 12868" d="M532.89,6628.944c-.517.581-.773.941-1.289,1.521A15.153,15.153,0,0,1,532.89,6628.944Z" fill-rule="evenodd"/>
      <path id="Path_12869" data-name="Path 12869" d="M547.212,6612.321c.282-.4.5-.5.869-1.007.024.021-.367.5-.078.225C547.7,6612,547.609,6611.826,547.212,6612.321Z" fill-rule="evenodd"/>
      <path id="Path_12870" data-name="Path 12870" d="M550.439,6608.663c.051-.044.374-.371.36-.418.073-.083.074-.052.1-.063l.026.023C550.814,6608.276,550.385,6608.858,550.439,6608.663Z" fill-rule="evenodd"/>
      <path id="Path_12871" data-name="Path 12871" d="M461.218,6712.451c.5-.92,2.548-3.151,3.58-4.522.118-.147.146-.149.171-.145C463.667,6709.383,462.392,6710.959,461.218,6712.451Z" fill-rule="evenodd"/>
      <path id="Path_12872" data-name="Path 12872" d="M541.744,6618.872c-1,1.211-2.531,3.1-3.772,4.5C539.162,6621.9,540.306,6620.5,541.744,6618.872Z" fill-rule="evenodd"/>
      <path id="Path_12873" data-name="Path 12873" d="M547.661,6612.122c.579-.65.654-.559.785-.642-.221.353-.448.439-.81.911C547.606,6612.3,547.911,6611.978,547.661,6612.122Z" fill-rule="evenodd"/>
      <path id="Path_12874" data-name="Path 12874" d="M537.188,6624.311c-.384.49-.883,1.079-1.42,1.7C536.065,6625.588,536.837,6624.713,537.188,6624.311Z" fill-rule="evenodd"/>
      <path id="Path_12875" data-name="Path 12875" d="M548.859,6610.813c.551-.593.908-.873,1.6-1.693-.148.253-.512.69-.8,1.064.353-.5-.386.363-.691.721C549.133,6610.616,548.969,6610.795,548.859,6610.813Z" fill-rule="evenodd"/>
      <path id="Path_12876" data-name="Path 12876" d="M555.664,6602.928c.061-.076.075-.076.087-.074.254-.218.4-.454.75-.816a15.658,15.658,0,0,1-1.073,1.27C555.351,6603.313,555.782,6602.888,555.664,6602.928Z" fill-rule="evenodd"/>
      <path id="Path_12877" data-name="Path 12877" d="M534.392,6627.6a11.121,11.121,0,0,1-.915,1.113C533.708,6628.41,534.046,6628.01,534.392,6627.6Z" fill-rule="evenodd"/>
      <path id="Path_12878" data-name="Path 12878" d="M543.153,6617.453c-.337.47-.9,1.1-1.481,1.8a21.375,21.375,0,0,1-2.244,2.6C540.266,6620.807,541.977,6618.87,543.153,6617.453Z" fill-rule="evenodd"/>
      <path id="Path_12879" data-name="Path 12879" d="M554.013,6604.868c.256-.314.306-.3.534-.565C554.488,6604.427,554.027,6604.925,554.013,6604.868Z" fill-rule="evenodd"/>
      <path id="Path_12880" data-name="Path 12880" d="M516.356,6648.639a5.439,5.439,0,0,1-.7.86A10.02,10.02,0,0,1,516.356,6648.639Z" fill-rule="evenodd"/>
      <path id="Path_12881" data-name="Path 12881" d="M545.562,6614.848c-.205.324-.6.708-.842,1.03A6.324,6.324,0,0,1,545.562,6614.848Z" fill-rule="evenodd"/>
      <path id="Path_12882" data-name="Path 12882" d="M544.489,6616.118c-.3.42-1,1.25-1.421,1.7C543.353,6617.415,544.153,6616.494,544.489,6616.118Z" fill-rule="evenodd"/>
      <path id="Path_12883" data-name="Path 12883" d="M533.525,6628.9c-.3.284.246-.342.408-.526.4-.442-.2.267-.35.431C533.519,6628.879,533.519,6628.894,533.525,6628.9Z" fill-rule="evenodd"/>
      <path id="Path_12884" data-name="Path 12884" d="M550.8,6608.829a5.868,5.868,0,0,1-.625.778A7.166,7.166,0,0,1,550.8,6608.829Z" fill-rule="evenodd"/>
      <path id="Path_12885" data-name="Path 12885" d="M562.11,6595.753c-.041-.011.25-.3.348-.43.058,0-.117.2-.248.368C562.205,6595.666,562.169,6595.69,562.11,6595.753Z" fill-rule="evenodd"/>
      <path id="Path_12886" data-name="Path 12886" d="M532.667,6629.924c-.139.032,1.235-1.428.06-.1C532.663,6629.9,532.664,6629.912,532.667,6629.924Z" fill-rule="evenodd"/>
      <path id="Path_12887" data-name="Path 12887" d="M564.381,6593.175c.662-.733,1.823-2.013,2.647-2.987A29.69,29.69,0,0,1,564.381,6593.175Z" fill-rule="evenodd"/>
      <path id="Path_12888" data-name="Path 12888" d="M545.016,6615.694c-3.462,4.228-7.094,8.313-10.445,12.505.877-.943-.657.9-.691.721C537.334,6624.722,541.564,6619.692,545.016,6615.694Z" fill-rule="evenodd"/>
      <path id="Path_12889" data-name="Path 12889" d="M567.981,6589.11c0-.037.566-.718.521-.577A7.122,7.122,0,0,1,567.981,6589.11Z" fill-rule="evenodd"/>
      <path id="Path_12890" data-name="Path 12890" d="M552.224,6607.423c.07-.143.5-.589.711-.851C552.864,6606.715,552.436,6607.16,552.224,6607.423Z" fill-rule="evenodd"/>
      <path id="Path_12891" data-name="Path 12891" d="M547.347,6613.314c.047-.193-.552.738-.824.9-.127.128-.288.388-.118.19-.468.478-1.848,2.152-2.473,2.84-.1.131.045-.018.039.034-.15.215-.316.358-.349.432-.248.257.031-.113.191-.275-.076-.038-.367.473-.4.386,1.849-2.165,3.559-4.195,5.681-6.662.241-.257-.111.163-.2.263-.357.44-.612.729-1.146,1.354C547.478,6613.067,547.611,6613.023,547.347,6613.314Z" fill-rule="evenodd"/>
      <path id="Path_12892" data-name="Path 12892" d="M543.325,6617.894a9.139,9.139,0,0,1-1.046,1.293c-1.162,1.376-2.415,2.843-3.351,3.99a7.487,7.487,0,0,1,.757-.958C540.839,6620.825,542.013,6619.482,543.325,6617.894Z" fill-rule="evenodd"/>
      <path id="Path_12893" data-name="Path 12893" d="M533.6,6629.267c-3.635,4.377-7.967,9.624-11.906,14.17C525.218,6639.205,529.809,6633.684,533.6,6629.267Z" fill-rule="evenodd"/>
      <path id="Path_12894" data-name="Path 12894" d="M542.726,6618.7a.922.922,0,0,1-.19.273c0,.026.04-.021.085-.071.024-.006-.016.043-.059.094l-.144.168c.032-.061.064-.122-.027-.023A4.353,4.353,0,0,1,542.726,6618.7Z" fill-rule="evenodd"/>
      <path id="Path_12895" data-name="Path 12895" d="M533.347,6629.778c-.113.185-.415.531-.611.788A4.527,4.527,0,0,1,533.347,6629.778Z" fill-rule="evenodd"/>
      <path id="Path_12896" data-name="Path 12896" d="M530.937,6632.677a5.255,5.255,0,0,1-.611.788A3.414,3.414,0,0,1,530.937,6632.677Z" fill-rule="evenodd"/>
      <path id="Path_12897" data-name="Path 12897" d="M531.722,6631.74a3.3,3.3,0,0,1-.395.539A1.916,1.916,0,0,1,531.722,6631.74Z" fill-rule="evenodd"/>
      <path id="Path_12898" data-name="Path 12898" d="M521.54,6643.593a3.089,3.089,0,0,1-.482.612A5.359,5.359,0,0,1,521.54,6643.593Z" fill-rule="evenodd"/>
      <path id="Path_12899" data-name="Path 12899" d="M527.706,6636.474c-.443.682-1.624,1.973-2.526,3.088C525.795,6638.642,527.014,6637.317,527.706,6636.474Z" fill-rule="evenodd"/>
      <path id="Path_12900" data-name="Path 12900" d="M528.009,6636.15c.1-.165.192-.218.422-.515C528.546,6635.6,528.072,6636.1,528.009,6636.15Z" fill-rule="evenodd"/>
      <path id="Path_12901" data-name="Path 12901" d="M553.581,6606.545c.19-.153-.309.471-.513.728l-.053-.046A4.8,4.8,0,0,0,553.581,6606.545Z" fill-rule="evenodd"/>
      <path id="Path_12902" data-name="Path 12902" d="M551.278,6609.24c.1-.11.093-.041.125-.038-.089.131-.718.942-.579.671-.272.311-.423.595-.626.778.017-.112.5-.618.6-.8a.892.892,0,0,1,.184-.134,3.205,3.205,0,0,1,.337-.443Z" fill-rule="evenodd"/>
      <path id="Path_12903" data-name="Path 12903" d="M524.732,6640.054c-.528.687-1.263,1.512-1.975,2.4,0-.027-.039,0-.1.061C522.943,6642.137,524.06,6640.84,524.732,6640.054Z" fill-rule="evenodd"/>
      <path id="Path_12904" data-name="Path 12904" d="M521.474,6643.83a2.8,2.8,0,0,0,.23-.24,4.705,4.705,0,0,1-.395.538C521.3,6644.079,521.479,6643.878,521.474,6643.83Z" fill-rule="evenodd"/>
      <path id="Path_12905" data-name="Path 12905" d="M545.459,6616.223c.011.014-.078.112-.131.179,0,.061.321-.387.256-.217-.421.477-.53.652-.869,1.007A4.069,4.069,0,0,1,545.459,6616.223Z" fill-rule="evenodd"/>
      <path id="Path_12906" data-name="Path 12906" d="M546.381,6615.262l-.725.84A3.648,3.648,0,0,1,546.381,6615.262Z" fill-rule="evenodd"/>
      <path id="Path_12907" data-name="Path 12907" d="M549.093,6612.039c-.31.452-1.42,1.672-1.625,1.963C547.5,6613.869,548.549,6612.681,549.093,6612.039Z" fill-rule="evenodd"/>
      <path id="Path_12908" data-name="Path 12908" d="M546.5,6615.071c.427-.5.382-.424.736-.827a8.114,8.114,0,0,1-.769.945C546.495,6615.135,546.521,6615.083,546.5,6615.071Z" fill-rule="evenodd"/>
      <path id="Path_12909" data-name="Path 12909" d="M549.258,6612.035c-.267.415-1.118,1.323-1.468,1.808A18.961,18.961,0,0,1,549.258,6612.035Z" fill-rule="evenodd"/>
      <path id="Path_12910" data-name="Path 12910" d="M535.653,6627.96c-.358.417-.623.754-.914,1.113A5.071,5.071,0,0,1,535.653,6627.96Z" fill-rule="evenodd"/>
      <path id="Path_12911" data-name="Path 12911" d="M534.982,6628.846a7.79,7.79,0,0,1-.83,1.041C534.3,6629.648,534.715,6629.184,534.982,6628.846Z" fill-rule="evenodd"/>
      <path id="Path_12912" data-name="Path 12912" d="M536.331,6627.522a8.315,8.315,0,0,1-.685.874C535.707,6628.246,536.152,6627.771,536.331,6627.522Z" fill-rule="evenodd"/>
      <path id="Path_12913" data-name="Path 12913" d="M548.364,6613.6c-.585.754-1.966,2.328-3.073,3.642C546.056,6616.268,547.511,6614.583,548.364,6613.6Z" fill-rule="evenodd"/>
      <path id="Path_12914" data-name="Path 12914" d="M552.6,6608.774c-.683.8-1.336,1.578-2.232,2.612-.237.316-.088.011-.257.218-.443.55-1.334,1.569-1.534,1.751C549.9,6611.781,551.517,6609.948,552.6,6608.774Z" fill-rule="evenodd"/>
      <path id="Path_12915" data-name="Path 12915" d="M527.886,6637.361c.025.055-.337.436-.552.694A6.189,6.189,0,0,1,527.886,6637.361Z" fill-rule="evenodd"/>
      <path id="Path_12916" data-name="Path 12916" d="M525.353,6640.59c.284-.45,1.2-1.439,1.6-1.986.184-.215.1-.093.1-.061C526.449,6639.256,525.928,6639.9,525.353,6640.59Z" fill-rule="evenodd"/>
      <path id="Path_12917" data-name="Path 12917" d="M550.628,6611.169c-.66.86-1.5,1.869-2.125,2.7A27.8,27.8,0,0,1,550.628,6611.169Z" fill-rule="evenodd"/>
      <path id="Path_12918" data-name="Path 12918" d="M522.272,6644.08c.058.019-.514.6-.322.454a2.421,2.421,0,0,1-.276.346c.017-.059.073-.152.092-.213A5.863,5.863,0,0,1,522.272,6644.08Z" fill-rule="evenodd"/>
      <path id="Path_12919" data-name="Path 12919" d="M546.672,6615.806a5.824,5.824,0,0,1,.652-.755C547.023,6615.376,546.81,6615.687,546.672,6615.806Z" fill-rule="evenodd"/>
      <path id="Path_12920" data-name="Path 12920" d="M561.554,6598.641c-.426.576-1.042,1.178-1.592,1.845C560.028,6600.366,561.2,6599,561.554,6598.641Z" fill-rule="evenodd"/>
      <path id="Path_12921" data-name="Path 12921" d="M567.131,6592.179a12.134,12.134,0,0,1,1.223-1.284C567.86,6591.389,567.476,6591.9,567.131,6592.179Z" fill-rule="evenodd"/>
      <path id="Path_12922" data-name="Path 12922" d="M545.028,6617.9a4.182,4.182,0,0,1,.421-.515c-.006.064.128-.1.243-.228-.087.157-.5.591-.625.777C545.029,6617.932,545.156,6617.761,545.028,6617.9Z" fill-rule="evenodd"/>
      <path id="Path_12923" data-name="Path 12923" d="M549.6,6612.626c.006.048-.169.248-.163.3a1.971,1.971,0,0,0-.39.4A6.188,6.188,0,0,1,549.6,6612.626Z" fill-rule="evenodd"/>
      <path id="Path_12924" data-name="Path 12924" d="M551.873,6610.046c-.492.621-1.138,1.321-2.1,2.434C550,6612.17,551.358,6610.6,551.873,6610.046Z" fill-rule="evenodd"/>
      <path id="Path_12925" data-name="Path 12925" d="M415.562,6768.349c-1.125,1.224-3.164,4.158-4.448,5.235,1.747-2.214,3.8-4.624,5.449-6.715.107-.038-.221.292-.165.3.265-.3.325-.425.554-.695C416.654,6767.006,415.8,6767.891,415.562,6768.349Z" fill-rule="evenodd"/>
      <path id="Path_12926" data-name="Path 12926" d="M526.737,6639.441l.434-.5C527.2,6638.985,526.718,6639.576,526.737,6639.441Z" fill-rule="evenodd"/>
      <path id="Path_12927" data-name="Path 12927" d="M541.1,6622.852c-.177.248-.451.578-.771.947A11.57,11.57,0,0,1,541.1,6622.852Z" fill-rule="evenodd"/>
      <path id="Path_12928" data-name="Path 12928" d="M552.973,6609.093a9.482,9.482,0,0,1-1.034,1.3,15.822,15.822,0,0,1-1.454,1.819c-1.079,1.275-2.051,2.541-3.133,3.738-1.048,1.369-2.679,3.352-4.094,4.957.671-.982,2.292-2.769,3.126-3.889-.018-.069-.335.344-.474.469.094-.171.548-.645.784-.935,0,.036-.211.253-.192.276a19.782,19.782,0,0,0,1.857-2.206c-.017-.038-.262.292-.375.408C549.284,6613.427,551.223,6611.15,552.973,6609.093Z" fill-rule="evenodd"/>
      <path id="Path_12929" data-name="Path 12929" d="M536.767,6627.9a7.1,7.1,0,0,1-.7.863C536.227,6628.537,536.52,6628.2,536.767,6627.9Z" fill-rule="evenodd"/>
      <path id="Path_12930" data-name="Path 12930" d="M535.707,6629.18c-.242.364-.8.99-1.263,1.544C534.727,6630.321,535.183,6629.825,535.707,6629.18Z" fill-rule="evenodd"/>
      <path id="Path_12931" data-name="Path 12931" d="M540.928,6623.291c-.185.292-.662.831-1.047,1.293A12.686,12.686,0,0,1,540.928,6623.291Z" fill-rule="evenodd"/>
      <path id="Path_12932" data-name="Path 12932" d="M527.052,6639.423c-.253.362-.459.55-.841,1.029A7.486,7.486,0,0,1,527.052,6639.423Z" fill-rule="evenodd"/>
      <path id="Path_12933" data-name="Path 12933" d="M539.736,6624.753c-.385.536-1.168,1.41-1.6,1.985A24.908,24.908,0,0,1,539.736,6624.753Z" fill-rule="evenodd"/>
      <path id="Path_12934" data-name="Path 12934" d="M533.307,6632.229c-.533.745-.815.949,0,0Z" fill-rule="evenodd"/>
      <path id="Path_12935" data-name="Path 12935" d="M534.576,6630.838a5.122,5.122,0,0,1,.435-.5C535.425,6629.849,534.483,6631.052,534.576,6630.838Z" fill-rule="evenodd"/>
      <path id="Path_12936" data-name="Path 12936" d="M543.087,6621.057a21.685,21.685,0,0,1-1.488,1.937A19.374,19.374,0,0,1,543.087,6621.057Z" fill-rule="evenodd"/>
      <path id="Path_12937" data-name="Path 12937" d="M528.416,6638.11c-.121.186-.438.537-.626.779A5,5,0,0,1,528.416,6638.11Z" fill-rule="evenodd"/>
      <path id="Path_12938" data-name="Path 12938" d="M547.952,6615.739a14.232,14.232,0,0,1-.987,1.2A12.442,12.442,0,0,1,547.952,6615.739Z" fill-rule="evenodd"/>
      <path id="Path_12939" data-name="Path 12939" d="M546.57,6617.475c-.3.276-.488.561-.751.816C546.011,6618.046,546.563,6617.305,546.57,6617.475Z" fill-rule="evenodd"/>
      <path id="Path_12940" data-name="Path 12940" d="M544.6,6619.729c-.87,1.089-2.073,2.577-2.955,3.744a11.45,11.45,0,0,0-1.362,1.6c.39-.372-.336.481-.6.8.223-.3.212-.31-.052-.046.6-.866,1.536-1.918,2.3-2.85C542.783,6621.942,543.62,6620.878,544.6,6619.729Z" fill-rule="evenodd"/>
      <path id="Path_12941" data-name="Path 12941" d="M517.668,6651.232c-.2.265-.757.973-1.045,1.292A11.668,11.668,0,0,1,517.668,6651.232Z" fill-rule="evenodd"/>
      <path id="Path_12942" data-name="Path 12942" d="M537.909,6627.858c-.39.541-1.06,1.319-1.6,1.988C536.1,6629.849,537.407,6628.526,537.909,6627.858Z" fill-rule="evenodd"/>
      <path id="Path_12943" data-name="Path 12943" d="M539.528,6626.036a13.344,13.344,0,0,1-1.639,1.952C538.262,6627.575,539.119,6626.6,539.528,6626.036Z" fill-rule="evenodd"/>
      <path id="Path_12944" data-name="Path 12944" d="M533.552,6633.174c-.359.409-.526.657-.929,1.1C532.26,6634.5,533.4,6633.231,533.552,6633.174Z" fill-rule="evenodd"/>
      <path id="Path_12945" data-name="Path 12945" d="M513.278,6656.667c-.137.2-.385.491-.624.777A5.071,5.071,0,0,1,513.278,6656.667Z" fill-rule="evenodd"/>
      <path id="Path_12946" data-name="Path 12946" d="M533.374,6633.46l.362-.419c.119-.048-.2.278-.336.442Z" fill-rule="evenodd"/>
      <path id="Path_12947" data-name="Path 12947" d="M410.321,6776.266c-.009.045-.107.166-.105.2l.362-.42c-.242.4-.883,1.14-1.37,1.748-.248.163.517-.7.2-.557A7.8,7.8,0,0,1,410.321,6776.266Z" fill-rule="evenodd"/>
      <path id="Path_12948" data-name="Path 12948" d="M502.117,6670.161c-.21.241-.468.558-.594.662C501.653,6670.683,502.01,6670.136,502.117,6670.161Z" fill-rule="evenodd"/>
      <path id="Path_12949" data-name="Path 12949" d="M502.234,6669.972a5.423,5.423,0,0,1,.581-.673A4.267,4.267,0,0,1,502.234,6669.972Z" fill-rule="evenodd"/>
      <path id="Path_12950" data-name="Path 12950" d="M409.986,6777c.042,0-.046.1-.033.117.363-.4.342-.391.724-.838a21.115,21.115,0,0,1-1.653,1.942C409.145,6777.984,409.675,6777.4,409.986,6777Z" fill-rule="evenodd"/>
      <path id="Path_12951" data-name="Path 12951" d="M411,6775.828l.579-.671C411.617,6775.228,411.109,6775.8,411,6775.828Z" fill-rule="evenodd"/>
      <path id="Path_12952" data-name="Path 12952" d="M498.865,6674.09c-.345.482-1.137,1.433-1.625,1.964C497.834,6675.311,498.273,6674.8,498.865,6674.09Z" fill-rule="evenodd"/>
      <path id="Path_12953" data-name="Path 12953" d="M408.92,6778.423c-.235.235-.236.3-.447.493C408.494,6778.831,408.848,6778.392,408.92,6778.423Z" fill-rule="evenodd"/>
      <path id="Path_12954" data-name="Path 12954" d="M489.828,6684.589a7.1,7.1,0,0,1-.613.79c-.294.353-.792.941-.374.407C488.971,6685.619,489.45,6685.051,489.828,6684.589Z" fill-rule="evenodd"/>
      <path id="Path_12955" data-name="Path 12955" d="M525.694,6643.081a2.739,2.739,0,0,1-.422.516A2.739,2.739,0,0,1,525.694,6643.081Z" fill-rule="evenodd"/>
      <path id="Path_12956" data-name="Path 12956" d="M497.1,6676.374c.312-.468,1.286-1.531.347-.43C497.292,6676.129,497.345,6676.1,497.1,6676.374Z" fill-rule="evenodd"/>
      <path id="Path_12957" data-name="Path 12957" d="M496.726,6676.783c-.289.425-.913,1.134-1.481,1.8C495.639,6678.015,496.128,6677.5,496.726,6676.783Z" fill-rule="evenodd"/>
      <path id="Path_12958" data-name="Path 12958" d="M504.829,6667.527c-.331.45-.724.822-1.158,1.342A7.519,7.519,0,0,1,504.829,6667.527Z" fill-rule="evenodd"/>
      <path id="Path_12959" data-name="Path 12959" d="M485.254,6690.156c.216-.249.439-.511.474-.469C485.487,6689.974,485.311,6690.224,485.254,6690.156Z" fill-rule="evenodd"/>
      <path id="Path_12960" data-name="Path 12960" d="M498.661,6674.647a5.676,5.676,0,0,1-.525.716C497.893,6675.536,498.495,6674.781,498.661,6674.647Z" fill-rule="evenodd"/>
      <path id="Path_12961" data-name="Path 12961" d="M499.314,6673.891a4.2,4.2,0,0,1,.506-.587,3.862,3.862,0,0,1-.48.61C499.372,6673.853,499.4,6673.792,499.314,6673.891Z" fill-rule="evenodd"/>
      <path id="Path_12962" data-name="Path 12962" d="M497.082,6676.5c-1.406,1.817-2.833,3.383-4.213,5.148a21.866,21.866,0,0,1,2.284-2.86C495.847,6677.939,496.373,6677.266,497.082,6676.5Z" fill-rule="evenodd"/>
      <path id="Path_12963" data-name="Path 12963" d="M497.95,6675.5a5.192,5.192,0,0,1-.8,1.063c.049-.132.435-.561.02-.13A7.451,7.451,0,0,1,497.95,6675.5Z" fill-rule="evenodd"/>
      <path id="Path_12964" data-name="Path 12964" d="M482.831,6693.044c.263-.326.362-.387.593-.66C483.407,6692.44,482.8,6693.168,482.831,6693.044Z" fill-rule="evenodd"/>
      <path id="Path_12965" data-name="Path 12965" d="M491.882,6682.557a8.046,8.046,0,0,1-.7.86A8.33,8.33,0,0,1,491.882,6682.557Z" fill-rule="evenodd"/>
      <path id="Path_12966" data-name="Path 12966" d="M512.241,6658.991c.356-.314-.485.575-.467.621C511.417,6659.928,512.257,6659.039,512.241,6658.991Z" fill-rule="evenodd"/>
      <path id="Path_12967" data-name="Path 12967" d="M516.381,6654.221a6.078,6.078,0,0,1-.493.6A3.313,3.313,0,0,1,516.381,6654.221Z" fill-rule="evenodd"/>
      <path id="Path_12968" data-name="Path 12968" d="M489.447,6685.432c-.236.4-.823.992-1.409,1.712C488.25,6686.791,489.113,6685.888,489.447,6685.432Z" fill-rule="evenodd"/>
      <path id="Path_12969" data-name="Path 12969" d="M487.807,6687.385a7.09,7.09,0,0,1-.624.777A9.037,9.037,0,0,1,487.807,6687.385Z" fill-rule="evenodd"/>
      <path id="Path_12970" data-name="Path 12970" d="M509.786,6662c-.167.089.308-.366.25-.369.553-.614,1.149-1.372.664-.744C510.544,6661.086,510.159,6661.555,509.786,6662Z" fill-rule="evenodd"/>
      <path id="Path_12971" data-name="Path 12971" d="M485.735,6689.84c-.012.1-.688.976-.783.934C485.244,6690.41,485.337,6690.316,485.735,6689.84Z" fill-rule="evenodd"/>
      <path id="Path_12972" data-name="Path 12972" d="M491.673,6682.959a10.193,10.193,0,0,1-.843,1.03C490.771,6684.023,491.391,6683.289,491.673,6682.959Z" fill-rule="evenodd"/>
      <path id="Path_12973" data-name="Path 12973" d="M508.654,6663.362c-1.825,2.175-3.328,4.029-5.18,6.215.827-1.1,1.959-2.375,2.962-3.592A27.124,27.124,0,0,1,508.654,6663.362Z" fill-rule="evenodd"/>
      <path id="Path_12974" data-name="Path 12974" d="M409.749,6777.97c.193-.2.406-.435.666-.744C410.442,6777.275,409.727,6778.115,409.749,6777.97Z" fill-rule="evenodd"/>
      <path id="Path_12975" data-name="Path 12975" d="M511.7,6659.837a9.627,9.627,0,0,1-.771.947C511.109,6660.529,511.4,6660.185,511.7,6659.837Z" fill-rule="evenodd"/>
      <path id="Path_12976" data-name="Path 12976" d="M510.793,6660.963c-.519.628-1.1,1.309-1.554,1.88A14.588,14.588,0,0,1,510.793,6660.963Z" fill-rule="evenodd"/>
      <path id="Path_12977" data-name="Path 12977" d="M484.069,6692.063c-.771.84-1.928,2.321-3,3.557A31.232,31.232,0,0,1,484.069,6692.063Z" fill-rule="evenodd"/>
      <path id="Path_12978" data-name="Path 12978" d="M480.081,6696.819c-.716.809-1.178,1.4-1.783,2.12A18.293,18.293,0,0,1,480.081,6696.819Z" fill-rule="evenodd"/>
      <path id="Path_12979" data-name="Path 12979" d="M483.367,6693.065c-.175.182-.542.676-.534.565C482.927,6693.481,483.38,6692.941,483.367,6693.065Z" fill-rule="evenodd"/>
      <path id="Path_12980" data-name="Path 12980" d="M498.558,6675.435a10.106,10.106,0,0,1-.842,1.029C497.813,6676.234,498.291,6675.815,498.558,6675.435Z" fill-rule="evenodd"/>
      <path id="Path_12981" data-name="Path 12981" d="M477.021,6700.471c-1.6,1.874-2.534,3.138-3.963,4.779C473.871,6704.166,475.9,6701.711,477.021,6700.471Z" fill-rule="evenodd"/>
      <path id="Path_12982" data-name="Path 12982" d="M496.181,6678.216a.867.867,0,0,1-.164.3c-.274.323-.037.021-.112.051-1.23,1.447-1.884,2.408-3.311,4.022a34.529,34.529,0,0,1,2.226-2.765C495.289,6679.262,495.779,6678.708,496.181,6678.216Z" fill-rule="evenodd"/>
      <path id="Path_12983" data-name="Path 12983" d="M410.435,6777.684c.25-.211-.287.437-.44.643C409.985,6778.245,410.366,6777.832,410.435,6777.684Z" fill-rule="evenodd"/>
      <path id="Path_12984" data-name="Path 12984" d="M495.518,6679.252c.231-.34.662-.821.768-.945.692-.807,1.025-1.193.448-.492C496.491,6678.111,496.017,6678.689,495.518,6679.252Z" fill-rule="evenodd"/>
      <path id="Path_12985" data-name="Path 12985" d="M489.336,6686.361c.319-.374-.023.1-.19.274-1.321,1.729-3.608,4.233-4.891,5.881-1.839,2.009-3.288,4.014-4.856,5.761.619-.907,1.956-2.425,3.165-3.854C484.791,6691.79,487.22,6688.886,489.336,6686.361Z" fill-rule="evenodd"/>
      <path id="Path_12986" data-name="Path 12986" d="M492.865,6682.378c.308-.328.448-.53.869-1.007A4.346,4.346,0,0,1,492.865,6682.378Z" fill-rule="evenodd"/>
      <path id="Path_12987" data-name="Path 12987" d="M492.8,6682.475c-.238.337-.693.858-1.131,1.364A16.411,16.411,0,0,1,492.8,6682.475Z" fill-rule="evenodd"/>
      <path id="Path_12988" data-name="Path 12988" d="M491.515,6684c-.33.49-.866,1.05-1.336,1.628C490.316,6685.343,491.237,6684.4,491.515,6684Z" fill-rule="evenodd"/>
      <path id="Path_12989" data-name="Path 12989" d="M489.31,6686.632c-.426.578-1.193,1.447-1.842,2.214C487.787,6688.4,488.576,6687.493,489.31,6686.632Z" fill-rule="evenodd"/>
      <path id="Path_12990" data-name="Path 12990" d="M508.511,6664.409c.227-.279.345-.382.52-.576-.019.113.1,0-.223.393C509.046,6663.838,508.552,6664.444,508.511,6664.409Z" fill-rule="evenodd"/>
      <path id="Path_12991" data-name="Path 12991" d="M479.082,6698.59a17.191,17.191,0,0,1-1.119,1.378A14.979,14.979,0,0,1,479.082,6698.59Z" fill-rule="evenodd"/>
      <path id="Path_12992" data-name="Path 12992" d="M477.384,6700.639c-.476.687-1.351,1.716-2.322,2.824-.852.972-1.954,2.542-2.851,3.544-.217.242-.482.555-.573.531C473.524,6705.251,475.452,6702.912,477.384,6700.639Z" fill-rule="evenodd"/>
      <path id="Path_12993" data-name="Path 12993" d="M477.443,6700.544l.362-.42c.119-.049-.2.278-.336.443Z" fill-rule="evenodd"/>
      <path id="Path_12994" data-name="Path 12994" d="M484.54,6692.32c-.7.9-1.674,2.02-2.554,3.066C482.418,6694.708,483.634,6693.433,484.54,6692.32Z" fill-rule="evenodd"/>
      <path id="Path_12995" data-name="Path 12995" d="M504.792,6668.958a4.456,4.456,0,0,0-.335.443c-.18.2-.06-.02.032-.118-.014-.01-.1.094-.158.156C504.341,6669.327,504.789,6668.867,504.792,6668.958Z" fill-rule="evenodd"/>
      <path id="Path_12996" data-name="Path 12996" d="M480.958,6696.55c.316-.311.623-.713.941-1.09A6.306,6.306,0,0,1,480.958,6696.55Z" fill-rule="evenodd"/>
      <path id="Path_12997" data-name="Path 12997" d="M480.766,6696.826c-.633.779-1.321,1.667-2.059,2.466C479.032,6698.749,480.2,6697.513,480.766,6696.826Z" fill-rule="evenodd"/>
      <path id="Path_12998" data-name="Path 12998" d="M471.493,6707.705a44.747,44.747,0,0,1-3.3,4.175C468.965,6710.765,470.279,6709.193,471.493,6707.705Z" fill-rule="evenodd"/>
      <path id="Path_12999" data-name="Path 12999" d="M411.28,6777.533a2.8,2.8,0,0,1-.453.632A4.311,4.311,0,0,1,411.28,6777.533Z" fill-rule="evenodd"/>
      <path id="Path_13000" data-name="Path 13000" d="M411.563,6777.338a9.671,9.671,0,0,1-.862,1.16C410.881,6778.2,411.284,6777.717,411.563,6777.338Z" fill-rule="evenodd"/>
      <path id="Path_13001" data-name="Path 13001" d="M466.728,6713.547c-.127.207.047,0,.244-.229a3.523,3.523,0,0,1-.467.621c.058-.191-.042,0-.316.313A3.9,3.9,0,0,1,466.728,6713.547Z" fill-rule="evenodd"/>
      <path id="Path_13002" data-name="Path 13002" d="M467.683,6712.468c-.147.207-.356.467-.54.706C467.123,6713.107,467.435,6712.761,467.683,6712.468Z" fill-rule="evenodd"/>
      <path id="Path_13003" data-name="Path 13003" d="M452.058,6730.6a6.085,6.085,0,0,1-.554.7A4.9,4.9,0,0,1,452.058,6730.6Z" fill-rule="evenodd"/>
      <path id="Path_13004" data-name="Path 13004" d="M466.031,6714.409c-.474.659-.912,1.28-1.836,2.368A15.833,15.833,0,0,1,466.031,6714.409Z" fill-rule="evenodd"/>
      <path id="Path_13005" data-name="Path 13005" d="M415.374,6773.162c.114-.118.2-.194.317-.313-.03.082-.13.154-.217.252-.145.168-.057.138-.264.359C415.2,6773.412,415.381,6773.209,415.374,6773.162Z" fill-rule="evenodd"/>
      <path id="Path_13006" data-name="Path 13006" d="M463.208,6717.974c-.525.6-.775,1.046-1.264,1.544A5.993,5.993,0,0,1,463.208,6717.974Z" fill-rule="evenodd"/>
      <path id="Path_13007" data-name="Path 13007" d="M465.945,6714.775a5.833,5.833,0,0,1-.611.789A4.251,4.251,0,0,1,465.945,6714.775Z" fill-rule="evenodd"/>
      <path id="Path_13008" data-name="Path 13008" d="M461.759,6719.653c.108.014-.239.413-.584.811C461.16,6720.37,461.4,6720.063,461.759,6719.653Z" fill-rule="evenodd"/>
      <path id="Path_13009" data-name="Path 13009" d="M464.755,6716.235a6.673,6.673,0,0,1-.757.958C464.062,6717.033,464.57,6716.5,464.755,6716.235Z" fill-rule="evenodd"/>
      <path id="Path_13010" data-name="Path 13010" d="M476.464,6702.774a12.631,12.631,0,0,1-.842,1.028A5.259,5.259,0,0,1,476.464,6702.774Z" fill-rule="evenodd"/>
      <path id="Path_13011" data-name="Path 13011" d="M463.709,6717.528c-.4.546-1.124,1.469-1.586,2C462.222,6719.241,463.111,6718.324,463.709,6717.528Z" fill-rule="evenodd"/>
      <path id="Path_13012" data-name="Path 13012" d="M452.665,6730.832l.289-.334c.048.019-.138.237-.323.453C452.66,6730.9,452.685,6730.845,452.665,6730.832Z" fill-rule="evenodd"/>
      <path id="Path_13013" data-name="Path 13013" d="M447.788,6736.724c-1.151,1.474-2.668,3.373-4.028,5.016C445,6740.157,446.224,6738.584,447.788,6736.724Z" fill-rule="evenodd"/>
      <path id="Path_13014" data-name="Path 13014" d="M444.22,6740.966a8.429,8.429,0,0,1-.611.788A3.888,3.888,0,0,1,444.22,6740.966Z" fill-rule="evenodd"/>
      <path id="Path_13015" data-name="Path 13015" d="M448.676,6735.882a15.191,15.191,0,0,1-1.237,1.567A11.511,11.511,0,0,1,448.676,6735.882Z" fill-rule="evenodd"/>
      <path id="Path_13016" data-name="Path 13016" d="M409.928,6781.05c.2-.2-.1.286-.236.38C409.664,6781.4,409.955,6781.088,409.928,6781.05Z" fill-rule="evenodd"/>
      <path id="Path_13017" data-name="Path 13017" d="M447.953,6737.014c-.6.767-1.226,1.55-1.948,2.418C446.363,6738.872,447.3,6737.82,447.953,6737.014Z" fill-rule="evenodd"/>
      <path id="Path_13018" data-name="Path 13018" d="M444.057,6741.555c-.127.254-.327.432.006.154-.368.462-.382.353-.75.815C443.271,6742.537,443.848,6741.831,444.057,6741.555Z" fill-rule="evenodd"/>
      <path id="Path_13019" data-name="Path 13019" d="M437.955,6748.733c-.131.225-.544.687-.743.968A6.884,6.884,0,0,1,437.955,6748.733Z" fill-rule="evenodd"/>
      <path id="Path_13020" data-name="Path 13020" d="M445.86,6739.6c-.6.791-1.52,1.964-2.138,2.692C443.952,6741.8,445.245,6740.414,445.86,6739.6Z" fill-rule="evenodd"/>
      <path id="Path_13021" data-name="Path 13021" d="M434.3,6753.34c.171-.2.238-.229.448-.492.077-.005-.322.393-.323.454C434.326,6753.411,434.335,6753.342,434.3,6753.34Z" fill-rule="evenodd"/>
      <path id="Path_13022" data-name="Path 13022" d="M447.624,6737.9a7.394,7.394,0,0,1-.584.812A4.283,4.283,0,0,1,447.624,6737.9Z" fill-rule="evenodd"/>
      <path id="Path_13023" data-name="Path 13023" d="M446.592,6739.206a4.439,4.439,0,0,1-.454.633A3.313,3.313,0,0,1,446.592,6739.206Z" fill-rule="evenodd"/>
      <path id="Path_13024" data-name="Path 13024" d="M433.152,6754.833c.264-.326.241-.106-.008.143C433.275,6754.768,433.039,6755.011,433.152,6754.833Z" fill-rule="evenodd"/>
      <path id="Path_13025" data-name="Path 13025" d="M408.818,6783.165c-.211.291.02.209-.4.679A2.362,2.362,0,0,1,408.818,6783.165Z" fill-rule="evenodd"/>
      <path id="Path_13026" data-name="Path 13026" d="M444.236,6742.15a3.381,3.381,0,0,1-.7.861C443.732,6742.831,443.954,6742.476,444.236,6742.15Z" fill-rule="evenodd"/>
      <path id="Path_13027" data-name="Path 13027" d="M437.108,6750.489a9.188,9.188,0,0,1-.626.779A7.17,7.17,0,0,1,437.108,6750.489Z" fill-rule="evenodd"/>
      <path id="Path_13028" data-name="Path 13028" d="M439.327,6748.159c-.373.671-1.618,2.037-2.548,3.219C437.461,6750.447,438.349,6749.341,439.327,6748.159Z" fill-rule="evenodd"/>
      <path id="Path_13029" data-name="Path 13029" d="M428.492,6760.768a8.414,8.414,0,0,1-.54.705C427.847,6761.48,428.252,6761.053,428.492,6760.768Z" fill-rule="evenodd"/>
      <path id="Path_13030" data-name="Path 13030" d="M435.865,6752.785a3.031,3.031,0,0,1-.408.526C435.34,6753.35,435.723,6752.966,435.865,6752.785Z" fill-rule="evenodd"/>
      <path id="Path_13031" data-name="Path 13031" d="M411.228,6781.441a4.925,4.925,0,0,1-1.106,1.388C410.689,6782.2,410.662,6782.07,411.228,6781.441Z" fill-rule="evenodd"/>
      <path id="Path_13032" data-name="Path 13032" d="M427.039,6763.467c.206-.173-.015.207-.012.281C426.668,6764.108,427.041,6763.548,427.039,6763.467Z" fill-rule="evenodd"/>
      <path id="Path_13033" data-name="Path 13033" d="M422.183,6769.521c-.354.5-.835,1.114-1.271,1.687C421.182,6770.776,421.7,6770.137,422.183,6769.521Z" fill-rule="evenodd"/>
      <path id="Path_13034" data-name="Path 13034" d="M414.871,6778.582c.271-.214-.188.384-.414.667C414.443,6779.156,414.78,6778.764,414.871,6778.582Z" fill-rule="evenodd"/>
      <path id="Path_13035" data-name="Path 13035" d="M418,6774.986a4.685,4.685,0,0,1-.467.621A3.823,3.823,0,0,1,418,6774.986Z" fill-rule="evenodd"/>
      <path id="Path_13036" data-name="Path 13036" d="M421.361,6771.3a25.526,25.526,0,0,1-2.052,2.619A27.28,27.28,0,0,1,421.361,6771.3Z" fill-rule="evenodd"/>
      <path id="Path_13037" data-name="Path 13037" d="M418.241,6775.05c.3-.359.426-.422.751-.816A3.852,3.852,0,0,1,418.241,6775.05Z" fill-rule="evenodd"/>
      <path id="Path_13038" data-name="Path 13038" d="M538.166,6620.907c.173-.242.364-.41.553-.694-.724.749-.988,1.3-1.745,2.156a4.972,4.972,0,0,1,.684-.874c-.526.551-1.443,1.672-1.638,1.951-3.087,3.794-6.973,8.178-10.024,11.991.033-.062.064-.122-.027-.022-1.55,1.84-2.445,2.958-3.9,4.682-.293.379.041.1-.442.645,1.331-1.542,3.036-3.531,4.266-5.1.151.032,1.161-1.528,1.23-1.426.235-.259.123-.224.409-.526a11.962,11.962,0,0,0,1.276-1.534c.985-1.19,2.152-2.484,2.751-3.187-.233.386-.878,1.005-.96,1.219a1.238,1.238,0,0,0-.4.385c-.233.3.205-.23.112-.05a3.425,3.425,0,0,1-.606.649c-.682.92-1.753,2.122-2.165,2.669a5.931,5.931,0,0,0,.519-.575c-.157.252-.793.959-.914,1.113-.139.142-.035-.008-.039-.034-.115.145-.738.851-.6.8-.413.486-.528.64-.987,1.2,2.71-3.075,5.031-5.918,7.912-9.276-1.629,2.058-3.761,4.54-5.575,6.754.039.014.314-.352.447-.491-1.251,1.526-3.542,4.148-4.777,5.83-1.367,1.576-3.068,3.747-4.009,4.885-.541.655-1.015,1.16-1.42,1.7-.061.08-.162.248-.048.108-.117.144-.392.428-.52.576-.7.815-1.152,1.557-1.907,2.451a16.477,16.477,0,0,0,1.257-1.4c.75-.876,1.8-2.13,2.567-3.055a12.083,12.083,0,0,1,.856-1.018c.429-.539,2.813-3.344,3.7-4.418-.993,1.3-2.226,2.687-3.468,4.179.237-.214.55-.624.679-.734-.146.222-.426.557-.685.874.868-.945,2.028-2.379,2.824-3.272-1.108,1.372-2.411,2.988-3.687,4.432-1.074,1.421-2.71,3.319-4.153,5.052.4-.405.983-1.157,1.3-1.51-.623.848-1.463,1.759-2.179,2.659a9.332,9.332,0,0,1,.757-.958c-.667.732-2.011,2.351-2.349,2.8-.712.932-1.731,1.941-2.092,2.585,1.385-1.694,3.187-3.762,4.639-5.51.018.151-.435.592-.815,1.051-.673.813-1.491,1.832-2.252,2.743a26.123,26.123,0,0,0-1.875,2.333c3.767-4.413,7.332-8.775,10.893-13,.145-.115.32-.31.125-.038.493-.534.058-.215.5-.739-.251.437.677-.739.968-1.069-.262.381-.795.978-1.046,1.293,2.755-3.135,5.576-6.614,8.918-10.6.018.037-.154.235-.335.442-.1.123.014.063-.1.2-2.586,3.118-5.6,6.66-8.049,9.594.1-.078.115-.066.053.045.269-.278.694-.807.94-1.09-.872,1.134-2.293,2.822-3.468,4.18.043-.1.586-.7.177-.285a5.165,5.165,0,0,1,.724-.84c.095-.291,1.159-1.4,1.513-1.913-2.358,2.741-4.582,5.443-6.7,7.976a10.287,10.287,0,0,0-.875,1.148c1.757-2.152,3.693-4.427,5.086-6-.785,1-2.045,2.41-2.829,3.411,1.934-2.161,3.66-4.317,5.3-6.253,1.862-2.191,3.624-4.284,5.528-6.646-.6.634-1.668,2.075-2.185,2.506-.018.065-.017.127-.275.345-.007-.123.506-.6.65-.754,1.15-1.564,2.649-3.089,4.134-4.923-.278.382-.778.98-1.133,1.365a14.015,14.015,0,0,0,1.39-1.583c1.365-1.626,3-3.525,3.948-4.79.048-.047.312-.294.289-.335.259-.122-.515.726-.861,1.159-.571.714-1.228,1.608-2.08,2.6.264-.244.89-1.077,1.391-1.584.244-.26.058-.155.163-.3,1.212-1.434,2.2-2.557,3.376-3.966-.792,1.162-2.236,2.746-3.383,4.108-.287.342-.55.694-.841,1.028-.272.312-.651.67-.909.973-.307.361-.343.494-.658.9-.7.891-2.218,2.644-2.81,3.282-2.424,3.038-5.244,6.257-7.5,9.042a13.477,13.477,0,0,0-1.3,1.511c.268-.222.71-.792.848-.876.1-.026-.394.573-.466.62a12.684,12.684,0,0,1-1.474,1.948c.757-.719,1.709-1.959,2.607-3.02,1.367-1.616,2.828-3.328,4-4.743.094-.129-.064.04.046-.107,1.123-1.5,3.377-3.937,4.773-5.691a10.165,10.165,0,0,1-.844,1.032c.887-.963,1.8-2.14,2.725-3.212-.474.489-.671.8-1.23,1.426-.316.366-.035-.006.131-.179a17.02,17.02,0,0,1,1.318-1.5c.232-.3-.207.231-.113.05.3-.328.4-.491.639-.767.061-.013-.079.143-.192.276.267-.228.519-.634.869-1.007.2-.218.112-.186.178-.287,2.234-2.681,4.581-5.521,6.957-8.194.1-.124-.015-.063.1-.2.275-.323.036-.02.113-.05.75-.963,2.317-2.6,2.7-3.233.144-.121.436-.483.664-.743-.26.39-.744.968-1.163,1.483-.663.813-1.478,1.78-2.205,2.634-2.411,2.836-4.773,5.692-7.121,8.493.015.095.559-.661.559-.541-.245.247-.37.482-.7.861a18.579,18.579,0,0,0,1.382-1.736c.01.067-.315.418-.381.549,2.241-2.674,5.133-6.191,7.884-9.3.312-.386.567-.855,1.21-1.59.174-.137.437-.419.527-.423-.331.426-.222.249-.4.385-.213.307-.845,1.131-1.369,1.746-.151.178-.323.316-.461.481-.369.44-.639.835-.96,1.219-.3.364-.76.819-.955,1.08-.062.084.057.014-.033.119-.232.271.1-.165-.111.049-.61.631-1.693,2.094-2.225,2.764-.113.12.012-.048-.039-.034-3.954,4.728-8.3,9.967-12.506,14.972-.2.243-.275.384-.467.622-2.873,3.337-5.626,6.72-8.129,9.82.052-.054.091.051-.25.37.693-.7,1.938-2.292,2.535-2.938.29-.253-.467.655-.625.778-.505.692-1.66,1.933-2.021,2.5,2.984-3.359,6.254-7.413,9.5-11.275a5.121,5.121,0,0,1-.48.611c.341-.327.745-.9,1.23-1.426-.481.671-1.528,1.81-1.974,2.394,1.049-1.134,2.185-2.561,2.942-3.461-.038-.016-.313.35-.447.491.629-.867,2.11-2.566,2.9-3.5-.544.7-1.468,1.839-2.211,2.776,1.373-1.558,3.13-3.7,3.792-4.341-6.1,7.3-12.3,14.829-18.316,22.107-.844,1.021-1.716,2.076-2.639,3.138-1.236,1.422-2.621,3.214-4.1,4.958-2.157,2.552-4.418,5.386-6.344,7.7a30.608,30.608,0,0,0-2.079,2.6c2.79-3.225,5.6-6.734,8.154-9.8,4.48-5.364,8.781-10.621,14-16.755,1.453-1.709,3.114-3.717,4.4-5.283a14.967,14.967,0,0,1-1.322,1.639c-2.031,2.462-4.484,5.446-6.563,7.952.4-.333.754-.954,1.027-1.163-.106.21-.653.794-.9,1.125,2.8-3.189,6.03-7.165,9.281-11.021.093-.059-.406.487-.119.19-2.326,2.752-5.136,6.338-7.884,9.591-.683.808-1.169,1.4-1.671,2.07a4.262,4.262,0,0,0,.506-.587,4.311,4.311,0,0,1-.658.9c-.206.176.078-.163.079-.226a3.382,3.382,0,0,0-.474.763,3.7,3.7,0,0,1-.414.373c-1.068,1.354-2.21,2.61-2.949,3.6-.09.067-.113.142-.243.228-5.333,6.543-11.182,13.506-16.862,20.287a9.546,9.546,0,0,0-1.2,1.449c-1.013,1.112-2.687,3.119-3.555,4.253.224-.346.039-.089-.184.134.225-.3.549-.69.915-1.113-1.453,1.619-2.705,3.247-3.514,4.285-.043-.031.351-.432.308-.464-.839,1-1.584,1.927-2.091,2.584-.063.016.077-.141.19-.274-.451.428-.242.365-.685.874-.049.011.032-.087.119-.191-.714.737-.95,1.182-1.481,1.8-.363.42-1.25,1.357-1.856,2.2-.673.662-1.337,1.638-1.739,2.015-.007.11.254-.212.3-.184.231-.341.317-.418.684-.874.284-.334,0,.045.185-.133,1.607-1.865,2.995-3.572,4.522-5.321-5.629,6.734-10.233,12.3-15.415,18.61-.2.171-.052-.07-.105-.091-3.36,4.246-7.651,9.052-10.439,12.657a7.854,7.854,0,0,0-1.164,1.483c-.247.2-.544.685-.678.732-1.361,1.733-2.666,3.314-4.344,5.328.026-.1.364-.459.468-.623-3.026,3.527-4.43,5.875-7.4,9.427.452-.454.011.033-.395.538-1.172,1.456-3.582,4.578-5.029,6.2a5.054,5.054,0,0,1,.6-.8c-.877.9-1.475,1.936-2.329,2.966.1-.037.165-.226.363-.42-1.233,1.617-2.73,3.456-4.135,5.218a9.268,9.268,0,0,0,1.12-1.377c3.956-4.629,7.228-9.047,11.121-13.823a31.79,31.79,0,0,1,2.035-2.491c.047.028-.18.288-.4.538.9-.965,2-2.478,2.594-3.033.267-.3-.11.019.322-.453-.249.412.539-.648.869-1.006-.4.56-1.116,1.381-1.587,2-.061.013.079-.143.191-.276-1.22,1.47-2.573,3.249-3.955,4.931-.161.136.019-.07-.066-.057-.578.753-1.394,1.707-1.936,2.43.388-.456,1.253-1.5,1.541-1.892-.238.4-1.207,1.514-1.849,2.357-.005-.05.11-.2.164-.3-1.216,1.494-2.045,2.526-3.2,3.973.307-.276.472-.625.927-1.1a6.7,6.7,0,0,1-1.072,1.269c.015.031.117-.079.125-.038-1.013,1.181-1.949,2.509-3.053,3.8-1.894,2.223-4.867,6.041-6.963,8.629-.966,1.194-1.911,2.381-2.62,3.3a4.494,4.494,0,0,0-.676,1.024c.206-.195.335-.495.7-.86-.065.107-.181.258-.077.223.35-.425.521-.7.888-1.135-.216.3-.383.565-.732.98.266-.306,1.282-1.388,1.166-1.484a4.831,4.831,0,0,0,.665-.744,2.616,2.616,0,0,1-.467.621c.059-.041.18-.18.185-.133,1.99-2.394,4.132-5.11,6.219-7.662-.338.476-.533.829-1.04,1.446-.179.169.058-.133-.112.05-1.322,1.508-1.884,2.478-2.895,3.649-.114.12.011-.047-.04-.035-.485.6-1.007,1.23-1.383,1.736-.138.222.176-.117.165,0-1.9,2.406-3.9,4.9-5.619,7.152,0,.109.278-.23.25-.076-.507.58-.547.765-.934,1.243.007.1-.09.307.073.209,2.63-3.175,4.16-5.421,6.639-8.468.028.01.015.084.126-.039-1.6,2.034-3,3.874-4.494,5.929-.447.615-1.041,1.43-1.58,2.151a35.248,35.248,0,0,1-2.329,2.967c-.4.286-.457.038-1.193.874,0-.085-.11,0-.164,0a5.891,5.891,0,0,1-1.153,1.2,22.479,22.479,0,0,1-1.592,2.14,21.507,21.507,0,0,1-1.691,2.2c.429-.774,1.627-2.277,2.56-3.5.955-1.253,1.891-2.491,2.743-3.633a.893.893,0,0,1,.271-.207c.144-.19.057-.184.137-.319-3.241,4.1-6.143,7.87-9.1,11.768a5.045,5.045,0,0,1,.837-1.184c-.228.109-.143,0,0-.293-1.057.951-2.276,2.783-3.415,3.931-.632.852-1.157,1.613-2.1,2.727a7.06,7.06,0,0,0,.5-.74c-.568.544-1.127,1.166-1.6,1.7a37.24,37.24,0,0,0,2.317-2.979c-.246.252-.358.447-.712.851a22.991,22.991,0,0,1,1.56-2.021,1.314,1.314,0,0,0-.356.279c-.3.362-.3.462-.585.811-.013-.023-.025-.046-.113.051-.27.275.3-.5.086-.367.409-.617,1.028-1.412,1.322-1.933a3.353,3.353,0,0,0-.625.778c-.036.047-.2.189-.3.324-.972,1.258-2.065,2.77-3.166,4.149-.21.155.461-.631.572-.823-.485.543-.981,1.036-1.4,1.571.443-.631.583-1.006,1.177-1.765-.141.126-.331.4-.591.658.241-.293.156-.312.182-.425.963-1.256,1.349-2.029,2.362-3.377-.041-.106-.5.386-.434.208-.43.529-.667.685-.955,1.08.145-.209.109-.182.007-.142,1.542-1.93,2.917-3.719,3.955-5.224-1.659,1.768-2.413,3.137-4.2,5.16.183-.4.882-1.107,1.111-1.527a28.558,28.558,0,0,0,1.909-2.453c.023-.127-.384.387-.21.111.183-.223-.015-.1.381-.549-.114-.029-.752.766-.882,1-.242.2.256-.411.441-.644.013-.1-.164.111-.152.015.17-.219.248-.36.468-.622-.028.091-.324.411-.31.466.045-.025.373-.442.1-.061.382-.392.575-.818,1.093-1.4-.155.274-.61.8-.777,1.087.11-.053.3-.36.435-.5.016.031-.231.286-.178.286.3-.332.2-.321.3-.477.3-.411.582-.619.967-1.067-.141.224-.646.758-.927,1.1.389-.372,1.514-1.714,1.2-1.307a5.78,5.78,0,0,0,.745-.969,5.216,5.216,0,0,0,.8-1.064c-.092.009-.213.064-.553.4.072-.168.135-.347-.211.11a4.611,4.611,0,0,0,.27-.5,5.264,5.264,0,0,0-.567.683c-.086-.018.283-.421.441-.645a31.432,31.432,0,0,0-2.125,2.7c.8-1.284,2.983-3.942,4.25-5.7-.83.936-1.517,1.948-2.257,2.883-.056-.065.454-.611.487-.752-1.256,1.557-2.2,2.721-3.233,4.094.017-.091.3-.408.3-.478-.875.992-1.721,2.075-2.468,2.993.24-.414.962-1.237,1.256-1.7-.474.47-.579.821-1.178,1.472.242-.431.936-1.245,1.059-1.575a1.441,1.441,0,0,0-.23.241c-.071-.009.292-.383.4-.538-.038-.015-.313.351-.448.492,1.1-1.355,2.368-3.039,3.264-4.21.241-.307.11-.174.164-.3.2-.149,1.094-1.329.849-1.17-1.09,1.271-1.81,2.313-2.652,3.42.032-.067.884-1.147.539-1-.353.378-.433.5-.954,1.079-.042-.055.24-.384.269-.5-.54.63-1.042,1.2-1.415,1.559.2-.338-.086.046-.166.006.658-.732,1.171-1.422,1.436-1.691a25.39,25.39,0,0,0-2.035,2.2c0-.153-.571.332-.324-.133a4.262,4.262,0,0,0,.718-.992c-.174.085-.673.569-.39.1-.043-.093-.53.528-.612.5.409-.554,1.126-1.239,1.35-1.618.2-.264.157-.122.2-.121,1.359-1.55,2.32-2.8,3.529-4.277-.134.107-.345.338-.489.461a15.773,15.773,0,0,1,1.159-1.343c1.989-2.551,4.088-5.256,6.232-7.943,1.17-1.467,1.852-2.468,3.2-4.115,2.463-3,4.965-6.207,7.642-9.363,2.02-2.381,4.495-5.566,6.844-8.438.857-1.048,1.682-2.085,2.5-3.111-.032.117-.507.61-.44.644.677-.845,2.466-2.826,2.961-3.592-.22.174-.252.378-.552.694.171-.356.972-1.246,1.342-1.769-.511.548.676-.87,1.093-1.4,1.552-1.978,3.786-4.653,5.9-7.207,2.535-3.066,5.053-6.256,7.55-9.149-.467.74-1.973,2.435-2.217,2.916-.186.217-.1.095-.1.063-.693.927-1.482,1.853-2.427,3.026.867-.917,1.678-2.076,2.828-3.411.147-.145-.03-.118.118-.19.227-.317,0,.011.16-.159.955-1.045,1.494-1.841,2.224-2.764,1.974-2.493,4.375-5.294,6.18-7.7-.538.586-1.338,1.7-1.989,2.385.535-.667,1.056-1.433,1.745-2.155,1.986-2.711,4.5-5.613,6.989-8.607,2.609-3.137,5.192-6.382,7.957-9.675,2.668-3.176,5.313-6.337,8.049-9.594,3.822-4.549,7.515-8.925,11.182-13.332,1.39-1.669,3.061-3.6,4.411-5.271,1.294-1.6,2.431-3.132,3.817-4.61.3-.324.605-.72.927-1.1,4.883-5.787,10.557-12.571,15.659-18.547.007.078.365-.412.343-.29-5.349,6.443-10.77,12.835-16.131,19.307,3.691-4.338,9.764-11.552,13.622-16.053,1.447-1.688,2.777-3.379,3.694-4.28.2-.206.272-.4.3-.325l-.219.253c1.913-2.3,4.274-5.248,6.583-7.787.108-.136-.087.053.046-.108a24.17,24.17,0,0,0,1.757-2.143c1.432-1.652,3.346-3.9,4.766-5.548a.8.8,0,0,1,.27-.207c.284-.3.173-.267.408-.526-.036-.008-.254.277-.317.313.694-.922,1.908-2.218,2.442-3.016a5.821,5.821,0,0,0-.521.576c.269-.38.878-1.084,1.206-1.45a6.929,6.929,0,0,1-.527.718c.859-.939,2.045-2.421,3.3-3.882-.362.311-1.2,1.384-1.894,2.169.035-.151.723-.854.9-1.124a10.216,10.216,0,0,0-1.014,1.174c-.648.755-1.387,1.52-1.928,2.288-.408.578-1.372,1.668-2.191,2.646,0-.116.534-.678.656-.894a27.094,27.094,0,0,0-2.072,2.455c-.261.272.4-.6.388-.691,4.849-5.679,10.21-11.926,14.862-17.329.221-.279.185-.144.329-.3.654-.792,1.61-1.843,2.461-2.852.009.053-.335.4-.237.382-1.654,1.92-3.375,3.9-4.909,5.715.431-.372.891-.942,1.468-1.513-.349.534-.884,1.09-1.381,1.734.684-.763,1.272-1.455,2.1-2.433a18.082,18.082,0,0,1-1.224,1.578c-1.7,2.043-3.7,4.267-5.391,6.328-.032-.113.462-.531.526-.717-1.023,1.13-1.2,1.635-2.455,3-.088.029.118-.19.093-.214-1.505,1.791-2.364,2.938-3.975,4.767-.033.016,0-.058.046-.107-.64.658-1.9,2.521-2.785,3.306A15.1,15.1,0,0,1,538.166,6620.907Zm11.53-14.056c.653-.744.29-.383-.158.156-1.324,1.564-3,3.406-3.581,4.231C547.595,6609.279,548.182,6608.723,549.7,6606.851Zm.5-.446a7.261,7.261,0,0,0,.685-.874A5.914,5.914,0,0,0,550.2,6606.4Zm-3.212,3.963c.723-.9,2.235-2.558,3-3.559C548.808,6608.138,547.826,6609.275,546.984,6610.368Zm-13.347,15.707a24.011,24.011,0,0,0,1.914-2.3C534.778,6624.7,534.311,6625.236,533.637,6626.075Zm-25.071,29.453a20.243,20.243,0,0,0,1.349-1.617C509.445,6654.452,508.656,6655.383,508.566,6655.528Zm-24.708,29.62c.352-.313,1.2-1.459.889-1.137C484.58,6684.28,483.817,6685.054,483.858,6685.148Zm27.963-31.5c2.9-3.521,5.754-6.872,8.649-10.4C517.551,6646.752,514.313,6650.518,511.821,6653.653Zm6.794-7.312c.881-1.048,2.147-2.514,2.8-3.435C520.477,6644.056,519.4,6645.326,518.615,6646.341Zm-22,26.243a17.647,17.647,0,0,0,1.19-1.459A12.2,12.2,0,0,0,496.614,6672.584Zm34.214-39.272c.238-.285.645-.712.539-.706A4.255,4.255,0,0,0,530.828,6633.312Zm-13.6,15.784c.258-.346.858-.982.973-1.207A14.587,14.587,0,0,0,517.229,6649.1Zm9.757-10.318a3.805,3.805,0,0,0,.48-.609C527.263,6638.409,526.958,6638.735,526.986,6638.778Zm-12.072,14.177a6.243,6.243,0,0,0,.613-.791A6.762,6.762,0,0,0,514.914,6652.955Zm-8.794,10.269c-.089.031.117-.189.092-.213-1.484,1.96-2.32,2.827-3.777,4.644,0-.035.1-.156.105-.2-.224.31-.528.688-.729.978a8.89,8.89,0,0,0,.65-.754c.022.012-.005.065-.033.119a16.613,16.613,0,0,0,1.25-1.555c.006.024-.1.174.04.034.713-.9,2.046-2.4,2.528-3.09.269-.211,1-1.192,1.521-1.762-.253.175.1-.278-.119-.1C507.134,6662.007,506.661,6662.547,506.12,6663.224ZM492.912,6679.2c-.478.585-1.034,1.236-1.311,1.651,2.8-3.324,5.336-6.287,6.977-8.618C496.454,6674.859,494.149,6677.453,492.912,6679.2Zm-2.12,2.563c-.154.07.116-.219.065-.236l-.36.418A.661.661,0,0,0,490.792,6681.762ZM460.48,6716.94c.7-.84,1.321-1.616,2.048-2.48A23.882,23.882,0,0,0,460.48,6716.94Zm2.028-2.35c-1.012,1.264-2.709,3.356-3.763,4.655a18.223,18.223,0,0,1-1.7,2.048c.2-.239.508-.565.48-.609a11.656,11.656,0,0,0-1.461,1.96c2.4-3,4.736-5.635,6.411-7.937-.13.214-.029.1-.079.226.5-.563,1.406-1.636,1.928-2.289.019-.127-.408.464-.415.375.054-.068.143-.167.133-.181-.382.415-.4.5-.395.538-.129.084-.255.326-.3.324,0-.036.1-.156.1-.2C462.955,6714.137,462.866,6714.143,462.508,6714.59Zm2.475-2.841a12.28,12.28,0,0,0,1.218-1.439C465.728,6710.847,465.445,6711.29,464.983,6711.749Zm-53.156,62.158c.38-.443.487-.654.9-1.125C412.554,6772.777,411.7,6773.857,411.827,6773.907Zm92.4-107.047c-2.4,2.93-5.117,6.049-7.141,8.623C499.662,6672.4,502.264,6669.306,504.228,6666.86Zm-16.5,19.577c.593-.568,1.779-2.012,2.463-2.855-.087.1-.1.074-.112.05.256-.344.6-.764.8-1.062C489.807,6683.876,488.318,6685.536,487.726,6686.437Zm.251-.078c.93-1.088,2.554-3.066,2.554-3.066S488.61,6685.522,487.977,6686.359Zm-25.664,29.819c.51-.6.879-1.075,1.251-1.555C463.066,6715.209,462.574,6715.792,462.313,6716.178Zm25.019-28.911c1.607-1.87,3.579-4.153,5.293-6.267C490.792,6683.111,489.168,6684.956,487.332,6687.267Zm-27.2,31.569c-.053,0,.195-.256.177-.285a24.091,24.091,0,0,0-1.947,2.416c-.388.3-1.682,1.975-1.271,1.687,1.673-2.057,3.256-4.038,4.871-6.045C461.292,6717.4,460.616,6718.2,460.135,6718.836Zm26.256-30.479a5.481,5.481,0,0,1,.679-.733c-.107.038.22-.291.164-.3A8.688,8.688,0,0,0,486.391,6688.357Zm-6.759,8.074c.558-.689,1.175-1.338,1.626-1.965C480.721,6695.117,480,6695.921,479.632,6696.431Zm-66.381,76.948a5.538,5.538,0,0,0,.75-.817c-.059.03.017-.157-.138.027C413.757,6772.769,413.338,6773.215,413.251,6773.379Zm43.884-49.811c1.745-2.025,3.369-4.135,4.937-5.988-2.433,3.073-5.4,6.659-7.476,9.357.2-.193.322-.432.362-.419-.239.376-1,1.193-1.151,1.5,3.513-4.27,7.967-9.856,12.392-15.215a20.462,20.462,0,0,1,1.316-1.793c-.219.209-.317.411-.46.481a2.446,2.446,0,0,0,.335-.442c-1.232,1.5-2.906,3.592-4.035,4.863.151-.226.6-.706.771-.947.2-.289-.231.214-.04-.034a2.751,2.751,0,0,1,.447-.491c1.451-1.735,2.9-3.521,4.068-4.981a3.872,3.872,0,0,0,.624-.777C465.14,6713.658,460.194,6719.427,457.135,6723.568Zm21-24.919a6.393,6.393,0,0,0,.539-.705A4.22,4.22,0,0,0,478.133,6698.649Zm-4.055,4.992c.39-.556,1.607-1.834,1.863-2.346A25.035,25.035,0,0,0,474.078,6703.641Zm-57.448,66.944a10.392,10.392,0,0,0,.9-1.124A10.082,10.082,0,0,0,416.63,6770.585Zm-.434,1.091c.545-.65.886-1.127,1.211-1.59C416.906,6770.7,416.565,6771.175,416.2,6771.676Zm2.923-3.334a8.1,8.1,0,0,0,.73-.98A3.055,3.055,0,0,0,419.119,6768.342Zm15.63-16.081c.471-.557.787-.97.961-1.22A12.738,12.738,0,0,0,434.749,6752.261Zm-6.245,8.225a8.28,8.28,0,0,0,.744-.969c-.106.117-.144.123-.243.229C428.91,6759.932,428.608,6760.293,428.5,6760.486Zm-1.084,1.551c.367-.378.051.071-.067.237.854-1.039,1.526-1.924,2.442-3.017-.051-.008-.8.856-.454.34C428.588,6760.506,427.919,6761.343,427.42,6762.037Zm.724-.546c-.008-.046.257-.323.249-.369-.376.416-.392.528-.683.873.061.01.316-.292.368-.267a25.718,25.718,0,0,0,1.724-2.319C429.086,6760.227,428.711,6760.876,428.144,6761.491Zm-5.772,7.17a4,4,0,0,1,.494-.6c.169-.346.877-1.022,1.223-1.578-.367.407-.655.848-.461.481A15.761,15.761,0,0,0,422.372,6768.661Zm-11.222,13.591c.632-.738,1.189-1.413,1.784-2.12-.146.071-.628.684-.73.686C411.872,6781.28,411.335,6781.915,411.15,6782.252Z" fill-rule="evenodd"/>
      <path id="Path_13039" data-name="Path 13039" d="M444.772,6739.978a15.825,15.825,0,0,1-1.032,1.3C444.037,6740.837,444.366,6740.5,444.772,6739.978Z" fill-rule="evenodd"/>
      <path id="Path_13040" data-name="Path 13040" d="M532.978,6630.338c.234-.285-.388.5-.552.694C532.33,6631.038,532.808,6630.557,532.978,6630.338Z" fill-rule="evenodd"/>
      <path id="Path_13041" data-name="Path 13041" d="M515.83,6645.987c-2.807,3.453-4.762,5.887-7.871,9.6a2.4,2.4,0,0,1-.329.3c-1.083,1.355-2.455,2.919-3.672,4.442A30.808,30.808,0,0,1,502,6662.74c-.317.331-.462.468-.895.984-.774.921-1.781,2.112-2.626,3.149-.407.5-.739.959-1.106,1.389-.171.2-.3.316-.448.492a32.521,32.521,0,0,1-3.1,3.619c-.607.779-1.228,1.464-1.844,2.216-.345.421-.642.849-1.032,1.3a36.729,36.729,0,0,0-2.687,3.246c-1.872,2.293-3.628,4.067-5.172,6.073-.105.136.009.017.086-.073-.659.784-2.539,3.212-3.523,4.136a7.448,7.448,0,0,1-.861,1.159c-.089.03.118-.191.092-.215-.772.977-1.259,1.474-1.744,2.156.033-.062.064-.122-.027-.023-.87,1.263-2.243,2.794-3.514,4.286-.436.512-.738.958-1.165,1.483-.144.179-.177.153-.316.313-.338.391-1.277,1.647-1.935,2.43-.6.718-1.131,1.326-1.71,2.034-.188.226-.256.26-.271.208-.316.373-.5.634-.842,1.029a1.319,1.319,0,0,1-.138.32c-.264.285-.13.057-.066-.057l-.506.586c-.158.188-.123.21-.08.227-1.446,1.762-2.254,2.884-4.067,4.98-.22.279-.183.143-.33.3a27.622,27.622,0,0,0-1.73,2.166,18.375,18.375,0,0,0-1.52,1.762c.02.086.172-.221.315-.312-.059.14-.437.55-.611.788-.089.031.118-.19.092-.213-.121.185-.433.532-.54.705.028,0,.143-.142.23-.239a34.742,34.742,0,0,1-2.9,3.5c-1.676,1.961-3.11,3.717-4.441,5.387-.1.118-.027.1-.02.13-.555.646-1.271,1.617-2.106,2.574a15.628,15.628,0,0,0-1.389,1.583c.257-.158.577-.755.75-.817-.894,1.057-1.8,2.281-2.731,3.353a13.37,13.37,0,0,0-1.685,2.059c-.932,1.288-2.324,2.769-3.468,4.179-.19.247.242-.255.039.035-1.03,1.271-2.07,2.54-3.191,3.831.026,0,.142-.142.229-.239-1.916,2.335-4.939,6.186-7.4,8.981-1.758,1.993-3.439,4.2-5.172,6.367-.577.722-1.15,1.493-1.691,2.2-1.544,2.019-3.143,4.1-4.349,5.76-.223.206-.642.728-.956,1.081a62.839,62.839,0,0,1,4.014-5.318c.087-.128-.051.014.106-.2.308-.376-.032.09.17-.144.275-.391.787-.983.922-1.255,1.534-1.756,2.613-3.35,3.989-5.05,2.581-3.189,5.494-6.627,7.989-9.792,5.289-6.329,10.143-12.58,15.472-19,.952-1.146,2.1-2.488,2.805-3.436.806-.905,1.8-2.138,2.381-2.92,4.834-5.852,9.85-12.094,14.974-18.26,3.266-3.93,6.179-7.372,9.141-10.993,1.169-1.43,2.411-2.809,3.6-4.219,1.462-1.743,2.946-3.591,4.553-5.437s3.307-4,5.035-6.048c.4-.479.835-.958,1.231-1.426,1.824-2.157,3.585-4.442,5.233-6.172a.888.888,0,0,0,.223-.392c1.528-1.614,2.973-3.607,4.265-5.1-.113.193.033-.009.112-.05.806-1.036,1.45-1.751,2.771-3.318a3.05,3.05,0,0,1-.408.527,6.365,6.365,0,0,0,.783-.934c.776-.829,1.529-1.912,2.541-3.078-.5.707,1.529-1.815,1.783-2.12.309-.372.069-.04.3-.325.033-.062.064-.122-.026-.023C512.97,6649.394,514.4,6647.658,515.83,6645.987Zm-50.565,60.733a17.528,17.528,0,0,0,1.177-1.472C465.944,6705.828,465.547,6706.323,465.265,6706.72Z" fill-rule="evenodd"/>
      <path id="Path_13042" data-name="Path 13042" d="M537.315,6621.2c-.51.7-1.192,1.441-1.975,2.4a9.878,9.878,0,0,1,1.224-1.579c.3-.3-.347.4-.263.358C536.81,6621.874,536.762,6621.821,537.315,6621.2Z" fill-rule="evenodd"/>
      <path id="Path_13043" data-name="Path 13043" d="M545.71,6612.78a8.406,8.406,0,0,1-.612.789C544.977,6613.67,545.4,6613.12,545.71,6612.78Z" fill-rule="evenodd"/>
      <path id="Path_13044" data-name="Path 13044" d="M535.148,6625.767a20.753,20.753,0,0,1,1.7-2.047c-.017.112-.439.568-.514.729C536.351,6624.286,535.438,6625.36,535.148,6625.767Z" fill-rule="evenodd"/>
      <path id="Path_13045" data-name="Path 13045" d="M551.944,6606.3c-.609.8-1.2,1.391-1.928,2.289-.027-.023-.215.214-.2.122a17.934,17.934,0,0,0,1.231-1.427c0,.026-.06.1-.045.107l.362-.421C550.833,6607.457,551.662,6606.65,551.944,6606.3Z" fill-rule="evenodd"/>
      <path id="Path_13046" data-name="Path 13046" d="M540.662,6619.4c-.108.178-.121.162-.019.13-1.585,1.779-2.341,2.853-4.028,4.721C538.005,6622.516,539.1,6621.295,540.662,6619.4Z" fill-rule="evenodd"/>
      <path id="Path_13047" data-name="Path 13047" d="M521.963,6641.179c.009.068-.414.5-.466.62C521.328,6641.959,521.894,6641.225,521.963,6641.179Z" fill-rule="evenodd"/>
      <path id="Path_13048" data-name="Path 13048" d="M459.453,6713.855l.289-.335c.118-.04-.3.373-.322.454C459.159,6714.248,459.617,6713.737,459.453,6713.855Z" fill-rule="evenodd"/>
      <path id="Path_13049" data-name="Path 13049" d="M550.3,6609.276c-.016-.025-.085,0,.018-.129.255-.268.267-.145.645-.614C550.783,6608.847,550.578,6608.92,550.3,6609.276Z" fill-rule="evenodd"/>
      <path id="Path_13050" data-name="Path 13050" d="M536.788,6624.989c.054.056.345-.454.4-.385-.342.38-.387.508-.7.862l-.039-.034c-.675.767-.771,1.043-1.454,1.818-.1.036.067-.147.007-.141.9-1.076,1.723-2.092,2.526-3.088A9.084,9.084,0,0,1,536.788,6624.989Z" fill-rule="evenodd"/>
      <path id="Path_13051" data-name="Path 13051" d="M522.945,6641a8.1,8.1,0,0,1-.625.778A9.239,9.239,0,0,1,522.945,6641Z" fill-rule="evenodd"/>
      <path id="Path_13052" data-name="Path 13052" d="M559.424,6599c-.048-.019.187-.278.152-.308-.308.365-.773.865-.671.884a14.346,14.346,0,0,0-1.034,1.011c.252-.351.929-1.025,1.534-1.751-.464.435.513-.633.242-.228,1.048-1.18,1.553-1.862,2.364-2.792C561.3,6596.795,560,6598.162,559.424,6599Z" fill-rule="evenodd"/>
      <path id="Path_13053" data-name="Path 13053" d="M542.562,6618.4c-.731,1.021-1.837,2.221-2.772,3.318-.477.56-.869,1.083-1.363,1.606.688-.876,1.546-1.9,2.31-2.836-.392.569.2-.233.29-.336C541.475,6619.617,541.964,6619.088,542.562,6618.4Z" fill-rule="evenodd"/>
      <path id="Path_13054" data-name="Path 13054" d="M544.984,6616.4c-.04-.014-.165.225-.361.418.06-.042.18-.181.184-.133-.137.135-.446.482-.205.264-.078.113-.578.693-.671.885-.36.163.434-.775.869-1.3.614-.742,1.678-1.947,2.435-2.876.154-.192.129-.1.244-.229.318-.351.252-.378.54-.706-.031.148.329-.333.415-.374a55.246,55.246,0,0,1,3.58-4.228c-1.537,1.76-2.69,3.266-3.871,4.565-.081.1-.036.091-.031.117-1.273,1.421-2.026,2.473-3.337,4C544.734,6616.761,545.052,6616.417,544.984,6616.4Z" fill-rule="evenodd"/>
      <path id="Path_13055" data-name="Path 13055" d="M553.33,6606.621a.9.9,0,0,1-.243.229,7.131,7.131,0,0,1-.711.85A5.983,5.983,0,0,1,553.33,6606.621Z" fill-rule="evenodd"/>
      <path id="Path_13056" data-name="Path 13056" d="M528.865,6635.131c.54-.631.68-.8,1-1.185A6.606,6.606,0,0,1,528.865,6635.131Z" fill-rule="evenodd"/>
      <path id="Path_13057" data-name="Path 13057" d="M552.437,6607.9c.069-.08.071-.05.1-.06.25-.257.013-.1.263-.358l.039.034C552.634,6607.754,552.445,6607.972,552.437,6607.9Z" fill-rule="evenodd"/>
      <path id="Path_13058" data-name="Path 13058" d="M520.145,6645.611c-.131.145-.189.172-.2.122a10.018,10.018,0,0,1,.882-1A10.11,10.11,0,0,0,520.145,6645.611Z" fill-rule="evenodd"/>
      <path id="Path_13059" data-name="Path 13059" d="M533.3,6630.9c.035-.026-.977,1.215-1.481,1.8C532.175,6632.216,532.716,6631.577,533.3,6630.9Z" fill-rule="evenodd"/>
      <path id="Path_13060" data-name="Path 13060" d="M521.7,6644.61c.194-.2-.3.545-.35.432C521.5,6644.828,521.667,6644.684,521.7,6644.61Z" fill-rule="evenodd"/>
      <path id="Path_13061" data-name="Path 13061" d="M417.287,6766.029c.2-.048-.489.724,0,0Z" fill-rule="evenodd"/>
      <path id="Path_13062" data-name="Path 13062" d="M540.243,6623.871c-.026.143-.706.839-.9,1.125C539.24,6625.051,540.035,6624.153,540.243,6623.871Z" fill-rule="evenodd"/>
      <path id="Path_13063" data-name="Path 13063" d="M410.166,6774.816c-.068.023-.217.175-.224.1.393-.447.782-.888,1.112-1.234-.234.351-.635.82-.888,1.135.012.056.394-.482.329-.3-.184.195-.558.664-.335.441-.148.226-.521.535-.881,1C409.266,6775.808,409.96,6775.09,410.166,6774.816Z" fill-rule="evenodd"/>
      <path id="Path_13064" data-name="Path 13064" d="M527.493,6638.779c.128-.169,1.187-1.444,1.375-1.594a21.256,21.256,0,0,1-1.408,1.712C527.4,6638.926,527.71,6638.542,527.493,6638.779Z" fill-rule="evenodd"/>
      <path id="Path_13065" data-name="Path 13065" d="M505.5,6665.035a5.194,5.194,0,0,1-.466.621C504.91,6665.776,505.26,6665.3,505.5,6665.035Z" fill-rule="evenodd"/>
      <path id="Path_13066" data-name="Path 13066" d="M508.631,6662.319c-.184.172-.572.786-.809.911,1.408-1.644,2.4-2.937,3.832-4.6.41-.49.273-.269-.061.1-.825,1.007-1.684,2.044-2.54,3.078a8.324,8.324,0,0,0,.594-.662c-.233.363-.841,1.044-1.338,1.63C508.33,6662.694,508.639,6662.373,508.631,6662.319Z" fill-rule="evenodd"/>
      <path id="Path_13067" data-name="Path 13067" d="M514.194,6655.847c-.131.3-.679.821-.862,1.158.059-.009.409-.448.348-.43a17.278,17.278,0,0,1-1.329,1.781c-.1.036.069-.149.007-.142-.06-.016-.366.509-.388.4.207-.232.433-.5.709-.848-.059.041-.178.179-.184.133C513.286,6656.984,513.486,6656.642,514.194,6655.847Zm-1.323,1.639c.028.014.025.054-.019.129.231-.248.251-.318.421-.515-.01-.049-.068-.021-.2.122A1.188,1.188,0,0,1,512.871,6657.486Z" fill-rule="evenodd"/>
      <path id="Path_13068" data-name="Path 13068" d="M511.4,6659.293c.032.014.226-.294.435-.5-.494.743-1.554,1.887-2.173,2.811.054,0,.276-.269.285-.2a12.356,12.356,0,0,1-.955,1.079c-.058-.01.122-.224.065-.236-.223.287-.359.5-.514.729-.231.287-.143.111-.111.049-.461.641-1.582,1.925-1.962,2.407-.182.207-.066-.013-.053-.045-.714.821-1.771,2.258-2.165,2.669-.246.228.159-.284.138-.321a9.008,9.008,0,0,0-.914,1.113c.118-.085.118-.2.361-.418.12-.049-.2.278-.335.441.016.04.263-.292.374-.407-.185.255-.415.548-.683.873-.053,0,.194-.255.177-.286-.245.267-.936,1.1-1.146,1.354.255-.253.132-.056-.176.285.351-.511-.652.739-.837.89-.12-.221,2.154-2.569,2.567-3.349.384-.431.563-.687.843-1.03-.18.148-.556.612-.764.8.7-.876,1.32-1.552,2.027-2.349-.012-.057-.394.481-.329.3.893-1.008,1.3-1.59,2.073-2.455-.639.884-1.63,1.963-2.272,2.872a9.165,9.165,0,0,0,1.238-1.567c.088-.058.679-.64.548-.555.146-.2.877-.885.841-1.028,1.215-1.467,2.69-3.272,4-4.744C511.93,6658.636,511.506,6659.1,511.4,6659.293Zm-2.29,3c.261-.281.258-.339.494-.6-.009-.04-.111.07-.126.038l-.362.42C509.293,6662.053,509.1,6662.221,509.114,6662.294Z" fill-rule="evenodd"/>
      <path id="Path_13069" data-name="Path 13069" d="M410.376,6776.9c0-.033.372-.406.579-.67-.152.146-.288.266-.474.469a12.452,12.452,0,0,1,.869-1.007,2.815,2.815,0,0,0-.245.23c.218-.327.458-.411.9-.985A18.627,18.627,0,0,1,410.376,6776.9Z" fill-rule="evenodd"/>
      <path id="Path_13070" data-name="Path 13070" d="M508.3,6663.934c.042,0-.856,1-.8,1.063-.21.229-.4.419-.607.65-1.676,2.061-3.7,4.442-5.6,6.728-.963,1.16-2.072,2.445-2.731,3.352-.374.323-.83.979-1.258,1.4C500.809,6672.911,504.844,6668.057,508.3,6663.934Z" fill-rule="evenodd"/>
      <path id="Path_13071" data-name="Path 13071" d="M466.418,6713.132c-.443.5-.493.659-.988,1.2A12.367,12.367,0,0,1,466.418,6713.132Z" fill-rule="evenodd"/>
      <path id="Path_13072" data-name="Path 13072" d="M487.237,6689.087c-.472.665-2.134,2.573-2.481,2.982C485.321,6691.3,486.5,6690.007,487.237,6689.087Z" fill-rule="evenodd"/>
      <path id="Path_13073" data-name="Path 13073" d="M473.415,6705.558c1.618-1.744,2.7-3.322,4.509-5.332-1.925,2.361-4.053,4.893-6,7.269C472.158,6707.074,473.361,6705.83,473.415,6705.558Z" fill-rule="evenodd"/>
      <path id="Path_13074" data-name="Path 13074" d="M471.639,6707.831c-1.736,2.19-3.719,4.562-5.462,6.7-.081.045.4-.578.486-.751C468.557,6711.731,469.615,6710.152,471.639,6707.831Z" fill-rule="evenodd"/>
      <path id="Path_13075" data-name="Path 13075" d="M409.768,6780.033c.341-.507.83-1.14,1.328-1.779C410.761,6778.755,410.264,6779.4,409.768,6780.033Z" fill-rule="evenodd"/>
      <path id="Path_13076" data-name="Path 13076" d="M411.5,6778.161l-1.48,2.089A20.72,20.72,0,0,1,411.5,6778.161Z" fill-rule="evenodd"/>
      <path id="Path_13077" data-name="Path 13077" d="M443.168,6742.692c-1.08,1.345-1.631,2.164-2.784,3.6-.04,0,.047-.1.034-.12-.232.249-.25.317-.421.515.086-.02.141-.189.289-.335-.5.819-1.3,1.539-2.251,2.742C439.633,6747.056,441.467,6744.818,443.168,6742.692Z" fill-rule="evenodd"/>
      <path id="Path_13078" data-name="Path 13078" d="M443.576,6742.46c-1.115,1.411-2.106,2.717-3.46,4.33C441,6745.573,442.483,6743.852,443.576,6742.46Z" fill-rule="evenodd"/>
      <path id="Path_13079" data-name="Path 13079" d="M435.783,6751.543a9.493,9.493,0,0,1-.8,1.064C434.828,6752.7,435.444,6751.945,435.783,6751.543Z" fill-rule="evenodd"/>
      <path id="Path_13080" data-name="Path 13080" d="M439.549,6747.474c-.686.882-1.422,1.806-2.3,2.848C437.817,6749.543,438.781,6748.425,439.549,6747.474Z" fill-rule="evenodd"/>
      <path id="Path_13081" data-name="Path 13081" d="M436.41,6751.351c-.374.5-.888,1.115-1.4,1.725C435.419,6752.552,435.844,6752.012,436.41,6751.351Z" fill-rule="evenodd"/>
      <path id="Path_13082" data-name="Path 13082" d="M434.942,6753.16c-.544.747-1.506,1.847-2.152,2.68C433.116,6755.368,434.16,6754.093,434.942,6753.16Z" fill-rule="evenodd"/>
      <path id="Path_13083" data-name="Path 13083" d="M411.38,6781.425a16.184,16.184,0,0,1-1.093,1.4C410.513,6782.475,410.982,6781.92,411.38,6781.425Z" fill-rule="evenodd"/>
      <path id="Path_13084" data-name="Path 13084" d="M420.767,6771.376c-.439.665-1.3,1.686-1.881,2.474C419.144,6773.428,420.172,6772.158,420.767,6771.376Z" fill-rule="evenodd"/>
      <path id="Path_13085" data-name="Path 13085" d="M422.309,6770.363a6.46,6.46,0,0,1-.539.705c-1.011,1.4-2.122,2.87-3.172,4.29-1.033,1.4-1.977,2.809-3.369,4.412C417.594,6776.631,419.614,6773.783,422.309,6770.363Z" fill-rule="evenodd"/>
      <path id="Path_13086" data-name="Path 13086" d="M543.216,6615.456c.063.032-.116.126-.192.276a6.483,6.483,0,0,0,.842-1.03c-.118.281.666-.7.935-.95-.007.075-.252.35-.138.32-1.636,1.908-3.191,3.767-5.073,6.014.059-.042.178-.18.183-.133-.279.32-.519.628-.4.385-1.553,1.768-3.065,3.536-4.014,4.732-.234.256-.188.064-.324.162.726-.858,1.6-1.891,2.653-3.127a3.516,3.516,0,0,1-.467.621c.449-.434,1.542-1.781,2.171-2.516-.155.031-.442.47-.677.731-1.334,1.483-3.235,3.655-4.8,5.514,1.7-2.115,4.622-5.421,6.884-8.111.028-.055.054-.106.032-.118C541.782,6617.109,542.3,6616.554,543.216,6615.456Z" fill-rule="evenodd"/>
      <path id="Path_13087" data-name="Path 13087" d="M546.852,6613.326l.04.035.361-.419c0-.062-.322.388-.256.217l.434-.5c.1-.085.049-.014.04.035.353-.427.573-.639.882-1-.882,1.113-1.81,2.115-2.652,3.127-.117.039.267-.347.408-.526.093-.18-.345.348-.112.05C546.146,6614.121,546.57,6613.663,546.852,6613.326Z" fill-rule="evenodd"/>
      <path id="Path_13088" data-name="Path 13088" d="M525.508,6638.381c-.355.54-1.49,1.83-1.917,2.3a3.062,3.062,0,0,1,.64-.768c.123-.15.141-.21.091-.213A16.848,16.848,0,0,1,525.508,6638.381Z" fill-rule="evenodd"/>
      <path id="Path_13089" data-name="Path 13089" d="M543.589,6618.417c-2.2,2.725-5.144,6.189-7.272,8.8,0-.033.136-.175.119-.192-.3.3-.572.762-.665.744C538.288,6624.728,540.71,6621.765,543.589,6618.417Z" fill-rule="evenodd"/>
      <path id="Path_13090" data-name="Path 13090" d="M519.262,6649.386c-.171.213-.451.552-.858,1.02.043,0,.156-.119.318-.315-.041.178-.707.762-.824.9a43.125,43.125,0,0,1,2.824-3.272c.2-.276-.331.362-.27.206,1.614-2.042,3.453-4.123,5.194-6.206,4.12-4.932,8.251-9.979,12.32-14.837-2.848,3.6-6.269,7.654-8.99,10.978-1.558,1.9-3.224,3.819-4.884,5.74-.641.885-1.889,2.271-2.56,3.206-.731.853-1.394,1.647-2.073,2.456C519.257,6649.5,519.185,6649.506,519.262,6649.386Z" fill-rule="evenodd"/>
      <path id="Path_13091" data-name="Path 13091" d="M501.406,6671.012c-.427.588-1.13,1.409-1.745,2.155C500.128,6672.561,500.768,6671.687,501.406,6671.012Z" fill-rule="evenodd"/>
      <path id="Path_13092" data-name="Path 13092" d="M503,6670.047c.052.063.186-.209.344-.292-.19.236-.593.653-.64.768-.146.055-.252.246-.606.649C502.136,6671.019,502.854,6670.29,503,6670.047Z" fill-rule="evenodd"/>
      <path id="Path_13093" data-name="Path 13093" d="M502.025,6671.256c-.6.9-2.2,2.658-3.02,3.688C499.546,6674.124,501.122,6672.307,502.025,6671.256Z" fill-rule="evenodd"/>
      <path id="Path_13094" data-name="Path 13094" d="M468.88,6710.279c-.9,1.2-2.258,2.871-3.211,3.962C466.437,6713.2,467.761,6711.674,468.88,6710.279Z" fill-rule="evenodd"/>
    </g>
  </g>
</svg>
