<svg xmlns="http://www.w3.org/2000/svg" width="1717.877" height="845.819" viewBox="0 0 1717.877 845.819">
  <path id="map" d="M1594.338,4615.682l-4.293.5-1.132,1.154-1.132-1.154-4.748,3.493c-.908,1.309,5.881-1-2.691.513l5.426,1.472-8.145,3.171,2.02-2.339c-.434-1.151,7.447,3.17-3.153-1.151l-1.6,2.319c-1.126-.334-.419,3.156-2.266-.831l-1.1.831,3.362,2.5-3.825,2.642,6.559,1.68h1.586c1.35.659-4.091,4.31,2.7,1.651-1.35.176-3.153,1.183,0,3.153-1.134,0-4.286.513,0,3.171v1.154l-1.134.849-1.566-2.339-4.32-1.315-6.089,3.321c-.673.333-2.482.157-1.589,1.967l3.853-5.959-6.573,1.473-2.243,2.852c-1.35-.673-1.8,1.827-3.153.319l-.461,3.651-10.866,2.835-3.377,4.327-8.137,2.834-2.027,3.651-4.532,2.659-2.027-.674-1.126.334-1.588,3.654-2.264,2h-5.4c-1.826.512-.476,1.984-3.853,3.156l1.111,2.834-3.823,1.491-7.013,6.485-2.006.656-1.155,2.833c.463.322,1.155-2.5,1.595.835,1.126.161,1.8-2.178,3.153.319l-3.153,1.985c-2.048.194,8.355-3.97-2.265,2.018l-1.574,2.5c-4.985,0,9.256-8.166-5.873,2.819l-2.727-.515c-.679-.656,3.614,0-1.587-.831l-1.805,3.665,3.854-1.165.679,1.165.887.838-2.027,1.168,2.027,1.151-.887,1.171,3.586-.659,1.132-.831.7.319-2.265,1.665,1.132,1.169-2.7,1.171c.208.5,1.124-1.171.44.831l-2.706-1.665v3.314l-4.754,2-2.712-.515-4.986,3.171v1.985l-5.4.835-1.593,1.662,1.132,1.157-7.244,4-3.614-2.322-4.97,3.97,2.727,2-1.595.673c-3.174-1.508,6.789-3.156-2.7-.673.432,0,.656-.32,1.132-.5l-1.132-.832-2.266,1.33v1.171l2.7.336-2.7.477.656,1.171-2.7.847v.674h3.622l6.118-3.5h4.278l8.587-4.822,3.83,1.648,4.308-3.315,6.1.835c1.126.158,3.391-.483,0-2.342v-1.148l10.181-4.8c4.054,0-1.61-4.676,6.1-3.171l1.572-1.346-1.572-.659,3.181-2.48h3.37l3.161-2.834,10.411-7.481,1.565-.512,5.441-5.124,3.138-.867,1.126-1.985-2.7-1.473c1.14-2.339,1.35.993,4.293-.512l-1.111-2.322,1.781-2.322h8.146l.916-.834-.916-.829,3.182.829,2.7-.829c.453,1.309-4.056-1.346,2.265.319l-1.14-4.324c-.671-.146,3.839-1.476-1.58-.322l6.336-3.666,11.97-5.141,3.4,1.487,3.161,3.654h1.587c-.455-4.163,3.615-1.168,7.669-4.822l1.6,1.168-1.6,1.971,6.567-1.151.438-1.49,5.88-2.819,9.264-5.991,8.825-2,8.593.351,1.119.834-7.684,3.97,5.439-.319-1.586.67,5.858,1.989-.448,2.5-5.41,1.153-2.721,2.82-1.572-.834-6.089,2.339c.209.337,1.348.671.649.832l-6.529.834c-.239-.676-2.056-.351-1.155,1.663h2.712l-1.557,1.154h-3.182l-9.271,4.321-10.844,7.144,2.041,1.347,1.818-.834-5.426,3.99v.814l-3.4-2.465-2.7,1.97,2.7,1.681a1.427,1.427,0,0,0-1.587,1.473l3.146,2.017c-3.385,4.486-9.7,6.968-14.012,9.305l-10.844,6.309,8.6-6.8c.893-1.5,7.013.671,1.811-2.834l-8.8,4.819-5.881,6.5h2.02c-1.371.322,14.222-4.834-3.152,2.644l-.484-2-3.377,2.819,1.126.835,1.119-1.157-2.245,3.174c.463-.161,2.727-.336.679-1.666H1542.8l-.432,1.985-13.1,11.644-3.861,1.649-.455,2.017-3.375,2.307c-.918-.834,4.963-.834-2.05-1.153v2.322c4.509,4.98,4.748-8.986.463,5.155l-8.145-.336h-3.153l-1.134,1.988-1.586-.817-2.266,2.82,5.433,3.665,3.838-1.985v2.644l-2.7,1.681,1.566,1.985c0-1.154,2.048-1.33,2.7-4.006l1.155.835,1.587-.5v-2.325l-1.587-1.153,1.111-3.171,4.322.322-2.714,4.321,2.714-.638c.447-1.01,6.089-2.5,1.558-4l6.581-2.817c.887.638-3.19.831,1.125,1.487l1.119-1.168-3.377-1.985-1.133.817-.924-2.307,4.754.656,1.588-.656c.455-.674-10.844,6.131,5.418.322l.672-2.837,2.027-1.154,3.4-.319,1.134-2.851,4.314-.815,2.02-3.171,1.811-.5.887-2.3,1.162.82,5.389-3.174c-.434-1.151-2.475,3.174.707-1.648l1.558.336,1.572-3.171,2.72-.817,1.589-2.336,4.314-1.154.648-1.985,3.861-.515,2.719-2.337c2.027.513-8.146,3.33,3.607-.319,0,0,2.266,0-.476-.834l2.295-3.156,3.586-1.329,3.853-3.171.671-1.151,5.879-2.82,1.595-2.851,6.992-3.473v-2.005h3.391l3.853-2.817h2.027v-1.666h.671c.237.322,1.155-.674.461.831l1.132-.831-1.132-.674,5.873-2.819,2.259.325c-.209,3.168,3.846-3.139,0,2.831l3.167,3.154h-.9v1.666l-3.846-.832-6.1,4-2.719-1.665h-.441v2.5c-1.132.161-2.259-.673-3.167.319l3.609,1.666,3.852-1.666c5.636,2.82-12.893-2.483,7.684,2.82l2.027-3.974,1.8,3.654c-1.8,4.325-1.8-.161-11.97,2.656l-10.388,6.825-1.595,1.648-4.307,2.322-.65,2.5-5.88,2.655-2.264,3.654-7.439,3.171-1.14,2-.447-.337-10.411,6.312h-1.111v1.184c-1.392,1.314-5.881,2.306-4.314,3.65l-7.684,3.973c-2.719,1.681-4.069,2.161-6.984,5.668h4.956l8.146-3.331c2.243-.992,0,7.158,2.006-3.171l1.825,1.186-4.523,4.485-3.182,1.151-1.1,5.159-3.859.831-21.017,15.951-1.589.835v.828l.916.677,7.678-3.508,2.251-2.483,5.88-3.49,2.719-2.819c1.148-.512,2.936-1.33,3.852-.352l-3.852,3.491c-.245,0-3.607-1.986-1.595,1.665l-4.278,1.505-9.956,6.471c-.21,1.182,7.466-4.8-.888,3.168l-2.266-1.664-3.853,2,.694,1.33-5.419,2.31c2.474,2.175,5.852-4.969-5.418,0l-1.132,3.168-6.559,3.683-24.855,14.78-9.279,5.141-16.955,10-5.4,1.985-7.014,3.49c-.455-1.344,9.041-2.659-3.831,1.988l-3.182,2.5,3.182.336c-2.048-1.168-.916,1.171-4.307,1.974l-1.141-1.157-5.41,4.357c-1.595.8-.679-3.684-4.748,3.3l.455,1.185-3.831,1.985,1.111-3.17-2.027.319-2.259,3.17,1.125,2.5-3.4,1.165-2.7,1.49-14.451,7.639-1.833,1.171,4.532-.834,10.844-4.321.909-1.989,5.419-1.984,4.97-.352,7.005-3.332,3.853-.641.432-2.5,7.692-2.322,3.854-2.838c.216-.831-4.986,3.655,1.132-1.665l2.7,1.665,2.05-1.665-2.721-.671,2.266-1.666,1.111,2,4.3-1.649,3.182-3.174,2.7-.319,1.574-2.834,5.439-1.171,1.134-1.663,6.99-2.819,6.12-3.491c.44-1.153-8.621,5.813,4.293-2l-1.163,2.322,1.163.849,1.1-1.648,4.322,1.311v-2.834l-2.265-1.153c.67-.99-7.238,4.643,2.265-1.649l9.705-6.822,3.852-.337,2.72-3.153,2.714-.515.447-1.5c.679-3.3,6.992,3.17,7.229-2.806l.463-2,2.691-.48-1.126.8c1.126.352-.44-1.988,1.588.512l1.8-1.314-1.126-.67,8.139-5.672,2.7-.831,1.581-2.322c2.251.834,5.217-2.837,6.558,0v-4.822c1.35-2.3,2.027,3.815,6.559-2.3l1.586.319.434.322,1.14-.641-1.574-1.343.434-1.5,4.314-1.157v-1.344l4.509,1.344c1.132-.176-2.943,2.981,2.05-.846l-2.727-1.973,9.277-4v-2.819l4.957-1.985,1.58-2.34,5.873-2.5,6.573.831.44.319-.44,2.006-4.307-.659-2.266,1.985c1.371,4.325-1.348-1.666,6.573.355l-.455.831,1.589,1.154c.432-.512,6.305,3.651,2.027-2.34h4.509l-1.79.674-1.587,3.314c-.237-.5,2.7.814-1.132-.5l-.9.832.9,2.339-.463,2.819h-1.132v2l2.258,1.652,3.167-4.486,4.978,1.329-2.712,2.322-4.293.319c-.216.516,2.943-2.641-.671,1.344l-1.595-1.344-5.418,2.021h-3.159v2.816l-3.825,1.168-1.587,1.649-6.125.834-.434,1.508-8.145,3.985,2.05-3.157c.648-.175,0,1.989-2.742.5-.895-.339,5.881,4.322-.44-2.482l-4.964,1.981-.909.835,5.418.832-3.377,3.493v1.985l3.832-1.154-3.182,2.5-3.362,1.15-5.433-2,2.7-1.652,1.14-1.168-1.14-.337-10.159,5.478c-1.811-.161,10.866-1.312-3.859,2l-5.4,4.819-12.432,6.31-1.14.846c.686-.334,1.14.819,1.6.5l-15.838,8.31-1.586,1.171.7,2.82c1.35.158-4.314,1.662,1.566-1.154l-.679-1.189c.463-.814-6.089,4.327,4.509,0l-.656-1.648,8.8-2.834,6.342-6.31,11.514-6.485-.677-.337,5.425-1.985,2.266-3.157,5.881-2c.685,2,7.9-6.309,0,3.156l.685.337-.685,1.985-3.616.513-4.963-.513-1.134.832,2.266,2.02,3.132-.352-9.713,2.832.455,1.49c-1.126.48,6.342.993-2.719-.336l-6.313,2,3.613.834c0,.319.223.99-1.586.671.67,0,3.852-2.336,1.132,1.988.677-.673,4.069-3.493-4.286-.673l-.679.351,2.237,1.649-4.264-.5-6.573,4.819v1.171h-1.132c-1.79.638-6.992-.176-4.272,3.154l-2.72,1.328v1.491l-2.72-.34-.434,1.171-6.571,3.666-.679,2.307-7.475,3.171-1.1.831,1.579.835h-1.579l-16.754,9.466-3.831,3.346-7,3.139-1.817,1.168.677,1.171,1.589-1.171,1.132.832,14-6h3.391l17.179-9.129c.238-2.644,3.16,1.665,2.265-1.33l15.131-6.646-9.258,7.159-2.027,2,8.586-.515c.224-1.165,1.8,3.654,2.266-2.656l3.152,1.491-7.468,3.984v1.154l-3.831,1.681v1.153l-1.566-1.153-1.825.322-.9,1.329,1.587.67-.685.835c-4.531,1.666,7.7,3.156-4.272.831l-2.048,3.654.895,1.166c1.154-.158,4.068.658,2.265-2,1.581.834,3.161.19,4.287,0l-1.126-.831-.44.336c.649-2.166-8.579,3.153,3.152-1.171l-1.586,3.666,6.571.834c-3.4-.834,1.8,4.661,0-2.483h-2.257a3.444,3.444,0,0,1,5.418.817l8.116-1.663.7-2.644v1.473l8.118.512,1.594-1.344h3.83v-2.306c2.958-2.5.686,1.984,3.182,1.984l1.134-.831,2.7.831,1.125-1.666,10.845-1.168.469-1.153,2.712.831,3.832-1.165,8.572-.483,2.272-2.018c-1.132-.319-2.7,2.179,2.7.835l1.14-.835.476.513-3.852,1.988v1.487h5.41l2.706-2.834-1.572-1.154,10.411-1.984-.694-.32,2.259-1.185,2.266.67c1.811,1,3.838-1.165,5.873-.351-.216.67,2.027-.319-.455.866.455.161.9-.354,1.587.32l.463-2.322,6.992-1.169v-2.819L1621,4826.8l4.748-.835-1.134-1.665,3.4-3.154h2.027l2.714.5,3.838-2.5,1.132,2,3.832.5c.468.161-5.636,1.476,1.132-2.5l-3.391-.828c.469-.325-3.14.99,1.125-1.156l-3.831.479v-3.648l1.595-.834,6.558.512,4.949-3.331c1.834,1.01,3.615-.513,5.441-1.151l1.111.829,3.643-3.169.65-2,2.056-1.648,8.139-1.154c-1.358-.67,1.781-3.332-3.189-2.337l4.97-2.02-.649-.48,2.7-1.171,8.81-6.805c-.216-.67-3.608.835-.672-2l4.972.831,3.854-3.987-3.406-1.168s3.161,0-1.132-1.172l8.816-6.471v2.5l6.565-.834c.887.163-6.131,2.149,2.719.834l-1.832-4.005-2.02.325h-1.14l3.16-3.142,3.391.832,4.756,1.985,1.125-.832-4.285-2.819,7.692-4.325-1.14-1.663-2.721-.322h-1.1l4.965-2.819c2.02,1.315-4.755.644,2.02,1.973l5.419-1.973-2.021-2.834,3.146-2.832-2.258-2.307v-1.186l1.134,1.506c3.391-4.676,3.831,2.658,11.976-2.337l.477-1.154-2.742-1.985-2,1.985.425-1.985,5.427-2.5,1.586.483v-2.483l5.427.817c4.069-5.3.893,4,6.1-6.807v-.337l3.852.337-.7,1.168,1.14.5h1.126v-5.654h-3.391l-.9-2.339,3.615-1.151c1.587,0-.887,1.985,2.266,1.151,2.482-.656-8.384-2.82,4.978-.815l2.027-2.005-3.154-.319-.692-1.347c4.308-1.824-4.286,8.333,4.531-3.49l2.7-.814c3.4,2.48-11.069.814,5.432-3.156-.446-1.845-7.005,3.812,4.756-.832l-1.587-2.336-2.266-.516.671-3.138,8.579-1.666,1.132-1.5-1.132-.832c2.265-.834,2.5,1.667,3.852-2.819l2.287-.337c5.181.671-6.565,1.842,4.264.337l-2.266-2.819c1.357.16-7.221,4.324,4.322.512v-2.018l4.964-.494-3.182-1.49.916-3.171c2.721-1.154,6.328,2,7.223.67l2.719-3.171-1.14-1.15,5.888-2.835-1.589-1.153v-2.837l5.448-.832c-.245.673-1.132-1.154-.491.832l.918.834,2.7-1.153,2.265-3.985c1.14-.515,2.05.975,2.742-.515l-1.147-1.166-3.153.51-.706-1.986-2.02-.515,8.6-1.985,2.706.48,2.259-1.663-2.691-.322c-2.273-2.336-2.727,6.488,0-2.817H1833l7.684-5.158c1.566-.319-11.329,4.166,4.293-2-.47-.5-1.595,2.641-1.134-1.329l2.719-.319,4.293,1.15,1.587-.831-2.056-4.644,10.174-5.657,1.132-2,3.854-.319-1.132-2,2.7,1.15,6.1-1.648-1.125-1.985c.237-.158.685-.831,1.125-.351l-3.391-1.988v-.513h6.565l6.559-2.637.455-1.33,7.011-4c-.916-1.666,4.532,2.175,3.377-3.157l2.029.835,3.389-3.99h1.14l.449-2.818c2.265.993,3.614-1.006,4.292-2.336.91-1,6.552-.337,2.7-2.819,2.72.992,3.853-3.669,6.573-.319l3.161-.867-1.595-3.636c.924-.176,3.4.322,2.273-2l2.72,2,1.1-1.168,3.643.336-.461,2.483,4.964-3.156c.916-.495,3.613-1.008,3.613,1.153a3.79,3.79,0,0,1,4.532-.816c-2.482,1.665,6.1-.162-1.14,3.17l-1.126-1.183-6.558,1.183c-1.111.319,8.6-5.99,0,3.973l.679.832h1.586l1.111-.832c-1.781,0-.648.51-1.111-1.985.679-.354,2.027.159,2.729-.354l-1.134,2.339-1.595,1.169,3.832,2,3.18-2v.5c4.077-1.985-17.4,5.988,8.6-3.651l.649.513-3.831,1.472-3.823,3.171h-2.05c.216,1.329-4.293,0,0,1.985l-1.14,1.344-6.559.642-6.537,4.514c-2.266-1.519-3.406,4.805-5.433-1.183l-1.125,1.5-.9.835.9.816,1.8-1.168-5.418,5.174h-1.141l-1.125-.835-2.719,4.307-4.272,2.5-4.3,4.836-1.817-3.331-3.153.5-.432,1.984,1.559,2.838-2.714,3.153-2.243.337-2.05,3.654c-2.7,1.5-2.048-3.314-4.523,1.165-2.93-.653,7.013-2.67-3.615.835l.909.816-2.042,2.339-3.4.832-1.566,3.493-7.02,6.468-2.691,2.017.432.319-2.027,1.991c-1.595.846-3.846,0-4.978,2.015l-3.838-.849-2.042,3.987v.513h2.741l-1.125,1.472-3.19.513-2.719,4.005H1847l-.434,1.985c-1.348,2.339-3.4-1.666-4.313.834l-2.7,4.644c-2.481-.158-6.55,1.666-4.963,3.332-.461.334,5.179-.835-2.05-.48l-1.132,1.151,1.595.834-4.993,1.165-.887-1.165-1.811,1.648,3.406.832-1.14,2.676-4.308,3.97c-2.264-.161-4.747,2-7.02,2l-2.236,4.5-8.145,5.976-5.852-.82-2.266,1.633.44,2.018-7.445,3.49-.7,2.5-3.615,1.154-3.4,3.49-2.691.834-1.141,1.985c-1.132-2.483-5.18,6.152-1.564-3.153-.91-.5-1.379,1.168-2.05-.322l-1.8,1.154,1.125.816-1.586-.48-.441.817,2.706,2.336-1.132.835,1.595.817c-2.266-.817-4.532,1.183-3.853,2.337l-1.132-.671L1769.5,4749l-4.314.831c.692.5-3.615.319,1.609.319-2.727,4.34-.476-3.49-7.013,5.159-2.958.99-8.6,1.824-7.7,4.837l-2.706,1.153,1.8,1.649H1747.8l-.468,3.171c-.216,2.673-6.321-.34-3.839,3.666l-3.174.319-3.376,1.985c-3.153,1.346-7.909,2.661-8.594,5.159l-4.971,4,1.125,2.82-2.258,1.665-2.02-.834-4.286,1.505-2.706,3.973c-3.636,2-10.2,2.337-9.279,5.991l-2.264.831v3.171h3.838l4.957-3.507v-1.986l2.749.337,4.725-3.171-.461-1.666,1.608.513,1.119,1.153-2.266,3.666c-.677-.495-3.16-5.332-3.838,2.644-1.8-.834-2.936-1.824-4.286,2.834-.692-.337-.692,1.007-1.587,0l-1.155,3.156-2,.832,2.692,1.665-2.258,1.488-.434-1.488c-2.481,3.651.434-4.321-4.53,2l1.126,2.322-1.126,1.985-5.881,1.154-5.424,2.849.461,1.984,7.229-1.153,1.558-1.663h2.056c0,.5-2.265-.992,0,1.311l2.266-.479,1.559-4,4.322-2.3,3.368-2.518c.671-.143-5.425.676,2.042-.656l-.887-1.311h.434v-1.186l-1.134-.832c.916,1.666,1.587-1-2.7,1.666.216-1.491-10.187,8.968,1.574-4.324l3.391-.5,4.307,2.82,2.251-1.971c2.237.322.887-1.347,3.146-1.666l-.426-2.017c1.342.512,4.272-2.161,6.307-3.139,3.406-.337-2.266-.834,1.132-2.337l-3.83-1.153v-1.347c-.239,0-.692,5,4.509-1.154l-2.243-2h4.271l-2.027,1.168c2.027-1.168-9.25-3.171,3.16,2.817l1.14-3.985c.232-.5,2.035-1.491-.662-2l2.243.512v2.322l3.16-1.651.694-.334-4.986-3.17h-4.293l-1.559,2-2.266.322-1.14,3.666-1.6-1.986,1.6-3.152,6.1-3.669c-2.937-2.641,5.418.659,1.125-4.823,5.643-2.494-3.175,5.3,5.881-.333l-3.182,2.322c-.432-.159,2.49-.832-1.119-.322l1.119,1.153,1.595.337h1.588l-1.132,1.666a1.874,1.874,0,0,1,2.7.337v.831h-3.832c-.216.48,3.616-1.168-.916,1.154h2.05l-.455,1.666,5.881,1.153,1.111-.8c-.895-.191,2.042,3.314-1.111-1.186l3.853-.831-1.141-.674,2.7-1.311v-2l1.581-.656c-.441-.512,4.523-1.186-1.581-.834l1.14-.832,4.964,1.154,1.595-4.325-1.14-1.153-2.714.67c-.9-.67,2.714-3.648-4.292-1.165l.446-.337c-.67-.5,7.7,1.326-3.167-.5v-.655l15.152,1.49c-2.49-3.988,4.748,1.49,3.831-4.819l2.721-1.5-2.721-.835-3.376,1.663c.453-.158-2.029-.828,1.125-.477-.237-.193.463-.512-.448-.867.448-1.311,5.881-.974-3.838,1.344l-2.719,1.157c-.888-1.476,7.005-.817-2.266-1.985l2.72-.516c-.453-2.816,6.1,1.5,2.266-3.97.656.834,1.132.319,1.574,1.329,2.712-1.49,2.265,5.493,4.963-2l-2.251,2.658,4.972-1.151,3.16,2.817c1.825,0,.685-1.332,3.391-1.666l-1.132-.656,1.132-2c.671-.673,5.441,0,9.711-3.651l-1.565-2.337v-.482l2.7.482h.453l-.453-1.988-4.965-1.666-2.266,2.852.692.32h-5.439v-1.151h.453c-.237.319.239.48.679.831l1.587-4c-.447-.674-1.8-.354-1.587-1.154h5.881l4.965-3.683h.916l-.463-1.652,5.425-3.153,2.266-3.171,3.175-.322,1.119-.831-1.595-1.154,12.454-7.337c2.482,1.666-9.061.357,4.286.837v-2.819h.461l-.461-1.508,2.727.337,1.105.849c1.14.322,2.02,2.661,3.16-2v1.151l-2.7.5v1.507c-.461-.676,5.657,2.975,7.684-3.99l-5.42-2-1.14.832.434-1.154h-3.125c-.916-2.339,2-3.01,5.389-2.02l-2.265-1.148,2.748-1.666c5.636-1.988-3.391,3.153,4.964-.834l3.831,1.662c-.924.162,1.811-2.658-.671,1.157l4.986-.319,4.964,1.148,1.566-.478c1.132-.67-.218,3.812,1.132-1.508l-1.132-.828c.7.158.7-.34,1.593-.834l-4.993-1.476V4710.6h-2c-2.042-1.169,9.017,0-1.61-4,4.314.989.245-3.813,6.335-1.491l-4.725,1.491.44,2.017,6.558-2.017.455-1.491h2.7l.692-1.153h2.027c1.587-2.48-16.263,11.128,6.118-5.651l1.574-2.006-2.7-.814c-1.616.161-3.19,3.3-4.993.481l3.853-.832c.9-.673-8.593,3.49,2.265-2.819l2.006,3.651,6.574-4.486,4.263-.832,7.258-7.463,5.875-2-.455-1.681,3.615-2.82c1.826-.676,4.986-.16,5.439-1.507l1.134.831-6.573,2.343,2.265.828-2.265,2.006-.44,1.15V4684l1.125.656,1.58-1.473,3.174-2c2.237-.835,4.048,1.809,5.406-.835l-.874-2.322,2.7-2.02h5.865c-6.774,1.505,7.46,2.02-4.3,2.343l-2.7,3.984-4.957,3.154-1.134,2.5-4.754.337,2.706,1.648-3.391,3.49-5.425,2.5,1.132-.832-3.852-1.669-3.616,1.186,4.308,3.654-3.4,2.322c0,1.838,9.041-5.657-4.3,2.512v1.153l-3.139-2-3.853,2.819,1.126,1.491,2.027.512-2.027,1.153-4.286-.319-4.531,1.986c.916-1.508-.426-2.343,3.838,2.336l-2.029,1.648h-5.425l-2.257,1.49,1.125.835c0,2.017-4.3-.835-3.391,2.017-1.358,1.505-2.7-.849-2.7,2.817l-3.615.817c-1.35,1.168,9.032-1.151-2.719,2l-2.245,4-4.986,1.988-2.02,3.49-6.588,1.985,2.272.834-4.537,2.337-6.314,5.639-7.683,5.156-3.853,4.485-30.26,22.29-6.1,5.156-5.433.834,1.134,1.986-16.263,11.96-8.145,4.342-2.721,3.973-.432-.336-1.595,2.833-4.509,2-1.6,1.166,5.008.837,2.7-1.189c.209.352,1.565-.99,1.125,1.189l3.161-1.666c-.239.319,2.027-.676-.463.829,1.832-1.166,5.427,1.156,4.748-2l6.1-1.169,8.139-3.65,2.7-3.172c2.05-.819,5.664.191,6.349-2.339l1.8.674,3.167-1.154,1.14-2.819c2.915-3.842,1.79,5.478,4.293-3.171l2.266.834,3.605-3.988,3.853.337-.476-2.322,3.182-2.837-.463-1.151v-.834l5.419.48.461-2.479,3.377-1.491h2.742l3.138-4.005v-.832l-2.243-.483-1.595-1.165,2.7-2,1.616,2,7.661-1.171,3.832-5.153,3.861-1.157c.88-.846-8.37,1.985,2.712-2.495l.916.832,2.7-1.985-.91-.834,4.316-4h1.558l.461-2.819c-.461-.319-.677-2.161-2.727-.319l4.531-1.681,3.182-.34v-1.985l3.831-1.153,8.573-5.988,1.14-2.5,4.307-.656c2.027.161-15.152,5.654,3.376-4.852l.9-.8c-.656-.673-1.111,1.985-2.006-1.185l5.859.351c-.216-1.681-3.375,2.98-.461-2l3.859-.816v-1.184l.887-1.985h1.825l5.867-5.158,3.154-1.154,1.825-4.5,5.88,1.332,3.831-1.666-1.126-2.82.434-1.171-2.7-2.319c.432.478,1.349.671,1.125-1.346v1.346l2.266.671c.909-.193,1.811.638,2.706-.671l-5.412-2.837,1.58-1.97,3.832,3.973,10.837-5.156-1.111-1.329,14.7-11.147h2.706l1.125-.819-3.83-1.151c-.91-.193-2.483,3.97-5.441.817l2.042-.337,2.264-3.332,3.84-1.473,1.125-3.17,1.595.656,1.58-2.642v-.515l2.243.515,2.727-3.331-1.8-1.168,2.237.816,2.266-.816,1.586-2.323,9.741-6.822c-.484.176-1.132.5.432.832.692-.336,1.125.673,1.8-.832l-1.8-1.665.692-1.49,3.838-.835,11.753-9.976,4.509-2c1.8-3.475-6.1,2.673,2.035-2.805l1.595,1.154-5.9,4.485,3.854.337v1.165c-2.266-.337-5.881,3.479-7.013,1.988l-9.927,7.976-.484,2.819,5.88-.82,2.264-4.324,6.581-1.649,9.7-9.5h-3.181l7.474-4.464,1.587.48,5.4-1.988c-1.572,1.508-7.887-2.817-12.41,8.315l2.7,1.165-.434,1.315c.643,2.164,1.775-1.151,4.265,1.505l-3.138,2.819-4.978,3.171-.469-.336c-.434,1.009,7.713-2.677-1.126,3.155-.656-.5,5.447.176-1.572-1.665l-2.266,3.651c2.266.319,1.14.19-3.825,2.339l3.377,2.5,4.762-1.665,1.566-1.169-.447-1.683,2.259,2.515,9.711-2,2.027-1.988-2.706-1.666c-1.348.176,11.969-2.321-4.747,1.168l2.048-2.318-2.048-1.666h2.72l3.838-2.34h.9l-.9,4.006,3.637,1.15,6.089-.831-2.266.831.679.834-22.36,17.951-.476.849h-3.838v1.154c.924.161,2.266-.337,2.706.319l-2.274.832.708.515-3.406,1.985,3.406,2.336c1.79-.512,2.7.835,5.419,1.154l-2.721,3.171,1.126,2.486c-.889-.659,1.595-2.486,4.754,0l1.595-.5,1.8,2.82,2.042.512-4.308,2.659h-2.265l.706,1.329-1.14-.817c-1.125.48,7.686-5.174-2.712,2.8l-2.727-1.315c-3.616.644.7,3.8-3.154,1.974v1.346c.671,0-2.027,2.161,2.035.319l-3.146,4-8.145,4.324,6.99-5.475-4.984.319-2.706,3.97-4.272.835-2.035-1.985,5.412-1.669,4.748-4.322,2.726-1.665,1.559,1.346c1.818-2-14.444,4.48,4.532-3.99l-2.714-3.329-1.111-.659-3.882.659,1.616,2.512c-1.37,1.312-5.447,1.97-5.879,1.153l-1.595,1.649c.679.5.461-2.8.461,1.171l-1.132-.834-7.013,6.309c-.908-.161.224,1.669-1.134-.319v1.648h-2.689l-3.861,3.154-4.748,2.819-6.089.691-.924,1.312-3.823-4.822-4.3,2.342-2.712-1.49c10.172-5.654-5.2,12.458,8.116-5.976l6.357-3.329,7.208.48,4.777-1.666-.462-2.805,3.152-.67-1.125-2.835.692-.494v-1.171l2.006,1.171h1.126l.706-1.49-2.272-2.5-1.566-.67,6.536-5.64-3.4-.351-3.825,2.34v-.32l-3.161.32-10.865,8.312-4.265,1.329-1.616,2.67-3.377,3.639-2.719,1.168-3.161,3.989-2.712-1.476-1.132.322,1.586,2.322-3.152.816.432.516c-2.7-.838,2.266,3.967-3.138,0l-2.741,2.336c.237.477-.21.993-1.56-.336v5.138l-7.7,3.171v1.156c-2.474.51-7.244,1.184-9.7,3.154l-1.132,3.346-1.589.319-1.572,2.34-3.824,1.651-1.154-.322-2.251,3.156-2.042.319v2l-18.99,13.949c3.182-1,.7-.32-.671,3.17l3.377-.319-1.574,2.3-9.27,7.654-2.7.336.434-3.5L1833,4769.79v1.153l-3.182.337c-.671.656,4.769-1.49-2.244.814l1.572,1.189-3.838,3.138v1.663l-3.182-.319-2.7,4.324,3.182,1.667,1.111-.849-1.111,3.5-.916.5-7.684-.831-4.993,2.322-.887.831,5.418.484c2.7.831,6.8-3.637,10.174,2.017l2.266-1.347c1.132-.158,3.159.832,3.831-1.154l-.671-2,10.4-4.822v-1.985l8.573-3.171,2.264-1.488v-.834l-1.587-.846-2.238.846,1.126-2,4.293,1.157,6.992-5.64,4.307-2.321v-.34c-2.266,3.493,4.747,3.654,7.223-5.314l7.459-6.309c.47.158-2.249.494,1.126.334v-2l3.853-.319,8.6-7.657,6.1-.673,1.565-4.483,4.3-2,1.58-3.157,3.832-.319,3.175-4.837,2.264-.834-2.72,2.82,5.426-.815,2.259-2.005-2.706-1.985c-1.341,0-2.035-.176-2.258,1.156l-1.125-1.508h-4.314l-2.245,1.508c-.447.671-1.587.159-2.027-.837l2.027-2.3c-.237.161,2.245,5.141,4.964-1.186v-.814h-2.719l1.586-.834,1.134.834,2.266-1.666c-.239.993-3.161-2.164.887,1.666.484-.178-4.525-3-.434,2h9.279l-1.14.322,2.706,2.819c-2.482,1.184-5.448-1.156-5.881,3.154l-2.706,1.329v2.017H1913.9l-7.23,5.142-.893,3.153-2.721,1.988h-2.265l-1.589,2.849-11.536,7.144-4.27,3.985-7.015,4.807c-.447-.322-1.125.67-1.558-.817l-1.616.817.462.351-2.251,2-5.873,2.5c-1.358,0-4.314.641.432,3.139l-2.7,1.5-.924.838v.8h2.735l3.585-3.142c.476-.5-4.054,3.142,2.266-.834l-9.25,8.312-4.285-1.168-4.314,1.684c.7.476-3.831.319,1.616.319l-4.993,3.984,1.8,1.186,4.314-2.017-1.125,2.5-4.993,2-2.027,3.476,4.293-1.154,1.587-1.168,2.7-1.154h1.14c-.224.994-2.272-.5-1.574,1.154l9.713-1.651,6.537-1.505-.664-4.482,2.7-.674,3.4,1.186,2.7-.512.455-2,6.558-2.322-.438-1.168,5.4-2.486v-2l4.3-1.168,5.879-5.478c.679-.333,1.574,0,2.266-1.344l.44,2.852,3.4,1.154-1.132,1.343,3.152.641c1.373-1.665,4.771,1.84,3.4-2.661l-.671-3.648-.47-.337,3.161-1.329v.834l1.14.832,5.433-1.985v1.985l1.14.817,2.027-1.973-2.027-2.5v-2.02l4.265-.656.476-3.633c-.91,1.308,1.111,2.143,3.839.319l-2.048-1.5,3.613-2.5c.918.835-1.564-.158,1.134.516l1.587-2.834v.846h-.455l6.573,1.472h1.111l-1.8-1.984h-3.161l2.245-4.325c1.608,1.666.208.673,5.873-2l-.426-1.153,2.035-2.483,2.245,1.329,2.027-3.329c1.132.161,2.481-.179,2.706-1.171l.691-3.988,3.182-1.49,2.266,3.139,1.991-.5c.491-.48-4.257,2.336,1.155-1.491l-2.035-1.663,1.588-1.508-.708-1.311h2.75l1.782-1.171-1.782-1.985,4.51-4,4.285-.339,2.048-1.986-2.712-1.168-1.595,1.49,1.125-2.3-3.152-.515,3.152-.641h1.595c0,1.476,4.5-.51,1.111,2.31l4.308-3.991,3.4,1.681,2.692-1.681-3.824-.832v-1.168l-2.72.352,2.027-2.339,2.258.834,3.182-2.486v-1.165l-2.7.5,1.109-2.48,11.524-10.315,4.739-1.186,3.853-4.8c2.244,1.824,1.371-1.824,4.286,0,.455-.513,7.229,2.339,2.266-3.651l1.565-2.34,3.853.325,2.027-1.476-1.572,2.642c-.455-.32-.664.849-1.134-.32l-1.586,1.169,1.161.816-10.866,8.825,1.587.834-8.145,7.142-5.881.319c.461,1.171,2.481-3.157-.671,1.665l6.552-1.153-5.881,6.31-2.266.322.708.831-2.727,3.686-1.8-.515-2.7,1.985s-2.5,1.508,2.243,1.329l-2.727,1.49-6.992,8.489,1.595.351-.461,3.141-1.134-1.985-4.286,3.169.432,1.97c-3.615-.993-1.559,3.507-4.963,1.68-.209.48-2.951-1.344-.447,1.666-2.727.48-5.642,1.473-5.881,3.476l2.035,2.819-3.853,1.68-1.559,2.308-3.873,1.666-.442,1.5c-.432,3.156-8.571,2.5-6.537,5.988l-10.18,6.824-6.559,5.156c-2.264,2.5-7.466,0-6.089,6.468-.245-1.01-1.587,0-2.027-.832l-1.616,1.985,3.643.832-7.466,1.5-.679,1.157,3.852.832,7.007-2.322,7.208-.846.916-1.157-.916-1.648h6.341v.814l-3.161.834,1.134.832,14.7-3.315.432-1.49,3.832,1.49,8.145-2.322v-1.182l2.042,1.5,1.14-.641,1.559.641,3.4-1.984,2.72.48.455-1.985,3.383,1.168c.9-.5-8.608,3.153,3.153-1.684l1.126.867,3.859-4,2.727-.324c0-.671-3.853,3.654.426-1.663.924,1.329-6.1-1.011,2.7.834v-3.171l5.88-1.666,2.258-2.307-.432-1.683h.432l-.432-2,4.747-2.819c1.126-.993-10.843,5.155,3.377-2.659.447-.319-5.433,2.483.909-1.666h1.119l-1.119,1.666,4.509,1.988.909-.82-1.586-2.5,3.4-1.487c.679.161-4.516,4.483.887-2.5h2.266c2.965-.835-17.179,6.151,6.573-4.325l8.572-7.156,3.4-2.482c.656-1.508-10.627,6.468,3.16-3.493l-6.558,7.975-2.042,1.171v2.8l-10.389,7.493c-.91,4.166-7.215,3.332-7.007,7.656l4.748.835c-2.245,1.49-7.223,1.985-5.427,5.156l1.819.334,3.153-2v2.5l-4.293,2.82.455,1.153,4.293-1.665,4.984-5.479v1.988h2.245l-.671,1.183c-1.811-.673-.44,2.978-3.159,0l-3.4,3.973,4.984-.48,2.706-2.02,5.441-.656c-6.141,4.149-2.5,4.149-13.586,5.99l15.145-2,4.97-.832c.455,2.015-9.487-.161,5.441-2.819.44.158.894.673,0,1.154l4.726.512,2.265-1.666,1.134,1.154,3.852-1.491,2.029.337,3.37-1.651,5.447-.686h-1.132v2.656l3.831,1.347-.677,1.153-9.25-.819c-3.391-.334-1.358.978-2.042,2.834l-2.706-.51-1.132-.673-7.684,2c.21.176-2.027.5.679.656-1.356-.16-1.134,3.329-2.266-.319-2.048,0-3.4-.512-2.706,1.663v.641l-3.175-1.487-1.125,2-1.581-.835c-1.586,1.5-4.955.674-3.383,4l-2.056-1.182v-1.157c-1.566-1.15-.208-2.318-6.089.677l-1.581,1.343-1.586-1.68c.461.337-4.062,1.168,1.14-1.684H2021.7l1.587,3.364-3.161,1.151v-.51h-6.565c0,2.677-3.377,3.171-6.992,2.835l-5.88,1.165c-3.615.838-2.243,5.32-8.824,5.976l2.727,1.666-11.3,6.821c-1.587.832-6.789,5.142-3.4,4.308,0,0-2.265,1.668,1.811.515l.9-1.347,3.385,4,3.181.5,1.14-.849-2.719-1.151,6.544-1.987,1.14.834,2.706-1.666c-.9-.673-1.365,3.809-1.14-1.666l3.175,1.666,6.089.319,1.58-1.49,5.88-1.154-1.119,1.974,2.243,1.183,13.109-1.667,16.739-3.49,7.013-1.314,1.105.48,2.726-1.666-6.99-1.151,3.838-.354,2.012-1.311,8.825-1.168.916-1.491,4.523.656,2.706-.337,1.566-1.663,5.873-.322-1.126-1.663,1.834-.351,3.145,1.68,6.991-2.005h1.595l-.455.325,2.721.846,9.7-3.651,2.727,1.165,3.39-.351,1.574-1.649,5.447-2.322,8.116-.319-7.69,2.3c-4.524,2.16.216-4.483-4.748,1.666l.918.67-4.308,1.64,3.391.846,8.146-1.648c.216-.513.44-.838,2.706.8l2.041-1.64.671.838-2.712,1.153c-.442-.512-1.134-2.167-3.4-.351l.692,1.68c0,.334,2.706-6.327-3.824,1.166l-7.021-.832c-1.8,1.154-4.069-2.816-2.69,1.154l-1.84-1.488-.908,1.488-4.5-.832-10.174,2.835-3.4,1.68-3.161-.512-13.123,3.332-2.7.319-1.566-.319-2.719,1.15-1.134.834,1.8.671-14.236,1.651.671,1.168c-1.587-2.322-4.517,1.154-10.382,1.154h-8.139l-17.856,2.5-10.405,2.832c4.309-3.154-6.766,0,3.385-3.329l-.664-.656-3.161.319-2.265.834,1.132.832v1.505l-5.873,1.985-4.964-.336c-2.488,1.68-6.8,5.173-7.705,5.173l1.132-2.337-2.7-.834-9.279,1.985-1.559,1.186.671.322-8.139.832-2.727,3.171,3.174.479h1.14l-3.406,3.169c-2.691-.51,14.027-7.156-5.873.322v2l6.581,2.819,2.7-.34v-1.663l4.293-2.3,3.852.814,1.126,2,3.138-.831,4.308-3.174-6.544-4.819,10.859,3.49,3.823-1.488,4.293-1.153,1.132-2v-.832l3.853,1.49c.656-2.149,5.4,3.329,2.243-3.156l2.027,2.82h-1.132l-5.4,2h-2.727l-.887,2c-4.091-.849,1.782,2.837-3.853.319.21,2.163-7.013-.143,1.126,2.837l4.747-1.156,1.595.322,14.236-3.491,14-2.833,5.425-.322c-.686.322-2.49,1.329.671,2l1.587-.849-.692-1.648,6.565.817.679-1.649,9.732-1.171,8.124-.337,21.71-4.482,2.691-1.154,9.286-1.505.432-1.666,2.259-1.153.916,1.49-.916,1.329-7.229,2,6.1,1.49,5.447-3.97,1.126,2.48,5.88.319-1.61,2.006,6.573.319,11.285-1.154,3.852-1.171-1.585-.814,3.174.495c.44,1.154-1.35-4.5,1.565,1.49l7.691-.336,10.859-.5,7.013-.34c.44.164-3.188,1.491.44-1.151l2.692,1.491,3.881-1.154,17.821,1.649,8.145.816,3.853.674-1.587.846c-.455.819-1.8,1.329,2.266,1.988h.461l1.125-2.322,3.84,1.153-1.134,3.667-3.4.658-5.427,5.314-18.99,8.327c.463,1.666-2.712,1.153-2.712,2.325l-2.027-1.172-6.118,2.82-2.692-1.153-2.027,1.507,2.027.478-2.027.834,4.286,1.186,10.405-2.852,2.7,2.337c-.44.834-1.565,1.665.455,2.5l2.719-1.985-.453-.515,2.027-1.18,1.132.846.432-2.322,1.832,1.476.427.509,2.721-1.312,2.727.478-1.134,2.02,2.258.817h1.581l-1.14-2.837,1.14-.832,2.257,2.337,2.042-.671c-.238.176-1.126-.673-.476.671h2.741l2.029-2.337-2.719-.817,2.719-1.168,10.382-.835,5.447.513-5.447,1.154.461,3.156-2.02.849,7.005,1.15v.355l3.154-.688,1.111.688c.7.161-4.041,1.97.7-1.5l2.02.817,2.727-2.837,3.37-.832.461-2.307,2.7,1.49,3.18-1.49.7,2.307,2,1.157,11.991-2.805,4.285-4.661,1.14.673,5.418-2.337-2.027,4-3.823,3.156-1.155-.831-1.111.831,1.559,2.82,1.14-1.649,3.825,1.983h3.859l1.14,2.02.448.48,3.138-2.5c-1.79,2.5,4.091-1.664,0,2.02l5.441,2.805-3.616-.835c-1.132.334,7.446-2.325-3.391.835l.692,1.68,8.118,1.47-4.524,3.991c-.679.334,5.426-3.157-2.027.831v.85l4.293.318-.455-1.49.91,1.172c2.265.479-.224-4.486,4.531-.352l2.02-.82,3.861,1.49.44.484-4.3-1.652,1.595,3.669,4.531.319-3.4,1.171.677,2,3.154.5-1.559,3.156,5.4-.319.455-1.347,2.719.515,1.126.832-3.846,1.154.677,1.153h-2.7l-8.139,4.321,5.447.835,8.118-.835-3.853,2.5H2281.6c-3.174,2.017,5.42,0-1.132,2.342l8.139,1.151h1.14l4.747,1.329,2.7-.831.671,1.5-3.37.5,7.223,6.312c-.671,1.824.916,0,4.293,0l-1.134-1.991h-3.159c.44-.67,2.266-1.151,1.58-2l-2.706-.814-1.132-1.185c1.587,3.17.671-2.487,5.418,0l-1.132,1.185,3.852,4.805v2.849l4.293,2.3h2.719l-1.585,3.668-3.161-1.665c-3.174.658.917-3.157-2.712,1.665l1.587.817-.7.337c-.216-.832-5.188,4.5,4.531,0l2.7.849,3.63-1.681,2.251,2.832-1.134,1.988,1.134.831-1.134,2.006h-8.579c-.215,1.165-4.531,0-.656,3.151l-1.6-3.986c1.6,0,4.083-1.171,2.257-2.836l-7.69-1.154-3.153,1.154-3.4-.672c-1.593,1.184,20.122-3.477-8.585,2.689v1.654l6.542,1.165h.449l-.449-1.49,8.146,2.644,3.854-2-1.14,2.512h1.585l.442,1.988,3.4,2-.656.336,2.245,1.154.453-2.659h2.266l.44,3.491-2.706.48h-.908l-.679,3.173,2.719-.834,2.706,1.154-2.706.863-2.719-.863-2.712.863-1.14.8c2.265.67-2.266.351,1.14,1.5l2.712-.674,1.134.674c6.334,0-.679-6.152,8.6,0l4.487-1.154,1.6-2.337,1.14,1.183,1.566-.863,1.132.863-2.7,2.817-5.441,1.157,4.3,1.153-8.816,9.156-2.029,3.99-1.6-.659-3.377,1.473-1.111,2.5c-.917-.481,2.7-.993-1.6-.835l-1.14,1.508-3.161-.673-.455,4.643H2299l2.042,2.5-5.9,3.49,1.126,1.348,1.587-.835h1.595c-.216.158-1.126-.67-.455.835l5.418-1.348,2.05-.641,2.706,2.325,4.978-1.171c5.2-1.329-9.032-2.659,4.741-2l.677.849,3.161-1.346,1.132,1.987-1.132.832h2.719l.656-1.473,2.742-2.5v1.151l5.858.5c7.028,2.838-3.376-6.485,8.6-.5.909-.159,1.8.322,2.691-.352l-.887,2.852h-1.141l.47,2.819c.209,2.176,5.657-.5,2.691,2.659l-2.691-1.5-1.132,1.183,2.259,2.82,4.963.351-1.832,1.648,4.53,2.325c.484.831-3.377-.337.917,1.154-4.047,1.182,3.838-.835-3.182-.674l-3.831,3.171c-.216-.993,6.1.334-3.161-1.154l-1.125.656,1.595,1.684-1.595-.355c0,.832,3.616-2.146-.461,1.508-8.573-.161,8.145-5-7.223-.339-.671.673,6.789-3.508-2.027,1.988v.846l3.161-.51-2.05,2.495.461.34-7,2.321-2.259,2.817-2.719.512-1.587-2-1.134-.82-4.271,2.307c.224,0,1.572-1.649,1.125,1.156l1.119-.644,5.88,1.154-1.132,1.508c.677,0,2.041-1.347,1.595,1.312l-3.616,2.676h-.7l.7-1.491-4.97.817c0,.674,3.615-4.31-1.587,1.5h-1.132v1.968c-.239.515-2.245-2.961,1.585.852l-.454,1.168-7-.322c-.679.82-4.077.164-2.274-.513l4.3-1.5v-.831l-11.313.336-3.823,2.513c1.11.482-8.147.641,3.152,1.154-.916.16,0,.673-.916,1.153l-4.5-1.153-2.027,3.155h-2.727l-14.691,7.654-7.684,4.31c-.895.333,7.9-4.644-3.593.831l5.4,1.664c.455-.32-3.838,2.324,1.609-.829l-1.154-1.171,2.258-.814.9.814,2.713-1.649,1.132,1.154c-1.369-1.154.245-.161,1.595-1.491l.679,1.172,1.125.319c.671-1,2.727-1.154,3.6-2.34-2.7-3.138-4.054,1.666-7,.352-.671-.993,2.274-.162,0-1.5,5.643.989-2.02-3.973,6.552,0l1.132-1.988h2.706l-2.706,1.988v.334l9.279-1.154-.692-2.515c6.573,2.005,4.091-3.809,11.53-1.985h4.293c-.449.176,2.5-.319-1.134.513l1.595,1.153,7.684-2.337,14.7-3.314,8.579-.659,8.571-3.332,13.572-2,2.72-.658,4.531,1.473,2-1.473-1.111,2.658c3.615-2.658-16.263-1.5,7.23-.67.237-.164-.895-1,.894-.515l-2.02-1.968,7.46-1.171h1.566l.7,2.819-6.579-.831v1.666c-2.02.67,2.264-3.476-3.146.337l3.852,2-1.832,1.153-.894-.8-10.382,5.64-4.316,1.985-2.7,1.666-9.279,3.138c-1.8-1.49,6.8-.975-3.152,1.186v-2l-2.266.816-.461,2.021h-1.126l-.664-.835,7.237-3.988,2.7.832.916-1.168-9.061-1.666-5.419,1.153,2.05-1.153c4.725-3.49,1.342,2,9.249-1.666l1.141.835,7.005-3.171-6.559-.323v.323c-.446-.323-.67.831-1.154-.323l1.832-.831c6.1.336-10.172,5.639,8.146-.5l1.564.831,8.579-1.171,1.608-1.15-7.005-1.666-15.592,2.816-3.861,2.339c-1.586.642,12.223-7.175-7.005,1.667l-5.418.319-6.552,2.819-1.587-.834-.677,2.515-9.258,2.322-1.587,1.669,8.824-1.172-4.531,2.322-5.4.835c3.83-2.662,4.272,2.494-7.482,2l-2.251,2-4.769,1.153c-2.236-2.321,5.664-1.346-4.957,1.154.908-3.156,5.2,1.5,5.44-3.156,1.572-2.164,3.831,1.007,5.4-1.153l-.44-.5c-3.385-3.489,0,1.986,7.46-1.5l2.257-1.666c-2.257-1.347-6.312-2.659-9.717,0l-6.567,2.5v1.49c-8.13-.99-8.8,1.171-16.24,3.671v.829l-2.272-.829-14.712,4.819-9.019,2.322-.692,1.663v-.831l-12.41,3.49-2.719,2.822-5.419,1.18-.461-1.18-6.1,2.817-2.05-.322-2.706,1.985-4.978-1.312-16.263,6.79h-2.72l.469-.32-.469-.479-1.132,1.311,1.132,2.339h-1.132l1.132,1.667-18.535,7.141-9.026,4.324-5.426,1.666c.245.673,2.937-4.5-.679,1.985l1.134.834.44-.479-1.574,2.8c.679.173-4.957-.336,2.266.337v1.344c-.908,0-3.845-.674-2.266,1.472-.216-.655-.9,0-1.58-.816l1.58-.656-1.132-1.344-5.873-1.49v1.49H2150.3l.448.51-2.035.322-1.14,1.168,3.175,3.651-.448.336-1.587-1.984-.679.482-4.293,2.32-1.587-.818-1.559,1.667h-2.264c.88-.849-1.819-1.169.664-1.667h-2.721l-1.125,1.989-1.587,1.343c-1.118.162-4.509-2.339-3.377.656-1.132.337,8.355-2.321-3.159.832l-1.595-.832-18.066,6.8-8.6,3.687.463.319-5.427,1.985-.916,2.017,2.721,1.154c4.075-.832,2.243-1.154,5.881-1.5h1.109l1.134-.832c-.679-.157-1.134.337-1.783-.322l1.783-.831-1.134-.834c1.134-1.342-13.109,2.819,4.77-2l1.111.849,1.616-.849-.924-.817h2.027c-1.1,1.666-7.683-4.658-3.152,4.482l9.7-1.326,2.266-1.49c-.692-.516-2.266-1.666-2.266-1.186l-.432.337.894-2.838c-.222-.638-4.076,0-.461-1.984l1.573-1.154,1.133,1.154c-1.566,0,3.391-3.649-1.133,1.665l2.265.835,1.587-.516-2.719,1.171v1.33c2.5,1.186,6.789-.641,7.705,0l5.4-2.82,1.587-.509,2.714-1.985c-.434,0,2.265,1.326-1.126-.325l2.719-1.666,3.832,2.82h1.588c0-.495-9.489,1.827,1.132-3.49l1.126.67.9-1.5h1.8l-1.119,2.837c-.679-1.01,3.383-.176-1.579.334,3.383,3.3,3.838-3.171,7.458-.334l1.126-1.332,5.873-.319.679-3.68c1.811-1.652,5.2,2,5.431-1.491l1.581-.834,1.587.336,2.706-.673,1.132,2,8.139-.832,2.706-2.837,3.173-.832,1.126.832,5.4-1.648c1.371-.656-12.865-1.011,4.307,2.837l-.455-4.327h7.007l2.735-1.664,1.125.817,3.154-.817,1.111-1.171-2.7-.813-2.05,1.15v-1.15l3.182-.355,4.286.834,1.595-1.984,3.391.67h.432c.679,0-10.62,2.483,1.589-3.522-.231.19-5.412-.82,0,2.017l6.558-2.5-.425-.339,3.124-1.985.707.322.887-1.153,3.852,2.816,6.1-1.985.434-1.68h4.314l.679-1.154c0,.351,1.125-.671.446.834l2.7-1.666,5-.334c2.712,2.67,4.494-1.654,5.852-1.171.238-1.648,3.175,1.666.454-1.985h2.266l-2.266-1.988,4.986-.512.44-1.985c.686-.158,1.126.351,1.826-.322v-.864h-4.531l-4.286,3.171.67,2-4.963.5-4.314-1.153-2.692,1.984c.671-.336,2.692-1.651,4.741,1.154h-4.741l-5.446,2.337-2.7-.337v2l-1.587.337v-1.488h-2.719l.476-3.654,1.132,2.307,3.831-.334.434-1.973h-3.832l1.134-.846-.455-.337,8.593-3.139,1.139,1.151,4.741-3.171,3.838-.512-.44.512,2.006.674,4.531-1.186v-1.154h1.609l1.566-1.153-1.566-.832,3.132-.831,2.259-2.82h3.859l1.595-1.988.426,1.637,1.58-.322-.874,3.493-.706.495c0-1.488-5.175,1.331-1.119-2.483l-1.58,1.988-4.74.831.887,3.651,2.727-.512c.679-1.315,2.706,1.859,1.126-1.473l1.14,1.985c1.348-.989,9.7,3.171,6.529-2.819l2.714-1.663,7.02-1.988-1.134-2,2.693.5-1.105,1.186v1.984l-6.334,2.308c-1.587-.5,3.16-1.809-2.266-.817l-3.159,3.314c-4.957.835,29.61-13.8-15.823,6.342l-8.572,3.973-1.14-1.171-6.559,5.976-2.712,1.186v-.835l-8.6,2.82c-.434.351,2.958.67-1.111,1.186,1.8,1.809,7.445-3.347,17.849-2.852-1.594.175-1.594-1.667,0-1.5v.861c-3.368.482,2.937,3.975,3.154-2.5v.814l2.266-.814,5.426-.337-2.72,1.49,7.705,1.342.887-.861v1.5c.9.175,1.811,1.5,2.727.512l.679-2.017,2.719-1.154-.692,2.015h4.517l1.572-2.015h2.714l-3.362-1.329h-.924l.924-.641-2.058-.849v-2.832l3.161.829v2.34l3.4-1.169.448-3.171c2.272,0,4.054-1.827,6.542,0,1.61.351,2.713-2.644,3.853.351l-2.243,1.986,2.7.834,8.137-3.171.442-1.154,8.145-1.328,8.147-3.491h4.523v-2l3.622-.479c.209-.355-.5-.674.664-1.186l1.111,1.665c.7-2.163,2.266,0,4.77-1.153l1.1.674-3.823,1.311c3.4-2.322-2.945-3-7.447,2.02-2.05-.193-4.523-.193-4.986,1.491v.828l4.286.82,3.825-1.153,1.161-1.667,3.831-.319c.463-.193-3.831.319,1.595-.515l-5.426,3.654,8.6-1.988c.874-.67-7.244.992,3.377,0,1.35-3.171-20.34,6.31,7.468-5.99l.648.322,2.735-1.985-3.861-1.988c-2.7-.99-1.14,3.814-4.97,0l-1.132.834-.887-.834,2.719-2-.7-.337,2.274-2.834,2.041.849c-.245.832-4.739-2-.916,2.322l1.572-1.171v1.666l4.309.322,2.7-.817.463,2,4.986-2.82-.47-2.351,1.595-1.154,3.138.835,2.259-2.486h1.624l-.484,3.976-2.266.829,1.126.834-2.7,1.5,1.14,2.5-4.531-.512c-.671.512-1.14,1.171,1.832,1.666l-6.581-.336,1.581,1.49c-2.021-1.49-3.364,3.522-4.28-1.154l-8.137,5.99,2.041.832,7.23-1.666,4.747,1.154,7.656-1.154,35.274-1.5,4.747-.512.679.864-7.229,1.987,36.377,1.172,18.99-1.491-1.581.639,1.581,1.68-15.137.82,1.111,2.817v2.659l-.65-.32-.908.832,1.559,1.168-3.377.322-2.027-1.153-2.259,1.665-4.308-.512-3.152,2,.448-1.153-6.552,1.153c-3.152,1.342,18.751-3.009-7.005,2.5l-1.587-.831c-1.134.157,3.174,1.824-2.266.319l.692,1.666-3.4,1.186-10.18,1.15-4.517,1.651-2.027-.336h-3.846c.455-1.49-2.243.175-1.111-1.986l-3.182,3.491-3.831,2.5v-.834l-6.573,2.342-.894.814,2.726.834,21.466-3.669,7.654-1.472,13.593.656,1.566-.334,4.307.829v1.99l-4.739,1.5h-6.574l-.44-.673-10.411,2.662-4.956-1.171-8.147.849.677.322-2.726,2.494-1.126-1.151-2.251.656c.677,1.171-1.8-.656-.91,1.681l15.159-1.681-1.155.832,1.155.849-2.727-.849-2.706,2.5,3.182,3.472,6.529-.828,1.134-1.156,4.747-.334v-.82l.7,1.651h3.138v1.168l-12.886,1.986c-.664,1.171,8.384-2.817-2.706,2.02h-5.425l-.671-2.516-8.145,2.835h-5.88l-7.013,3.156-1.126.846,1.595-1.5-2.727-4h4.314l-2.706-1.649-6.342.815-2.712-2.817-2.266,3.651-10.411,2.018a2.815,2.815,0,0,0-3.586.658l-6.552.814-4.314-.319c0-.176-2.02,1.666-.656-1.153l-7.007,3.138-2.257-1.666-2.706,3.171-.91-1.154c-1.356,3.812-.461-2.336-5.447,1.154l3.63.48,2.251,2.021-2.7,1.15,5.881,1.168,3.823-.334,3.825-2.5,12.467-1.985.671-.351.455.351-10.86,3.171c-.461.48,3.392-1.025-1.117,1.314l1.117.656h-.461v1.649l.916.834,1.134-1.153.669,1.153c5.419-1.49,2.5,2.017,19.877.351l1.834.5-4.532,1.487-2.042.516,2.042,1.505,10.412-3.171,5.872.319c4.511-3.314,5.859,0,13.543-2.658l11.543-1.33,18.29-2.64,9.271,1.984,4.964,1.986h1.587v-1.33c.446,1.649-5.426-1.97,1.587,2l1.132-2.659,3.839-.834,3.174.834,4.972-1.665,1.559,1.153,14.7-2.819,3.152.831-2.236,1.666,4.5,1.168-2.691,1.971h-7.691l.455.354h-5.873l.44,1.985h-5.4l-7.468,2.852-12,3.97-2.264-.831h-.874l-.692,2-3.174-1.168-1.58,1.168,2.056.817-9.279,1.186-4.747,3.314-11.97,3.493-1.134-.849-1.133,1.666c2.937-.993-.671-.322-.908-2.82l-4.517,2.82-.91-.817-1.111,1.651,1.111,3.168c-4.724,1.827,14.482,2.5-6.558.322l4.314,2.014h4.293l1.111-1.182c3.635.161,1.608-2.641,6.565-2.8l2.706.817,1.132-1.508,4.307,1.171,4.265-1.648,2.727.477v2l-2.236,2h-7.468l-4.293,2.337-3.4,1.985-1.133-1.151-4.748-.834h-1.587l-1.111,1.156,3.161,2.48-2.05,1.488-6.558-.32-3.831,1.988c-2.266.176,5.426-4.467-4.308,1.183v.835l5.881-.516-4.754,2.5,1.624.831,4.257-.831c.706.995-6.089-.67,1.132,1.985h-3.152v1.153l.894.849-3.131-1.168-1.155.671-2.727-3.154-4.263-.336,3.152-.832c-.455-.834-2.5,4.641,1.111-1.988l-7,.319-.448.835-8.8.834-3.174,2.322v.817l-1.141-1.153-2.7,2.336c-4.741,5.5-1.35-2.336-12.432,1.987l1.111-.673-1.775-.817-10.851,2.835c-1.61-.32,6.32-3.491-2.727,1.154l-.91.834,2.727,1.5,2.021-1.165,19,.813.65.352.924-.846-.462-1.49c.679-.5,3.391,1.009,2.266-1.154l-3.854-1.345,9.271-.673-2.266,1.5,5.448,3.651,1.566-.813,1.565.813.7-1.15h5.42l-.671,1.15,4.531-.494-1.832-1.49,2.719.834,1.111.656.7-.656,1.559-.5,3.861,2.486,1.586-.483.434-1.5,1.132,1.15,2.727-1.984-.455-1.667,4.286.832.455-1.151c6.342.989-12.4,5.156,5.88,0l3.831-.835,23.955-3.17,13.578-2.5,23.276-.673h2.245l-5.4,2.34-11.983,2.336-6.112,2.5-7.468,1.49-1.132,4.483v.336l6.573-1.987.44.483-7.453,3.49-15.368,2.834-7.447,2,1.566,1.154s-2.259-1.824-.427,1.168l-6.1-3.493c-.916,1.491,5.858-2.479-2.742,1.171l2.266,2.82-3.831.831v2.322h-3.832l-4.77,2.838-5.426,1.147-1.132,2.021,1.132.816-1.132.817-9.271-2.5c-4.5-.975,15.829,4.5-7-.323l-4.979,1.187,7.244,3.97.9,1.665-3.615.337-5.412-2.336-3.861.334h-1.14l2.266-1.985-8.116.336-2.266,1.649h-10.872l-1.1,3.654c.455.512,1.1.351,1.595.351l-5.447.8,2.259-.477-2.7-1.491-3.175.334-9.935,1.157-6.326,2.483-1.819-.82-13.557,3.651-3.615-.48c0-.864.679-1.186,2.719-.352l.44-.512c-1.356-1.634,9.487,1.183-3.838-1.487l-1.132,2c-2.259-.673,4.97-2.321-2.691.352l-1.617-1.186v2.339l-1.125-.673-4.278.673-1.126,1.347c.887-.19,2.475-.866,0-2.02l-3.614,1.5-4.531.515-2.05,1.473h-3.831l-4.965,1.666-2.048-.834c-1.566,1.49,11.335-1.506-4.278,1.17-.9.657,1.8.657-.679,1.169l5.418,1.315-4.293,2.336-5.439,1.153-1.566,1.169-1.587-.656-4.963,5.973-6.559,5.975,1.573,1.5,4.986-1.984,6.55.834-3.4-2,1.132-.834,2.721,1.651,10.844-3.139-1.126,1.986,7.678-.5,1.132-.814-4.957-.674v-1.666c4.265-1.827.426,5.83,6.089-1.665l.895,2.017,8.81-.352,5.881-.336c-1.35-1.491-1.8,4.661,0-2h1.58l-.447,1.168,4.97-.813v-1.154c2.721-1.186,6.119.8,5.881-1.186,0,.334,2.482-.992,0,1.186.908-.688,1.132,1.967,2.266-1.186l-.679-.5,4.286-2.322c-.916-.834,5.881,0-2.042-.834l2.042-.834,2.266,1.668,7.692-1.171.887,1.171-3.616-.515v1.347l3.174.319,2.706-1.985c-.44-1.347-1.125,1-1.565-.337.216-.659-2.266.176.44-.817l2.712,1.473c4.51,1.5-13.341,3.171,5.426-3.139l-.448,1.666h2.029l.677-1.666,12.4-3.17c2.272.175,1.838-3.985,5.454-.832l-5.881-2.339-2.264.866-1.574-1.68h-8.816c-.91.814-.91,0-1.581-1.684-1.811.864-.448,4.676-4.292,2.017l-2.245-2.017,8.118-1.97,1.117.816c-1.117.338,2.721,1.347-1.565.513l4.963,1.5h.918c-.918-1.68,7.438,2.149-2.058-2.351l-1.125-.82c.916-.158,2.72-1.505,2.72-.334v.334l6.552,3.991,8.145.333c-.916,2.981,2.7.656,4.748,1.667l-.924,3.155c1.356,2.319,4.077-.833,4.322,1.649v-.834l1.125.834h.866l1.154-.834-1.587-.815,8.579.495,6.58-2.819,8.8-1.666c.238-1.5-3.4,1.827.484-1.5l4.963.34,15.586-2.006v.322h5.4c3.175,1.344-7.208,1.505,3.175-1.487v1.487l6.1-.322,1.587-1.165-2.727-1.154,4.314-.852,1.126.355,8.585-3.494c2.7.677,6.1-5.155,7.707.337l11.97-3.651,1.111-1.168.916,1.168,2.266-.688,4.292,1.169,4.286,3.51-3.615,2.462-2.712-.8c-.44,1.154-3.616-1.344-1.79,2.322l-.908-.671-11.985,3.153-1.132,2.337-13.109.835-1.58,1.985-8.125,1.985-2.712,1.669-7.476,2-.656,2-5.44.319c-.455-.161,1.134,1.824-.455-.832l-7.013,3.989h-3.376l-2.05,2-1.132-2-3.831,1.662c.216-.158-4.063-1.809,0,2h-2.713l-1.119,1.508-3.175.5-2.265,1.97-6.313-1.153-4.532.673v1.666l4.532,1.985,4.286,3.153-2.721,1.666-4.278-2.834-18.535,2.021-1.595-.853-11.969,2.515.463.322h-6.343v.829l-2.244-.829-3.853,2.337c-.67-.351-2.5.992-2.027-1.169l-.685.5-12.9,1.984-27.106,7.177-4.978,1.985-2.706-.835-2.7.835v.817l1.572,1.168-24.869,7.144-8.139,2.819h-2.244l-1.14,1.505-2.714-.673-5.418,2.339c-.253-.164,2.258,1.824-.463-.834l-15.808,3.156-4.307.849-11.285,2.817-6.118,2.339-14.452,11.946-5.425,5.317-4.957,3.49c.44,3.17,12.654-10.953-5.447,4.837l-7.663,4.324-.916.817.916.849-.916,1.634-1.132-.8L2132.9,5264v1.669l-3.845,3.171-11.739,7.46-1.832,3.329-6.314,2.343a1.237,1.237,0,0,0-1.8,0l-.461,3.138-7.676,5.99-.9-.325H2097.2l-.692,2.308-5.881,4.836-3.146,1.154c0,.513,2.49-4.131-1.138,1.183l-.686-.334.686,2.322-4.293,1.666-.708,1.151c-1.559-.99,8.145-2.817-2.7-1.151l-1.559,2.819,1.132.832-4.992,3.171H2071.2v1.985l-4.531,2.34-.44,1.648h-3.846v1.49l-6.552,3.665c-1.356.337,1.8-3.665,1.134,2l-2.737.322-1.585,2.5-4.949,1.168v2.3l-4.3,2.516-2.719-.51.692,2.494-3.831,3.171h-1.126l-13.131,7.961,1.132.834-3.161,1.169c0,1.827-3.4-2.322,1.134,1.666l-1.826-1.666-3.615,4.321-3.831.835c1.565.656.677,1.49,0,2.5l-5.44,2.307-1.111,2.337-3.853.834-2.7,4c-19.2,13.787-39.106,29.4-59.646,44.714l.649.319c-6.753,2.819-10.4,10.634-17.374,10.476l1.1.829c-4.069,3.493-12.647,9.483-14.235,12.651-.454,1.991-3.383,2.98-5.418,3.639l1.587.846c-.237.319,3.593-.846-.893,1.154l2,.831c-.664,2.149-2.7-2.831-1.558,2.006l-3.167-2.006c-6.118,3-12.207,6.471-15.823,10.81l-1.14,1.985-5.418,1.491h-13.564l-3.831-1.986,2.266-.831.432-1.988,4.964-4.322-1.126-1.168,1.6-1.171-.476-1.315c-2.266,1.652-6.529,1.827-8.118,3.314l-2.719,4.662-4.272,1.988,1.111.831-2.719,1.986h-17.38l.44-1.151,4.965-1.666,3.175-2.659-.448-1.666,5.411-3.153c-.208-.337.469,1.806-.671-.834l5.419,2.834,1.132-.832-1.132-1.168-2.692-.5,1.782-1.989V5440.7c-2.922,4.322-9.48.194-11.976,1.684l-6.1,4.3.692.515-9.726,7.461h-16.263c2.245-1.491-3.615.849.888-1.986l-3.152.835.425-.34-.425-.495-2.727,1.986h-4.286l2.049-2.322c2.027-1.649,2.237,1.651,4.5-.495l.887,1.326,1.84-3.633c4.048-.194-2.964-1.681,3.615-2.018l-.924-.834c-2.936,1.5-6.558,1.171-7.683,1.988l8.606-6.793,9.927-5.489v-1.666l3.176-.32c2.482-1.844,4.293-4.661,4.293-7.161l-2.721,2.339c-10.411,3.813-20.772,14.286-30.281,19.954v1.985l-3.838,3.139h-13.111l6.559-5.988-.463-1.154,10.852-8.81c-3.377-1.662.671-1.824-.679-3.984l-.44-.82-5.881,2.486-4.986,3.489,4.986-5.975,2.706-1.505-1.14-1.166,2.056-2-.916-.831-3.406.831c-2.475,1,3.182,1.347-1.125,2.339l1.125.832-1.557.834-1.134-1.666-9.719,6.822-2.265-1.186c4.531-.975-.686-1.648,1.819-3.651l2.712-.319-1.826.671h2.72l1.113-1.505c-1.782.5,1.832-1.5-2.006-1.663v-.832l-6.573,2.82-1.573,2.5-1.817,1.171-.9-1.666-4.986,2.479.469,2.34-4.3,1.153-4.293,2.835v2l-1.588.832-3.832-2.5-2.265,1.325-3.615.34c3.182-1.168-2.042.638,2.7,1.151l-4.971,2.5-1.132,2.337-1.566.322c-1.132-3.493,9.495-5.991,4.964-9.964l8.585-4.676.448-1.984-3.615-1.315h-2.236l-2.742,2.486-1.58-.835-3.385,1.988-1.572-1.153-2.05,1.153h-1.119c3.385-6.151,10.181-6.649,12.448-13.119l-1.141-.51c-4.083,1.666-7.005,5.314-12.446,4.837l2.258-.852.463-2.641h-1.581c-3.4,1.985-7.236,4.324-9.285,7.141-1.342-.495.7,2.661-1.572-.832l-1.134.832,1.134,1.153-1.56-.828c-3.636.828,1.79-1.83-3.852.828l2.719-1.985v-1.985l6.53-3.651.909-2.017-.432-.674-1.126-1.665,1.559-1.151-.909-.82c-3.608-.67-4.5,1.154-7.23,1.649l-.887.658,5.412-.336c-3.824.834-6.328.673-9.927,1.185l2.7-3.507-.916-1.329c-.216.512-1.788-2.5-.671,1.329l-2.02-.817c3.167-1.151,2.691-4.164,4.286-5.156l5.858-1.985,2.266-3.669,2.742-.834,1.559-1.169h-3.825l-2.056,2.852-2.266-1.683,1.134-.817-1.134-.671,4.322-6.5,8.118-4.8v-.673l-1.111-.48-1.61,1.153-2.706.817c-1.564,6.679-12.409,5.493-15.15,12.812h-4.287l-1.1,2-4.322,1.666.44,1.153-4.718,2.817-2.272-.512v1.681l-3.153,3.99v2.336l-3.406-.351c0-.161-2.928,0,.707-1.156l-1.832-.829-2.05,1.985-3.831-1.651-1.566.817-1.132,2.849-1.134-1.664-4.313,2.5a23.39,23.39,0,0,0-4.257,4.646H1673l.426-2.661h-4.293l4.293-1.312v-2.017h1.14l.692-2.661,2.7.658,5.419-2.658.9-1.968h-2.7l-2.041,1.488c-1.35-.5,2.957-1.168-2.266-.337-.224-.161,4.1-1.666,3.391-2.817h-4.531l3.406-1.666V5411.3c-2.7.814-4.965,4.643-8.8,4.324v-2.339l-2.727,1.154,1.125-1.986h2.272l2.021-1.665,1.832.512c.866-.352-3.181-1.508,1.574-.512l-.708-1.154-3.608-.835,1.618-1.5-.708-.5c2.943-.176-1.782-3.49,1.14-2.319l-1.14-.834-2.021,1.665,2.729-3.651-1.618-4.324,2.05-2,3.825.334h1.14l1.125-.849-2.265-2.322c3.181-.992.706-3.809,2.265-4.819l3.182-.32,5.419-5.32.461-2.336,1.132-.834.679,2.5,3.152-.5v-1.508l3.153-1.328,2.727-3.491,5.418-2,.671-2.482c7.93-3.988,11.545-8.825,20.556-13.132v-2.834l1.14.832,2.742-.832,1.1-2.658,2.027.67,3.853-4.643-3.853-1.681c3.615-.161,4.769-4.822,4.985-4.307h2.721v-.834c2.691,1.985,1.348-2.337,4.746-.835l-2.719-1.165,2.719-.5,1.788-1.171-1.132-.817,5.433-2.336,2.027.334h1.14l1.126-.691-4.978-.8,2.712-.835,3.854.835,1.132-.835-2.266-3.168,5.427-6.471,1.809,1.315,3.153-2.483V5323l3.161-.8,1.132-1.49-1.58-2.831-2.251.319-3.182,2.512-6.984-.512-.686-2.319,2.706-.34c.216-2.351,2.266-1.007,3.4-3.329v1.649l5.881-1.151,1.119.831,1.14-2.819,4.293-1.666,2.266,1.666,2.027-2.817,4.955-1.186c-.656-.992-2.482,2.337-1.132-1.665l-4.965,1.665,2.72-2.819c-3.605-.5-4.284.995-7.466.834l3.182.832-2.05,2.017-2.706-.864,1.573-1.665H1769.5l1.119,3.17-1.119-.641h-1.132l-.463,1.988-8.124.656-5.433,1.329-1.58-.494-1.587,1.15c-2.027,1.488-4.978-.831-6.089.5v-.835l4.286-.813,2.706-2.325v-.832c-1.79.638-2.706,1.985-5.4,1.151v.834l-2.056-2.819v-1.5h4.322l1.557-1.347,1.581,1.347c-.224.161,2.5.48-.9.337v.816l4.293-.482,1.133-1.5c.216-1.168-2.7-1.827-1.133-2.819l-1.126-.835-2.264.835-1.581-1.186,3.846-2.8-2.264-.849v-1.154c3.391-1.168-2.49,2.82,3.391-.849.7,1.01-.887,1.681,0,2.852l-1.126.817h2.259l1.595,2.336,1.58.5,3.838-2-.677-1.648,4.509-.849.916-2,3.391,1.681,2.7-2-2.258,3.5-2.7-1.5-1.595.322c-.224.673,3.392.513-.453,1.666l3.167.831-2.251.674-.916.831.916,1.154,6.089-3.49,1.595-1.153-1.141-1.347,3.408-.32,6.982-4.324,1.587.351,2.287-1.182c.218.831-5.9-.159.874,2.336h3.391c-.679.322,1.595-3.648-.679,1.651l2.735-2.805c-.224.82,2.7,2.149,2.7-1.182,3.616-.674,5.881,0,8.8-1.989l3.867-5.665,2.021-.319,1.593-2.5,2.266-.319c.216.477-4.993-1.347.426,1.662l2.265-2.5,4.97,1.663,1.589-2-.679-1.171-.91-.828c-.222.828-1.788,0-2.7.828l4.293-3.329,4.747-1.985c.246.48-3.4-.351.671,1.666l2.048-2.017-3.635-1.154,5.418-3.139-1.11.639,4.724-.639,1.833-2.851,8.117-5.958c-.448-.352,2.936,2.324-1.111-.832l-3.846,1.985-3.16-1.153-1.833.322-2,2-9.726,1.649-1.811,1.154-6.326,1.182-3.861-2.336-5.4.834c1.811.67-4.532,1.666,1.132,2.656l-2.264,1.346-1.134-.831-5.447,1.47-3.146-1.985-15.836,2.834-5.859,1.153c-1.363,2.673,5.642-1.806-1.587,2,3.4-.512,7.447-.161,10.188-1.5l.658,1.154-11.524,2.336-8.592,1.347,3.182-2.5,1.119.831,3.838-2.017-3.838-.8-10.838,3.139.44,2.02,2.266-.354-1.574,1.168-1.608-.333-5.4,1.487h-.7v-1.154h3.853v-1.487c1.14.158-.455-2.178,1.587.319l-3.175-2.322-2.706,1.49c-5.649-1.49,8.8-.5-4.965.513l-7.481,1.982h-5.4l-10.837,1.508-1.132,1.154-3.838-.319-4.307,1.984-4.314.835-1.775-.835-2.057,1.664c-3.391,0,7.692-5.666-5.41,1.171l-1.14-2c-.455,0,19.884-.339-9.25,2.813l-10.866,1.508-20.094,2.817-1.587-1.985h-1.587v1.985l-5.879,2.017-16.292.82v-.82h-3.825l-1.579,1.634-9.265,1.171-3.4-1.651c-1.574-.829-4.293-.99-3.161,2.486l-1.132.653-3.161-2.659-2.712.339-2.727,2.832-4.265,1.171-18.087,1.169-.9.831-1.839-.352-.88-.831-1.134,1.183-4.963.322-16.754,1.666-3.37,1.151-10.165,1.153-6.1.835-2.042-.835-4.293.835h-1.14l-1.126-.835-9.256,2.5-10.18.864-10.845,1.154-.7-.513-2.691,1.347-1.58-.834-7.007,1.985h-9.271l-1.572,1.153-4.3-.813-11.522,1.648h-2.727l-1.125,1.151-30.267,2.851-7.7,1.154-.434,1.666c-.224.67-1.14,1.824-3.181.333l3.181-1.665-5.426-.334-8.145.846-3.153,1.153-4.986-.333-5.425,1.473-3.153-.8-10.865,1.666-8.139.817-4.964.337-9.7.834-2.266,1.151-2.712-.319-4.307,1.5-18.976,1.311-10.39.656-1.6,2.006-.426-1.5-1.587,1.5c-.677-.677,5.873,1.666-2.727-.325v1.157l-2.266-.832c.246-.161,1.134,1.666.484-.677l-4.741,1.187-1.593-1.187-13.557,3.171c4.285,2.006,8.355-3.648,11.746,0l4.53-.828v.828h2.02l-1.586.835-2.266-1.329-6.314,2.819h-8.823l-3.838,3.985-5.427-.319c2.237-.334-4.732-3,4.509-2.5l-5.4.5-1.832-1.153-2.482,2.318,2.048.835h-4.747l.426-.51c-.426,0,1.377-1.315-1.558-.325l-1.587,1.154c0,2.5,7.676-8.646.908,4.5h-.908l.908-1.332v-1.5l-4.285-.48.65-.352-1.134-.834-3.83.834-.433.832-7.707-1.666-1.111.834c-.237-.834,3.616,0-.461-1.663l7.02-1.156c1.558-.829,3.607-3.648,4.949-2,0,0,1.572-1.81.931,1.171l1.775-.325c-2.245-1.344,1.371-.333.916-2.336l1.811-1.663h-6.1l-1.132.828c2.265.358-7.678,4.486,4.51.358-6.1-.358,3.4,8.613-8.8,1.15l-1.134-.673-.432.673c-1.616.5-4.314,6.468-6.573.5l-.461-.5v1.663l2.048.82-2.72.814-.916-2.48h-4.51l3.368-.817-1.557-1.508.916-3.171,5.418.352,1.8-1.18,2.706.351,5.44-.852-.7-1.151c.476-.336,2.048-3,3.852.832-2.719.659,3.616-5.314-1.587,2.325-.677-1.5,9.95-4.31-7.005.832l.476.477-5.439,1.543,2.7.477,7.707-.477.433-2.02,4.964-.322-1.134-2.015,3.861.351v1.664h3.146l.49-2.015,13.1-1.652-1.134-1.49-3.831.337.656-.337h-3.4l-2.027-1.663-5.412,1.663-1.14-.831-4.308,1.5-2.7-1.5,1.126-2,6.342.337.679-1.505,4.739-.512c.223,0-5.2-.129,2.266,2.017l4.755-2.337,4.524.832,3.615-1.315,23.492-2.655h3.153l3.859-1.666c-4.293-1.5-5.425,2.319-17.856,1.666l-.671-2.006-1.587,1.491.448-3.171,2.265-1.151.434,1.151h2.266l-3.153,1.68c16.961-.333-51.753,12.139,27.59-2l8.1-2.819,6.573-.832v-1.153h1.566c-.218.158-1.126.48-.441.834l1.58,1.151,1.126-.832c-.44-1.666-4.531,3.971,0-2.307l3.615-2.017,9.271-1.666,6.559-1.168,1.132-.817-9.732-.835,3.174-1.5-4.286-1.648-4.98,2.8c1.58.193,3.391-.638,4.3.846l-4.3,2.325c-1.579-.158,11.53-1.49-4.754-.334l-1.126.653,2.713-1.487c.679,1.329,2.5.673,3.853,0l-2.742-2.805c-.872.322,6.357-.831-2.7.322v.831l-2.706-1.984c3.406-.191,6.559-1.667,10.851-2.852l3.175.834c2.7-.322,5.4-.834,6.992.513l2.266-2.835.447-.5,2.714,1.663,3.391-.849,2.7,2.516,2.048-.835-1.132-1.681,6.1-3.124-9.279.325-4.957.829h-1.58l.664-1.154-6.1-1.68-9.25,1.68-.893,1.634h3.138l-4.964,1.49c-2.706.369,21.025-3.987-8.587.516l-1.125-.835-2.7,1.168-11.97,1.667-.924-.835-5.41,1.988-1.811-.817-18.313,2.8-1.125,1.5c.671,1.01,2.02-2.819,1.125,1.666l1.587-1.985c7.23.817,4.286-2.819,12.4.817l-.426,1.168-4.314-1.168-2.266,3.171,1.618,1.168-5.441-.834h-3.161l-1.593-4c-1.126,0-2.937-1.824-4.525,1.666l2.727,1.666-5.881.671-3.152,3.334-2.274-.834-1.565,1.49-.692-2.322c-1.574-.834-3.19,1.824-3.616-.834l-3.838,1.153c0,3.988-3.852-2.977-2.266,3.332l-3.181-1.985-1.558.656c.671,1.807-6.8-1.841,2.048,1.648l-4.314-.319v-1.666l8.579-2.307-.9-1.68-1.111-.849-3.168,1.665.426.352-11.97,1.985-3.832,2.006,3.832,2,2.264-1.506h4.748l-7.013,3.49-5.4-.336-5.433-.5-4.293,1.327-3.859-.831-23.268,2.837c-2.483,1.648-7.676.653-9.7,3.458l1.58.863,6.537-1.666h4.3c-.446.158,2.5-.337-1.125.483v.832l21.248-1.315h7.013l2.265,2.483h-4.523l-5.888-2-15.823,1.505-.893-.673-18.066,1.505-5.881-.832-5.448,1.327-.432,1.171-4.531-.512-5.873.831c-2.706,2-7.447,3.153-14.026,3.153v.5h7.013l1.125-1.652,3.182.5c-.238,1.508,8.363-3.49-4.307,1.157l9.271-.82,3.615,1.648,3.823-.477v.477l5,.352c6.992,5.144-7.921-3.648,11.955-.352l7.483-1.329-1.609,1.329,3.181.677c2.93-.325,6.544.158,9.271-.325l-3.175,1.157,2.035.834c1.58.334,2.49.828,3.406-1.991l1.124,1.157.874-1.509,1.132.677c3.4,0,8.139-2.995,10.413-.325l-2.706.835c-.455.8,7.229-4.82-1.581,2.342l-1.14-.852-1.587,1.329-8.795,1.171-2.727-1.171-3.846-.477v2.48h-.893v-2l-9.942,1.49-2.027,2h-1.589l1.589-1.154-4.293-1.663c-2.727.5,11.97,4.483-3.832-2.693l-1.609,2.693-2.266.817-1.125-1.168-6.544,3.168-2.042-1.154-6.536,1.985-8.593-.831-3.392,1.985c-.467.176,6.112.176-2.733-1.5-1.126.676,9.74-.158-3.825,1.5l-2.056-1.985c0,.831,2.511-2-.643,1.156v-.325l-3.182.325v1.344l-8.145-.515,4.314-1.5c-.461-.639,5.418,1.347-1.58-1.634l-4.3,1.634c-2.264.676,11.753,2.181-4.963-1.309l-1.595,1.309-1.1,1.186,2.236,1.153-11.514-.319,1.782-1.344c3.615,1.344-5.636,1.344,3.181-.325l-4.963-1.165-.916,1.165-1.126-.831-2.266.48c1.126,1.186-12.2.515,2.721,2.339l-1.132.832-1.589-1.151c-.44.671-1.586.671-2.048,1.151l.916-1.666c.455-.158-2.027,1.508,1.132-.319l-5.418-1.186-4.292,1.186s-2.729,0,.432,1.153l-.895-1.663-1.134,2.5-.662-.48-2.057,1.314c.239-.319-2.236,1.827.476-.834l-1.125-.832-8.145,1.666.677-1.985-3.4-.515c-1.342-.158,7.9-1.312-3.159.834l4.292,1.151h-2.719l-1.132.866c.237.32-.44-3.009,1.132,1.154l-1.572-1.154c-.455-1.185,3.831.645-1.589,0,1.35-.351-.67-1.855,1.589-1.665l-1.126-.671-4.748,1.47-2.7-.319.44,2.006c-5.181.157,9.5,5.138-4.972-1.172l-1.587,1.172-6.55-1.687,5.447-.319v-2.5c.866-.483-3.636,0,1.782-.676h-2.706l-3.844,2.339-7.685-.834-3.152,1.186c8.116-1.01-7.908,2.146,7.005.48l-1.595,1.185c1.14,0-.67,1.652,1.595.32l-3.853.834-1.125.817,2.251,1.168-8.131,2.5-3.846-.516,2.274-1.15-3.832-1.169-3.852,1.169-.47,1.985-3.391,2.336.7,1.651,1.132.849,2.029-1.665h4.284l-1.565.816,1.565,1.169-2.049.834v.319l2.742,1.666,1.14,1.186,1.566-.339-.692-1.166,4.523-3.332,2.719.832,4.727-7.463c0-.513-2.7,3.139,2.265-.847.237-.834,2.042,1.52-1.566-.5l1.566-1.151h1.132l-1.132.817c2.721-2.48.461,5.335,6.565-.817,2.706-1.154,1.358,2.307,4.754.5l-1.586,1.153,8.145-.834-6.559,2.354-3.831.48-3.636,1.49-2.237-.655-1.155.655-.461-1.97-2.265.48c0,.319-4.727.674.7,2.339l-2.272.481c-2.482.831-2.914,1.666,4.3,2.321,3.846.337-2.027-.816,2.26-1.651l2.049.516-1.595,1.984,2.706,1.986,5.439-.832,4.972.319.432.513-6.544,2.339-2.691,5.124-10.195-.638v-.516h3.167l-2.027-1.49-7.229.337-.916-1.151-2.7.814,1.565,2.325-2.264.831,1.587.835v1.165l-3.153,1.171v1.154l4.293-.835-3.852,2.835h7.243c-2.474,1.49-2.265,3,6.336,1.171l1.117.834,1.155-1.5,5.4,1.5.476,1.151,5.4-2.656-.887-1.991,4.725.659.692-1.168,1.566-.32c-.216.159,2.05.5-.656.829l1.79.659.916-.659,1.132,1.991,15.152-2.5-.91,1.168-6.1,1.332-5.88,1.985.44,1.168c-.656.337,4.091.846-1.572,0v1.169l3.831-1.169,6.55,1.169,5.88-2.817h3.161l3.4-2.837,1.132.5,7.468-.832-1.132,2.337-.462-1.171-3.175.5-3.37,2.337s.231,1.5-1.111-.352v2.337l3.832-.323,2.7,1.476,5.441-.8v-2.02c2-.161.44-2.837,2.7-.671.679-.322-5.188-2.485,1.566,2.337l1.14-1.169.692,2,4.748-3.648v-.834l-2.7-.671.649-.834,2.05.334,1.132,2,2.266-.834c.649-1.011,2.914,2.482,1.565-2l1.566,2,2.266-1.5.916,2.339-.916,1.648.469.846,7-.846v-.816l4.293,1.153,3.391-1.153,2.05.816,6.1-2,2.7-1.65c-1.14-1.166,3.153.819-1.14-1.491l1.14-1.344,5.88.835,2.265,2.5c0,.828,2.475,1.824,8.139,0l4.747,1.5,8.8-1.5,2.729-2.5,4.739,1.666,1.811-2.82c1.8-.161-2.048-1.666,2.042-.831,2.027-.34.656,2.655,3.377.494l.893-1.329-2.7-.67,14.668-.483,2.75-.352c-2.266.352.209,8.649-8.146,1.169,0,.5.679,2.16-2.727.831l-1.126-.831c-.237,1.665-.893-2.641-3.167,1.665l7.7.337,10.166-1.666c-2.49,3.988-4.748.835-10.845,2.82,1.35,1.344-4.523.176,1.566,2l3.83-.334h1.595l-3.16,3.171h3.16c-.224.158,2.5-.352-.9.319,2.05-2.5.671,3.668,8.139-2.337l-.7-1.153,3.406-2.5h.916v-3.49l9.927,1.5,3.182-1.153,5.41.817,7.692-1.681c0,.512,1.8-.96.426,1.347h1.14l.455-2.5,1.147,1.154,5.886-.319,1.083-.835-2.237-.319,5.427-2.5,6.089.834,16.738-3.49c.895.158,2.49,3.329,4.972-1.347l-.679,1.666h1.811l.887-1.666.7.513-3.4,2.339c-1.565.319-2.936-2.178-4.293-.339l2.245.852-2.691,1.472,2.041,1.171,11.977-1.49.679-1.153c-1.134-1.028-6.343,6.452,6.983-2.516v-3.987l1.617-.835c1.32.34-2.974,1.988,2.236.516l-2.719,2.816,1.587,1.988,1.588-.5.44-1.49,3.391-.832h1.574l-1.132,1.154-1.574,1.168,2.266,1.664,5.871.339c-.909.67-6.781-.673,7.014-2l1.572.817,5.44-2.819,1.132,1.666,4.293-2.5,20.794-1.988,2.02-1.5,4.985,1.5,4.265.516c.916,1.809-11.494,2.465,1.14-5.159.239.322-.9.673,1.126,1.153,1.14,1-9.25,3.332,2.056-3.984l3.391.831,5.88-1.652c.887.32-7.921,1.81,2.7.821l1.587-1.172.679.351-3.853,2.805-1.111-1.651c-1.616,1.491-4.308.5-4.308,1.651l-5.432,3.49,1.161,1.649,8.095-.319,2.042-1.985h8.145l6.552-1.988,4.993.673,9.711-1.186v-.334c-6.1.495-1.349,6.486,7.437-4.822v-1.153l2.266.319.469-1.154,3.825,1.988c-.895-1.824,9.5.513-1.566-2.819,1.35.48,2.027-.671,3.153-.334l-.455,4.819-4.292.351v1.154l22.827-1.154,3.175-.866-2.272-2.3h-3.615l1.572-1.186,4.748.676,1.826-.676-1.826-.814.692-1.985,4.272-1.648c4.986-.677-3.377,1.308,3.852.8v-.8c2.021,1.15,4.077-2.342,3.846,2.48v-2l1.58.322,1.126.849-4.972,3.15,1.14,1.154,2.027-.319v1.5h4.98l1.14-.671-3.854-1.344,2.266-1.49c.671.175-6.559-.5,2.712,0-3.852-4.485-1.608,7.975-3.391-3.991-2.488.515,1.126,2.325,3.832-1.185,2.727,2.342-2.706.866-2.266,3.191l1.824-.5.874,1.988,6.581-2.339c.425-.322-6.342,2.834,3.391.351l-.692-1.508,2.741.835,6.53-2.02.454-.8,4.509.322-5.4,2.5,4.265,3.49,10.858-.829.469-1.171v-.817l5.4,1.33c.918,0-4.963,1.809,1.61-1.681l1.781.351,5.448-1.508c1.348,0,2.915,1.827,4.264,0,.482-2.977,3.181,2.838,2.748-1.984l1.111,1.984c3.391-.158.664-1.984,2.72-2.494l3.616-.677,1.8-3.3,5.425.816,4.741-4.324v3.171l3.4,1.153,2.692-3.153,1.6.832-4.293,3.153,3.161.319c-.887,1.171-3.161-.48-3.83,1.681l1.587,1.157,1.132-.832c2.7.989-8.147,3.171,3.831,0v-3.493h-1.132l3.4-.817.9-1.68,6.118-.32v-1.171h2.691l1.134,1.171,3.615-2.339,10.843-.832-4.286,3.491,1.126,1.68-4.98-.337-.895.674.895.48,2.259,1.988c1.832.351-8.355,1.5,3.832-2.468l1.616,1.311,5.4-7.639c3.175,0,2.476-3.153,5.433-2.318l1.573,2.655,1.587-1.168,2.719,2.483a2.2,2.2,0,0,0,1.79-.512l-3.832,1.68c-2.943-1.68-6.8-2.325-9.71.832l-.679.339,1.595,1.151,2.7-1.151v.32l2.7-.32L1621,5329l5.426-2,.447.849,14.026-4.339,6.537-.512,1.134-.8c.476-.175-4.964,2.644,0-2.336v2.336c.476-.175-4.054.674,1.587-.337l-2.027,3.652c-4.314-1.649-10.405,7.319-10.405-.832-2.048-.334-1.356,2.834-2.264,1.491-4.741,3.984-7.671-5.32-4.741,6.5,0,1.156-2.49-.835-1.132,1.49l-3.161-2.677c1.364-1.985-9.948.677,2.029-2.48l-2.706-.336-2.042,1.487-1.132-.656-3.377.337-5.42-.337-1.593,1.985-1.1-1.329-8.147.852h-3.615l-1.826,1.154-.895-.677c-1.37.677-3.16,3.171-4.986,0l-1.572,2.343h-10.837l-11.536,1.663h-7.454l-2.265,1.49-14.7.513-4.747,2.643,1.14.829,5.866-1.154v2.82l-9.264-1.666-1.595-2.814-6.992,1.66h-6.089l-4.293,1.988-3.174-1.988c-.916,1.33-2.041,2.34-7.663,1.154l-2.741,1.186v-.671h-5.4l-1.132,1.151h-1.61l-.432-1.666-4.964,3.171-2.7.5-3.182-2.006-5.425.834.463,2-2.057-.831-2.251.333-1.132.817-2.027-1.15-9.25,1.484-3.852,1.347-6.559-.847c0,.334-2.482-2.805,0,1.169H1450.6l.455-.322-.916-.847-4.964,1.169c-1.125-.158,8.363.351-2.266-1.669l-.432,3.99-3.174.849-11.543-2.02-.434.516,2.05,1.151-7.5,2.339-1.558-.835-2.266.835-4.292-1.5-5.419,2-4.963-.813c-1.595.48,8.124-6.328-3.176,1.984l-5.432.832-3.391.322,1.8-1.666-4.5-.337c-.673-1.311,5.208,5.844-5.881,1.681l-4.286,1.154h-1.595c.9,0,1.595-.513.463-1.666l-11.985,3.666-5.873.339-1.132-.834-4.964,1.985-3.615-1.151-2.266,1.666c-.476-.676,6.321-.34-2.266-.834l.679-.319-4.293,1.472c.224-.659,1.14.319.441-.834-1.784,1.01,12.221-2.161-5.874,0l2.042.834-1.565,1.171-1.61-.676-3.838,1.171c2.49-.67-2.7-1,2.266-1.985l-2.266-.834-5.389,1.648c1.1.176-.239-2.319,1.558.337l-1.134,1.153h-7.46c-.679-.814-1.348,2.018-1.111-1.153-3.852,1.988,6.091-5.508-4.986,2.819l-1.6,1.169h6.133l.886-.817,1.805,2.482c.461-.175.237-.834.924-.494v.494h-2.05v.656l-1.111-1.15-3.181,1.15,3.181,1.344-1.132.659-4.748-.659,2.029-1.663-3.161-2h.426v-3.154l-16.71,2.337-1.574,1.153c-1.825,0,11.277-1.666-4.978,0l4.287,1.666h-3.832l-3.607.834-2.706-2.5.888-2.336-3.63.319-.656.512,2.266,1.169-7.007,1.665s-2.511,1.33,1.558.337c-.916.641,2.266.641-1.125,1.154l-.434-1.154c-.922.319-1.832-.993-2.733,1.154l.467,1.168h3.153l-2.72,1.332-6.313-1.332-1.14,1.651c-2.042,0-4.308,3.171-5.88,0l-1.8,1.186,1.8,1.648-6.089-1.168c-.916-.322-2.474-1.314-3.83.671l1.125,1.343-3.846-2.014-5.418,2.337V5372.9l-2.727.832c.461,0,1.37.158.679-.832l-.679-.355-4.286,2.849H1228.2l1.134,1.476H1228.2l1.595,2.5-14.012,1.151-10.388.852-.918-1.329,12.446-2,2.706-1.169,1.132-.8-4.531.477-1.572-1.663-6.552,1.663-1.587-.477-4.741,2.8-1.14-1.151-3.831.832c.216.319,3.615-2-2.266-.832l2.729-3.987-3.161.816-2.266,4c-6.573-2.48,12.865-.337-7.013,0l-4.747-1.171-.694-1.986-8.577.677,1.593,1.309h6.552l-3.838,2.661-6.573,1.329,1.126-.852-3.146-.814-5.419.337-8.145.477-7.229-.814-9.711,1.171-3.176-.834-1.572,1.329h-7.713a5.1,5.1,0,0,0,4.314-1.329c-2.048-.674,5.664-1.01-3.174-1.49v1.153c-.216-.834,6.789-3.156-6.55,0l-4.943-1.153c-.266.48,4.481-1.681-1.616.816l1.616,2.337-2.049.835h-1.595l-.671-1.664c1.35-2,9.927.829-7.475,2.481l-2.712,1.168h-2.245l1.589-.835-6.573-2.814-2.7.5v-.852l1.132-.814-2.727-1.153-1.111,2.819c-.91-.5,2.706-1.01-1.6-.852l1.155-.814v-.834l-3.853,1.171.686-1.171-4.532.834-.909,1.666c-3.153-.852,4.077-3.49-2.706-2l-1.125,2.337v-.334l-2.72,1.169,2.049-2.021-2.727-2.479-3.153,1.665c-.679.495-.895.337,1.572.337.239.671-.677.834-1.117,1.329l-1.609-1.329-2.006.834-.694,1.664v.817h-1.125l-.9-3.315-3.391-.337,5.418-.834c.239-2.48-7.005,3.669,1.589-2.322l-.9-.477-2.266-2.02.447-1.985-2.706-.352-3.175,2.018-4.972,1.153v-2.34l-2.049-2.482.484-1.488,4.272-1.171-1.581-1.665-1.126,1.171v-2.852l-2.049.864c-.648-1.824,10.629,9.8,2.049-6.327l-.893-.495-3.391,1.666-3.161-2.018-2.719.352-2.727,2.819c.253.319-3.608-.659,1.132,1.171l-2.266.5,1.134,1.154-.664,2-2.729-.334-.872-2.5.872-1.985-1.565-2.819-1.595-1.169-5.852.817-2.719,1.186-2.727-3.493c1.832.483-4.531,1.988,2.727-.832l-.677,1.154,2.7,1.666,1.593-1.666c0-1.154-8.384,4.322,4.957,0l-2.243-1.154c2.922.481-13.8,2.322,6.1,0l2.691-3.651h3.859l.888-.849-4.257-.655,3.825-1.666,9.271-2.82-4.978-.834,1.587-2.656,2.7-.515,4.532-1.5-.7-2.8,2.727-1.171,2.266,1.49,7.005-1.967c.237.638-10.859,2.3,5.881.8l-.463-1.651c.463-.176-1.132,2.658,1.134-.691l-4.98.357-.461-1.991h3.175v-2l1.132-.337-1.132-1.985h-3.831l1.117-1.663-5.865-4.324c-.685-.5,4.964-.5-2.265,1.153l1.58-1.153-7.02-1.332-2,1.665-1.834-1.153c.694-.352.917,2.293,1.834-.846h-2.727c-.671.494-3.63.494-1.8,1.666l-1.587,1.153.671-1.973-6.552-1.68c-.679,3.328-4.07-1.824-6.558,3.17l-1.56-1.168-4.321,3.651-6.089-.817,2.264-.351v-1.652c1.35-1.153-11.3,5.815,5.881-.831l-2.056-1.487c-3.824,3.809-.917-3.847-8.139,2.318l-.65-.333,4.264-2.5-.426-.32,4.286,1.154,4.279-2.325-2.7-2.831,1.79-1.648-.65,1.15,1.1.85,7.042-2,2.238.494,8.116-2.819-1.1-.513-2.266-1.5c.216.864,2.721-1.985-.461,1.186h-1.134c-.887-1.668,12.893,3.97-3.831-3.171l-.447-2c.231-.162-.9-.817,1.126-.5l-3.861-1.154.47-.351-2.027-1.154c-.7.162,4.523-2.336-1.574,1.154.656.513.656-1.314,1.574.351l-3.406.835,3.406.817-4.314,3.987H1028.2c-.21.5,3.838-2.5,0,2.018l-1.8-1.154,4.5-4.517c-1.126-.334,3.174-1.491-2.266-.832v1.666l-2.237-2.325c-2.943-.5,9.25-4.977-4.292,2.325v.319h2.264l-7.713,5.352,4.993-4.837h-2.727c4.321.161-2.02-1.49,3.182-3.159l-1.134-.846,3.832-1.154c.237.162,1.132-.67.7.674l.9-.674c4.286-3.651-2.027,2.5,7.244-3.984l2.7-1.33-6.089-1.156-2.056,1.97h-1.8c-1.819-1.648,14.236-1.49-4.292-3.124l3.831-1.68-1.132,1.68,4.97.82,4.739-2c.7-.5,3.882-.835,1.134-2.5l-3.838.509c1.593-2,5.188-2,7.229-3.648v.817l-3.391.831,2.748,2.325h2.238c-.239-.515,3.152-.676.461-2.325l1.126.818c1.132-1.154,1.811-1.989,4.293-1.989l.671.34.461-.34-2.727-1.665,1.125-1.983c2.49,1.824,6.8-5.814,5.88,1.983l2.706-.319c.237-.829,2.048-.51,1.14-1.664h-2.265c-.665-.831,7.914,2.835-2.707-1.156,1.358-2-16.723,8.971,6.1-4-.216.333,1.826.175-.677.828,2.056-1.824,4.531.5,6.118-2.5.895.832,4.056,1.667,4.293,0l1.111-.834-6.536-.656-5.433-2h-5.865l-4.985,3.489,2.266-2.819h-3.4l-4.278,2.5,2.714.319v1.667c-.455.333-1.587,1.328-2.266.333l-.447-2.319-5.432,1.5-.434.481,2.006,1.487h-1.134l-.872-1.154-1.126,1.154-1.161-.659c4.069.834,4.531-.99-1.58,4h.476l-.476-1.662c-2.706,2.658,2.5-3.652-4.97,1.153l2.264,1.165,1.126.82v.829l-6.089.852c0,1.153,5.171,1.314,2.7,1.984v.818l-4.287-.818h-1.111l-1.154,3.154-3.614,1.154h-2.237v-.319l1.559-1.154c1.14.319-5.873,3.97,0-2.5l-3.825.832c-.245-.176-1.594,2.322-.469-.832l3.168-.831,2.265-3.49-2.7-1.157,2.7-1.343-.461-.319,8.145-3.171.887.333,6.581-.814c.209.481-.224.656-.476.814l.476.5,1.558-1.309-1.558-1.5c2.264-2.342.209,4.48,2.264-2.5l-2.741-1.154c2.035.642-4.5,1.989,2.035-.849l1.14.849,2.266-4-.7-1.5v-1.665l2.729,1.665h1.153l.642-1.665v.831c1.832-.481-1.8,4.339,2.727-.831l-3.37-1.649c.642.334-9.061,2.831,3.825,1.329l.432.32,2.266-1.649,3.182-.34-2.721-1.666c-.461.176-.9-.319-1.595.515l2.259-1.185c1.141.19-2.907,2.676,2.706.351l1.155-1.153-1.8-.832,3.391-4-2.742-2.319,3.175-.82c.708.322-4.957-1.007,2.274,1.154l-2.274,2.325c-1.126-.835-3.607-1.172-1.126,2.479l-.432-.48c-.237.319-2.265-.673-.461,1.329,3.377,2.322-14.689,4.486,8.124-2h2.042l-1.126.673,2.706.817-1.58.849,3.831,2.3c-.887.355,2.272,2.5-2.7.852,4.272,2.161-7.46,1.154,4.272.814v-1.985c2.265,1.49,2.048-2.5,2.726-1.666l8.81-.656c-1.126-.512-.44-1.329-.679-2l-4.286.322-8.145-1.988c-.432,1.314,3.182,1.314,0-1.985l-5.873,1.153-2.259-1.153,2.259-.334h.916l-.461-1.333,4.986,1.333-1.134-2-7.005-.834-1.132-1.154-3.832-.512-2.72,1.186-2.266-1.52-4.747,1.168,3.152,1.151,2.729-1.151c.453.161,4.284-2.659.671,2.336l-3.832-.333c-.216-.337.216-.5.432-.852H1041.1l-2.056-1.473-5.4.674-3.391,3.651-1.616-1.667,1.616-1.185-7.468-.319c-1.379-.48,7.244-2.5-2.727,1.171,3.615.176-1.348-1.171,2.727-2.837l.887,1.186c2.727,1.314,4.524-4.164,6.1,0,.252-.674,5.217,2.5,0-2.021-1.58-2.143-1.58,1.157,3.867-1.484-1.832-.659,2.243-2.644-3.391-1.655l-1.14.835-.916-1.186-2.692,2.837.9-2c-1.125.351,7.468-2.483-3.153-.484l6.531-.828-2.245-1.171-3.859.5h-.426c-3.615-3.829,7.894,0,0-5.317h2.692l1.593-1.507,3.824-.5v-.334l4.293-.834-1.134-1.154c1.134,0,1.371-.673,2.258-1.183l-4.257-1.651c-4.1.849,14.236,7.656-7.711,0l-3.153-2.322-.679.334,3.4-2.831,3.824.512.916-.834-.916-.832,4.321-1.186-2.741-.8,1.58-1.5v-2.5l-4.286-1.505,2.042-1.666-5.441-2.82v-4.321l2.727-.834v-2.82c.455-.158-2.488.337,1.132-.319l-3.859-1.666,1.832-.835,6.307.835h1.832v-1.5l.872-.834-4.263-1.986h-1.14l6.1-1.666.432-.333c1.35.333-2.245,2.643-1.134,1.153l3.882,1.165,3.37-1.165.455-3.156h4.293v-1.153l4.978-.5h3.138l2.264-3.152-1.125-2.021c-2.488-.8-.664,3.329-4.278,0l-1.587,1.168-1.155-3.153-2.706.334c0,.852-4.739,1.49,0,2.5l-6.537,1.985h-2.265l-.9-1.985-3.391-.849,3.823-1.651,4.322,2,1.559-2-.888-.656-2.727.656-.642-2.671v-.834l1.559-.817,1.14,1.169,2.259-.832-1.587-1.49,1.587-.835-1.132-.846L1026.4,5186.2l2.237,1.663-2.7.676-2.266-2c-.426.175,4.314-2.161-.887,1.329v1.49l-7.258,2.837-1.566-1.665-4.293-.659.469-1.681h-5.447l2.266-3.651H999.3c-.484.512-1.126,1.168-.484,1.666h1.595c-1.356.334-3.167,0-3.167,2.339l5.447,3.329-6.573-.512v.512h-2.265l2.265-.849,1.126-.813-2.7-2.021c-1.342.673-5.224,1.839-3.392,2.834l-4.747.849-1.132,1.49-1.595.5-4.286-1.986-.692-.512-3.138,3.171,2.027,1.663L976,5197.342l1.587,1.157H972.84v-1.49l-2.719-.82h-1.132l7.013-3.171-.44-.51,2.706-1.984h2.7l1.126-2.662,1.587.676c1.377,1.81-5.88.319,1.14,2.48l3.608-.813,4.992-3.172,3.153-2.819-.909-.834.454-1.169v-.336l2.266,1.153,2.7-1.153-4.964-1.312-11.3,3.97-21.7,11.656-.664,1.153,4.271-.333,3.4,1.153,1.134,1.165-11.516,5.159-5.9,2-3.831,3.314-2.706-1.346-16.276,9.322-.441,1.185-3.844.832-1.141,1.473-4.934,2.02c-.491,1.312,9-4.676-3.645,1.985l4.748-4.837,3.831-1.473-2.243-1.665-3.615,2.819-3.391-.322c1.342-.832,2.02-2.687,1.132-3.332h-3.838l-2.742,3.654c2.5-1-.44,3.315,4.314,1.151l-1.572,1.666-4.762.834-2.721-1.329-3.837-4.327h-1.134c1.8-2.993,9.063-1.839,9.711-6.293l3.4-.512,4.308-5.492L917.48,5205l2.258-2.852-8.839-1.985-.44-.835-2.691.835.425,1.157-8.138,1.7-5.419,2.3c-.677,3.139,13.348-6.98-6.99,1.985H886.52l-1.132-.814,3.4-.337,3.823-3.138v-3.171l2.7.319,2.048-1.663-1.581-1.49-3.859-.82-8.124,2.31-2.72,2.5c-2.266-.159,6.341-4.146-3.153.325l2.02-2.311,3.853-2v-1.172l-4.286.677-6.58,5.984,4.316-.351-4.748,3.171v-1.5L870.229,5205h-4.292l-3.853,3.458-5.873-1.154-1.566-1.487.908-1.33-2.041-2.339c1.8,0,3.615-1.473,4.307-1.985h-2.266l7.238-7.144h-2.706c.874,0-2.5,1.83.44-1.151h-2.266c3.616-3.171,4.293,2.981,6.552-2.834h-4.286l-12.438,7.976-5.412,3.985c.21.163-.469.5.432.834l-3.138-.509,5.4-4.31-.685-.495,3.4-3.157-1.587-.339c1.348,1.666-3.825-1.5-3.392,3.5l-1.14.828-2-1.153-4.986,1.153-4.747-3.985,2.72-4-3.4-1.967,4.971-1.508-1.14-2.015h2.7l-1.557-2.8,4.747-2.483c-1.356,1.314,3.167-5.012-6.32-.688l-3.4.336-3.825,3.652-3.645.336,3.161-1.988-.432-2c.648-1.827,1.356,2.659.916-1.665,1.565.67-8.384,3.009,3.825-.319l1.572-1.154-.44-3.684-.455-.319-7.684,5.476h-1.574l.441-1.473,2.259-.513,1.14-3.49,3.152-1.171-1.587-3.988,1.587-1.984c.239-.176-2.5.16,1.132.319l1.134-.832-2.266-.834-.453-1.5-6.538,3.508c2.014,2-3.867-.5-3.391,5.316l-1.587.337,1.587,3.156-.909,2.835h2.035c-3.391,3.808,7.908-2.34-3.853,1.648v.688c-.916-1.186,6.118.8-2.027-1.186l3.167-3.156-1.587-.334-3.159,1.985.895-4.483,2.712-.834-1.58-1.153v-3.491l-9.256,3.171-4.748,3.476-.679-.337-1.586,1.171v.829l1.586,1.157c.679-.993,2.7-1.157,4.517-1.157l-6.1,2.819v-.494l-7.007,1.329,2.237-3.315,1.616-1.168-1.134-.834,3.161-3.988c3.153-1.344-1.379,3.332-3.161-2.339l1.574-1.151v-.834c-4.972-2.656-1.14,5.653-4.748-1.985l4.308-.32.44-1.347c-1.79-1.5-6.775,6.152-2.056-3.171l2.741-3.138c-.237,1.315-2.041,1.315-2.258-2.852l1.134-.831-4.308-1.49,5.873-.481h1.134l-1.574-1.5c.664-.161-2.041,2.483.44-1.168h-3.181l1.616-1.329,2.027.817,8.139-4.805-7.468-.337v-1.153h3.831l-.656-4.82,3.831-.831c.463-.834,1.811,1.985.463-1.171l-9.726.831c.447,1.81-2.706,1.33-4.293,1.171l-1.587,1.667-4.293-.832-4.5,3.49-.924-.674-2.266,2.322-7.654,2.322c-.916,1.5,14.892-8.646-3.182,4l-1.132-2.342,1.132-1.663-2.266-.319c1.134-.992,4.532-3.156,5.448-1.168l7.229-1.988-3.406-2.5v-4.324h3.831l1.134-1.168v-1.666c-2.937-.319,13.333-5.976-6.089.512v1.154l-1.574.334,1.574-2.814,7.684-1.172,1.111-1.153-.65-2.336c.887-1.505,4.949,1.329,3.362-2.5v-1.154h-3.823l4.284-3.17-.461-.5,2.029-1.49c0-1.186-7.223,6.661,0-3.666v-3.493l-5.852.337,2.243,3.156-.656.846-4.741-1.183-1.14.846v-2.514c.9-.32.9,3.17,1.565-.815l-4.955-1.984-.434,1.311c3.132.179-.916-4.482-2.265,3.156l-3.182.337,2.72,1.165-2.28,5.639c4.3-.992-5.188-2.643,4.524-.831-4.287,3.17,2.481-2.82-4.524.831l-.44,1.666-3.825,2.676v1.667l-2.727,1.165.671.483-2.266,1.168-1.565-.5-1.132-.67v-.835l1.565-1.15-4.286-1.669-1.132-2.817c5.2.671-2.461-3.988,4.286-.337h4.992v-3.987l2.258-2.5-4.523-3.17,3.37-2.3,1.153,1.49,6.343-3.475h.641v-2.02c.247-.158.916-1.5,1.624.834l1.559-2.5h1.574l-.434-1.491-4.963.659-.463.51-2.72.322-4.314,4.515-6.529,1.153c2.922-1.824,9.032,3.651,7.019-6.5l7.007-1.49,4.963-2.834h2.691c-.662-1.476,4.316,0,.463-2.82l-2.027-.831c-1.587.158,8.8-2.149-3.825,1.346l4.964-2.836c.671-.162,1.341.992,2.027,0v-.835l-4.754-1.165,4.286-1.988c2.943-3,7.7,3.153,7.005-4.483l-2.258-3.174h3.4l-.7-1.487h1.832l.432,1.487,1.595-.319v1.506l3.37.479-7.229,3.171-.889,2.82h3.637l4.963-1.666,3.832-3.97,4.307-2.34,3.838-3.651-.677-.334c3.152.478,3.831-2.324,4.963-.515l1.587-1.168-3.175-2.307-7.669,1.505,1.566,2.819-1.566-.849-4.308,2.834c-2.914-3.65,11.754,2.34-4.97-1.985l4.531-1.171c-6.11.322,2.252-6.163-8.137-4,.216-.5,5.4-1.171,0-2.82h-1.832l3.859-3.156c.231-.319,1.371-.992,1.58.513l-.9,5.8,4.308,1.666v-1.154h5.873l1.132.835c0-.516,2.7,5.316,1.566-2.5l-7.447-1.5,2.029-2.48-.455-1.171-1.134-.835-3.181.516h-2.237l6.552-5.671-2.7-1.488c0-1.171,8.137,1.985-4.986.334v-1.151l-3.859-1.185-2.7.351c-1.565.834,3.84-5.51-2.691,1.651l-.924-.817,6.314-3.683,1.832,1.168,3.159-.337,4.293-4.8,10.4-5.991c-.224-.175,2.042-.5-.677-.834l-3.161,1.315-1.587-1.315,1.587-1.15-2.741-4.838-1.566-1.153-1.574.814-.685-.334.685-1.97-4.978.641-1.587,1.663-.656,3.672,1.789.67-1.132,1.648,1.132.835c-1.364-1.01-5.879.5-4.537-2.483-3.132-2.336,6.8,0-.889-3.522v-1.634c1.14-2,4.062.814,3.637-2.339h-2.05l-1.14-1.666,5.881-1.5c2.056-4.465,4.055-6.149,11.543-6.805l3.146-2.482h2.714l1.132-1.508,5.873-1.986,12-6.485,1.574-2.658,2.7,1.153c.692-.336.916,2.325,1.825-.816l-.692-.337,6.089-2-1.788-1.329,3.844-.656-1.132-1.663,2.691-1.666,2.266,1.329v-2.836l.455,1.188h2.265l8.125-2.342,2.741-1.664,8.118-2.836-.449-1.49,2.042.675c4.286-4.166,2.02,3.491,7.013-3.17H866.4l1.132-1.154,5.4-.337,4.993-.5,10.166-2.832,6.55-2.005,2.266-2.3-1.126-3.666,3.169.5-.91,1.154,2.021,1.182c1.832.164,2.266-1.182,2.727-1.182-5.21-2.978,9.026-1.33-2.727-2.82l4.314.512-.476-1.315,4.3,1.634c2.057.835.916-1.634,4.323-1.15l-3.637-1.168-10.39-.82-4.963-2.018-8.139.835-3.182-1.33-1.132,1.33v-.835h-2.7l2.265-1.648-7.713-1.5-8.579,3.153-2.7-1.153-2.72,2.325h-4.986l-6.992,5.65,1.134.673,4.725-.673.7,1.988,4.747,2.018-1.572.319-5.441-2.337-1.132.352v1.154l-.432-1.506h-1.595l-1.587-1.315-6.531.832-4.986,1.989c-1.37-.659,7.9-.159-3.159-.322-.91,3.317,7.237-2.179,1.132,3.155l-4.523-1.168-.463-.834-9.256,2.834,1.58,1.154-3.182.336.476,1.329-4.754,1.172c-.909,1.309-2.259,4.819-4.978,3.489,0,.656,4.069.162,0,1.986h1.587c0,.319,1.811-1.649-.455.834l-2.243-.834H802.43c-1.132-1.171,14.018-1.49-5.418,3.651h-3.853l.7-.832-2.727-2.819h3.852l4.293-3.139-6.118-3.171h-3.608l.9-1.186,4.531,1.186-1.125-3.988,7.439-2v1.666h1.817l-2.251,1.168,2.251.322,1.587-.322v-.51l4.286,2.48,5.873-2.8-2.712-3.987,2.712-.835c1.819-.832-7.221,3.815,3.853.483l-2.035-1.665,4.3-.818-1.6-1.49-4.964.659,1.126-1.171,3.175-.319c-.91-1.666-4.978,7.3-.448-3.171l2.712-.835c1.111,1.842-7.243,3.172.441,3.522v-1.182c.67.16-6.8,4.482,4.314,1.182l1.125-.684-1.125-2,5.4-1.33c.455-.494-3.4,1.33,1.132-1.153,2.72,4.148-13.549-.5,5.441,1.648l1.111-1.153-6.552-2.817v-1.185l-1.132-.817,3.4-2,1.557,3.49c2.974.357-9.465,5.32,4.993-1.487l-4.515-1.684,1.788-.829c1.616.671-6.305,2.176,3.182.51l-1.566-1.666-3.882-.828,2.266-3.139,3.182-.358h1.14c.671-3.138-5.209,3.172,1.559-2.813,5.448-2.167-.432,6.145,5.448-.835l2.7.835,4.308-1.171c1.348-.835-11.1,5.492,4.963-1.154.434,0-4.068-.5,1.574.656l3.175-3.49-1.587-1.666c-2.727.351-.239,4-4.725,1.666V4946.5l4.263-.512-.677-.323,1.14-.831,6.558,1.666v-2h1.126l13.549-3.987h1.6l1.572-1.172-10.843-.814,2.7-1.185-3.153-.832,1.126-1.654,8.6-2.319v-2.5c.44-1.151-3.63,1,1.572-.671l-1.132-.48c-8.147,2.5-2.274,6.47-19.416,7.126-1.832,1.33-.916,4.852-5.879,2.834l.88.835,2.727-1.154,4.531,1.488.887-1.169c1.111.176-2.936,4.82,4.509,0h.918l-8.139,2.5H866.4l2.706,1.487c-.924-.322-3.616,5.493-3.167-1.168l-8.594,2.336c0-.175-2.264,1.824.476-.656l-1.132-.834-2.742,1.988,1.134.817-1.566,1.5h-3.831l-.455,1.168-1.14-.656-4.286,1.154v1.186l-1.834-.355-11.276,4.328-2.721-.325-2.72.676,5.441-2.676-7.7.656v2.82l-5.4-.8c2.027.958-1.37,1.309-.476,2.462l3.867-.494-6.118,1.68,2.251,1.652,2.742-1.33h3.825l-4.964,2.5-1.6,1.15,4.978,1.154,8.146-2.813-9.942,5.314-1.58-1.666-4.769-1.664-3.823,2.513c.893.333-2.721,1.329,1.586.333v.484l-7.005-.484-4.97-.828-1.134-.674-3.175,1.5,1.134,1.154-3.832,2.006-2.272-2.006c-1.348,5.32-5.649-4.819-.9,5.32l-7.237,2.337H778.7l-3.831,4.323,5.4-1.5h2.041v-.835l.671.835-6.977,4.837v2.321c1.125.656,3.391-1.519,3.153,1.652l-4.986,2.336-.895-.834-2.72,1.153-6.531-1.985v-.336l2.006.336-.44-2-8.147-2.324-2.7,1.153-1.589-2.819-2.727-.319c-.216-1.347-3.831,1.314-1.565-2.34l.432-.5,3.859,2.835h.463v-1.667l4.286,1.667,6.552-4.006,6.1.34,2.72-1.974c0,.484-2.475-2.35,1.587.8l1.14-.8-2.266-.684,5.881-2.518,1.782.852c.245-1.011-3.138.5.476-1.172h1.565l-.461,1.172c-.209-1.667,2.727,8.822,5.433-5.142l-4.293-.515.448-1.487,3.19-.495v-.354l1.789-1.154-2.272-1.985,1.595-1.666-2.027-1.5-3.4,1.183.679-4.48-2.243.478c-1.832-.993,6.992.322-3.182-1.154h-1.132l1.595-1.344-1.126-.656-2.735.319c1.132-2.16-1.349-.975-3.146-2.819l3.853-1.165c-2.266,1.824-.463-4.823-7.229.333l1.782-.333-7.23-4.823-4.286,2.834-.461,1.989-1.566.333,2.027-3.988-6.558-1.984.677-4.325,1.589-.351-1.589,1.185,2.021,1.488,4.531-.334,1.566-1.988-9.25-5.156v-5.973l1.595-.53,1.126,1.684,2.264-.337.432-1.347v-1.473l2.266.835-1.132,3.138,2.7,4.322.49,4.486,1.126.673,5.88-4.307c0-.852-2.973-.336-.463-1.684l8.579-2.339,2.266-1.151v-.816l4.284-2.838,3.4,1.684.432.322v-2.325l6.58-1.68-1.616-1.171c4.769.354-4.719-3.809,5.439,0l2.706,2.339.91-.322,3.844,1.988,1.126-1.666-2.243-1.487,2.72-2.006,1.788,2.834,1.589-.509,3.159,1.68c.909-1.505,2.72,1.33,3.4-2l-4.531-1.171-5.881-3.652c-.44.5,2.481,0-1.126.337l.686-1.171,5.426.834,6.334,1.151h.679V4916.9l1.587.834,2.7-.834-.463-2.819.463-.671-3.175-1.666-1.111,2.337-4.322-.671.916-2.834c3.645.176,8.363-2.161,10.39,0l-1.132.834,1.132.656,1.608-.322-2.741,1.666,4.984-.512,1.134-1.986,10.172-1.49,4.28-1.648,6.125-1.666h4.265c.692-.175-5.4.641,2.264-.673l-1.132,1.507,4.748,1.154c.237-.176,1.125.67.691-.676h1.141c1.132.852,2.02-5.139-1.832,2l6.118-1.326c.677.176,4.069-.176.453-2.325h-6.571l-5.88-4.339h-1.566l-2.266,3.168-4.747-1.985-3.392,1.985-2.027-.828c-2.02,3.17,6.336-1.333-3.831.318v2.5l-2.72-.82-1.574.82-.692,2.831H829.1l2.029-1.648c-1.782-.832,6.789-2-3.161-.354l3.853-2.5-.692-.325,5.433-2.494,4.515-1.986c11.516-1.329-17.171,6.981,9.734-4.005l3.131-.319,1.134-.834c.475.319-3.832,1.153,1.608.834v-2.339c2.027.673,0-4.805,5.4-1.315l3.853-1.5,2.243-3.171,1.616,1.183c2.49-.846,8.124-3.844,9.711,0,.671-.512-5.873,2.146,2.272-1.666l.9.82,4.481-1.666-4.957-.644-4.963,1.153,2.7-1.663-.893-.819,3.636-3.171v.482l2.706-.482c.656-.5-7.252,1.49,3.4.834l-1.14-2.834,5.88-1.985c1.782-.176-7.007,3.634,3.831-1.171h2.272l3.825-4.325V4871h-2.266c1.35-.158-2.915,3.847,1.595-1.154L897.358,4871l-2.048,1.666-1.782-.48-.484-.319,4.992-2.849,6.335-.322,3.823-2.82,4.323-.849,1.125-.814-2.742-.357,6.581-4.29,2.258.642.432-1.476c.7.325-7.013,4.805,5.426-.846l-1.565-1.171c-3.37-.993,1.349,7.141-8.818.831-.7.677-4.963,2.02-8.577,3.16-.478-.165,1.349,2.831,0-1.14l-2.266,1.971-6.335,2.319-1.81,1.171v-1.171l-3.182-1.648v-2.32l-7.655-2.836h-2.05l1.134,2.005-4.964-.325,2.272-2.494c-.706-1.666-7.02,8.452.426-3.511l-4.286.34,1.126,1.648-1.8,4.342-6.314-.834.887-1.508,4.509-2,1.595-1.153-1.595-1.33c-1.349,1.825-4.509,1.666-5.4,1.666l4.725-1.666-2.727-1.5,4.993-1.634,1.126-.863-5.412-.641,5.412-2,5.425-2.483,2.048.483,2.266-1.665c-1.14-1.315-1.624,3.984-.7-1.989l8.139-3.156,4.531,1.974h5.88l.432-1.974h3.391l-.664-2-.916-1.667-4.986-.319v1.154h-2.706l-.432,1.183-6.119.817c-.216-.5,2.5,0-1.11-.334l6.1-3.335-3.4-.653c-.694.334,6.313-2.819-2.7.653l-2.721-1.47h-2.02l-.7,1.985-3.615.832.916,1.154-4.314-1.667-1.134.835-4.286-2.322v1.487c-3.838-1.329,6.125-4.148-4.725-1.153l-1.132-2.336-7.713-1.33-3.153.835h-1.587c7.005-1.171-10.627-2.325,6.328-2.325l.677-1.666,3.182-2.339-5.447-1.151h4.993l1.593,1.985,2.259-1.666,3.614,2,2.266-2.322,4.265-.5,1.608.817c-.9-2.143,3.838-.495,2.706-1.648l1.132-2.677-3.838-.479v-1.169c5.181,1.169,2.243-.831,7.663-4.324l2.265,1.49c-.209-2.981,5.88-1.651,5.426-4.307l-1.132-3.156,3.853-1.344v2.018H899.63v.8l1.559.512c2.266.513,1.134-1.505,3.182-1.663l.677.352-4.292,3.3H898.49l-2.265,2.343c.916.494.677-4.167,2.72,1.662v.322H896.9l-1.126,2.835,2.714,1.165-2.265.834,1.81.319,7.013-3.489,3.832-2.5c.455-.161.671.179.916.512l-3.16,3.157,3.16,1.49,3.846-.677-.484,2.677c.246-7.32-.641,5.815,5.888-4.325l3.852-2.322,2.7.642c1.141-2.3,1.587,0,5.9-1.97l-1.587-1.169-5.873,1.666c-.91-.337,9.711-3.651-4.293-1.666l.432-.319-1.125-.837-3.832,2.325-.916-1.488-3.4,1.985,8.147-5.671-2.029,1.683.895,1.166,4.986.837,2.251.814,2.035-1.651c.224.322.679-1.824.679.837l3.161-1.189,9.725-1.648-.461-1.648,2.712.8c.469,0,3.175-2.48,3.868-2.817l-5.008-1.985-4.963.832-.887.817.446.336-1.125,2.018c-.224-.194,3.391-1.347-2.042-.352.216-.834,1.581-1.329,1.581-1.666l-7.685-.658h-2.035l-1.117,1.49-15.152,1.665-2.243-2.5-2.266.832v-1.168l-4.741-1.649-5.447.495,1.126,2.322-7.223-1.49-1.566-1.327,3.825-2.659-2.258-.834-2.042.334-1.119,3.159c-5.418,4.963,5.209-1.83,3.861,5.97l-5.448-3.153-1.132,1.186-1.132-1.186-2.7,1.186-5.88-1.186-3.825,1.985-1.593-.8-2.266,1.648c-3.161,1.809,2.482.319-2.02-2.322l.432-1.68h4.307c-.692.175,3.616,1.168-1.132-.817l4.531-3.172-4.531-2.819v-1.985l-4.314-1.186,2.727-1.985-4.725-.319,1.565-1.666c2.021-.158-10.4,5.97,4.748-1.666l-.91-1.168-2.7.509-1.832-1.329-12.411.82,7.663-2.325c-.658-.319.916,4.149,1.132-2l3.182,2.321,8.579-.322-.924-2.817-3.37-.834,3.37-.831-1.1-2.659c-1.589-.834-2.729.319-3.853,0v-2.5l1.587-2.819-5.88-.351c-1.111-.319,2.945-1.487-1.587-.319l3.616-2.5c.454,0-4.272,7.144,6.571,0l7.013-.322h7.663l.476-1.151h3.362l2.742-2.02c1.559-.158-9.063,4.981,4.257-.828l-1.559-1.157,7.46.641,3.838-1.487c0-.164-2.727,2,2.264.351V4761.8l-8.145-.819-2.72.819-2.7-1.329-4.964,1.329-5.88-1.648c-2.72,3.472,8.579-1.845-3.831,2.3l-6.581-1.475c-1.348-.334,2.945,4.134-1.125-2.015l-7.454-.48-2.264-.673-3.832,1.153,3.832-1.985,20.122-.834,11.3.834c1.595-.357.455-2.164,2.721-.834,2.915-2.662-.484-.337-5.44-1.985l-.924-.352V4752.5l5.447,1.666,1.574-2.837,2.042,1.171c1.565-.674,6.558-.319,3.831-3.171l3.4-1.154-3.4-2.819c5.447,3.493-.426-4.837,10.4-2v-1.491c0-1.185-1.125-3.17-6.089.32l-2.048-.832c-1.566.512,4.076,4.486-4.965,1.168-3.4-1.006-4.748,1.652-5.873,2.5,1.8-2.336-10.629,3.637,4.741-.846l1.81.846-1.81,1.157H886.044l-7.669.846-3.832-1.183v-1.666l-2.048-1.154-4.314,3.491-3.832-.334-1.125.334-3.838-2.337-11.3.846-2.714-1.168h-2.266l-1.14,2.325-3.152-.337,1.153-.82-1.616-.846.463-1.154h4.292l3.846-1.666-1.132-2.819h9.732l3.832-2.659,4.963-.512c1.834,0,2.945-3.812,6.581-.814l2-1.523,1.134.864c.482-.67-4.957,1.315,2.264-.864l-1.782,1.523.65.5-2.266,1.5-5.4,2.483,5.4.336,14.719-1.168,2.264.832,2.006-.832,2.72,1.985,3.853-1.153c.679-2.835-9.7,2.163,4.964-.5,2.943.656-5.664,4.324,0-2.659l-2.7-1.666-6.119-.319-6.99,1.473V4734.2h2.7l-5.419-3.665c-2.243.336-3.146,3.507-7.682.846l1.8-1.5c2.027-.5-3.392,4.661-1.126-2.835,4.069.5-6.342,4.82,4.286-1.171l-4.963-1.984-6.314.673-3.852-1.508H850.814l-1.132-1.168c-.455,1.01-1.834,1.168-3.861.673l3.406-1.49.887,1.171,1.132-1.171-4.747-1.985-6.091.8h-1.593l9.732-1.967c.887-1.011-10.195,3.49,4.265,0l20.115,1.967,1.134-.8,7.013,1.49,6.573-1.168-.484-1.154c-.642-.161-1.991,4.483,2.056-1.188l.692,1.188,1.574.319,2.042-1.985,1.782,3.3,2.726-1.967c2.937-.677,4.287,1.49,7.013-2-.916-.676,4.062-.325-1.593-.516.216-.5,1.125,1.186.44-.816,1.825-.334,4.3,3.332,3.875,1.332l.425-2.006c4.085,3.493,1.141-5.811,8.154.34,4.047-.834,6.089-4.149,10.836-1.988l-1.14.834h8.825l3.167,1.982,1.587-.828V4713.1l1.125,1.488,6.119-.674,4.271-1.648-3.4-1.151,3.852-1.185-1.132.67,6.112,1.344c1.14.641,2.251-3.522,2.712.641,2.042.835,2.258-1.311,2.692-1.47-2.915-.515,5.879-2.181-3.377-.515l5.433-1.985-1.58-1.186,2.706-.831,3.831,1.346-1.134,1.487-1.557-.816-3.182,1.648.916.337c2.691-.337,7.223-2.656,8.809.515l5.859-1.185,8.839-.835,17.856-2.819,2.02-1.652c0,.164,3.161-.334-.887-.67l4.741-.817-1.595.817,6.559-.5,2.027-2.834c2.264.653.237-3.83,3.853,0,10.62-1.33-7.23-.5,9.248-3.991l-2.243,1.669,1.14,1.663,3.824-1.663.438-1.168,3.882-1.652,9.25-.834.455-.351-8.594-.32-13.109,1.986-13.563,1.171-3.168,1.168-5.873-.34-3.391.659-3.838-1.154-2.72,1.667-3.616-.513-3.831,1.344-2.727-.512c-4.978-1.491,1.819,4-5.41,1.171l-17.4.849c-.447-.674,6.1-2.02,0-2.852l-6.559,1.344.679-2.831-7.244-.5-.44,1.988,1.572.513c-1.132.992-3.4,1.314-5.873,1.153l-1.14-.834,4.314-1.151c-1.811,3.49,11.977-1.827-5.426,0,1.35-.673,2.251-1.01-2.712,1.985l-4.293-1.153-.455,1.984-4.509-1.153-8.608,1.988-1.565-1.988H911.6l-2.264,1.988-1.566-.48-1.61,1.151,4.3,2.482,8.147-1.153v-.5l1.132.831v1.154h-7.221c-2.266.334,2.7-2.981-1.618,1.666l-4.263-1.666h-3.182l2.7-2.819c-4.732-.162,4.98-3.652-4.5.512.665-1.663,3.846-2.018,4.5-2.512l-.656-2v-1.487a5.067,5.067,0,0,0,3.832-2.486l-9.279,1.315-1.566.67-4.963-1.151-.484.814v1.171l-3.825.835c-1.132.48,5.418.992-2.056-.34-.642-2.319,2.266,1.172.484-1.666l-3.175,2.838-.679-.513-1.111,1.344-.476-.831-4.286,1.153-6.552-1.153c-1.14-.513,5.441-1.011-2.264.319v1.665l-2.706.355.679-1.186-7.692-1.985-9.271-1.168c1.825-1.652-2.475,3.314,4.964-1.171l-3.14-2.5,5.4-.319c.476,2.181-8.116-1.666,3.182,1.5l2.7-1.186,1.125-.831-3.823-3.473v-2.005l-2.266-1.666c3.153-2.495,2.266,1.028,8.139-1.488l1.132,2c1.14.319-.237-2.658,1.574.638l2.264-1.153,4.957.515,1.595,3.156,7.005,2,6.559-1.681,8.145-1.153,1.126-2.837-1.126-1.986-12.467-1.5,4.322-.813,1.559.813c-.434-1.984,5.9-1.487,6.587,0h3.825v1.5l2.048.5h1.134l-1.134-2.482,4.293-1.169,9.942-.846,8.577-1.153c-1.8,3.647-1.8-6.313,2.266,3.168l9.041-1.5,1.125,1.171c.895-.515,1.35-1.681,2.72-1.171l-5.873-1.986-4.963,1.476c-.476-.15,2.475-.483-1.14-.325l16.248-2.814c1.616-.357,2.72,1.825,3.4-.837l-1.132,1.985,2.72,1.666-2.266.325.679.846,5.433-.846-1.126-3.139-1.608.829v-1.666c6.789.656-7.447,4.327,5.9,1.985l1.126,1.666,2.251-1.666h2.712l1.587-2.336-1.587-.832,2.027-.816c0,3.984,3.4-3,3.882,2.836l2.237-.837.886.837.7-.837.44-.831h1.587l1.8,1.987c1.356,0-7.655.334,3.182.829l.44-.319-2.706-1.666,1.134-1.183,15.8-1.985,1.14.832,1.566-2.483,7.013-.685-.434,2.014-9.285,1.985c.44.834-1.8.48-1.126,1.154l-3.182-.832-1.782.832,3.832,1.507c2.7,0-4.964,2.337,2.7-1.156l3.853.837,7.69-.837-.677-5.153,1.125-.834-3.146-1.169.887-1.683-.453-.641-1.14-.832c-1.126.673-3.132,2.146-2.7.832,1.14,1.508-7.459-.159,1.14,3.156l-3.852-1.648-.461,1.153-6.531-.337-3.859-1.168-3.153,1.5,1.134.832v1.168l-2.266-.685-2.258,1.182-.924-1.665h-7.231l-.886-2.337-2.719,2c-.218.82,5.663-2-.679,2.339l-4.748-1.168-10.843,2.319v-.656l-6.112,1.491-2-.835c-3.182-1.488-.254,4.5,1.572-2.67l6.544,1.519h2.027l-.44-4.854,4.293.867-.447,1.153.908.832c1.349-1.666,7.223-.337,4.972-3.493l2.251.641c.222,0,3.838.2,2.027-1.473h3.4l.886-1.168.7,2,3.138.641,1.153-.641,3.161.322-.44-1.652c2.922,1.971.224-5.489,5.4,1.652l2.727-2.322,3.153-.5,1.132-2.321,3.4,1.171,3.615-2.006,4.964,1.651,4.307-.816c.432.16-2.475-1.488,1.14.336l-2.735,1.985-1.58,3.139,1.58,1.683h3.168l1.125-5.653c7.445.831-6.1-3.332,6.1-3.49l2.727-3.991-4.531.337-2.727-.337-2.691,1.505h-1.573c-2.042,0,12.193-7.159-5.873,0l-1.134.82-2.264-.82-5.881,2-10.844,1.315.432-3.651,8.839-.337,1.572-1.329,22.143-2.658,1.154-1.347c1.566-1.315-16.724,6.5,7.663,0l4.741-.639c1.14-1.841,2.943,4.325.706-2.5h1.126l.872.82-.872,3.666,1.574.333,10.828-2.319v-2c0,2.834-.9-.5,5.448,1.15.224-.494-2.958,2.838.432-1.15l1.581,2.321h3.389l1.589-2.819c.895-.512,2.5-.67,3.167,0l-4.293-1.5c.916,0,1.364-.639,2.266-.481v-.831l-3.406-.355h4.531l.9,2.017c-3.377.165-9.726,3.654,9.942,0,.677.323,1.37-.989,2.027,1.154l1.132-.831-1.572-.673c1.572-.162,4.739-.481,3.831-1.986l2.727-.834,2.714.834.9-.834-1.587-.832,6.091-.831,3.175,1.15,1.132-3.153,6.537-2.322-.656,1.168-5.88,3.157c-.216,1.15-3.615,4,4.292,3.171v.831l2.245-.351-.656,2-3.853-.5-1.587,2.816,5.44.834,3.838-.834-.47-.337,3.168-1.648,2.265.5c-.9,1.651-3.167-3.669.447,2l1.595-1.68c2.49,2-8.139.828,4.314-.322v-.834l1.782,1.984-6.1.852,5.425,4.325c-.9-.193-4.754-1.5-2.727,1.985-2.475,1.824-4.054,0-5.881,1.985l1.14,1.666-1.14.674,3.853,2.816h2.727l-5.441,3.654-1.788-.834-6.357,1.662-.656,1.172,2.7.82-2.7.351c-.216.831-4.524,3.97-4.308,1.663l1.126-1.663-4.957.334-3.838,2.82,3.838,1.648c-.463,0-2.048.193-.463,1.188l3.853-.357c1.356,1.505-2.72,3.346-2.72,3.171,0,.5,2.5-1.312,0,1.171l6.336-2,3.837-2.823,11.537-1.183,7.005-3.139h1.111l-4.963,2.323-1.126,2.479,1.126.676c2.482.334,4.292-2.339,7.013,0,.671.99-1.371-.16-.455,1.344l10.166-1.344,4.985,1.667.432.351-3.159,2.483,4.993,2.816-6.574-2.482c-.922-.513,4.062-.513-1.572-.334l-.692.334c1.125,1.314,4.978-5,1.587,2.819l-1.587,1.151,2.742.834v4l-7.5,1.669c-1.342-.834,7.937-2.515-3.37,2.656l-4.307-1.186-4.943,1.669c1.342,2.5,3.125-.483,4.943.351l-2.245,2.48,3.391.34,1.111-2.82,4.769.814v2.006l5.4,1.985v.831h2.742l.649,3.5,4.314-2.336h3.153c3.846,1.171,4.077-2.659,7.684-1.663,1.572-.659,7.453-.5,2.027-3.991l6.552-.337,1.132-2.834,2.272-2.817v.832l5.419,1.154c.67-.144-6.125,2.178,2.72-.319l-2.265-1.154,3.831-2.5,4.307,2.5,5.88-.513h1.111c2.49-.834-16.963,4.164,5.41-2.658l14.706-6.8c-1.8-1.171-3.153-.674-1.589-3.157l1.589-.515,7.013-.319c-1.134.319-2.266-1.186-3.161,1.508l.44,1.312-.44,1.5,2.7.816,3.182-6.327.656-.48,2.042,2.823,5.418-1.986,2.727,1.148,3.832-2.336c1.14,2.178-7.686-1.312,2.265,2.017l3.154-3.665,6.559-.835,4.747-3.153V4667.2l1.825-.515,2.7,2.02,2.706-2.339,1.587,1.186,4.741-2.34,4.51-.5c.7-.158-4.72,2.644,1.595-1.487l1.132.319,3.146-3.49h6.587l.887-.831c-4.5,2.16,2.237-2.662-5.2-1.666l3.608-.82,1.14.82,2.264-1.988,3.616,1.988,3.391-1.988,5.425-.832,1.58.832,5.433-2.336c.448-.484-5.209.67,2.259.351l.454-3.172,9.257-.834,1.587-1.487,3.825-.5,3.188-3.171,6.089-.831,2.706-3.472,7.005-2.838,1.134,1.508h3.615l2.7-2.342,7.705-1.169c-2.266-1.49-1.348-.494,4.293-2.48l-3.153-2h-4.314l4.314-.659,4.264,1.49c.916.337-6.537-2.64,1.609,2.483l4.293-1.985v-1.988l5.42-.494.677-2.835,1.111,1.344c-.224-.685,4.307,0,5.441-3.68l-1.811-.82,4.51-2,4.747,2,3.391-2.834-1.125-1.505-7.013-1.634h-4.51c-3.153-1.024.216,3.654-4.293,0l3.846-2.354,18.542-2.483.9-1.984-.463-.337,3.838,1.168v.834l1.126.835c2.49-1,5.447.319,7.019-.516l1.126,2-1.126,1.651,2.693,2.337.484-.337-1.134,1.171-6.313,1.151-2.749,2.834,5.879.495,2.266-1.985,24.87,1.156c1.125-1.827,3.825-1.508,5.866-.5v1.651l-2.691-1.154-.916.829c-2.259,0,1.566-4.64.432,2.661h-3.131c.216,3.171-6.789,3.491-11.545,2.835-1.564.494,12.677.831-4.739,1.153-.679.176,3.823-2.324-2.266.831v.835c2.266-1.666-.216-2.483,4.293,1.165l-.463.483,1.134.674,1.587-1.157c2.265-1.838,4.069,3.973,4.747-2l7.252-.319,4.725-1.665-2.027,3.984-5.448.483-1.132.674-1.111-1.157-2.714,3.973-11.276,5.156v.513c2.7-2,5.4,2.5,6.984-1.663,6.126-1.33,2.943-.674,9.249.831l.918-1.985c2.048.48,5.223.992,6.1-2,1.37-.16,3.181.34,4.307-.336l1.14,2.658,5.418-1.487,3.831,1.985,2.721-.5,2.7-3.973c.7,1.83,2.048-.351,3.182.8l-1.134-2.322,1.134.849c3.376-1.185-2.266,4.325,2.7-1.665l-4.965-2-4.308.846.694-2-.694-1.171-1.572-1.343c-1.348-.322-4.062,2.833-3.823-1.151.208-.176-1.834,1.663.648-.835l5.441,2.5,1.559-.512.469-1.151-2.721-1.989h-5.858l-2.72,2.818-2.266-.32-3.153,1.154-2.726-1.663,2.726-1.157c-1.6-.334.671,4.31,5.419-1.183v-.831l-3.838-.325-1.126-.829,1.559-.5,8.145.5c3.4,1.663,1.141-2.149,4.993-1.985l.455,2.814,6.529-1.985,6.58.322,1.132,1.663,4.272-1.326,2.264-1.488-2.264,3.139-1.58,2.014,1.132.832-6.089,1.476,2.691.849-2.035.831c-1.111,1.153,10.621-2.673-4.97.322l1.132,3.666,1.132.816c.463-.336.918.674,1.595-.816l-.677,1.665h.677c-4.993-1.5-2.027,2.322-4.993,2.322h-1.125l-1.574,1.154,1.134.849-3.854,1.985v.832l-4.293-.832-2.266,2.82-3.146.351,6.546,1.154-.665,1.985-2.735-.656c-2.907,1.651,13.789-1.168-5.879,2l3.859,1.154-3.859.832c-.643,1.985,7.02-2.838-2.266,2.339-.209.319,5.238-.354-2.014-.834-.224.641,3.637-1.347-.685,1.648h7.237l-4.538,2.837v1.985l10.88-1.315,4.957,1.649-3.159,1.171c0,.48.224,1.315,1.559.48l-7.648.355,1.557,1.15-.908.5-2.237-2.819-8.614,1.171.916,1.648h-3.175c-.216,0-2.482-.322,0-1.329l-7.663,2.5v1.154c8.146-.832-6.1,3.329,7.23.834l-7.692,1.5,2.244,1.666c.246-1-.888-.676,2.05,0l-3.182.334h-2.237c-1.348-2.337,10.166,1.651-3.16-2v3.329l-2.72-.832-1.587-2.5c-3.161,1.824,18.549,1.666-9.929,1.666-2.042,1.168,1.566,2.319,1.134,3.648,1.565-.656,2.244,1-2.727.674v.831c1.593,2.339,4.971,1.332,10.389-3.168h1.134l-1.134,1.663,3.174,1.154,2.7-.48,2.264-1.5,2.048,1.153,4.532-.816c-1.147-.5-.484,3.331.44-1.169h5.866l10.411-3.651c-.916-1.347-3.174,5,0-2.339l5.426,1.186,4.286-2.018v.51l1.134-.832-1.134-2.816,2.266-.355h1.566l-1.566,1.5c5.664.176-6.789,1.988,6.537,1.666l.908,1.154,3.832-.832,4.986-3.493,1.593.355,2.26-2.006,4.284,2.006h2.706l3.846-3.171v-.835l3.167-.831c.448-.659,2.714,3.49-1.111-1.988l3.377-.337,4.718-3.153,4.316-.832,2.7-3.156c1.134-1.329.694.993,2.266-.834v3.155c-.679.162,1.824-3-2.266.32l3.875,1.68,4.272-1.68-.44,1.347,3.831,3.49c1.14,1.49,4.077-3.157,3.831,1.988l.924-1.154,1.8,1.666,2.729-2.5v-3.157l-3.4.337,1.587-1.5-6.328-1.154-1.14-.852v-1.15l4.307-2,2.243-2.5,1.6-.322-.679,1.988,1.111.351,2.72-3.171h2.727c2.474-3.988-26.911,13.791,9.25-8.327l9.732-5.638.65.322-2.7,2.833-1.811.835c4.51-2.163-3.607,3.153,4.51-.337.7.176,1.616-.336,2.048.337V4630.8l5.448-.322-.491-.831-1.558-1.171c3.825-.5-2.72-2.5,8.579-4v-2.31l5.418-1.982.462-1.347,14.236-6.31.461.319,9.249-4-.438,4Z" transform="translate(-748.13 -4608.845)" fill="#5c5c5c"/>
</svg>
