<svg xmlns="http://www.w3.org/2000/svg" width="755.84" height="706.199" viewBox="0 0 755.84 706.199">
  <g id="Group_1236" data-name="Group 1236" transform="translate(-352.601 -1087.894)">
    <path id="Path_21076" data-name="Path 21076" d="M696.317,1094.138c6.172-3.735,16.055,3.739,16.876-4.969l-9.884-1.275c-13.186,2.509-29.219,2.913-38.268,9.983C674.909,1098.276,687.253,1098.276,696.317,1094.138Z" fill="#231815"/>
    <path id="Path_21077" data-name="Path 21077" d="M799.211,1097.877l-9.04-1.67C789.758,1101.189,796.748,1099.111,799.211,1097.877Z" fill="#231815"/>
    <path id="Path_21078" data-name="Path 21078" d="M819.809,1102.859c-4.517-4.156-11.938-1.67-17.709-3.748C807.038,1100.363,814.053,1104.529,819.809,1102.859Z" fill="#231815"/>
    <path id="Path_21079" data-name="Path 21079" d="M825.982,1102.859l-2.06,1.248h2.893Z" fill="#231815"/>
    <path id="Path_21080" data-name="Path 21080" d="M847.389,1109.915c-4.948,0-7.816-5.808-13.592-3.743C836.685,1109.507,842.046,1110.755,847.389,1109.915Z" fill="#231815"/>
    <path id="Path_21081" data-name="Path 21081" d="M739.133,1112l-4.939,4.138h1.64C737.883,1118.233,740.367,1112.411,739.133,1112Z" fill="#231815"/>
    <path id="Path_21082" data-name="Path 21082" d="M717.306,1114.081v-1.248h-4.934Z" fill="#231815"/>
    <path id="Path_21083" data-name="Path 21083" d="M755.588,1114.081c-.4-1.248-1.65-1.248-2.875-1.248v2.074C753.938,1114.907,755.188,1115.329,755.588,1114.081Z" fill="#231815"/>
    <path id="Path_21084" data-name="Path 21084" d="M669.964,1122.8h1.64v-.826c2.071-2.078,4.544-5.414,2.071-7.9-4.521-.422-8.634,0-9.882,4.978H671.6Z" fill="#231815"/>
    <path id="Path_21085" data-name="Path 21085" d="M688.5,1116.985c1.23-.422,3.285.826,4.1-.844.406-.812-.4-1.652-1.225-2.06Z" fill="#231815"/>
    <path id="Path_21086" data-name="Path 21086" d="M776.579,1116.141c-1.654-1.234-6.161-2.482-6.161.844C772.462,1119.481,775.341,1116.563,776.579,1116.141Z" fill="#231815"/>
    <path id="Path_21087" data-name="Path 21087" d="M677.788,1116.985h4.937v-.844C681.083,1116.563,678.607,1115.329,677.788,1116.985Z" fill="#231815"/>
    <path id="Path_21088" data-name="Path 21088" d="M797.973,1119.059c-1.225-2.5-5.742.84-5.742-2.918-3.308,2.918-6.577,0-9.885.844C786.464,1123.225,794.275,1116.985,797.973,1119.059Z" fill="#231815"/>
    <path id="Path_21089" data-name="Path 21089" d="M648.976,1126.129c0-1.248,0-2.5,1.248-3.326,4.5,1.661-1.654,4.156,1.641,6.244,2.057.394,2.862-.844,4.112-2.088l-2.888-2.9c.833-.83,1.248-2.514,2.888-2.078,1.643-.844,3.7-.844,2.877-4.166-4.127,2.5-13.582.422-11.938,8.318Z" fill="#231815"/>
    <path id="Path_21090" data-name="Path 21090" d="M786.464,1789.937c1.64.422,3.294-.427,4.923-.84l-2.044-2.074C789.758,1789.1,786.879,1788.28,786.464,1789.937Z" fill="#231815"/>
    <path id="Path_21091" data-name="Path 21091" d="M462.63,1686.213l-1.449-1.045A3.285,3.285,0,0,0,462.63,1686.213Z" fill="#231815"/>
    <path id="Path_21093" data-name="Path 21093" d="M772.462,1794.093l.826-1.238a5.5,5.5,0,0,0-4.57.541C769.493,1794.579,771.12,1791.689,772.462,1794.093Z" fill="#231815"/>
    <path id="Path_21094" data-name="Path 21094" d="M458.4,1683.177l2.783,1.991C460.4,1684.254,459.646,1683.177,458.4,1683.177Z" fill="#231815"/>
    <path id="Path_21095" data-name="Path 21095" d="M811.984,1121.977c-1.239-2.918-5.758-2.078-9.063-2.918l1.238,3.744C806.642,1122.8,809.94,1124.055,811.984,1121.977Z" fill="#231815"/>
    <path id="Path_21096" data-name="Path 21096" d="M776.579,1126.959c2.9,1.244,3.71-1.66,3.71-4.156-3.71.83-9.451-2.5-10.7,0C772.062,1123.225,775.76,1123.225,776.579,1126.959Z" fill="#231815"/>
    <path id="Path_21097" data-name="Path 21097" d="M816.526,1123.427a6.52,6.52,0,0,0,.906.183,7.711,7.711,0,0,1-.5-.807Z" fill="#231815"/>
    <path id="Path_21098" data-name="Path 21098" d="M817.432,1123.61a5.3,5.3,0,0,0,7.316,1.271C822.506,1123.188,819.905,1123.94,817.432,1123.61Z" fill="#231815"/>
    <path id="Path_21099" data-name="Path 21099" d="M816.1,1124.055l.429-.628a5.4,5.4,0,0,1-2.473-1.45Z" fill="#231815"/>
    <path id="Path_21100" data-name="Path 21100" d="M644.037,1124.055c-2.486-1.252-4.945,4.992-6.989,0-3.308-.422-5.365,3.312-4.953,4.992C636.628,1127.8,641.161,1126.129,644.037,1124.055Z" fill="#231815"/>
    <path id="Path_21101" data-name="Path 21101" d="M784.406,1126.129c1.248,4.569,6.586,3.312,9.869,4.992l.819-4.162C793.05,1126.533,785.654,1123.225,784.406,1126.129Z" fill="#231815"/>
    <path id="Path_21102" data-name="Path 21102" d="M797.973,1129.047c5.78,1.234,10.717,7.051,14.846,3.73-2.074-6.648-10.3-2.5-14.846-5.818Z" fill="#231815"/>
    <path id="Path_21103" data-name="Path 21103" d="M840.8,1129.047c-.828-.436-1.223-1.252-2.053-1.252l2.053,3.326Z" fill="#231815"/>
    <path id="Path_21104" data-name="Path 21104" d="M845.749,1127.8l.8,4.982,2.059-1.656,2.889,2.89,2.058-2.074C851.5,1128.611,846.973,1130.281,845.749,1127.8Z" fill="#231815"/>
    <path id="Path_21105" data-name="Path 21105" d="M819.809,1131.937c-2.473,3.753,4.542,9.144,4.939,9.974C822.282,1138.993,826.4,1131.515,819.809,1131.937Z" fill="#231815"/>
    <path id="Path_21106" data-name="Path 21106" d="M883.2,1134.842c-2.473-.831-5.342-2.065-7.815-2.905C876.621,1133.6,880.724,1138.177,883.2,1134.842Z" fill="#231815"/>
    <path id="Path_21107" data-name="Path 21107" d="M828.87,1134.011h-1.25v2.908C828.87,1136.507,828.87,1135.263,828.87,1134.011Z" fill="#231815"/>
    <path id="Path_21108" data-name="Path 21108" d="M868.376,1136.919l-9.059-2.908C860.552,1134.842,865.511,1140.255,868.376,1136.919Z" fill="#231815"/>
    <path id="Path_21109" data-name="Path 21109" d="M835.873,1136.919l.812,4.992c1.239-1.248,2.473-2.078,2.058-4.152C837.924,1136.507,836.685,1136.919,835.873,1136.919Z" fill="#231815"/>
    <path id="Path_21110" data-name="Path 21110" d="M844.523,1142.751a3.126,3.126,0,0,1,1.226-2.918l-4.118-.84C843.689,1139.833,840.8,1144.407,844.523,1142.751Z" fill="#231815"/>
    <path id="Path_21111" data-name="Path 21111" d="M876.192,1138.993c-3.283,8.727,10.313,3.313,5.78,10.814l11.11,6.226c.413-.835,1.234-1.243.819-2.06-3.712-1.271-7-4.584-10.7-6.253l2.879-4.969Z" fill="#231815"/>
    <path id="Path_21112" data-name="Path 21112" d="M581.876,1144.815l.819,1.258c7,1.647.835-3.767,4.118-6.24-3.283,2.078-8.222,2.473-9.885,6.24,1.251,1.229,2.475,1.229,4.127,1.647C581.055,1146.9,580.642,1145.655,581.876,1144.815Z" fill="#231815"/>
    <path id="Path_21113" data-name="Path 21113" d="M854.394,1144.815V1144c-1.25-1.248-3.7-.422-4.948-2.088C849.862,1144,852.334,1145.655,854.394,1144.815Z" fill="#231815"/>
    <path id="Path_21114" data-name="Path 21114" d="M891.841,1146.073c-.413-.84-.81-1.666-1.652-1.258l.842,4.161C892.256,1148.137,891.841,1146.9,891.841,1146.073Z" fill="#231815"/>
    <path id="Path_21115" data-name="Path 21115" d="M896.78,1154.79c0,9.139,11.937,6.643,14,11.208,11.945,9.561,29.638,4.161,33.751,19.943v-3.312c3.285-2.1,5.758,0,8.65-.854,1.225,7.488,5.339,3.34,7.811,9.984,5.366-.418,10.3,2.069,11.119-4.161l-16.876-11.64,2.059,1.67-2.888,3.322c-2.06-4.157-4.117-11.617-9.049-9.961-.406-9.13-9.885-2.918-14-6.23-2.472-2.087-6.576-4.569-10.7-4.992-8.63-3.312-16.457-14.112-25.52-9.96,4.946,4.556,12.761,7.478,16.484,9.13C907.493,1162.277,901.322,1157.694,896.78,1154.79Z" fill="#231815"/>
    <path id="Path_21116" data-name="Path 21116" d="M970.06,1178.871,952.35,1166l16.877,13.718Z" fill="#231815"/>
    <path id="Path_21117" data-name="Path 21117" d="M1075.852,1177.628l-2.053-1.67.819,2.913Z" fill="#231815"/>
    <path id="Path_21118" data-name="Path 21118" d="M1084.489,1388.24a4.577,4.577,0,0,0-1.641,4.982,3.06,3.06,0,0,0,2.879-1.234l3.707,4.152c.835-4.152,0-6.648,0-12.048h-1.64C1085.727,1385.744,1089.028,1391.148,1084.489,1388.24Z" fill="#231815"/>
    <path id="Path_21119" data-name="Path 21119" d="M1018.641,1241.611c-2.058,14.534,14.817,14.534,14.817,27.807,7.4.858,2.879,12.061,10.7,12.892l-.835,3.326c10.7,9.139,14.821,23.27,22.632,34.9l3.714-2.073c1.234,2.073,3.707,4.982,1.234,7.051-1.64.427-2.055-1.651-2.879-2.069-6.182,3.753,4.936,6.235,0,10.809,1.239.4,2.879-.839,3.712,1.235-4.531,11.63,6.173,22.021,7.811,33.652.834,4.574,2.06,13.286,8.244,14.956,1.64-2.9-4.118-7.9.821-10.818-7.411-4.978-2.475-13.7-4.939-19.091-5.764-18.286-11.531-39.474-22.641-55.659-1.239-13.3-13.995-23.275-17.709-36.149-4.111-1.656-9.05-3.743-6.989-9.965-11.526-4.161-11.11-21.177-22.642-22.856,0-6.231-9.052-13.287-14.821-17.031-6.173-7.9-14.833-16.2-24.7-20.764v2.9h-1.235v4.991C990.228,1211.276,1003,1228.737,1018.641,1241.611Z" fill="#231815"/>
    <path id="Path_21120" data-name="Path 21120" d="M416.8,1281.479l2.078-2.087c6.171-11.208,13.571-19.09,19.753-29.881,4.517-6.671,9.869-6.671,15.649-12.048,0-3.748,4.524-5.01,6.983-8.726-5.338-1.67,2.473-4.574,0-4.983l-2.865,3.726.8,1.257c.42,1.221-1.225,2.064-1.638,2.913-2.475-.417-3.714-5.409-3.285-5.831-6.585,7.478-11.951,19.531-22.664,24.917,1.654,14.135-14.4,12.479-18.519,22.861C408.984,1278.171,415.99,1278.566,416.8,1281.479Z" fill="#231815"/>
    <path id="Path_21121" data-name="Path 21121" d="M487.2,1242.446c-.819-.413-1.239-1.262-2.058-.835l.819,2.9A2.583,2.583,0,0,0,487.2,1242.446Z" fill="#231815"/>
    <path id="Path_21122" data-name="Path 21122" d="M476.08,1247.438c-1.641,1.22-2.875,4.972-4.923,2.073-2.888,9.121-15.232,12.025-14.833,19.095H458.4C459.2,1257.815,477.328,1261.119,476.08,1247.438Z" fill="#231815"/>
    <path id="Path_21123" data-name="Path 21123" d="M448.5,1264.449l-2.875,2.918,2.4,1.344C446.541,1267.225,449.548,1264.812,448.5,1264.449Z" fill="#231815"/>
    <path id="Path_21124" data-name="Path 21124" d="M449.335,1269.418l-1.306-.707A2.6,2.6,0,0,0,449.335,1269.418Z" fill="#231815"/>
    <path id="Path_21125" data-name="Path 21125" d="M457.565,1279.392c4.937-.826,6.586-9.543,8.644-10.786C461.676,1271.51,456.744,1274.414,457.565,1279.392Z" fill="#231815"/>
    <path id="Path_21126" data-name="Path 21126" d="M446.446,1271.51l2.054,4.166,2.073-2.079C450.153,1272.753,448.5,1270.684,446.446,1271.51Z" fill="#231815"/>
    <path id="Path_21127" data-name="Path 21127" d="M446.446,1277.328c-.181-.1-.619.609-1.154,1.582A4.157,4.157,0,0,0,446.446,1277.328Z" fill="#231815"/>
    <path id="Path_21128" data-name="Path 21128" d="M445.292,1278.91c-1.653,1.432-3.878.422-5.842,1.744C440.393,1288.623,443.519,1282.177,445.292,1278.91Z" fill="#231815"/>
    <path id="Path_21129" data-name="Path 21129" d="M411.042,1281.479l-2.058,2.078h4.937Z" fill="#231815"/>
    <path id="Path_21130" data-name="Path 21130" d="M433.683,1297.262l2.879-2.891c-3.712-3.326,3.308-4.588,2.069-7.909l-2.9,2.9c-3.7-1.234-1.64-7.478-2.046-7.887l-2.067.831c-3.285,5.4-2.869,15.8-9.871,16.214.8,7.055-4.53,14.951-7,17.856,0,1.247-3.292,8.735,2.051,7.9,2.887-1.243.415-7.07,4.945-5.817,1.641,5.817-2.058,11.626-4.945,17.026,6.17-7.052,12.366-13.691,14.006-22.009l2.877.831C429.166,1306.828,444.793,1302.671,433.683,1297.262Z" fill="#231815"/>
    <path id="Path_21131" data-name="Path 21131" d="M399.113,1307.236c2.056-8.712,13.163-14.122,6.983-21.6-2.87,4.973-1.225,5.817-2.87,11.626l-1.248-.817c-2.45,2.487-7.811,3.313-7.811,7.887l.819-.826Z" fill="#231815"/>
    <path id="Path_21132" data-name="Path 21132" d="M439.45,1299.34c2.464-6.226,11.123-2.078,11.942-8.731l-2.892,2.923c-1.638.408-2.054-1.253-2.875-2.079.821-.408,1.237-2.5,2.875-2.087v-2.9h-2.054C445.625,1292.279,436.158,1293.94,439.45,1299.34Z" fill="#231815"/>
    <path id="Path_21133" data-name="Path 21133" d="M460.453,1304.332c-8.645,6.239-6.6,11.639-14.007,17.869l-.821-3.743c-6.175,3.743-4.115,12.456-9.063,17.847l-.833-.821c-4.519,2.917.429,9.565-2.046,11.63,4.948,0,.821-1.244,4.948-3.717.4,1.235,1.643.8,2.879.8,1.238-1.647,1.238-3.725-.835-4.982,5.771.431,6.591-9.134,9.9-13.709-3.307-1.651-.835-3.308-1.238-4.978l3.282.831C455.505,1315.971,461.263,1309.323,460.453,1304.332Z" fill="#231815"/>
    <path id="Path_21134" data-name="Path 21134" d="M1076.662,1309.323l1.25-2.918-3.294-2.074Z" fill="#231815"/>
    <path id="Path_21135" data-name="Path 21135" d="M390.05,1308.484l2.688.7c.228-.7.429-1.358.6-1.945Z" fill="#231815"/>
    <path id="Path_21136" data-name="Path 21136" d="M392.738,1309.181c-.105.344-.215.721-.335,1.106.324-.312.611-.675.93-.964Z" fill="#231815"/>
    <path id="Path_21137" data-name="Path 21137" d="M376.481,1562.7c-4.14-15.787-8.659-30.739-9.063-47.764-2.473-7.465-3.3-19.517-2.888-28.257h-2.06c-2.459-30.73,0-63.134,2.895-91.386,4.526-3.308.4-10.8,2.053-13.3.4-6.217,4.521-12.456,4.117-17.856,5.339-12.456,8.231-30.312,16.875-37.8,0-3.12,2.268-10.548,3.993-16.053-6.679,6.62-9.487,16.076-12.224,25.2-1.652,1.669-4.531,3.734-1.652,5.812-4.939,2.1-3.7,9.974-4.939,12.887-3.291,5.809-6.17,8.722-8.223,14.113,0,13.323-7.426,21.2-4.948,34.886-5.366,2.5-.824,5.836-4.937,8.749,2.044,14.1-.835,33.639-2.879,49.013,8.231,8.308,1.239,21.173,4.113,30.734l-4.113-6.648,4.113,19.944c4.937,3.312-1.234,8.3.81,11.63-1.64,12.865,9.479,20.765,4.127,31.982,2.879,2.9,2.463,7.465,3.714,11.236C369.476,1560.216,373.173,1566.442,376.481,1562.7Z" fill="#231815"/>
    <path id="Path_21138" data-name="Path 21138" d="M465.376,1310.571l-2.874-1.248c-6.178,6.231-4.1,14.535-3.3,21.169C464.151,1325.936,461.676,1317.627,465.376,1310.571Z" fill="#231815"/>
    <path id="Path_21139" data-name="Path 21139" d="M409.817,1582.647c2.055-1.656.406-4.574,2.055-6.231l-2.055,2.078c-9.479-2.495,2.865-14.956-6.591-12.887l1.645-10.777-.835.812c-2.058-.812-5.343-2.913-4.118-5.8,5.781-5.419-2.862-11.644,0-19.109-2.459-.431-9.035-.84-9.868-4.982,1.238-1.67,3.283-.418,4.936-.84-1.238-5.4-9.868-10.8-2.869-14.938-7-7.91,1.631-17.462-2.872-23.288,4.088-19.93-15.657-32.386-7.006-51.495-1.645-8.313-.42-16.209,2.044-24.935-1.629-11.208,6.6-17.856,7.005-28.252,4.932-5.4,2.045-16.172,7.825-22.847,6.586-10.787,6.157-24.078,15.636-31.96-10.284-8.327-9.05,6.217-12.771,12.025a185.025,185.025,0,0,0-13.568,27,5,5,0,0,1,4.923,2.074c-.39,2.073.834,4.57-1.216,5.822l-3.707-5.822c-4.946,8.3,3.707,24.5-7.006,32.826.835,14.948-9.869,25.335-4.113,39.874-7.4,5.4-.81,19.526-2.893,26.99,1.25,2.918-4.507,4.166-.81,7.07-.415,14.548,3.7,34.056,5.758,46.517,0-.817-.406-2.065.833-2.9,5.338,11.621,5.758,25.334,11.109,36.152,1.235,6.634,6.993-.426,9.881,1.652,0,7.464,3.3,14.942,3.7,23.256C408.174,1578.494,408.984,1581.816,409.817,1582.647Z" fill="#231815"/>
    <path id="Path_21140" data-name="Path 21140" d="M446.446,1342.136v2.064c2.054,2.088,4.127,4.584,7.006,4.992,2.053-4.992-1.644-7.478.828-12.887C449.335,1335.9,449.335,1344.2,446.446,1342.136Z" fill="#231815"/>
    <path id="Path_21141" data-name="Path 21141" d="M1094.38,1336.305l3.3,7.092v-2.922C1097.679,1338.4,1097.259,1335.075,1094.38,1336.305Z" fill="#231815"/>
    <path id="Path_21142" data-name="Path 21142" d="M406.924,1357.074c3.7-5.8,9.066-13.677,7.825-18.673Z" fill="#231815"/>
    <path id="Path_21143" data-name="Path 21143" d="M441.51,1354.183h2.058c.415-2.077,3.7-5.4.819-7.069Z" fill="#231815"/>
    <path id="Path_21144" data-name="Path 21144" d="M1099.319,1350.435h-.821l.821,2.9Z" fill="#231815"/>
    <path id="Path_21145" data-name="Path 21145" d="M1101.376,1364.144c6.577,3.335-.823,9.566,2.879,14.121,4.932-5.4-.405-14.938-2.879-19.929C1100.553,1360.409,1103.026,1361.23,1101.376,1364.144Z" fill="#231815"/>
    <path id="Path_21146" data-name="Path 21146" d="M406.1,1360.409c-1.225-.417-2.06,1.647-2.06,2.918h2.06Z" fill="#231815"/>
    <path id="Path_21147" data-name="Path 21147" d="M431.616,1363.327c0,5.4-4.519,9.947-2.869,14.938A30.045,30.045,0,0,0,431.616,1363.327Z" fill="#231815"/>
    <path id="Path_21148" data-name="Path 21148" d="M422.97,1370.369l-3.283-2.073c-.809,2.918,1.639,5.822,3.283,7.065.831-3.739,5.777-8.313,3.707-11.217Z" fill="#231815"/>
    <path id="Path_21149" data-name="Path 21149" d="M419.687,1379.1c-4.532,7.9-3.307,15.37-4.938,22.848C418.449,1395.3,418.449,1384.918,419.687,1379.1Z" fill="#231815"/>
    <path id="Path_21150" data-name="Path 21150" d="M1108.377,1389.07c.407-1.248-1.234-2.074-2.069-2.918l1.242,4.166Z" fill="#231815"/>
    <path id="Path_21151" data-name="Path 21151" d="M448.5,1406.114v-9.148c.419,3.744-4.932,6.634-2.054,9.974C447.266,1406.522,447.7,1405.678,448.5,1406.114Z" fill="#231815"/>
    <path id="Path_21152" data-name="Path 21152" d="M427.928,1408.174l2.878-4.992-2.06-4.969Z" fill="#231815"/>
    <path id="Path_21153" data-name="Path 21153" d="M1086.555,1401.122v4.162c2.06-.84.821-2.918,1.239-4.162Z" fill="#231815"/>
    <path id="Path_21154" data-name="Path 21154" d="M413.921,1406.114c-1.239,1.243-5.343.826-4.1,4.138,4.932,2.5-.833,5.818,1.225,9.983C410.622,1414.826,415.99,1410.67,413.921,1406.114Z" fill="#231815"/>
    <path id="Path_21155" data-name="Path 21155" d="M431.616,1415.244h1.234c-.4-2.079.42-3.313.833-4.992Z" fill="#231815"/>
    <path id="Path_21156" data-name="Path 21156" d="M1045.957,1619.887a29.017,29.017,0,0,0-2.535,4.583A13.847,13.847,0,0,0,1045.957,1619.887Z" fill="#231815"/>
    <path id="Path_21157" data-name="Path 21157" d="M1039.215,1634.586l2.863-3.335a16.635,16.635,0,0,1,1.344-6.781C1040.972,1627.768,1037.965,1630.769,1039.215,1634.586Z" fill="#231815"/>
    <path id="Path_21158" data-name="Path 21158" d="M1080.774,1456.764c-.39,3.758-3.7,8.74-1.224,11.222l-4.932.83c7.824,4.153-2.067,9.567,1.234,16.214-3.707,7.9-.828,15.374-6.18,24.94,7.405,13.282-8.637,23.242,1.234,36.538-.415,4.143-6.586,11.213-4.113,14.956-6.171,17.03-14.415,38.208-20.588,56.069a7.429,7.429,0,0,1-.248,2.354c4.79-7.254,12.1-13.681,10.142-23.536,11.109-23.665,18.519-49.435,23.451-75.595,3.131-5.519-1.487-12.5,3.936-15.351-2.005-3.693,1-8.4,1-10.4.413-19.118,7.824-41.552,4.945-63.138,2.06-7.488,2.879-14.966,1.239-20.779C1075.437,1421.061,1086.961,1441.826,1080.774,1456.764Z" fill="#231815"/>
    <path id="Path_21159" data-name="Path 21159" d="M1084.489,1504.974a9.011,9.011,0,0,0-1,.431c.087.133.1.266.19.408Z" fill="#231815"/>
    <path id="Path_21160" data-name="Path 21160" d="M436.562,1426.874a5.1,5.1,0,0,1,4.948,2.079l2.058-12.053-5.767,3.335.83.826C438.631,1423.14,439.035,1425.645,436.562,1426.874Z" fill="#231815"/>
    <path id="Path_21161" data-name="Path 21161" d="M429.57,1428.108c2.046,0,.821-7.455,1.236-7.873C430.391,1422.731,427.1,1425.645,429.57,1428.108Z" fill="#231815"/>
    <path id="Path_21162" data-name="Path 21162" d="M409.817,1421.883v4.991l1.225-.844C410.622,1424.8,411.872,1421.883,409.817,1421.883Z" fill="#231815"/>
    <path id="Path_21163" data-name="Path 21163" d="M1108.377,1433.944v-2.923h-.828Z" fill="#231815"/>
    <path id="Path_21164" data-name="Path 21164" d="M429.57,1436.018l-.824-2.074.824,4.973Z" fill="#231815"/>
    <rect id="Rectangle_190" data-name="Rectangle 190" width="0.809" height="7.887" transform="translate(408.174 1438.092)" fill="#231815"/>
    <path id="Path_21165" data-name="Path 21165" d="M437.8,1445.152,434.5,1441C434.089,1443.074,434.922,1445.978,437.8,1445.152Z" fill="#231815"/>
    <path id="Path_21166" data-name="Path 21166" d="M435.729,1451.8v-3.749H434.5Z" fill="#231815"/>
    <path id="Path_21167" data-name="Path 21167" d="M411.042,1511.608h2.879c-2.049-17.434-4.1-36.143-5.747-52.742-4.138,4.551-5.363,8.716-1.25,14.1-6.586-.817-3.7,4.991-3.7,7.909l2.87-4.992c3.3,7.474-5.342,12.048,2.888,17.866C407.746,1499.56,410.622,1505.813,411.042,1511.608Z" fill="#231815"/>
    <path id="Path_21168" data-name="Path 21168" d="M416.928,1463.876a15.859,15.859,0,0,0-.938-5.01A5.5,5.5,0,0,0,416.928,1463.876Z" fill="#231815"/>
    <path id="Path_21169" data-name="Path 21169" d="M416.8,1487.934c3.707,5.409,0,16.2,7,17.879,2.057-7.079-4.114-12.061-2.056-19.957-.419-2.074-4.117,1.253-2.867-2.9,4.923-2.074-1.663-7.487,2.044-11.222.823-4.074-2.246-5.5-3.994-7.854C417.389,1471.675,414.12,1481.167,416.8,1487.934Z" fill="#231815"/>
    <path id="Path_21170" data-name="Path 21170" d="M425.858,1465.087l.819,2.9v-2.9Z" fill="#231815"/>
    <path id="Path_21171" data-name="Path 21171" d="M427.928,1492.926c.4-1.248,2.878-2.914.819-4.166h-.819Z" fill="#231815"/>
    <path id="Path_21172" data-name="Path 21172" d="M1098.5,1495.83l2.055-2.078-2.055-3.739Z" fill="#231815"/>
    <path id="Path_21173" data-name="Path 21173" d="M431.616,1513.7c-.406-2.092.833-5.006-.81-7.07C429.57,1508.694,428.747,1512.86,431.616,1513.7Z" fill="#231815"/>
    <path id="Path_21174" data-name="Path 21174" d="M431.616,1540.691c-3.688-9.552-4.519-20.353-6.992-30.721C422.16,1519.508,426.677,1532.386,431.616,1540.691Z" fill="#231815"/>
    <path id="Path_21175" data-name="Path 21175" d="M445.625,1560.625l-2.877-17.021c-7.411-7.9-4.947-18.274-11.132-27C432.449,1532.8,441.1,1548.155,445.625,1560.625Z" fill="#231815"/>
    <path id="Path_21176" data-name="Path 21176" d="M438.631,1609.646c4.517-2.078,10.288,1.671,11.942,5.813a210.506,210.506,0,0,0-14.02-26.692C435.919,1597.658,442.281,1600.613,438.631,1609.646Z" fill="#231815"/>
    <path id="Path_21177" data-name="Path 21177" d="M423.8,1550.651c-8.226-2.5-4.114-13.282-7-17.856-3.7-4.152,4.122-9.961-2.879-12.039-.406,2.89-1.645,5.808-4.937,5.808,2.888,3.735-2.475,12.479,4.937,12.062-2.464,5.794,9.465,11.607.828,17.016,2.051,3.327,4.129-2.5,6.173.84-2.044,2.487-.822,6.221.823,8.3,7.589,1.6,8.607,17.618,14.283,23.155-.524-.794-.987-1.615-1.524-2.377C434.5,1571.842,422.97,1565.2,423.8,1550.651Z" fill="#231815"/>
    <path id="Path_21178" data-name="Path 21178" d="M436.028,1587.941c.167.271.343.56.525.826.009-.11.009-.207.009-.3A6.147,6.147,0,0,1,436.028,1587.941Z" fill="#231815"/>
    <path id="Path_21179" data-name="Path 21179" d="M443.568,1525.748l.819,4.982C447.266,1529.06,443.983,1527.408,443.568,1525.748Z" fill="#231815"/>
    <path id="Path_21180" data-name="Path 21180" d="M379.346,1534.873h2.893l-2.06-4.143Z" fill="#231815"/>
    <path id="Path_21181" data-name="Path 21181" d="M1088.615,1541.53c2.879-.839,2.058-4.574,2.058-5.822C1088.2,1536.13,1088.615,1541.53,1088.615,1541.53Z" fill="#231815"/>
    <path id="Path_21182" data-name="Path 21182" d="M446.446,1538.626l2.053,6.212v-2.069Z" fill="#231815"/>
    <path id="Path_21183" data-name="Path 21183" d="M444.387,1572.686c-2.473-5.418-3.292-9.983-6.586-14.126-4.118-3.73,2.069-14.548-6.995-13.722,1.643,12.883,11.942,22.012,13.581,34.9,4.532,7.478,9.893,15.8,14.011,22.857-.42-4.574-7.426-9.135-4.118-14.957,2.879,1.657,4.923,4.57,8.222,5.822,0-5-4.1-9.148-7-12.052l-2.888,2.078C448.5,1580.568,448.5,1574.76,444.387,1572.686Z" fill="#231815"/>
    <path id="Path_21184" data-name="Path 21184" d="M450.573,1547.747l3.707,2.9v-2.065C453.851,1546.916,451.808,1548.155,450.573,1547.747Z" fill="#231815"/>
    <path id="Path_21185" data-name="Path 21185" d="M454.28,1559.822c3.285,7.028,7.816,16.594,13.177,19.916-2.482-11.217-8.254-20.769-16.884-29.087C451.808,1553.569,451.392,1558.138,454.28,1559.822Z" fill="#231815"/>
    <path id="Path_21186" data-name="Path 21186" d="M1061.845,1551.49v6.231l2.888-4.152C1063.923,1553.146,1063.5,1551.49,1061.845,1551.49Z" fill="#231815"/>
    <path id="Path_21187" data-name="Path 21187" d="M386.352,1555.642c-2.888,3.327,2.058,6.23,2.058,9.965l2.878-2.069C392.117,1559.372,388.41,1557.721,386.352,1555.642Z" fill="#231815"/>
    <path id="Path_21188" data-name="Path 21188" d="M398.281,1566.442c-.822-3.321-2.866-2.073-4.948-3.739,3.723,8.3,4.948,19.531,9.893,25.761,1.239-5.817-2.057-14.543-6.17-17.856C397.459,1569.36,396.22,1567.268,398.281,1566.442Z" fill="#231815"/>
    <path id="Path_21189" data-name="Path 21189" d="M452.617,1577.669v-4.982l-6.171-7.9Z" fill="#231815"/>
    <path id="Path_21190" data-name="Path 21190" d="M379.346,1585.564l2.893-.844-2.06-2.073,3.285-4.153-6.983-2.917c2.459-2.074-.833-4.153-1.248-5.8C367.418,1577.242,381.4,1578.073,379.346,1585.564Z" fill="#231815"/>
    <path id="Path_21191" data-name="Path 21191" d="M389.245,1596.351l-4.127-8.713c-3.3,0-5.352,2.918-5.772,7.042,5.352-.394,1.248,8.75,7.816,7.915l-2.879,4.973c2.069-2.477,4.127.427,5.767.831.833,2.918-.8,4.995-1.64,7.06.835,3.73,3.707,3.336,5.757,2.913.416,5.809,2.473,14.136,5.751,19.1l1.251-1.247,11.928,11.222c-5.753-10.8-12.343-28.262-20.98-36.96C393.333,1605.091,386.352,1601.774,389.245,1596.351Z" fill="#231815"/>
    <path id="Path_21192" data-name="Path 21192" d="M448.277,1648.767l1.058-1.316C448.419,1647.763,448.181,1648.231,448.277,1648.767Z" fill="#231815"/>
    <path id="Path_21193" data-name="Path 21193" d="M448.5,1664.481a1.588,1.588,0,0,0,2.892,0c-6.6,0-2.892-8.318-7.005-9.974l-.819.853c0-2.932-4.118-5.414-2.058-7.909l7.825,7.909c2.782-2.22-.748-4.872-1.058-6.593l-.582.757c-1.668-7.882-9.064-2.073-11.966-4.978,2.072-3.743-3.28-7.478.833-11.217-.833-4.157-4.946-3.331-7.815-5l2.059-2.051-2.878-2.918c1.238-2.5-6.6-9.97,1.642-9.97.406-2.077-3.712-2.9-.823-4.995-2.473.839-4.529,2.5-4.946,4.995,0-3.33-4.114-4.156-2.879-7.069-2.044-5.809-6.586-3.313-9.88-4.969,0-.84-.42-2.078.83-2.927l1.225,1.243c5.352-6.634-6.173-4.574-8.226-9.116,2.875,13.681,10.284,21.178,16.051,34.877,4.127.418,3.7,6.235,5.755,9.153-.819,1.643-3.291.4-4.932.8v2.087c1.225,1.671,2.879,2.088,4.932,2.088,0-1.257,0-2.5,1.251-3.335,6.576,4.152,7.409,17.86,11.522,16.2l-.819.826c-.83.427-1.234-.417-2.069-.826,1.654,4.575,4.533,4.983,7.006,8.731l-2.058,2.069,4.936,5c.416-2.5-2.878-4.165-.821-7.065Z" fill="#231815"/>
    <path id="Path_21194" data-name="Path 21194" d="M422.97,1603.43c2.888-3.322-2.87-6.662-3.283-8.75C416.8,1598.021,421.745,1600.516,422.97,1603.43Z" fill="#231815"/>
    <path id="Path_21195" data-name="Path 21195" d="M474.024,1597.6l3.3,5v-2.923C476.08,1598.86,475.678,1597.2,474.024,1597.6Z" fill="#231815"/>
    <path id="Path_21196" data-name="Path 21196" d="M482.255,1602.595l-3.283,2.06c0,2.495,6.171,4.166,3.283,6.662l4.946,4.142,1.64-2.065C486.382,1610.064,486.8,1605.091,482.255,1602.595Z" fill="#231815"/>
    <rect id="Rectangle_191" data-name="Rectangle 191" width="1.225" height="2.913" transform="translate(404.871 1604.655)" fill="#231815"/>
    <path id="Path_21197" data-name="Path 21197" d="M471.157,1611.317c-2.069-2.079-4.948,0-7.006,1.22l3.306,3.771c0-4.574,6.567-2.5,6.567-5.817C472.38,1607.995,472.38,1610.491,471.157,1611.317Z" fill="#231815"/>
    <path id="Path_21198" data-name="Path 21198" d="M943.287,1612.537c1.248,0,2.074-1.638,2.074-2.891h-2.074Z" fill="#231815"/>
    <path id="Path_21199" data-name="Path 21199" d="M934.641,1620.451c.835-2.487,3.317-1.262,4.948-2.918C937.958,1615.459,933.831,1617.533,934.641,1620.451Z" fill="#231815"/>
    <path id="Path_21200" data-name="Path 21200" d="M411.872,1621.29h2.048l-2.048-3.757Z" fill="#231815"/>
    <path id="Path_21201" data-name="Path 21201" d="M469.088,1619.63l6.184,9.96v-3.308C470.327,1626.282,472.38,1619.63,469.088,1619.63Z" fill="#231815"/>
    <path id="Path_21202" data-name="Path 21202" d="M482.255,1624.6v-3.308c-1.225-.422-1.645-2.1-3.283-1.66Z" fill="#231815"/>
    <path id="Path_21203" data-name="Path 21203" d="M465.376,1634.586l-6.978-8.3C457.565,1630.425,462.1,1633.733,465.376,1634.586Z" fill="#231815"/>
    <path id="Path_21204" data-name="Path 21204" d="M481.03,1628.333c2.473,3.753,5.767,5,6.171,9.974-.819-5.405,4.113-.422,3.7-4.978C488.841,1629.172,484.308,1630,481.03,1628.333Z" fill="#231815"/>
    <path id="Path_21205" data-name="Path 21205" d="M498.726,1630.425l3.234,3.257C501.137,1632.077,501.031,1630.136,498.726,1630.425Z" fill="#231815"/>
    <path id="Path_21206" data-name="Path 21206" d="M503.658,1635.389l-1.7-1.707A3.255,3.255,0,0,0,503.658,1635.389Z" fill="#231815"/>
    <path id="Path_21207" data-name="Path 21207" d="M446.446,1638.307c-2.878-1.657-2.463-4.574-3.7-7.056-6.59,3.739,3.7,5.817,1.639,9.13Z" fill="#231815"/>
    <path id="Path_21208" data-name="Path 21208" d="M495.011,1637.476c-2.472,2.088,1.251,4.983,2.893,5.823C498.726,1640.8,496.665,1639.147,495.011,1637.476Z" fill="#231815"/>
    <path id="Path_21209" data-name="Path 21209" d="M511.888,1645.372c5.771,2.079,6.591,7.882,12.77,10.791C525.484,1649.107,516.015,1646.194,511.888,1645.372Z" fill="#231815"/>
    <path id="Path_21210" data-name="Path 21210" d="M476.08,1654.507c0,6.225,6.175,2.9,7.838,3.73-1.663-6.644-5.361-8.291-10.713-12.865C474.024,1648.263,478.972,1650.786,476.08,1654.507Z" fill="#231815"/>
    <path id="Path_21211" data-name="Path 21211" d="M497.9,1657.411c3.28-3.322-2.057-7.887-2.057-12.039C492.539,1649.946,498.306,1652.837,497.9,1657.411Z" fill="#231815"/>
    <rect id="Rectangle_192" data-name="Rectangle 192" width="0.821" height="4.17" transform="translate(1031.397 1646.193)" fill="#231815"/>
    <path id="Path_21212" data-name="Path 21212" d="M453.452,1693.137c-3.714-.826-5.757-7.887-11.942-9.96-.415-7.9-9.481-7.057-9.894-14.953-6.992-1.669-6.567-8.317-10.694-12.864-2.044-.853-3.707,1.225-4.122,2.051,4.945,3.748,2.473,17.044,9.877,15.791l4.129,4.166c6.171-3.335,4.923,6.231,7.825,8.726,7.4-.417,1.643,9.961,9.064,9.121l-1.249.84,6.171,7.056C458.8,1699.381,450.573,1699.381,453.452,1693.137ZM426.677,1670.3l-2.053-2.913h2.053Z" fill="#231815"/>
    <path id="Path_21213" data-name="Path 21213" d="M509.833,1670.3c.83.422,1.225-.417,2.055-.84.429-2.073-1.225-2.9-2.055-4.142.83-2.505,2.055-7.488,4.948-5.818-1.654-2.495-4.118-2.913-6.187-4.138C502.017,1661.563,509.429,1662.811,509.833,1670.3Z" fill="#231815"/>
    <path id="Path_21214" data-name="Path 21214" d="M488.008,1663.228c6.2,3.749.418,9.557,4.96,12.892,0-.839-.429-2.087.821-2.918,4.517,4.166,16.044,6.648,11.926,16.2h7.006c4.113-10.8-9.869-7.07-12.761-17.031C493.374,1672.376,493.374,1664.059,488.008,1663.228Z" fill="#231815"/>
    <path id="Path_21215" data-name="Path 21215" d="M536.587,1665.316c-2.053,2.908,3.3,2.486,4.953,4.142C541.955,1666.555,537.837,1666.555,536.587,1665.316Z" fill="#231815"/>
    <path id="Path_21216" data-name="Path 21216" d="M523.424,1669.458h2.06v-2.073c-.42-.408-1.247-1.234-2.06-1.234Z" fill="#231815"/>
    <path id="Path_21217" data-name="Path 21217" d="M521.787,1673.2l-1.255,4.166h2.06C522.185,1676.12,523.424,1673.2,521.787,1673.2Z" fill="#231815"/>
    <path id="Path_21218" data-name="Path 21218" d="M532.485,1679.423c5.352,5.41,12.346,1.258,17.7,3.754-.417-8.305-9.063-.409-12.761-7.057l-2.06,4.152Z" fill="#231815"/>
    <path id="Path_21219" data-name="Path 21219" d="M517.659,1689.407v1.67h2.873C519.727,1690.641,519.307,1689,517.659,1689.407Z" fill="#231815"/>
    <path id="Path_21220" data-name="Path 21220" d="M526.709,1697.311v-1.256c-1.645-.84-2.472-2.918-4.117-2.918C521.787,1696.055,523.84,1698.128,526.709,1697.311Z" fill="#231815"/>
    <path id="Path_21221" data-name="Path 21221" d="M537.422,1694.4h4.118A2.328,2.328,0,0,0,537.422,1694.4Z" fill="#231815"/>
    <path id="Path_21222" data-name="Path 21222" d="M538.241,1706.029c-.4-5.405-6.586-4.983-9.882-7.9Z" fill="#231815"/>
    <path id="Path_21223" data-name="Path 21223" d="M475.272,1717.246c-7.815.808-.417-8.721-7-9.97l-2.06,2.074c-2.888-1.67-6.586-1.248-8.644-4.992l-1.241,2.918c2.074,2.483,4.939,8.709,9.052,4.978.833,3.322,6.175,2.918,2.893,7.07,5.351-.417,4.517,7.887,10.7,4.969C476.08,1722.215,476.5,1719.742,475.272,1717.246Z" fill="#231815"/>
    <path id="Path_21224" data-name="Path 21224" d="M502.852,1706.029l2.863,4.138c4.948,0,9.47,11.653,12.764,2.9l-1.645-2.078C508.594,1717.246,510.248,1704.781,502.852,1706.029Z" fill="#231815"/>
    <path id="Path_21225" data-name="Path 21225" d="M547.307,1710.167c-1.655-1.642-3.295-4.138-5.767-2.891l.819,5.8Z" fill="#231815"/>
    <rect id="Rectangle_193" data-name="Rectangle 193" width="0.832" height="4.152" transform="translate(571.173 1708.102)" fill="#231815"/>
    <path id="Path_21226" data-name="Path 21226" d="M552.239,1713.071l-2.865-.817,2.865,2.078Z" fill="#231815"/>
    <path id="Path_21227" data-name="Path 21227" d="M583.934,1715.985l-2.058-1.652.819,2.913Z" fill="#231815"/>
    <path id="Path_21228" data-name="Path 21228" d="M977.87,1717.246l-2.879,8.731,4.128-7.923,1.644,2.087v-2.087C979.93,1718.054,978.706,1718.48,977.87,1717.246Z" fill="#231815"/>
    <path id="Path_21229" data-name="Path 21229" d="M574.871,1734.267l6.184-4.982c-4.937-4.152-10.713-4.561-16.055-7.07Z" fill="#231815"/>
    <path id="Path_21230" data-name="Path 21230" d="M492.135,1733.028c1.833.611,5.223-1.257,7.7-.61a40.18,40.18,0,0,0-14.688-7.285v.844c-1.225,2.069-2.888,0-4.113-.844l-.833,2.913a151.639,151.639,0,0,0,24.7,19.1C506.13,1738.415,493.374,1742.149,492.135,1733.028Z" fill="#231815"/>
    <path id="Path_21231" data-name="Path 21231" d="M499.831,1732.418c.725.619,1.5,1.165,2.186,1.849A3.279,3.279,0,0,0,499.831,1732.418Z" fill="#231815"/>
    <path id="Path_21232" data-name="Path 21232" d="M538.241,1733.028v-2.1c-3.278-3.716-5.756-.8-8.644-5.794C530.416,1728.455,535.362,1730.532,538.241,1733.028Z" fill="#231815"/>
    <path id="Path_21233" data-name="Path 21233" d="M607.4,1730.124l1.226-4.991H607.4C607.8,1726.789,606.995,1729.707,607.4,1730.124Z" fill="#231815"/>
    <path id="Path_21234" data-name="Path 21234" d="M619.325,1730.927c.832-4.574-2.879-1.22-4.923-.8C615.625,1732.2,617.685,1730.927,619.325,1730.927Z" fill="#231815"/>
    <path id="Path_21235" data-name="Path 21235" d="M809.1,1729.285c-2.463,1.642,0,4.56,2.06,4.982Z" fill="#231815"/>
    <rect id="Rectangle_194" data-name="Rectangle 194" width="0.832" height="3.34" transform="translate(825.982 1730.927)" fill="#231815"/>
    <path id="Path_21236" data-name="Path 21236" d="M552.239,1740.91l-2.056-7.882C550.6,1737.6,546.485,1738.841,552.239,1740.91Z" fill="#231815"/>
    <path id="Path_21237" data-name="Path 21237" d="M623.465,1733.028c.606,1.024,1.748,1.024,2.879,1.024Z" fill="#231815"/>
    <path id="Path_21238" data-name="Path 21238" d="M626.344,1734.052l2.879,1.055C628.6,1734.052,627.459,1734.052,626.344,1734.052Z" fill="#231815"/>
    <path id="Path_21239" data-name="Path 21239" d="M822.7,1735.107l-3.707-.84v1.652C820.224,1735.919,823.117,1737.181,822.7,1735.107Z" fill="#231815"/>
    <path id="Path_21240" data-name="Path 21240" d="M594.637,1742.149l6.174.84-2.06-2.914,3.7-2.078c-2.459,0-4.516-2.078-6.576-2.89C597.111,1737.6,594.217,1739.676,594.637,1742.149Z" fill="#231815"/>
    <path id="Path_21241" data-name="Path 21241" d="M653.922,1739.25h-2.677A2.892,2.892,0,0,0,653.922,1739.25Z" fill="#231815"/>
    <path id="Path_21242" data-name="Path 21242" d="M646.916,1739.25h4.329c-1.8-.9-2.546-3.57-2.269-4.143Z" fill="#231815"/>
    <path id="Path_21243" data-name="Path 21243" d="M790.171,1737.181a26.588,26.588,0,0,0-11.938,5.808C783.585,1739.676,790.171,1746.723,790.171,1737.181Z" fill="#231815"/>
    <path id="Path_21244" data-name="Path 21244" d="M609.454,1740.91c7.412-.835,10.3,10.8,16.055,9.993-.818-5,5.352-2.514,7.825-5l-1.239-.84C624.271,1748.389,616.866,1739.676,609.454,1740.91Z" fill="#231815"/>
    <path id="Path_21245" data-name="Path 21245" d="M762.584,1744.228c-3.7,10.391-17.294,0-22.632,8.735l4.946,2.078-2.058,4.978c4.923,6.634,6.577-4.152,11.1-2.913-2.867-2.487-5.352,3.739-8.23.835.415-1.244-.81-3.322,1.25-3.74,4.525-2.078,10.7-5.4,14.816-2.078l5.756-6.216C765.876,1745.485,764.637,1743.4,762.584,1744.228Z" fill="#231815"/>
    <path id="Path_21246" data-name="Path 21246" d="M769.589,1749.219l6.99-4.152-1.238-.839C773.288,1748.8,767.945,1742.149,769.589,1749.219Z" fill="#231815"/>
    <path id="Path_21247" data-name="Path 21247" d="M787.283,1752.123l5.767-7.056C790.171,1745.485,785.225,1747.563,787.283,1752.123Z" fill="#231815"/>
    <path id="Path_21248" data-name="Path 21248" d="M615.625,1745.907h-3.292l3.292,1.239Z" fill="#231815"/>
    <path id="Path_21249" data-name="Path 21249" d="M636.213,1745.907c-3.283,4.152,5.338,3.312,2.879,8.294,4.542,1.258,11.937,7.066,14.83.84C655.147,1742.989,643.634,1750.9,636.213,1745.907Z" fill="#231815"/>
    <path id="Path_21250" data-name="Path 21250" d="M946.18,1747.145h-.819v5.818C945.76,1750.9,949.068,1749.219,946.18,1747.145Z" fill="#231815"/>
    <path id="Path_21251" data-name="Path 21251" d="M509.833,1747.98v4.983h3.723v-2.06C512.317,1750.059,512.317,1746.723,509.833,1747.98Z" fill="#231815"/>
    <path id="Path_21252" data-name="Path 21252" d="M778.233,1762.106l1.25-1.261c.4-1.244-1.25-1.652-2.083-2.9l2.889-2.9c6.994,2.065.4-4.138,2.892-7.061l-6.6,2.923C778.639,1753.371,772.062,1760.441,778.233,1762.106Z" fill="#231815"/>
    <path id="Path_21253" data-name="Path 21253" d="M572.815,1752.123h4.113v-1.22C576.118,1749.627,572.421,1749.627,572.815,1752.123Z" fill="#231815"/>
    <path id="Path_21254" data-name="Path 21254" d="M662.972,1754.2c1.654-.413,3.709.84,4.932-1.238C666.681,1749.219,660.9,1751.706,662.972,1754.2Z" fill="#231815"/>
    <path id="Path_21255" data-name="Path 21255" d="M720.183,1752.963c-6.171-1.257-9.878,0-16.874,1.238C711.943,1757.537,711.539,1752.963,720.183,1752.963Z" fill="#231815"/>
    <path id="Path_21256" data-name="Path 21256" d="M727.189,1752.123c-4.113,0-4.946,4.574-4.946,7.9-.406,3.321,5.352.826,7.825,0,.414-2.078-2.045-1.248-2.879-2.913l2.879-4.983Z" fill="#231815"/>
    <path id="Path_21257" data-name="Path 21257" d="M699.6,1754.2l-9.871-1.238C690.965,1759.6,695.078,1753.371,699.6,1754.2Z" fill="#231815"/>
    <path id="Path_21258" data-name="Path 21258" d="M758.886,1757.941H763.4v-2.9C761.774,1752.123,758.051,1755.459,758.886,1757.941Z" fill="#231815"/>
    <path id="Path_21259" data-name="Path 21259" d="M586.813,1757.106h5.767c-1.239-1.647-3.308-.831-4.948-2.065Z" fill="#231815"/>
    <path id="Path_21260" data-name="Path 21260" d="M631.276,1769.993c-2.459-9.612-10.4-5.125-17.36-4.982l2.53.825C620.573,1766.653,627.982,1773.328,631.276,1769.993Z" fill="#231815"/>
    <path id="Path_21261" data-name="Path 21261" d="M613.916,1765.011l-6.52-2.074A8.912,8.912,0,0,0,613.916,1765.011Z" fill="#231815"/>
    <path id="Path_21262" data-name="Path 21262" d="M921.488,1769.167v-3.331l-.833-1.661Z" fill="#231815"/>
    <path id="Path_21263" data-name="Path 21263" d="M745.708,1767.089c.415-.826-.418-1.253-.81-2.078l-2.058,2.078Z" fill="#231815"/>
    <path id="Path_21264" data-name="Path 21264" d="M646.1,1772.081c-.419,2.881,3.708,2.486,4.932.825C650.224,1771.236,647.747,1772.489,646.1,1772.081Z" fill="#231815"/>
    <path id="Path_21265" data-name="Path 21265" d="M660.093,1772.081l-1.239,2.881c1.654-.4,2.464,1.275,4.118.848C664.206,1773.328,660.9,1773.328,660.093,1772.081Z" fill="#231815"/>
    <path id="Path_21266" data-name="Path 21266" d="M666.681,1777.063l3.283-1.253c-2.473-1.651-2.473-2.9-4.923-3.729Z" fill="#231815"/>
    <path id="Path_21267" data-name="Path 21267" d="M693.428,1777.875c0-2.482-1.222-4.969-2.892-5.794l.844,3.729-7.824,2.065Z" fill="#231815"/>
    <rect id="Rectangle_195" data-name="Rectangle 195" width="0.819" height="2.891" transform="translate(818.99 1782.054)" fill="#231815"/>
  </g>
</svg>
