<svg xmlns="http://www.w3.org/2000/svg" width="637.368" height="684.944" viewBox="0 0 637.368 684.944">
  <path id="Path_21092" data-name="Path 21092" d="M1051.972,1545.682c1.654-.844-2.053-5.4,2.058-4.991,0-13.719,7.4-22.839,9.065-36.956.4-8.313,3.278-14.557.828-22.031l4.1-30.748h.824c-.824-4.56-2.478-8.3,0-12.864-6.176-7.474,3.294-14.122-4.118-21.192-.413-10.786-2.459-21.182-1.638-32.808-4.127-5.827-.42-14.548-6.173-19.948,4.113-7.07-3.3-12.456-2.058-19.944h-1.653c-4.542-15.768-14.831-31.564-20.992-47.755-9.88-10.809-17.705-28.665-26.754-34.07-6.591-10.8-15.652-20.764-26.346-29.922l.811-.8c-2.878-2.495-9.051-1.692-9.051-7.07-4.517.822-6.185-4.565-9.883-7.06-14.816-5.836-25.939-20.793-41.16-26.6-11.94-13.7-29.647-5.809-40.756-19.095-10.284-2.918-19.763-10.4-28.386-14.952-4.945-5.4-14.009-5.822-21.014-9.157-.393,7.07-9.456-3.313-8.647,0,4.114,2.495,14.012,4.982,13.592,8.313l-10.7.844c-9.869-2.514-7.4-12.878-11.938-15.8l-2.879,3.734-2.067-2.064c-2.046-4.992-2.879-2.088-7.827-2.918-8.219-4.991-17.28-3.326-22.632-10.786-2.464,3.73-5.351-4.992-6.161.817-4.946,2.073-3.707-2.905-7.015-4.983v2.078c-1.225,2.905-5.742,1.244-7.815-.83a4.44,4.44,0,0,0,2.073-5c-10.3,2.922-20.588-6.226-28.413,2.922-18.115-6.652-31.707-.422-48.581.826-8.23,1.652-19.349.418-23.857,7.056-17.3-2.5-27.993,11.64-46.117,14.966-18.113,11.616-38.272,21.168-57.622,31.968-1.234,1.661,1.225,7.07-3.7,4.983-1.653-1.225-1.653-2.487-2.066-4.139-4.519,3.717-13.583,2.914-16.891,9.956l-2.057-2.073,1.238-.831-2.06-2.074-2.053,2.074c-3.7-.418-10.7,5.822-12.763,9.96l-2.058-2.073c-.415-.826.4-1.235,1.225-2.065-6.992.83-6.173,8.318-13.984,6.23,9.871,6.648-4.936,13.7-7.825,15.778.822-4.977-1.238-7.052,2.889-10.8l-.833.826c-3.709-2.06-5.753,4.574-9.052,5l-2.053-3.744-7.006,9.983-1.644-2.088-6.171,7.07c3.285,2.065,7.411,0,9.871-2.078.417-7.487,6.59-2.5,9.882-4.166,2.464,11.644-14.411,7.9-11.938,17.856,7.006-2.495,11.534-16.594,21.823-12.864-2.473-7.066,9.049-9.969,11.928-13.713,1.654-10.383,14.817-8.3,19.762-14.117,3.285-.835,7.825-5.41,10.7-.835-3.278,1.248-6.99,5.4-10.7,3.73-1.234,4.165,3.285.422,4.118,2.073-12.348,14.957-26.353,29.514-40.754,40.736-1.645,4.148,0,12.048-6.983,11.195,2.044,2.5,2.044,3.752-.835,5.822-4.526,3.335-11.926,5.822-10.7,11.222,4.117.408,2.475-4.583,5.758-6.231,2.472,7.474,0,15.361-2.058,22.008-5.339-.825-1.641,9.974-6.992,5.809,1.653,3.757,1.239,8.331-1.631,11.236-4.136-1.262,0-4.992-1.248-4.992-9.885,9.139,6.171,14.543,4.948,22.022-1.663,14.53-10.7,26.16-18.54,39.864l-3.282-3.312-4.948,4.968c-1.639,11.222-8.658,23.687-11.537,34.074h-1.234c-.406,4.57,0,6.648,2.888,9.974,2.893-11.213,5.77-25.761,14-34.9,1.238,2.074-.8,5.818,2.073,7.9,11.523,6.643,6.992-10.791,13.578-15.782-.415,9.96-4.113,22.425-7.827,30.734,3.714,18.709-14.814,32.813-6.989,51.926-3.308,5.813-1.64,19.526-7.825,22.838h2.058c-.42-.826.415-1.234.819-2.078,4.948,2.078-.4,5,1.238,8.322,4.528,8.722,3.294,17.856,4.948,26.6-4.127,8.722,6.992,21.178,4.932,31.969,2.473,23.265,14.822,39.878,24.692,59.821,7.419,7.07,12.771,18.269,20.572,24.073,5.361,14.14,17.29,21.2,26.768,32.835,4.533-.417,8.651,4.152,7,7.882,7.006-1.661,5.776,7.07,10.713,7.905l1.238-.835c4.113,4.992,7,10.8,12.759,14.957L554.3,1678.2c-4.53,24.082,24.7,23.269,39.523,32.794l.818-2.891c2.888.831,2.474,5.4,4.932,6.231,14,7.487,30.054,13.713,45.7,14.952,6.593,5.822,14.821.422,22.632,4.982l-2.863,1.652L670.8,1738l.808-3.73c15.25,4.574,29.232-.844,46.535.84,0,3.308,4.937,2.89,6.161,2.89v-.816c-1.224,0-2.463,0-3.292-1.262,2.473-1.234,7.419-1.652,11.129-2.891,5.342,2.891-3.3,7.047.809,9.961-.809-5.387,6.187-5.387,9.063-7.882.831-.84-.419-4.18,2.889-2.9.392.408,1.225,1.22.81,2.064l9.061.84v2.074a3.752,3.752,0,0,1,4.945-2.914c3.689.84,7.816,2.914,9.875-2.064,18.515,1.642,32.511-14.149,50.22-17.031,4.113-2.918,7.811,2.074,11.109-2.918,0,2.5,4.127,5.8,0,7.887,5.352,5.836,8.24-6.634,12.771-.817-.418,5.809-7.419,4.561-11.117,7.887-.42,1.656,1.225,2.913,2.053,3.716l1.248-.8c2.87-.839,5.758,1.239,6.568,4.143-2.473,3.335-7.4,4.148-10.7,3.73-2.876,2.913-11.116,5.818-9.877,11.222-5.772-2.891-5.772,6.24-10.7,2.9-2.475,6.226-6.591,5.414-11.954,3.744-4.936,0-5.755,3.734-7.824,7.07-7.8-4.588-12.748,4.152-19.744,4.152-3.278,0-8.24.408-8.24-4.152-3.292.839-4.937,12.873-9.465,7.056-2.455,8.313-6.175-2.9-11.1,0v2.088c-7.006-1.248-11.119,5.376-18.54,5.794,1.25-4.143-2.057-4.969-6.161-5.794,4.1.825,4.937,5.794,2.869,8.712-7,3.34-3.7-5.4-9.875-4.983-4.946,1.253-.828,4.983-4.946,6.244-4.519,1.235-12.343,5.8-15.651,0-2.459-.844-5.327-.844-5.733,2.079-34.189-1.262-69.178-12.052-102.108-22.027-5.767-2.087-12.747-8.735-18.514-5l-2.044-2.065c-9.478-8.318-25.55-12.892-35.428-22.838-11.109.825-5.351-9.566-16.876-9.158-.4-9.538-13.986-10.791-18.932-19.934,4.946-5.8,11.116,9.143,12.757-2.065-1.641-7.079-7.811,2.065-10.69-4.991-.833-2.5-2.889-5.809-2.067-7.883-.42-2.922-2.893,2.074-2.893-2.078-3.28,3.313-7.811,1.652-9.036-2.917-10.29-2.075-10.29-23.679-24.692-17.861-1.663,2.069-4.945,4.142-4.945,5.8,1.637,5.832,1.238-2.064,4.117-.821,1.235,5.4,4.946,10.8,9.869,7.07l.83,8.726a2.294,2.294,0,0,1-1.521.119l2.746,1.959.833-.844,2.06,2.079-.812.839c3.7,13.718,14.8,5.809,22.622,15.783l-1.238,1.247c-1.225-.421-2.879.826-3.7-1.247,0,8.3,11.119,4.964,13.583,11.217l-.822,2.9c1.64,6.648,9.456,4.583,10.69,2.074,2.069,5.414,6.187,7.909,11.133,10.813,4.51,14.535,21.393,13.7,30.456,26.165,6.173,10.8-4.531-2.5-5.755,6.643l-4.948-3.73-2.058,2.07c-2.888-.4-2.459-2.909-2.888-4.157-6.591,1.67-12.349-11.63-17.7-7.056,4.953,6.638,15.236,14.126,24.706,16.2l.819-1.252,2.888,4.166,2.878-4.992c4.534,1.248-.818,3.744,2.058,5.817,6.173,4.157,14.4,8.3,19.765,7.887,4.923,3.34,11.928,6.23,17.684,9.144,7.005-2.505,13.592,5.377,18.934.83,2.056,8.3,12.759,2.482,16.9,7.056,9.465-2.509,15.627,3.748,24.7,2.9l-1.25,1.262c32.111,1.652,68.741,4.969,103.74.826l2.057-2.088c8.178,4.969,10.906-4.5,16.005-7.331a3.27,3.27,0,0,1-.353-1.381c6.17-4.992,13.566-5.386,20.978-4.992.828-4.152,5.751-2.89,7-6.23,5.756.844,11.527-5.4,16.475-.817l-8.66,4.969,11.938-4.152-1.234-2.918c4.946.431,7.419-8.29,12.757-3.716,0,2.078-2.473,2.9-3.7,3.716l2.892,2.918c10.7-3.336,14.4-7.887,24.688-11.626,0-1.252.417-2.514-.808-3.331,2.866-1.243,3.7,1.253,7.811,0,5.758-7.065,15.223-9.139,22.632-13.713,4.118-2.9,5.767-12.447,11.945-9.134,30.06-21.169,56.389-45.278,81.909-70.613,6.591-10.813,15.237-19.948,23.883-27.83-4.935-13.3,12.761-11.217,10.7-24.095,2.057-.413,3.291.417,4.936.839,3.707-12.891,11.938-21.618,15.658-34.913,6.983-1.234,6.568-12.874,11.906-18.682C1045.8,1561.464,1044.161,1550.233,1051.972,1545.682ZM471.157,1364.144c1.629,6.225-6.182,7.9-4.948,14.121-1.234-2.9-2.473-6.225,2.06-9.129-.415-9.144,6.586-16.2,7-23.692,6.563-10.8,9.871-22.412,16.863-33.216C486.8,1329.258,477.328,1347.967,471.157,1364.144ZM559.244,1678.2v-2.079c.81,6.217,7.4.831,7.816,7.057C564.181,1685.25,561.717,1680.272,559.244,1678.2Zm39.507-408.781-11.938,7.093c-1.239-11.64,9.479-4.175,9.88-12.062h-2.056c12.358-8.3,24.286-17.856,38.7-20.769C622.631,1252.823,606.995,1261.119,598.751,1269.418Zm351.542,343.976c-.406,8.314-9.061,9.97-9.871,16.2-4.531,4.574-7.006,9.134-11.951,11.635l-2.045-1.661-5.771,4.982c5.352-7.9-6.171-9.96-2.044-17.043,6.994-4.557,14.415-6.213,17.7-14.966,7.4,0,6.173-7.446,13.984-7.882l2.892-3.3-3.714-2.927c4.1,0,2.879-9.134,7.827-2.895l2.889-5.822,2.867,2.918,1.234-1.248C959.771,1597.2,957.7,1607.995,950.293,1613.394Z" transform="translate(-431.483 -1119.871)" fill="#fff"/>
</svg>
