<svg xmlns="http://www.w3.org/2000/svg" width="2799.283" height="691.319" viewBox="0 0 2799.283 691.319">
  <path id="Path_24862" data-name="Path 24862" d="M2163.248,2845.885a16.786,16.786,0,0,1,12.746.048c-.533.941-2.881.39-3.139,1.585,15.293,2.06,39.829,5.679,56.339,9.744,3.752-.907-3.113-3.244-1.807-5.643a12.737,12.737,0,0,0,6.833,1.447c3.038,2.375-2.389,1.524-2.237,4.406l11.194.842c-7.564-4.116,14.249-2.429,6.648,2.344a273.223,273.223,0,0,1,41.116,7.69c-6.347,1.3-14.979-3.274-24.99-2.812,2.7,1.859,6.117,2.093,9.6,1.655-5.528,5.955-17.234-2.58-24.258.928-4.3-1.093,2.692-1.01,4.364-.6-2.925-4.07-8.735-.89-13.986-1.052.4-.693,1.57-.791,1.736-1.689-18.784,2.507-23.4-5.68-47.2-5.394-1.49-1.7-4.308-2.729-3.211-5.75-3.948,4.232-11.672-.2-17.273,1.455-1.971-.545.285-.772.335-1.819-5,2.611-28.937-3.2-36.544-1.815-1.044,2.443-4.4-.284-2.436-2.027-9.252-.625-18.814.429-29.373-2.208-.2-.062,2.113-1.194,2.972-.686-13.992-7.937-44.328-1.7-59.291-9.058-9.3,4.224-28.959-5.236-36.523-1.836-1.9-.446.17-1.6,1.737-1.69-3.8-3.062-11.518-.469-15.554-.259.618-2.567-16.165-3.6-20.968-1.577-6.76-8.77-35.13-4.7-47.934-9.113-1.8.1-1.735,1.689-.33,1.8-23.578,1.635-67.894-8.048-91.943-8.735-22.958-.654-54.071-6.611-89.816-4.936-2-1.969.333-1.118.666-3.613-15.913.227-30.458-.424-43.355-3.26a181.389,181.389,0,0,0-34.621-4.425c-31.418-.588-66.205.388-97.134-3.641,1.939-3.285,12.511.544,12.2-4.592-17.566-3.42-18.544,1.406-32-3.315.018,1.074,2.4.95,4.029,1.212-29.837-.469-69.4-3.585-106.925-4.377-1.44-2.256,1.067-1.974-2.141-3.826-28.276,3.382-61.6-4.936-81.414-4.279-53.742,1.77-104.365-.381-167.153-.645-29.777-.116-52.086,5.487-75.617,2.574-9.75,6.478-28.741-.738-40.314,3.409-16.1-1.7-36-.84-52.558.622-7.763.676-17.31,1.639-22.151,4.752-18.619-.444-44.637,5.348-59.734,1.039-8.594,3.718-19.5,5.534-31.021,6.838-8.028,5.231-18.731,8.277-34,7.548-2.047-.434-2.281-1.408-5.1-3.136-13.277,1.264-29.745-.09-37.859,5.414l.336-1.818c-20.222,7.371-57.921.4-77.99,7.927,2.61,2.063,9.95-.816,15.538.235-5.76,2.226-13.632,2.709-21.82,2.956-.687-3.016,3.99-1.613,4.877-3.3-12.222.737-26.043.164-33.494,4.809-11.267-4.256-26.352,4.179-41.719,3.3,11.493,2.451,25.925-1.668,38.576-1.7-2.612,3.42-14.016-.378-13.729,5.385,44.138.1,89.83-7.551,136.327-9.025,3.182,4.042,16.81,1.357,14.486-1.665,27.074-8,70.909-1.668,91.254-10.594,2.569.333,4.562.951,5.244,2.239,25.056-5.934,48.969-.308,76.838-1.573,6.518-.279,11.035-3.09,17.792-4.169,36-5.718,77.951-.672,116.483-1.345,5.331-.089,10.912-3.193,15.554.259,4.882.484.126,1.363,2.122,3.824,14.591-.677,23.288-2.31,38.426-.775.52-2.62-12.623-1.393-13.837-1.949,1.632-8.07,27.6-5.159,44.693-3.991-.922,1.682-4.282,1.335-3.625,4.326-10.088-1.669-14.931.954-24.111.03,97.295,9.6,194.736-3.371,302.933,9.924,60.171.792,129.738,7.867,191.568,14.407-1.165,4.254-11,1.413-17.275,1.455,3.888,4.027,18.078,1.313,26.046,4.712-7.2,1.023-17.282-.272-25.5-.073,41.389,5.424,88.662,9.329,127.626,15.107-1.094.851-3.387.679-3.286,2.483,2.318,3.651,32.935,9.455,31.088.518.042,1.146,5.629,3.176,2.624,1.107,2.971-.384,5.409,6.521,11.409,7.3,2.469-4.109,11.594,1.315,14.32-.767,4.273.951,1.366,2.554.566,4.641,7.293.407,1.781-3.6,5.03-4.22,9.4,1.9,17.71,3.408,26.229,3.816.122,1.479-1.6,1.442-1.905,2.611,7.475,1.961,5.736-3.653,11.848-2.8.513,5.22,14.433.572,23.292,4.505,2.166.56,5.31-3.008,2.052-3.51,13.491-.386,38.728,5.2,59.462,8.136-.8,2.087-4.116,1.815-5.766.5.8,6.875,17.2-4.869,20.637,3.372,20.026-1.341,45.053,6.562,63.652,8.475,1.806-1.195,1.917-2.1-.9-2.823,3.312-1.641,9.4,2.248,15.223,2.056.308,3.5-6.406-.925-11.365.078,10.466,3.238,26.7,7.54,43.91,7.877,42.392,10.541,93.383,22.427,142.985,31.875l-.5,2.717c4.574.391,6.667,2.042,12.4,1.843,9.474,5.286,24.477,7.068,36.252,11.011,7.724,2.564,13.933,5.435,22.608,8.118-.818-.248,8.988.21,10.676,3.557-26.391-3.432-62.029-17.782-82.934-19.1,1.752-3.159,6.768,2.866,8.534-.269-13.383-3.34-28.76-7.484-46.2-10.825,5.448,3.187,16.935,4.984,16.84,8.617-14.533-.509-15.983-7.688-24.891-11.067-1.22,3.2,8.84,2.765,3.193,5.749-6.661.945-1.9-3.948-6.336-4.142-4.352,2.988-12.987-1.28-19.563-1.471,5.086-2.769-4.254-4.871,3.792-5.223-1.593-1.917-8.458-1.126-10.859-2.66,4.443,2.084,5.927,4.39,2.708,8.465,14.845,5.083,46.488,13.251,70.855,15.434-.37,4.546-9.818,1.666-12.177,4.591-21.078-3.615-45.031-13.421-62.156-16.6-8.172,14.041,39.468,10.669,56.058,18.9,4.323,1.469,1.622-2.843,5.933-1.4-.981,3.846,8.568,1.695,11.006,1.761,6.639,7.968,20.329,3.77,32.4,8.855,4.3-.282-.977-2.033.666-3.614,22.641,4.9,34.659,10.168,52.027,17.682,2.152-.235-.337-1.192.5-2.716,14.556.488,11.592,9.927,26.465,10.252,2.133-.237-.355-1.195.5-2.717l9.774.735c-1.282,2.751-7.983,1.08-7.985,4.907,6.669,1.436,29.641-3.068,24.66,4.608-3.956-.133-3.03-2.818-4.915-4.033-4.295.633-6.249,3.217-10.622,3.775-26.708-8.357-58.674-13.4-81.218-20.788-2.215-5.675-25.173-7.192-36.256-10.988-4.5.291-2.276,2.278-2.222,4.429-6.592-1.569-7.5-2.033-16.455-3.081.946,2.779,7.654,2.654,7.384,6.064,30.981,4.43,63.72,14.944,93.629,22.654-37.391-6.592-78.117-18.547-118.454-26.365.716-1.136,2.716-1.243,3.29-2.507-19.228,3.059-53.012-13.321-78.693-11.426a4.037,4.037,0,0,0,1.906-2.611c-17.044-.768-31.722-7.24-51.243-6.608,1.67-2.418-11.836-8.5-17.842-3.186-5.89-.49-2.922-2.32-.736-3.719-10.528,1.309-19.283-3.877-27.786-3-.125.877,1.579.818,2.625,1.108-12.8-.543-50.22-7.465-80.266-10.611,17.974-10.225,43.692-.122,61.87,2.81,11.252,1.8,25.455,1.564,35.121,1.708,19.49.3,51.563,11.6,74.329,12.031-5.643-2.711-5.628-2.5-4.6-5.853-5.047-1.361-2.826,3.217-7.483,2.19-1.576-1.331-1.182-3.473.836-4.534-4.988.372-5.138-1.74-9.626-1.635,12.111-5.2,17.586,3.984,31.831,4.215-7.266-4.562-16.859-6.17-20.7-10.729-4.3.283.975,2.033-.666,3.613-9.056-2.478-15.865-6.093-25.4-8.328-4.074.6,1.579,2.57-2.069,3.508-16.224-3.669-28.45-7.414-45.481-7.084-2.862-.5,2.533-2.307-2.289-2.926-3.256.268,1.448,1.532-1.9,2.611-15.233-3.269-36.56-4.36-51.391-5.709-14.48-1.3-34.019-8.859-44.578-4.263.826,2.559,3.059-2.22,7.167-.37-4.351,2.1,1.917,4.065,7.537,5.141,16.974,3.306,53.222,4.959,67.517,10.585-1.5,3.225-6.153-2.586-7.153.4,4.281,1.886,11.618,2.252,16.271,3.979-53.526-4.773-108.4-17.745-168.17-18.179.194,3.726,8.8,3.159,14.882,3.9.955-2.145-6.468,0-3.707-3.056,8.044,3.173,15.655,5.961,26.247,3.818,4.817.549,4.706,3.6,9.121,4.374,7.51-1.745,10.805-2.035,22.854-1.036l-.831,4.513c4.486-2.838,10.309.658,15.388,1.157-1.274,3.194-9,.35-5.2,5.116-3.443.114-2.738-1.863-6.835-1.424-1.414,3.558,5.135-.594,3.522,3.952-2.255,2.071-3.909-1.951-5.763.477-4.255-.95-1.366-2.553-.549-4.639-7.268.435-8.289-2.328-10.528-4.455-5.416-1.691-4.785,1.623-8.7,1.189-.118-1.5,1.6-1.467,1.892-2.635-6.346.806-8.411-1.193-12.08-3.663-17.84.128-25.244,1.882-47.55-3.576-3.811,1.23,2.141,4.314,4.761,4.956.421,3.088-3.162,1.232-4.346.606.685,5.279,11.4,1.323,14.3-.768,3.323-.334,6.571,5.3,6.836,1.424,8.523,6.242,29.9,3.765,43,5.077.644,4.624,10.945,4.745,8.288,8.886,6.822.232,5.874-.493,14.155.13-9.246,2.363,3.134,1.66,5.744-.477,2.008.548-.764,1.109-.5,2.715,10.712.526,18.506-1.385,27.732-4.332,5.147-.174,7.847.917,7.886,3.347,4.318.418,4.524-2.554,10.126-1.082-7.01,3.72,6.784,5.5,9.673,8.989,2.281-2.793-4.385-1.031-2.105-3.822,7.065,2.234,11.465.162,18,2.263-1.768-4.286-17.937-1.209-18.75-5.985,73.774,9.469,150.2,29.453,215.748,44.676-24.725-3.284-47.108-7.043-70.14-11.693,6.258,5.535,24.132,8.84,32.712,7.058-.268,7.122,28.475,8.047,29.994,14.182,4.595-4.019,14.569,4.222,18.2,1.368.755,2.157.046,3.364,6.316,4.138-.867,1.382-4.535.453-3.461,3.428,4.992,1.846,20.533,1.194,25.5.074,50.145,14.717,94.214,22.7,151.187,33.4,4.329,1.142,3.33-2.131,6.081-2.3,6.048,1.295,19.579,7.54,19.413,2.394,8.5.031,23.666,3.74,32.9,6.139-13.8-.688-19.042-.2-29.037-4.028,14.536,8.515,40.178,11.306,62.321,15.7,12.9,2.558,24.305,5.75,33.615,9.881-3.36,4.158-3.574-1.623-9.791-.736.966,4.436,8.677,5.413,9.521,9.911.965-4.058,8.407,1.8,16.756,1.26.143,1.482-1.582,1.445-1.88,2.589,9.546,3.916,24.82-.071,28.015,9.459-18.219-2.7-34.446-6.442-52.126-9.428-.107-1.478,1.622-1.465,1.905-2.611-19.052-5.82-48.729-7.539-57.125-20.82-2.471,1.775-5.01,3.521-6.748,5.91-.612,1.962,4.9.789,6.832,1.449-17.505,1.531-37.367-8.388-57.573-10.772,16.036-.8,32.323,5.348,46.714,8.112,5.262-.211-.326-4.2,5.193-5.118-21.75-7.19-35.122-6.584-55.82-12.46,4.608-2.033,9.488,2.768,16.609,2.16-8.213-3.722-20.981-5.125-32.711-7.058-.973,2.145,6.45,0,3.691,3.032-4.015-1.189-8.371-.909-4.93-4.035a44.676,44.676,0,0,0-12.416-1.844c1.5,3.379,7.163-.441,6.318,4.138-13.571-3.984-31.17-5.937-44.961-9.8-2.032.175-.435,1.579,1.052,1.923-17.557-.339-31.088-9.806-51.793-11.246-6.131-8.466-33.368-6.618-50.389-11.141-9.909-2.637-11.011-7.5-16.339-11.336-18.922-.162-23.739-7.55-42.521-7.794-3.6.383,2.166,2.613.567,4.639-5.922-3.245-19.5-2.587-24.324-6.427-.66,6.905,16.4,4.735,21.034,8.933,9.054-2.983,18.423,5.119,31.643,5.134,3.934-.522-2.528-2.408-3.675-3.031,7.152-3.032,11.809,2.009,19.229,3.29-3.719,1.121-8.8,1.113-14.319.767,6.667,3.7,20.179,3.9,17.576,12.338,24.971,8.786,64,8.338,85.578,20.205,9.862-.728,16.81,7.124,22.035,3.5,16.138,11.063,48.7,16.686,76.354,24.109-48.737-9.243-101.794-23.408-152.4-34.426-4.09.579,1.579,2.569-2.089,3.507-5.279-1.657-12.64-2.28-19.229-3.29,2.051,1.975,6.055,2.929,10.691,3.581-4.236,3.626,2.425,1.3,1.958,4.721-6.9-1.475-8.379,1.471-14.321.767.671,4.276,14.933,2.267,20.15,6.114-.63,2.239-4.791-.1-5.6-.421-1.154,3.811,7.275,1.48,9.625,1.635-6.687,2.764,7.8.679,5.916-1.4,9.641,9.757,28.822,7.045,48.667,12.854-5.183,1.525-14.86-1.677-20.8-2.475-1.4,3.979,10.88.982,12.078,3.663,2.979,2.418-3.852,2.137-2.569,6.225.345,1.45,4.248,1.09,2.123,3.824,9.916-3.269,6.162.487,17.458-2.351,5.867,9.31,28.817,8.048,40.834,16.841,5.664-.624,5.227.183,11.343-.057,1.072,1.9,5.92,1.892,4.765,4.932,2.622-.643,7.038.226,8.722-1.187,3.973,1.115-3.488,1.138-2.058,3.532,4.918-.68,2.519-1.63,8.554-.267-.427,1.043-2.683.569-4.36.583,1.674,2.156,9,1.4,10.677,3.558,5.96-3.707,19.215-.842,27.632,3.922,27.541.9,55.537,15.169,85.577,20.205-1.308,4.057-6.406-1.508-8.722,1.188,12.231.687,12.788,11.346,25.231,9.225-.991-2.151-7.271,1.041-6.483-3.241,4.233,1.276,7.39.58,12.246,2.764.9,2.823-3.407,1.378-5.933,1.4,1.162,2.305,6.711,2.885,8.388.631,27.225,1.629,40.068,7.215,63.49,9.35-11.51,2.146-28.552-.7-43.337-3.26-3.311-.226.038,2.524,2.471,2.03-72.734-14.129-141.726-32.247-220.839-47.836.242,1.815,6.379.573,3.5,3.951-1.374-2.9-3.817-.591-9.624-1.634.909-1.705,5.573-.327,4.9-3.318-29.823,1.117-56.49-8.73-88-14.88.538-.963,2.887-.414,3.139-1.585-10.737,3.813-12.562-4.469-24.675-4.633,9.337,3.689-7.446,2.474-10.443,2.9l.671-3.637c-4.591-1.864-7.549.2-10.863-2.638-3.659-.578.382,5.163-4.861,3.3-4.379.6-2.113-2.212-2.122-3.824-5.945-1.077-9.869,3.6-11.025-1.762-9.811,6.8-20.076-3.1-29.854.509,5.194-4.043-11.1.963-6.5-3.243-4.806,1.249-8.446.369-11.529.976-3.941-.809,2.409-1.242,1.9-2.609-4.7-1.078-6.3.389-7.5,2.189,6.857,3.059,16.182,4.857,25.745,6.534-1.106,3.558-4.682-1.38-4.691,2.377,3.3,3,6.595-2.841,12.913-.848.118,1.5-1.6,1.466-1.906,2.61,17.336.37,42.69,5.8,65.227,7.66,2.225-.159-.935-1.681,1.721-1.715,8.355-.165,10.3,2.945,14.717,4.794,1.664-.038,1.477-1.568,1.9-2.611,4.563,2.023,14.276,1.424,17.659,4.083-.178.873-1.833.563-2.954.688,4.85,3,14.2,3.681,21.7,5.32,10.583-4.642,36.912,6.065,48.122,8.194-3.155,4.01-21.027-3.4-28.891-4.927,1.847,3.476-1.529,3.222-1.384-.1-4.312-1.444-1.61,2.866-5.932,1.4,2.878-2.91-22.241-2.3-31.326-6.954,21.722,9.406,57.169,11.792,79.827,20.707-32-3.667-58.689-13.609-94.3-19.04,27.179,10.981,62.582,14.976,96.253,23.762-8.532,1.622-17.889-4.59-28.288-.284,13.11,1.99,33.327,3.627,46.868,7.19-1.494-3.334-10.1-3.049-14.723-4.772,6.408-1.338,18.582,1.421,18.745,6.008,3.874-.2,3.619-.475,8.723-1.187-.677,1.418,1.024,1.664.9,2.821,19.563-.675,38.548,11.067,55.252,7.82,2.607.615,2.063,2.793,6.666,2.345-16.549-6.683-34.334-8.51-52.53-14.966,5.979-3.215,14.427.408,20.968,1.576-5.3-3.573-16.735-4.013-24.324-6.428,14.822-.751,24.329,4.934,39.712,7.585-2.1,2.315-7.3-.549-9.79-.736-.579,2.851,10.89,1.706,4.761,4.956,2.509-.021,6.813,1.446,5.916-1.4,4.737,3.32,10.969,5.866,19.982,7.01-.537.964-2.9.413-3.142,1.608,5.359,3.272,16.385,3.658,26.08,4.715-9.834,4.978-30.83-6.613-35.47.087,4.556,4.216,6.1-.639,12.765.05,1.546,4.712,27.379,5.21,40.933,8.585-.009,1.517-10.626.181-3.121,1.586-10.816,1.4-19.5-5.318-33.064-5.241a9.863,9.863,0,0,0,3.858,2.134c-47.768-9.917-101.305-23.419-148.711-31.4-.756,2.534,5.541,3.077-1.922,2.61,2.133,4.85,5.837-.5,9.957-.162-6.984,4.749,1.33,4.021,8.954,5.271-1.8,1.171-1.918,2.1.886,2.821-35.673-8.494-87.809-14.842-119.107-22.727,3.033,4.452,14.5,4.614,16.656,9.514-7.421.492-20.8-1.518-24.489-5.529-2.507,1.094-4.042,2.963-8.887,2.086-2.268,2.817,4.4,1.03,2.119,3.846-3.445,1.772-4.345-1.937-8.052-2.449-2.475,3.946-15.053-.922-20.465-4.292-.973-2.641-.887-3.987,4.86-3.3-76.123-17.651-173.729-28.983-257.062-35.856,4.29,3.8,19.453,2.07,22.943,6.3-.122,1.648-2.057,1.783-2.073,3.533,48.9,9.326,113.228,18.645,160.527,21.244a4.02,4.02,0,0,0-1.905,2.611c2.115-2.781,10.943-.041,12.013-3.694-6.022,1.484-9.914.608-12.08-3.663,10.114,2.7,24.107,1.744,34.467,5.347-3.667.938-11.9-2.014-16.943-.341,13.884,3.355,32.735,2.439,46.347,9.9-5.12.806-12.612-4.683-19.563-1.472,1.8-4.2-5.365-.706-10.511-4.454-2,4.12,4.718-.275,3.845,2.11-.916,3.991-10.75.661-9.607-1.633.853,3.1-11.674.592-18.513.452,127.8,24.455,258.415,34.954,367.2,68.925-9.658,1.491-14.465-4.589-24.995-2.79-.248-1.582,1.381-1.623,3.109-1.61-22.4-2.875-66.1-12.859-89.033-16.8-1.375,2.183-4.017-1.655-5.267-2.217-9.835,2.738-59.759-8.578-82.884-11.74,1.366-1.648,4.277-.332,1.9-2.612-5.131-1.086-1.86,4.714-7.668,3.087.459-3.956-1.716-.666-4.913-4.033-3.836,3.609-16.2-4.369-22.39-1.684,4.3,3.825,18.575,2.541,21.388,7.115-10.672-1.618-26.588-5.873-33.565-2.524,2.009-1.319,9.988,4.556,21.539,6.194-3.936-1.812-6.261-4.438-11.748-5.458,12.047-1.053,26.994,8.659,29.522,1.287,5.793,1.813,25.39,2.61,29.759,7.746,10.287-2.936,26.079,4.436,38.641,5.661-1.161,3.67-3.654-.3-7.316,1.293,20.044,6.969,43.452,13,66.178,17.837q-2.155,1.868-7.314,1.27c3.53,2.156,6.59,2.76,1.783,5.666,6.169,1.234,7.374-1.593,11.7-1.9-.029-1.893-6.122-.694-6.668-2.323,6.12-.263,11.258-4.591,23.207-2.852-1.921,2.8-4.37,1.912.737,3.72-5.736,2.976-8.458-3.46-13.982-1.052,2.131,3.287,13.033,2.1,14.534,5.691-8.167.319-12.329-4.755-19.418-2.372,5.509,6.763,22.8,7.479,36.423,10.091,2.624,1.014,2.212,3.248-.165.9-13.337-.56-25.843-5.91-35.838-5.449-2.568-.333-.305-3.126-2.141-3.824-1.457,3.017-9.637.582-15.388-1.157,2.217-3.031-.347-1.73,4.717-2.422.321-2.333-6.287-1.756-2.141-3.826-8.225-2.3-8.99,1.564-15.37-1.156-.591,1.543,1.947,2.528-.5,2.717-7.021-2.372,4.424-3.774,6.246-3.194-6.915-2.177-18.31-4.854-28.354-7.64-3.8,3.332,12.88,3.233,14.37,6.589,1.2,3.054-4.642.351-3.458,3.4-3.516-.661-1.351-3.415-6.168-5.038-11.426.8-14.786-3.446-24.659-4.609.867-1.382,4.55-.451,3.478-3.426-3.2.156-5.292,1.237-6.285,3.215-27.369-6.236-61.322-14.087-84.652-17.405,47.433,12.809,88.57,20.29,132.839,32.956.419-2.956-5.987-2.411-9.289-3.453,4.316-2.406,12.086,2.939,11.512-.978,3.662,1.233,2.471,3.1,1.97,4.746,6.171,4.642,15.184,3.148,24.5,5.506,3.457.891,2.914,2.763,6.312,4.162,16.906,6.9,46.748,3.237,62.822,12.987-45.648-7.447-93.34-14.932-137.3-24.1,9.664,1.124,23.746,3.116,36.005,4.528-9.05-4.065-21.12-5.229-32.209-9.774-3.17-.5-2.046,2.506-4.717,2.422-4.24-2.209-5.36-6-14.534-5.691.7,3.135,3.111.329,5.25,2.216-8.951,2.524-15.657-6.149-24.831-3.688-.283-1.981,2.326-1.574,4.529-1.5-3.01-.879-13.789-7.291-15.37-1.156-7.576-.732-7.952-4.845-16.444-3.057,3.17-1.652-.233-1.861-2.288-2.926-3.058.167-3.36,3.178-8.57.266.427-1.041,2.7-.567,4.357-.583-3.209-1.642-8.152-2.386-13.646-2.87-1.8.1-1.737,1.69-.336,1.818-8.413-2.546-34.7-7.395-48.267-7.318,31.758,10.581,70.7,15.8,100.482,24.082-30.709-.419-61.689-15.8-98.845-17.516-4.832-5.452-25.895-7.875-41.115-7.69.659,2.968,7.66,1.837,12.433,1.845-2.94,5.778-20.7-.3-14.888-3.874-27.464-4.353-42.982-9.977-74-13.827-.448-4.3,4.5.969,4.528-1.5-13.74-4.907-23.316,1.491-38.98-3.841.253-3.715,1.891.3,5.746-.479-2.532-3.364-13.923-2.167-19.062-4.188-1.512,3.5,7.48,1.637,10.84,2.659-1.463,2.948-14.259,1.122-12.246-2.764-6.876,4.081-14.682-5.375-22.537-.784-22.381-4.95-82.887-8.5-122.53-11.97a3.131,3.131,0,0,1,.885,2.821c-4.754-3.531-31.086-6.983-43.337-3.26,4.554-3.6-8.323-3.614-3.859-2.134-30.326-6.412-57.763-8.172-95.984-9.973,21.353,4.757,48.692,5.88,77.822,8.607-5.118,5.683-20.933-1.854-27.085.74-.4-4.207-15.194-.652-20.967-1.576,79.187,8.733,172.249,16.478,253.367,32.826-32.1-9-61.032-10.286-89.935-19.624,26.095,1.029,42.808,9.265,63.475,9.348,1.8-.261,3.09-.935,3.291-2.507,1.717.364,1.086,1.926-.336,1.819-.592,1.939,4.88.788,6.835,1.424.709,3.391-5.741.852-8.74,1.187,11.984,5.358,36.519,4.287,44.645,11.619,19.159-4.347,33.809,8.238,50.67,1.991,18.07,9.271,50.833,8.816,70.876,15.412-37.38-4.024-66.68-9.939-109.3-14.638,29.366,8.3,76.432,10.393,89.451,22.34-36.608-7.607-89.308-22.726-134.841-22.091-10.318.159-23.887.375-32.113,4.937,10.315,5.117,30.258,5.311,45.309,8.005-1.011-1.943-5-2.361-9.456-2.555,19.032-.529,46.721,3.771,63.322,10.271,8.324-.4,19.445-.335,18.727,6.006-6.14-.415-13.21-.364-13.484-3.769-3.173,4.708-18.535-.694-25.16-1.892,2.892-1.416-.117-2.693-.57-4.641-10.377-.57-21.181-4.814-30.573-3.21,8.383,2.8,23.247,2.309,30.073,5.927-19.212,1.8-46.627-9.062-63.8-7.553l-.836,4.535c-3.3.406-10.61-2.455-10.123,1.058-5.13-3.349-14.062-2.387-22.2-2.58.03,2.173,6.525,1.051,4.911,4.033-22.038-.164-53.468-6.355-76.885-5.782,47.985,8.347,105.991,12.173,158.051,19.238,15.623,2.133,33.371,1.624,45.143,8.9-8.643-2.564-20.662-.107-30.942-1.418-3.856-.476-5.917-4.155-9.607-1.632-.124-1.48,1.6-1.466,1.887-2.612-24.177-5.273-48.335-2.048-71.124-6.26,0,0,2.064-1.618,1.722-1.714-19.365-5.1-47.569-3.764-75.316-6.574-20.71-2.1-42.837-4.715-65.563-5.841-5.088.528-2.843,1.349-4.859,3.3-6.56-.867-9.927.886-16.939-.364.011-2.4,2.467-2.826,6.08-2.3-40.831-8.064-79.863-1.944-121.462-10.044-2.187.63-5.552.306-4.861,3.3-12.37-5.014-17.934,3.085-35.139-1.71,1.149-1.15,3.318-1.477,5.932-1.4-26.1-5.673-42.942,1.135-67.943-.536-2.49,4.013,9.483.644,9.286,3.476,1.276,4.507-6.759,1.382-6.6,5.011-1.665,4.146,8.869,2.021,10.528,4.456,3.689-1.939,8.641-4.461,7.1-7.728,4.754.5,16.213,5.281,15.37,1.156,3.8,2.854,15.145,1.3,20.969,1.577-.718,1.837-6.224-.258-6.082,2.3,7.773,1.518,11.446-.329,15.871-1.561,7.105,8.656,22.919,2.821,34.615,4.447,4.218.574,6.322,3.229,10.529,4.457,10.048,2.949,26.74,2.22,32.881,6.137,16.829.285,33.453,4.009,56.987,6.129,5.334-.206-.474-3.094,4.86-3.3,5.811.04,6.968,2.461,9.125,4.35,3.836-5.757,21.916-2.2,26.747,1.1,2.67-1.386.21-2.411,2.388-5.328,13.529,4.985,27.782,4.283,41.62,4.95,53.265,2.583,99.03,12.023,154.693,14.389-6.337,5.451,14.284,3.432,18.746,6.007-.129,1.974-5.051.04-7.165.371,46.67,10.979,99.008,17.9,140.676,28.948,18.581,2.4,26.985,2.939,35.332,8.188,8.418-.323,19.986,2.2,24.347,6.407-47.33-10.141-93.731-17.016-132.457-27.42-3-.716-2.311,1.6-4.509,1.5-5.24,1.053-.289-3.125-3.712-3.032-1.713,3.628-3.995-1.4-8.72,1.187-.018-1.074.617-1.587,1.738-1.712-19.87-6.256-39.215-9.018-62.99-12.065,9.094,6.962,33.6,2.924,39.234,10.279-6.035-.2-6.421-3.284-13.654-2.848-.906,3.549,2.188-.139,3.845,2.11-2.318,1.925-9.8-.388-14.132-.154-.908,2.383,7.971-.24,5.08,3.136-6.884-.1-9.76-3.348-17.513-4.981.716-1.137,2.717-1.242,3.292-2.506-6.4.1-6.714,1.339-14.486,1.665-1.831-.418-.738-2.344-.72-3.719-4.307.89-7.107-1.118-13.982-1.052-1.84,3.829-5.643.019-7.815,3.986-35.895-4.543-68.218-6.484-105.763-10.684-3.549.2-5.4,1.834-7.648,3.088-6.837-2.007-7.089-2.492-12.764-.049-21-7.576-52.422-6.859-82-8.92-53.806-3.745-145.508-14.072-204.464-13.535.22,1.254,3.378,1.025,5.433,1.319-11.12.121-35.619-1.651-56.085-3.308.2,1.276,3.342,1.021,5.41,1.341-5.571,2.661-20.668.9-23.587-2.707-27.161-1.6-49.031-5.017-76.74-6.682-44.65-2.68-104.613-2.547-145.922-8.22-3.626-.552-1.731,3.441-6.079,2.3-.147-2.626-18.609-4.6-23.758-1.787-7.455-2.264-14.514-2.376-23.793-1.79,13.457,7.243,35.113,8.009,62.084,9.267-41.468,3.6-80.845-5.31-132.92-1.735,14.467,3.609,25.984,1.324,40.714,2.153,3.048-.215,2.428,1.489,2.288,2.925,3.523-.248,3.635-3.3,8.887-2.085,2.1,2.024-1.357,1.694.739,3.719,10.894-2.915,27.221,3.7,38.075,1.02-1.548,2.732,3.533,2.039,1.972,4.746,34.627.387,54,8.962,79.694,5.994,3.9-10.186-13.788-9.345-21.606-13.552,9.451-5.824,35.09,2.266,42.953-2.277l-.5,2.717c28.079,2.974,42.945,4.42,64.159,5.734-1.616,3.194-11.556-.448-14.486,1.665,5.761.806,12.846,2.249,19.229,3.29-4.368,2.588-9.919-.723-18.343-.469,2.985,5.218,16.137,2.566,22.939,6.322,2.151-.235-.338-1.192.5-2.715,3.129,1.4,4.546,3.679,10.7,3.558,4.819-1.225-3.206-2.644-.4-5.538.467,2.158,6.859,3.06,9.607,1.633-2.9-1.643-2.282-2.086-.553-4.617-9.653-1.006-14.555,2.243-19.412-2.394,15.066,2.021,22.99,1.45,39.327,2.049-1.147,1.826-2.537,1.746-4.375.58,1.656,2.646,4.615,1.351,9.29,3.454-2.547,3.542-14.646-1.079-21.47,1.139,1.069,3,20.323,7.619,19.583,1.472,3.582,7.341,7.228,7.9,18.561,6.9.475-1.6-1.355-2.039-.738-3.719,7.518,3.389,14.636,2.5,15.956,5.8,4.551-4.068,7.13,2.17,15.37,1.156.724-2.559-9.35.394-6.479-3.265,23.073-.365,49.139,5.12,74.1,5.573-.675,2.587-6.138,1.243-10.126,1.083,22.033,6.838,33.584,9.061,63.152,11.191-16.152,4.736-38.406-1.091-52.057-2.1-10.328-.753-19.268-.142-27.969-2.1,1.45,1.323.271,1.468-.5,2.717,12.883,3.3,27.745,1.363,38.974,3.865-2.439,3.457-19.267,3.661-19.727-.573-14.8,5.141-28.518-.208-45.243-.65.025,4.95,10.3,1.989,13.483,3.769-4.882,2.247-17.184-1.572-20.251,2.165-2.544-2.035-4.57-3.752-1.635-6.565-56.419-5.316-120.352-6.787-171.633-14.752.2,1.276,3.361,1.024,5.427,1.343-3.686,1.823-12.6-.621-18.342-.47-3.495-2.247,10.382.944,11.511-.978-14.322-2.734-34.836-5.887-47.532-3.575-2.93.55-5.352,3.331-9.222,3.9-15.662,2.277-39-2.955-56.773.329-6.064,1.131-14.835,3.458-24.442,1.825,22.024,3.57,31.342,5.695,47.215,5.395,3.534,2.623-5.785,3.532-6.764,5.909,71.174,3.929,144.938,12.862,198.884,13.114,12.893,5.894,41.549,2.705,56.486,8.846,3.257-.269-1.429-1.532,1.9-2.611,6.109,3.61,11.013,3,20.468,4.293-5.719,5.8-22.8-4.351-31.428,1.324-59.026-3.762-115.084-9.659-176.511-11.455,35.881,4.823,74.9,3.976,115.731,10.547-.99,2.143,2.177,2.171.551,4.639-51.968-3.839-97.407-7.232-139.988-9.617,1.774,6.013,10.092-.805,14.734,4.795,3.616,1.112,15.3-.974,19.881-.348,2.534.33,4.636,2.8,6.5,3.242,22.814,5.24,52.112,3.453,75.664,4.781,33.4,1.835,64.408,4.774,90.942,14.167-42.971-4.958-101.585-6.169-141.947-14.339,11.216,6.4-45.241-2.609-58.489,2.018,162.228,14.069,305.612,27.256,449.375,38.4-91.734-.295-179.28-14.021-275.051-15.179-.568,1.522,1.966,2.529-.5,2.717-2.589-1.1-1.206-4.2-10.676-3.557,1.534,1.352,3.868,2.088.739,3.719,19.754,2.186,44.89,5.687,67.111,5.048-1.7,3.069.838,3.96,1.79,5.643,2.632-1.085,12.106-3.034,11.025,1.762-18.223-1.021-60.24-4.414-85.121-7.335,2.537,7.052,11.237,2.268,22.921,6.322-.8,4.164-3.721-1.611-8.37-.629,6.494,4.059,11.375,8.953,23.658,10.041.008-2.871,5.638-3.124,2.789.209,4.013-1.238,5.472-4.561,10.793-4.7,11.082,2.234,17.476,4.488,25.728,6.533,7.546-5.756,18.093-3.75,34.4-2.01,48.66,5.177,83.525,2.5,131.754,8.065-17.852-7.34-41.219-4.593-58.079-8.032,8.7-2.053,8.841-4.656,21.823-2.957.135,1.5-1.605,1.467-1.888,2.613,5.941,1.776,4.226-2.787,8.871-2.087,1.159,1.323,4.508,1.529,5.114,3.139-.317-2.872,11.513,3.013,17.274-1.455,2.131,3.59,6.011,3.066,11.008,1.76-5.11,2.6,6,1.082,3.358,4.851,1.819-1.66,3.364-3.5,8.909-2.107-4.62,2.383-4.1,3.356-12.032,3.693,15.427,5.057,33.37,12.872,54.418,12.355.31-3.641,4.574-1.267,10.623-3.776,3.487,3.949,12.243,5.215,19.987,6.988,4.839-6.708,18.837-5.631,31.755-3.1-2.112,3.25,2.4,3.121,3.344,4.826,29.941,4.889,60,2.692,83.9,6.311,3.552-1.39,2.316-5.334,9.555-5.7-51.7-9.675-95.815-7.579-147.374-15.681l.836-4.535c15.3,1.036,42.17-1.052,52.794,5.815,3.624-2.948,13.866-.451,17.61-3.274-13.695-5.557-43.853-2.714-58.061-8.03.571-2.315,5.711-.877,6.281-3.191,49,4.875,110.723,8.793,166.04,14.307,10.752,1.088,25.384,2.634,32.564,7.957.518-2.807,2.8-2.006,7.649-3.088-8.343-3.894-27.03-1.823-33.949-8.061,5.082-1.182,9.615,2.567,12.915-.873,2.769,5.693,19.56,4.224,26.948,7.534-.409,1.044-2.662.571-4.362.606-.281,2.593,5.543,2.074,9.472,2.556-.264-1.793-5.3-1.145-3.524-3.952,6.454,2.329,23.5,2.117,19.967,7.01,2.909.639,2.9-1.089,3.308-2.506,6.663,4.025-6.822,4.178-8.573.289-3.866.737,5.436,1.483,1.957,4.721,1.95.661,7.445-.513,6.837,1.425,4.35-2.1,6.62-4.94,7.1-7.727,3.869,1.878,7.14.257,9.6,1.655-.74,1.368-2.305-.99-2.956.688,2.423,3.566,3.61-2.482,7.336-1.292,2.549,1.71,2.853,4.556,4.409,6.774-4.194-1.693-12.265-1.39-16.439-3.08-1.6.556.323,3.524-4.861,3.3,1.063,4.118,9.229-2.269,7.718,4.268-32.7-5.447-75.488-10.041-108.23-12.738,19.213,6.114,62.969,7.3,80.663,16.172,4.286-.283-.975-2.033.666-3.613,4.488-.106,2.654,3,8.056,2.427-.124,1.647-2.058,1.782-2.073,3.53,24.415,7.7,56.148,9.311,74.57,18.446,1.528-.469,1.838-1.962,4.524-1.481-.438,6.969,13.108,3.063,11.431,7.278,2.73.532,4.4.145,4.511-1.5,3.8,1.547-.26,3.856,6.165,5.062-.426,1.041-2.7.568-4.36.583,7.02,5.989,28.288,4.671,31.709,12.49-18.966-2.85-37.137-9.725-55.483-14.278-.561,7.145,26.5,7.243,34.517,12.7-.507,4.022-8.14-1.966-10.291,1.979,9.49,8.229,38.943,8.344,52.2,16.785,3.3.272,4.411-1.255,8.551-.267,15.849,8.824,40.162,13.36,58.512,20.925-10.9.557-23.439-5.567-36.588-9.193-18.772-5.17-36.745-9.321-56.706-15.281-8.077-2.4-15.136-7.7-24.678-4.61.193,3.748,1.622,6.843,5.5,8.676-29.905-9.577-74.157-18.927-117.4-24.444,4.255-3.833,3.653-5.257,9.883-7.494,14.531,2.4,24.887,7.683,37.743,2.839-51.668-11.332-114.981-13.153-166.267-20.79-1.358,3.164,4.545,2.606,3.209,5.749-12.857,2.6-38.4-3.751-51.076-7.5-.511-2.512,3.217-1.531,4.692-2.4-1.656-2.155-8.086-1.868-10.674-3.556,3-3.462,15.392.83,20.064-1.245-8.906-8.768-31.49-3.232-48.27-7.294-10.878-2.662-27.91-3.1-40.38-3.971-14.994-1.035-31.56-3.331-41.549,2.383,2.015,2.251,7.471,2.756,12.1,3.663-5.782,3.113-19.6,1.863-25.179-1.894-17.276-1.368-31.753-1.314-49.419-.962-.469-1.95-3.007-2.84-1.807-5.643-21.782-3.016-45.562-2.727-70.237-3.439-4.416-9.761-21.919-4.73-34.635-4.448-8.436-8.663-31.126-8.129-49.49-8.3-4.482.759,1.408,3.606-2.234,4.406l-7-.527c-16.991-11.033-51.955-.594-79.51-6.89,1.131,3.236,10.9,2.056,10.174,6.272-10.04,2.279-14.415-5.354-21.721-5.3,1.239,6.465,14.829,6.623,23.846,9.123,5.323-1.514,9.479-4.025,13.913-6.282,23.253-.469,34.759,14.61,52.128,9.428-.263,3.084.582,4.945,6.169,5.038-3.14,3.544-.448,5.754,4.927,4.058-4.67-1.448-1.582-6.863-3.926-9.49,2.2-.021,6.465-2.431,10.6-3.777,15.1,5.034,32.577,3.874,46.547,9.008-1.367,2.348-5.635,2.33-7.813,3.986,12.74,3.012,27.123,9.625,36.354,2.735,37.369-1.11,67.486,6.64,102.047,7.674,14.027.426,26.283,4.8,40.061,5.792,26.715,1.868,63.528,3.189,107.814,7.174,20.5,1.846,38.079,1.208,52.476,7.634,3.433.143.84-2.994-.92-2.822,4.593-2.83,8.56,5.941,15.223,2.054,7.869,7.734,33.8,2.519,39.216,10.277-5.76,1.342-12.347-3.683-17.109.557-8.244-5.218-15.856-4.483-29.189-3.105,2.232-1.162,1.6-2.8-2.307-2.927-1.129.359,2.5,5.228,5.982,5.958,3.309.623,0-4.178,4.694-2.4-2.717,6.237,7.6.921,6,5.959.9-2.056,6.27-.392,6.264-3.194,1.346,2.856,9.423,4.886,11.175.841,4.364,3.408,7.849,4.044,14.7,4.771,2.168-.234-.317-1.214.5-2.717,32.762,10.8,85.873,10.869,123.67,21.227-13.142-1.316-30.395-4.667-47.183-5.37,12.076,3.2,31.351,6.91,47.75,10.009,8.267,1.579,21.406,3.407,25.179,1.893,8.64,3.755,17.764,3.811,29.019,4.027,3.327,2.375-4.159,2.137-.836,4.535,7.4-1.427,13.668,2.382,13.319,4.666-4.241,3.158-10.648-1.851-16.957-.365,10.933,6.167,31.631,7.35,46.047,11.725,3.073-.936,2.392-4.954,6.6-5.011,4.9,4.779,13.588,4.172,24.159,7.324-.135,2-5.033.042-7.154.4-.737,5.079,7.96,2.466,9.791.736,21.352,5.364,26.845,14.156,53.751,15.969-.9,3.2,6.225,2.288,4.6,5.853-8.346-1.538-23.648-9.62-30.424-4.132-3.739-2.194-10.044-3.065-14.721-4.771,1.947,4.884,13.785,8.295,21.689,5.3a4.069,4.069,0,0,0-1.892,2.635c36.235,4.849,63.027,21.148,105.543,27.215-10.876-4.528-28.4-7.877-31.859-11.591-14.158-1.579-34.123-9.078-46.616-16.365,46.8,11.058,93.443,30.412,137.271,39.707.013,1.588-2.813,2.169-.5,2.716-19.053-4.723-37.577-9.781-61.421-12.858,9.753,4.748,19,4.837,28.04,9.437,4.974.281-2.416-3.215,1.887-2.613,7.376,1.419,6.436,7.113,15.619,7.617-9.081,1.09-24.676-2.953-34.114-7.164-45.416-7.429-91.7-20.6-140.006-32.584-5.876-1.446-14.372.856-15.943-5.773,2.6.569,2.065,2.77,6.648,2.343,2.182-6.067-10.916-6.749-15.768-6.717a62.237,62.237,0,0,1,7.552,5.166c-14.453,3.441-21.39-1.049-36.856-.019,2.591,4.42,13.733,4.465,13.715,10.228-5.254-.326-11.443-.184-9.121-4.374-6.7,1.479-23.487.171-19.684,6.8-41.607-11.67-108.488-20.9-161.254-25.01-13.7-1.052-26.975-4.759-37.175,1.8-8.388-1.308-12.89.547-19.917.346-.118-1.5,1.622-1.465,1.905-2.611-4.235-.971-6.958,4.612-10.126,1.083,3.858-5.871,18.391.8,28.974-3.352-66.9-5.708-133.056-14.092-201.843-12.4-15.176-4.852-43.238,1.182-62.349-.114-20.925-1.411-42.228-5.954-65.226-7.66-56.567-4.207-118.555-8.03-159.1-21.137,3.576-1.225,8.783-1.136,13.08-1.771l.837-4.534c-17.036-5.412-37.718-1.2-55.084-8.741,6.673-1.2,22.11.168,24.827,3.711,5.469-4.56,23.538,2.284,34.047-.194,2.375-10.627,39.024-4.02,51.341-1.646-.718,1.16-2.732,1.241-3.308,2.506.32,2.568,4.953,2.939,7.738,4.245,3.207-.482,4.064-2.892,6.412-4.092-5.549-3.708-15.825-5.041-17.892-10.541-42.938-1.62-104.406-8.552-142.062-6.088-2.188.629-5.534.308-4.861,3.3-12.072-.092-15.7-2.371-23.928-.866-5.828-6.88-32.6-7.634-44.741-3.365-41.554-2.379-75.741-7.984-112.855-2.981,6.7,3.306,21.115.772,24.158,7.326-17.743,1.652-40.133-2.365-57.841-1.6,33.861,3.364,87.213,5.369,127.1,10.469-19.664,2.979-40.635-1.795-66.382-1.305,7.332,3.329,20.065,3.937,28.505,6.718-46.536,2.264-105.791-.067-158.416-1.809-49.816-1.646-96.813,3.9-148.424,5.36-20.7.591-43.634,3.907-64.923,6.134-81.379,8.512-166.135,15.814-249.717,24.371-18.7,1.931-34.572,4.5-56.206,4.969-28.375.6-55.689,4.33-83.1,4.764-23.329.393-45.639.139-68.28,1.284-37.154,1.9-73.522,10.27-112.574,10.833-22.053.3-43.839,4.054-66.139,5.107-4.874-.53-5.148,2.717-9.057,3.006-4.425.344-2.244-2.689-6.649-2.344-17.574,1.62-31.394-2.873-42.689-6.874-.783,1.505.768,1.784,2.477,2.006-3.473,2.517-4.733-2.969-7.888-3.346q-18.958-.937-25.612,8.179c-.717-2.365-6.027-2.39-10.862-2.638-3.471.253-3.739,3.174-5.2,5.118,5.651,2.573,9.4,4.208,20.467,4.293-3.658,3.226-16.085-.7-16.537,5.174-7.345-8.533-28.8.168-37.522,3.6.974-1.281,2.5-2.123,3.455-3.4-4.142-.988-4.392,1.257-8.539.291.386-2.677-2.592-3.625-4.761-4.954q-18.554,1.4-25.041,12.8c-3.359-2.493,3.081-5.767,1.833-9.945-26.716-1.963-37.559,3.5-55.316,7.766.934,1.68,4.628,3.521-1.887,2.613.448,3.043,1.175,5.945,1.123,9.255-5.83-1.115-3.244-6.545-6.885-8.779l-8.387-.631c5.174-3.438-6.316-4.045-4.078-8.569-6.8-.722-9.742,1.741-15.889,1.559,4.833-4.607,10.619-5.993,16.324-11.632,12.363,8.281,26.782-3.773,36.767-7.317-3.168-1.873-9.532,2.55-17.086.535-3.672.471-2.851,4.616-5.382,6.037-11.563,2.327-21.288-5.709-29.686-.413-3.941-3.54,4.974-2.846,4.141-7.016-2.633-9.954-14.77-2.558-20.267,2.14,3.489.425,3.785-1.77,6.116-2.295,3.438,3.246-6.086,4.677-10.792,4.7,1.95-6.668.618-8.424-3.259-13.1,2.526.377,11.484.84,13.581-4.487-2.76-1.048-6.62-.73-10.84-2.659,2.867-4.312,3.48-7.929-2.861-7.542,6.329-.715,3.906-3.207,2.558-6.25,5.567-.981,11.5-1.679,14.985-4.38-3.052-1.024-9.678,1.582-12.245-2.764,4.411-3.309,10.19-5.535,9.487-13.056.283-2.312-4.342-2.147-8.051-2.449,6.463-6.422,10.773-8.992,14.681-18.173-7.685,4.463-15.982.408-28.12-1.181,7.437-2.219,19.211-.913,28.617-1.512,4.983-2.892,2.558-11.826,9.509-13.077-.38,3.823-3.045,4.112-1.337,7.252,18.373-1.933,17.557-15.694,17.941-28.033-10.545-2.894-9.726,5.755-20.6,3.958,5.434-4.936,13.712-7.534,20.534-11.316,1.292-4.756-5.71-5.283-6.884-8.779-1.677.015-1.5,1.569-1.9,2.612-4.662.466-1.412-3.094-3.527-3.929-3.664.822-8.47.692-12.915.872-2.062-2.792-6.1-4.543-3.943-9.492-1.4-2.09-5.1,2.674-10.108,1.083,6.649-8.812,10.97-13.575,20.278-17.752-4.142,1.463-26.61,1.289-26.663,6.256.082-2.4-33.334-2.015-22.872,1.035-2.437,2.571-6.883-2.431-9.955.161-2.533,3.869,6,4.208,1.641,6.542-10-2.456-16.087-2.75-22.39-1.684.031,1.1,2.414.975,4.041,1.237-2.852,3.847-8.739-.376-12.581-.947.653-1.187,3.641-.5,5.751-.5-2.713-1.605-4.609-3.638-7.556-5.144-4.677.349-4.279,4.836-6.912,6.809-.233-1.279.584-11.369-8.458-7.965-1.184,3.878,7.336,2.815,5.817,6.856-5.4.573-3.566-2.555-8.069-2.451,3.444,6.724,18.742,7.384,18.311,16.081-10.223-1.329-7.594-9.229-21.035-8.934-4.493-4.352-.462-11.563-10.743-10.913-.522-1.369,2.5-4.55-.571-4.617,3.673-2.921,12.081-1.915,11.461-8.333-9.8.663-13.925,2.64-19.414-2.371,6.014.99,15.751-2.572,22.723-.134,4-3.037,2.678-5.142,1.667-9.047-8.808-1.665-8.773,3.916-16.224,3.378-.687-6.727-1.576-11.671,7.2-16.006-.083-1.312-4.121-.613-3.863-2.111-7.242.2-.729,6.107-8.332,6.7-.031-3.153,1.5-5.022,2.753-7.121-5.547.189-4.993-.376-8.57.266-.556,3.015,3.98,3.427,3.025,6.646-9.68-6.12-17.471-8.62-17.8-18.772,5.652-2.025,8.363-.024,16.94.363.353,2.477-5.181,5.328-1.333,7.229,3.3-3.065,6.832-5.787,6.2-10.55,4.161.99,5.27-.537,8.572-.265-4.5-4.82-11.525-8.335-14.454-13.947-4.059-.562-5.858,3.246-7-.527,41.416-7.808-2.182-33.8,18.993-49.076-6.156.074-2.843-4.017-.066-7.356,3.99-.05,5.188,4.59,5.745-.479,3.062-.189,2.446,1.491,2.306,2.927a13.629,13.629,0,0,1,7.167-.371c-4.313-4.853,14.014-4.688,21.048-6.678-.923-1.447-4.236-1.649-6.649-2.344.927-2.381,4.087-2.913,5.212-5.115-9.695-1.547-18.968,5.854-32.095,4.937.331,3.969-8.595,4.114-7.784,11.341-6.006-2.505-1.512-4.595.117-8.254-3.47-1.894-3.434,3.779-4.358.583,2.9,3.906-10.525,5.58-14.606,9.94,1.3,4.066,3.306-.731,8.4.632.37,3.762-3.741,3.873-6.594,4.989-2.221,4.71,6.863,3.62,7.215,6.984-2.5.373-.682,4.29-3.626,4.326-7.238-.126-4.587-5.318-7.067-7.884-7.3.782-10.081-3.465-13.8-1.947.568,2.492,10.323,7.917,2.526,9.361,2.547,1.428,4.974,2.918,3.025,6.646,5.452,1.017,6.075-1.969,11.527-.953-8.878,1.736-12,8.223-20.364,10.394,2.078,3.867,3.267,8.181,12.665,8.3-4.574,3.507,2.347,6.034,5.982,5.958-2.685,6.847,7.223,7.242,7.6,12.5a41.511,41.511,0,0,0-8.039-2.425c-1.091,2.112-.021,5.3,1.123,9.257-4.983-1.308-6.539-7.727-3.76-10.388-9.5-5.523-11.368-14.951-18.7-21.595-4.332,3.852,3.708,7.632-3.408,10.76-17.982-3.1-10.883-19.046-22.206-25.545,2.489-9.009-5.434-20.457,11.661-24.842-1.515-.581-4.559-.973-4.93-4.034,1.345-3.773,7.815-3.31,9.723-6.621,2.865.5-2.532,2.307,2.291,2.927-.8-6.128-8.926-8.559-10.061-14.526,3.922-.359,2.477,2.006,5.246,2.239,3.548-14.46,13.265-23.882,25.589-31.123-2.612-3.417-5.347,1.745-9.955.161.473-5.985-4.645-9.1-9-12.627,1.859-1.679,7.294,1.67,12.579.947-1.436-5.008-11.964-5.357-7.457-13.4,5.059.613,5.5,5.338,8.388.631,2.18,1.075.221,4.265,3.361,4.827,6.367-3.559-7.833-7.054-.786-11.075-1.679-1.06-4.992-1.262-6.671-2.322-3.273-.62.022,4.18-4.693,2.4.674-3.077,1.611-6.3-1.454-7.461-4.236.989,2.881,5.188-1.167,6.33-1.619-.891-2.3-6.357-4.932-4.034,4.684-8.889-13.792-16.067-6.5-26.207,2.614.57.434,3.6,5.078,3.135,5.676-3.33,8.756-8.793,11.244-14.767-8.879-1.182-17.791,7.974-28.087,6.172,5.529-3.808,13.344-5.741,16.321-11.631,4.027-.444,10.361,5.657,15.388,1.157,3.178,1.919,4.2,4.959,7.221,6.96,17.245.27,22.319-9.477,32.528-15.011,1.519,6.323-15.5,13.888-13.466,19.2,2.444,2.284,5.427-3.839,10.457-2.877-5.389,3.912-12.354,6.516-16.319,11.608,15.019-1.927,21.693-10.667,35.167-13.878-2.738,4.392-13.481,11.168-19.949,15.956,1,1.687,4,2.333,8.057,2.427-4.866,1.571-5.413,6.687-8.843,9.463.2,2.908,8.74,1.545,7.573,5.144-1.618,3.893-9.383,2.725-11.128,6.514,6.956,1.947,9.625-3.056,14.151.154,1.969-2.768.591-5.065,5.528-6.935.836-3.158-4.173-3.348-4.595-5.854,2.029-5.145,20.428-15.524,10.824-20.307,4.48-.946.139-2.6,4.883-3.321,3.388,8.1,2.971,18.473-3.775,28.188,7.123-.047,13.029-1.1,12.679-7.308,12.64,1.79,12.763-4.246,23.69-5.57-.386-4.161-4.888-6.226-8.27-8.885,13.483-8.25-5.473-21.228-20.588-18.981,5.8-9.157-2.634-12.59-8.019-18.061l-5.6-.421c-5.28.886-3.08,7.914-8.674,8.543-4.391-.214-4.351-2.685-4.744-4.954.034-2.425,3.348-2.129,6.081-2.3-12.156-6.864-18.139,8.484-25.022,12.8-2.524-4.88,5.493-10.065,9.487-13.056-6.966-3.161-7.282,4.517-12.178,4.591-.543-3.214,2.267-3.7,3.79-5.222-2.431-.393-7.169.394-5.244-2.238,7.3.781,10.168-2.083,13.56-4.465,4.287,5.083,12.814-.227,17.275-1.455-2.812-3.9-10.492-.648-14.3.745-1.137-1.065-5.12-.666-3.694-3.032-20.191,8.191-43.583-5.634-34.588-20.035,4.445-.366,2.23,2.665,6.671,2.323,8.444-1.536,6.125-6.541,9.152-11.238-2.106-3.332-8.347,4.135-10.123,1.06,5.846-4.927,15.195-6.979,23.138-10.187-3.922-6.2-6.429-13.108-9.059-19.958,2.8-2.567,8.1-3.077,12.18-4.591.41,4.419,21.027.462,28.3.285-.489-2.231-8.626-.509-9.455-2.554,6.519-1.937,20.048,1.882,20.749-4.857-3-1.58-7.489,1.934-7.9-3.349-40.7,6.881-81.01,14.142-106.774,33.3,3.116-16.218,38.974-14.6,51.64-26.432,20.325-1.388,35.55-6.965,51.775-11.719,17.3,2.327,32.753-4.8,48.149-7.395-25.434,1.354-63.635,1.3-87.794,7.165-2.3-2.669,7.059-4.58,5.527-6.911,2.711-1.127,3.333-.591,2.476,2.006,14.077-4.239,26.1-4.1,42.386-6.917,3.15-.37-2.113-3.193-3.544-3.93,4.195-2.625,4.179,3.813,9.29,3.451,1.167-.075,1.573-.814,2.976-.709,1.761-5.539-9.983-4.182-6.553-10.574,7.788,3.292,12.625-2.132,17.757-4.173-1.391,3.443,2.885,4,3.045,6.647,15.4-1.245,28.017-4.8,39.91-8.924C35,2845.5,55.893,2842.871,67.478,2841.6c.64,4.832-15.2,13.864-28.169,14.428,3.095,1.68,7.4,2.75,10.509,4.455-12.081,7.68-32.487,5.8-43.388,12.35,9.06-4.2,25.276,1.365,30.544-4.144,3.58.222,1.561.817,1.051,1.923,12.87-3.863,43.839,3.857,44.674-3.991,11.181,1.891,17.359-.352,25.68-.823-1.577-2.2-9.676-1.078-13.82-1.949.793-2.833,7.751-.608,7.837-4.008-14.753-.105-37.265,2.4-51.358,1.645-1.122-3.679,4.4-2.75,5.931-1.4,9.394-3.938,23.013-5.9,36.3-4.6,73.834-14.8,153.677-24.662,233.212-34.807.863-2.34-5.289-1.122-3.527-3.93,11.654-.873,27.829,1.978,35.787-1.9-4.108,3.915,12.129-.909,21.633-2.038,17.367-2.054,34.769-2.635,51.86-4.362,44.23-4.515,101.578-10.494,152.367-11.5,91.308-1.792,189.69-10.4,271.758-20.893-10.265,7.209-35.3,2.292-44.443,10.451-4.495-1.32-4.812-.083-9.6-1.657-10.017,7.438-31.661,5.321-46.915,8.421,7.941,2.955,15.294,2.364,22.519.784,52.752-.21,102.263-11.961,155.863-14.93-31.476,10.772-83.632,10.49-123.7,17.349,137.514-10.872,275.137-30.628,433.279-28.022-1.854-3.034-6.294-1.617-11.028-1.74,25.081-11.067,84.453,6.072,107.546-6.614,16.373,4.219,43.638,9.933,66.447,8.661-2.427-2.867-14.28-.91-14.722-4.771,12.056,1.536,24.007-1.135,29.205,3.106-14.122,7.13-23.682,2.3-41.568,2.382,22.674,3.852,50.247,7.606,72.541,6.389,8.843-.479,9.66-2.168,16.962.342,7.114,2.448,18.667.564,28.115,1.2,28.259,1.892,64.6,7.635,90.722,7.733-7.14-4.948-24.019-1.83-29.591-8.643-16.87,1.508-32.2.8-48.386.958-.4-2.808-4.923-3.5-5.982-5.958,7.995-4.673,18.4-.6,28.3.285,21.463,1.918,46.363,1.5,64.49,3.94.357-9.075-21.979-.3-24.526-5.533-11.443,2.851-34.249-2.132-53.28-3.072-15.154-.767-39.268-.62-60.462-2.727-11.676-1.158-26.171-1.782-34.786-3.527-2.642-.525-3.865.341-3.693-3.031-3.866,3.373-2.815-.562-8.386-.631,34.309-.734,69.941,5.05,101.33,3.933,29.394-1.033,56.957,7.668,86.36,8.339,8.091.188,16.39-1.546,24.276-.928,24.636,1.9,47.747,9.333,74.645,10.212-14.869,2.381-40.219-2.979-62-1.91.805,4.238,13.742,2.27,17.491,5-.475,3.745-9.908.188-14.316.744,8.005,3.59,26.911,3.541,41.452,5.87,3.973-.541-1.9-3.363,2.237-4.405,5.692,1.361,4.25.693,11.175.84,4.769,9.507,16.017,3.119,26.4,2.9,10.039-.225,19.85,4.41,29.188,3.106,2.879,5.584,25.219,6.26,41.115,7.689.968-2.121-6.45.005-3.693-3.031,7.374,3.589,23.736-2.883,28.872,4.925,2.155-5.532,19.988,1.807,21.968-3.855,4.731,3.553,4.526-.314,12.583.946,5.837,0-1.519,2.172,2.141,3.824l12.581.946c3.326,2.375-4.164,2.161-.837,4.535,4.286-2.338,14.247-4.577,21.467-1.139-.926,3.852-6.008-1.711-8.717,1.165,15.663,2.3,40.039,6.4,52.959,4.916-3.659,4.02,6.66.618,9.791.736,1.184,3.053-4.642.352-3.474,3.4,14.189-2.41,66.293,9.4,100.008,11.21,6.263.331,11.721-1.428,17.11-.558,8.485,1.363,15.92,5.982,24.175,7.327C2105.863,2838.489,2134.046,2840.608,2163.248,2845.885Zm208.469,114.842c1.323,2.878,5.575,4.247,11.926,4.585C2384.25,2961.436,2375.167,2962.526,2371.717,2960.727Zm-198.688-52.587c5.037.426,6.353,2.766,10.693,3.558.757-1.763-1.552-1.937-2.306-2.927.782.059,1.735-.616.17-.921C2179.813,2911.008,2174.8,2904.983,2173.029,2908.14Zm121.119,481.052c3.678.861,2.782,4.06,7.715,4.268C2302.2,3391.035,2298.28,3386.61,2294.148,3389.191Zm-702.371-603.742c5.652-.556,16.828,3.412,18.508-.429C1602.554,2784.159,1598.436,2782.938,1591.776,2785.449Zm67.279,4.149c-13.639-1.656-28.549-5.018-40.715-2.152,34.714,3.823,55.876,5.812,95.815,10.894C1704.027,2789.271,1678.071,2791.892,1659.056,2789.6Zm194.338,14.615c-5.386.3-6.478-1.608-11.01-1.738C1840.387,2805.477,1852.484,2805.429,1853.393,2804.214Zm-100.094-2.929c15.628-1.019,21.779,4.508,36.673.914C1781.78,2800.415,1761.007,2796.519,1753.3,2801.284Zm.5-2.716c-3.689-1.281-11.728-2.726-14.149-.154C1741.941,2799.776,1752.778,2801.478,1753.8,2798.568Zm-408.774-27.99c5.77.55,10.83.558,14.317-.767C1353.863,2770.029,1350.083,2766.687,1345.026,2770.578Zm448.823,33.755c3.587-1.573,23.952,4.346,22.689-.137C1813.2,2805.183,1793.215,2800.832,1793.849,2804.333Zm26.545,2c.189.737.978,1.147,2.642,1.108,90.059,11.138,170.732,19.447,259.114,32.347,29.068,4.24,58.289,9.426,83.55,8.127-61.491-7.495-105.992-18.613-162.077-20.451,1.413-3.464-7.976-1.394-7.715-4.268-24.809-.186-42.719-3.492-72.529-6.365-2.143-.394-.608-2.076.5-2.716C1888.334,2817.064,1847.69,2803.879,1820.394,2806.33Zm-486.712-35.7c16.045-.053,3.735-2.869-5.432-1.318C1330.7,2769.43,1332.571,2769.828,1333.682,2770.635Zm-63.272-2.915c4.076,1.45,14.386.335,22.39,1.684C1289.063,2764.548,1279.805,2766.4,1270.41,2767.719Zm954.089,91.944c-.253-2.633-10.677-4.326-13.652-2.848C2216.425,2857.236,2218.9,2859.243,2224.5,2859.664Zm28.854,4.925c1.457,1.182,4.75,1.406,8.217,1.551C2262.1,2863.565,2253.509,2862.078,2253.353,2864.588Zm-676.88-49.974c-12.385-2.1-28.379-1.341-41.782-4.076C1539.612,2815.108,1565.253,2814.89,1576.473,2814.614Zm11.012,1.739c3.718.256,8.151,1.126,8.722-1.187C1593.227,2815.5,1586.773,2812.985,1587.485,2816.353Zm9.789.736c18.543,3,7.475-3.313,0,0Zm10.359,5.376c3.718.257,8.133,1.125,8.722-1.188C1613.375,2821.613,1606.9,2819.1,1607.634,2822.465Zm99.274,7.466c2-3-10.12-2.955-11.028-1.74C1699.83,2830.309,1703.381,2827.565,1706.908,2829.931Zm-386.571-25.409c-34.781-.913-72.139-2.112-101.827-1.241,1.073,2.975-2.611,2.044-3.46,3.428,3.292.223,3.817,1.873,8.2,1.526,3.39-7.843,30.857-.97,45.925-2.964-.138,1.437-.772,3.116,2.288,2.927,1.39-4.306.3,1.119,4.195.315,4.319.6-3.088-2.893,1.887-2.612,20.8,2.007,50.18,2.887,74.614,2.858C1344.776,2802.509,1331.522,2804.826,1320.336,2804.522Zm293.279,23.9c-3.74-3.853-23.73-3.7-30.594-3.211C1590.79,2826.565,1611.348,2829.676,1613.616,2828.423Zm57.323,4.312c5.763.2,13.324,1.888,15.722-.662C1681.366,2832.258,1672.538,2829.517,1670.939,2832.735Zm98.607,11.08c3.95-.217,6.263-1.816,10.292-1.98,4.649,4.784,15.368,1.856,23.592,2.685,9.69.986,22.076,7.285,26.912.2-40.074-3.575-73.953-8.2-113.093-9.417C1736.951,2841.2,1757.515,2839.6,1769.545,2843.814Zm-195.076-18.335c-3.047-1.746-15.983-2.719-19.581-1.473C1560.494,2825.362,1565.955,2824.371,1574.47,2825.479Zm-85.841,11.911,15.388,1.157,15.388,1.157,6.983.525,8.405.632c.577-1.964-4.9-.789-6.83-1.448l-8.388-.631c-62-5.106-112.193-5.894-163.75-11.381.781-1.109,2.138-1.73,4.529-1.5,4.829-.991-3.9-1.718-3.694-3.032,1.548-1.751,8.084-1.726,5.031-4.22-9.01-1.354-16.119.748-19.581-1.472,4.434-1.58,13.9,1,14.818-3.483-25.2-2.642-52.105,1.4-78.812-3.15,8.4,7.493,27.872,1.653,41.452,5.872-1.733,3.93-11.048-3-13.08,1.77,11.749,1.841,18.941-1.306,24.977,2.789-.886,1.194-9.771-1.038-6.062,2.3,5.216-.051,24.914,1.571,24.66,4.608-6.678-.618-13.137-1.057-17.128.556C1379.167,2832.611,1437.392,2835.053,1488.629,2837.39Zm-304.521-32.1c2.319,1.785,9.806,1.927,11.343-.056-1.046-.289-1.477-.882-1.052-1.922A40.41,40.41,0,0,0,1184.108,2805.291Zm793.492,63.365c-.037-2.15-2.044-3.957,1-5.431-2.115.331-7.037-1.6-7.148.372C1974.158,2864.945,1974.619,2867.429,1977.6,2868.656Zm-34.049.194c-43.645-5.594-69.06-9.138-109.781-11.944C1869.4,2861.99,1907.5,2866.045,1943.551,2868.85Zm-631.968-47.53c-14.386-1.408-41.28-2.988-51.023-.174,25.162,5.114,38.777-.047,60.3,3.625C1323.959,2818.494,1315.813,2821.731,1311.583,2821.32Zm634.592,48.637c10.78,1.044,18.552,3.635,30.423,4.132C1975.292,2869.16,1948.069,2869.166,1946.175,2869.958Zm-253.566-16.317c-23.386-5.259-62.847-6.687-89.318-7.626C1632.643,2849.995,1665.521,2851.463,1692.609,2853.64Zm-653.788-44.573c4.988.211,14.922-.908,14.486-1.665C1047.047,2806.77,1040.923,2806.262,1038.821,2809.068Zm1097.9,80.728c-4.352.256-11.835-2.057-14.15-.154C2128.3,2890.236,2133.392,2894.376,2136.723,2889.8Zm10.524,4.479c2.323-2.93-6.416-4.287-8.069-2.451C2142.01,2892.574,2142.759,2894.381,2147.246,2894.275Zm19.4,2.369a63.8,63.8,0,0,0-13.649-2.87C2153.244,2896.43,2164.23,2897.817,2166.645,2896.645Zm-1151.2-83.827c8.943.744,16.558.383,22.872-1.033C1030.63,2812.069,1021.624,2811.275,1015.449,2812.817Zm1167.3,88.7c-1.691-2.95-7.634-3.748-13.3-4.664C2170.6,2900.092,2177.084,2900.6,2182.753,2901.519Zm-620.774-46.687c22.031,2.45,48.2,5.025,72.875,4.57C1612.984,2857.642,1590.854,2855.042,1561.979,2854.832Zm95.062,7.149c6.741-.893,20.763,4.642,29.539,1.311C1678.171,2862.194,1665.2,2858.954,1657.041,2861.981ZM1379.367,2845.7c9.234.437,27.818.178,35.287.81-10.217-5.46-26.515-4.913-45.628-6.186-20.166-1.33-61.6-1.645-82.1-.667,17.216,3.07,44.85,1.017,61.013,7.344,1.036-3.47,16.1-2.99,15.388,1.157C1372.787,2843.66,1374.678,2850.711,1379.367,2845.7Zm318.054,20.255c4.353-.256,11.835,2.058,14.154.131C1708.841,2865.574,1698.325,2862.123,1697.421,2865.951Zm-278.409-20.028c-.656,4.642,8.114-.323,9.455,2.555C1428.926,2844.918,1422.7,2845.361,1419.012,2845.923Zm785.441,60.916c-1.118.1-2.759-.184-2.955.689,1.85.418,2.428,1.49,5.431,1.317l.666-3.613c-1.677.013-3.933-.459-4.36.583C2204.058,2905.946,2204.863,2906.077,2204.453,2906.839ZM1808.127,2880.7c3.424-.3,9.915,1.914,11.345-.08C1817.168,2878.855,1809.646,2878.71,1808.127,2880.7Zm-863.68-59.448c-2.533,3.964,7.385-1.078,8.05,2.45-13.825,1.5-30.842.387-40.648,5.2,24.561-.229,34.95-1.853,54.3-2.335,2.964-.057-1.626-2.62,3.295-2.529,17.021,1.77,41.193.53,55.868-3.151C996.522,2822.549,970.948,2816.752,944.448,2821.247Zm326.927,18.146-9.772-.735c-11.222.184-23.741-.712-34.073.215C1237.825,2840.885,1257.259,2840.222,1271.375,2839.394Zm574.475,44.139c3.068,3.1,17.293,4.8,23.441,3.606C1859.3,2884.171,1855.247,2882.886,1845.85,2883.533Zm59.629,7.239c-1.046-.289-1.477-.881-1.067-1.924-4.276-.461-8.285,1.548-11.177-.841C1892.922,2891.95,1900.992,2891.462,1905.479,2890.772Zm-317.723-22.052c-3.338-1.931-4.282.075-8.2-1.55C1577.032,2869.92,1587.485,2870.1,1587.756,2868.719ZM2207,2916.2c-1.147-1.393-8.209-3.932-11.029-1.74C2198.768,2915,2204.562,2918.167,2207,2916.2Zm-608.376-44.844c6.151-.729,10.556,3.617,12.746.048C1604.229,2871.126,1601.777,2868.4,1598.62,2871.358Zm270.906,22.218c-6.2-2.637-21.045-2.517-25.013-2.792C1851.27,2893.416,1865.137,2895.789,1869.526,2893.576Zm27.969,2.1c-7-2.02-22.161-5.167-25.514-.076C1881.492,2897.953,1895.414,2896.316,1897.494,2895.679ZM855.012,2821.872c4.628.3,9.828,1.114,10.292-1.98C861.011,2819.826,855.791,2819.014,855.012,2821.872Zm-5.129,12.474c11.257-1.743,28.476,1.209,37.692-4.516-9.533-2.234-15.638,3.817-22.7.113l.5-2.718c11-1.039,24.505-.023,31.925-4.016-13.395.93-24.134-2.376-34.218,1.114-18.352-1.007-33.062,5.986-45.19,6.683-1.184,2.806,3.047,2.82,4.932,4.035,7.675-6.751,29.089-6.517,34.378-1.988C853.781,2832.656,850.444,2832.381,849.883,2834.346Zm1334.644,88.428c4.539-.2,3.986,2.026,6.984.525l.5-2.717C2188.422,2920.406,2186.8,2921.871,2184.526,2922.774Zm-40.428,11.639c-5.7-5.82-26.34-8.4-38.148-8.354,14.374,2.365,7.742,4.713,22.021,3.478,1.855.7-.429,3.513,2.142,3.824C2132.167,2927.892,2143.586,2933.767,2144.1,2934.413Zm50.219,12.063c-5.639,0-8.829-2.835-3.524-3.952-14.164-2.605-30.075-8.658-43.74-8.8.845.11,1.627.263,1.221,1-.848.006-1.666.038-1.556.816,12.339,1.372,15.679,3.491,27.633,3.922.12,2.671,2.174,4.341,6.169,5.039.2-1.549,1.491-2.221,3.272-2.507C2183.686,2944.625,2194.393,2949.188,2194.318,2946.476Zm-573.141-51.391a35.552,35.552,0,0,1-13.982-1.052C1607.8,2898.256,1617.695,2896.877,1621.177,2895.084Zm199.619,16.857c5.261,2.449,11.593,2.691,18.159,1.365a3.973,3.973,0,0,1-1.9,2.612c11.81-.349,21.168,3.225,30.923,1.415C1856.33,2911.02,1836.849,2912.519,1820.8,2911.942Zm59.277,9.056c37.813.3,57.866,11.33,96.3,8.152,3.007,2.351,17.163,5.889,25.008,2.816-43.058-10.544-89.271-13.646-132.169-13.628C1875.063,2919.828,1878.615,2918.251,1880.072,2921Zm132.156,13.6c5.731,2.135,14.4,2.833,22.371,1.683C2027.489,2935.865,2019.118,2932.411,2012.228,2934.6Zm90.216,10.473c2.069.319,5.212.066,5.416,1.318-4.194,1.341-10.874-1.7-16.609-2.16.166,7.014,18.23,4.9,25.4,8.328-1.518-2.915.622-4.644,6.429-4.09C2126.6,2939.608,2107.959,2943.5,2102.444,2945.073Zm-283.436-15.81c24.073,2.51,47.984,8.65,67.447,3.229C1859.3,2933.485,1839.211,2921.8,1819.008,2929.263Zm88.916,2.091c-8.653,1.4-10.982,3.187-20.063,1.244,4.791,4.4,17.292,3.332,21.852,4.4,15.418,3.633,36.579,6.206,56.656,7.926,18.366,1.615,40.365,6,55.767,5.127,1.76,5.5,28.586,9.1,37.4,4.657-5.667-1.313-6.911-.123-10.84-2.659,2.407.227,3.7-.422,4.527-1.5-23.209-2.026-50.326-10.016-70.806-8.08.969-6.135-19.924,1.467-30.256-5.03,1.12-.125,2.757.184,2.972-.686-12.244.06-19.444-4.659-29.556-1.313,4.187-3.07-3.383-1-5.58-.42,3.316-3.135-13.5-3.979-11.177-.841C1908.951,2933.018,1907.261,2932.8,1907.924,2931.354Zm128.127,12.389c30.546,4.258,68.8,14.161,85.359,13.772C2101.89,2950.913,2061.349,2944.409,2036.051,2943.743Zm143.182,15.367c4.662.7,12.874,3.559,14.32-.767C2188.612,2958.461,2180.525,2956.01,2179.233,2959.11Zm-51.676,3.464c-23.559-5.014-47.786-8.937-65.375-6.76,39.9,7.739,85.425,12.634,126.8,19.619C2171.666,2969.37,2148.242,2966.955,2127.557,2962.574Zm44.911,2.445c7.859,1.245,8.262-.941.165-.9-12.561-2.414-27.05-6.888-35.118-1.73C2150.083,2964.292,2162.15,2961.677,2172.468,2965.019Zm-332.757-25.026c1.92,5.418,9.745,2.833,9.772.734.955,2.64,6.153,2.189,8.235,1.553-1.065-.289-1.474-.9-1.069-1.924C1849.167,2938.534,1842.424,2941.2,1839.712,2939.993Zm-20.082,1.243c5.6.189,17.144,5.117,17.275-1.455C1831.061,2940.206,1824.9,2940.373,1819.629,2941.237Zm400.939,32c-11.075-.9-21.6-6.434-31.662-5.136C2200.764,2969.644,2212.347,2974.436,2220.568,2973.235Zm-262.855-19.77c3.128-1.819,9.059,1.871,15.387,1.157C1974.337,2951.051,1953.347,2951.154,1957.713,2953.466Zm98.939,9.285c-9.538.24-19.255-2.266-22.555-.786C2040.054,2962.2,2052.887,2966.761,2056.653,2962.751Zm-224.208-14.133c-8.667-1.259-20.2-1.426-26.4-2.9C1811.264,2949.476,1825.712,2949.863,1832.445,2948.618Zm5.977,5.981c4.628.3,7.25-1.019,12.75.026-4.624-3.545-9.195-6.411-17.511-4.981C1836.639,2950.591,1836.594,2953.085,1838.422,2954.6Zm-24.973-2.811c5.473.9,19.021,1.384,11.679-1.876C1822.609,2953.993,1815.7,2948.292,1813.45,2951.788Zm292.376,21.079c6.8.628,14.8.623,19.4,2.369C2123.957,2972.619,2108.578,2969.363,2105.825,2972.867Zm-231.047-15.533c6.726.062,1.337,1.244,3.692,3.032,5.089.055,6.991-.875,11.2.842,7.584,1.269,11.226-.6,1.552-.794-1.458-1.184-4.733-1.406-8.2-1.551.025-2.472-5.6-2.055-6.335-4.141-5.573.817-12.543-1.83-18.509.429.941,2.52,12.32-.288,10.689,3.58C1872.761,2957.228,1877.4,2960.587,1874.779,2957.334Zm365.088,26.524c-7.722.072-9.806-4.168-17.993-2.264C2229.881,2981.053,2235.812,2992.468,2239.867,2983.858Zm-304.056-19.18c3.575.151,7.208.378,7.484-2.191C1940.708,2963.132,1935.786,2961.875,1935.811,2964.678Zm-18.177-1.367.335-1.819c-4.056,1.189-6.953-1.761-11.363.079l-1,5.431c15.969,1.622,42.472,7.957,60.128,4.522C1946.093,2969.395,1924.883,2970.017,1917.634,2963.311Zm1.221,1c4.085,1.591,10.451,1.65,12.928-.847C1926.4,2961.5,1923.173,2962.093,1918.855,2964.312Zm61.18,6.445c3.808.357,3.105-1.306,5.6.421a3.919,3.919,0,0,1,1.905-2.61c-1.948-.381-2.087-1.675-3.859-2.134C1980.182,2968.295,1981.989,2968.757,1980.035,2970.757Zm21.651-2.035c-2.2,1.375-18.839-.413-5.928,1.374,6.824,1,13.477,3.417,18.177,1.367C2008.626,2969.477,2005.523,2971.461,2001.685,2968.722Zm39.365,9.379c-.079,2.864-3.592-2.6-4.342.584,1.547,1.375,6.583,1.918,7.149-.373-3.041-.9-3.689-3.054-4.761-4.956-7.41.517-20.721-3.8-24.093.031,7.666.437,13.1,2.036,19.229,3.29.839-1.523-1.633-2.479.5-2.738C2033.839,2976.858,2039.459,2976.463,2041.05,2978.1Zm6.834,1.424c2.568.147,3.87,5.005,6.648,2.344-1.047-1.06,11.509-1.353,9.24-3.9,6.808,2.659,12.87,1.435,22.036,3.5-1.592,4.431,4.548,5.919,6.653,2.32-2.053-.294-5.217-.042-5.432-1.317-.145-2.533,5.363-.46,6.1-2.3-14.922-.165-22.136-3.835-34.951-2.629a3.226,3.226,0,0,1,2.456,2.029c-2.355-.714-8.408.464-8.222-1.529.392-1.441,3.7-.445,3.294-2.529-4.334.257-11.817-2.056-14.152-.131C2044.165,2977.61,2055.061,2979.2,2047.885,2979.524Zm-41.786-4.053c-14.749-1.505-22.738-1.453-36.172-3.63C1979.978,2975.071,1991.158,2980,2006.1,2975.471Zm19.251,3.268c2.32.991,3.555,3.185,6.829,1.448C2033.658,2976.565,2026.953,2976.876,2025.35,2978.74Zm153.521,20.741c-10.574-10.76-46.635-1.9-54.583-11.457-11.06-1.182-25.176-3.76-32.162-2.418-.775,1.273-1.95,1.393-.5,2.716,73.057,9.555,132.95,19.171,205.385,39.321,2.408-1.428,5.872,1.376,8.718-1.164,4.823,6.967,20.9,5.936,29.593,8.644C2294.752,3017.812,2222.51,3005,2178.871,2999.481Zm18.963,12.441c6.138.906,8.522.385,8.721-1.188,8.58,1.253,27.066,5.537,32.562,7.98-1.047-.288-1.478-.88-1.051-1.923,6.386,5.031,11.075,2.957,20.465,4.293,2.187,1.333-.96,5.413,3.193,5.748,12.372-2.126,34.861,3.018,42.336,8.692,15.368.781,34.7,12.784,48.1,8.214,1.577,1.31,1.178,3.474-.836,4.536,9.556-2.688,14.381,3.089,21.3-.242-4.08-1.123-11.417-4.9-13.812-1.972-1.727-3.538-10.741-5.267-15.039-2.952,3.91-3.533-15.827-7.281-17.845-3.184a3.593,3.593,0,0,0-.736-3.72c-41.893-11.109-85.335-21.424-133.507-29.341a3.117,3.117,0,0,0,.886,2.82c-.017.582.013,1.1,1.232,1.027C2194.618,3006.406,2206.114,3010.982,2197.835,3011.922Zm154.611,22.644c-.055-2.431-3.113-3.337-6.334-4.14C2345.393,3033.242,2349.127,3033.8,2352.446,3034.566Zm-153.256-6.928c-.807-.317-4.969-2.66-5.581-.42C2197.439,3029.607,2213.539,3028.647,2199.189,3027.638Zm12.1,3.664c2.217-2.635,4.616,1.35,8.388.631C2222.132,3028.173,2206.081,3029.626,2211.285,3031.3Zm113.308,15.873c-.771-2.462,9.925.21,5.031-4.22-3.523,5.43-13.615-3.054-16.939-.364A32.683,32.683,0,0,1,2324.593,3047.175Zm70.492,9.875c-.69-4.462-16.8-9.221-21.555-6.195C2381.527,3050.663,2386.988,3056.324,2395.085,3057.051Zm14.535,5.691c.185-3.837,4.667-.3,7.149-.373,1.624-2.469-1.539-2.5-.569-4.641-5.511,1.453-8.2-1.224-15.37-1.156C2400.5,3060.306,2407.956,3060.049,2409.621,3062.742Zm-210.794-17.7c.274,3.5,10.933,3.038,1.972,4.745,11.638,1.857,45.938,3.619,34.281,6.266,11.055,1.7,24.067,4.985,31.495,6.033-14.294,1.212-36.5-4.566-50.84-1.071,6.712.436,15.435,4.522,15.541.235,4.584,1.512,10.007,6.891,16.12,4.9-2.978-.947-7.49-1.1-7.9-3.349,6.126-1.662,7.174,2.43,10.528,4.456,20.5,3.362,43.386,7.208,64.54,11.295,1.85.116,1.572-1.491,3.124-1.609,9.722,5.8,32.875,11.738,42.671,6.874-27.741-5.774-60.95-12.869-91.32-19.728,2.28-1.229,5.784-1.478,10.119-1.058,3.238.523,2.014,3.348,6.483,3.24,19.744-2.529,27,5.135,47.049,6.293C2289.83,3062.484,2249.859,3050.935,2198.827,3045.045ZM1877.978,3024.6c-53.609-4.032-94.818-7.6-138.772-8.594,32.283,7.329,69.928,1.9,104.373,10.6,2.352-.849,3.455-2.727,7.5-2.189,26.161,2.923,49.957,9.382,72.379,7.263C1914.868,3026,1896.155,3025.968,1877.978,3024.6Zm591.254,45.377c-11.415-3.939-9.9,2.384,0,0Zm-526.045-37.72c6.3.1,9.784,1.063,6.317,4.14,7.016,2.394,13.248,1.322,16.054-2.458C1962.063,3032.185,1942.57,3030.719,1943.187,3032.259Zm360.726,27.13c-3.292-.224-3.835-1.875-8.221-1.528C2294.951,3061.189,2302.137,3061.5,2303.913,3059.389Zm180.372,13.565c-4.648.189-6.389-1.11-9.626-1.633C2474.331,3073.887,2483.593,3075.727,2484.285,3072.954Zm-245.8-4.715c2.342-2.928-6.381-4.285-8.051-2.449C2236.193,3065.054,2232.747,3069,2238.49,3068.239ZM52.813,2905.7c.267-.962,1.925-.58,1.239,1-32.217,1.592-61.165,13.791-69.1,28.784,19.224-18.275,58.306-20.26,86.54-31.136-4.326-.769-5.689.855-8.717,1.164C66.316,2900.18,47.549,2903.273,52.813,2905.7Zm2303.129,171.372c-.845-.788-7.427-2.613-8.388-.631C2350.442,3077.194,2354.587,3080.12,2355.942,3077.072ZM-31.5,2909.44c6.778.37,10.087-2.135,14.817-3.46C-23.026,2905.97-28.655,2906.6-31.5,2909.44Zm2621.88,195.369c2.505.188,7.706,3.053,9.808.738C2595.846,3105.336,2593.2,3102.081,2590.376,3104.809ZM-41.629,2910.522c-3.87-1.972-12.592-3.328-17.11.557,7.4.627,18.8,1.927,25.833-1.745C-35.017,2907.588-39.526,2909.187-41.629,2910.522Zm2186.911,163.564c-15.581-1.871-27.394-5.514-44.573-4.286C2116.427,3071.218,2128.461,3073.756,2145.281,3074.087Zm-110.619-7.409c12.2,2.341,21.371,4.571,33.214,4.342,13.753,4.162,35.344,8.7,52.292,8.531-5.784-.575-.168-.644.336-1.818-12.543.223-7.715-3.591-15.388-1.157.165-.9,1.337-1,1.74-1.713C2085.4,3073.224,2048.422,3066.125,2034.663,3066.678Zm-150.614-5.819c-8,.775,11.648,2.579,18.159,1.365C1895.113,3059.473,1886.212,3060.647,1884.049,3060.859Zm20.8,2.5c3.466-.322,9.956,1.893,11.365-.078C1913.671,3061.313,1907.156,3061.966,1904.845,3063.356Zm-1931.7-140.707c-1.769-.179-1.708-1.3-4.028-1.214-15.537,9.823-42.827,15.566-48.126,30.337,4.119-1.137,7.141-3.173,12.026-3.67-2.149,3.152-12.219,4.029-9.888,7.518,7.661-1.01,13.652-3.407,19.514-5.884,2.738,4.2,12.688,1.327,16.939.364,1.526-2.709-.812-3.421-.385-5.536,17.482-3.656,24.612-18.687,30.339-26.191A33.664,33.664,0,0,0-26.858,2922.649Zm2117.744,162.027c-15.043-2.836-39.5-3.974-55.435-6.924C2048.562,3082.263,2073.16,3085.256,2090.886,3084.677Zm28.837,4.921c3.311,2.071,13.508,1.67,14,1.053-1.066-.267-1.494-.882-1.072-1.9C2131.553,3091.678,2106.529,3086.505,2119.723,3089.6Zm94.48,18.122c-9.906-.792-17.09-6.584-24.848-3.689-3.519-2.693-18.953-3.9-9.838-8.092-9.383-.121-14.529-2.4-22.018-3.5.4,3.882,14.781,8.161,5.309,9.595,4.7,1.077,6.087-.57,8.724-1.187C2178.369,3106.168,2203.134,3106.4,2214.2,3107.72Zm-418.454-36.957c9.309.118,12.056-.306,19.416,2.371C1813.991,3068.355,1799.766,3068.032,1795.749,3070.763Zm428.576,35.9c.161,2.556-7.49-1.288-7.332,1.269,10.059,3.3,23.465,4.448,33.567,2.524-22.206-6.1-51.1-10.028-69.806-13.511C2191.254,3102.237,2212.019,3102.281,2224.325,3106.661Zm-104.371-10.6c-2.573-.4-8.825-3.044-11.194-.842C2112.607,3094.968,2117.027,3098.545,2119.954,3096.057Zm131.655,16.32c4.475,2.109,15.674,5.076,22.054,3.5C2265.337,3115.6,2259.149,3108.813,2251.609,3112.377ZM-87.62,2944.708c5.816.9,10.166-4.813,8.32-6.725C-82.322,2940.018-86.617,2941.026-87.62,2944.708Zm2469.181,185.7c4.3.791,5.821-1.57,8.369.629C2390.9,3127.637,2381.856,3126.957,2381.561,3130.412ZM-56.745,2961.733c2.865-.485,3.315-6.543-.215-6.458C-57.275,2956.792-62.731,2961.563-56.745,2961.733Zm1939.734,158.721c4.716.8,10.933,2.852,12.911-.849C1891.3,3119.656,1884.036,3117.5,1882.988,3120.454Zm28.3.309c-6.006.528-6.209-.234-12.6-.948C1896.928,3122.622,1911.979,3123.754,1911.287,3120.763Zm3.845,2.109c7.181,1.8,21.133,5.557,26.747,1.1C1930.435,3123.019,1925.086,3120.469,1915.132,3122.871Zm-369.762-1.18c1.829,1.608,7.732,1.935,7.332-1.269C1550.122,3120.741,1546.806,3120.445,1545.37,3121.691Zm-141.544-8.8,16.773,1.261C1420.975,3110.935,1404.724,3110.366,1403.826,3112.889Zm647.922,53.327c12.453.469,25.332,5.079,36.174,3.629C2076.762,3168.424,2059.115,3162.032,2051.748,3166.217ZM-.147,3023.821c3-.335,9.447,2.2,8.739-1.186C4.875,3022.379.437,3021.531-.147,3023.821Zm-10.159,16.694c5.062.683,7.951-.43,11.511-.979-.623-2.965-3.22-4.91-5.833-6.856C-5.075,3036.474-9.716,3036.825-10.306,3040.515Zm1468.083,110.413c10.111.947,14.169,3.072,22.522.759C1470.607,3150.911,1464.821,3147.209,1457.778,3150.928ZM-5.039,3042.731c-2.444,3.48,1.358,6.613,3.689,3.054-1.064-.291-2.747-.253-2.638-1.132,1.14-1.5,6.631.569,7.319-1.294-1.831-.138-.971-1.683-2.46-2C-.277,3042.505-2.423,3042.81-5.039,3042.731Zm-67.784-1.411c-4,5,3.88,10.421,5.7,15.108-2.595-.382-3.266.8-5.749.5-4.1-.914-3.131-4.414-6-5.959-.253,3.715-3,.242-5.746.479a14.093,14.093,0,0,0,1.79,5.642c5.974,1.01,13.43.241,9.454,2.555,5.047,1.36,4.4-1.957,8.723-1.187a13.089,13.089,0,0,1-10.06,8.438c0-1.749,1.933-1.884,2.075-3.531-3.378-1.116-7.8-1.263-10.126,1.083,9-1.214,1.53,9.87,10.743,10.913,1.883-1.608-.066-5.3,5.365-6.037,6.2,4.55,15.81-5.626,25.106-5.44.664-2.821-3.927-2.932-1.618-6.564a31.822,31.822,0,0,0,13.729-5.385c-6.631-2.622-4.853-9.536-13.532-11.123-1.149,1.15-3.295,1.456-5.931,1.4-.877,4.858-9.895,8.521-12.861,8.2,1.512-2.641,9.945-4.994,8.336-6.724C-59.368,3046.907-68.414,3043.589-72.823,3041.32Zm1308.678,98.425c3.718.256,8.151,1.126,8.722-1.188C1240.86,3138.3,1236.443,3137.431,1235.855,3139.745Zm400.94,32c-.856-.835-4.71.532-4.36.583,11.012,1.925,13.9,3.075,20.417-3.062-15.215.046-36.758-5.145-47.885-1.758C1614.939,3170.1,1633.593,3168.585,1636.795,3171.742ZM-2.852,3053.934c.574,8.7,17.416,3.341,22.522.76-6.214.187-5.721-3.068-10.676-3.557C9.5,3055.727-.117,3051.992-2.852,3053.934Zm1245.927,92.771,8.4.632C1252.872,3143.008,1243.808,3144.1,1243.075,3146.705Zm378.733,29.418c7.761,1.1,9.039.423,15.223,2.055C1638.764,3174.738,1618.572,3175.017,1621.808,3176.123Zm-557.231-29.982c16.889-.831,36.184,5.218,45.907-2.966C1094.354,3143.5,1076.79,3142.625,1064.577,3146.141ZM-85.735,3065.134c.51-2.763-5.5-6.411-7.555-5.142C-90.5,3061.556-90.851,3064.749-85.735,3065.134Zm59.128,9.955c5.927-.675,13.094-.369,16.22-3.355C-13.648,3065.188-30.878,3067.58-26.607,3075.089Zm-41.334,8.84A362.31,362.31,0,0,0-29.8,3069.341C-43.756,3066.1-58.278,3077.047-67.941,3083.93Zm1339,87.845c-4.319-1.4-9.217-1.7-16.94-.363.7,4.042-3.664,3.948-5.365,6.037,5.258,2.846,19.976,3.929,25.349.973-4.477-.733-12.339.286-12.267-2.744C1266.814,3172.529,1266.385,3173.874,1271.061,3171.775ZM-96.393,3084.543c9.468,1.9,16.544-7.064,7.269-8.648C-92.939,3077.638-93.778,3081.8-96.393,3084.543Zm1413.049,109.028c2.724-.215,8.2,1.854,7.318-1.293l-6.983-.525Zm-90.484-1.3a61.241,61.241,0,0,0,9.954-.161c12.664-.868-8.928-2.772-14.148-.154ZM12.721,3100.1l-5.6-.421C11.706,3104.249,18.425,3108.349,12.721,3100.1Zm1057.59,84.114c1.672-.178,21.2-.366,12.912-.85a72.174,72.174,0,0,0-8.388-.631c-17.008.4-38.959,2.111-50.768,6.265C1039.24,3189.557,1059.519,3185.388,1070.312,3184.216ZM-16.346,3111.685c6.083-.943,15.318.756,18.848-2.27-5.547.377-4.551-2.583-7.886-3.347C-6.79,3109.789-15.283,3107.68-16.346,3111.685Zm1561.094,121.071c-1.017-.939-8.564-2.6-9.773-.735C1537.462,3232.208,1542.646,3235.073,1544.748,3232.756Zm398.367,38.223c19.388-.9,46.711,8.719,65.892,4.046C1988.882,3273.768,1961.052,3267.895,1943.115,3270.979Zm-465.03-30.376c6.349.455,15.46,2.82,20.969,1.577C1493.035,3241.984,1485.856,3238.807,1478.085,3240.6ZM-91.325,3126.234c2.124,1.769,8.468,1.663,9.958-.162C-84.567,3124.081-88.941,3122.794-91.325,3126.234Zm-18.829,2.27c3.6.505,6.052.1,6.084-2.32C-107.687,3125.68-110.14,3126.078-110.154,3128.5Zm2048.091,170.559c1.046.288,2.768.23,2.642,1.108-3.4,1.658,1.16,2.888,5.08,3.136a4.431,4.431,0,0,1,2.068-3.508C1944.18,3300.091,1935.737,3296.54,1937.938,3299.063Zm33.548,2.523c-18.463-2.462-13.854,1.665,0,0Zm191.065,17.123c-19.8-5.153-11.367,4,0,0Zm-360.441-13.338c11.557-.438,14.225,3.661,21.7,5.3,3.879-2.765,4.227-2.015,11.679-1.875-1.5-5.55-14.211-1-17.494-4.979C1816.21,3308.834,1802.463,3301.313,1802.11,3305.371ZM1567.06,3288.6c-.135,3.072,5.876,3.01,10.674,3.558C1577.148,3288.895,1571.593,3287.66,1567.06,3288.6Zm26.563,2c-2.51-.165-7.687-3.052-9.791-.737C1584.866,3290.805,1592.38,3292.467,1593.623,3290.6Zm25.894,5.635c3.443.376,6.757.672,7.319-1.293-2.614-.29-.426-3.066-3.676-3.03C1622.238,3293.593,1618.863,3293.245,1619.518,3296.235Zm122.431,20.224c-15.8.679-40.2-1.319-45.144-8.9,11.712.484,19.011,2.806,23.445,3.583-4.135-1.222,3.313-1.267,3.29-2.507-9.516-2.325-16.509.719-21.852-4.4,2.241-2,9.717-2,7.484-2.191-3.977-1.4-7.332-.6-9.125-4.349-1.714,3.627-7.633-.131-7.649,3.088.08,4.161,9.26-1.077,7.7,4.266-13.151,1.368-27.2-4.1-41.935-3.154,4.162-3.514-1.635-4.6-4.407-6.773,1.446,3.984-7.275-.406-7.5,2.19,3.67,1.4,8.906,2.023,10.508,4.477-4.348-1.144-2.45,2.827-6.1,2.3-6.457-2.307-12.716.373-17.99-2.287.239-1.2,2.606-.644,3.122-1.585a184.752,184.752,0,0,0-33.733-1.627c7.9,3.091,20.536,1.87,25,2.789l-.5,2.717c-9.406-3.017-39.3-2-35.334-8.165-22.411-.006-49.079-4.181-69.17-1.514-3.807-1.337-16.68-4.312-26.229-3.817,6.4,1.951-13.544.965-1.239-1-31.2-.806-65.754-.885-105.373-5.171,28.244,2.568,48.483,12.584,71.377,12.7-1.687-.222-3.276-.5-2.458-2.006,3.554.361,6.554,1.007,8.057,2.427-1.684.036-3.955-.438-4.36.581,16.957,2.325,30.241,6.779,46.861,7.212,18.912-1.938,48.851,7.268,75,8.395.753-1.74-1.552-1.938-2.306-2.928,51.009,7.291,95.814,9.821,154.876,13.492-11.484-2.987-30.317-5.29-38.328-7.479,15.744-2.621,54.381,5.909,77.075,4.862-8.6-1.043-13.194-4.166-23.278-4.48a3.956,3.956,0,0,1,1.922-2.61c-7.517,1-12.392-2.355-14.887-3.873-2.236,2.842-13.255.848-4.195-.315-5.416-1.691-4.785,1.624-8.717,1.164.51-1.1,2.525-1.676-1.092-1.9C1723.859,3315.308,1741.539,3311.457,1741.949,3316.459Zm118.388-3.956c-3.772-1.521-12.614-4.962-20.633-3.4C1846.6,3309.7,1852.545,3315.091,1860.337,3312.5Zm-250.1-19.744c-10.188-4.547-10.714,2.812,0,0Zm65.056,8.581c-1.3-2.921-10.457-6.107-14.717-4.794C1666.7,3297.52,1668.566,3300.67,1675.288,3301.34Zm213.017,13.267c-1.587-1.66-7.87-.9-9.455-2.555C1878.513,3314.758,1886.147,3318.108,1888.305,3314.606Zm10.84,2.659c5.9-1.423,12.532,2.086,17.279-1.477C1913.671,3315.487,1900.4,3311.362,1899.146,3317.265Zm39.815-.693c-4.73-.425-9.686-1.008-11.51.978,3.919,2.092,10.2,2.985,17.841,3.186C1947.114,3315.739,1933.39,3319.725,1938.961,3316.572Zm-206.2-11.821c10.8-.167,16.274,4.164,30.108,5.929-.887-3.1-2.889-5.632-8.8-6.171-4.251,3.906-8.565-1.437-13.8-1.97C1740.242,3307.648,1732.4,3299.847,1732.758,3304.751ZM1961.9,3322.9c-.27-1.771.2-3.952-3.524-3.953C1955.327,3320.44,1956.771,3323.257,1961.9,3322.9Zm25.177,1.894c-4.679.466-1.429-3.094-3.522-3.952-7.964-.786-13.8,1.74-19.581-1.473C1963.881,3324.468,1980.229,3324.414,1987.078,3324.789Zm-98.873-1.929c2.7-2.713,7.486,2.1,12.246,2.765-.868-4.476-6.686-6.431-12.647-8.3C1888.31,3318.971,1885.135,3322.514,1888.205,3322.86Zm210.443,19.515c1.118,3.514,4.8,5.73,11.6,6.357C2106.758,3345.389,2106.912,3341.62,2098.648,3342.375ZM-17.622,3187.788c1.863-2.288,10.2.7,9.218-3.882C-11.913,3184.179-21.075,3185.217-17.622,3187.788ZM2051.839,3342.5c5.973,2.293,18.005,6.023,24.992,2.814-.771,1.248-1.934,1.395-.5,2.715,3.9-.267,10.893,1.987,12.762.049-2.99-.877-3.869-4.608-1.787-5.641C2074.988,3344.26,2060.215,3337.618,2051.839,3342.5Zm-2086.851-145c-3.225-.779-6.125-1.766-11.012-1.738-5.528,1.544-5.014,8.14-6.2,10.549,7.143-3.476,21.229-11.379,29.635-6.942-10.361,2.255-18.6,6.278-28.568,8.866-.531,4.254,3.039,3.262.071,7.333,4.131.078,3.906,2.371,8.052,2.45,1.159-3.064-3.693-3.032-4.761-4.957,4.09-7.043,18.861-5.372,29.637-6.942,1.275-4.48-6.991,2.344-6.648-2.344,4.03-1.728,5.11-1.927,8.887-2.086-2.893-5.516,12.655-8.546,9.656-13.977C-17.1,3189.927-27.3,3192.707-35.012,3197.495ZM1565.739,3318.82c8.423,2.687,14.743,1.435,23.446,3.583,28.019-6.784,70.574,7.174,95.729,3.536-31.29-7.044-87.848-6.607-141.21-10.62-13.681-1.029-28.571-5.581-40.884-1.231C1532.759,3314.5,1545.018,3322.745,1565.739,3318.82Zm633.207,48.532c-2.27-1.361-9.1-4.581-12.263-2.766C2186.766,3367.067,2195.205,3369.475,2198.946,3367.352Zm61.8,18.418c-16.342-4.777-38.542-10.9-58.945-10.851C2217.07,3377.7,2243.067,3384.441,2260.748,3385.77Zm-1.5,8.149c-12.6.149-20.741-6.322-31.809-4.236C2239.561,3390.664,2255.713,3398.134,2259.246,3393.919Zm-24.777,3.643c-5.119.9-8.471-3.2-11.177-.84C2226.563,3397.458,2231.864,3401.334,2234.469,3397.562Zm15.052,2.976c5.979.5,10.033,1.969,15.036,2.975-1.588-4.484-17.883-6.293-17.49-5C2248.752,3398.754,2250.322,3399.035,2249.521,3400.539ZM109.128,3284.557c9.144,3.163,1.478,9.961,7.287,14.319-3.3,2.482-5.673,5.758-13.581,4.486.173-3.091-1.263-5.369.263-9.153,4.037.188,6.857-.65,6.432-4.113-4.771-.1-8.294.823-14.132-.154.078,5.934-11.716,11.768-4.076,14.4,2.038-3.534,3.33-7.707,9.892-7.54-.328,5.3-7.714,4.81-8.822,9.442,14.516,4.616,32.274-.816,41.3-8.82-4.014-1.282-1.828-5.132-.047-7.354-3.225-1.083-6.465-2.167-9.29-3.453-2.689-5.056,1.392-10.584,9-10.338C123.207,3273.364,111.171,3277.384,109.128,3284.557Zm3.5,81.061a27,27,0,0,0,13.73-5.386C119.968,3360.522,114.713,3361.76,112.632,3365.619Zm-8.454,14.977c8.144,1.452,11.887-.67,18.513-.451-.113-3.486-5.218-4.43-10.342-5.376C111.773,3378.483,105.693,3377.652,104.178,3380.6Zm1.976,4.722c3.959,1,1.814,5.107,7.55,5.166,4.816-.222,5.28-4.014,5.7-7.833C113.984,3382.709,108.721,3382.92,106.154,3385.318ZM88.9,3409.739c2.03.316.876,2.284.737,3.72,10.653.941,9.971-4.152,8.316-6.7C97.5,3409.849,89.345,3406.622,88.9,3409.739Zm2337.892-401.717c-.993-3.015-18.555-5.479-17.677-4.083C2415.323,3005.128,2421.81,3006.2,2426.789,3008.021Zm148.062,35.01c-.6-3.8-7.062-4.591-13.148-5.586C2560.947,3041.939,2571.629,3040.572,2574.85,3043.031Z" transform="translate(146.3 -2757.13)" fill="#9b9b9b"/>
</svg>
