<svg xmlns="http://www.w3.org/2000/svg" width="870.454" height="633.658" viewBox="0 0 870.454 633.658">
  <path id="Path_24863" data-name="Path 24863" d="M1061.7,5316.685c.3-.507.578-1.04.878-1.538,1.4-2.319.123-6.537-1.338-6.741a11.061,11.061,0,0,1-1.908-.472c-2.084-5.1-5.175-8.29-9.479-8.506a48.046,48.046,0,0,1-4.976-11.586,42.778,42.778,0,0,0,1.253-6.542l6.844-1.414c2-.412,2.367-5.754.963-7.387l2.461-1.57c1.745-1.115,1.856-6.606,0-7.615a36.32,36.32,0,0,0-9.646-3.643c-.018-.245-.047-.481-.085-.713l3.727-2.167,1.041-.372c.551-.2.913-.889,1.124-1.768.73-2.134.551-5.765-.932-6.191q-.986-.283-1.974-.569a7.753,7.753,0,0,0-.284-5.309l.344-.2c1.991-1.144,1.682-8.156-.5-7.754q-2.563.469-5.127.942c0-.121-.013-.237-.018-.357.7-2.079.418-5.535-.985-6.163a46.244,46.244,0,0,0-5.238-1.94c.372-17.192,1.01-34.375.075-49.579-3.5,10.913-1.245,34.543-3.757,47.617-1.5-1.983-2.29-2.739-3.277-2.709.515-2.472-.035-5.95-1.617-5.579l-3.07.721c-.286-3.146-.77-5.811-2.891-4.521-1.288.353-1.441,3.251-3.057,2.85-.017,1.136.027,2.128.1,3.041l-8.115,1.9q2.662-2.158,5.321-4.317c1.554-1.277,1.542-5.283.643-7.03a15.184,15.184,0,0,0,.179-2.65c-1.6-1.4-1.9.134-1.969,2.175-.541.441-1.082.845-1.622,1.25-.208-2.685-.149-5.14-.289-12.208-5.866-5.532-13.785-6.346-12.616-28.7a6.169,6.169,0,0,1-.624-.333,103.264,103.264,0,0,0-.993-10.37c1.75-3.941,4.058-6.942,6.787-8.379,2.117-1.112,1.6-7.6-.5-7.755l-1.989-.146c.249-2.116-.29-4.527-1.742-4.737l-1.86-.27a7.383,7.383,0,0,0,.589-4.667c.594-1.529,1.172-3.125,1.718-4.867.775-2.465-.236-6.063-1.635-5.94l-3.58.314c0-.148-.025-.287-.033-.432,0-.045-.008-.085-.012-.13a7.653,7.653,0,0,0-.163-1.155c-.023-.11-.056-.2-.085-.308a4.717,4.717,0,0,0-.229-.687c-.314-.762-.759-1.283-1.345-1.249l-18.985,1.174c-1.788.111-2.256,4.391-1.411,6.6l-4.179,1.18c-1.068-2.062-2.133-4.129-3.178-6.253-7.1,5.4-16.311,3.067-21.1-3.788-3.352.826,3.819,7.156-.148,9.367-30.911-7.858-61.666-10.382-92.72-11.669-59.373-2.466-119.024-14.853-178.081-18.677-24.893-1.611-50.1,1.514-75.1-.418-14.37-1.112-29.445-6.537-43.539-6.2-7.187.173-14.031,5.147-20.327,2.156-5.7-2.71-4.6-1.53-9.13.208-4.843,1.858-11.358-1.982-17.217-1.529-19.744,1.529-39.941,7.609-59.91,6.852-18.643-.707-37.808,8.182-55.838,10.731-48.045,6.793-98.906-3.1-148.371,7.52-3.189,1.574-2.167-6.9-5.969-3.832-4.612,7.8-7.684,40.954-12.567,32.513-3.06,30.547-7.782,46.594-18.147,69.21,2.7,3.9,1.151.516,3.917,6.189-5.263-2.124-6.937,16.6-3.314,19.455-2.944,5.686-5.6,12.053-8.308,18.314,2.16,1.249.095,13,1.109,17.11.176.309.374.7.608,1.223a2.314,2.314,0,0,1-.608-1.223c-2.457-4.28.159,10.993-3.526,9.248,3.847,12.692-5.145,33.587.3,44.479-3.2-1.172-2.054-1.511-4.061,3.343-1.536,10.642,3.817,4.038,2.8,13.374-3.779,3.9-2.892,14.765-4.433,26.9,1.5.015,3.727-1.786,3.991,1.337-2.286-.084-3.794,1.528-4.1,5.723,4.368,4.893,4.536,20.328,6.527,31.194-1.073-5.452-4.78,3.8-2.084,5.2.729-3.266,3.3,1.778,3.988,1.37.184,3.019.389,5.646.6,8.085-17.066,5.192-11.793,65.613-.442,87.938.842,13.832-1.37,19.724-.865,32.674,2.758,2.953,4.312,8.388,7.069,11.293a36.05,36.05,0,0,0-1.137,9.979,15.178,15.178,0,0,0-1.262,2.154c-.936,1.916-.608,6.112.835,6.6l1.73.584c2.535,9.813,8.346,17.692,14.044,19.349,1.745-.941,3.334-4.78,5.012-7.238q1.482.3,2.962.594a6.065,6.065,0,0,0,.862,3.182c-1.205.919-3.138,0-4.838-.35.563,12.238,2.092,22.4,3.156,33.545a3.367,3.367,0,0,1,3.513-.447q-1.424,2.745-2.847,5.49a7.561,7.561,0,0,0-.3,4.784c.96,3.5,2.021,6.761,3.158,9.84l-5.132,1.938c-.724.274-1.122,1.387-1.267,2.676l-3.06,1.708c-1.742.973-1.866,6.788,0,7.614a62.229,62.229,0,0,0,14.864,4.509c-1.723,1.763-1.092,6.952.832,7.418q1.539.371,3.081.746c-1.615.937-1.569,6.943.173,7.479l7.431,2.287-7.411,4.373c-1.874,1.106-1.722,6.374,0,7.614a39.014,39.014,0,0,0,6.528,3.84c-.7,2.475-.247,6.234,1.471,5.853l6.732-1.489a1.036,1.036,0,0,0,.973.417q8.507-1.472,17.015-2.952a1.556,1.556,0,0,0,.935-.69,23.7,23.7,0,0,1,2.912,5.051c.266-3.754-.971-4.143-1.038-7.138,13.437-5.393,33.77,4.074,45.321-3.991-2.625,19.076,22.082-3.865,26.229-2.124.971,11.875,11.064,14.328,11.1-.225,3.168-1.191,4.141,2.779,5.082,6.842,1.906-.324.664-7.742,3-7.112,87.825-3.073,175.679-4.568,263.413-1.586,15.8.536,31.929-4.383,46.654-2.688,14.571,1.677,32.453-1.214,45.658,5.145,3.88,1.867,6.874,10.531,10.192,12.153,20.954,10.237,44.8-5.105,65.918,15.644a26.893,26.893,0,0,0,1.992-7.238c2.079.392,2.044,5.989,3.077,8.952,1.184-.518.83-4.35.979-7.1,2.821,3.508,5.512,11.312,7.079-.807,2.842,1.967-1.438,6.376,1.054,9.22,7.134-8.29,13.885,7.859,21.205-9.076,2.419-1.141-.516,10.666,3.063,6.755-.158-5.774,1.22-4.081,1.01-.082,8.246-9.423,28.8-2.2,38.417,2.5,1.182-.414.833-4.291.978-7.049,9.477,2.341,19.578,6.4,26.247-.275a21.672,21.672,0,0,0-.981,7.016c3.855,3.467.156-10.473,4.008-6.981,2.118.687-1.436,6.228,1.048,9.374,1.468-8.189,7.858-4.959,9.019-13.825,2.652,6.227-1.619,1.8-.968,9.328,5.326,1.147,3.794-4.827,5-9.193,5.047-1.552-1.3,8.56,2.055,9.435,2.187,1.187,3.792-15.574,5.034-2.1,2.329.812,1.093-6.724,2.993-6.879,2.283,1.438-1.209,3.583,1.041,7.089,5.748-2.616,7.463-5.974,11.084.721q-.02-4.691-.04-9.374c10.036,4.759,13.493.691,21.112-7.4a20.882,20.882,0,0,0-.976,6.919c5.738-7.189,13.447-5.577,17.1-2.516,3.878-3.35,7.363-14.685,11.032-5.331,1.919-17.644,10.169-4.946,14.049-4.5.541-5.616.809-11.925,3.971-10.945,5.358,2.417-3.57,10.3,2.059,12.159-.525-7.519,1.778-7.91.935-16.237,2.653.5,6.309,3.557,4.994-5.966,3,11.015,2.5.863,9.052,4.417-.445-4.594-.408-10.207-3.053-10.109.246-7.912,6.595-.2,6.991-7.715-1.209,7.728,6.093,2.69,2.979-6.3,2.067-4.628,3.256,2.9,5.009-1.052-2.449-22.1,5.29-13.118,2.864-34.489,3.719,1.294,2.538,4.116,2.045,9.967,3.05-3.051,2.313-24.085.915-20.908a233.2,233.2,0,0,0,3.882-29.468c.682.439,3.312-4.49,4-1.191,2.711-1.28-.89-10.7-2.026-5.292,2.115-10.776,2.459-26.2,6.882-30.9-.259-4.209-1.75-5.886-4.035-5.9.3-3.111,2.505-1.212,4-1.16-1.4-12.2-.392-23.021-4.124-27.09-.913-9.38,4.365-2.542,2.95-13.249-1.951-4.94-.809-4.551-4.023-3.521,5.572-10.647-3.179-31.935.812-44.455-3.706,1.581-.916-13.571-3.42-9.4a2.221,2.221,0,0,1-.623,1.195,12.8,12.8,0,0,1,.623-1.195c1.061-4.066-.87-15.9,1.3-17.061q-.675-1.625-1.345-3.258c.09-10.26-1.491-16.38-.6-28.625C1059.888,5372.4,1065.274,5337.743,1061.7,5316.685ZM238.4,5572.862a5.844,5.844,0,0,0,.158.581l-2.932.821A2.2,2.2,0,0,1,238.4,5572.862Zm.729,66.782c-.712.213-1.1,1.156-1.26,2.294-.184-.59-.367-1.183-.518-1.788-1.781-7.12-1.277-7.6,1.107-12.6,1.23,1.062,2.383,1.981,3.417,2.006,1.479,1.311,1.953,4.81,2.3,8.586Q241.656,5638.9,239.133,5639.645Zm8.615-40.929a8.934,8.934,0,0,1-2.336-2.454c1.24-.05,2.482-.111,3.719-.212Q248.439,5597.382,247.748,5598.716Zm4.1,11.461c.294-3.88-.1-6.256-.842-7.875q1.848-3.469,3.707-6.909c1.174-.171,2.351-.318,3.523-.534l4.285-.438c-.634,7.979-1.949,10.508.4,19.812C260.086,5611.013,255.968,5610.616,251.844,5610.177Zm740.476-459.1,2.117-.553c.643,2.095,1.172,4.27,1.619,6.49q-.169.508-.332,1.029A36.085,36.085,0,0,0,992.32,5151.077Zm53.2,116.187c.88.171,1.763.4,2.646.664l-2.256,1.441Q1045.747,5268.3,1045.524,5267.263Z" transform="translate(-192.73 -5089.571)" fill="#676767"/>
</svg>
