<svg xmlns="http://www.w3.org/2000/svg" width="2491.874" height="963.509" viewBox="0 0 2491.874 963.509">
  <path id="Path_24862" data-name="Path 24862" d="M1909.62,2880.83c3.271-1.891,7.391-2.707,11.346.067-.475,1.311-2.565.544-2.794,2.209,13.614,2.872,35.455,7.915,50.152,13.581,3.34-1.265-2.771-4.521-1.608-7.865a8.194,8.194,0,0,0,6.082,2.017c2.7,3.311-2.127,2.124-1.991,6.141l9.965,1.173c-6.733-5.737,12.684-3.386,5.918,3.267a167.368,167.368,0,0,1,36.6,10.718c-5.65,1.806-13.334-4.563-22.246-3.92,2.4,2.591,5.445,2.917,8.548,2.307-4.921,8.3-15.341-3.595-21.594,1.294-3.829-1.523,2.4-1.408,3.885-.843-2.6-5.673-7.776-1.241-12.45-1.466.356-.966,1.4-1.1,1.545-2.354-16.721,3.495-20.829-7.917-42.013-7.517-1.326-2.368-3.835-3.8-2.858-8.014-3.515,5.9-10.39-.279-15.376,2.028-1.755-.76.254-1.076.3-2.535-4.453,3.639-25.759-4.463-32.531-2.53-.929,3.405-3.914-.4-2.168-2.825-8.236-.871-16.748.6-26.147-3.078-.182-.087,1.881-1.664,2.646-.956-12.455-11.063-39.46-2.37-52.78-12.624-8.281,5.888-25.779-7.3-32.512-2.559-1.69-.622.151-2.227,1.546-2.356-3.38-4.268-10.253-.654-13.846-.361.55-3.578-14.39-5.012-18.665-2.2-6.018-12.223-31.272-6.545-42.67-12.7-1.6.136-1.545,2.354-.294,2.5-20.989,2.278-60.438-11.216-81.846-12.174-20.437-.911-48.133-9.214-79.953-6.879-1.777-2.745.3-1.559.593-5.036-14.166.316-27.113-.591-38.594-4.544-7.756-2.637-19.053-5.854-30.819-6.167-27.968-.82-58.935.541-86.467-5.074,1.726-4.578,11.137.758,10.858-6.4-15.637-4.767-16.508,1.96-28.483-4.621.016,1.5,2.136,1.324,3.586,1.689-26.56-.654-61.78-5-95.183-6.1-1.282-3.144.95-2.751-1.906-5.332-25.171,4.713-54.838-6.88-72.473-5.964-47.84,2.467-92.9-.531-148.8-.9-26.507-.162-46.366,7.648-67.313,3.588-8.679,9.029-25.585-1.029-35.887,4.751-14.332-2.371-32.049-1.171-46.786.867-6.911.942-15.409,2.284-19.719,6.623-16.574-.619-39.735,7.453-53.174,1.448-7.65,5.181-17.361,7.713-27.614,9.53-7.146,7.291-16.674,11.536-30.265,10.52-1.822-.6-2.031-1.963-4.537-4.371-11.819,1.762-26.478-.125-33.7,7.546l.3-2.534c-18,10.272-51.56.563-69.425,11.048,2.323,2.875,8.857-1.137,13.832.328-5.127,3.1-12.135,3.776-19.424,4.12-.612-4.2,3.552-2.248,4.341-4.595-10.88,1.027-23.183.229-29.816,6.7-10.03-5.931-23.458,5.824-37.138,4.6,10.231,3.416,23.078-2.324,34.34-2.363-2.325,4.767-12.477-.527-12.221,7.506,39.291.136,79.965-10.524,121.356-12.578,2.833,5.634,14.964,1.892,12.9-2.32,24.1-11.148,63.122-2.325,81.233-14.765,2.287.465,4.061,1.325,4.668,3.12,22.3-8.27,43.591-.43,68.4-2.193,5.8-.389,9.823-4.307,15.838-5.811,32.05-7.969,69.391-.937,103.691-1.874,4.746-.124,9.714-4.45,13.846.361,4.346.675.112,1.9,1.889,5.33,12.989-.943,20.731-3.219,34.206-1.08.463-3.652-11.237-1.941-12.317-2.717,1.453-11.247,24.565-7.191,39.785-5.563-.821,2.344-3.812,1.861-3.227,6.029-8.98-2.327-13.291,1.329-21.463.042,86.61,13.386,173.351-4.7,269.666,13.831,53.563,1.1,115.491,10.965,170.531,20.08-1.037,5.929-9.791,1.97-15.378,2.028,3.461,5.612,16.093,1.83,23.186,6.567-6.407,1.426-15.384-.379-22.7-.1,36.844,7.559,78.926,13,113.611,21.055-.974,1.186-3.015.946-2.925,3.461,2.063,5.089,29.318,13.178,27.674.722.037,1.6,5.011,4.427,2.336,1.543,2.645-.535,4.815,9.088,10.156,10.174,2.2-5.727,10.321,1.833,12.748-1.069,3.8,1.326,1.216,3.559.5,6.468,6.492.568,1.586-5.018,4.478-5.881,8.364,2.643,15.765,4.75,23.349,5.319.109,2.061-1.424,2.01-1.7,3.639,6.654,2.733,5.106-5.091,10.547-3.9.457,7.275,12.848.8,20.734,6.279,1.928.78,4.727-4.192,1.827-4.891,12.01-.538,34.475,7.247,52.932,11.339-.71,2.909-3.664,2.529-5.133.7.715,9.581,15.312-6.786,18.371,4.7,17.827-1.869,40.105,9.146,56.662,11.812,1.608-1.665,1.707-2.922-.8-3.934,2.948-2.287,8.371,3.133,13.551,2.865.274,4.878-5.7-1.289-10.117.109,9.317,4.513,23.765,10.508,39.088,10.978,37.737,14.691,83.128,31.257,127.283,44.425l-.446,3.786c4.072.545,5.935,2.846,11.035,2.569,8.434,7.368,21.789,9.851,32.271,15.346,6.876,3.574,12.4,7.575,20.125,11.314-.728-.345,8,.293,9.5,4.958-23.493-4.783-55.217-24.783-73.827-26.616,1.56-4.4,6.025,3.995,7.6-.375-11.913-4.655-25.6-10.43-41.122-15.087,4.85,4.441,15.075,6.947,14.991,12.01-12.937-.709-14.228-10.716-22.158-15.424-1.086,4.459,7.869,3.854,2.842,8.012-5.929,1.317-1.694-5.5-5.64-5.772-3.874,4.164-11.561-1.784-17.415-2.05,4.527-3.859-3.787-6.788,3.375-7.279-1.418-2.671-7.529-1.569-9.666-3.707,3.955,2.905,5.276,6.118,2.41,11.8,13.215,7.085,41.383,18.469,63.074,21.511-.329,6.336-8.74,2.321-10.84,6.4-18.763-5.039-40.086-18.706-55.33-23.135-7.275,19.569,35.134,14.87,49.9,26.335,3.848,2.047,1.444-3.962,5.281-1.948-.873,5.361,7.627,2.362,9.8,2.454,5.91,11.1,18.1,5.254,28.842,12.341,3.83-.393-.87-2.834.593-5.036,20.155,6.83,30.853,14.171,46.314,24.644,1.916-.328-.3-1.661.446-3.785,12.958.68,10.319,13.835,23.559,14.289,1.9-.33-.316-1.665.446-3.787l8.7,1.025c-1.141,3.834-7.106,1.505-7.108,6.839,5.937,2,26.386-4.276,21.952,6.423-3.522-.186-2.7-3.928-4.375-5.621-3.823.882-5.563,4.484-9.455,5.262-23.775-11.648-52.231-18.674-72.3-28.973-1.972-7.909-22.409-10.023-32.275-15.314-4.009.4-2.026,3.175-1.978,6.173-5.868-2.186-6.674-2.834-14.648-4.294.842,3.873,6.813,3.7,6.573,8.451,27.579,6.174,56.723,20.828,83.347,31.574-33.285-9.188-69.539-25.849-105.446-36.746.637-1.584,2.418-1.732,2.929-3.494-17.116,4.264-47.191-18.566-70.051-15.924a6.1,6.1,0,0,0,1.7-3.639c-15.173-1.07-28.239-10.091-45.616-9.21,1.487-3.37-10.536-11.844-15.883-4.44-5.243-.682-2.6-3.234-.655-5.183-9.372,1.824-17.165-5.4-24.735-4.181-.111,1.222,1.406,1.141,2.337,1.544-11.394-.757-44.7-10.4-71.452-14.789,16-14.25,38.894-.17,55.076,3.916,10.016,2.513,22.66,2.18,31.264,2.38,17.35.416,45.9,16.17,66.166,16.768-5.023-3.779-5.01-3.484-4.091-8.157-4.493-1.9-2.516,4.484-6.661,3.052a4.793,4.793,0,0,1,.744-6.319c-4.44.518-4.574-2.425-8.569-2.278,10.781-7.252,15.655,5.552,28.335,5.875-6.468-6.358-15.008-8.6-18.429-14.954-3.832.4.868,2.834-.593,5.036-8.062-3.454-14.123-8.492-22.609-11.607-3.627.842,1.406,3.582-1.842,4.889-14.442-5.114-25.326-10.333-40.486-9.873-2.548-.69,2.255-3.215-2.038-4.078-2.9.374,1.289,2.136-1.694,3.639-13.56-4.556-32.545-6.077-45.747-7.957-12.89-1.811-30.283-12.347-39.682-5.941.735,3.567,2.723-3.094,6.38-.516-3.873,2.926,1.706,5.665,6.709,7.165,15.11,4.608,47.377,6.912,60.1,14.752-1.332,4.5-5.477-3.6-6.367.551,3.811,2.629,10.342,3.138,14.484,5.545-47.648-6.652-96.5-24.732-149.7-25.337.173,5.193,7.836,4.4,13.248,5.43.85-2.989-5.758.007-3.3-4.259,7.161,4.422,13.936,8.309,23.365,5.321,4.288.765,4.189,5.015,8.119,6.1,6.685-2.432,9.619-2.836,20.344-1.444l-.74,6.29c3.993-3.955,9.177.917,13.7,1.613-1.134,4.451-8.012.487-4.625,7.131-3.065.159-2.437-2.6-6.084-1.985-1.259,4.959,4.571-.828,3.135,5.508-2.007,2.886-3.48-2.719-5.13.665-3.788-1.324-1.216-3.559-.489-6.466-6.47.606-7.379-3.244-9.372-6.209-4.821-2.357-4.26,2.262-7.749,1.657-.1-2.094,1.428-2.044,1.684-3.672-5.649,1.123-7.487-1.663-10.753-5.1-15.881.178-22.472,2.623-42.328-4.984-3.393,1.714,1.906,6.013,4.238,6.907.375,4.3-2.815,1.717-3.869.845.61,7.358,10.144,1.844,12.732-1.07,2.958-.465,5.849,7.388,6.085,1.985,7.587,8.7,26.613,5.247,38.28,7.076.573,6.444,9.743,6.613,7.378,12.385,6.073.323,5.229-.687,12.6.181-8.231,3.293,2.79,2.314,5.113-.665,1.787.763-.68,1.545-.446,3.784,9.536.733,16.474-1.93,24.687-6.037,4.582-.242,6.985,1.278,7.02,4.665,3.844.582,4.027-3.56,9.014-1.508-6.24,5.185,6.039,7.672,8.611,12.528,2.031-3.893-3.9-1.436-1.874-5.327,6.289,3.114,10.206.226,16.019,3.154-1.574-5.974-15.967-1.685-16.691-8.341,65.672,13.2,133.709,41.05,192.055,62.266a625.013,625.013,0,0,1-62.438-16.3c5.571,7.714,21.482,12.32,29.12,9.836-.239,9.926,25.348,11.215,26.7,19.766,4.09-5.6,12.969,5.885,16.2,1.907.672,3.007.041,4.688,5.623,5.768-.772,1.926-4.037.631-3.081,4.777,4.444,2.573,18.278,1.664,22.7.1,44.638,20.511,83.868,31.637,134.584,46.553,3.854,1.592,2.964-2.97,5.413-3.2,5.384,1.8,17.429,10.509,17.281,3.336,7.564.044,21.067,5.213,29.285,8.556-12.284-.959-16.951-.273-25.848-5.614,12.94,11.868,35.766,15.758,55.477,21.884,11.479,3.565,21.636,8.014,29.923,13.771-2.991,5.795-3.182-2.262-8.716-1.026.86,6.183,7.724,7.544,8.476,13.813.859-5.656,7.484,2.508,14.916,1.756.127,2.065-1.408,2.014-1.674,3.608,8.5,5.458,22.094-.1,24.939,13.184-16.218-3.765-30.663-8.978-46.4-13.141-.095-2.06,1.444-2.042,1.7-3.639-16.96-8.111-43.378-10.507-50.852-29.017-2.2,2.474-4.46,4.907-6.007,8.237-.545,2.734,4.362,1.1,6.082,2.019-15.583,2.134-33.264-11.691-51.25-15.013,14.275-1.117,28.773,7.453,41.584,11.3,4.685-.294-.29-5.856,4.623-7.133-19.362-10.021-31.265-9.177-49.69-17.366,4.1-2.834,8.446,3.858,14.785,3.01-7.311-5.187-18.677-7.143-29.119-9.837-.866,2.989,5.742-.006,3.286,4.226-3.574-1.657-7.452-1.267-4.389-5.623a26.846,26.846,0,0,0-11.052-2.57c1.338,4.71,6.376-.615,5.624,5.768-12.08-5.553-27.747-8.275-40.024-13.658-1.809.244-.387,2.2.936,2.68-15.629-.473-27.674-13.667-46.1-15.674-5.458-11.8-29.7-9.223-44.855-15.527-8.821-3.675-9.8-10.457-14.545-15.8-16.844-.226-21.132-10.522-37.851-10.863-3.206.533,1.928,3.642.505,6.466-5.272-4.523-17.36-3.6-21.653-8.957-.588,9.624,14.6,6.6,18.724,12.451,8.06-4.158,16.4,7.135,28.168,7.155,3.5-.727-2.25-3.356-3.271-4.224,6.367-4.226,10.512,2.8,17.117,4.585-3.311,1.562-7.832,1.551-12.746,1.069,5.935,5.156,17.963,5.433,15.646,17.2,22.229,12.245,56.975,11.62,76.18,28.16,8.779-1.014,14.964,9.928,19.615,4.879,14.366,15.418,43.352,23.256,67.969,33.6-43.385-12.882-90.615-32.624-135.666-47.98-3.641.807,1.406,3.58-1.86,4.887-4.7-2.31-11.252-3.178-17.117-4.585,1.826,2.752,5.39,4.082,9.517,4.991-3.771,5.053,2.159,1.817,1.743,6.58-6.142-2.055-7.459,2.05-12.748,1.069.6,5.959,13.293,3.159,17.937,8.521-.561,3.121-4.265-.145-4.983-.587-1.027,5.311,6.476,2.063,8.568,2.278-5.953,3.852,6.945.947,5.266-1.95,8.582,13.6,25.657,9.819,43.323,17.916-4.614,2.125-13.228-2.338-18.518-3.449-1.246,5.545,9.685,1.369,10.752,5.1,2.652,3.37-3.429,2.978-2.287,8.675.307,2.021,3.782,1.52,1.89,5.33,8.827-4.556,5.485.678,15.541-3.277,5.223,12.975,25.652,11.217,36.35,23.472,5.042-.87,4.653.255,10.1-.08.954,2.648,5.27,2.637,4.242,6.874,2.334-.9,6.265.315,7.764-1.655,3.537,1.555-3.1,1.586-1.832,4.923,4.378-.948,2.242-2.272,7.615-.372-.38,1.453-2.388.793-3.881.812,1.49,3,8.014,1.951,9.5,4.958,5.306-5.166,17.1-1.173,24.6,5.466,24.516,1.26,49.438,21.141,76.179,28.16-1.164,5.654-5.7-2.1-7.764,1.656,10.888.957,11.384,15.814,22.46,12.858-.882-3-6.473,1.45-5.771-4.518,3.768,1.778,6.578.808,10.9,3.853.8,3.934-3.033,1.92-5.281,1.948,1.034,3.213,5.974,4.021,7.467.879,24.235,2.27,35.668,10.056,56.518,13.031-10.246,2.99-25.416-.976-38.578-4.543-2.947-.314.034,3.518,2.2,2.829-64.747-19.692-126.162-44.943-196.587-66.67.215,2.53,5.678.8,3.119,5.507-1.223-4.046-3.4-.824-8.567-2.277.809-2.377,4.961-.456,4.361-4.625-26.548,1.557-50.286-12.167-78.336-20.739.479-1.342,2.57-.577,2.794-2.209-9.558,5.314-11.183-6.228-21.965-6.457,8.312,5.142-6.628,3.448-9.3,4.045l.6-5.069c-4.087-2.6-6.72.281-9.67-3.677-3.257-.805.34,7.2-4.327,4.6-3.9.842-1.881-3.084-1.889-5.33-5.292-1.5-8.785,5.016-9.814-2.456-8.734,9.478-17.871-4.316-26.576.709,4.624-5.635-9.877,1.342-5.787-4.52-4.278,1.741-7.518.514-10.263,1.361-3.508-1.127,2.145-1.731,1.694-3.637-4.185-1.5-5.611.542-6.676,3.051,6.1,4.264,14.4,6.77,22.918,9.107-.985,4.958-4.168-1.923-4.176,3.313,2.94,4.185,5.871-3.96,11.495-1.182.1,2.094-1.428,2.043-1.7,3.637,15.432.516,38,8.085,58.064,10.676,1.981-.222-.832-2.343,1.532-2.39,7.437-.23,9.171,4.1,13.1,6.682,1.481-.053,1.315-2.186,1.7-3.639,4.062,2.82,12.708,1.985,15.72,5.69-.159,1.217-1.632.784-2.63.959,4.317,4.184,12.641,5.131,19.317,7.414,9.421-6.469,32.858,8.454,42.837,11.42-2.808,5.588-18.718-4.742-25.718-6.867,1.644,4.844-1.361,4.491-1.232-.146-3.838-2.012-1.433,3.995-5.281,1.948,2.562-4.056-19.8-3.209-27.886-9.692,19.337,13.109,50.891,16.435,71.061,28.86-28.489-5.111-52.244-18.967-83.94-26.537,24.194,15.305,55.709,20.872,85.683,33.118-7.595,2.261-15.924-6.4-25.181-.4,11.67,2.773,29.667,5.056,41.721,10.021-1.33-4.647-9-4.249-13.106-6.651,5.7-1.865,16.541,1.981,16.687,8.373,3.448-.277,3.221-.662,7.765-1.655-.6,1.977.912,2.319.8,3.931,17.415-.94,34.315,15.425,49.184,10.9,2.321.858,1.836,3.892,5.934,3.269-14.732-9.314-30.564-11.861-46.761-20.859,5.322-4.48,12.843.569,18.665,2.2-4.722-4.979-14.9-5.593-21.653-8.958,13.194-1.047,21.657,6.877,35.351,10.571-1.871,3.227-6.5-.765-8.715-1.026-.516,3.973,9.694,2.377,4.238,6.907,2.233-.03,6.065,2.015,5.266-1.949a31.274,31.274,0,0,0,17.788,9.77c-.478,1.343-2.585.575-2.8,2.241,4.77,4.561,14.586,5.1,23.216,6.572-8.754,6.938-27.444-9.217-31.575.121,4.056,5.876,5.431-.89,11.363.069,1.376,6.568,24.372,7.261,36.438,11.966-.008,2.114-9.459.252-2.778,2.211-9.628,1.955-17.362-7.412-29.433-7.305a8.782,8.782,0,0,0,3.434,2.974c-42.522-13.821-90.18-32.64-132.38-43.756-.673,3.532,4.932,4.288-1.711,3.638,1.9,6.76,5.2-.691,8.863-.226-6.217,6.619,1.184,5.6,7.971,7.346-1.6,1.632-1.707,2.921.789,3.931-31.755-11.838-78.166-20.685-106.027-31.675,2.7,6.2,12.906,6.431,14.827,13.26-6.606.686-18.514-2.115-21.8-7.706-2.232,1.526-3.6,4.13-7.911,2.907-2.019,3.926,3.92,1.436,1.886,5.36-3.066,2.47-3.868-2.7-7.168-3.414-2.2,5.5-13.4-1.285-18.218-5.982-.866-3.681-.79-5.557,4.326-4.6-67.763-24.6-154.651-40.394-228.832-49.974,3.819,5.3,17.317,2.885,20.423,8.779-.109,2.3-1.831,2.484-1.845,4.923,43.532,13,100.794,25.986,142.9,29.609a6.078,6.078,0,0,0-1.7,3.639c1.883-3.876,9.741-.057,10.694-5.149-5.361,2.069-8.825.848-10.753-5.1,9,3.762,21.46,2.431,30.682,7.452-3.264,1.308-10.59-2.807-15.082-.475,12.359,4.676,29.14,3.4,41.257,13.8-4.558,1.123-11.227-6.527-17.415-2.051,1.6-5.86-4.776-.984-9.357-6.208-1.781,5.742,4.2-.383,3.423,2.941-.815,5.563-9.569.922-8.552-2.276.759,4.318-10.392.825-16.48.629,113.762,34.083,230.037,48.717,326.873,96.062-8.6,2.079-12.877-6.4-22.25-3.889-.221-2.2,1.229-2.262,2.767-2.244-19.944-4.007-58.845-17.922-79.256-23.416-1.224,3.043-3.576-2.307-4.688-3.089-8.755,3.816-53.2-11.956-73.782-16.363,1.216-2.3,3.807-.463,1.7-3.64-4.568-1.513-1.656,6.57-6.826,4.3.409-5.514-1.527-.928-4.373-5.621-3.415,5.03-14.422-6.09-19.931-2.347,3.831,5.331,16.535,3.541,19.039,9.917-9.5-2.256-23.668-8.186-29.879-3.518,1.788-1.838,8.891,6.35,19.174,8.633-3.5-2.526-5.574-6.185-10.458-7.607,10.724-1.468,24.03,12.068,26.28,1.794,5.157,2.526,22.6,3.638,26.491,10.8,9.157-4.092,23.215,6.183,34.4,7.89-1.034,5.115-3.253-.415-6.513,1.8,17.843,9.712,38.68,18.119,58.911,24.86q-1.919,2.6-6.511,1.77c3.142,3,5.866,3.846,1.587,7.9,5.491,1.72,6.564-2.22,10.414-2.644-.026-2.638-5.45-.967-5.936-3.237,5.448-.367,10.022-6.4,20.658-3.975-1.71,3.9-3.89,2.665.656,5.184-5.106,4.148-7.529-4.822-12.447-1.466,1.9,4.582,11.6,2.928,12.938,7.932-7.27.444-10.975-6.627-17.285-3.305,4.9,9.426,20.3,10.424,32.423,14.064,2.336,1.414,1.969,4.527-.147,1.251-11.872-.78-23.005-8.237-31.9-7.595-2.286-.464-.272-4.357-1.906-5.33-1.3,4.205-8.579.811-13.7-1.613,1.973-4.224-.309-2.411,4.2-3.376.286-3.252-5.6-2.448-1.906-5.332-7.322-3.2-8,2.18-13.682-1.611-.526,2.151,1.733,3.523-.446,3.786-6.25-3.306,3.938-5.26,5.56-4.452-6.155-3.034-16.3-6.765-25.24-10.649-3.385,4.644,11.466,4.506,12.792,9.184,1.07,4.256-4.132.489-3.078,4.743-3.13-.921-1.2-4.759-5.491-7.021-10.171,1.112-13.163-4.8-21.951-6.424.772-1.926,4.05-.629,3.1-4.775a5.938,5.938,0,0,0-5.595,4.481c-24.363-8.691-54.588-19.633-75.356-24.258,42.224,17.852,78.843,28.279,118.251,45.931.373-4.119-5.329-3.36-8.269-4.812,3.842-3.353,10.759,4.1,10.248-1.363,3.26,1.718,2.2,4.326,1.754,6.615,5.493,6.469,13.516,4.387,21.805,7.673,3.077,1.242,2.594,3.851,5.619,5.8,15.05,9.611,41.614,4.511,55.923,18.1-40.635-10.379-83.09-20.811-122.224-33.583,8.6,1.566,21.138,4.343,32.051,6.311-8.056-5.665-18.8-7.288-28.672-13.622-2.822-.69-1.822,3.493-4.2,3.376-3.775-3.079-4.771-8.367-12.938-7.932.626,4.369,2.769.458,4.673,3.089-7.968,3.518-13.938-8.57-22.1-5.141-.252-2.761,2.071-2.194,4.032-2.095-2.679-1.225-12.275-10.162-13.682-1.611-6.744-1.021-7.079-6.753-14.638-4.26,2.822-2.3-.207-2.594-2.037-4.079-2.722.233-2.991,4.429-7.629.371.38-1.451,2.4-.79,3.879-.812-2.857-2.289-7.257-3.326-12.148-4a1.3,1.3,0,0,0-.3,2.534c-7.489-3.548-30.893-10.306-42.966-10.2,28.27,14.747,62.936,22.017,89.447,33.563-27.337-.584-54.915-22.014-87.99-24.413-4.3-7.6-23.051-10.976-36.6-10.718.587,4.136,6.819,2.56,11.068,2.572-2.617,8.052-18.426-.413-13.253-5.4-24.448-6.066-38.262-13.905-65.872-19.271-.4-6,4.01,1.351,4.031-2.095-12.231-6.839-20.755,2.078-34.7-5.353.225-5.178,1.683.424,5.115-.667-2.254-4.689-12.394-3.021-16.969-5.837-1.346,4.885,6.659,2.282,9.65,3.706-1.3,4.109-12.693,1.563-10.9-3.853-6.121,5.687-13.07-7.491-20.062-1.093-19.923-6.9-73.785-11.845-109.074-16.683a6.059,6.059,0,0,1,.788,3.932c-4.232-4.922-27.672-9.732-38.578-4.543,4.054-5.02-7.409-5.036-3.435-2.974-27-8.936-51.42-11.389-85.443-13.9,19.008,6.63,43.345,8.2,69.276,12-4.556,7.921-18.634-2.584-24.111,1.031-.352-5.863-13.525-.909-18.664-2.2,70.491,12.171,153.333,22.966,225.543,45.75-28.577-12.538-54.33-14.335-80.059-27.35,23.229,1.434,38.107,12.912,56.5,13.028a3.472,3.472,0,0,0,2.929-3.494c1.528.507.967,2.684-.3,2.535-.527,2.7,4.344,1.1,6.084,1.985.631,4.726-5.111,1.187-7.78,1.654,10.668,7.468,32.509,5.975,39.742,16.194,17.055-6.059,30.1,11.481,45.106,2.775,16.086,12.921,45.251,12.288,63.093,21.48-33.275-5.608-59.357-13.852-97.3-20.4,26.141,11.568,68.038,14.485,79.628,31.136-32.588-10.6-79.5-31.674-120.033-30.788-9.185.221-21.264.523-28.586,6.881,9.182,7.132,26.935,7.4,40.333,11.157-.9-2.708-4.455-3.29-8.417-3.561,16.942-.737,41.59,5.255,56.368,14.315,7.41-.56,17.31-.467,16.671,8.371-5.466-.579-11.76-.507-12-5.252-2.825,6.562-16.5-.967-22.4-2.637,2.574-1.974-.1-3.753-.507-6.468-9.238-.795-18.855-6.709-27.216-4.474,7.462,3.9,20.694,3.218,26.771,8.26-17.1,2.508-41.507-12.63-56.8-10.527l-.744,6.321c-2.937.565-9.445-3.422-9.011,1.475-4.567-4.668-12.518-3.327-19.766-3.6.027,3.028,5.808,1.464,4.372,5.621-19.618-.228-47.6-8.857-68.442-8.059,42.715,11.633,94.351,16.966,140.694,26.812,13.907,2.972,29.706,2.263,40.186,12.41-7.694-3.574-18.393-.149-27.544-1.976-3.432-.664-5.267-5.791-8.552-2.275-.11-2.063,1.428-2.043,1.68-3.64-21.522-7.349-43.027-2.855-63.313-8.725,0,0,1.837-2.255,1.533-2.389-17.238-7.1-42.345-5.246-67.045-9.162-18.436-2.92-38.133-6.572-58.363-8.141-4.529.735-2.531,1.88-4.326,4.6-5.84-1.208-8.837,1.235-15.079-.507.01-3.35,2.2-3.938,5.412-3.2-36.347-11.239-71.093-2.71-108.123-14-1.947.877-4.942.426-4.327,4.6-11.012-6.989-15.965,4.3-31.28-2.383,1.023-1.6,2.954-2.058,5.281-1.947-23.235-7.907-38.226,1.582-60.482-.747-2.216,5.594,8.442.9,8.266,4.845,1.136,6.281-6.017,1.926-5.875,6.984-1.482,5.778,7.9,2.817,9.372,6.21,3.284-2.7,7.692-6.217,6.32-10.771,4.232.7,14.432,7.36,13.682,1.611,3.381,3.978,13.482,1.816,18.666,2.2-.639,2.56-5.54-.359-5.414,3.2,6.919,2.115,10.189-.459,14.128-2.175,6.325,12.064,20.4,3.931,30.814,6.2,3.755.8,5.628,4.5,9.373,6.211,8.945,4.111,23.8,3.094,29.27,8.553,14.981.4,29.779,5.588,50.729,8.543,4.748-.287-.422-4.312,4.326-4.6,5.173.056,6.2,3.43,8.123,6.063,3.415-8.023,19.509-3.071,23.81,1.534,2.377-1.931.187-3.36,2.126-7.425,12.043,6.947,24.731,5.97,37.049,6.9,47.415,3.6,88.155,16.757,137.7,20.054-5.641,7.6,12.715,4.783,16.687,8.373-.115,2.751-4.5.055-6.378.516,41.545,15.3,88.135,24.95,125.227,40.346,16.54,3.345,24.022,4.1,31.452,11.411,7.494-.45,17.791,3.071,21.673,8.929-42.132-14.134-83.438-23.715-117.911-38.216-2.672-1-2.057,2.231-4.014,2.1-4.664,1.468-.257-4.355-3.3-4.226-1.525,5.057-3.556-1.947-7.763,1.654-.016-1.5.549-2.212,1.547-2.386-17.688-8.719-34.908-12.569-56.073-16.816,8.095,9.7,29.911,4.075,34.926,14.326-5.372-.276-5.716-4.577-12.155-3.969-.807,4.946,1.948-.194,3.423,2.941-2.063,2.683-8.725-.541-12.58-.214-.808,3.321,7.1-.335,4.522,4.371-6.128-.137-8.688-4.667-15.59-6.942.637-1.585,2.418-1.732,2.93-3.493-5.693.142-5.977,1.866-12.9,2.32-1.63-.583-.657-3.267-.641-5.183-3.834,1.24-6.327-1.558-12.447-1.466-1.638,5.336-5.023.027-6.957,5.556-31.953-6.332-60.726-9.037-94.148-14.891-3.159.279-4.807,2.556-6.808,4.3-6.086-2.8-6.31-3.474-11.362-.069-18.691-10.559-46.665-9.56-73-12.432-47.9-5.219-129.529-19.613-182.01-18.864.2,1.748,3.007,1.428,4.836,1.838-9.9.168-31.707-2.3-49.926-4.61.176,1.778,2.975,1.423,4.816,1.868-4.959,3.709-18.4,1.249-21-3.773-24.178-2.229-43.647-6.993-68.312-9.313-39.747-3.736-93.125-3.55-129.9-11.457-3.228-.77-1.541,4.8-5.411,3.2-.131-3.66-16.566-6.407-21.149-2.491-6.636-3.156-12.92-3.311-21.18-2.494,11.979,10.094,31.257,11.162,55.266,12.915-36.914,5.021-71.967-7.4-118.323-2.418,12.878,5.03,23.131,1.846,36.243,3,2.713-.3,2.161,2.075,2.037,4.077,3.136-.345,3.236-4.595,7.911-2.906,1.865,2.821-1.208,2.361.658,5.184,9.7-4.063,24.232,5.163,33.894,1.421-1.378,3.807,3.145,2.842,1.755,6.615,30.824.539,48.067,12.49,70.942,8.354,3.468-14.2-12.274-13.025-19.233-18.887,8.413-8.117,31.237,3.158,38.236-3.174l-.446,3.787c24.995,4.145,38.229,6.16,57.113,7.992-1.439,4.451-10.287-.625-12.9,2.321,5.128,1.123,11.435,3.135,17.117,4.585-3.888,3.607-8.83-1.008-16.329-.654,2.657,7.272,14.365,3.577,20.42,8.811,1.915-.327-.3-1.661.445-3.784,2.785,1.953,4.047,5.127,9.521,4.958,4.29-1.707-2.854-3.685-.359-7.718.416,3.008,6.106,4.264,8.552,2.276-2.585-2.29-2.031-2.907-.492-6.435-8.593-1.4-12.957,3.126-17.28-3.336,13.411,2.816,20.465,2.021,35.008,2.856-1.021,2.545-2.259,2.433-3.9.808,1.474,3.688,4.108,1.883,8.27,4.813-2.267,4.937-13.038-1.5-19.112,1.588.952,4.177,18.091,10.619,17.432,2.052,3.189,10.232,6.434,11,16.523,9.622.423-2.227-1.206-2.842-.657-5.184,6.692,4.724,13.029,3.485,14.2,8.08,4.051-5.67,6.347,3.024,13.682,1.611.645-3.566-8.323.549-5.767-4.55,20.539-.509,43.743,7.135,65.96,7.767-.6,3.6-5.464,1.732-9.014,1.509,19.613,9.53,29.9,12.628,56.217,15.6-14.378,6.6-34.188-1.521-46.34-2.92-9.194-1.049-17.152-.2-24.9-2.932,1.291,1.844.241,2.046-.445,3.787,11.468,4.6,24.7,1.9,34.694,5.386-2.171,4.818-17.151,5.1-17.561-.8-13.177,7.165-25.386-.29-40.275-.906.022,6.9,9.167,2.772,12,5.252-4.346,3.132-15.3-2.191-18.027,3.017-2.265-2.836-4.068-5.229-1.456-9.15-50.223-7.409-107.135-9.459-152.785-20.56.175,1.778,2.992,1.427,4.831,1.871-3.281,2.54-11.22-.866-16.328-.655-3.111-3.131,9.242,1.316,10.247-1.363-12.749-3.81-31.01-8.205-42.312-4.982-2.608.767-4.764,4.643-8.209,5.441-13.942,3.173-34.717-4.119-50.538.458-5.4,1.576-13.206,4.82-21.758,2.544,19.6,4.976,27.9,7.937,42.03,7.519,3.146,3.656-5.15,4.922-6.021,8.235,63.358,5.477,129.021,17.926,177.043,18.278,11.477,8.214,36.986,3.77,50.283,12.329,2.9-.375-1.272-2.135,1.7-3.639,5.438,5.032,9.8,4.18,18.22,5.984-5.091,8.086-20.294-6.065-27.977,1.845-52.544-5.244-102.446-13.462-157.127-15.965,31.941,6.722,66.672,5.542,103.022,14.7-.881,2.987,1.938,3.026.49,6.466-46.261-5.35-86.71-10.08-124.615-13.4,1.579,8.381,8.984-1.122,13.116,6.683,3.219,1.55,13.616-1.357,17.7-.485,2.256.46,4.127,3.9,5.787,4.518,20.309,7.3,46.389,4.813,67.355,6.664,29.736,2.557,57.335,6.653,80.955,19.745-38.252-6.911-90.429-8.6-126.359-19.985,9.984,8.916-40.273-3.637-52.066,2.813,144.413,19.608,272.051,37.987,400.026,53.513-81.66-.411-159.592-19.542-244.846-21.156-.506,2.121,1.75,3.524-.446,3.786-2.3-1.54-1.074-5.852-9.5-4.957,1.366,1.884,3.443,2.91.658,5.183,17.585,3.047,39.96,7.926,59.741,7.035-1.513,4.278.746,5.52,1.593,7.865,2.343-1.513,10.777-4.229,9.814,2.456-16.222-1.422-53.625-6.151-75.773-10.223,2.258,9.828,10,3.161,20.4,8.811-.716,5.8-3.312-2.245-7.451-.877,5.781,5.657,10.126,12.478,21.06,13.994.007-4,5.019-4.354,2.483.292,3.572-1.726,4.871-6.356,9.608-6.546,9.865,3.114,15.557,6.255,22.9,9.1,6.717-8.023,16.106-5.226,30.624-2.8,43.316,7.216,74.352,3.486,117.285,11.241-15.892-10.23-36.692-6.4-51.7-11.194,7.747-2.862,7.87-6.489,19.427-4.121.12,2.1-1.429,2.044-1.681,3.641,5.289,2.476,3.762-3.884,7.9-2.909,1.032,1.845,4.013,2.131,4.552,4.375-.282-4,10.249,4.2,15.377-2.028,1.9,5,5.351,4.274,9.8,2.454-4.549,3.628,5.338,1.508,2.989,6.761,1.619-2.314,2.995-4.884,7.931-2.937-4.113,3.321-3.646,4.677-10.711,5.147,13.733,7.048,29.7,17.939,48.442,17.219.276-5.075,4.072-1.766,9.456-5.263,3.1,5.5,10.9,7.268,17.792,9.739,4.308-9.349,16.768-7.848,28.268-4.316-1.88,4.529,2.133,4.35,2.977,6.727,26.653,6.814,53.41,3.752,74.69,8.795,3.162-1.937,2.062-7.434,8.506-7.944-46.026-13.485-85.293-10.563-131.19-21.855l.744-6.321c13.621,1.443,37.539-1.467,47,8.1,3.226-4.109,12.343-.629,15.676-4.563-12.191-7.745-39.037-3.782-51.685-11.192.508-3.226,5.084-1.223,5.591-4.447,43.623,6.795,98.564,12.255,147.806,19.94,9.571,1.517,22.6,3.67,28.988,11.089.461-3.912,2.493-2.8,6.809-4.3-7.427-5.427-24.061-2.54-30.221-11.234,4.524-1.647,8.559,3.577,11.5-1.216,2.465,7.934,17.412,5.887,23.989,10.5-.364,1.455-2.37.8-3.883.844-.25,3.614,4.934,2.891,8.432,3.562-.235-2.5-4.719-1.6-3.137-5.508,5.745,3.246,20.919,2.951,17.774,9.77,2.59.89,2.585-1.518,2.945-3.492,5.931,5.61-6.073,5.823-7.632.4-3.442,1.027,4.839,2.067,1.742,6.58,1.736.921,6.627-.715,6.086,1.986a15.641,15.641,0,0,0,6.319-10.77c3.444,2.617,6.356.358,8.549,2.307-.659,1.907-2.052-1.379-2.631.959,2.157,4.97,3.214-3.46,6.53-1.8,2.269,2.383,2.54,6.35,3.925,9.441-3.733-2.36-10.918-1.937-14.634-4.293-1.423.775.287,4.911-4.327,4.6.946,5.739,8.216-3.162,6.87,5.949-29.111-7.592-67.2-13.995-96.344-17.754,17.1,8.521,56.054,10.18,71.805,22.54,3.815-.4-.868-2.834.593-5.036,3.995-.148,2.362,4.181,7.171,3.382-.11,2.295-1.832,2.484-1.846,4.92,21.734,10.725,49.982,12.977,66.381,25.708,1.36-.654,1.636-2.735,4.027-2.064-.39,9.713,11.669,4.269,10.176,10.143,2.43.742,3.921.2,4.016-2.1,3.386,2.156-.232,5.374,5.488,7.055-.379,1.451-2.4.791-3.881.812,6.249,8.347,25.182,6.511,28.227,17.408-16.883-3.973-33.059-13.554-49.39-19.9-.5,9.958,23.587,10.095,30.726,17.7-.451,5.606-7.246-2.74-9.161,2.758,8.448,11.469,34.666,11.63,46.463,23.394,2.937.379,3.927-1.749,7.612-.372,14.109,12.3,35.752,18.62,52.087,29.163-9.7.777-20.865-7.759-32.57-12.813-16.711-7.205-32.71-12.991-50.479-21.3-7.19-3.351-13.474-10.726-21.968-6.425.172,5.224,1.444,9.537,4.9,12.092-26.621-13.348-66.013-26.379-104.51-34.068,3.788-5.342,3.252-7.326,8.8-10.445,12.935,3.344,22.154,10.708,33.6,3.957-45.994-15.793-102.354-18.331-148.008-28.976-1.209,4.41,4.046,3.632,2.857,8.012-11.445,3.63-34.184-5.228-45.467-10.46-.455-3.5,2.864-2.134,4.177-3.347-1.474-3-7.2-2.6-9.5-4.956,2.668-4.825,13.7,1.157,17.861-1.735-7.928-12.22-28.032-4.5-42.969-10.166-9.683-3.71-24.845-4.324-35.945-5.535-13.348-1.442-28.094-4.642-36.986,3.322,1.794,3.138,6.651,3.841,10.769,5.1-5.147,4.339-17.45,2.6-22.414-2.639-15.379-1.907-28.266-1.831-43.992-1.341-.417-2.717-2.677-3.958-1.608-7.865-19.39-4.2-40.559-3.8-62.524-4.793-3.931-13.6-19.512-6.593-30.831-6.2-7.51-12.074-27.708-11.33-44.055-11.563-3.99,1.058,1.253,5.026-1.989,6.141l-6.233-.734c-15.125-15.377-46.249-.828-70.778-9.6,1.007,4.51,9.7,2.866,9.057,8.742-8.937,3.176-12.832-7.463-19.336-7.383,1.1,9.01,13.2,9.23,21.227,12.714,4.738-2.11,8.438-5.61,12.385-8.756,20.7-.653,30.942,20.362,46.4,13.14-.234,4.3.518,6.892,5.492,7.022-2.795,4.94-.4,8.02,4.386,5.655-4.157-2.018-1.408-9.565-3.495-13.226,1.96-.029,5.755-3.388,9.44-5.264,13.446,7.016,29,5.4,41.435,12.555-1.217,3.272-5.016,3.248-6.955,5.556,11.341,4.2,24.144,13.415,32.362,3.811,33.265-1.547,60.075,9.254,90.84,10.7,12.487.593,23.4,6.692,35.662,8.072,23.781,2.6,56.552,4.445,95.974,10,18.252,2.573,33.9,1.684,46.713,10.64,3.056.2.748-4.172-.819-3.933,4.089-3.944,7.62,8.28,13.551,2.863,7.005,10.779,30.088,3.511,34.909,14.324-5.127,1.87-10.991-5.133-15.23.776-7.339-7.272-14.115-6.248-25.984-4.328,1.987-1.62,1.421-3.9-2.054-4.079-1.005.5,2.221,7.286,5.325,8.3,2.946.868,0-5.823,4.179-3.347-2.419,8.693,6.761,1.284,5.341,8.306.8-2.866,5.581-.547,5.576-4.451,1.2,3.98,8.388,6.81,9.948,1.172,3.885,4.75,6.987,5.637,13.09,6.649,1.93-.326-.282-1.692.446-3.786,29.164,15.046,76.443,15.148,110.089,29.585-11.7-1.834-27.057-6.5-42-7.484,10.75,4.453,27.908,9.63,42.506,13.95,7.359,2.2,19.055,4.749,22.414,2.639,7.691,5.233,15.813,5.311,25.832,5.612,2.962,3.31-3.7,2.979-.744,6.32,6.585-1.989,12.167,3.32,11.856,6.5-3.775,4.4-9.479-2.58-15.095-.509,9.732,8.595,28.157,10.244,40.99,16.341,2.735-1.3,2.129-6.905,5.874-6.984,4.364,6.661,12.1,5.814,21.506,10.208-.12,2.784-4.48.059-6.368.551-.656,7.079,7.086,3.437,8.716,1.026,19.007,7.476,23.9,19.73,47.848,22.257-.8,4.459,5.541,3.189,4.091,8.157-7.43-2.144-21.051-13.407-27.083-5.759-3.328-3.058-8.941-4.272-13.1-6.649,1.733,6.807,12.271,11.561,19.307,7.38a6.2,6.2,0,0,0-1.684,3.672c32.256,6.759,56.106,29.474,93.953,37.93-9.682-6.311-25.281-10.979-28.36-16.154-12.6-2.2-30.376-12.652-41.5-22.809,41.662,15.412,83.181,42.386,122.2,55.34.012,2.213-2.5,3.023-.446,3.786-16.961-6.583-33.45-13.633-54.676-17.921,8.682,6.618,16.912,6.741,24.96,13.153,4.428.392-2.15-4.481,1.68-3.641,6.566,1.978,5.729,9.913,13.9,10.616-8.084,1.519-21.966-4.116-30.368-9.985-40.428-10.354-81.631-28.705-124.631-45.413-5.231-2.015-12.794,1.193-14.192-8.046,2.313.793,1.838,3.86,5.918,3.266,1.942-8.456-9.717-9.406-14.037-9.362a62.633,62.633,0,0,1,6.723,7.2c-12.866,4.8-19.041-1.461-32.809-.026,2.306,6.16,12.225,6.223,12.209,14.255-4.677-.455-10.186-.257-8.119-6.1-5.967,2.062-20.908.238-17.522,9.483-37.038-16.265-96.574-29.131-143.546-34.857-12.192-1.467-24.013-6.633-33.092,2.511-7.467-1.823-11.475.763-17.73.482-.1-2.094,1.444-2.041,1.7-3.639-3.77-1.354-6.194,6.427-9.014,1.509,3.434-8.183,16.371,1.115,25.792-4.672-59.554-7.955-118.444-19.64-179.677-17.287-13.509-6.762-38.49,1.648-55.5-.159-18.627-1.967-37.591-8.3-58.063-10.676-50.355-5.864-105.536-11.191-141.632-29.46,3.183-1.707,7.819-1.584,11.644-2.468l.745-6.319c-15.165-7.543-33.576-1.677-49.035-12.182,5.94-1.676,19.682.235,22.1,5.172,4.868-6.355,20.953,3.183,30.308-.27,2.114-14.811,34.738-5.6,45.7-2.294-.639,1.617-2.432,1.73-2.945,3.492.285,3.579,4.409,4.1,6.888,5.917,2.855-.672,3.618-4.031,5.708-5.7-4.94-5.168-14.087-7.026-15.927-14.691-38.223-2.257-92.941-11.919-126.461-8.484-1.948.877-4.926.429-4.327,4.6-10.746-.128-13.98-3.305-21.3-1.207-5.188-9.589-29.024-10.639-39.828-4.69-36.991-3.315-67.423-11.127-100.462-4.154,5.968,4.607,18.8,1.076,21.505,10.21-15.794,2.3-35.726-3.3-51.489-2.226,30.143,4.688,77.636,7.483,113.139,14.591-17.505,4.152-36.173-2.5-59.092-1.819,6.527,4.639,17.862,5.486,25.375,9.363-41.426,3.156-94.173-.094-141.019-2.521-44.345-2.294-86.181,5.434-132.125,7.471-18.428.823-38.842,5.445-57.793,8.548-72.442,11.864-147.891,22.04-222.294,33.966-16.643,2.692-30.775,6.266-50.034,6.926-25.259.831-49.573,6.035-73.974,6.64-20.767.548-40.627.194-60.782,1.79-33.074,2.642-65.448,14.313-100.211,15.1-19.631.419-39.025,5.65-58.876,7.118-4.339-.738-4.583,3.787-8.062,4.19-3.939.48-2-3.748-5.919-3.267-15.644,2.257-27.946-4-38-9.581-.7,2.1.684,2.487,2.205,2.8-3.092,3.508-4.213-4.138-7.022-4.663q-16.876-1.306-22.8,11.4c-.638-3.3-5.365-3.331-9.669-3.677-3.09.353-3.328,4.423-4.626,7.133,5.03,3.585,8.37,5.864,18.219,5.983-3.256,4.5-14.319-.97-14.721,7.211-6.538-11.893-25.639.235-33.4,5.013.867-1.785,2.224-2.959,3.076-4.745-3.687-1.377-3.91,1.751-7.6.405.344-3.731-2.307-5.053-4.238-6.905q-16.517,1.956-22.291,17.834c-2.99-3.475,2.743-8.037,1.632-13.86-23.782-2.736-33.434,4.878-49.241,10.824.831,2.341,4.12,4.908-1.68,3.641a118.164,118.164,0,0,1,1,12.9c-5.19-1.554-2.888-9.122-6.129-12.236l-7.466-.879c4.606-4.792-5.622-5.638-3.63-11.942-6.054-1.006-8.672,2.426-14.144,2.173,4.3-6.421,9.453-8.353,14.531-16.212,11.005,11.542,23.841-5.259,32.729-10.2-2.82-2.61-8.485,3.554-15.21.746-3.269.656-2.538,6.434-4.791,8.414-10.293,3.243-18.95-7.957-26.426-.576-3.508-4.934,4.428-3.966,3.686-9.779-2.344-13.873-13.148-3.565-18.041,2.983,3.106.592,3.369-2.466,5.444-3.2,3.06,4.524-5.418,6.518-9.607,6.545,1.736-9.293.55-11.741-2.9-18.263,2.249.525,10.223,1.171,12.09-6.254-2.457-1.46-5.893-1.018-9.65-3.706,2.552-6.009,3.1-11.051-2.547-10.512,5.634-1,3.477-4.47,2.277-8.71,4.956-1.368,10.234-2.34,13.339-6.1-2.717-1.427-8.615,2.205-10.9-3.853,3.927-4.612,9.071-7.715,8.445-18.2.252-3.223-3.865-2.992-7.167-3.414,5.753-8.95,9.59-12.532,13.069-25.328-6.841,6.22-14.227.569-25.032-1.646,6.62-3.092,17.1-1.272,25.474-2.108,4.436-4.031,2.277-16.482,8.465-18.226-.338,5.327-2.711,5.731-1.19,10.107,16.355-2.694,15.629-21.873,15.971-39.071-9.387-4.034-8.658,8.021-18.339,5.516,4.837-6.88,12.206-10.5,18.279-15.771,1.15-6.629-5.083-7.363-6.128-12.236-1.493.021-1.331,2.187-1.695,3.64-4.15.65-1.257-4.312-3.14-5.476-3.262,1.145-7.54.965-11.5,1.216-1.836-3.892-5.429-6.332-3.51-13.23-1.245-2.912-4.544,3.726-9,1.51,5.919-12.282,9.765-18.92,18.051-24.742-3.687,2.039-23.688,1.8-23.735,8.719.073-3.34-29.673-2.809-20.36,1.442-2.169,3.583-6.127-3.388-8.862.225-2.255,5.393,5.338,5.865,1.461,9.117-8.9-3.423-14.32-3.833-19.931-2.347.028,1.532,2.149,1.359,3.6,1.724-2.539,5.362-7.779-.524-11.2-1.319.581-1.655,3.241-.69,5.119-.7-2.415-2.237-4.1-5.07-6.726-7.168-4.163.486-3.809,6.74-6.153,9.49-.207-1.782.52-15.845-7.529-11.1-1.054,5.405,6.53,3.924,5.178,9.555-4.809.8-3.174-3.561-7.183-3.416,3.066,9.371,16.684,10.292,16.3,22.412-9.1-1.852-6.76-12.863-18.725-12.452-4-6.065-.411-16.116-9.563-15.21-.465-1.908,2.222-6.341-.508-6.435,3.27-4.071,10.754-2.669,10.2-11.613-8.72.924-12.4,3.679-17.282-3.3,5.354,1.379,14.021-3.584,20.228-.187,3.562-4.232,2.384-7.167,1.484-12.609-7.841-2.321-7.81,5.457-14.442,4.708-.612-9.375-1.4-16.266,6.412-22.307-.074-1.829-3.668-.855-3.439-2.942-6.447.282-.649,8.511-7.417,9.341-.028-4.4,1.336-7,2.451-9.925-4.938.264-4.445-.524-7.629.37-.5,4.2,3.543,4.776,2.693,9.262-8.617-8.529-15.552-12.013-15.842-26.163,5.031-2.823,7.445-.034,15.08.506.314,3.453-4.612,7.426-1.187,10.075,2.94-4.272,6.082-8.066,5.515-14.7,3.7,1.38,4.691-.748,7.631-.369-4-6.717-10.259-11.617-12.867-19.438-3.613-.783-5.215,4.525-6.233-.734,36.868-10.882-1.942-47.1,16.907-68.4-5.48.1-2.531-5.6-.059-10.252,3.552-.07,4.618,6.4,5.114-.667,2.726-.264,2.177,2.078,2.053,4.08a8.016,8.016,0,0,1,6.38-.517c-3.839-6.763,12.475-6.534,18.737-9.308-.822-2.016-3.771-2.3-5.919-3.267.825-3.319,3.638-4.06,4.64-7.129-8.63-2.156-16.885,8.158-28.57,6.881.295,5.532-7.651,5.734-6.929,15.806-5.346-3.492-1.346-6.4.1-11.5-3.089-2.64-3.057,5.267-3.879.812,2.582,5.444-9.369,7.777-13,13.854,1.16,5.667,2.943-1.019,7.481.881.329,5.243-3.33,5.4-5.87,6.953-1.977,6.565,6.109,5.046,6.423,9.734-2.226.519-.607,5.979-3.228,6.029-6.443-.175-4.083-7.411-6.291-10.988-6.5,1.09-8.974-4.829-12.286-2.714.506,3.473,9.189,11.034,2.249,13.046,2.267,1.991,4.428,4.067,2.693,9.262,4.853,1.418,5.408-2.745,10.261-1.328-7.9,2.42-10.684,11.46-18.128,14.486,1.85,5.39,2.908,11.4,11.274,11.574-4.072,4.887,2.089,8.41,5.325,8.3-2.39,9.543,6.43,10.093,6.769,17.419a28.139,28.139,0,0,0-7.156-3.38c-.971,2.943-.019,7.382,1,12.9-4.436-1.823-5.821-10.769-3.347-14.478-8.46-7.7-10.12-20.838-16.646-30.1-3.856,5.368,3.3,10.636-3.034,15-16.007-4.325-9.688-26.545-19.767-35.6,2.216-12.556-4.837-28.511,10.38-34.623-1.349-.809-4.058-1.356-4.389-5.623,1.2-5.258,6.957-4.613,8.655-9.228,2.55.692-2.254,3.215,2.039,4.079-.711-8.541-7.946-11.929-8.956-20.245,3.491-.5,2.205,2.8,4.67,3.12,3.158-20.154,11.808-33.285,22.779-43.377-2.325-4.762-4.76,2.432-8.862.225.421-8.342-4.135-12.684-8.015-17.6,1.655-2.341,6.493,2.327,11.2,1.319-1.278-6.98-10.65-7.466-6.638-18.671,4.5.855,4.9,7.44,7.467.879,1.941,1.5.2,5.944,2.992,6.728,5.668-4.96-6.973-9.831-.7-15.436-1.5-1.477-4.444-1.759-5.938-3.236-2.914-.864.02,5.825-4.178,3.347.6-4.289,1.434-8.776-1.294-10.4-3.771,1.378,2.565,7.23-1.039,8.822-1.441-1.242-2.051-8.86-4.39-5.623,4.17-12.389-12.277-22.393-5.785-36.525,2.327.794.386,5.022,4.52,4.369,5.053-4.641,7.794-12.255,10.009-20.581-7.9-1.647-15.837,11.114-25,8.6,4.922-5.307,11.879-8,14.529-16.21,3.585-.619,9.223,7.884,13.7,1.613,2.829,2.674,3.741,6.912,6.428,9.7,15.351.376,19.868-13.208,28.956-20.921,1.352,8.812-13.794,19.356-11.987,26.757,2.176,3.183,4.831-5.35,9.309-4.01-4.8,5.452-11,9.082-14.527,16.178,13.37-2.685,19.311-14.867,31.305-19.342-2.437,6.121-12,15.565-17.758,22.238.894,2.351,3.562,3.251,7.172,3.383-4.332,2.189-4.819,9.32-7.872,13.189.179,4.054,7.78,2.153,6.741,7.17-1.44,5.425-8.353,3.8-9.906,9.079,6.192,2.713,8.568-4.26,12.6.214,1.753-3.858.526-7.06,4.921-9.665.744-4.4-3.715-4.666-4.09-8.158,1.806-7.171,18.185-21.637,9.635-28.3,3.988-1.319.124-3.63,4.347-4.628a60.386,60.386,0,0,1-3.36,39.287c6.341-.066,11.6-1.529,11.287-10.185,11.252,2.495,11.361-5.917,21.088-7.763-.344-5.8-4.351-8.677-7.362-12.383,12-11.5-4.872-29.586-18.327-26.454,5.16-12.762-2.345-17.547-7.138-25.172l-4.983-.586c-4.7,1.235-2.742,11.03-7.721,11.907-3.909-.3-3.873-3.742-4.223-6.9.03-3.379,2.98-2.967,5.413-3.2-10.821-9.567-16.147,11.825-22.274,17.837-2.247-6.8,4.89-14.028,8.445-18.2-6.2-4.406-6.482,6.295-10.841,6.4-.483-4.48,2.018-5.161,3.374-7.278-2.164-.548-6.382.549-4.668-3.119,6.5,1.089,9.051-2.9,12.071-6.223,3.816,7.084,11.407-.316,15.378-2.028-2.5-5.434-9.34-.9-12.728,1.039-1.012-1.485-4.558-.928-3.288-4.226-17.974,11.415-38.8-7.852-30.79-27.923,3.957-.51,1.985,3.714,5.938,3.237,7.517-2.141,5.452-9.117,8.147-15.663-1.875-4.644-7.43,5.762-9.011,1.477,5.2-6.868,13.526-9.727,20.6-14.2-3.491-8.639-5.723-18.27-8.064-27.817,2.49-3.577,7.208-4.289,10.842-6.4.365,6.159,18.718.644,25.194.4-.435-3.109-7.679-.709-8.417-3.56,5.8-2.7,17.846,2.622,18.47-6.77-2.675-2.2-6.667,2.7-7.035-4.667-36.234,9.59-72.114,19.71-95.048,46.413,2.774-22.6,34.694-20.343,45.969-36.839,18.093-1.935,31.646-9.707,46.089-16.333,15.4,3.243,29.156-6.684,42.861-10.306-22.641,1.887-56.647,1.819-78.153,9.987-2.046-3.72,6.284-6.383,4.92-9.633,2.413-1.571,2.967-.823,2.2,2.8,12.531-5.908,23.237-5.72,37.731-9.641,2.8-.516-1.881-4.45-3.155-5.477,3.734-3.659,3.72,5.315,8.27,4.81,1.039-.1,1.4-1.135,2.649-.988,1.568-7.72-8.887-5.828-5.833-14.738,6.933,4.588,11.239-2.972,15.807-5.816-1.238,4.8,2.568,5.571,2.711,9.264,13.706-1.735,24.94-6.691,35.527-12.437,3.79-15.037,22.392-18.7,32.7-20.48.57,6.735-13.533,19.322-25.076,20.109,2.755,2.341,6.588,3.833,9.355,6.208-10.754,10.7-28.919,8.077-38.623,17.213,8.065-5.848,22.5,1.9,27.19-5.776,3.187.31,1.39,1.139.936,2.68,11.457-5.384,39.025,5.376,39.768-5.563,9.953,2.636,15.453-.49,22.86-1.147-1.4-3.06-8.613-1.5-12.3-2.717.706-3.949,6.9-.847,6.976-5.586-13.133-.147-33.173,3.347-45.718,2.293-1-5.127,3.916-3.833,5.28-1.948,8.362-5.489,20.486-8.225,32.316-6.409,65.726-20.623,136.8-34.372,207.6-48.511.768-3.261-4.708-1.564-3.14-5.478,10.374-1.216,24.773,2.756,31.857-2.655-3.657,5.456,10.8-1.267,19.257-2.84,15.46-2.863,30.951-3.673,46.165-6.079,39.373-6.292,90.423-14.626,135.635-16.034,81.281-2.5,168.859-14.5,241.914-29.119-9.138,10.047-31.423,3.194-39.562,14.565-4-1.839-4.284-.115-8.549-2.309-8.917,10.367-28.184,7.416-41.763,11.736,7.069,4.118,13.614,3.295,20.046,1.093,46.959-.293,91.033-16.67,138.747-20.809-28.019,15.013-74.448,14.621-110.117,24.18,122.413-15.153,244.922-42.688,385.7-39.056-1.65-4.228-5.6-2.254-9.817-2.425,22.327-15.424,75.179,8.462,95.736-9.218,14.575,5.88,38.846,13.844,59.15,12.071-2.16-4-12.712-1.269-13.1-6.649,10.732,2.141,21.371-1.582,26,4.329-12.571,9.937-21.081,3.209-37,3.32,20.184,5.369,44.729,10.6,64.575,8.9,7.872-.667,8.6-3.021,15.1.477,6.333,3.412,16.617.786,25.028,1.679,25.156,2.637,57.505,10.641,80.759,10.778-6.356-6.9-21.381-2.551-26.341-12.046-15.017,2.1-28.66,1.113-43.072,1.335-.357-3.913-4.382-4.875-5.325-8.3,7.117-6.513,16.376-.836,25.195.4,19.106,2.673,41.272,2.095,57.408,5.491.318-12.648-19.565-.417-21.833-7.711-10.186,3.974-30.488-2.972-47.429-4.282-13.49-1.069-34.956-.864-53.822-3.8-10.394-1.614-23.3-2.484-30.966-4.916-2.352-.731-3.44.475-3.287-4.224-3.441,4.7-2.506-.783-7.465-.879,30.541-1.023,62.26,7.038,90.2,5.482,26.166-1.44,50.7,10.687,76.876,11.622,7.2.262,14.59-2.154,21.61-1.294,21.931,2.648,42.5,13.007,66.448,14.233-13.236,3.319-35.8-4.151-55.191-2.662.717,5.907,12.233,3.164,15.57,6.973-.423,5.219-8.82.262-12.744,1.037,7.126,5,23.956,4.935,36.9,8.182,3.537-.754-1.693-4.687,1.991-6.14,5.067,1.9,3.783.966,9.948,1.171,4.245,13.25,14.258,4.347,23.5,4.036,8.937-.313,17.67,6.146,25.983,4.329,2.563,7.783,22.449,8.725,36.6,10.716.862-2.956-5.742.007-3.287-4.224,6.564,5,21.129-4.018,25.7,6.864,1.918-7.71,17.793,2.518,19.555-5.373,4.212,4.952,4.029-.437,11.2,1.319,5.2-.006-1.352,3.028,1.906,5.33l11.2,1.319c2.961,3.31-3.707,3.012-.745,6.32,3.815-3.259,12.682-6.379,19.11-1.588-.824,5.369-5.348-2.385-7.76,1.624,13.943,3.2,35.642,8.913,47.143,6.852-3.257,5.6,5.929.861,8.716,1.026,1.054,4.255-4.132.49-3.092,4.742,12.631-3.359,59.013,13.1,89.025,15.623,5.575.461,10.434-1.991,15.231-.777,7.553,1.9,14.172,8.337,21.52,10.212C1858.537,2870.522,1883.625,2873.476,1909.62,2880.83ZM2095.2,3040.888c1.178,4.011,4.963,5.919,10.616,6.39C2106.353,3041.877,2098.267,3043.4,2095.2,3040.888ZM1918.327,2967.6c4.484.594,5.655,3.855,9.519,4.959.674-2.457-1.382-2.7-2.053-4.08.7.082,1.544-.859.151-1.283C1924.366,2971.593,1919.9,2963.2,1918.327,2967.6Zm107.818,670.454c3.274,1.2,2.477,5.659,6.868,5.948C2033.316,3640.62,2029.824,3634.452,2026.145,3638.05ZM1400.906,2796.6c5.031-.775,14.98,4.756,16.476-.6C1410.5,2794.8,1406.834,2793.1,1400.906,2796.6Zm59.891,5.783c-12.141-2.307-25.414-6.993-36.244-3,30.9,5.329,49.74,8.1,85.293,15.183C1500.83,2801.925,1477.724,2805.579,1460.8,2802.382Zm173,20.37c-4.795.412-5.767-2.241-9.8-2.423C1622.215,2824.512,1632.984,2824.446,1633.793,2822.752Zm-89.1-4.083c13.912-1.42,19.387,6.283,32.646,1.274C1570.044,2817.458,1551.552,2812.028,1544.691,2818.669Zm.446-3.786c-3.284-1.786-10.44-3.8-12.595-.214C1534.58,2816.567,1544.227,2818.939,1545.137,2814.883Zm-363.884-39.01c5.136.767,9.641.778,12.745-1.068C1189.12,2775.108,1185.755,2770.45,1181.253,2775.873Zm399.535,47.046c3.193-2.193,21.322,6.057,20.2-.191C1598.017,2824.1,1580.223,2818.038,1580.788,2822.919Zm23.63,2.783c.168,1.027.871,1.6,2.352,1.544,80.169,15.524,151.983,27.1,230.659,45.083,25.876,5.91,51.888,13.137,74.375,11.328-54.738-10.446-94.352-25.942-144.278-28.5,1.258-4.828-7.1-1.942-6.868-5.948-22.085-.259-38.028-4.867-64.564-8.871-1.908-.549-.541-2.893.446-3.785C1664.9,2840.662,1628.716,2822.285,1604.418,2825.7Zm-433.263-49.75c14.283-.074,3.325-4-4.835-1.837C1168.5,2774.273,1170.166,2774.828,1171.155,2775.952Zm-56.324-4.063c3.628,2.021,12.806.467,19.931,2.347C1131.436,2767.469,1123.195,2770.045,1114.831,2771.889Zm849.314,128.145c-.225-3.67-9.5-6.03-12.153-3.969C1956.958,2896.65,1959.163,2899.447,1964.145,2900.034Zm25.685,6.863c1.3,1.648,4.228,1.96,7.314,2.162C1997.616,2905.471,1989.969,2903.4,1989.83,2906.9Zm-602.547-69.65c-11.025-2.926-25.263-1.869-37.194-5.681C1354.47,2837.936,1377.3,2837.631,1387.283,2837.247Zm9.8,2.423c3.31.357,7.256,1.569,7.764-1.655C1402.2,2838.482,1396.452,2834.976,1397.086,2839.67Zm8.714,1.026c16.507,4.187,6.654-4.617,0,0Zm9.222,7.493c3.31.358,7.24,1.568,7.764-1.656C1420.133,2847,1414.371,2843.494,1415.022,2848.189Zm88.372,10.406c1.777-4.183-9.009-4.119-9.817-2.425C1497.094,2859.122,1500.255,2855.3,1503.394,2858.595Zm-344.119-35.413c-30.961-1.273-64.217-2.944-90.645-1.729.955,4.146-2.324,2.849-3.08,4.777,2.931.311,3.4,2.611,7.3,2.127,3.018-10.931,27.468-1.352,40.882-4.131-.123,2-.687,4.343,2.037,4.079,1.237-6,.267,1.56,3.734.439,3.845.843-2.749-4.032,1.68-3.64,18.512,2.8,44.669,4.024,66.42,3.984C1181.031,2820.376,1169.232,2823.6,1159.275,2823.182Zm261.072,33.311c-3.329-5.37-21.124-5.155-27.234-4.476C1400.028,2853.9,1418.328,2858.239,1420.347,2856.493Zm51.028,6.009c5.13.277,11.861,2.632,14-.922C1480.657,2861.838,1472.8,2858.018,1471.375,2862.5Zm87.778,15.442c3.516-.3,5.575-2.531,9.162-2.76,4.138,6.668,13.68,2.587,21,3.742,8.626,1.374,19.652,10.153,23.957.285-35.673-4.982-65.832-11.428-100.673-13.124C1530.138,2874.3,1548.444,2872.065,1559.153,2877.944ZM1385.5,2852.39c-2.712-2.434-14.228-3.79-17.431-2.053C1373.059,2852.226,1377.92,2850.846,1385.5,2852.39Zm-76.414,16.6,13.7,1.613,13.7,1.612,6.216.732,7.482.881c.514-2.737-4.36-1.1-6.08-2.018l-7.467-.879c-55.194-7.117-99.872-8.215-145.767-15.862a3.4,3.4,0,0,1,4.032-2.095c4.3-1.381-3.472-2.394-3.288-4.226,1.378-2.44,7.2-2.405,4.478-5.881-8.021-1.887-14.349,1.043-17.431-2.052,3.947-2.2,12.377,1.392,13.191-4.854-22.433-3.682-46.383,1.954-70.157-4.391,7.479,10.444,24.811,2.3,36.9,8.184-1.543,5.477-9.835-4.184-11.644,2.466,10.459,2.566,16.861-1.82,22.234,3.887-.789,1.664-8.7-1.447-5.4,3.2,4.643-.071,22.178,2.189,21.952,6.422-5.945-.861-11.694-1.473-15.247.775C1211.645,2862.33,1263.476,2865.733,1309.086,2868.991Zm-271.079-44.737c2.064,2.488,8.729,2.686,10.1-.079-.931-.4-1.315-1.229-.936-2.679A24.937,24.937,0,0,0,1038.007,2824.254Zm706.353,88.313c-.033-3-1.82-5.515.891-7.57-1.883.461-6.264-2.235-6.363.519C1741.3,2907.394,1741.706,2910.856,1744.36,2912.567Zm-30.31.27c-38.852-7.8-61.476-12.736-97.725-16.647C1648.045,2903.276,1681.956,2908.928,1714.05,2912.837Zm-562.567-66.243c-12.806-1.963-36.747-4.164-45.42-.242,22.4,7.127,34.519-.066,53.674,5.052C1162.5,2842.654,1155.248,2847.167,1151.483,2846.594Zm564.9,67.787c9.6,1.455,16.515,5.067,27.082,5.759C1742.305,2913.27,1718.072,2913.277,1716.386,2914.381Zm-225.72-22.742c-20.818-7.329-55.945-9.319-79.509-10.629C1437.285,2886.558,1466.552,2888.6,1490.666,2891.639Zm-581.991-62.122c4.44.295,13.283-1.265,12.9-2.32C916,2826.314,910.546,2825.607,908.675,2829.517Zm977.333,112.513c-3.874.357-10.535-2.867-12.6-.214C1878.51,2942.643,1883.043,2948.414,1886.008,2942.03Zm9.368,6.243c2.068-4.084-5.711-5.975-7.183-3.416C1890.715,2945.9,1891.381,2948.42,1895.376,2948.273Zm17.268,3.3a39.875,39.875,0,0,0-12.15-4C1900.715,2951.276,1910.495,2953.209,1912.644,2951.575ZM887.869,2834.743c7.961,1.036,14.74.533,20.36-1.44C901.383,2833.7,893.366,2832.594,887.869,2834.743Zm1039.114,123.626c-1.505-4.112-6.8-5.223-11.84-6.5C1916.167,2956.38,1921.937,2957.092,1926.983,2958.369Zm-552.6-65.069c19.612,3.415,42.908,7,64.872,6.369C1419.785,2897.216,1400.085,2893.593,1374.381,2893.3Zm84.623,9.964c6-1.245,18.483,6.47,26.295,1.827C1477.813,2903.56,1466.268,2899.045,1459,2903.264Zm-247.181-22.7c8.22.609,24.763.248,31.412,1.129-9.095-7.61-23.6-6.847-40.617-8.622-17.951-1.854-54.834-2.293-73.082-.93,15.325,4.278,39.925,1.418,54.313,10.235.922-4.836,14.331-4.167,13.7,1.613C1205.966,2877.73,1207.649,2887.556,1211.823,2880.567Zm283.126,28.23c3.875-.356,10.535,2.868,12.6.183C1505.115,2908.271,1495.754,2903.461,1494.949,2908.8Zm-247.835-27.914c-.584,6.47,7.223-.45,8.417,3.561C1255.94,2879.483,1250.4,2880.1,1247.114,2880.883Zm699.186,84.9c-.995.143-2.456-.256-2.63.96,1.647.583,2.161,2.076,4.835,1.836l.593-5.036c-1.493.019-3.5-.64-3.881.812C1945.949,2964.538,1946.665,2964.721,1946.3,2965.783Zm-352.8-36.437c3.048-.42,8.826,2.667,10.1-.111C1601.546,2926.782,1594.85,2926.58,1593.5,2929.346Zm-768.833-82.854c-2.255,5.524,6.574-1.5,7.166,3.414-12.307,2.1-27.455.539-36.184,7.254,21.864-.32,31.112-2.582,48.335-3.254,2.639-.08-1.447-3.651,2.933-3.525,15.152,2.467,36.669.739,49.733-4.391C871.021,2848.307,848.255,2840.227,824.665,2846.492Zm291.025,25.291-8.7-1.024c-9.99.256-21.134-.992-30.331.3C1085.825,2873.862,1103.124,2872.938,1115.69,2871.783Zm511.388,61.518c2.731,4.323,15.394,6.692,20.867,5.026C1639.05,2934.191,1635.443,2932.4,1627.078,2933.3Zm53.081,10.089c-.931-.4-1.315-1.228-.95-2.682-3.807-.643-7.375,2.158-9.95-1.172C1668.981,2945.033,1676.165,2944.352,1680.159,2943.39Zm-282.832-30.735c-2.971-2.691-3.812.1-7.3-2.16C1387.781,2914.329,1397.086,2914.579,1397.327,2912.655Zm551.237,66.178c-1.021-1.942-7.308-5.48-9.818-2.425C1941.24,2977.158,1946.4,2981.571,1948.564,2978.833ZM1407,2916.332c5.475-1.016,9.4,5.042,11.346.067C1411.991,2916.009,1409.809,2912.207,1407,2916.332Zm241.156,30.966c-5.517-3.675-18.734-3.508-22.266-3.891C1631.9,2947.075,1644.247,2950.382,1648.154,2947.3Zm24.9,2.932c-6.228-2.815-19.727-7.2-22.712-.106C1658.806,2953.4,1671.2,2951.118,1673.051,2950.23Zm-928-102.867c4.12.42,8.749,1.552,9.162-2.76C750.391,2844.511,745.744,2843.379,745.051,2847.363Zm-4.566,17.385c10.021-2.43,25.349,1.685,33.553-6.294-8.486-3.114-13.921,5.32-20.209.157l.446-3.787c9.792-1.448,21.814-.032,28.419-5.6-11.924,1.3-21.484-3.311-30.46,1.553-16.337-1.4-29.431,8.342-40.227,9.315-1.054,3.91,2.712,3.93,4.39,5.623,6.832-9.409,25.894-9.083,30.6-2.771C743.955,2862.392,740.985,2862.009,740.485,2864.748Zm1188.077,123.245c4.041-.272,3.548,2.824,6.217.732l.446-3.787C1932.03,2984.692,1930.586,2986.734,1928.562,2987.993Zm-35.988,16.221c-5.075-8.112-23.447-11.706-33.959-11.643,12.8,3.3,6.892,6.569,19.6,4.847,1.651.973-.382,4.9,1.907,5.33C1881.953,2995.125,1892.118,3003.314,1892.574,3004.214Zm44.7,16.812c-5.02-.007-7.859-3.952-3.137-5.509-12.609-3.631-26.772-12.066-38.937-12.262.752.153,1.448.367,1.087,1.4-.755.009-1.483.053-1.385,1.137,10.984,1.912,13.957,4.865,24.6,5.466.107,3.722,1.935,6.05,5.492,7.022a3.521,3.521,0,0,1,2.913-3.494C1927.814,3018.447,1937.345,3024.806,1937.278,3021.026Zm-510.2-71.625a20.751,20.751,0,0,1-12.447-1.466C1415.173,2953.821,1423.978,2951.9,1427.078,2949.4Zm177.7,23.494c4.683,3.414,10.32,3.751,16.165,1.9a6,6,0,0,1-1.694,3.64c10.513-.486,18.843,4.5,27.527,1.972C1636.407,2971.61,1619.066,2973.7,1604.775,2972.9Zm52.767,12.622c33.66.417,51.511,15.791,85.727,11.361,2.677,3.277,15.278,8.208,22.262,3.924-38.33-14.7-79.468-19.018-117.655-18.993C1653.083,2983.886,1656.245,2981.689,1657.542,2985.517Zm117.643,18.958c5.1,2.976,12.814,3.949,19.914,2.345C1788.77,3006.238,1781.318,3001.424,1775.185,3004.475Zm80.309,14.6c1.842.445,4.64.092,4.821,1.837-3.733,1.869-9.68-2.376-14.785-3.01.148,9.775,16.228,6.822,22.609,11.607-1.351-4.063.554-6.473,5.723-5.7C1877,3011.455,1860.4,3016.885,1855.494,3019.071Zm-252.31-22.034c21.429,3.5,42.714,12.056,60.04,4.5C1639.054,3002.92,1621.168,2986.633,1603.184,2997.037Zm79.151,2.914c-7.7,1.954-9.776,4.442-17.86,1.733,4.265,6.13,15.393,4.644,19.452,6.13,13.725,5.063,32.562,8.649,50.434,11.046,16.349,2.25,35.932,8.361,49.643,7.146,1.567,7.666,25.447,12.689,33.3,6.491-5.044-1.83-6.152-.172-9.649-3.706a3.449,3.449,0,0,0,4.03-2.095c-20.66-2.824-44.8-13.96-63.03-11.261.863-8.55-17.736,2.044-26.933-7.01,1-.174,2.454.257,2.646-.956-10.9.083-17.309-6.494-26.31-1.83,3.727-4.278-3.011-1.4-4.967-.585,2.952-4.369-12.016-5.545-9.949-1.172C1683.25,3002.27,1681.745,3001.963,1682.335,2999.951Zm114.057,17.267c27.191,5.935,61.247,19.736,75.985,19.194C1855,3027.21,1818.912,3018.146,1796.392,3017.218Zm127.458,21.417c4.15.976,11.46,4.96,12.747-1.069C1932.2,3037.731,1925,3034.314,1923.85,3038.635Zm-46,4.828c-20.972-6.989-42.538-12.456-58.2-9.422,35.52,10.786,76.044,17.608,112.873,27.343C1917.114,3052.935,1896.262,3049.569,1877.849,3043.463Zm39.979,3.407c7,1.735,7.355-1.312.147-1.251-11.181-3.365-24.079-9.6-31.261-2.412C1897.9,3045.858,1908.643,3042.212,1917.828,3046.87Zm-296.214-34.879c1.709,7.552,8.675,3.949,8.7,1.024.85,3.679,5.477,3.051,7.331,2.164-.948-.4-1.312-1.26-.952-2.682C1630.031,3009.957,1624.028,3013.674,1621.614,3011.991Zm-17.877,1.733c4.989.263,15.261,7.132,15.378-2.028C1613.913,3012.288,1608.432,3012.52,1603.737,3013.724Zm356.909,44.6c-9.859-1.26-19.232-8.967-28.185-7.158C1943.017,3053.317,1953.328,3060,1960.646,3058.321Zm-233.989-27.553c2.784-2.535,8.064,2.608,13.7,1.613C1741.455,3027.4,1722.77,3027.546,1726.657,3030.768Zm88.074,12.941c-8.491.334-17.14-3.158-20.078-1.1C1799.955,3042.945,1811.379,3049.3,1814.731,3043.709Zm-199.586-19.7c-7.715-1.754-17.982-1.987-23.5-4.036C1596.29,3025.208,1609.152,3025.747,1615.145,3024.012Zm5.321,8.336c4.12.42,6.454-1.42,11.35.036-4.116-4.941-8.185-8.935-15.588-6.943C1618.879,3026.762,1618.839,3030.238,1620.466,3032.348Zm-22.23-3.918c4.872,1.256,16.932,1.929,10.4-2.615C1606.389,3031.5,1600.237,3023.558,1598.236,3028.43Zm260.268,29.378c6.055.876,13.176.868,17.267,3.3C1874.644,3057.463,1860.954,3052.924,1858.5,3057.808Zm-205.674-21.649c5.987.087,1.19,1.734,3.286,4.226,4.53.077,6.223-1.22,9.966,1.173,6.751,1.769,9.993-.84,1.382-1.106-1.3-1.65-4.213-1.96-7.3-2.161.022-3.446-4.987-2.865-5.639-5.771-4.961,1.139-11.166-2.551-16.476.6.838,3.512,10.967-.4,9.515,4.99C1651.034,3036.012,1655.166,3040.694,1652.83,3036.159Zm324.995,36.968c-6.874.1-8.729-5.809-16.017-3.155C1968.936,3069.217,1974.216,3085.127,1977.825,3073.127ZM1707.16,3046.4c3.182.211,6.416.527,6.662-3.054C1711.519,3044.24,1707.138,3042.489,1707.16,3046.4Zm-16.181-1.905.3-2.535c-3.611,1.657-6.189-2.454-10.115.11l-.892,7.57c14.215,2.26,37.808,11.089,53.525,6.3C1716.313,3052.969,1697.432,3053.836,1690.979,3044.49Zm1.087,1.4c3.636,2.217,9.3,2.3,11.508-1.181C1698.781,3041.959,1695.91,3042.792,1692.066,3045.885Zm54.461,8.982c3.39.5,2.764-1.821,4.982.587a5.914,5.914,0,0,1,1.7-3.637c-1.734-.531-1.858-2.334-3.435-2.974C1746.658,3051.436,1748.267,3052.08,1746.527,3054.867Zm19.273-2.836c-1.957,1.916-16.77-.576-5.277,1.915,6.074,1.4,12,4.763,16.181,1.905C1771.979,3053.083,1769.216,3055.849,1765.8,3052.031Zm35.042,13.071c-.07,3.992-3.2-3.629-3.865.814,1.377,1.917,5.86,2.673,6.364-.52-2.707-1.261-3.284-4.257-4.238-6.907-6.6.72-18.445-5.295-21.447.044,6.824.609,11.662,2.837,17.117,4.585.747-2.123-1.454-3.455.449-3.817C1794.423,3063.37,1799.426,3062.82,1800.842,3065.1Zm6.084,1.985c2.286.205,3.445,6.976,5.918,3.267-.932-1.477,10.245-1.885,8.225-5.44,6.06,3.706,11.457,2,19.616,4.88-1.417,6.176,4.049,8.25,5.922,3.233-1.827-.41-4.644-.059-4.835-1.836-.129-3.53,4.774-.642,5.428-3.2-13.283-.23-19.7-5.345-31.113-3.664,1.363.421,1.779,1.64,2.186,2.828-2.1-1-7.485.647-7.319-2.131.349-2.008,3.3-.62,2.932-3.525-3.858.358-10.519-2.866-12.6-.183C1803.615,3064.419,1813.314,3066.636,1806.926,3067.087Zm-37.2-5.649c-13.129-2.1-20.241-2.025-32.2-5.06C1746.477,3060.88,1756.429,3067.743,1769.729,3061.438Zm17.137,4.555c2.065,1.382,3.165,4.439,6.079,2.018C1794.262,3062.962,1788.293,3063.4,1786.866,3065.993Zm136.662,28.908c-9.413-15-41.514-2.644-48.589-15.968-9.845-1.647-22.411-5.24-28.63-3.371-.69,1.774-1.736,1.942-.446,3.786,65.034,13.317,118.35,26.719,182.83,54.8,2.143-1.991,5.227,1.918,7.76-1.623,4.294,9.71,18.607,8.273,26.343,12.047C2026.683,3120.449,1962.375,3102.6,1923.528,3094.9Zm16.881,17.34c5.464,1.263,7.586.537,7.763-1.656,7.638,1.746,24.094,7.717,28.986,11.122-.932-.4-1.316-1.227-.936-2.68,5.685,7.013,9.859,4.122,18.218,5.984,1.947,1.857-.855,7.544,2.842,8.011,11.013-2.963,31.033,4.207,37.687,12.115,13.68,1.089,30.89,17.818,42.818,11.448a4.8,4.8,0,0,1-.744,6.321c8.507-3.746,12.8,4.306,18.962-.337-3.632-1.565-10.164-6.824-12.3-2.748-1.537-4.931-9.561-7.34-13.387-4.115,3.481-4.924-14.089-10.147-15.885-4.438.353-2.172.176-3.948-.655-5.185-37.292-15.483-75.964-29.859-118.846-40.893a6.024,6.024,0,0,0,.789,3.93c-.015.812.012,1.53,1.1,1.431C1937.545,3104.553,1947.779,3110.93,1940.409,3112.241Zm137.632,31.559c-.049-3.388-2.771-4.651-5.638-5.77C2071.763,3141.955,2075.087,3142.736,2078.041,3143.8Zm-136.426-9.656c-.718-.442-4.423-3.708-4.968-.585C1940.057,3136.888,1954.389,3135.55,1941.615,3134.144Zm10.767,5.107c1.973-3.672,4.109,1.881,7.467.879C1962.038,3134.89,1947.75,3136.915,1952.382,3139.251Zm100.865,22.122c-.686-3.431,8.835.293,4.478-5.881-3.136,7.568-12.12-4.257-15.079-.507A24.34,24.34,0,0,1,2053.247,3161.373ZM2116,3175.137c-.614-6.219-14.956-12.852-19.188-8.634C2103.929,3166.235,2108.79,3174.125,2116,3175.137Zm12.939,7.932c.165-5.348,4.155-.421,6.364-.519,1.446-3.441-1.37-3.479-.506-6.468-4.906,2.025-7.3-1.706-13.682-1.611C2120.821,3179.674,2127.455,3179.316,2128.937,3183.069ZM1941.292,3158.4c.244,4.875,9.732,4.235,1.755,6.613,10.36,2.588,40.893,5.044,30.516,8.733,9.841,2.363,21.424,6.948,28.036,8.409-12.724,1.689-32.495-6.364-45.257-1.492,5.975.607,13.74,6.3,13.834.328,4.081,2.108,8.908,9.6,14.35,6.829-2.651-1.319-6.667-1.532-7.036-4.667,5.453-2.317,6.386,3.387,9.372,6.211,18.245,4.685,38.622,10.046,57.452,15.742,1.647.162,1.4-2.079,2.781-2.242,8.654,8.078,29.265,16.359,37.985,9.58-24.7-8.047-54.257-17.936-81.291-27.5,2.029-1.713,5.149-2.06,9.008-1.475,2.882.729,1.793,4.666,5.771,4.516,17.576-3.524,24.032,7.157,41.882,8.771C2022.3,3182.71,1986.72,3166.614,1941.292,3158.4Zm-285.614-28.492c-47.722-5.619-84.405-10.59-123.533-11.977,28.738,10.214,62.249,2.646,92.911,14.778,2.094-1.184,3.076-3.8,6.676-3.051,23.288,4.074,44.471,13.075,64.431,10.123C1688.517,3131.859,1671.859,3131.817,1655.678,3129.912ZM2182,3193.155c-10.162-5.49-8.81,3.322,0,0Zm-468.276-52.571c5.612.141,8.709,1.482,5.623,5.77,6.246,3.337,11.793,1.843,14.291-3.425C1730.529,3140.481,1713.177,3138.438,1713.726,3140.584Zm321.112,37.812c-2.931-.312-3.414-2.614-7.318-2.129C2026.86,3180.905,2033.257,3181.332,2034.838,3178.4ZM2195.4,3197.3c-4.137.263-5.687-1.547-8.569-2.276C2186.541,3198.6,2194.786,3201.167,2195.4,3197.3Zm-218.8-6.572c2.085-4.081-5.68-5.972-7.167-3.414C1974.555,3186.292,1971.487,3191.786,1976.6,3190.73ZM30.947,2964.2c.238-1.34,1.714-.808,1.1,1.4-28.679,2.219-54.448,19.22-61.512,40.117,17.113-25.471,51.9-28.237,77.036-43.4-3.851-1.072-5.064,1.192-7.76,1.622C42.967,2956.5,26.261,2960.813,30.947,2964.2Zm2050.206,238.845c-.752-1.1-6.611-3.641-7.467-.879C2076.257,3203.212,2079.947,3207.289,2081.153,3203.041ZM-44.11,2969.408c6.034.516,8.979-2.976,13.19-4.822C-36.564,2964.573-41.574,2965.447-44.11,2969.408ZM2289.843,3241.7c2.23.262,6.86,4.255,8.731,1.028C2294.712,3242.434,2292.359,3237.9,2289.843,3241.7ZM-53.124,2970.917c-3.445-2.748-11.209-4.638-15.231.776,6.586.874,16.732,2.686,23-2.432C-47.238,2966.828-51.252,2969.055-53.124,2970.917Zm1946.751,227.964c-13.87-2.608-24.386-7.685-39.678-5.973C1867.941,3194.882,1878.654,3198.42,1893.627,3198.881Zm-98.471-10.326c10.858,3.263,19.024,6.371,29.566,6.051,12.243,5.8,31.463,12.13,46.55,11.889-5.149-.8-.15-.9.3-2.534-11.166.311-6.868-5-13.7-1.613.147-1.252,1.19-1.389,1.549-2.387C1840.318,3197.678,1807.4,3187.785,1795.156,3188.555Zm-134.074-8.11c-7.12,1.08,10.369,3.594,16.165,1.9C1670.931,3178.513,1663.008,3180.15,1661.082,3180.445Zm18.513,3.48c3.085-.449,8.863,2.638,10.117-.109C1687.451,3181.077,1681.652,3181.987,1679.595,3183.925ZM-39.975,2987.818c-1.575-.25-1.52-1.806-3.586-1.691-13.831,13.691-38.124,21.7-42.841,42.282,3.667-1.585,6.357-4.423,10.705-5.115-1.913,4.393-10.877,5.616-8.8,10.478,6.82-1.408,12.153-4.749,17.371-8.2,2.437,5.85,11.295,1.85,15.079.507,1.358-3.776-.723-4.768-.343-7.716,15.562-5.1,21.909-26.045,27.007-36.5A22.35,22.35,0,0,0-39.975,2987.818ZM1845.2,3213.64c-13.391-3.952-35.158-5.539-49.347-9.65C1807.529,3210.276,1829.426,3214.448,1845.2,3213.64Zm25.67,6.859c2.947,2.886,12.025,2.327,12.463,1.468-.949-.372-1.33-1.229-.954-2.649C1881.406,3223.4,1859.13,3216.189,1870.875,3220.5Zm84.1,25.257c-8.818-1.1-15.213-9.176-22.119-5.141-3.133-3.753-16.872-5.435-8.758-11.278-8.352-.169-12.933-3.343-19.6-4.878.357,5.41,13.158,11.374,4.726,13.373,4.187,1.5,5.419-.794,7.766-1.655C1923.081,3243.594,1945.126,3243.913,1954.98,3245.756Zm-372.5-51.507c8.287.164,10.732-.426,17.284,3.3C1598.718,3190.892,1586.055,3190.442,1582.479,3194.249Zm381.511,50.032c.143,3.562-6.667-1.795-6.527,1.768,8.954,4.6,20.888,6.2,29.881,3.518-19.767-8.508-45.487-13.976-62.14-18.831C1934.551,3238.115,1953.035,3238.176,1963.99,3244.281Zm-92.909-14.779c-2.291-.563-7.856-4.243-9.965-1.174C1864.541,3227.984,1868.475,3232.969,1871.081,3229.5Zm117.2,22.745c3.984,2.94,13.953,7.075,19.632,4.881C2000.5,3256.743,1994.99,3247.28,1988.278,3252.247ZM-94.064,3018.562c5.177,1.261,9.05-6.708,7.406-9.373C-89.348,3012.026-93.171,3013.431-94.064,3018.562Zm2198.023,258.821c3.832,1.1,5.182-2.188,7.45.877C2112.273,3273.515,2104.222,3272.567,2103.959,3277.383ZM-66.58,3042.291c2.55-.676,2.951-9.119-.191-9C-67.051,3035.4-71.908,3042.053-66.58,3042.291ZM1660.138,3263.5c4.2,1.112,9.732,3.975,11.493-1.183C1667.534,3262.391,1661.071,3259.386,1660.138,3263.5Zm25.191.43c-5.346.736-5.527-.326-11.215-1.321C1672.547,3266.526,1685.945,3268.1,1685.329,3263.934Zm3.423,2.939c6.392,2.51,18.812,7.745,23.81,1.535C1702.374,3267.079,1697.613,3263.525,1688.752,3266.873Zm-329.156-1.645c1.628,2.241,6.883,2.7,6.527-1.768C1363.826,3263.9,1360.874,3263.491,1359.6,3265.228Zm-126-12.267,14.931,1.758C1248.862,3250.237,1234.4,3249.444,1233.6,3252.961Zm576.769,74.324c11.085.654,22.55,7.078,32.2,5.058C1832.632,3330.361,1816.923,3321.453,1810.365,3327.285ZM-16.2,3128.824c2.669-.467,8.41,3.072,7.779-1.653C-11.727,3126.814-15.677,3125.633-16.2,3128.824Zm-9.043,23.267c4.506.952,7.078-.6,10.247-1.364-.555-4.132-2.866-6.844-5.192-9.556C-20.584,3146.459-24.715,3146.948-25.24,3152.091Zm1306.863,153.885c9,1.32,12.613,4.281,20.049,1.058C1293.043,3305.953,1287.893,3300.794,1281.623,3305.976Zm-1302.175-150.8c-2.176,4.85,1.209,9.217,3.284,4.257-.947-.405-2.445-.353-2.348-1.577,1.015-2.092,5.9.793,6.515-1.8-1.63-.192-.864-2.346-2.19-2.794C-16.313,3154.865-18.223,3155.29-20.552,3155.179Zm-60.34-1.966c-3.563,6.965,3.454,14.524,5.074,21.057-2.31-.532-2.907,1.121-5.118.7-3.65-1.274-2.787-6.151-5.34-8.3-.225,5.178-2.67.337-5.115.667a28.086,28.086,0,0,0,1.593,7.863c5.318,1.408,11.955.336,8.416,3.561,4.493,1.9,3.914-2.727,7.765-1.655-1.462,5.878-4.205,10.108-8.955,11.76,0-2.438,1.721-2.626,1.847-4.922-3.007-1.556-6.946-1.76-9.014,1.509,8.009-1.692,1.362,13.756,9.563,15.21,1.676-2.241-.059-7.39,4.776-8.414,5.523,6.342,14.074-7.841,22.349-7.582.591-3.931-3.5-4.087-1.44-9.148a23.914,23.914,0,0,0,12.221-7.506c-5.9-3.654-4.32-13.29-12.046-15.5-1.023,1.6-2.933,2.029-5.28,1.948-.781,6.771-8.808,11.876-11.449,11.435,1.346-3.68,8.853-6.96,7.421-9.371C-68.915,3161-76.967,3156.375-80.892,3153.213ZM1084.071,3290.39c3.31.356,7.256,1.57,7.764-1.656C1088.526,3288.378,1084.594,3287.165,1084.071,3290.39Zm356.91,44.6c-.762-1.164-4.193.742-3.881.812,9.8,2.683,12.373,4.286,18.175-4.268-13.544.064-32.721-7.171-42.626-2.45C1421.525,3332.7,1438.131,3330.585,1440.981,3334.986ZM-18.6,3170.793c.511,12.127,15.5,4.657,20.049,1.06-5.532.26-5.093-4.275-9.5-4.958C-7.61,3173.292-16.17,3168.087-18.6,3170.793Zm1109.1,129.3,7.481.881C1099.219,3294.938,1091.151,3296.459,1090.5,3300.091Zm337.142,41c6.909,1.529,8.046.589,13.551,2.864C1442.734,3339.161,1424.759,3339.549,1427.64,3341.091ZM931.6,3299.3c15.034-1.158,32.21,7.273,40.866-4.133C958.109,3295.627,942.474,3294.4,931.6,3299.3ZM-92.386,3186.4c.454-3.85-4.9-8.935-6.725-7.167C-96.625,3181.416-96.94,3185.867-92.386,3186.4Zm52.635,13.875c5.276-.941,11.656-.514,14.439-4.676C-28.215,3186.478-43.553,3189.812-39.751,3200.278ZM-76.546,3212.6c12.072-5.832,23.127-12.956,33.954-20.333C-55.017,3187.746-67.944,3203.007-76.546,3212.6Zm1191.957,122.432c-3.845-1.949-8.2-2.365-15.08-.506.619,5.633-3.262,5.5-4.776,8.414,4.681,3.967,17.782,5.476,22.565,1.356-3.985-1.022-10.984.4-10.92-3.824C1111.63,3336.082,1111.248,3337.957,1115.411,3335.031ZM-101.874,3213.454c8.428,2.651,14.727-9.845,6.471-12.053C-98.8,3203.83-99.546,3209.63-101.874,3213.454ZM1156,3365.409c2.425-.3,7.3,2.583,6.515-1.8l-6.216-.732Zm-80.547-1.809a34.942,34.942,0,0,0,8.861-.224c11.273-1.21-7.948-3.863-12.594-.215ZM-4.742,3235.139l-4.982-.587C-5.646,3240.919.335,3246.633-4.742,3235.139Zm941.449,117.232c1.488-.248,18.871-.511,11.494-1.185-2.33-.241-4.374-1-7.467-.879-15.14.559-34.681,2.942-45.193,8.731C909.048,3359.814,927.1,3354,936.707,3352.371ZM-30.617,3251.282c5.415-1.314,13.636,1.053,16.778-3.164-4.938.525-4.051-3.6-7.02-4.665C-22.111,3248.64-29.671,3245.7-30.617,3251.282Zm1389.659,168.74c-.905-1.309-7.624-3.629-8.7-1.024C1352.556,3419.259,1357.171,3423.251,1359.042,3420.022Zm354.62,53.272c17.259-1.252,41.581,12.151,58.656,5.639C1754.4,3477.182,1729.629,3469,1713.662,3473.294ZM1299.7,3430.958c5.652.634,13.762,3.93,18.666,2.2C1313.008,3432.883,1306.618,3428.455,1299.7,3430.958Zm-1397.062-159.4c1.891,2.466,7.538,2.318,8.864-.225C-91.346,3268.559-95.24,3266.766-97.362,3271.559Zm-16.761,3.164c3.205.7,5.387.146,5.416-3.233C-111.927,3270.787-114.111,3271.342-114.123,3274.723Zm1823.176,237.713c.931.4,2.464.321,2.352,1.544-3.03,2.311,1.033,4.025,4.522,4.371.177-2.191.746-3.881,1.841-4.889C1714.61,3513.869,1707.094,3508.919,1709.053,3512.436Zm29.864,3.516c-16.435-3.432-12.333,2.32,0,0ZM1909,3539.817c-17.629-7.182-10.119,5.575,0,0Zm-320.858-18.59c10.288-.611,12.663,5.1,19.321,7.381,3.453-3.853,3.763-2.809,10.4-2.614-1.334-7.735-12.65-1.392-15.573-6.94C1600.693,3526.054,1588.456,3515.572,1588.142,3521.227ZM1378.9,3497.856c-.12,4.281,5.231,4.2,9.5,4.958C1387.884,3498.264,1382.939,3496.543,1378.9,3497.856Zm23.646,2.785c-2.234-.23-6.843-4.254-8.716-1.027C1394.755,3500.927,1401.443,3503.243,1402.55,3500.641Zm23.051,7.853c3.065.524,6.015.937,6.515-1.8-2.327-.4-.379-4.273-3.272-4.223C1428.023,3504.812,1425.018,3504.327,1425.6,3508.494Zm108.986,28.187c-14.063.947-35.785-1.839-40.186-12.408,10.426.675,16.923,3.911,20.87,4.994-3.681-1.7,2.949-1.766,2.929-3.494-8.471-3.241-14.7,1-19.452-6.128,1.995-2.791,8.65-2.786,6.662-3.054-3.54-1.946-6.527-.833-8.123-6.062-1.526,5.056-6.8-.183-6.809,4.3.071,5.8,8.243-1.5,6.852,5.946-11.707,1.907-24.216-5.714-37.33-4.4,3.7-4.9-1.456-6.416-3.923-9.44,1.287,5.553-6.476-.566-6.679,3.053,3.267,1.946,7.928,2.82,9.354,6.24-3.871-1.594-2.181,3.94-5.429,3.2-5.748-3.215-11.32.52-16.015-3.188.213-1.666,2.32-.9,2.779-2.209-7.611-1.969-21.16-3.078-30.028-2.267,7.031,4.308,18.281,2.607,22.251,3.887l-.446,3.786c-8.373-4.205-34.984-2.785-31.454-11.379-19.95-.008-43.689-5.827-61.574-2.111-3.389-1.863-14.848-6.01-23.349-5.319,5.694,2.719-12.057,1.345-1.1-1.4-27.771-1.124-58.533-1.233-93.8-7.207,25.142,3.579,43.159,17.539,63.539,17.7-1.5-.309-2.916-.7-2.188-2.8,3.164.5,5.834,1.4,7.172,3.383-1.5.05-3.521-.611-3.881.81,15.095,3.241,26.92,9.448,41.715,10.052,16.835-2.7,43.486,10.13,66.763,11.7.67-2.426-1.382-2.7-2.053-4.081,45.407,10.162,85.292,13.687,137.868,18.8-10.223-4.163-26.988-7.373-34.119-10.424,14.015-3.653,48.409,8.236,68.611,6.776-7.656-1.454-11.745-5.806-20.722-6.245a5.941,5.941,0,0,1,1.711-3.637c-6.691,1.392-11.031-3.283-13.252-5.4-1.991,3.961-11.8,1.181-3.734-.439-4.821-2.357-4.26,2.263-7.76,1.622.454-1.54,2.248-2.336-.972-2.65C1518.484,3535.077,1534.222,3529.71,1534.587,3536.681Zm105.387-5.514c-3.358-2.119-11.229-6.916-18.367-4.732C1627.749,3527.256,1633.038,3534.775,1639.974,3531.167Zm-222.639-27.517c-9.069-6.337-9.537,3.919,0,0Zm57.912,11.959c-1.156-4.071-9.309-8.512-13.1-6.682C1467.6,3510.285,1469.263,3514.676,1475.247,3515.609Zm189.624,18.49c-1.413-2.313-7.006-1.248-8.417-3.561C1656.154,3534.31,1662.95,3538.98,1664.871,3534.1Zm9.65,3.706c5.253-1.983,11.156,2.907,15.381-2.059C1687.451,3535.327,1675.634,3529.577,1674.521,3537.8Zm35.443-.966c-4.211-.592-8.622-1.405-10.246,1.363,3.489,2.916,9.084,4.161,15.882,4.44C1717.222,3535.677,1705.005,3541.233,1709.964,3536.839Zm-183.558-16.475c9.618-.233,14.487,5.8,26.8,8.264-.79-4.322-2.572-7.849-7.838-8.6-3.784,5.444-7.624-2-12.282-2.746C1533.068,3524.4,1526.089,3513.529,1526.406,3520.364Zm203.979,25.288c-.24-2.468.182-5.508-3.137-5.509C1724.533,3542.23,1725.818,3546.155,1730.385,3545.652Zm22.412,2.639c-4.165.649-1.272-4.313-3.135-5.508-7.089-1.095-12.282,2.424-17.431-2.053C1732.147,3547.843,1746.7,3547.768,1752.8,3548.291Zm-88.015-2.688c2.4-3.782,6.664,2.933,10.9,3.853-.773-6.238-5.952-8.963-11.258-11.571C1664.875,3540.183,1662.049,3545.12,1664.782,3545.6Zm187.333,27.2c.995,4.9,4.272,7.986,10.327,8.86C1859.334,3577,1859.471,3571.749,1852.115,3572.8ZM-31.753,3357.349c1.658-3.189,9.076.971,8.206-5.41C-26.671,3352.32-34.827,3353.766-31.753,3357.349Zm1842.2,215.62c5.317,3.2,16.028,8.394,22.248,3.922-.686,1.739-1.722,1.944-.446,3.784,3.475-.372,9.7,2.769,11.361.069-2.662-1.223-3.444-6.422-1.591-7.863C1831.053,3575.429,1817.9,3566.171,1810.446,3572.969ZM-47.233,3370.878c-2.871-1.086-5.452-2.462-9.8-2.422-4.921,2.152-4.463,11.345-5.515,14.7,6.359-4.845,18.9-15.859,26.381-9.675-9.223,3.142-16.555,8.75-25.431,12.357-.473,5.929,2.705,4.547.063,10.221,3.677.108,3.477,3.3,7.168,3.414,1.032-4.27-3.287-4.226-4.238-6.908,3.641-9.816,16.79-7.487,26.382-9.675,1.135-6.243-6.223,3.267-5.918-3.267,3.587-2.408,4.549-2.685,7.911-2.907-2.575-7.687,11.265-11.911,8.6-19.48C-31.286,3360.33-40.37,3364.205-47.233,3370.878Zm1424.961,169.094c7.5,3.744,13.124,2,20.871,4.994,24.942-9.455,62.824,10,85.216,4.928-27.854-9.818-78.2-9.208-125.7-14.8-12.178-1.434-25.433-7.778-36.394-1.716C1348.37,3533.945,1359.283,3545.442,1377.728,3539.972Zm563.67,67.64c-2.021-1.9-8.1-6.385-10.916-3.855C1930.556,3607.215,1938.068,3610.571,1941.4,3607.612Zm55.015,25.67c-14.547-6.658-34.31-15.2-52.472-15.123C1957.532,3622.035,1980.674,3631.429,1996.413,3633.282Zm-1.337,11.357c-11.219.208-18.463-8.811-28.316-5.9C1977.553,3640.1,1991.931,3650.514,1995.076,3644.639Zm-22.056,5.078c-4.557,1.253-7.541-4.465-9.949-1.171C1965.982,3649.572,1970.7,3654.974,1973.02,3649.717Zm13.4,4.148c5.323.692,8.931,2.744,13.385,4.146-1.414-6.249-15.919-8.771-15.569-6.973C1985.735,3651.378,1987.132,3651.769,1986.419,3653.865ZM81.078,3492.219c8.14,4.408,1.316,13.883,6.487,19.956-2.941,3.459-5.05,8.025-12.09,6.252.154-4.308-1.124-7.483.234-12.756,3.594.262,6.1-.906,5.726-5.732-4.247-.142-7.383,1.147-12.58-.214.069,8.27-10.429,16.4-3.628,20.065,1.814-4.926,2.964-10.742,8.806-10.509-.292,7.382-6.867,6.7-7.853,13.159,12.922,6.433,28.73-1.138,36.761-12.293-3.573-1.787-1.627-7.153-.042-10.25a72.11,72.11,0,0,1-8.27-4.813c-2.394-7.047,1.239-14.751,8.014-14.409A15.587,15.587,0,0,0,81.078,3492.219ZM84.2,3605.2c5.3-.9,9.064-3.845,12.222-7.507C90.727,3598.093,86.049,3599.818,84.2,3605.2Zm-7.526,20.874c7.25,2.024,10.582-.934,16.48-.629-.1-4.859-4.645-6.175-9.206-7.493C83.432,3623.125,78.02,3621.967,76.671,3626.07Zm1.759,6.582c3.524,1.391,1.615,7.118,6.721,7.2,4.287-.31,4.7-5.595,5.071-10.918C85.4,3629.016,80.715,3629.31,78.43,3632.652Zm-15.362,34.035c1.807.441.78,3.183.656,5.185,9.483,1.311,8.876-5.786,7.4-9.342C70.731,3666.841,63.467,3662.344,63.068,3666.687ZM2144.22,3106.8c-.884-4.2-16.517-7.637-15.736-5.691C2134.014,3102.771,2139.788,3104.266,2144.22,3106.8Zm131.8,48.794c-.531-5.3-6.287-6.4-11.7-7.786C2263.645,3154.076,2273.154,3152.171,2276.022,3155.6Z" transform="translate(146.3 -2757.13)" fill="#9b9b9b"/>
</svg>
