<svg xmlns="http://www.w3.org/2000/svg" width="2768.754" height="984.689" viewBox="0 0 2768.754 984.689">
  <g id="Group_749" data-name="Group 749" transform="translate(233.4 -2739.875)">
    <path id="Path_17747" data-name="Path 17747" d="M1102.25,2743.686c-3.335,4.014-11.419,2.328-18.737,1.561C1090.335,2743.784,1094.376,2740.491,1102.25,2743.686Z" fill-rule="evenodd"/>
    <path id="Path_17748" data-name="Path 17748" d="M1428.758,2783.378c-17.956-.645-35.407-.561-48.34-5.693C1398.437,2774.218,1415.05,2781.827,1428.758,2783.378Z" fill-rule="evenodd"/>
    <path id="Path_17749" data-name="Path 17749" d="M1081.2,2742.452c.084,6.589-8.595,2.214-12.194,2.333-9.346.3-24.537.911-38.188-1.974C1043.682,2739.216,1069.869,2738.722,1081.2,2742.452Z" fill-rule="evenodd"/>
    <path id="Path_17750" data-name="Path 17750" d="M1539.816,2807.76c-.391-2.824,2.716-1.467,3.058-3.376-7.518-1.2.278,7.219-8.42,4.023,5.56-5.892-.171-5.705-4.5-6.822,2.475-4.435,3.748-2.081,9.443-1.411,1.667-5.01-7.983-1.546-8.712-4.8,21.768.871,36.926,13.834,61.989,13.592.017,2.142-2.6,2.95-.437,3.717-5.285,4.136-15.339-6.278-17.425,1.715l-15.677-1.845c.659-1.582,2.523-1.684,3.045-3.409l-9.148-1.077c-4.025-.859,2.913,3.982-1.734,3.563-4.831-.728-3.094-2.184-2.041-5.254C1546.442,2807.391,1543.228,2811.675,1539.816,2807.76Zm24.842,2.925c2.62.915,8.154,2.813,9.422-1.381C1568.983,2810.557,1566.765,2807.1,1564.658,2810.685Z" fill-rule="evenodd"/>
    <path id="Path_17751" data-name="Path 17751" d="M1435.3,2784.148c2.06.37,5.051-.012,5.065,1.875C1441.3,2790.54,1431.973,2788.387,1435.3,2784.148Z" fill-rule="evenodd"/>
    <path id="Path_17752" data-name="Path 17752" d="M1403.2,2786.66c3.875-2.449,12.673,1.044,18.445.926C1417.792,2790.007,1408.99,2786.544,1403.2,2786.66Z" fill-rule="evenodd"/>
    <path id="Path_17753" data-name="Path 17753" d="M1465.628,2796.534c6.947-4.516,17.363,4.248,0,0Z" fill-rule="evenodd"/>
    <path id="Path_17754" data-name="Path 17754" d="M1490.6,2798.228c2.363.949,11.737,2.4,8.876,3.537-6.507-.638-6.3-1.957-11.772-1.386C1488.177,2799.062,1490.393,2799.833,1490.6,2798.228Z" fill-rule="evenodd"/>
    <path id="Path_17755" data-name="Path 17755" d="M1644.366,2820.071c-14.87,1.89-39.444-4.74-50.69-8.459C1611.331,2810.944,1627.679,2818.809,1644.366,2820.071Z" fill-rule="evenodd"/>
    <path id="Path_17756" data-name="Path 17756" d="M1162.2,2763.295l-13.069-1.539C1149.359,2758.4,1163.118,2758.933,1162.2,2763.295Z" fill-rule="evenodd"/>
    <path id="Path_17757" data-name="Path 17757" d="M1809.7,2855.891c-45.923-3.907-94.785-18.6-139.8-27.767-2.883.746-4.3,3.326-8.277,2.794a3.615,3.615,0,0,1,4.213-2.027c-1.9-2.331-6.91-2.378-8.713-4.8C1702.409,2827,1757.638,2842.384,1809.7,2855.891Z" fill-rule="evenodd"/>
    <path id="Path_17758" data-name="Path 17758" d="M1586.423,2817.017c6.491-2.078,13.315,1.44,18.3,2.155C1600.195,2821.737,1591.035,2818.167,1586.423,2817.017Z" fill-rule="evenodd"/>
    <path id="Path_17759" data-name="Path 17759" d="M1633.319,2823.816c-2.16,2.62-9.157-.6-13.214-.31C1622.89,2819.586,1628.915,2822.754,1633.319,2823.816Z" fill-rule="evenodd"/>
    <path id="Path_17760" data-name="Path 17760" d="M918.445,2740.884c-7.019,5.273-20.718,2.51-32.1,2.512C894.623,2738.431,909.786,2741.781,918.445,2740.884Z" fill-rule="evenodd"/>
    <path id="Path_17761" data-name="Path 17761" d="M883.722,2743.087c1.778,1.775-8.563.94-12.034,1.106C874.2,2742.03,878.763,2742.31,883.722,2743.087Z" fill-rule="evenodd"/>
    <path id="Path_17762" data-name="Path 17762" d="M1650.582,2834.631c.848-1.624,12.147-1.636,10.313,2.493C1657.861,2836,1655.144,2834.625,1650.582,2834.631Z" fill-rule="evenodd"/>
    <path id="Path_17763" data-name="Path 17763" d="M814.329,2747.466c2.459-3.287,11.89-3.741,14.8-2.025,18.236-.6,1.658.93-5.67,3.1C818.727,2747.728,818.665,2746.253,814.329,2747.466Z" fill-rule="evenodd"/>
    <path id="Path_17764" data-name="Path 17764" d="M1851.953,2868.4c.511-1.761,11.1-1.631,9.006,2.3C1857.488,2870.3,1853.447,2870.3,1851.953,2868.4Z" fill-rule="evenodd"/>
    <path id="Path_17765" data-name="Path 17765" d="M813.163,2746.084c-.688,2.121-10.036,5.3-9.3.15C805.762,2744.733,809.692,2745.675,813.163,2746.084Z" fill-rule="evenodd"/>
    <path id="Path_17766" data-name="Path 17766" d="M1916.112,2886.017c-15.4-2.453-29.609-5.754-41.082-11.129,3.144-4.962,13.416-1.262,15.548,3.077C1902.46,2877.863,1908.681,2880.927,1916.112,2886.017Z" fill-rule="evenodd"/>
    <path id="Path_17767" data-name="Path 17767" d="M846.993,2751.312c1.443.618,3.046,2.595,1.02,2.643-40.453,2.39-78.2,7.973-119.062,9.836C763.147,2753.48,806.007,2753.512,846.993,2751.312Z" fill-rule="evenodd"/>
    <path id="Path_17768" data-name="Path 17768" d="M794.442,2747.647c-1.575,2.37-5.33,2.088-9.443,1.411C785.6,2745.52,790.713,2747.432,794.442,2747.647Z" fill-rule="evenodd"/>
    <path id="Path_17769" data-name="Path 17769" d="M2041.409,2902.017c6.152,5.514,12.575-.851,16.566,5.718-8.039,2.216-19.955,5.476-29.343,1.56,4.237-1.961,9.081-5.924,13.65-3.408A5.722,5.722,0,0,1,2041.409,2902.017Z" fill-rule="evenodd"/>
    <path id="Path_17770" data-name="Path 17770" d="M1938.9,2894.96c7.729.846,6.532,1.727,12.777,4.027.565,3.484-2.883,2.183-3.19,4.639C1945.846,2900.313,1938.973,2900.205,1938.9,2894.96Z" fill-rule="evenodd"/>
    <path id="Path_17771" data-name="Path 17771" d="M1954.444,2898.067c2.682,2.52,9.763,1.725,12.778,4-1.756,3.338-2.116,5.115,3.317,5.436C1963.7,2909.952,1955.146,2903.962,1954.444,2898.067Z" fill-rule="evenodd"/>
    <path id="Path_17772" data-name="Path 17772" d="M1442.951,2842.853c-9.528,6.574-15.758.858-26.575.639C1420.505,2837.59,1433.823,2842.736,1442.951,2842.853Z" fill-rule="evenodd"/>
    <path id="Path_17773" data-name="Path 17773" d="M2098.314,2925.036c4.2-2.666,9.111,3.692,14.088,4.182C2107.55,2932.383,2103,2925.748,2098.314,2925.036Z" fill-rule="evenodd"/>
    <path id="Path_17774" data-name="Path 17774" d="M1189.958,2838.706c-5.618,2.853-13.925,3.343-22.511,3.61C1172.071,2838.58,1181.863,2839.383,1189.958,2838.706Z" fill-rule="evenodd"/>
    <path id="Path_17775" data-name="Path 17775" d="M2222.73,2948.5c6.3-2.421,11.06,6.028,17.7,7.1C2233.139,2958.764,2228.265,2950.4,2222.73,2948.5Z" fill-rule="evenodd"/>
    <path id="Path_17776" data-name="Path 17776" d="M1977.811,2924.675c2.168-2.969,8.037.658,10.445,1.23C1985.531,2929.32,1981.38,2924.393,1977.811,2924.675Z" fill-rule="evenodd"/>
    <path id="Path_17777" data-name="Path 17777" d="M2148.966,2944.828c-.64,1.586-2.52,1.684-3.044,3.411-.73,2.054.739,2.45,2.313,2.795-2.322,5-4.283-.5-7.837-.923C2141.2,2945.894,2144.935,2945.184,2148.966,2944.828Z" fill-rule="evenodd"/>
    <path id="Path_17778" data-name="Path 17778" d="M1607.578,2884.848c-5.816,2.348-22.15-2.768-28.6-4.614-9.051-2.63,1.7-1.268,6.674-.491C1592.889,2880.914,1601.288,2884.65,1607.578,2884.848Z" fill-rule="evenodd"/>
    <path id="Path_17779" data-name="Path 17779" d="M1179.443,2850.019c-2.127,3.167-9.509,1.755-14.963,2.007C1166.584,2848.856,1173.966,2850.269,1179.443,2850.019Z" fill-rule="evenodd"/>
    <path id="Path_17780" data-name="Path 17780" d="M1162.66,2851.812c-2.958,1.5-8.187,1.047-12.972.995C1151.412,2850.072,1159.038,2848.83,1162.66,2851.812Z" fill-rule="evenodd"/>
    <path id="Path_17781" data-name="Path 17781" d="M1683.075,2896.261c6.105.336,11.308,1.331,14.088,4.182C1693.731,2902.561,1683.254,2900.306,1683.075,2896.261Z" fill-rule="evenodd"/>
    <path id="Path_17782" data-name="Path 17782" d="M1772.207,2915.538c-.078,4.239,5.595,4.108,8.581,6.057-3.7,3.4-7.763-2.415-13.069-1.539C1768.4,2917.549,1771.526,2918.045,1772.207,2915.538Z" fill-rule="evenodd"/>
    <path id="Path_17783" data-name="Path 17783" d="M2079.281,2951.7c12.793,2.752,16.065,5.691,28.158,8.361-.241,4.06-3.772,5.591,1.882,6.481-2.421,3.548-5.612-1.683-9.15-1.077.386-1.423,2.513-.757,4.062-.768C2098.893,2958.158,2083.844,2958.845,2079.281,2951.7Z" fill-rule="evenodd"/>
    <path id="Path_17784" data-name="Path 17784" d="M2157.965,2969.777c1.938-3.158,6.809.8,9.15,1.077C2165.161,2974.009,2160.294,2970.018,2157.965,2969.777Z" fill-rule="evenodd"/>
    <path id="Path_17785" data-name="Path 17785" d="M2127.619,2968.694c-1.757,2.348-10.283.259-11.757-1.385C2119.479,2963.2,2121.554,2969.162,2127.619,2968.694Z" fill-rule="evenodd"/>
    <path id="Path_17786" data-name="Path 17786" d="M1838.131,2940.9c.459-1.32,2.69-.547,2.883-2.184,2.373.152,2.6,1.838,5.084,1.876C1845.68,2943.989,1839.591,2942.793,1838.131,2940.9Z" fill-rule="evenodd"/>
    <path id="Path_17787" data-name="Path 17787" d="M1858.873,2944.617c.874-2.708,7.056-.158,7.837.923C1865.84,2948.216,1859.675,2945.67,1858.873,2944.617Z" fill-rule="evenodd"/>
    <path id="Path_17788" data-name="Path 17788" d="M1766.957,2948.835c9.233-2.2,21.974,4.408,27.155,5.721C1787.953,2958.973,1772.019,2949.176,1766.957,2948.835Z" fill-rule="evenodd"/>
    <path id="Path_17789" data-name="Path 17789" d="M1105.115,2887.733c-5.868,3.588-15.2,4.086-26.157,3.212C1085.457,2887.941,1096.067,2888.553,1105.115,2887.733Z" fill-rule="evenodd"/>
    <path id="Path_17790" data-name="Path 17790" d="M1741.562,2950.891c-2.665-2.389-7.121-.584-7.7-2.152C1733.5,2943.971,1744.122,2946.881,1741.562,2950.891Z" fill-rule="evenodd"/>
    <path id="Path_17791" data-name="Path 17791" d="M2144.716,3003.378c-8.537-.847-11.868-4.3-20.309-7.406C2129.092,2990.361,2141.345,2997.966,2144.716,3003.378Z" fill-rule="evenodd"/>
    <path id="Path_17792" data-name="Path 17792" d="M1064.456,2889.237c-7.787,4.608-24.456,1.463-35.342,3.407C1035.694,2886.967,1052.364,2890.112,1064.456,2889.237Z" fill-rule="evenodd"/>
    <path id="Path_17793" data-name="Path 17793" d="M1935.955,2976.3c3.288-3.477,7.218,2.032,11.756,1.384C1945.292,2980.5,1938.519,2977.118,1935.955,2976.3Z" fill-rule="evenodd"/>
    <path id="Path_17794" data-name="Path 17794" d="M1781.608,2959.375c4.315.54,9.327.587,8.73,4.8C1788.386,2961.866,1780.7,2963.835,1781.608,2959.375Z" fill-rule="evenodd"/>
    <path id="Path_17795" data-name="Path 17795" d="M1802.532,2961.839c3.34.521,6.145,1.427,7.546,3.412C1810.1,2970.075,1800.012,2966.077,1802.532,2961.839Z" fill-rule="evenodd"/>
    <path id="Path_17796" data-name="Path 17796" d="M2150.107,3002.767c5.194,4.794,14.083,6.8,21.327,10.047C2164.108,3014.123,2150.726,3010.248,2150.107,3002.767Z" fill-rule="evenodd"/>
    <path id="Path_17797" data-name="Path 17797" d="M232.908,2797.613c-1.56,2.913-11.005,2.535-12.973.994C222.789,2797,227.321,2796.826,232.908,2797.613Z" fill-rule="evenodd"/>
    <path id="Path_17798" data-name="Path 17798" d="M1928.536,2982.967c-4.18,3.052-9.856-2.374-14.219-2.919C1918.277,2977.161,1925.211,2981.618,1928.536,2982.967Z" fill-rule="evenodd"/>
    <path id="Path_17799" data-name="Path 17799" d="M1660.686,2951.427c7.092.676,10.138,3.4,19.3,4.765C1672.567,2957.329,1663.405,2956.507,1660.686,2951.427Z" fill-rule="evenodd"/>
    <path id="Path_17800" data-name="Path 17800" d="M556.907,2842.054a11.441,11.441,0,0,0,5.271,1.867c-5.4,3.165-10.456,10.393-9.137,15.275-13.117-1.353-11.553-5.9-19.671-4.839.087-3.119,3.311-3.507,4.373-5.777C545.128,2852.164,555.371,2847.942,556.907,2842.054Z" fill-rule="evenodd"/>
    <path id="Path_17801" data-name="Path 17801" d="M1928.99,2990.558c3.482.026,3.05,2.977,3.336,5.406l-6.542-.77C1925.217,2991.709,1928.667,2993.01,1928.99,2990.558Z" fill-rule="evenodd"/>
    <path id="Path_17802" data-name="Path 17802" d="M1959.742,2999.192c-4.861.258-4.682-3.265-8.84-3.564C1951.92,2991.566,1959.363,2995.987,1959.742,2999.192Z" fill-rule="evenodd"/>
    <path id="Path_17803" data-name="Path 17803" d="M512.044,2848.077c4.989-.274,3.206,2.964,5,4.358,4.4-.249,3.612-5.067,11.342-2.433-1.259.97-2.472,1.944-.293,2.488-2,1.457-5.132,1.888-7.723,2.86,1.38,1.982,2.259,4.226,6.851,4.543-11.871,6.522-22.636-1.9-37.165,3.192-2.97-1.563-3.18-4.559-6.675-5.832-11.619-.985-10.362,9.191-24.607,5.918-1.467-7.2-12.3-2.152-15.884-5.64,2.29-2.572,11.467.871,9.789-5.139,3.121.3,4.6,1.468,5.172,3.132,3.795.128,1.125-5.392,4.326-5.781,11.386,2.17,23.169,6.5,33.1.129,2.971,4.342,13.128-2.318,10.445,5C511.575,2854.058,506.852,2850.692,512.044,2848.077Z" fill-rule="evenodd"/>
    <path id="Path_17804" data-name="Path 17804" d="M2040.032,3014.938c3.518-3.291,7.394,2.691,8.727,4.8-1.952,3.155-6.823-.8-9.165-1.079C2039.577,3016.513,2042.2,3015.7,2040.032,3014.938Z" fill-rule="evenodd"/>
    <path id="Path_17805" data-name="Path 17805" d="M147.8,2817.737c-.207,3.936-5.162,3.735-9.67,3.908C139.9,2819.076,142.353,2817.129,147.8,2817.737Z" fill-rule="evenodd"/>
    <path id="Path_17806" data-name="Path 17806" d="M102.787,2825.019c4.441.013,3.675,2.734,8.94,2.3-1.783,1.642-3.184,3.616-7.7,2.862C102.75,2828.911,102.4,2827.145,102.787,2825.019Z" fill-rule="evenodd"/>
    <path id="Path_17807" data-name="Path 17807" d="M1915.447,3026.647c2.738,4.92,9.5,9.134,15.529,14.38-5.385.994-14.5-4.934-20.307-7.406C1911.815,3030.754,1916.586,3032.274,1915.447,3026.647Z" fill-rule="evenodd"/>
    <path id="Path_17808" data-name="Path 17808" d="M2287.7,3083.032c-13.55-7.888-32.639-6.623-48.631-14.51,1.521-4.483,6.462.89,9,2.306C2261.457,3072.852,2279.468,3073.471,2287.7,3083.032Z" fill-rule="evenodd"/>
    <path id="Path_17809" data-name="Path 17809" d="M2475.86,3093.914c3.741,1.972,1.337,4.085,2.9,9.123,9.717,1.4,13.14,7.519,21.343,10.05-11.8.143-24.079-9.126-34.119-14.077C2469.712,3096.223,2476.328,3103.23,2475.86,3093.914Z" fill-rule="evenodd"/>
    <path id="Path_17810" data-name="Path 17810" d="M429.972,2873.574c1.865,5.808-9.135,5.726-7.434.4C425.794,2874.519,426.566,2872.918,429.972,2873.574Z" fill-rule="evenodd"/>
    <path id="Path_17811" data-name="Path 17811" d="M2336.917,3081.289c5.017-.719,3.911,3.111,6.1,4.488C2341.4,3088.364,2336.609,3083.9,2336.917,3081.289Z" fill-rule="evenodd"/>
    <path id="Path_17812" data-name="Path 17812" d="M2051.929,3049.008c1.981.776.637,4.036,4.926,3.072-3.161,2.246.672,4.167-2.026,6.052C2052.029,3056.461,2048.087,3052.2,2051.929,3049.008Z" fill-rule="evenodd"/>
    <path id="Path_17813" data-name="Path 17813" d="M2289.58,3078.238c9.919,1.265,19.432,2.831,22.8,8.977-4.536.775-8.2-5.468-8.131,1.565-2.377-.121-2.574-1.868-5.084-1.877.372-1.425,2.5-.759,4.065-.766C2300.574,3080.523,2288.918,3087.294,2289.58,3078.238Z" fill-rule="evenodd"/>
    <path id="Path_17814" data-name="Path 17814" d="M2073.842,3054.081c3.32.549,2.117,4.464,1.728,7.772-1.031-1.112-2.779-1.7-5.065-1.875C2072.026,3058.5,2072.321,3055.561,2073.842,3054.081Z" fill-rule="evenodd"/>
    <path id="Path_17815" data-name="Path 17815" d="M2058.018,3053.494c4.293-.58,3.822,2.43,6.236,3.227C2063.384,3059.108,2054.826,3057.877,2058.018,3053.494Z" fill-rule="evenodd"/>
    <path id="Path_17816" data-name="Path 17816" d="M1886.556,3035.8c3.177,1.045,7.875.9,7.4,4.671C1893.34,3037.521,1884.786,3040.537,1886.556,3035.8Z" fill-rule="evenodd"/>
    <path id="Path_17817" data-name="Path 17817" d="M283.661,2866.405c2.346,1.107,3.1,3.048,3.056,5.405-2.073-.466-3.257-.126-3.787.8-5.765-.072-6.87-2.6-10.566-3.767C271.992,2864.457,282.29,2869.309,283.661,2866.405Z" fill-rule="evenodd"/>
    <path id="Path_17818" data-name="Path 17818" d="M270.688,2867.4c-2.726,3.1-9.456,2.688-16.759,1.8C258.477,2867.687,265.211,2868.065,270.688,2867.4Z" fill-rule="evenodd"/>
    <path id="Path_17819" data-name="Path 17819" d="M2340.378,3096.8c1.215-.464,14.226-.145,12.63,5.256C2349.671,3099.654,2343.751,3099.179,2340.378,3096.8Z" fill-rule="evenodd"/>
    <path id="Path_17820" data-name="Path 17820" d="M2105.062,3070.339c-4.908,3.637,2.694,3.7,4.631,5.56-3.1,2.6-10.178-1.359-10.024-4.949C2100.959,3070.143,2102.78,3069.975,2105.062,3070.339Z" fill-rule="evenodd"/>
    <path id="Path_17821" data-name="Path 17821" d="M2150.355,3079.441c-2.685-3.509-9.994.8-8.857-3.566C2144.794,3075.209,2150.194,3074.95,2150.355,3079.441Z" fill-rule="evenodd"/>
    <path id="Path_17822" data-name="Path 17822" d="M2364.492,3105.9c2.957-1.377,12.945,1.588,13.926,5.407C2373.4,3109.792,2369.258,3107.613,2364.492,3105.9Z" fill-rule="evenodd"/>
    <path id="Path_17823" data-name="Path 17823" d="M2037.984,3077.514c-5.142-2.809-19.25-3.385-23.824-11.587,1.49.367,2.36-.01,2.773-.951C2024.079,3071.341,2034.69,3069.876,2037.984,3077.514Z" fill-rule="evenodd"/>
    <path id="Path_17824" data-name="Path 17824" d="M2131.182,3084.72c-5.228,2.929-12.588-5.059-15.4-4.337C2118.414,3074.467,2124.362,3084.013,2131.182,3084.72Z" fill-rule="evenodd"/>
    <path id="Path_17825" data-name="Path 17825" d="M2393.967,3114.386c-.948,1.038-1.859,2.049-.293,2.488-2.278,1.616-7.345-4.249-12.777-4.027C2383.853,3107.479,2387.926,3115.207,2393.967,3114.386Z" fill-rule="evenodd"/>
    <path id="Path_17826" data-name="Path 17826" d="M2192.882,3089.462c1.463,4.165-8.21,5.1-6.671.46A9.171,9.171,0,0,1,2192.882,3089.462Z" fill-rule="evenodd"/>
    <path id="Path_17827" data-name="Path 17827" d="M2196.364,3093.641c1.594-1.825,8.7,1.728,8.711,4.794C2200.631,3098.007,2198.073,3096.141,2196.364,3093.641Z" fill-rule="evenodd"/>
    <path id="Path_17828" data-name="Path 17828" d="M2401.511,3117.8c2.444-1.022,9.7,4.017,11.026,7.59-6.125-.307-8.425-3.515-14.087-4.181C2397.617,3118.552,2405.4,3119.532,2401.511,3117.8Z" fill-rule="evenodd"/>
    <path id="Path_17829" data-name="Path 17829" d="M2137.413,3087.976c7.263-.9,6.533,4.154,11.336,5.1C2146.316,3097.743,2137.688,3091.938,2137.413,3087.976Z" fill-rule="evenodd"/>
    <path id="Path_17830" data-name="Path 17830" d="M2190.694,3096.742c4.172-.115,4.908,2.365,7.563,3.414C2196.586,3102.768,2189.39,3100.1,2190.694,3096.742Z" fill-rule="evenodd"/>
    <path id="Path_17831" data-name="Path 17831" d="M2162.388,3100.945c10.326-3.478,16.068,6.363,26.7,9.436.113,5.059-9.458-1.019-5.506,1.874-7.988-1.228-15.785-11.216-30.2-13.616-.116-7.167,5.2-3.6,9.588-2.639C2164.855,3098.713,2162.667,3097.561,2162.388,3100.945Z" fill-rule="evenodd"/>
    <path id="Path_17832" data-name="Path 17832" d="M1584.854,3032.94c-.5,3.134-5.226,2.353-6.691.489.995-1.16,3.158-.938,3.044-3.409C1582.866,3030.662,1583.011,3032.435,1584.854,3032.94Z" fill-rule="evenodd"/>
    <path id="Path_17833" data-name="Path 17833" d="M2192.732,3113.333c1.169-2.928,6.67.113,4.924,3.07-2.327-.4-2.938,1.219-5.362.646C2192.26,3114.906,2194.881,3114.1,2192.732,3113.333Z" fill-rule="evenodd"/>
    <path id="Path_17834" data-name="Path 17834" d="M2200.424,3115.483c2.4-.483,4.984,4.292,6.527.769,2.557,1.866,3,5.271,5.8,6.974.245-5.081,10.137.842,14.219,2.92-2.689,2.11-2.488.7-1.88,4.825C2215.137,3127.083,2203.747,3124.307,2200.424,3115.483Z" fill-rule="evenodd"/>
    <path id="Path_17835" data-name="Path 17835" d="M2080.781,3107.687c-10.409,2.894-12.451-5.363,0,0Z" fill-rule="evenodd"/>
    <path id="Path_17836" data-name="Path 17836" d="M122.282,2893.9c-1.918,1.978-6.927,1.261-7.846,4.089C106.626,2895.251,114.5,2891.132,122.282,2893.9Z" fill-rule="evenodd"/>
    <path id="Path_17837" data-name="Path 17837" d="M1953.9,3093.992c3.557,4.826,11.783,2.313,20.3,7.437-5.333,6.972-15.844-1.419-23.513-2.769C1951.484,3096.774,1954.934,3098.074,1953.9,3093.992Z" fill-rule="evenodd"/>
    <path id="Path_17838" data-name="Path 17838" d="M2062.205,3108.022c.7.786,5.834,3.626,6.526.769,1.142-.121,1.172.617,1.149,1.381l-.293,2.489C2065.953,3109.646,2061.782,3114.04,2062.205,3108.022Z" fill-rule="evenodd"/>
    <path id="Path_17839" data-name="Path 17839" d="M2228.146,3127.562c3.841,3.837,9.852.681,13.926,5.409-2.1,6.682-8.67-.287-15.982.608C2228.82,3131.7,2224.989,3129.777,2228.146,3127.562Z" fill-rule="evenodd"/>
    <path id="Path_17840" data-name="Path 17840" d="M1990.61,3108.374c-7.567.929-9.723-2.358-16.989-2C1976.787,3101.382,1986.992,3106.638,1990.61,3108.374Z" fill-rule="evenodd"/>
    <path id="Path_17841" data-name="Path 17841" d="M2218.688,3140.244c1.635,2.557,8.535,1.165,10.17,3.72C2226.557,3146.345,2217.993,3143.867,2218.688,3140.244Z" fill-rule="evenodd"/>
    <path id="Path_17842" data-name="Path 17842" d="M2300.871,3151.2c8.762,6.236,17.036,12.9,27,18.251C2319.645,3164.779,2301.561,3164.215,2300.871,3151.2Z" fill-rule="evenodd"/>
    <path id="Path_17843" data-name="Path 17843" d="M2290.264,3162.5c-3.136,1.9-9.445.006-13.361.95-4.587-5.235-13.361-7.354-22.783-8.973C2268.71,3152.808,2273.963,3157.675,2290.264,3162.5Z" fill-rule="evenodd"/>
    <path id="Path_17844" data-name="Path 17844" d="M2489.014,3184.659c-.882-1.222-1.081-2.971-.712-5.1,3.809-.6,3.166,2.131,6.382,2C2493.342,3183.219,2492.26,3185.263,2489.014,3184.659Z" fill-rule="evenodd"/>
    <path id="Path_17845" data-name="Path 17845" d="M2064.792,3130.937c2.886,1.234,6.546,1.889,8.857,3.566C2071.677,3136.954,2063.459,3134.677,2064.792,3130.937Z" fill-rule="evenodd"/>
    <path id="Path_17846" data-name="Path 17846" d="M2096.015,3135.86c2.893-2.822,7.785,2.384,11.609,2.644C2105.344,3140.855,2098.885,3136.8,2096.015,3135.86Z" fill-rule="evenodd"/>
    <path id="Path_17847" data-name="Path 17847" d="M2486.993,3190.68c-2.461,7.886-10.256-2.548-18.449-.9C2473.53,3185.614,2479.652,3190.389,2486.993,3190.68Z" fill-rule="evenodd"/>
    <path id="Path_17848" data-name="Path 17848" d="M2160.323,3152.214c3.576,1.092,6.576,2.627,10.152,3.719C2169.114,3157.625,2159.865,3155.672,2160.323,3152.214Z" fill-rule="evenodd"/>
    <path id="Path_17849" data-name="Path 17849" d="M2302.6,3170.245c6.193,1.017,11.818,2.446,13.781,6.637C2309.657,3176.249,2303.257,3175.4,2302.6,3170.245Z" fill-rule="evenodd"/>
    <path id="Path_17850" data-name="Path 17850" d="M2283.572,3174.3l5.23.616c.281,3.193.546,5.237,5.8,6.942C2289.8,3184.641,2283.557,3178.861,2283.572,3174.3Z" fill-rule="evenodd"/>
    <path id="Path_17851" data-name="Path 17851" d="M2345.559,3210.5c3.142,2.924,7.189,5.156,11.013,7.556C2351.931,3220.731,2343.017,3216.936,2345.559,3210.5Z" fill-rule="evenodd"/>
    <path id="Path_17852" data-name="Path 17852" d="M1913.919,3163.438c-2.924,2.818-6.368,1.039-9.294.151C1906.52,3158.927,1909.148,3163.931,1913.919,3163.438Z" fill-rule="evenodd"/>
    <path id="Path_17853" data-name="Path 17853" d="M1683.074,3143.76c-9.078.177-21.736-4.57-29.767-6C1664.023,3136.7,1677.393,3135.523,1683.074,3143.76Z" fill-rule="evenodd"/>
    <path id="Path_17854" data-name="Path 17854" d="M1695.137,3142.691c-3.761,2.781.464,5.355,3.188,6.665-.519,3.132-4.674,1.942-8.127,1.535-1.913-2.333-2.2-5.881-4.355-8.051C1687.353,3138.451,1690,3143.459,1695.137,3142.691Z" fill-rule="evenodd"/>
    <path id="Path_17855" data-name="Path 17855" d="M2091.909,3193.178c-4.634,3.193-11.851-3.439-10.3-2.489C2076.173,3187.27,2086.9,3190.577,2091.909,3193.178Z" fill-rule="evenodd"/>
    <path id="Path_17856" data-name="Path 17856" d="M1724.447,3152.432c3.106,1.069,6.6,1.832,5.959,5.717l-9.149-1.078C1721.562,3154.615,1725.012,3155.916,1724.447,3152.432Z" fill-rule="evenodd"/>
    <path id="Path_17857" data-name="Path 17857" d="M2204.862,3212.771c4.449-2.894,9.5,3.386,14.075,4.147C2215.191,3219.288,2209.124,3213.752,2204.862,3212.771Z" fill-rule="evenodd"/>
    <path id="Path_17858" data-name="Path 17858" d="M1749.857,3161.683c.24-1.886,10-1.568,7.672,2.182C1754.307,3163.645,1751.23,3163.315,1749.857,3161.683Z" fill-rule="evenodd"/>
    <path id="Path_17859" data-name="Path 17859" d="M1762.925,3163.222a60.546,60.546,0,0,1,12.921,2.8C1774.3,3167.436,1761.722,3167.584,1762.925,3163.222Z" fill-rule="evenodd"/>
    <path id="Path_17860" data-name="Path 17860" d="M1832.172,3171.376c5.908-1,2.222,5.149,7.4,4.64C1837.428,3178.638,1829.863,3175.831,1832.172,3171.376Z" fill-rule="evenodd"/>
    <path id="Path_17861" data-name="Path 17861" d="M1860.04,3182.2c-.725,2.438-.174,3.907,2.186,4.027-2.947,3.58-5.453-2.591-9.005-2.307C1853.741,3181.23,1856.821,3181.656,1860.04,3182.2Z" fill-rule="evenodd"/>
    <path id="Path_17862" data-name="Path 17862" d="M1907.65,3194.092l-.293,2.488c-4.09.413-3.584-2.593-7.689-2.182-.534-3.48,6.07,1.642,5.536-1.839C1906.224,3192.9,1906.339,3193.937,1907.65,3194.092Z" fill-rule="evenodd"/>
    <path id="Path_17863" data-name="Path 17863" d="M2319.4,3252.637c-15.684,1.507-28.482-5.334-45-11.591C2285.861,3239.936,2305.439,3244.094,2319.4,3252.637Z" fill-rule="evenodd"/>
    <path id="Path_17864" data-name="Path 17864" d="M2320.7,3252.789c4.878-.256,6.862,1.639,8.857,3.566C2327.688,3258.753,2319.885,3256.111,2320.7,3252.789Z" fill-rule="evenodd"/>
    <path id="Path_17865" data-name="Path 17865" d="M2331,3255.248c5.132,1.466,7.644,4.859,12.487,6.484C2340.334,3263.308,2330.809,3259.984,2331,3255.248Z" fill-rule="evenodd"/>
    <path id="Path_17866" data-name="Path 17866" d="M2041.8,3224.962c-8.481,3.823-8.274-6.084,0,0Z" fill-rule="evenodd"/>
    <path id="Path_17867" data-name="Path 17867" d="M2083.028,3234.863c2.161,1.372,6.462,1.176,7.548,3.38C2091.222,3242.63,2080.456,3239.127,2083.028,3234.863Z" fill-rule="evenodd"/>
    <path id="Path_17868" data-name="Path 17868" d="M2093.035,3239.81c9.258.451,14.735,5.12,19.175,6.027C2106.93,3247.481,2093.269,3245.681,2093.035,3239.81Z" fill-rule="evenodd"/>
    <path id="Path_17869" data-name="Path 17869" d="M2113.215,3248.445c3.535-3.289,7.759,2.446,11.625,2.646C2121.915,3253.909,2116.137,3249.365,2113.215,3248.445Z" fill-rule="evenodd"/>
    <path id="Path_17870" data-name="Path 17870" d="M2355.671,3282.041c-8.093.388-22.088-4.581-32.37-6.335C2332.566,3271.369,2345.751,3279.787,2355.671,3282.041Z" fill-rule="evenodd"/>
    <path id="Path_17871" data-name="Path 17871" d="M1616.409,3192.469c3.621-3.726,6.756,2.392,8.84,3.563C1623.051,3198.679,1618.329,3193.748,1616.409,3192.469Z" fill-rule="evenodd"/>
    <path id="Path_17872" data-name="Path 17872" d="M1737.038,3214.209c9.64,5.35,13.549,1.756,25.844,5.566-12.255,3.858-22.747-2.263-32.808-2.617C1730.258,3213.6,1738.449,3219.678,1737.038,3214.209Z" fill-rule="evenodd"/>
    <path id="Path_17873" data-name="Path 17873" d="M1765.506,3220.084c7.286.188,12.225,2.143,18.139,3.382C1777.61,3225.245,1768.195,3225.989,1765.506,3220.084Z" fill-rule="evenodd"/>
    <path id="Path_17874" data-name="Path 17874" d="M-167.765,3014.284c2.968,0,2.974,1.53,5.273,1.865,1.087,3.673-2.914,2.916-2.53,5.994C-169.641,3021.471-168.127,3017.562-167.765,3014.284Z" fill-rule="evenodd"/>
    <path id="Path_17875" data-name="Path 17875" d="M2351.462,3295.341a44.6,44.6,0,0,1,16.7,4.488C2362.8,3300.414,2352.123,3300.306,2351.462,3295.341Z" fill-rule="evenodd"/>
    <path id="Path_17876" data-name="Path 17876" d="M2168.511,3285.135c-1.749-.014-3.342-5.5-5.066-1.873C2159.5,3278.422,2170.661,3279.321,2168.511,3285.135Z" fill-rule="evenodd"/>
    <path id="Path_17877" data-name="Path 17877" d="M2193.048,3290.515c3.658-1.9,12.207,2.14,13.925,5.409C2200.658,3293.934,2198.668,3294.115,2193.048,3290.515Z" fill-rule="evenodd"/>
    <path id="Path_17878" data-name="Path 17878" d="M2110.6,3282.053c.874-2.708,6.482.284,9.278-.153l-.582,4.946C2118.9,3283.414,2112.662,3284.308,2110.6,3282.053Z" fill-rule="evenodd"/>
    <path id="Path_17879" data-name="Path 17879" d="M2212.221,3296.542c2.723-3.383,6.873,1.543,10.446,1.23C2220.5,3300.773,2214.629,3297.113,2212.221,3296.542Z" fill-rule="evenodd"/>
    <path id="Path_17880" data-name="Path 17880" d="M1876.258,3258.227c6.606-1.49,16.616,4.161,24.549,5.414C1893.552,3265.628,1880.939,3261.939,1876.258,3258.227Z" fill-rule="evenodd"/>
    <path id="Path_17881" data-name="Path 17881" d="M1903.122,3266.436c2.891-2.821,7.782,2.385,11.612,2.614C1911.509,3272.118,1905.731,3267.574,1903.122,3266.436Z" fill-rule="evenodd"/>
    <path id="Path_17882" data-name="Path 17882" d="M2127.555,3295.387c-5.119,3.006-12.1-2.224-16.839-3.26C2115.872,3287.943,2119.928,3295.095,2127.555,3295.387Z" fill-rule="evenodd"/>
    <path id="Path_17883" data-name="Path 17883" d="M1938.392,3270.59c6.781,3.033,21.074,1.747,26.866,8.176C1957.167,3275.418,1942.845,3276.67,1938.392,3270.59Z" fill-rule="evenodd"/>
    <path id="Path_17884" data-name="Path 17884" d="M2120.446,3299.563c2.493,2.274,8.584,1.874,11.481,3.875C2129.379,3305.63,2120.275,3303.151,2120.446,3299.563Z" fill-rule="evenodd"/>
    <path id="Path_17885" data-name="Path 17885" d="M2241.658,3316.359c1.846,2.773,9.672,1.075,11.48,3.875C2251.718,3321.567,2241.451,3319.976,2241.658,3316.359Z" fill-rule="evenodd"/>
    <path id="Path_17886" data-name="Path 17886" d="M1870,3288.916c-2.247,5.643-4.146-3.4-8,.334-.051,2.293,4.344,1.279,4.958,3.074-8.2,3-23.648-2.784-32.374-6.3,8.475-2.93,16.971,3.851,25.975,4.3-15.005-12.116-36.414-9.015-52.109-18.72,14.508-8.83,29.2,8.389,42.832,7.566.092-1.2-1.482-1.132-2.479-1.536,3.194-4.1,4.389,2.625,4.8,4.332C1861.287,3284.855,1866.7,3284.47,1870,3288.916Z" fill-rule="evenodd"/>
    <path id="Path_17887" data-name="Path 17887" d="M2255.762,3320.543c3.746,2.069,10.316,2.045,14.074,4.149C2266.533,3326.729,2256.291,3324.341,2255.762,3320.543Z" fill-rule="evenodd"/>
    <path id="Path_17888" data-name="Path 17888" d="M1970.323,3291.946c-4.639,2.52-1.787,5.313-3.92,10.844-4.719-1.386,1.678-5.52-3.044-7.9-4.623-1.758-1.322,5.945-6.979,2.947,2.055-3.015,3.314-3.41,2.186-7.279C1962.995,3294.563,1966.6,3288.219,1970.323,3291.946Z" fill-rule="evenodd"/>
    <path id="Path_17889" data-name="Path 17889" d="M1748.48,3274.606c-21.98-3.93-37.053-7.461-59.531-12.025C1706.359,3259.427,1735.271,3267.11,1748.48,3274.606Z" fill-rule="evenodd"/>
    <path id="Path_17890" data-name="Path 17890" d="M1986.873,3297.662c4.878.48,8.126,2.2,11.464,3.873-5.269,2.287-8.411,3.673-17.57,2.946C1978.34,3302.374,1989.8,3305.033,1986.873,3297.662Z" fill-rule="evenodd"/>
    <path id="Path_17891" data-name="Path 17891" d="M2007.327,3303.84c-.371,1.424.055,2.241,1.035,2.645-3.828,3.764-5.194,2.07-12.063,1.07C1999.008,3305.128,2001.682,3302.727,2007.327,3303.84Z" fill-rule="evenodd"/>
    <path id="Path_17892" data-name="Path 17892" d="M2018.661,3308.943c4.119,1.347,2.341,8.291-2.169,7.281,1.655-1.625,1.75-2.86-.892-3.874C2016.612,3311.192,2018.775,3311.414,2018.661,3308.943Z" fill-rule="evenodd"/>
    <path id="Path_17893" data-name="Path 17893" d="M1796.234,3285.275c.526-1.759,11.1-1.631,9.005,2.305C1800.918,3287.8,1799.26,3286.014,1796.234,3285.275Z" fill-rule="evenodd"/>
    <path id="Path_17894" data-name="Path 17894" d="M1894.095,3298.043c3.685-2.7,9.856,2.374,14.236,2.922C1907.206,3304.665,1896.179,3300.653,1894.095,3298.043Z" fill-rule="evenodd"/>
    <path id="Path_17895" data-name="Path 17895" d="M1838.632,3296.527c-15.444-1.245-9.616-10.139,0,0Z" fill-rule="evenodd"/>
    <path id="Path_17896" data-name="Path 17896" d="M1803.506,3291.145c1.988-1.012,13.583-.541,8.7,4.792-1.626-3.769-2.485-1.059-7.689-2.184C1804.894,3292.361,1804.484,3291.548,1803.506,3291.145Z" fill-rule="evenodd"/>
    <path id="Path_17897" data-name="Path 17897" d="M1887.116,3300.99c5.359-2.052,15.348,2.062,17.861,5.872C1900.193,3304.031,1892.508,3303.381,1887.116,3300.99Z" fill-rule="evenodd"/>
    <path id="Path_17898" data-name="Path 17898" d="M1748.478,3285.911c3.278-3.095,9.295,1.286,13.07,1.539C1757.234,3289.911,1750.335,3286.449,1748.478,3285.911Z" fill-rule="evenodd"/>
    <path id="Path_17899" data-name="Path 17899" d="M1845.013,3298.522c3.327-.949,10.909-.854,12.775,4.028A44.6,44.6,0,0,1,1845.013,3298.522Z" fill-rule="evenodd"/>
    <path id="Path_17900" data-name="Path 17900" d="M1362.864,3241.749c1.814,2.9.169,4.714-2.175,7.312C1355.641,3247.19,1361.478,3244.077,1362.864,3241.749Z" fill-rule="evenodd"/>
    <path id="Path_17901" data-name="Path 17901" d="M1903.228,3310.423c-5.148,2.108-18.006.212-18.283-2.153C1889.752,3306.058,1898.409,3309.027,1903.228,3310.423Z" fill-rule="evenodd"/>
    <path id="Path_17902" data-name="Path 17902" d="M1768.346,3297.064c6.305,2.212,11.04,2.322,20.777,3.692C1785.889,3305.357,1770.61,3300.556,1768.346,3297.064Z" fill-rule="evenodd"/>
    <path id="Path_17903" data-name="Path 17903" d="M1897.722,3312.3c3.492.795,4.42,2.342,10.154,3.687C1905.576,3318.365,1897.009,3315.919,1897.722,3312.3Z" fill-rule="evenodd"/>
    <path id="Path_17904" data-name="Path 17904" d="M1831.957,3308.323c.874-2.708,6.485.252,9.281-.184,1.115,1.823,3.248,2.872,3.332,5.438,3.241.221,6.317.551,7.694,2.15,1.745.047,9.47.924,5.086,1.845-11.147-1.28-21.221-4.8-28.455-5.841.471-2.724,5.608.118,7.986-.338C1836.949,3309.1,1832.552,3310.118,1831.957,3308.323Z" fill-rule="evenodd"/>
    <path id="Path_17905" data-name="Path 17905" d="M1916.589,3320.779c6.736-.867,20.389,2.848,24.24,7.9-5.871,1.385-14.437-7.225-21.926-5.1C1919.632,3321.521,1918.164,3321.124,1916.589,3320.779Z" fill-rule="evenodd"/>
    <path id="Path_17906" data-name="Path 17906" d="M1888.99,3318.808c2.173-3,8.038.658,10.463,1.232C1896.6,3323.535,1893.412,3317.858,1888.99,3318.808Z" fill-rule="evenodd"/>
    <path id="Path_17907" data-name="Path 17907" d="M1932.7,3330.214c-4.881,1.564-13.828-2.523-21.929-5.074C1893.162,3319.554,1921.625,3325.332,1932.7,3330.214Z" fill-rule="evenodd"/>
    <path id="Path_17908" data-name="Path 17908" d="M1773.575,3308.984c2.476,3.422,14.126,0,13.942,5.411C1784.16,3311.6,1773.926,3314.008,1773.575,3308.984Z" fill-rule="evenodd"/>
    <path id="Path_17909" data-name="Path 17909" d="M1952.877,3338.88c.6-1.622,3.39-.623,5.375-.612-.622-3.3-3.66-4.806-8.728-4.8,3.354-5.034,9.169,1.622,14.674-.795,20.733,8.509,36.427,14.062,56.9,23.051,8.455,13.259,37.789,10.933,44.711,25.352,5.3,1.294,10.875,2.43,12.482,6.515C2034.047,3373.443,1995.545,3347.13,1952.877,3338.88Z" fill-rule="evenodd"/>
    <path id="Path_17910" data-name="Path 17910" d="M1795.356,3315.318c2.96-1.12,8.055-1.35,7.548,3.379C1799.044,3318.594,1799.213,3315.453,1795.356,3315.318Z" fill-rule="evenodd"/>
    <path id="Path_17911" data-name="Path 17911" d="M1855.889,3329.982c-7.912-2.017-17.1-3.036-24.533-5.412C1835.753,3323.11,1852.454,3324.98,1855.889,3329.982Z" fill-rule="evenodd"/>
    <path id="Path_17912" data-name="Path 17912" d="M1801.445,3319.8c8.067,1.108,15.079,3.053,20.468,6.177C1818.308,3326,1803.6,3324.625,1801.445,3319.8Z" fill-rule="evenodd"/>
    <path id="Path_17913" data-name="Path 17913" d="M1873.021,3330.755c1.6-3.262,3.881,2.213,7.839.923-3.958,4.866-3.446.52-.727,6.174-4.448-2.7-12.773-2.5-16.552-5.718,3.158-3.364,6.679,2.479,11.774,1.386C1874.9,3332.35,1874.469,3331.181,1873.021,3330.755Z" fill-rule="evenodd"/>
    <path id="Path_17914" data-name="Path 17914" d="M2105.294,3371.9c-16.5-2.453-32.64-12.626-48.321-16.995C2073.57,3351.368,2089.885,3367.085,2105.294,3371.9Z" fill-rule="evenodd"/>
    <path id="Path_17915" data-name="Path 17915" d="M-137.883,3119.581c-18.236-3.139-15.7,11.819-35.755,7.094-4.558,1.189-10.911,7.115-13.14,2.222-1.336,1.023.106,6.846-9.667,3.906,1.242-1.034,4.756-4.071-1.381-3.963,14.906-7.505,34.817-10.653,53.286-15.058C-139.943,3114.452-137.719,3116.407-137.883,3119.581Z" fill-rule="evenodd"/>
    <path id="Path_17916" data-name="Path 17916" d="M2214.638,3377.24c-5.39,1.888-11.778,1.519-15.674-1.845C2202.157,3371.3,2209.473,3376.217,2214.638,3377.24Z" fill-rule="evenodd"/>
    <path id="Path_17917" data-name="Path 17917" d="M1815.662,3334.029c-3.971,3.269-9.55-1.828-14.364-1.691C1802.591,3328.37,1811.5,3333.218,1815.662,3334.029Z" fill-rule="evenodd"/>
    <path id="Path_17918" data-name="Path 17918" d="M1465.059,3296.512c-13.028,1.117-16.047-5.562,0,0Z" fill-rule="evenodd"/>
    <path id="Path_17919" data-name="Path 17919" d="M1638.838,3316.975c-1.708,2.641-8.275-.5-11.918-.157C1628.256,3312.472,1635.98,3315.808,1638.838,3316.975Z" fill-rule="evenodd"/>
    <path id="Path_17920" data-name="Path 17920" d="M1570.45,3312.691c-1.559,2.371-5.334,2.119-9.443,1.411C1560.517,3309.254,1567.37,3313.254,1570.45,3312.691Z" fill-rule="evenodd"/>
    <path id="Path_17921" data-name="Path 17921" d="M1270.937,3279.946c.085,2.278-11.639-.381-4.213,2.027-2.575,2.571-10.031-.735-14.525-.465,4.693-3.823-6.559-2.625-10.151-3.718C1251.408,3273.367,1262.216,3281.09,1270.937,3279.946Z" fill-rule="evenodd"/>
    <path id="Path_17922" data-name="Path 17922" d="M1240.752,3277.638c1.394,5.465-6.8-.579-6.981,2.945C1229.589,3278.207,1239.232,3273.242,1240.752,3277.638Z" fill-rule="evenodd"/>
    <path id="Path_17923" data-name="Path 17923" d="M1520.361,3310.562c-35.018.411-57.872-4.388-91.9-7.054C1455.593,3301.4,1491.152,3307.536,1520.361,3310.562Z" fill-rule="evenodd"/>
    <path id="Path_17924" data-name="Path 17924" d="M1543.582,3315.819c-3.739-3-11.247,1.006-15.532-3.075C1529.842,3309.826,1544.979,3309.659,1543.582,3315.819Z" fill-rule="evenodd"/>
    <path id="Path_17925" data-name="Path 17925" d="M1554.319,3314.561c-2.38,3.487-6.089,1.39-9.281.184C1546.789,3310.16,1550.41,3314.45,1554.319,3314.561Z" fill-rule="evenodd"/>
    <path id="Path_17926" data-name="Path 17926" d="M1298.225,3284.405c-.6,3.538-5.713,1.626-9.426,1.413C1289.4,3282.311,1294.513,3284.19,1298.225,3284.405Z" fill-rule="evenodd"/>
    <path id="Path_17927" data-name="Path 17927" d="M1771.093,3341.363c8.656-1.025,15,2.4,24.68,4.152C1788.788,3350.792,1780.38,3343.989,1771.093,3341.363Z" fill-rule="evenodd"/>
    <path id="Path_17928" data-name="Path 17928" d="M1803.612,3346.438c3.182,3.28,13.495,1.205,13.777,6.667C1813.91,3350.045,1803.085,3352.475,1803.612,3346.438Z" fill-rule="evenodd"/>
    <path id="Path_17929" data-name="Path 17929" d="M1270.206,3286.152c-3.254,1.181-11.146,1.433-13.212-.312-1.73-.043-9.472-.924-5.088-1.843C1260.957,3285.764,1266.189,3283.954,1270.206,3286.152Z" fill-rule="evenodd"/>
    <path id="Path_17930" data-name="Path 17930" d="M1281.963,3287.536c-.891,2.7-6.485-.253-9.278.152C1274.717,3286.011,1279.86,3284.957,1281.963,3287.536Z" fill-rule="evenodd"/>
    <path id="Path_17931" data-name="Path 17931" d="M1293.868,3287.659c.72,4.621-5.351,1.126-8.13,1.566C1286.242,3286.091,1290.411,3287.285,1293.868,3287.659Z" fill-rule="evenodd"/>
    <path id="Path_17932" data-name="Path 17932" d="M1827.706,3355.565c-4.189.114-4.353-2.78-9.005-2.306C1819.32,3349.437,1827.989,3352.023,1827.706,3355.565Z" fill-rule="evenodd"/>
    <path id="Path_17933" data-name="Path 17933" d="M1469.978,3310.919c.206,4.976-7.343.606-10.737,1.259C1461.864,3310.634,1465.733,3310.516,1469.978,3310.919Z" fill-rule="evenodd"/>
    <path id="Path_17934" data-name="Path 17934" d="M1836.711,3357.872c11.844-1.065,19.316,3.967,31.06,6.18C1859.763,3368.283,1847.312,3358.929,1836.711,3357.872Z" fill-rule="evenodd"/>
    <path id="Path_17935" data-name="Path 17935" d="M-198.557,3135.046c-3.582,1.431-5.381,4.413-11.463,3.664C-207.118,3136.689-205.319,3133.707-198.557,3135.046Z" fill-rule="evenodd"/>
    <path id="Path_17936" data-name="Path 17936" d="M1816.662,3359.28c-5.03.4-6.049-2.246-10.3-2.459C1806.234,3353.613,1816.873,3355.632,1816.662,3359.28Z" fill-rule="evenodd"/>
    <path id="Path_17937" data-name="Path 17937" d="M2082.212,3388.057c4.4,3.839,13.939,3.877,14.674,10.51C2092.938,3394.335,2084.115,3393.775,2082.212,3388.057Z" fill-rule="evenodd"/>
    <path id="Path_17938" data-name="Path 17938" d="M1828.436,3360.666c-1.344,1.693-2.424,3.706-5.668,3.1.387-1.423-.023-2.238-1.02-2.643C1824.045,3358.488,1825.155,3359.641,1828.436,3360.666Z" fill-rule="evenodd"/>
    <path id="Path_17939" data-name="Path 17939" d="M1436,3318.224c-1.429,2.418-9.255.252-10.443-1.23C1427.061,3312.509,1432.957,3317.2,1436,3318.224Z" fill-rule="evenodd"/>
    <path id="Path_17940" data-name="Path 17940" d="M1880.4,3369.308c3.784-2.4,10.941,2.31,15.532,3.073C1891.669,3375.136,1883.368,3371.286,1880.4,3369.308Z" fill-rule="evenodd"/>
    <path id="Path_17941" data-name="Path 17941" d="M-231.131,3146.285c5.048,2.19-.024,7.15,2.16,12.836C-235.673,3156.479-233.358,3150.908-231.131,3146.285Z" fill-rule="evenodd"/>
    <path id="Path_17942" data-name="Path 17942" d="M-115.182,3161.215c2.439,8.271,6.411,8.866,13.044,14.087-8.228.787-17.247-2.8-25.237-4.218C-122.17,3165.981-123.054,3163.96-115.182,3161.215Z" fill-rule="evenodd"/>
    <path id="Path_17943" data-name="Path 17943" d="M1439.173,3336.194c-9.905-3.529-24.3-3.692-36.439-5.537C1414.152,3326.637,1428.436,3331.288,1439.173,3336.194Z" fill-rule="evenodd"/>
    <path id="Path_17944" data-name="Path 17944" d="M1967.508,3394.638c6.06.012,6.884,3.876,11.319,5.1C1977.046,3401,1967.954,3398.14,1967.508,3394.638Z" fill-rule="evenodd"/>
    <path id="Path_17945" data-name="Path 17945" d="M1445.859,3335.735c2.25-.66,7.8-.167,10.463,1.232C1454.892,3339.386,1447.054,3337.186,1445.859,3335.735Z" fill-rule="evenodd"/>
    <path id="Path_17946" data-name="Path 17946" d="M1996.834,3404.383c-3.147,5.569-8.684-4.313-13.069-1.539C1986.025,3394.807,1991.579,3404.4,1996.834,3404.383Z" fill-rule="evenodd"/>
    <path id="Path_17947" data-name="Path 17947" d="M1539.787,3348.042l6.527.768c-2.268,8.1,11.3,4.364,12.048,10.2-26.021-2.361-56.2-5.277-77.232-7.817,3.355-3.757,3.614-3.821,4.942-8.231,4.8,1.586-.428,4.356,1.893,6.513,9.552.232,16.6.741,22.2,2.614,2.879.148,3.175-2.787,3.355-5.9,2.749,2.111,8.273,2.091,7.108,7.127C1529.494,3354.526,1539.448,3357.072,1539.787,3348.042Z" fill-rule="evenodd"/>
    <path id="Path_17948" data-name="Path 17948" d="M1388.791,3336.553c-8.287-2.125-13.235-.409-20.743-3.721C1376.178,3332,1384.988,3330.389,1388.791,3336.553Z" fill-rule="evenodd"/>
    <path id="Path_17949" data-name="Path 17949" d="M1411.447,3335.452c3.813,2.781,8.88,4.655,12.342,7.713-8.571,6.016-21.18-1.153-32.1,2.512-3.943-3.115-3.295-7.478,0-11.3,3.092.331,3.616,2.6,7.71,2.152,4.067,1.916-3.672,1.005-5.379.645.745,5.677,14.744,4.9,16.842,3.228C1399.722,3335.509,1404.443,3340.025,1411.447,3335.452Z" fill-rule="evenodd"/>
    <path id="Path_17950" data-name="Path 17950" d="M1474.751,3349.166c-5.767,1.237-15.254,1.876-21.07-1.2C1457.953,3339.555,1467.948,3346.9,1474.751,3349.166Z" fill-rule="evenodd"/>
    <path id="Path_17951" data-name="Path 17951" d="M-133.278,3174.158c10.252,6.636,14.293,16.564,26.86,22-3.716,2.98-10.87-1.983-14.378-2.939-1.938.763.159,4.394-4.349,5.749-9.387,1.321-10.039-8.624-14.354-2.937-3.145-1.871-.692-6.628-2.619-9.123,3.729-1.892,4.557.409,9.06,1.067C-136.632,3184.589-136.726,3178.031-133.278,3174.158Z" fill-rule="evenodd"/>
    <path id="Path_17952" data-name="Path 17952" d="M1233.021,3320.7c5.095.344,8.047,2.288,8.564,6.054C1236.981,3326.82,1231.238,3327.836,1233.021,3320.7Z" fill-rule="evenodd"/>
    <path id="Path_17953" data-name="Path 17953" d="M1380.387,3340.577c-3.21,2.815-14.391,1.819-18.46-.928C1364.331,3335.238,1373.1,3341.571,1380.387,3340.577Z" fill-rule="evenodd"/>
    <path id="Path_17954" data-name="Path 17954" d="M2032.542,3416.123c.409,4.393-5.107,3.9-6.815,1.69C2027.037,3416.114,2030.138,3416.512,2032.542,3416.123Z" fill-rule="evenodd"/>
    <path id="Path_17955" data-name="Path 17955" d="M1325.344,3335.342c5.519.744,2.771,3.2.725,5.131,14.863,1.75,21.737,7.285,26.43,11.894-15.743-8.849-51.1-2.248-64.469-15.129C1297.631,3333.2,1321.2,3345.935,1325.344,3335.342Z" fill-rule="evenodd"/>
    <path id="Path_17956" data-name="Path 17956" d="M1706.454,3384.018c-4.069,7.377-18.672,2.72-23.66-1.54-6.992-.665-12.315,3.5-17-2C1674.545,3375.054,1691.477,3382.957,1706.454,3384.018Z" fill-rule="evenodd"/>
    <path id="Path_17957" data-name="Path 17957" d="M1739.7,3394.192c-7.8.327-20.7,1.332-18.868-8.481C1727.4,3384.728,1738.706,3387.5,1739.7,3394.192Z" fill-rule="evenodd"/>
    <path id="Path_17958" data-name="Path 17958" d="M1389.8,3350.467c-11.922,3.866-26.4-.3-38.172-1.972C1361.477,3342.183,1374.955,3349.39,1389.8,3350.467Z" fill-rule="evenodd"/>
    <path id="Path_17959" data-name="Path 17959" d="M1143.577,3326.52c-2.283,1.808-5.046-1.04-7.694-2.152C1136.375,3320.626,1145.592,3321.839,1143.577,3326.52Z" fill-rule="evenodd"/>
    <path id="Path_17960" data-name="Path 17960" d="M1178.7,3331.9c-3.323-.519-6.145-1.426-7.533-3.379C1171.043,3323.75,1183.052,3326.283,1178.7,3331.9Z" fill-rule="evenodd"/>
    <path id="Path_17961" data-name="Path 17961" d="M1188.435,3328.034c-.094,2.225-1.9,2.428-1.9,4.791-1.057-1.465-4.771-.946-3.48-4.178C1184.35,3327.84,1186.188,3327.674,1188.435,3328.034Z" fill-rule="evenodd"/>
    <path id="Path_17962" data-name="Path 17962" d="M1495.784,3373.008c-2.437,5.109-8.453,5.87-15.256,5.74.387-1.425-.023-2.238-1.005-2.61C1482.249,3371.861,1492.32,3376.4,1495.784,3373.008Z" fill-rule="evenodd"/>
    <path id="Path_17963" data-name="Path 17963" d="M1473.415,3382.956c-.369,1.425-2.513.757-4.062.768.7,1.359,2.852,1.644,2.169,4.022-6.443,2.244-11.424-2.494-19.594-2.307C1460.574,3383.36,1463.9,3382.442,1473.415,3382.956Z" fill-rule="evenodd"/>
    <path id="Path_17964" data-name="Path 17964" d="M1382.974,3374.8c-.891,2.706-6.5-.254-9.3.184C1375.046,3372.49,1380.969,3372.389,1382.974,3374.8Z" fill-rule="evenodd"/>
    <path id="Path_17965" data-name="Path 17965" d="M1558.211,3394.187c6.35,5.537,16.316,2.686,20.176,8.666-5.317-.466-22.795-1.6-35.139-5.415C1546.663,3394.456,1556.624,3399.365,1558.211,3394.187Z" fill-rule="evenodd"/>
    <path id="Path_17966" data-name="Path 17966" d="M1405.044,3378.674c1.294-2.691,7.383.358,10.594-.031C1413.5,3380.5,1407.437,3381.382,1405.044,3378.674Z" fill-rule="evenodd"/>
    <path id="Path_17967" data-name="Path 17967" d="M1428.706,3380.182c4.186,1.771,14.538-1.066,14.072,4.18C1438.592,3382.592,1428.24,3385.428,1428.706,3380.182Z" fill-rule="evenodd"/>
    <path id="Path_17968" data-name="Path 17968" d="M1537.011,3394.214c-3.905,5.99-21.726-2.081-32.97-1.392C1510.6,3388.9,1530.661,3393.657,1537.011,3394.214Z" fill-rule="evenodd"/>
    <path id="Path_17969" data-name="Path 17969" d="M-119.78,3215.954c7.889,1.279-1.361,11.559,3.833,14.28C-122.222,3232.528-127.626,3217.872-119.78,3215.954Z" fill-rule="evenodd"/>
    <path id="Path_17970" data-name="Path 17970" d="M869.164,3316.818c-.23,3.518-3.624,3.182-6.981,2.947C862.164,3315.93,866.752,3317.716,869.164,3316.818Z" fill-rule="evenodd"/>
    <path id="Path_17971" data-name="Path 17971" d="M-149.117,3214.99c-2.755,3.539-6.946,5.793-10.228,8.855C-162.955,3220.163-155.129,3214.825-149.117,3214.99Z" fill-rule="evenodd"/>
    <path id="Path_17972" data-name="Path 17972" d="M1474.566,3395.643c2.451-2.81,9.21.572,11.774,1.386C1483.346,3400.285,1478.238,3395.627,1474.566,3395.643Z" fill-rule="evenodd"/>
    <path id="Path_17973" data-name="Path 17973" d="M1487.048,3402.158c-2.406,6.71-15.638,1.128-19.739-1.08C1473,3396.959,1480.622,3404.116,1487.048,3402.158Z" fill-rule="evenodd"/>
    <path id="Path_17974" data-name="Path 17974" d="M1287.715,3384.946c-4.962-2.022-4.835-.826-10.3-2.459C1277.289,3379.279,1287.911,3381.3,1287.715,3384.946Z" fill-rule="evenodd"/>
    <path id="Path_17975" data-name="Path 17975" d="M1326.778,3390.79c-16.642-1.512-11.3-10.016,0,0Z" fill-rule="evenodd"/>
    <path id="Path_17976" data-name="Path 17976" d="M1334.9,3389.256c2.33,3.244,5.365-1.093,7.695,2.152.173,3.533-7.014-1.784-6.837,1.718-1.138.089-1.153-.647-1.147-1.413Z" fill-rule="evenodd"/>
    <path id="Path_17977" data-name="Path 17977" d="M2108.147,3482.8c3.843,1.668,7.523,3.442,11.336,5.1C2116.816,3489.822,2108.519,3486.355,2108.147,3482.8Z" fill-rule="evenodd"/>
    <path id="Path_17978" data-name="Path 17978" d="M1672.439,3436.538c5.488,4.575,17.585,4.211,27.161,5.69,2.469,2.047-3.7,5.568,3.331,5.438-11.567,2.438-25.656-2.447-37.749-5.691.891-2.706,6.5.254,9.3-.182C1673.573,3439.482,1668.926,3439.062,1672.439,3436.538Z" fill-rule="evenodd"/>
    <path id="Path_17979" data-name="Path 17979" d="M1768.131,3456.588c4.819.536,8.917,1.625,8.564,6.054C1772.749,3461.412,1767.47,3461.206,1768.131,3456.588Z" fill-rule="evenodd"/>
    <path id="Path_17980" data-name="Path 17980" d="M1943.933,3482.335c13.06,10.607,35.858,8.437,49.342,19.607-20.778-5.545-44.745-8.75-58.637-19.456C1939.172,3481.009,1943.378,3487.891,1943.933,3482.335Z" fill-rule="evenodd"/>
    <path id="Path_17981" data-name="Path 17981" d="M671.1,3333.7c-5.412,4.345-15.407,3.168-23.094,4.817C652.906,3333.54,662.434,3334.119,671.1,3333.7Z" fill-rule="evenodd"/>
    <path id="Path_17982" data-name="Path 17982" d="M1803.236,3473.3c.1-2.735,4.7-.022,6.691-.49-.135,2-1.172,4.652.708,5.129-1.1,2.905-5.254,2.161-8.275,2.794C1802.062,3477.127,1812.045,3474.406,1803.236,3473.3Z" fill-rule="evenodd"/>
    <path id="Path_17983" data-name="Path 17983" d="M1535.079,3444.22c-1.316,1.73-4.4,1.3-6.819,1.72-.8,3.226,7.459-.3,4.793,4.333-4.772,1.194-7.945-4.45-10.446-1.23-2.257-.554.259-7.059,3.339-5.9C1522.91,3449.334,1531.208,3438.909,1535.079,3444.22Z" fill-rule="evenodd"/>
    <path id="Path_17984" data-name="Path 17984" d="M1796.42,3474.993l3.92.461-.586,4.977C1796.271,3480.4,1795.673,3478.2,1796.42,3474.993Z" fill-rule="evenodd"/>
    <path id="Path_17985" data-name="Path 17985" d="M1358.543,3424.709c-.428,2.218,1.287,2.8.73,5.1-12.128-3.089-21.288-4.232-31.369-3.694C1327.881,3416.022,1349.18,3426.45,1358.543,3424.709Z" fill-rule="evenodd"/>
    <path id="Path_17986" data-name="Path 17986" d="M1373.93,3429.013c.157,4.521-12.041,1.457-13.2-.278C1362.422,3423.506,1371.079,3426.346,1373.93,3429.013Z" fill-rule="evenodd"/>
    <path id="Path_17987" data-name="Path 17987" d="M1404.132,3431.323c3.37-3.179,9.292,1.286,10.168,3.72-1.52,2.887-9.526,2.263-11.919-.157C1400.467,3431.276,1408.426,3433.17,1404.132,3431.323Z" fill-rule="evenodd"/>
    <path id="Path_17988" data-name="Path 17988" d="M1385.7,3430.4c-1.2,4.171-6.537,1.178-9.3.182C1379.629,3427.513,1383.089,3429.293,1385.7,3430.4Z" fill-rule="evenodd"/>
    <path id="Path_17989" data-name="Path 17989" d="M1995.9,3502.251c9.78-.829,15.9,5.544,25.7,6.826C2013.294,3511.1,2004.049,3504.1,1995.9,3502.251Z" fill-rule="evenodd"/>
    <path id="Path_17990" data-name="Path 17990" d="M1397.312,3433.043c-.891,2.706-6.5-.254-9.294.152C1389.388,3430.706,1395.31,3430.6,1397.312,3433.043Z" fill-rule="evenodd"/>
    <path id="Path_17991" data-name="Path 17991" d="M1494.156,3443.17l6.526.768C1500.22,3447.716,1492.422,3448.17,1494.156,3443.17Z" fill-rule="evenodd"/>
    <path id="Path_17992" data-name="Path 17992" d="M1509.684,3446.275c1.416-2.451,9.239-.253,10.444,1.23-1.205,2.093-2.393-.122-3.9-.46-1.281-.118-1.207,1.392-1.621,2.332C1510.946,3449.841,1512.274,3446.58,1509.684,3446.275Z" fill-rule="evenodd"/>
    <path id="Path_17993" data-name="Path 17993" d="M1853.179,3487.968c5.866-3.206,11.223,3.621,16.712,4.491C1865.115,3494.835,1857.931,3489.358,1853.179,3487.968Z" fill-rule="evenodd"/>
    <path id="Path_17994" data-name="Path 17994" d="M1879.753,3498.633c-2.2-1.375-2.931-3.857-7.561-3.413C1873.508,3490.905,1880.754,3494.569,1879.753,3498.633Z" fill-rule="evenodd"/>
    <path id="Path_17995" data-name="Path 17995" d="M2025.225,3512c2.189-3,6.652,1.709,9.006,2.3C2032.022,3517.33,2027.575,3512.622,2025.225,3512Z" fill-rule="evenodd"/>
    <path id="Path_17996" data-name="Path 17996" d="M1773.034,3482.3c4.935,1.986,12.072,2.283,16.694,4.487C1786.133,3488.728,1774.322,3489.093,1773.034,3482.3Z" fill-rule="evenodd"/>
    <path id="Path_17997" data-name="Path 17997" d="M1884.4,3504.226c-2.444,5.174-4.595-2.3-10.461-1.232C1875.772,3498.261,1881.653,3502.945,1884.4,3504.226Z" fill-rule="evenodd"/>
    <path id="Path_17998" data-name="Path 17998" d="M1920.1,3515.969c-3.091-1.483-7.406-2.024-7.268-5.9C1916.7,3509.021,1921.254,3510.355,1920.1,3515.969Z" fill-rule="evenodd"/>
    <path id="Path_17999" data-name="Path 17999" d="M1909.644,3514.737c2.141,1.4,7.032.763,6.088,4.484C1911.982,3519.035,1908.593,3518.508,1909.644,3514.737Z" fill-rule="evenodd"/>
    <path id="Path_18000" data-name="Path 18000" d="M1566.15,3484.316c8.236,8.987,27.795.878,30.329,12.386-10.724-3.882-18.523,1.173-28.745-3.384C1571.828,3488.435,1564.08,3490.461,1566.15,3484.316Z" fill-rule="evenodd"/>
    <path id="Path_18001" data-name="Path 18001" d="M1949.707,3534.527c2.77-3.091,7.8,1.622,10.3,2.458C1957.1,3540.188,1953.415,3534.484,1949.707,3534.527Z" fill-rule="evenodd"/>
    <path id="Path_18002" data-name="Path 18002" d="M2062.221,3557.836c2.911-2.852,8.689,1.694,11.612,2.612C2070.925,3563.268,2066.053,3558.031,2062.221,3557.836Z" fill-rule="evenodd"/>
    <path id="Path_18003" data-name="Path 18003" d="M1891.922,3541.55c6.431,2.291,11.14,9.488,20.454,6.178-.51,3.612-3.511,4.217-5.943,5.559C1900.307,3548.7,1889,3550.052,1891.922,3541.55Z" fill-rule="evenodd"/>
    <path id="Path_18004" data-name="Path 18004" d="M1733.381,3526.651c4.235.211,5.274,2.825,10.3,2.459C1742.85,3530.735,1731.557,3530.715,1733.381,3526.651Z" fill-rule="evenodd"/>
    <path id="Path_18005" data-name="Path 18005" d="M1699.245,3523.877c4.356.9,11.538-.333,10.04,4.95-2.45-3.067-4.055,1.12-8,.3C1701.559,3526.673,1697.918,3527.138,1699.245,3523.877Z" fill-rule="evenodd"/>
    <path id="Path_18006" data-name="Path 18006" d="M1712.33,3525.418c3.483.026,4.081,2.237,3.337,5.406C1712.141,3530.314,1709.723,3527.25,1712.33,3525.418Z" fill-rule="evenodd"/>
    <path id="Path_18007" data-name="Path 18007" d="M1916.021,3550.647c4.024-3.293,8.3,2.766,11.464,3.873-.788,3.837-8.677,6.484-12.195,2.333-.89-3.874,3.166-1.862,5.507-1.874C1921.583,3551.75,1918.449,3551.476,1916.021,3550.647Z" fill-rule="evenodd"/>
    <path id="Path_18008" data-name="Path 18008" d="M1938.949,3558.393c3.305-2.037,10.109,2.948,14.074,4.149C1948.665,3565.383,1942.954,3559.568,1938.949,3558.393Z" fill-rule="evenodd"/>
    <path id="Path_18009" data-name="Path 18009" d="M1929.526,3559.775c5.13-.386,4.314,6.543-.586,4.977Z" fill-rule="evenodd"/>
    <path id="Path_18010" data-name="Path 18010" d="M1385.8,3508.333l-14.4-1.7C1371.926,3503.218,1386.405,3503.934,1385.8,3508.333Z" fill-rule="evenodd"/>
    <path id="Path_18011" data-name="Path 18011" d="M1981.763,3577.263c5.976-3.288,11.094,3.734,16.7,4.458-3.307,1.494-5.038,1.323-3.337,5.9-1.92-2.716-9.044-1.543-8.564-6.053,2.216,2.624,3.27.544,6.543.771C1990.863,3579.485,1985.426,3579.036,1981.763,3577.263Z" fill-rule="evenodd"/>
    <path id="Path_18012" data-name="Path 18012" d="M1272.12,3494.947c13.405-.593,36.216,1.55,45.443,7.843C1302.773,3504.433,1287.1,3496.935,1272.12,3494.947Z" fill-rule="evenodd"/>
    <path id="Path_18013" data-name="Path 18013" d="M1870.56,3565.414c6.69-.489,3.947,6.086,8.423,7.251-4.028,4.029-5.633-3.217-10.318-2.459C1868.421,3567.558,1869.948,3567.034,1870.56,3565.414Z" fill-rule="evenodd"/>
    <path id="Path_18014" data-name="Path 18014" d="M1381.433,3511.555c-8.6,5.119-22.989-4.494-33.814-5.226C1352.467,3504.056,1372.748,3509.255,1381.433,3511.555Z" fill-rule="evenodd"/>
    <path id="Path_18015" data-name="Path 18015" d="M2016.179,3588.82c-5.2,2.709-12.459-2.711-16.694-4.489C2003.9,3581.02,2009.817,3587.943,2016.179,3588.82Z" fill-rule="evenodd"/>
    <path id="Path_18016" data-name="Path 18016" d="M1871.709,3578.1l-3.92-.461c4.261-2.725,7.175,1.706,11.919.157a30.526,30.526,0,0,0-5.813,4.331C1871.034,3582.4,1871.611,3580.069,1871.709,3578.1Z" fill-rule="evenodd"/>
    <path id="Path_18017" data-name="Path 18017" d="M-69.237,3380.209c-5.217-1.157-7.968-3.588-8.353-7.275C-71.95,3369.9-65.186,3378.164-69.237,3380.209Z" fill-rule="evenodd"/>
    <path id="Path_18018" data-name="Path 18018" d="M1881.439,3585.538c5.338,2-5.35,6.97,4.355,8.049-2.186,2.839-4.772,1.642-7.981.306-1.348-3.288,4.423-4.685.727-6.173C1879.03,3586.4,1881.231,3587.173,1881.439,3585.538Z" fill-rule="evenodd"/>
    <path id="Path_18019" data-name="Path 18019" d="M1886.377,3588.642c4.716,1.13,7.319,1.469,12.78,3.995-4.346,1.021.315,4.765-5.813,4.329,3.441-5.342-2.377-4.974-7.405-4.608Z" fill-rule="evenodd"/>
    <path id="Path_18020" data-name="Path 18020" d="M1961.71,3612.585c-9.213,3.194-10.7-5.475,0,0Z" fill-rule="evenodd"/>
    <path id="Path_18021" data-name="Path 18021" d="M1962.733,3615.2c20.544,3.12,49.7,9.588,63.722,21.331C2008.278,3631.611,1982.4,3622.781,1962.733,3615.2Z" fill-rule="evenodd"/>
    <path id="Path_18022" data-name="Path 18022" d="M1239.857,3532.6c-3.334,1.715-7.659,1.269-10.59,0C1231.548,3529.386,1235.4,3531.533,1239.857,3532.6Z" fill-rule="evenodd"/>
    <path id="Path_18023" data-name="Path 18023" d="M1956.917,3619.559c2.639-4.832,9.054,2.6,12.763,3.993C1964.37,3627.462,1962.995,3618.837,1956.917,3619.559Z" fill-rule="evenodd"/>
    <path id="Path_18024" data-name="Path 18024" d="M2074.372,3645.939c14.841.215,32.353,8.217,43.252,15.153C2105.774,3658.642,2087.194,3651.441,2074.372,3645.939Z" fill-rule="evenodd"/>
    <path id="Path_18025" data-name="Path 18025" d="M1217.925,3550.136c.222,4.978-7.345.6-10.751,1.226C1208.857,3548.653,1213.5,3549.521,1217.925,3550.136Z" fill-rule="evenodd"/>
    <path id="Path_18026" data-name="Path 18026" d="M1660.867,3613.6c4.083-.8,2,3.015,2.041,5.255-4.149-.649-10.142.052-8.712-4.795,3.277.195,3.8,2.428,6.233,3.257Z" fill-rule="evenodd"/>
    <path id="Path_18027" data-name="Path 18027" d="M1586.975,3611.159c-3.767-.189-7.16-.685-6.089-4.486C1583.159,3604.96,1586.81,3607.977,1586.975,3611.159Z" fill-rule="evenodd"/>
    <path id="Path_18028" data-name="Path 18028" d="M1634.585,3611.75c6.391,2.765,6.72,4.975,13.942,5.41-4.289,2.4-13.536-1.147-19.74-1.078C1628.73,3612.274,1633.781,3614.561,1634.585,3611.75Z" fill-rule="evenodd"/>
    <path id="Path_18029" data-name="Path 18029" d="M1891.713,3655.855c-1.478,4.393-10.211.938-13.214-.31C1881.736,3654.361,1889.65,3654.08,1891.713,3655.855Z" fill-rule="evenodd"/>
    <path id="Path_18030" data-name="Path 18030" d="M41.578,3469.9c6.966,1.779,14.779,3.114,13.624,9.141-7.8-1.813-10.461.908-18.287-.908.21-1.188,2.347-.682,3.788-.8C39.76,3472.819,36.084,3472.674,41.578,3469.9Z" fill-rule="evenodd"/>
    <path id="Path_18031" data-name="Path 18031" d="M2135.45,3700.875a25.94,25.94,0,0,1,5.957,5.748c-2,1.711-5.21,5.07-8.128,1.533C2138.693,3706.941,2136,3705.793,2135.45,3700.875Z" fill-rule="evenodd"/>
    <path id="Path_18032" data-name="Path 18032" d="M2193.831,3711.517c2.89-2.82,7.783,2.387,11.608,2.646C2201.9,3717.45,2197.7,3711.717,2193.831,3711.517Z" fill-rule="evenodd"/>
    <path id="Path_18033" data-name="Path 18033" d="M2153.33,3706.748c-.413,8.223,11.874,6.956,12.906,14.071-4.976-6.078-21.51-3.491-20.91-13.735C2148.072,3710.5,2147.85,3704.092,2153.33,3706.748Z" fill-rule="evenodd"/>
    <path id="Path_18034" data-name="Path 18034" d="M2211.528,3718.647c4.116-2.645,9.686,3.248,14.091,4.151C2221.4,3725.494,2216.487,3719.136,2211.528,3718.647Z" fill-rule="evenodd"/>
    <path id="Path_18035" data-name="Path 18035" d="M2016.259,3700.669c3.036,2.241,5.477,4.954,5.507,9.43C2015.9,3709.983,2015.029,3706.112,2016.259,3700.669Z" fill-rule="evenodd"/>
    <path id="Path_18036" data-name="Path 18036" d="M2155.188,3724.564c-5.158-.671-7.251-3.632-11.32-5.1C2145.6,3715.323,2155.246,3720.355,2155.188,3724.564Z" fill-rule="evenodd"/>
    <path id="Path_18037" data-name="Path 18037" d="M17.31,3488.41c6.115,1.263,10.883,7.413,8.064,9.731C20.553,3496.009,17.026,3493.2,17.31,3488.41Z" fill-rule="evenodd"/>
    <path id="Path_18038" data-name="Path 18038" d="M75.682,3602.076c9.493,4.727,1.03,18.835,19.865,18.658-.837,1.562-3.433,1.576-4.06,3.323,11.656,8.206,2.892,25.665-2.285,34.891-8.211-5.693-5.814-9.977-18.627-13.5,1.95-3.474,4.374,2.144,9.06,1.067,2.011-3.787-2.407-4.178-2.912-6.633a54.26,54.26,0,0,1-11.152,1.21c2.66-3.137,2.863-8.445,8.406-9.071-.947-4.455-9.425-.343-12.263-5.211-5.67.512-6.385,5.379-13.433,4.708,5.346-7.9,7.275-17.123,12.293-26.208C68.407,3608.085,75.164,3608.85,75.682,3602.076Z" fill-rule="evenodd"/>
    <path id="Path_18039" data-name="Path 18039" d="M441.334,3682.817l-10.859-1.279C430.835,3677.684,443.48,3677.48,441.334,3682.817Z" fill-rule="evenodd"/>
    <path id="Path_18041" data-name="Path 18041" d="M1807.464,3235.085c5.6-4.643,19.547,5.559,27.565,1.968,3.524,1.661-2.284,3.084.725,5.131,3.151-3.174,6.908-1.038,10.461,1.232C1836.71,3245.362,1815.814,3237.091,1807.464,3235.085Z" fill-rule="evenodd"/>
    <path id="Path_18042" data-name="Path 18042" d="M1811.015,2856.045c11.938.289,18.911,2.547,29.475,8.485-11.319,2.628-22.879-7.293-30.057-3.539C1807.1,2860.311,1812.479,2859.061,1811.015,2856.045Z" fill-rule="evenodd"/>
    <path id="Path_18043" data-name="Path 18043" d="M725.76,2745.851c-4.589,1.088-7.894,3.7-14.818,2.024C714.768,2745.834,720.019,2745.558,725.76,2745.851Z" fill-rule="evenodd"/>
    <path id="Path_18044" data-name="Path 18044" d="M738.1,2753.564c-2.939,2.944-11.588,1.606-17.72,4.205C720.133,2754.61,730.636,2752.206,738.1,2753.564Z" fill-rule="evenodd"/>
    <path id="Path_18045" data-name="Path 18045" d="M2058.666,2924.167c-.236,12.587,29.679,12.47,38.478,22.1,1.99-.309-.328-1.636.438-3.717,10.371,5.436,19.1,12.116,32.646,15.149,2.72.927,2.7-1.471,3.061-3.408,3.893,4.259,9.393,7.3,13.2,11.614-51.237-15.966-94.171-38.107-147.49-52.561-.493-3.539,8.778-2.479,5.83-4.327,12.549,3.81,30.462,13.391,46.862,18.1,2.1-.838-.13-1.9,1.914-4.82-3.01-4.889-13.365-4.319-14.673-10.51,3.153,1.393,9.2,4.629,14.966,8.021C2057.922,2922.2,2067.885,2927.233,2058.666,2924.167Z" fill-rule="evenodd"/>
    <path id="Path_18046" data-name="Path 18046" d="M1976.5,2913.215c1.244-3.845-1.989-4.131.73-6.2,5.43,3.512,11.771,6.272,17.422,9.619C1989.493,2916.822,1983.986,2913.842,1976.5,2913.215Z" fill-rule="evenodd"/>
    <path id="Path_18047" data-name="Path 18047" d="M2067.378,2928.962c6.447-1.412,15.533,4.928,21.638,7.563C2082.092,2938.264,2074.763,2930.6,2067.378,2928.962Z" fill-rule="evenodd"/>
    <path id="Path_18048" data-name="Path 18048" d="M1792.528,2922.977c-1.283-.12-1.192,1.392-1.585,2.3-4.138.119-4.32-3.639-2.042-5.254,1.866.89,3.091,2.217,4.94,3.1C1793.427,2924.488,1792.446,2923.671,1792.528,2922.977Z" fill-rule="evenodd"/>
    <path id="Path_18049" data-name="Path 18049" d="M2114.114,2970.872c5-3.276,8.61,4.08,15.528,3.106C2127.97,2978.73,2119.56,2970.65,2114.114,2970.872Z" fill-rule="evenodd"/>
    <path id="Path_18050" data-name="Path 18050" d="M2144.022,2975.671c-.79,1.854-4.241.555-3.206,4.636a8.861,8.861,0,0,0-6.381-2C2136.947,2973.561,2139.756,2976.573,2144.022,2975.671Z" fill-rule="evenodd"/>
    <path id="Path_18051" data-name="Path 18051" d="M1892.267,2953.563c39.429,10.295,75.824,28.345,112.5,34.612.822,6.165,11.376,5.043,14.8,9.279,3.687,1.871,5.567-5.38,6.836-1.718,5.771-.534,3.253,5.11,7.251,5.9,3.913,1.388,2.926-3.1,6.837-1.718,67.364,22.43,115.439,42.655,180.722,62.733-2.876,1.257-6.977,1.062-9.586,2.639-.072,2.323,4.343,1.278,4.937,3.1-4.389,5.1-5.118-2.007-7.4-4.639-2,.307.33,1.635-.437,3.716-14.1-4.087-29.737-9.537-44.563-15.307-9.71-3.762-22.266-7.507-29.037-12.2-.482-.344,2.242-1.461,2.755-.952-34.743-8.915-84.133-25.843-123.964-38.454-.068,2.291,4.344,1.279,4.924,3.071C1977.754,2990.647,1932.253,2971.141,1892.267,2953.563Zm151.412,52.99c-15.448-7.5-13.433.558,0,0Z" fill-rule="evenodd"/>
    <path id="Path_18052" data-name="Path 18052" d="M2019.873,3006.273c5.476-1.048,15.385,4.3,18.863,8.513C2032.549,3011.853,2026.986,3008.484,2019.873,3006.273Z" fill-rule="evenodd"/>
    <path id="Path_18053" data-name="Path 18053" d="M2021.587,3014.012c4.107-.411,4.618,1.821,7.706,2.185-.055-2.242-1.924-3.1-4.938-3.1,3.536-3.289,7.731,2.412,11.613,2.614-.263,4.088-6.032,5.324-8.275,2.792-2.342,5.155,6.045,2.277,4.5,6.822-7.311-1.4-7.072-9.008-15.108-6.825.322-3.155,1.156-1.365,2.769-.92C2021.422,3017.569,2021.235,3015.439,2021.587,3014.012Z" fill-rule="evenodd"/>
    <path id="Path_18054" data-name="Path 18054" d="M2225.42,3071.929c3.341-5.771,8.822,3.147,13.213.31C2236.583,3077.076,2231.5,3070.889,2225.42,3071.929Z" fill-rule="evenodd"/>
    <path id="Path_18055" data-name="Path 18055" d="M2239.636,3074.88c7.811,1.144,14.884,12.42.873,3.872C2240.834,3077,2241.14,3075.249,2239.636,3074.88Z" fill-rule="evenodd"/>
    <path id="Path_18056" data-name="Path 18056" d="M2318.63,3090.474c-2.349-7.079,6.373.207,9.426-1.413C2326.813,3094.758,2321.288,3086.475,2318.63,3090.474Z" fill-rule="evenodd"/>
    <path id="Path_18057" data-name="Path 18057" d="M1950.3,3045.823c.517-3.675,12.982,5.425,18.283,2.153-.754,3.968,4.311,3.573,5.957,5.747C1967.8,3054.591,1958.908,3047.316,1950.3,3045.823Z" fill-rule="evenodd"/>
    <path id="Path_18058" data-name="Path 18058" d="M2258.21,3085.849c2.481-2.2.087-1.585.582-4.944,2.326,5.414,9.21,7.438,16.114,9.433C2268.689,3093.79,2264.9,3085.806,2258.21,3085.849Z" fill-rule="evenodd"/>
    <path id="Path_18059" data-name="Path 18059" d="M1984.253,3061.128c1.142-.984,1.742-2.638,1.894-4.792-4.737-2.377-2.907,3.108-6.836,1.718,2.153-1.981,1.531-2.694-2.314-2.795.944-1.006,1.855-2.017.293-2.488,10.658.712,24.317,8.963,35.576,13-4.106,3.7-6.729-3.187-11.625-2.645-3.022.345,1.363,2.139-1.733,3.563C1991.525,3067,1992.642,3060.519,1984.253,3061.128Z" fill-rule="evenodd"/>
    <path id="Path_18060" data-name="Path 18060" d="M2462.938,3113.725c22.989,4.5,48.588,22.167,72.416,26.124C2512.212,3139.359,2482.087,3128.817,2462.938,3113.725Z" fill-rule="evenodd"/>
    <path id="Path_18061" data-name="Path 18061" d="M2026.21,3064.823c8.937-3.26,13.06,6.775,20.18,8.635,3.018-.315-1.35-2.106,1.747-3.53,14.74,9.08,30.567,13.212,44.856,24.123-4.088,2.968-7.8-3.921-12.777-4.028-3.075-.329.069,3.426,2.315,2.8-1.939,3.158-6.8-.832-9.15-1.078.944-9.6-14.6-10.4-23.513-14.073-2.64,4.99,7.291.57,4.648,5.562-3.091-.333-3.6-2.6-7.692-2.152.285-3.416,2.471-2.265.586-4.977-4.048-1.083-3.4,3.463-8.131,1.566.31-4.786,1.115-.317,4.046-.77A30.776,30.776,0,0,0,2026.21,3064.823Z" fill-rule="evenodd"/>
    <path id="Path_18062" data-name="Path 18062" d="M1934.745,3065.358c-2.9-2.961-2.582-2.093-7.692-2.152C1923.851,3062.51,1938.425,3058.413,1934.745,3065.358Z" fill-rule="evenodd"/>
    <path id="Path_18063" data-name="Path 18063" d="M2244.552,3123.2c-7.291,2.592-10.229-4.493-16.418-6.979-11.965-4.761-29.459-2.032-38.17-13.277,13.555-.447,20.976,12.307,30.931,7.411C2224.4,3115.625,2236.92,3117.961,2244.552,3123.2Z" fill-rule="evenodd"/>
    <path id="Path_18064" data-name="Path 18064" d="M2029.69,3091.612c-1.948-.9.053-1.3,1.44-1.077-2.317,5.092,5.573,3.434,6.962,8.356-4.973-2.086-11.079.867-11.171-6.361C2029.366,3093.361,2031.739,3092.235,2029.69,3091.612Z" fill-rule="evenodd"/>
    <path id="Path_18065" data-name="Path 18065" d="M2446.932,3148.279c9.073,1.164,16.02,13.639,22.8,20.281C2462.3,3166.184,2454.965,3153.983,2446.932,3148.279Z" fill-rule="evenodd"/>
    <path id="Path_18066" data-name="Path 18066" d="M2242.946,3136.841c7.5-3.62,20.96,6.589,29.33,9.713C2264.848,3144.435,2252.341,3142.131,2242.946,3136.841Z" fill-rule="evenodd"/>
    <path id="Path_18067" data-name="Path 18067" d="M1999.322,3113.169c8.2-1.59,18.263,5.183,25.555,8.022C2017.84,3121.9,2007.461,3115.4,1999.322,3113.169Z" fill-rule="evenodd"/>
    <path id="Path_18068" data-name="Path 18068" d="M2496.868,3185.584c2.61,1.008-2.339,4.579-5.668,3.1.017-3.287,1.11-5.266,4.485-4.486C2495.06,3186.36,2496.634,3186.866,2496.868,3185.584Z" fill-rule="evenodd"/>
    <path id="Path_18069" data-name="Path 18069" d="M2083.659,3139.418c17.992-4.651,40.427,16.577,56.777,12.977,14.874,5.934,31.072,10.494,45.438,19.179-15.048,3.4-28.877-10.842-46.169-12.973-.109,1.2,1.478,1.163,2.462,1.534C2130.871,3152.834,2097.231,3144.849,2083.659,3139.418Z" fill-rule="evenodd"/>
    <path id="Path_18070" data-name="Path 18070" d="M2326.955,3210.8c1.547-7.7-14.029-10.977-19.141-17.327,13.169-2.6,24.079,14.843,36,20.589C2339.2,3215.5,2332.7,3206.012,2326.955,3210.8Z" fill-rule="evenodd"/>
    <path id="Path_18071" data-name="Path 18071" d="M1708.045,3145.455c4-3.265,8.438,2.687,14.381,1.693C1721.287,3152.093,1713.758,3144.4,1708.045,3145.455Z" fill-rule="evenodd"/>
    <path id="Path_18072" data-name="Path 18072" d="M2051.7,3197.226c4.348,3.962,6.917,2.315,12.613,5.254C2062.319,3203.555,2050.532,3202.294,2051.7,3197.226Z" fill-rule="evenodd"/>
    <path id="Path_18073" data-name="Path 18073" d="M1932.2,3199.5c1.561-3.519,1.606,3.1,5.088,1.845,1.85-5.147-4.805-3.95-4.357-8.049,31.413,8.9,59.647,16.764,88.42,25.486-1.469,4.17-4.049.352-6.544-.771a5.717,5.717,0,0,1,.859,3.868c-26.488-4.683-56.867-18.638-82.608-18.509C1933.382,3201.625,1933.687,3199.874,1932.2,3199.5Z" fill-rule="evenodd"/>
    <path id="Path_18074" data-name="Path 18074" d="M2259,3248.047c12.69-.837,25.279,8.214,38.461,10.788C2284.971,3259.5,2271.234,3251.341,2259,3248.047Z" fill-rule="evenodd"/>
    <path id="Path_18075" data-name="Path 18075" d="M2068.941,3230.681c3.069-4.045,6.241.192,9.005,2.306C2075.9,3234.056,2071.142,3231,2068.941,3230.681Z" fill-rule="evenodd"/>
    <path id="Path_18076" data-name="Path 18076" d="M2128.871,3284.2c-.091,5.068.487,3.156,1.745,7.774-1.457-1.927-6.085-1.514-7.546-3.411-.517-4.468,7.966-3.022,2.044-6.051,6.256-.508,16.865,5.467,25.7,6.795-.715-1.362-2.854-1.646-2.186-4.027,16.581,7.6,36.381,12.748,53.276,20.1C2179.583,3301.353,2152.843,3290.8,2128.871,3284.2Z" fill-rule="evenodd"/>
    <path id="Path_18077" data-name="Path 18077" d="M1894.242,3274.2c-7.141,5.611-18.825-3.973-31.057-6.18-4.351-.8-8.6,1.128-8.713-4.793,12.547,3.68,37.1,5.357,43.252,15.152A6.689,6.689,0,0,1,1894.242,3274.2Z" fill-rule="evenodd"/>
    <path id="Path_18078" data-name="Path 18078" d="M1969.178,3279.228c7.859-1.692,18.491,4.254,27.14,5.719C1989.62,3285.786,1976.515,3281.689,1969.178,3279.228Z" fill-rule="evenodd"/>
    <path id="Path_18079" data-name="Path 18079" d="M2206.842,3308.49c6.234-1.628,16.107,3.749,23.22,5.257C2222.819,3315.354,2211.345,3309.563,2206.842,3308.49Z" fill-rule="evenodd"/>
    <path id="Path_18080" data-name="Path 18080" d="M1903.248,3276.51c1.063-3.45,5.849,1.232,10.462,1.232-.814,2.333-5.2.379-4.5,4.485C1903.386,3283.2,1908.292,3276.146,1903.248,3276.51Z" fill-rule="evenodd"/>
    <path id="Path_18081" data-name="Path 18081" d="M1944.479,3286.38c2.428-3.164,7.852.8,9.005,2.305C1952.531,3290.777,1947.347,3286.622,1944.479,3286.38Z" fill-rule="evenodd"/>
    <path id="Path_18082" data-name="Path 18082" d="M1976.119,3298.919c2,1.577-2.531,7.207-6.106,6.819.549-3.1,2.968-3.611-.71-5.13,1.224-2.092,2.4.09,3.92.462C1974.464,3300.673,1975.69,3300.275,1976.119,3298.919Z" fill-rule="evenodd"/>
    <path id="Path_18083" data-name="Path 18083" d="M1871.313,3289.07c5.915,1.239,9.729,4.018,15.238,5.562.026,3.356-7.186-2.027-5.668,3.1-5.368.262-7.319-2.044-11.612-2.613,2.417-3.516,5.61,1.682,9.15,1.077C1882.493,3290.929,1869.719,3295.46,1871.313,3289.07Z" fill-rule="evenodd"/>
    <path id="Path_18084" data-name="Path 18084" d="M-122.333,3081.205c-13.476,18.181-49.939,5.679-73.06,11.484C-174.065,3082.075-143.359,3086.489-122.333,3081.205Z" fill-rule="evenodd"/>
    <path id="Path_18085" data-name="Path 18085" d="M1829.771,3304.3c2.949-9.042,10.635,5.181,13.654-3.439,6.3,10,27.551,8.8,39.334,14.693C1865.743,3314.218,1851.059,3307.091,1829.771,3304.3Z" fill-rule="evenodd"/>
    <path id="Path_18086" data-name="Path 18086" d="M1900.016,3337.7c1.319,2.52-.994,5.441,5.961,5.717-9.8,2.264-11.672-5.4-21.926-5.1-4.642-3.039,6.632,1.579,4.374-3.254C1892.769,3337.327,1895.511,3342.216,1900.016,3337.7Z" fill-rule="evenodd"/>
    <path id="Path_18087" data-name="Path 18087" d="M1738.706,3323.721c-2.455-3.163,5.233,1.894,7.711,2.154C1744.579,3330.608,1739.94,3325.974,1738.706,3323.721Z" fill-rule="evenodd"/>
    <path id="Path_18088" data-name="Path 18088" d="M1568.378,3356.708c-2.58.463,8.783,5.761,12.775,4.027-.7-2.446-3.8-1.31-.873-3.872,9.078,1.964,33.288,12.128,48.355,5.694,4.314-.609,2.311,3.531,4.794,4.333,2.667-1.633-.837-4.474,4.5-4.483,3.346.33,1.488,1.1,1.007,2.609,14.018-2.373,30.788,5.19,44,8.95a9.606,9.606,0,0,0-3.647-2.921c6.731-3.1,14.389,2.78,17.863,5.872,2.01-.339-.326-1.667.437-3.718,11.822,4.843,30.125,1.824,39.774,10.943-7.555-.314-9.706-2.93-15.674-1.846,9.378,3.852,20.356,4.984,28.451,5.873-2.215-2.5-8.233-2.15-10.024-4.947,24.449,3.261,43.305,11.837,73.473,17.433-8.289-7.523-31.627-11.932-52.258-17.458-19.406-5.192-32.3-9.329-52.858-12.483.367-.979,1.476-1.105,1.621-2.332-80.735-19.535-168.2-29.643-251.025-39.62-2.154-3.574,14.774,3.656,12.469-4.791-.63-2.948-7.247-1.363-10.3-2.489,4.835-3.167,13.269-2.015,19.031-4.051-.7-1.359-2.858-1.614-2.169-4.023,41.888.429,70.882,6.27,103.494,9.7-.878-1.987-2.957-3.063-6.234-3.257,4.26-2.723,7.173,1.708,11.923.127a6.784,6.784,0,0,1,.709,5.129c4.322-.961.3-4.979,7.111-4.208,1.268,3.534,24.122,9.77,31.221,4.953,7.6,5.653,21.127-1.409,30.786,8.64.8-3.612,2.575-2.284,8.275-2.8,1.883,2.745-.3,1.593-.586,4.977,8.972.45,13.918,3.907,21.93,5.073,3.683-.683-3.663-3.21.582-4.945,5.27.429,3.062,3.587,1.859,6.511,12.9,2.8,24.574,6.5,37.329,9.409-2.44,2.842-9.209-.575-11.774-1.387,11.305,7.08,35.5,17.945,51.4,13.589,17.756,13.78,54,14.631,76.059,29.076,34,2.087,52.222,17.9,81.6,27.173-9.842,5.1,7.816,3.124,5.5,9.463,1.716-1.268,4.766-.876,7.987-.337.439,2.7,2.819,3.941,1.728,7.771,5.588,2.447,3.918-3.818,8.279-2.825,2.65,10.243,14.768,7.551,19.445,14.873,3.022-.347-1.35-2.108,1.75-3.563,1.971,3.426,6.323,5.057,9.714,7.436-25-1-49.961-21.372-78.958-26.894,8.41,11.783,30.385,13.476,38.019,25.841,16.326,1.188,33.825,10.721,43.981,20.252,5.2,1,13.673-.433,11.176,6.33-4.2.942-8.887-7.465-13.052-1.537-3.707-.98-2.479-5.688-5.817-6.944-5.159.638-3.01,4.691-4.791,6.941-30.092-13.667-61.087-26.674-92.046-39.708-3.832,2.933,3.743,6.955,6.979,8.358-3.763,1.5-16.384-8.987-25.551-8.055-3.119-2.826,3.78.063,5.23.616.36-2.193-1.537-5.1,6.964-2.947a182.309,182.309,0,0,0-22.787-8.944c-.432-.337-.871,8.839,4.356,8.05-2.72,3.8-14.282-5.259-22.218-2.616.7,1.359,2.856,1.614,2.186,4.026-12.209-3.417-21.783.245-31.495-13.769-6.48-9.321-43.228-1.64-46.038-14.234-9.692,2.531-35.777,4.569-36-9.254-3.879-1.224-11.427.252-12.923-2.768-3.077.82-4.307,3.55-7.108,4.178-10.871,2.52-21.118-7.532-29.037-12.2,2.425-5.591-2.257-5.855-4.355-8.051-3.087.052-1.9,5.238-4.651,5.745-4.13.056-3.852-3.168-3.188-6.668-3.4,4.742-3.827-1.088-9.149-1.077,1.869,5.714-9.437-5.23-17.845-5.869a1.243,1.243,0,0,0-.289,2.457c-11.653,1.726-22.74-3.636-36.456-5.539-19.148-2.67-36.132-4.7-54.72-7.688-4.556-1.207-3.738,4-8.276,2.793-.3-2.717,2.138-2.142,4.212-2.027-3.073-4.929-9.816-.134-12.632-5.255-7.482,4.069-27.613,5.019-34.119-2.773,4.75.975,11.695.324,14.232,2.955C1518.156,3344.407,1541.682,3359.665,1568.378,3356.708Zm25.7-27.12c2.311-3.752-7.432-4.07-7.675-2.15C1588.788,3330.785,1592.33,3327.017,1594.08,3329.588Zm39.207,4.617c7.635-1.211-6.3-.648-15.383-4.335-5.968,2.075-10.9-2.944-15.968.643C1612.694,3331.364,1626.067,3335.333,1633.287,3334.205Zm-31.514,8.838c-9.94-6.375-26.613-2.463-32.23-7.531C1570.7,3345.709,1596.918,3342.089,1601.773,3343.043Zm79.119,48.278c7.089-.443,16.772,2.262,17.862-5.433-7.561-3.414-17.621-4.917-28.468-5.875C1669.225,3387.744,1681.031,3382.555,1680.892,3391.321Zm45,.285c-7.644-.581-20.337-8.59-26.138-3.077,10.644-1.173,9.14,6.728,14.8,9.279a7.906,7.906,0,0,0-.565-6.357C1717.045,3392.417,1722.176,3391.872,1725.9,3391.606Zm39.625,12.2c.592,4.126,15.172,1.691,19.158,6.024C1782.82,3403.452,1765.487,3403.519,1765.52,3403.809Zm45.006,11.56c-4.988-.811-12.353-5.766-16.842-3.229C1798.5,3413.09,1807.619,3416.75,1810.526,3415.369Zm87.252,12.8c.06-3.507-9.341-5.732-11.464-3.873C1890.614,3425.246,1891.683,3428.6,1897.778,3428.166Zm-55.9,2.23c-2.69-1.754-4.952-3.84-10.17-3.72C1831.267,3430.1,1840.516,3432.056,1841.873,3430.4Z" fill-rule="evenodd"/>
    <path id="Path_18089" data-name="Path 18089" d="M1987.253,3384.38c.521-2.716,3.095,2.026,6.543.771.128,2.059-1.482,2-1.754,3.593l-2.607-.307A3.472,3.472,0,0,0,1987.253,3384.38Z" fill-rule="evenodd"/>
    <path id="Path_18090" data-name="Path 18090" d="M1312.561,3365.261c-.4-2.73,7.4,1.191,11.9.156-.044-2.625-5.687-1.022-6.249-3.259,1.429-2.419,9.252-.22,10.462,1.232-1.16.98-1.743,2.636-1.878,4.792C1320.478,3368.365,1317.96,3365.737,1312.561,3365.261Z" fill-rule="evenodd"/>
    <path id="Path_18091" data-name="Path 18091" d="M1341.888,3363.7c3.282,1.856,3.926,1.548,2.024,5.253,11.915,1.051,19.1,3.047,28.746,3.385-4.753,4.038-15.222-.133-21.052-1.235-7.546-1.4-26.647-2.467-15.531-3.073a8.9,8.9,0,0,1,6.688-.458A5.624,5.624,0,0,1,1341.888,3363.7Z" fill-rule="evenodd"/>
    <path id="Path_18092" data-name="Path 18092" d="M1592.041,3399.415c19.763,2.742,40.334,4.909,58.363,10.641,32.945-.975,60.291,9.143,87.092,14.024,13.528,2.488,29.34,5.466,44.289,6.492,14.864,8.456,32.387,9.913,48.483,15.768,4.039,2.01,1.471-3.914,5.524-1.872-1.477,4.1,4.557,2.613,4.63,5.56,16.645,3.492,42.056,9.167,57.781,15.586,2.956,1.21,1.782.465,1.02,2.643,9.249-1.625,18.382,4.463,32.515,5.106-6.959,5.631-19.418-3.373-27.3-4.492-8.839,5.442-17.654-3.485-28.744-3.385,33.742,17.993,69.992,27.562,101.9,45.946-24.932-1.02-57.951-22.153-84.042-28.77,12.075,11.131,28.258,14.952,41.956,26.306,1.884-5.559-6.813-3.2-8.585-6.026,7.322.161,28.484,4.6,24.975,12.969-3.72-5.451-8.1-7.149-14.967-8.022-.121,3.883,4.193,4.423,7.272,5.872-38.884-17.354-83.391-38.722-131.525-53.172-7.121-2.148-14.728-1.894-22.056-3.843-13.321-3.549-26.622-8.979-39.639-12.236-14-3.469-24.694-3.77-37.441-8.178-4.3-1.465-14.725-5.343-19.16-5.992-3.141-.5-6.067,2.766-9-2.337-2.576-.719-4.131-.232-4.213,2.027-19.047-10.962-44.584-10.264-72.45-14.823-.73,2.054.739,2.451,2.313,2.795-20.8.233-61.742-2.383-90.136-10.614,12.161-.612,28.3,1.321,39.334,3.388.622-5.133-3.483-3.445-8.563-6.055,8.473-2.9,24.425,3.035,38.04,3.234,2.926-.838-1.884-5.3-6.106-4.488.95-4.071,7.77-1.065,12.05-1.1A3.625,3.625,0,0,0,1592.041,3399.415Zm133.405,25.769c-4.089-.162-9.977-3.348-14.38-1.693C1715.01,3424.019,1721.882,3428.149,1725.446,3425.184Zm-142.866-13.055c-2.858-1.167-10.581-4.5-11.888-.121C1576.787,3412.277,1580.074,3413.4,1582.58,3412.129Zm6.4,2.031c7.272-1,16.022,5.335,18.432.892C1602.254,3415.052,1587.934,3411.418,1588.975,3414.16Z" fill-rule="evenodd"/>
    <path id="Path_18093" data-name="Path 18093" d="M1955.375,3520.122c-2.095,2.211-6.434-3.41-10.168-3.72C1948.2,3513.529,1953.226,3518.654,1955.375,3520.122Z" fill-rule="evenodd"/>
    <path id="Path_18094" data-name="Path 18094" d="M1262.311,3364.357c-7.76,3.557-26.68,2.672-32.664-3.846C1219.619,3359.746,1252.281,3360.462,1262.311,3364.357Z" fill-rule="evenodd"/>
    <path id="Path_18095" data-name="Path 18095" d="M2059.24,3459.474c-.413-4.072,6.238,5.781,10.3,2.459-3.494,1.793-2.962,2.429,2.315,2.8C2066.8,3470.073,2061.533,3462.874,2059.24,3459.474Z" fill-rule="evenodd"/>
    <path id="Path_18096" data-name="Path 18096" d="M2076.8,3467.8c-2.968-2.394,8.866.916,5.941,5.745C2078.522,3473.306,2081.249,3467.879,2076.8,3467.8Z" fill-rule="evenodd"/>
    <path id="Path_18097" data-name="Path 18097" d="M2087.839,3475.393c.471-1.286,2.69-.545,2.879-2.151,1.736,1.705,1.182,5.119,4.649,5.56C2092.868,3482.02,2090.8,3475.518,2087.839,3475.393Z" fill-rule="evenodd"/>
    <path id="Path_18098" data-name="Path 18098" d="M-196.73,3244.576c4.183-1.967-2.732,6.737-4.639,8.236C-205.38,3250.552-198.481,3246.35-196.73,3244.576Z" fill-rule="evenodd"/>
    <path id="Path_18099" data-name="Path 18099" d="M1919.255,3478.152c-1.934-3.166,7.922,1.636,8.857,3.566C1924.954,3485.082,1923.148,3477.971,1919.255,3478.152Z" fill-rule="evenodd"/>
    <path id="Path_18100" data-name="Path 18100" d="M1816.741,3482.432c2.031-4.807,5.278-.21,6.382,2,1.485-1.038,2.945-2.145,4.372-3.254-3.969-4.459-6.861-2.916-12.63-5.256l.583-4.945c6.35-2.606,15.11-.935,20.906,2.462.289,2.685-2.155,2.142-4.208,1.995,3.077,5.6,13.352,5.853,17.259,10.847-1.74,3.34-5.506-1-7.838-.923-.359,4.045,7.688,1.767,5.815,6.944-10.076-.932-7.877-4.025-18.009-4.611.059,2.209,1.911,3.067,4.941,3.072C1821.351,3491.757,1831.032,3485.455,1816.741,3482.432Zm22.058,3.843c2.235-4.4-7.143-5.823-8.84-3.564C1832.75,3484.029,1834.749,3485.926,1838.8,3486.275Z" fill-rule="evenodd"/>
    <path id="Path_18101" data-name="Path 18101" d="M2182.036,3519.154c2.752.932,13.92,2.023,13.781,6.637C2189.582,3524.833,2186.362,3521.58,2182.036,3519.154Z" fill-rule="evenodd"/>
    <path id="Path_18102" data-name="Path 18102" d="M1856.532,3493.376c3.337,2.406,9.258,2.879,12.628,5.287C1864.9,3499.279,1856.76,3497.587,1856.532,3493.376Z" fill-rule="evenodd"/>
    <path id="Path_18103" data-name="Path 18103" d="M1801.047,3491.889c1.152.933,11.649-2.556,10.168,3.72C1808.379,3493.965,1803.426,3493.861,1801.047,3491.889Z" fill-rule="evenodd"/>
    <path id="Path_18104" data-name="Path 18104" d="M1925.756,3524.17c2.625-5.279,7.15,1.321,10.316,2.461C1934.725,3528.644,1928.1,3525.149,1925.756,3524.17Z" fill-rule="evenodd"/>
    <path id="Path_18105" data-name="Path 18105" d="M1277.227,3451.574c4.1,3.228-14.636,3.481-11.625-2.648C1269.061,3449.43,1275.227,3453.7,1277.227,3451.574Z" fill-rule="evenodd"/>
    <path id="Path_18106" data-name="Path 18106" d="M1885.4,3529.447c1.123-.092,1.153.645,1.148,1.412,2.9,1.97,7.164,2.918,10.006,4.947C1894.248,3537.1,1884.453,3534.348,1885.4,3529.447Z" fill-rule="evenodd"/>
    <path id="Path_18107" data-name="Path 18107" d="M1868.832,3546.337c.414-1.356,1.391-.507,1.313.154a3.441,3.441,0,0,0,3.041-3.378c4.461.429,7,2.293,8.716,4.763C1877.5,3549.786,1871.842,3549.662,1868.832,3546.337Z" fill-rule="evenodd"/>
    <path id="Path_18108" data-name="Path 18108" d="M1973.509,3568.722c-4.45,5.48-13.081-2.147-18.155-3.382C1960.759,3563.772,1967.763,3565.619,1973.509,3568.722Z" fill-rule="evenodd"/>
    <path id="Path_18109" data-name="Path 18109" d="M2112.29,3593.878c4.706-3.085,8.319,4.27,14.091,4.151C2122.265,3600.674,2116.678,3594.778,2112.29,3593.878Z" fill-rule="evenodd"/>
    <path id="Path_18110" data-name="Path 18110" d="M2032.435,3597.026c6.572-2.9,8.607,4.974,14.088,4.182C2042.153,3604.014,2036.436,3598.231,2032.435,3597.026Z" fill-rule="evenodd"/>
    <path id="Path_18111" data-name="Path 18111" d="M2050.13,3626.766c3.624-1.171,13.213,2.9,13.639,7.865C2060.187,3631.3,2054.377,3629.6,2050.13,3626.766Z" fill-rule="evenodd"/>
    <path id="Path_18112" data-name="Path 18112" d="M2029.223,3635.609c19.008,6.293,45.6,15.237,66.914,27.966-12.6-2.633-31.048-10.713-41.52-18.717C2046.645,3647.656,2034.411,3639.732,2029.223,3635.609Z" fill-rule="evenodd"/>
    <path id="Path_18113" data-name="Path 18113" d="M-41.653,3442.506c-13.914,9,10.115,16.711,4.222,26.876-10.238-2.388-13.846-8.272-18.651-13.5,3.943-6.114,7.7-12.411,13.068-17.3,6.566,1.6,6.949.722,10.443,5C-34.271,3446.5-37.552,3438.837-41.653,3442.506Z" fill-rule="evenodd"/>
    <path id="Path_18114" data-name="Path 18114" d="M1914.06,3657.241c-2.835-1.387,11.08,2.55,8.279,8.479-9.941-1.234-12.16.166-27.45-3.232,4.993-6.374,11.228.716,21.357-1.221C1917.287,3658.579,1913.95,3659.177,1914.06,3657.241Z" fill-rule="evenodd"/>
    <path id="Path_18115" data-name="Path 18115" d="M1945.868,3668.491c-5.975.127-18.664,2.369-20.633-4.92,4.108-.443,4.616,1.821,7.692,2.152,1.1-1.371,2.606-5.539-1.879-6.482,2.458-2.871,7.625,1.728,7.4,4.64,2.1-2.849,4.711,1.9,5.379-.644,2.412,2.552-.172,4.611,4.939,3.1-.427,9.338,13.837,7.728,16.826,14.532-4.471-3.37-7.676-2.31-15.384-4.334C1952.8,3672.789,1950.219,3669.994,1945.868,3668.491Z" fill-rule="evenodd"/>
    <path id="Path_18116" data-name="Path 18116" d="M2108.306,3706.492c3.866-2.8-2.867-1.678-.582-6.358,3.988,1.171,5.189,4.411,8.568,6.022,4.449-5.032,12.639,2.191,13.8,6.638C2124.07,3714.449,2115.921,3703.877,2108.306,3706.492Z" fill-rule="evenodd"/>
    <path id="Path_18117" data-name="Path 18117" d="M2068.672,2951.725c.357-4.046-7.684-1.8-5.8-6.973a44.6,44.6,0,0,0,12.76,4.025c.89,3.872-3.162,1.83-5.5,1.842,7.79,5.485,19.16,8.292,29.033,12.234-37.335-9.921-83.2-23.657-109.6-36.794,15.9,5.544,36.814,9.924,55.447,12.821.132,2.026-1.493,1.964-1.734,3.564,2.784-.184,3.356,1.257,5.071,1.842,2-.307-.33-1.635.438-3.716,4.206-.111,4.353,2.779,9.017,2.339-.462,5.5-3.632-1.034-5.535,1.838C2056.738,2947.829,2064.5,2948.424,2068.672,2951.725Z" fill-rule="evenodd"/>
    <path id="Path_18118" data-name="Path 18118" d="M568.711,2850.982c4.357-4.054,2.65,4.686,8.792,3.526-1.613,4.568-4.192,8.224-11.9,7.413,3.156-4.388-4.7-2.981-2.912-6.635C568.119,2857.587,573.38,2853,568.711,2850.982Z" fill-rule="evenodd"/>
    <path id="Path_18119" data-name="Path 18119" d="M2079.948,3058.568c-.144,4.645,6.813,8.051,10.151,3.717,1.283,2.834,4.493,4.17,4.355,8.051-5.81-.557-7.279-4.371-14.091-4.151C2079.735,3063.524,2076.857,3060.791,2079.948,3058.568Z" fill-rule="evenodd"/>
    <path id="Path_18120" data-name="Path 18120" d="M2245.246,3162.214l.437-3.717c13.625,4.67,29.1,10.931,34.993,17.948C2265.7,3174.075,2258.132,3166.158,2245.246,3162.214Z" fill-rule="evenodd"/>
    <path id="Path_18121" data-name="Path 18121" d="M2000.088,3286.668c9.873,2.377,74.069,17.09,89.133,30.584-16.231-7.724-35.982-7.559-49.485-18.411-4.017,1.507-17.941-.068-14.092-4.149-10.529,2.336-19.448-2.418-31.225-4.923C1993.4,3283.678,2000.312,3293.337,2000.088,3286.668Z" fill-rule="evenodd"/>
    <path id="Path_18122" data-name="Path 18122" d="M1826.272,3311.422c-7.08-2.367-18.572-3.145-21.91-5.1,4.9-5.555,5.81.557,14.508.463C1808.519,3301.188,1831.288,3301.985,1826.272,3311.422Z" fill-rule="evenodd"/>
    <path id="Path_18123" data-name="Path 18123" d="M1304.038,3280.075c19.134,5.51,58.789,9.03,85.8,13.871-4.885,7.313,4.2,1.2,4.5,6.822l-13.068-1.539c1.027-2.435,4.221-1.962,1.9-4.822-3.628,1.074-4.195.591-3.209,4.668-4.86,1.375-.284-4.314-3.465-4.177-2.014,8.96-35.281-2.207-54.008-2.591-4.718-.109-11.318.615-16.988-2,2.56-2.573,10.019.7,14.512.43-3.931-5.924-15.444-2.808-20.762-3.689.337-3.857,4.371-3.223,8.277-2.794C1308.382,3281.353,1301.493,3284.247,1304.038,3280.075Z" fill-rule="evenodd"/>
    <path id="Path_18124" data-name="Path 18124" d="M1280.918,3341.446c-4.684.024-12.346-3.528-12.208,2.3-4.492-3.021-8.756-1.128-14.364-1.692.7-2.761.231-4.668-2.024-5.253-4.75-2.412-.918,5.514-5.668,3.1,5.71-6.609-13.506-3.124-16.405-6.947-3.1-.013-3.449,2.98-.438,3.717-9.115-.658-23.383,2.548-29.764-6.027,2.119-1.7,6.818-.283,10.606,0-.028-2.621-5.7-1.022-6.25-3.259.908-2.7,6.5.255,9.294-.15.149,2.029-1.479,2-1.731,3.563l13.051,1.537c2.01-.337-.329-1.634.437-3.716,1.85.313,3.681.625,4.064-.767a172.658,172.658,0,0,0,24.7,4.154C1262.988,3332.724,1276.723,3330.893,1280.918,3341.446Z" fill-rule="evenodd"/>
    <path id="Path_18125" data-name="Path 18125" d="M1668.375,3437.3c-7.186,3.561-8.212,5.548-20.032,1.41C1651.958,3432.467,1662.923,3438.419,1668.375,3437.3Z" fill-rule="evenodd"/>
    <path id="Path_18126" data-name="Path 18126" d="M1891.361,3501.277c7.816,1.688,16.483,2.581,20.035,9.865-7.013-.059-8.734-2.178-10.885,2.519a30.446,30.446,0,0,0-7.563-3.413C1901.787,3508.254,1890.411,3506.914,1891.361,3501.277Z" fill-rule="evenodd"/>
  </g>
</svg>
