<svg xmlns="http://www.w3.org/2000/svg" width="1559.009" height="6.449" viewBox="0 0 1559.009 6.449">
  <g id="Group_726" data-name="Group 726" transform="translate(-136.043 -6808.472)">
    <path id="Path_13639" data-name="Path 13639" d="M1098.364,6814.431l-.016.027,4.012.029C1100.774,6814.432,1101.584,6814.449,1098.364,6814.431Z" fill-rule="evenodd"/>
    <path id="Path_13640" data-name="Path 13640" d="M1546.064,6814.858l5.558.063,2.678-.184-3.22,0C1549.306,6814.815,1549.306,6814.824,1546.064,6814.858Z" fill-rule="evenodd"/>
    <path id="Path_13641" data-name="Path 13641" d="M1544.38,6814.909l.075-.053-2.413,0Z" fill-rule="evenodd"/>
    <path id="Path_13642" data-name="Path 13642" d="M855.136,6814.088l6.43.108.017-.107-6.443-.028Z" fill-rule="evenodd"/>
    <path id="Path_13643" data-name="Path 13643" d="M793.072,6814.188h1.61l0-.053C793.151,6814.172,794.2,6814.137,793.072,6814.188Z" fill-rule="evenodd"/>
    <path id="Path_13644" data-name="Path 13644" d="M888.986,6814.1l8.061,0,1.592.081,9.689-.078-17.72-.058Z" fill-rule="evenodd"/>
    <path id="Path_13645" data-name="Path 13645" d="M865.6,6814.17l8.878-.078-9.667-.029Z" fill-rule="evenodd"/>
    <path id="Path_13646" data-name="Path 13646" d="M810.8,6814.109c8.173.083,18.633.088,27.4,0,1.122.051.06.016,1.607.054,2.208-.059,5.2-.03,8.87-.052h4.031l0-.026q-20.551-.018-41.1-.032Z" fill-rule="evenodd"/>
    <path id="Path_13647" data-name="Path 13647" d="M792.271,6814.028v.053h10.479l.8.08,1.619-.107-12.088-.027Z" fill-rule="evenodd"/>
    <path id="Path_13648" data-name="Path 13648" d="M750.352,6814.028v.027l4.035.106,0-.08Z" fill-rule="evenodd"/>
    <path id="Path_13649" data-name="Path 13649" d="M735.844,6814.029h-.807l-.8.08c6.667,0,5.954.019,12.9.053l-1.614-.08Z" fill-rule="evenodd"/>
    <path id="Path_13650" data-name="Path 13650" d="M701.983,6814.006h-.807l.014.107c5.035-.041,12.509-.031,16.931.051l.8-.107C711.58,6814.057,708.045,6814.085,701.983,6814.006Z" fill-rule="evenodd"/>
    <path id="Path_13651" data-name="Path 13651" d="M996.978,6814.133c4.546-.006,2.906-.025,5.617.056l.851-.107-5.642,0Z" fill-rule="evenodd"/>
    <path id="Path_13652" data-name="Path 13652" d="M948.607,6814.166l.017-.053h-2.417Z" fill-rule="evenodd"/>
    <path id="Path_13653" data-name="Path 13653" d="M911.538,6814.154c.274-.017.547-.035.82-.053h-1.613Z" fill-rule="evenodd"/>
    <path id="Path_13654" data-name="Path 13654" d="M805.968,6814.136h1.61l.812-.081A16.832,16.832,0,0,0,805.968,6814.136Z" fill-rule="evenodd"/>
    <path id="Path_13655" data-name="Path 13655" d="M783.4,6814.135l.809-.107C783.046,6814.083,782.348,6814.062,783.4,6814.135Z" fill-rule="evenodd"/>
    <path id="Path_13656" data-name="Path 13656" d="M775.342,6814.134h2.417l2.417-.026v-.081l-4.834.027Z" fill-rule="evenodd"/>
    <path id="Path_13657" data-name="Path 13657" d="M766.475,6814.134h2.42l.8-.08-3.224.027Z" fill-rule="evenodd"/>
    <path id="Path_13658" data-name="Path 13658" d="M731.82,6814.136l.8-.053H731.01Z" fill-rule="evenodd"/>
    <path id="Path_13659" data-name="Path 13659" d="M720.526,6814.03a15.239,15.239,0,0,0,2.427.107l3.221-.027c-1.342-.048-2.756-.056-4.841-.08Z" fill-rule="evenodd"/>
    <path id="Path_13660" data-name="Path 13660" d="M671.347,6814.011l.01.054c5.411.029,8.176.028,12.09,0l2.431.08C684.016,6813.96,677.083,6814.017,671.347,6814.011Z" fill-rule="evenodd"/>
    <path id="Path_13661" data-name="Path 13661" d="M679.43,6814.143h1.613C679.606,6814.119,680.832,6814.117,679.43,6814.143Z" fill-rule="evenodd"/>
    <path id="Path_13662" data-name="Path 13662" d="M647.962,6813.99c1,.049,1.88.12,3.26.16,2.19-.1,8.174-.095,11.271-.057C660,6813.972,652.418,6813.993,647.962,6813.99Z" fill-rule="evenodd"/>
    <path id="Path_13663" data-name="Path 13663" d="M1517.383,6814.6l-.036.027c9.082.118,28.3-.053,38.563.114,3.066-.147,19.743-.108,25.146-.093C1562.573,6814.392,1536.865,6814.539,1517.383,6814.6Z" fill-rule="evenodd"/>
    <path id="Path_13664" data-name="Path 13664" d="M1510.066,6814.641l3.184.032c1.2-.034,1.46-.031,2.522-.076l-1.646.024C1511.42,6814.6,1512.226,6814.6,1510.066,6814.641Z" fill-rule="evenodd"/>
    <path id="Path_13665" data-name="Path 13665" d="M1024.4,6814.093l-2.441.052,4.016.029c3.194-.056,11.43-.049,15.323-.019C1040.223,6814.074,1029.656,6814.123,1024.4,6814.093Z" fill-rule="evenodd"/>
    <path id="Path_13666" data-name="Path 13666" d="M996.16,6814.159c-1.727-.059-1.4-.025-4.008-.055C993.75,6814.159,992.935,6814.142,996.16,6814.159Z" fill-rule="evenodd"/>
    <path id="Path_13667" data-name="Path 13667" d="M980.859,6814.126l8.048.03,1.622-.026C988.378,6814.047,982.866,6814.054,980.859,6814.126Z" fill-rule="evenodd"/>
    <path id="Path_13668" data-name="Path 13668" d="M969.587,6814.094l2.4.055C973.541,6814.074,971.917,6814.109,969.587,6814.094Z" fill-rule="evenodd"/>
    <path id="Path_13669" data-name="Path 13669" d="M956.675,6814.143l4.038-.026-3.206-.054C956.35,6814.116,956.865,6814.1,956.675,6814.143Z" fill-rule="evenodd"/>
    <path id="Path_13670" data-name="Path 13670" d="M949.422,6814.14h2.417l3.242-.053-4.021-.028Z" fill-rule="evenodd"/>
    <path id="Path_13671" data-name="Path 13671" d="M934.917,6814.135l4.053-.079-8.865,0C931.751,6814.158,931.2,6814.108,934.917,6814.135Z" fill-rule="evenodd"/>
    <path id="Path_13672" data-name="Path 13672" d="M917.2,6814.076l2.4.054,1.625-.053h1.613l.007-.026-5.641,0Z" fill-rule="evenodd"/>
    <path id="Path_13673" data-name="Path 13673" d="M884.155,6814.067l1.6.054C884.64,6814.07,885.7,6814.1,884.155,6814.067Z" fill-rule="evenodd"/>
    <path id="Path_13674" data-name="Path 13674" d="M747.131,6814.108h1.614l0-.053C747.212,6814.092,748.251,6814.057,747.131,6814.108Z" fill-rule="evenodd"/>
    <path id="Path_13675" data-name="Path 13675" d="M689.888,6814.008l-1.594.107,11.282,0C697.132,6813.983,693.011,6814.026,689.888,6814.008Z" fill-rule="evenodd"/>
    <path id="Path_13676" data-name="Path 13676" d="M664.893,6813.986a12.53,12.53,0,0,1-1.6.08l2.428.053.786-.107,0-.027Z" fill-rule="evenodd"/>
    <path id="Path_13677" data-name="Path 13677" d="M597.16,6813.979c4.741.207,22.812.166,29.046.07l.021.081,4.817-.082c4.051.022,3.072.031,5.662.079,1.811-.069,5.447-.061,8.86-.03l1.6-.053C630.788,6813.894,613.835,6814.046,597.16,6813.979Z" fill-rule="evenodd"/>
    <path id="Path_13678" data-name="Path 13678" d="M1083.2,6814.18l.837-.053-1.6-.027Z" fill-rule="evenodd"/>
    <path id="Path_13679" data-name="Path 13679" d="M1067.125,6814.09c1.505.081.116.045,3.18.082,2.259-.059,4.97-.056,8.072-.022Q1077.558,6814.077,1067.125,6814.09Z" fill-rule="evenodd"/>
    <path id="Path_13680" data-name="Path 13680" d="M1014.729,6814.088l1.588.054C1015.21,6814.091,1016.262,6814.126,1014.729,6814.088Z" fill-rule="evenodd"/>
    <path id="Path_13681" data-name="Path 13681" d="M965.548,6814.119l3.223,0-.786-.054Z" fill-rule="evenodd"/>
    <path id="Path_13682" data-name="Path 13682" d="M939.76,6814.11h2.417l.016-.054-2.425.026Z" fill-rule="evenodd"/>
    <path id="Path_13683" data-name="Path 13683" d="M596.361,6814.006l-5.642,0c1.533.092,1.883.071,4.87.1C597.753,6814.029,595.829,6814.115,596.361,6814.006Z" fill-rule="evenodd"/>
    <path id="Path_13684" data-name="Path 13684" d="M461.688,6814.02c3.6.223,21.078.056,30.722.142l24.134-.121-.012-.026Q489.109,6814.017,461.688,6814.02Z" fill-rule="evenodd"/>
    <path id="Path_13685" data-name="Path 13685" d="M518.118,6813.96c23.081.146,47.6.076,71.013.129C569.778,6813.719,539.582,6813.963,518.118,6813.96Z" fill-rule="evenodd"/>
    <path id="Path_13686" data-name="Path 13686" d="M1125.129,6814.155l1.611,0,.034-.054C1125.221,6814.139,1126.284,6814.1,1125.129,6814.155Z" fill-rule="evenodd"/>
    <path id="Path_13687" data-name="Path 13687" d="M1117.121,6814.069c1.065.055.862.045,2.368.082l-1.561-.081Z" fill-rule="evenodd"/>
    <path id="Path_13688" data-name="Path 13688" d="M1105.79,6814.142l.838-.053h-1.612Z" fill-rule="evenodd"/>
    <path id="Path_13689" data-name="Path 13689" d="M1138.844,6814.139l4.835,0,6.5-.075-10.476-.008Z" fill-rule="evenodd"/>
    <path id="Path_13690" data-name="Path 13690" d="M414.922,6814.052l.017.027,10.515.046c5.651-.1,14.11-.048,23.364-.043C441.222,6813.954,421.007,6814.037,414.922,6814.052Z" fill-rule="evenodd"/>
    <path id="Path_13691" data-name="Path 13691" d="M1181.57,6814.146l1.671-.079C1181.534,6814.1,1180.121,6814.076,1181.57,6814.146Z" fill-rule="evenodd"/>
    <path id="Path_13692" data-name="Path 13692" d="M452.85,6814.079l.777-.054-4,.056Z" fill-rule="evenodd"/>
    <path id="Path_13693" data-name="Path 13693" d="M306.878,6814.144l-1.589.028,8.083.019C311.947,6814.14,309.088,6814.082,306.878,6814.144Z" fill-rule="evenodd"/>
    <path id="Path_13694" data-name="Path 13694" d="M1027.66,6814.014c1.645-.054.816-.038,4.055-.051l-2.394-.055-3.224,0Z" fill-rule="evenodd"/>
    <path id="Path_13695" data-name="Path 13695" d="M918.077,6813.808l.828-.08c-2.342-.016-8.077.058-12.089-.03-2.338.058-1.223.008-1.634.08-8.943-.052-22.48-.07-35.49.045a6.79,6.79,0,0,1-1.592-.134c-1.726.073-.483,0-.825.107-5.368-.039-7.442.1-11.3.078,20.27.088,41.7.019,62.087-.012h4.033l2.425-.026c1.528.086.791.007-.03.107,2.933.01,4.4,0,8.055.029l3.233-.025c-2.081-.053-.749-.027-3.217-.028l-1.607-.027.008-.027,16.152-.075,2.411.028c-1.893.109-2.279.063-5.67.078l-.822.053,14.519-.021c-2.584-.066-3.138-.037-5.635-.029l-1.595-.054,11.307-.049.009-.027C947.7,6813.621,932.067,6813.712,918.077,6813.808Z" fill-rule="evenodd"/>
    <path id="Path_13696" data-name="Path 13696" d="M851.132,6813.9l4.044-.08-4.836-.027-.822.133,0,.027h3.224C851.614,6813.9,852.678,6813.937,851.132,6813.9Z" fill-rule="evenodd"/>
    <path id="Path_13697" data-name="Path 13697" d="M829.359,6813.95h1.611l.006-.054C829.443,6813.934,830.487,6813.9,829.359,6813.95Z" fill-rule="evenodd"/>
    <path id="Path_13698" data-name="Path 13698" d="M823.719,6813.9l-.005.054h3.224l.815-.08Z" fill-rule="evenodd"/>
    <path id="Path_13699" data-name="Path 13699" d="M794.692,6813.948c-1.433-.025-.206-.027-1.611,0Z" fill-rule="evenodd"/>
    <path id="Path_13700" data-name="Path 13700" d="M765.669,6813.947h3.225l4.032-.027-7.258-.026Z" fill-rule="evenodd"/>
    <path id="Path_13701" data-name="Path 13701" d="M759.219,6813.947l.8-.053-4.027.053Z" fill-rule="evenodd"/>
    <path id="Path_13702" data-name="Path 13702" d="M744.7,6813.894v.027l4.033.027C747.115,6813.893,747.936,6813.91,744.7,6813.894Z" fill-rule="evenodd"/>
    <path id="Path_13703" data-name="Path 13703" d="M408.489,6814.084l3.225,0-1.646-.052Z" fill-rule="evenodd"/>
    <path id="Path_13704" data-name="Path 13704" d="M391.52,6814.043c2.932.057,8.156.056,14.551.042-2.4-.057-8.764-.048-12.151-.071Z" fill-rule="evenodd"/>
    <path id="Path_13705" data-name="Path 13705" d="M326.949,6814.018c14.1.152,29.965.1,44.413.041l.846.053,7.238-.033C363.2,6813.94,343.549,6813.972,326.949,6814.018Z" fill-rule="evenodd"/>
    <path id="Path_13706" data-name="Path 13706" d="M1217.131,6814.044l-.85.052,5.62.032-1.547-.081Z" fill-rule="evenodd"/>
    <path id="Path_13707" data-name="Path 13707" d="M1200.949,6814.109l1.612,0,.848-.053C1200.977,6814.09,1202.443,6814.056,1200.949,6814.109Z" fill-rule="evenodd"/>
    <path id="Path_13708" data-name="Path 13708" d="M1188.861,6814.1l8.06.007,2.458-.052-9.67-.008Z" fill-rule="evenodd"/>
    <path id="Path_13709" data-name="Path 13709" d="M999.471,6813.947l4.02.028,5.653-.024-9.662-.031Z" fill-rule="evenodd"/>
    <path id="Path_13710" data-name="Path 13710" d="M989.787,6813.969l5.654-.024c-3.144-.06-5.41-.04-10.469-.032Z" fill-rule="evenodd"/>
    <path id="Path_13711" data-name="Path 13711" d="M967.216,6813.959l1.631-.052-3.225,0Z" fill-rule="evenodd"/>
    <path id="Path_13712" data-name="Path 13712" d="M936.584,6813.948H938.2l.016-.054C936.671,6813.932,937.722,6813.9,936.584,6813.948Z" fill-rule="evenodd"/>
    <path id="Path_13713" data-name="Path 13713" d="M915.631,6813.915l-.007.026h3.224Z" fill-rule="evenodd"/>
    <path id="Path_13714" data-name="Path 13714" d="M801.15,6813.787h-.808c-2.34.067-2.046.036-1.617.134l2.423-.107Z" fill-rule="evenodd"/>
    <path id="Path_13715" data-name="Path 13715" d="M775.343,6813.92h3.225l-3.224-.026Z" fill-rule="evenodd"/>
    <path id="Path_13716" data-name="Path 13716" d="M718.093,6813.87l-2.416.027,0,.027H718.1Z" fill-rule="evenodd"/>
    <path id="Path_13717" data-name="Path 13717" d="M711.648,6813.924h1.611l-.006-.054C711.728,6813.908,712.764,6813.873,711.648,6813.924Z" fill-rule="evenodd"/>
    <path id="Path_13718" data-name="Path 13718" d="M710.034,6813.924l-4.039-.053,0,.027Z" fill-rule="evenodd"/>
    <path id="Path_13719" data-name="Path 13719" d="M386.7,6814.074l3.229,0-1.651-.052Z" fill-rule="evenodd"/>
    <path id="Path_13720" data-name="Path 13720" d="M381.019,6814.025l-.77.054,4.839,0-.844-.053Z" fill-rule="evenodd"/>
    <path id="Path_13721" data-name="Path 13721" d="M1224.339,6814.1l.85-.053C1223.708,6814.085,1224.7,6814.079,1224.339,6814.1Z" fill-rule="evenodd"/>
    <path id="Path_13722" data-name="Path 13722" d="M1076.078,6813.935l-.014.027,4.014.029,17.749-.015C1093.765,6813.869,1081.61,6813.911,1076.078,6813.935Z" fill-rule="evenodd"/>
    <path id="Path_13723" data-name="Path 13723" d="M1074.437,6813.987l.835-.053-4.837,0C1072,6813.975,1071.516,6813.968,1074.437,6813.987Z" fill-rule="evenodd"/>
    <path id="Path_13724" data-name="Path 13724" d="M1062.346,6813.98l.028-.053-4.045.024Z" fill-rule="evenodd"/>
    <path id="Path_13725" data-name="Path 13725" d="M1052.672,6813.974h1.614l.027-.053C1052.762,6813.958,1053.822,6813.924,1052.672,6813.974Z" fill-rule="evenodd"/>
    <path id="Path_13726" data-name="Path 13726" d="M1047.836,6813.972l.834-.053c-3.556,0-3.966-.006-5.67.05Z" fill-rule="evenodd"/>
    <path id="Path_13727" data-name="Path 13727" d="M1040.622,6813.887c-1.166.053-.65.041-.846.08Z" fill-rule="evenodd"/>
    <path id="Path_13728" data-name="Path 13728" d="M1033.34,6813.937l4.019.029-3.2-.055h-.807Z" fill-rule="evenodd"/>
    <path id="Path_13729" data-name="Path 13729" d="M1012.38,6813.926h-1.612l5.632.03-1.6-.028Z" fill-rule="evenodd"/>
    <path id="Path_13730" data-name="Path 13730" d="M975.288,6813.936l.02-.054-4.042.026Z" fill-rule="evenodd"/>
    <path id="Path_13731" data-name="Path 13731" d="M958.359,6813.929h2.417l-.787-.054Z" fill-rule="evenodd"/>
    <path id="Path_13732" data-name="Path 13732" d="M675.36,6813.9l-1.623-.053C674.874,6813.9,673.8,6813.866,675.36,6813.9Z" fill-rule="evenodd"/>
    <path id="Path_13733" data-name="Path 13733" d="M664.07,6813.906h2.418a11.083,11.083,0,0,1,1.59-.134h1.611l-4.848-.053C665.261,6813.835,665.048,6813.805,664.07,6813.906Z" fill-rule="evenodd"/>
    <path id="Path_13734" data-name="Path 13734" d="M612.462,6813.92h1.615l-.015-.053C612.54,6813.9,613.573,6813.868,612.462,6813.92Z" fill-rule="evenodd"/>
    <path id="Path_13735" data-name="Path 13735" d="M1582.823,6814.543c-1.963-.057-4.666-.067-8.78-.068Z" fill-rule="evenodd"/>
    <path id="Path_13736" data-name="Path 13736" d="M1261.429,6814.113a30.767,30.767,0,0,1,3.247-.024l.048-.053-4.029,0Z" fill-rule="evenodd"/>
    <path id="Path_13737" data-name="Path 13737" d="M1254.983,6814.107l.07-.081-2.465.051Z" fill-rule="evenodd"/>
    <path id="Path_13738" data-name="Path 13738" d="M1234.031,6814.086l.045-.053-3.268.05Z" fill-rule="evenodd"/>
    <path id="Path_13739" data-name="Path 13739" d="M1113.964,6813.96l3.207.029,6.482-.049.017-.027-9.69.02Z" fill-rule="evenodd"/>
    <path id="Path_13740" data-name="Path 13740" d="M1099.471,6813.923l5.61.058C1103.45,6813.924,1103.02,6813.929,1099.471,6813.923Z" fill-rule="evenodd"/>
    <path id="Path_13741" data-name="Path 13741" d="M1065.613,6813.9l-.835.053,4.031,0Z" fill-rule="evenodd"/>
    <path id="Path_13742" data-name="Path 13742" d="M840.66,6813.818l.8.054.814-.054Z" fill-rule="evenodd"/>
    <path id="Path_13743" data-name="Path 13743" d="M818.082,6813.815c-1.532.038-.489,0-1.615.054h1.611Z" fill-rule="evenodd"/>
    <path id="Path_13744" data-name="Path 13744" d="M753.567,6813.76l-2.414.107h4.032l4.03-.107Z" fill-rule="evenodd"/>
    <path id="Path_13745" data-name="Path 13745" d="M645.486,6813.75h-.8l1.642.133-.031-.134Z" fill-rule="evenodd"/>
    <path id="Path_13746" data-name="Path 13746" d="M607.618,6813.9l.772-.107c-3.5.09-2.99.074-6.452,0l.033.107Z" fill-rule="evenodd"/>
    <path id="Path_13747" data-name="Path 13747" d="M552.7,6813.7c-4.664.12-16.2.08-19.291.17L531,6813.9l4.041.025c8.613-.137,20.205-.072,31.431-.068l-.01-.027-12.128-.075,3.206-.055-4.077-.1-15.343-.02.852.107-5.657-.024h-.808c1.907.142,7.286.1,12.145.1l-.838-.08,3.206-.055c1.61.069.8.025.847.106,1.5-.036,1.9-.068,3.188-.108l3.227,0A11.985,11.985,0,0,1,552.7,6813.7Z" fill-rule="evenodd"/>
    <path id="Path_13748" data-name="Path 13748" d="M530.192,6813.9c-1.686-.057-1.112-.051-4.069-.078h-.807l-2.371.108h2.419C527.687,6813.877,527.163,6813.9,530.192,6813.9Z" fill-rule="evenodd"/>
    <path id="Path_13749" data-name="Path 13749" d="M522.1,6813.851l-2.431-.025-.783.054-1.6.027,3.238.025Z" fill-rule="evenodd"/>
    <path id="Path_13750" data-name="Path 13750" d="M512.424,6813.856l-4.815.056,5.66.024-.038-.08Z" fill-rule="evenodd"/>
    <path id="Path_13751" data-name="Path 13751" d="M476.117,6813.85c7.471,0,12.773,0,23.39-.013-2.071.053-.745.026-3.213.028l.847.08c3.947-.1,5.281-.115,10.417-.14l-.013-.027-2.445-.052c-6.05.112-21.666.046-29.04.017Z" fill-rule="evenodd"/>
    <path id="Path_13752" data-name="Path 13752" d="M1279.987,6814.1l.88-.079C1279.679,6814.078,1280.2,6814.066,1279.987,6814.1Z" fill-rule="evenodd"/>
    <path id="Path_13753" data-name="Path 13753" d="M1266.288,6814.091l1.611,0C1266.488,6814.067,1267.718,6814.066,1266.288,6814.091Z" fill-rule="evenodd"/>
    <path id="Path_13754" data-name="Path 13754" d="M1247.753,6814.073l3.224,0-3.2-.03Z" fill-rule="evenodd"/>
    <path id="Path_13755" data-name="Path 13755" d="M1180.922,6813.932l-.825.026,1.573.054Z" fill-rule="evenodd"/>
    <path id="Path_13756" data-name="Path 13756" d="M1134.115,6813.975h2.419l.035-.053-2.437.025Z" fill-rule="evenodd"/>
    <path id="Path_13757" data-name="Path 13757" d="M1110.739,6813.958l.033-.054-3.256.052Z" fill-rule="evenodd"/>
    <path id="Path_13758" data-name="Path 13758" d="M760.828,6813.84h1.615l1.609-.053C761.129,6813.812,762.412,6813.785,760.828,6813.84Z" fill-rule="evenodd"/>
    <path id="Path_13759" data-name="Path 13759" d="M597.1,6813.791h-.807l.008.026,2.435.053Z" fill-rule="evenodd"/>
    <path id="Path_13760" data-name="Path 13760" d="M476.16,6813.93h1.611l-.029-.053C476.233,6813.914,477.254,6813.878,476.16,6813.93Z" fill-rule="evenodd"/>
    <path id="Path_13761" data-name="Path 13761" d="M456.791,6813.916l4.045.024c-1.649-.054-.819-.038-4.06-.051Z" fill-rule="evenodd"/>
    <path id="Path_13762" data-name="Path 13762" d="M307.527,6813.956l-.762.054.023.027,12.12.015C319.1,6813.939,314.732,6814.013,307.527,6813.956Z" fill-rule="evenodd"/>
    <path id="Path_13763" data-name="Path 13763" d="M1288.951,6814.008c2.247.092,2.586.064,6.372.087,14.288-.16,29.711-.057,44.428-.058C1323.5,6813.872,1305.63,6813.966,1288.951,6814.008Z" fill-rule="evenodd"/>
    <path id="Path_13764" data-name="Path 13764" d="M1273.613,6814.018l-.024.027,4.006.031C1276.025,6814.02,1276.831,6814.037,1273.613,6814.018Z" fill-rule="evenodd"/>
    <path id="Path_13765" data-name="Path 13765" d="M1147.029,6813.958l-7.218-.059-.018.026Z" fill-rule="evenodd"/>
    <path id="Path_13766" data-name="Path 13766" d="M1027.721,6813.88l5.644,0,6.514-.13-8.883.022C1028.936,6813.818,1029.012,6813.806,1027.721,6813.88Z" fill-rule="evenodd"/>
    <path id="Path_13767" data-name="Path 13767" d="M980.981,6813.805c-.276.017-.55.035-.826.053l7.255,0,7.278-.05C989.468,6813.708,985.111,6813.786,980.981,6813.805Z" fill-rule="evenodd"/>
    <path id="Path_13768" data-name="Path 13768" d="M964.854,6813.8c-1.506.037-.491,0-1.631.053,3.871-.045,4.136-.032,8.063,0l4.857-.052.01-.026C973.613,6813.749,967.763,6813.726,964.854,6813.8Z" fill-rule="evenodd"/>
    <path id="Path_13769" data-name="Path 13769" d="M670.5,6813.771l.005.026,3.231.026C672.144,6813.769,673.445,6813.794,670.5,6813.771Z" fill-rule="evenodd"/>
    <path id="Path_13770" data-name="Path 13770" d="M587.423,6813.795l-3.208.055h3.226Z" fill-rule="evenodd"/>
    <path id="Path_13771" data-name="Path 13771" d="M574.537,6813.854l3.226,0,1.593-.054-4.838,0Z" fill-rule="evenodd"/>
    <path id="Path_13772" data-name="Path 13772" d="M572.923,6813.854c-1.844-.1-1.009-.041-4.063-.078l-1.581.081Z" fill-rule="evenodd"/>
    <path id="Path_13773" data-name="Path 13773" d="M1219.591,6813.992l.872-.079-3.246.024-.043.053Z" fill-rule="evenodd"/>
    <path id="Path_13774" data-name="Path 13774" d="M1201.094,6813.922l1.571.055C1201.575,6813.925,1202.615,6813.961,1201.094,6813.922Z" fill-rule="evenodd"/>
    <path id="Path_13775" data-name="Path 13775" d="M1164.782,6813.945h1.612C1164.976,6813.921,1166.206,6813.92,1164.782,6813.945Z" fill-rule="evenodd"/>
    <path id="Path_13776" data-name="Path 13776" d="M1120.547,6813.751l-32.287.031c-1.555.076-1.05.019-.061.107l31.492-.059Z" fill-rule="evenodd"/>
    <path id="Path_13777" data-name="Path 13777" d="M1085.05,6813.753c-6.577-.009-15.5.1-22.592.013l-.042.08c10.283,0,12.835-.025,21.753.041C1085.193,6813.808,1084.981,6813.832,1085.05,6813.753Z" fill-rule="evenodd"/>
    <path id="Path_13778" data-name="Path 13778" d="M1047.124,6813.784l-.013.027,5.616.056,4.045-.024a14.265,14.265,0,0,1,1.654-.079Z" fill-rule="evenodd"/>
    <path id="Path_13779" data-name="Path 13779" d="M1045.472,6813.863l-3.2-.055C1043.823,6813.863,1042.539,6813.837,1045.472,6813.863Z" fill-rule="evenodd"/>
    <path id="Path_13780" data-name="Path 13780" d="M658.394,6813.746l1.622.054C658.877,6813.749,659.951,6813.783,658.394,6813.746Z" fill-rule="evenodd"/>
    <path id="Path_13781" data-name="Path 13781" d="M654.372,6813.8h2.418l.8-.053Z" fill-rule="evenodd"/>
    <path id="Path_13782" data-name="Path 13782" d="M592.243,6813.74l.833.08-.026-.081Z" fill-rule="evenodd"/>
    <path id="Path_13783" data-name="Path 13783" d="M382.464,6813.783h-1.616l-.769.054c3.823.037,2.047-.022,3.3.1,3.579-.036,2.793-.037,4.766-.11l.074.107c14.072-.011,12.013-.052,23.388-.018l1.528-.135-3.261-.051C407.9,6813.68,388.108,6813.686,382.464,6813.783Z" fill-rule="evenodd"/>
    <path id="Path_13784" data-name="Path 13784" d="M1240.638,6813.9c1.7.054,2.519.065,5.572.086l.046-.054,1.612,0C1246.15,6813.893,1244.962,6813.9,1240.638,6813.9Z" fill-rule="evenodd"/>
    <path id="Path_13785" data-name="Path 13785" d="M1237.413,6813.9c-2.763,0-1.19.031-3.2-.03h-.806l-.067.081,5.621.032C1238.365,6813.922,1239.767,6813.959,1237.413,6813.9Z" fill-rule="evenodd"/>
    <path id="Path_13786" data-name="Path 13786" d="M1227.672,6813.973l2.441-.024-1.568-.055C1227.361,6813.946,1227.884,6813.934,1227.672,6813.973Z" fill-rule="evenodd"/>
    <path id="Path_13787" data-name="Path 13787" d="M1222.075,6813.914l1.568.055C1222.555,6813.917,1223.594,6813.953,1222.075,6813.914Z" fill-rule="evenodd"/>
    <path id="Path_13788" data-name="Path 13788" d="M844.7,6813.765h1.614l.007-.053C844.784,6813.749,845.829,6813.714,844.7,6813.765Z" fill-rule="evenodd"/>
    <path id="Path_13789" data-name="Path 13789" d="M796.317,6813.68l-9.682.026v.027l9.68.027Z" fill-rule="evenodd"/>
    <path id="Path_13790" data-name="Path 13790" d="M781.8,6813.706l-2.418-.026c1.876.074.875.062,4.835.08A22.011,22.011,0,0,0,781.8,6813.706Z" fill-rule="evenodd"/>
    <path id="Path_13791" data-name="Path 13791" d="M767.278,6813.76h1.615v-.08Z" fill-rule="evenodd"/>
    <path id="Path_13792" data-name="Path 13792" d="M459.119,6813.754c-6.192,0-6.482-.022-8.811.113l8.871-.006Z" fill-rule="evenodd"/>
    <path id="Path_13793" data-name="Path 13793" d="M1342.223,6813.987l-.86.052,2.389.03c17.929-.188,37.426-.061,55.691-.012l.031-.026-1.582-.029C1381.024,6813.811,1359.7,6813.957,1342.223,6813.987Z" fill-rule="evenodd"/>
    <path id="Path_13794" data-name="Path 13794" d="M1262.426,6813.9c-3.425.006-3.182-.006-4.884.048,2.852-.01,1.9-.011,4.813.032Z" fill-rule="evenodd"/>
    <path id="Path_13795" data-name="Path 13795" d="M1250.31,6813.914l-.023.027,3.2.03C1251.96,6813.915,1253.231,6813.942,1250.31,6813.914Z" fill-rule="evenodd"/>
    <path id="Path_13796" data-name="Path 13796" d="M1122.092,6813.859h1.612l3.242-.024.051-.081-4.031,0Z" fill-rule="evenodd"/>
    <path id="Path_13797" data-name="Path 13797" d="M807.606,6813.708l8.872.027C815.66,6813.667,811.531,6813.705,807.606,6813.708Z" fill-rule="evenodd"/>
    <path id="Path_13798" data-name="Path 13798" d="M759.213,6813.68l5.646.053-1.615-.053Z" fill-rule="evenodd"/>
    <path id="Path_13799" data-name="Path 13799" d="M722.917,6813.736h1.615l-.005-.053C723,6813.72,724.038,6813.684,722.917,6813.736Z" fill-rule="evenodd"/>
    <path id="Path_13800" data-name="Path 13800" d="M692.259,6813.659l.815.081-.007-.054,1.611-.027Z" fill-rule="evenodd"/>
    <path id="Path_13801" data-name="Path 13801" d="M462.345,6813.752h-.807l.852.08Z" fill-rule="evenodd"/>
    <path id="Path_13802" data-name="Path 13802" d="M1143.949,6813.741l-10.5.019c-2.173.042-1.134.007-2.47.078l17.736.014C1148.48,6813.7,1147.688,6813.791,1143.949,6813.741Z" fill-rule="evenodd"/>
    <path id="Path_13803" data-name="Path 13803" d="M737.431,6813.654c-1.527.038-.489,0-1.608.054h1.611Z" fill-rule="evenodd"/>
    <path id="Path_13804" data-name="Path 13804" d="M705.973,6813.684l4.037.026-2.426-.053Z" fill-rule="evenodd"/>
    <path id="Path_13805" data-name="Path 13805" d="M698.716,6813.685l0,.027h2.419l-.007-.053Z" fill-rule="evenodd"/>
    <path id="Path_13806" data-name="Path 13806" d="M695.485,6813.659l1.619.053-.818-.08Z" fill-rule="evenodd"/>
    <path id="Path_13807" data-name="Path 13807" d="M576.9,6813.692c1.147.05.068.016,1.631.053Z" fill-rule="evenodd"/>
    <path id="Path_13808" data-name="Path 13808" d="M1294.642,6813.96l1.614,0,.856-.053Z" fill-rule="evenodd"/>
    <path id="Path_13809" data-name="Path 13809" d="M1293.913,6813.879l-4.007-.031a16.149,16.149,0,0,0,3.124.11Z" fill-rule="evenodd"/>
    <path id="Path_13810" data-name="Path 13810" d="M1269.655,6813.934l1.612,0,.049-.054C1269.751,6813.918,1270.825,6813.884,1269.655,6813.934Z" fill-rule="evenodd"/>
    <path id="Path_13811" data-name="Path 13811" d="M1268.043,6813.932l.855-.052-3.272.05Z" fill-rule="evenodd"/>
    <path id="Path_13812" data-name="Path 13812" d="M670.477,6813.663l4.039.026-.817-.053Z" fill-rule="evenodd"/>
    <path id="Path_13813" data-name="Path 13813" d="M645.468,6813.669l.006.027H647.9l-.012-.053Z" fill-rule="evenodd"/>
    <path id="Path_13814" data-name="Path 13814" d="M1402.758,6813.981l-2.447.024-.031.027,4.8.033.836-.026-1.551-.056Z" fill-rule="evenodd"/>
    <path id="Path_13815" data-name="Path 13815" d="M1282.578,6813.921c.285-.018.569-.036.855-.053l-2.418,0Z" fill-rule="evenodd"/>
    <path id="Path_13816" data-name="Path 13816" d="M1204.381,6813.845l4.837,0,.892-.106-5.708.075Z" fill-rule="evenodd"/>
    <path id="Path_13817" data-name="Path 13817" d="M630.128,6813.62l-4.02.055h3.226Z" fill-rule="evenodd"/>
    <path id="Path_13818" data-name="Path 13818" d="M601.085,6813.629l.016.054h3.227C602.733,6813.628,604.037,6813.653,601.085,6813.629Z" fill-rule="evenodd"/>
    <path id="Path_13819" data-name="Path 13819" d="M580.924,6813.664l5.655.024c-1.683-.055-2.107-.049-5.664-.051Z" fill-rule="evenodd"/>
    <path id="Path_13820" data-name="Path 13820" d="M574.48,6813.693l-5.688-.1C570.426,6813.676,570.806,6813.675,574.48,6813.693Z" fill-rule="evenodd"/>
    <path id="Path_13821" data-name="Path 13821" d="M559.938,6813.646l-3.258-.079,2.471.133Z" fill-rule="evenodd"/>
    <path id="Path_13822" data-name="Path 13822" d="M1605.729,6814.341l1.651-.024.081-.054-4.874.019Z" fill-rule="evenodd"/>
    <path id="Path_13823" data-name="Path 13823" d="M1431.093,6813.912l.064-.054c-1.575.036-.491,0-1.676.052l1.6,0c-2.645.011-5.485.039-8.983.095l.126-.107c-3.826.086-7.348.108-14.634.088l-.031.026,13.669.045c9.7-.124,26.694-.039,34.683.021l.906-.079C1443.868,6813.977,1438.214,6813.882,1431.093,6813.912Z" fill-rule="evenodd"/>
    <path id="Path_13824" data-name="Path 13824" d="M1340.721,6813.878l-.888.079,1.612,0Z" fill-rule="evenodd"/>
    <path id="Path_13825" data-name="Path 13825" d="M1327.743,6813.943l1.612,0C1327.944,6813.919,1329.174,6813.919,1327.743,6813.943Z" fill-rule="evenodd"/>
    <path id="Path_13826" data-name="Path 13826" d="M1236.674,6813.821l.9-.106c-8.466.029-16.47.1-20.989.007l-4.033,0-.085.107,15.318.014Z" fill-rule="evenodd"/>
    <path id="Path_13827" data-name="Path 13827" d="M482.471,6813.659l.836.053.776-.054Z" fill-rule="evenodd"/>
    <path id="Path_13828" data-name="Path 13828" d="M1310.035,6813.9h1.612l.052-.053C1310.132,6813.881,1311.208,6813.846,1310.035,6813.9Z" fill-rule="evenodd"/>
    <path id="Path_13829" data-name="Path 13829" d="M501.821,6813.621l3.254.052C506.688,6813.593,504.314,6813.628,501.821,6813.621Z" fill-rule="evenodd"/>
    <path id="Path_13830" data-name="Path 13830" d="M436.467,6813.662c1.781.045,2.2.046,5.679.049C440.448,6813.657,440.021,6813.662,436.467,6813.662Z" fill-rule="evenodd"/>
    <path id="Path_13831" data-name="Path 13831" d="M1659.9,6814.3l-.043.027,2.331.057C1661.33,6814.317,1663.063,6814.347,1659.9,6814.3Z" fill-rule="evenodd"/>
    <path id="Path_13832" data-name="Path 13832" d="M1588.167,6814.2l2.416,0-.726-.055Z" fill-rule="evenodd"/>
    <path id="Path_13833" data-name="Path 13833" d="M1469.884,6813.886l-.805,0-.1.081,3.224,0,.067-.053Z" fill-rule="evenodd"/>
    <path id="Path_13834" data-name="Path 13834" d="M1465.048,6813.879l.706.081.1-.08Z" fill-rule="evenodd"/>
    <path id="Path_13835" data-name="Path 13835" d="M1473.108,6813.89c1.066.053.042.017,1.545.056Z" fill-rule="evenodd"/>
    <path id="Path_13836" data-name="Path 13836" d="M1484.464,6813.853c-1.5.033-.5.028-.876.052Z" fill-rule="evenodd"/>
    <path id="Path_13837" data-name="Path 13837" d="M1072.352,6813.371c-1.474.034-.48.028-.837.053Z" fill-rule="evenodd"/>
    <path id="Path_13838" data-name="Path 13838" d="M897.229,6813.294l-2.43.026-.006.027h2.424Z" fill-rule="evenodd"/>
    <path id="Path_13839" data-name="Path 13839" d="M885.12,6813.291h-.808l-.005.027,5.646.028Z" fill-rule="evenodd"/>
    <path id="Path_13840" data-name="Path 13840" d="M834.279,6813.2l0,.027,8.06.108c-2.562-.1-3.921-.084-7.249-.135Z" fill-rule="evenodd"/>
    <path id="Path_13841" data-name="Path 13841" d="M813.282,6813.333l-1.608-.107h-.808A18.079,18.079,0,0,0,813.282,6813.333Z" fill-rule="evenodd"/>
    <path id="Path_13842" data-name="Path 13842" d="M781.8,6813.251l2.419.081,3.231-.08h1.616l-7.265-.027Z" fill-rule="evenodd"/>
    <path id="Path_13843" data-name="Path 13843" d="M777.769,6813.225v.026l3.229.027C779.421,6813.224,780.715,6813.249,777.769,6813.225Z" fill-rule="evenodd"/>
    <path id="Path_13844" data-name="Path 13844" d="M914.192,6813.245l3.221.028.021-.08-1.609-.028Z" fill-rule="evenodd"/>
    <path id="Path_13845" data-name="Path 13845" d="M1201.489,6813.414l3.227,0-3.207-.03Z" fill-rule="evenodd"/>
    <path id="Path_13846" data-name="Path 13846" d="M448.35,6813.279l-.016-.027-6.475-.022,3.277.078Z" fill-rule="evenodd"/>
    <path id="Path_13847" data-name="Path 13847" d="M428.165,6813.293l-1.65-.052C427.68,6813.291,426.591,6813.257,428.165,6813.293Z" fill-rule="evenodd"/>
    <path id="Path_13848" data-name="Path 13848" d="M950.563,6813.1c1.116.051.059.016,1.6.054Z" fill-rule="evenodd"/>
    <path id="Path_13849" data-name="Path 13849" d="M944.913,6813.1l-.017.053h3.229C946.564,6813.094,947.852,6813.12,944.913,6813.1Z" fill-rule="evenodd"/>
    <path id="Path_13850" data-name="Path 13850" d="M625.13,6813.033l.007.027,6.471.024Z" fill-rule="evenodd"/>
    <path id="Path_13851" data-name="Path 13851" d="M167.187,6813.36l1.613,0,11.713-.389-.028-.027C175.212,6813.021,169.817,6813.2,167.187,6813.36Z" fill-rule="evenodd"/>
    <path id="Path_13852" data-name="Path 13852" d="M147.592,6813.2l6.135-.3-6.285.169C146,6813.146,145.707,6813.12,147.592,6813.2Z" fill-rule="evenodd"/>
    <path id="Path_13853" data-name="Path 13853" d="M1645.738,6813.554l3.226,0-3.184-.032Z" fill-rule="evenodd"/>
    <path id="Path_13854" data-name="Path 13854" d="M1637.839,6813.432l-.042.027,4.8.035C1640.718,6813.4,1641.258,6813.423,1637.839,6813.432Z" fill-rule="evenodd"/>
    <path id="Path_13855" data-name="Path 13855" d="M1647.647,6813.37c-.3.091-1.037.036.638.108l.933-.079Z" fill-rule="evenodd"/>
    <path id="Path_13856" data-name="Path 13856" d="M176.246,6812.76c-2.521.11-1.483.193-6.207.249,1.979.057,1.088.025,4.1.048Z" fill-rule="evenodd"/>
    <path id="Path_13857" data-name="Path 13857" d="M1668.5,6813.488l1.613,0,.087-.054C1668.6,6813.472,1669.7,6813.439,1668.5,6813.488Z" fill-rule="evenodd"/>
    <path id="Path_13858" data-name="Path 13858" d="M1661.621,6813.234h-.806l-2.593.1,3.013.14Z" fill-rule="evenodd"/>
    <path id="Path_13859" data-name="Path 13859" d="M452.9,6812.768l-1.649-.053-2.408.029Z" fill-rule="evenodd"/>
    <path id="Path_13860" data-name="Path 13860" d="M1655.715,6813.384l-.593-.135-1.614,0-3.44.128Z" fill-rule="evenodd"/>
    <path id="Path_13861" data-name="Path 13861" d="M181.932,6812.78l.17.16,3.233,0,3.008-.218C185.419,6812.795,186.746,6812.779,181.932,6812.78Z" fill-rule="evenodd"/>
    <path id="Path_13862" data-name="Path 13862" d="M1645.312,6813.312l1.571.029,1.656-.023.891-.052Z" fill-rule="evenodd"/>
    <path id="Path_13863" data-name="Path 13863" d="M1276.321,6812.816l1.615,0,.049-.053C1276.417,6812.8,1277.492,6812.766,1276.321,6812.816Z" fill-rule="evenodd"/>
    <path id="Path_13864" data-name="Path 13864" d="M210.308,6812.827l.054.053,3.233,0C211.958,6812.824,213.283,6812.848,210.308,6812.827Z" fill-rule="evenodd"/>
    <path id="Path_13865" data-name="Path 13865" d="M177.946,6812.838l1.7.079A15.5,15.5,0,0,0,177.946,6812.838Z" fill-rule="evenodd"/>
    <path id="Path_13866" data-name="Path 13866" d="M190.879,6812.823l-.084-.08C190.164,6812.81,188.7,6812.788,190.879,6812.823Z" fill-rule="evenodd"/>
    <path id="Path_13867" data-name="Path 13867" d="M1671.393,6813.2l3.1.087-.588-.135Z" fill-rule="evenodd"/>
    <path id="Path_13868" data-name="Path 13868" d="M227.125,6812.647l3.312.077-.078-.081Z" fill-rule="evenodd"/>
    <path id="Path_13869" data-name="Path 13869" d="M198.1,6812.761l1.618,0-.055-.054C198.165,6812.745,199.171,6812.708,198.1,6812.761Z" fill-rule="evenodd"/>
    <path id="Path_13870" data-name="Path 13870" d="M1653.764,6813.086l-3.272.021-.042.026,3.144.06Z" fill-rule="evenodd"/>
    <path id="Path_13871" data-name="Path 13871" d="M187.505,6812.693l.7-.108-.028-.027h-.81C185.973,6812.631,186.265,6812.6,187.505,6812.693Z" fill-rule="evenodd"/>
    <path id="Path_13872" data-name="Path 13872" d="M1656.142,6813.117l2.422,0,.086-.053-2.465.022Z" fill-rule="evenodd"/>
    <path id="Path_13873" data-name="Path 13873" d="M144.536,6812.639l5.749.073c1.185-.225,3.6-.178,6.892-.357l-10.337.174Z" fill-rule="evenodd"/>
    <path id="Path_13874" data-name="Path 13874" d="M1678.024,6813.1l.131-.081-1.615,0A9.864,9.864,0,0,0,1678.024,6813.1Z" fill-rule="evenodd"/>
    <path id="Path_13875" data-name="Path 13875" d="M1661.922,6813.047l.129-.08-4.93.045Z" fill-rule="evenodd"/>
    <path id="Path_13876" data-name="Path 13876" d="M158.046,6812.408l1.617,0C158.2,6812.383,159.429,6812.38,158.046,6812.408Z" fill-rule="evenodd"/>
    <path id="Path_13877" data-name="Path 13877" d="M196.764,6812.254c-1.418.037-.435.029-.751.054Z" fill-rule="evenodd"/>
    <path id="Path_13878" data-name="Path 13878" d="M168.36,6812.208l.9.079-.087-.08Z" fill-rule="evenodd"/>
    <path id="Path_13879" data-name="Path 13879" d="M164.4,6812.293l-1.679-.052C163.914,6812.291,162.806,6812.258,164.4,6812.293Z" fill-rule="evenodd"/>
    <path id="Path_13880" data-name="Path 13880" d="M1672.478,6812.531c-1.595.034-.493,0-1.7.05l1.616,0Z" fill-rule="evenodd"/>
    <path id="Path_13881" data-name="Path 13881" d="M1666.779,6812.547l2.423,0,.087-.053-2.466.022Z" fill-rule="evenodd"/>
    <path id="Path_13882" data-name="Path 13882" d="M1608.027,6812.282l-8.166.039-1.617,0c3.382.057,5.532.059,8.772.1Z" fill-rule="evenodd"/>
    <path id="Path_13883" data-name="Path 13883" d="M1575.532,6812.334l3.194.032,3.311-.048-5.62-.036Z" fill-rule="evenodd"/>
    <path id="Path_13884" data-name="Path 13884" d="M1591.777,6812.308c-2.969.021-1.644,0-3.312.048l1.616,0Z" fill-rule="evenodd"/>
    <path id="Path_13885" data-name="Path 13885" d="M1659.039,6812.318l.086-.053-2.425-.005Z" fill-rule="evenodd"/>
    <path id="Path_13886" data-name="Path 13886" d="M1681.718,6812.333l1.617,0,.088-.053C1681.827,6812.317,1682.928,6812.284,1681.718,6812.333Z" fill-rule="evenodd"/>
    <path id="Path_13887" data-name="Path 13887" d="M1069.278,6811.576l2.458-.052-4.048,0Z" fill-rule="evenodd"/>
    <path id="Path_13888" data-name="Path 13888" d="M1083.056,6811.557l3.238,0-3.223-.029Z" fill-rule="evenodd"/>
    <path id="Path_13889" data-name="Path 13889" d="M1666.445,6812.251l.086-.053-2.425,0Z" fill-rule="evenodd"/>
    <path id="Path_13890" data-name="Path 13890" d="M1679.1,6811.953c2.731.082,5.614.048,7.912.122l-6.689.122,9.614.071.089-.053a45.283,45.283,0,0,0,5.029-.1c-2.13-.082-3.432-.073-4.542-.2-2.434.018-6.451,0-9.8.035Z" fill-rule="evenodd"/>
    <path id="Path_13891" data-name="Path 13891" d="M1677.086,6812.191c-1.6.034-.5,0-1.7.05l1.617,0Z" fill-rule="evenodd"/>
    <path id="Path_13892" data-name="Path 13892" d="M1238.518,6811.628l.045-.054-3.283.051Z" fill-rule="evenodd"/>
    <path id="Path_13893" data-name="Path 13893" d="M163.817,6811.758l-.03-.027-1.651-.024-1.53.082,2.429,0Z" fill-rule="evenodd"/>
    <path id="Path_13894" data-name="Path 13894" d="M1611.624,6812.047l-.647-.109-1.78.1Z" fill-rule="evenodd"/>
    <path id="Path_13895" data-name="Path 13895" d="M1576.882,6811.961l4.007.034-1.54-.056Z" fill-rule="evenodd"/>
    <path id="Path_13896" data-name="Path 13896" d="M1274.253,6811.529l-.025.027,3.238,0Z" fill-rule="evenodd"/>
    <path id="Path_13897" data-name="Path 13897" d="M181.465,6811.576l5.67-.007c-1.706-.053-1.475-.044-4.919-.048Z" fill-rule="evenodd"/>
    <path id="Path_13898" data-name="Path 13898" d="M1603.008,6811.844l-4.9.019,4.006.034Z" fill-rule="evenodd"/>
    <path id="Path_13899" data-name="Path 13899" d="M161.99,6811.573l2.433,0,1.589-.029-.058-.053C163.056,6811.521,163.6,6811.512,161.99,6811.573Z" fill-rule="evenodd"/>
    <path id="Path_13900" data-name="Path 13900" d="M1677.436,6811.977l-.723-.055-1.7.05Z" fill-rule="evenodd"/>
    <path id="Path_13901" data-name="Path 13901" d="M1629.518,6811.488l-.728-.054-6.56.042-.04.026,3.2.033c-2.762.111-3.29.124-7.491.121l-1.134.212,5.664.01,1.013-.132-3.359.074,8.545-.28Z" fill-rule="evenodd"/>
    <path id="Path_13902" data-name="Path 13902" d="M161.124,6811.52l3.935-.112-3.274-.022-1.59.028-.693.108Z" fill-rule="evenodd"/>
    <path id="Path_13903" data-name="Path 13903" d="M1650.91,6811.821l.851-.025.042-.027-1.576-.029-.85.025Z" fill-rule="evenodd"/>
    <path id="Path_13904" data-name="Path 13904" d="M1585.718,6811.467l-37.47.1,28.253.1,13.027-.032C1590.1,6811.591,1587.019,6811.541,1585.718,6811.467Z" fill-rule="evenodd"/>
    <path id="Path_13905" data-name="Path 13905" d="M1540.152,6811.554l-.037.027,3.239,0Z" fill-rule="evenodd"/>
    <path id="Path_13906" data-name="Path 13906" d="M1609.116,6811.56l-8.866-.042-.04.027c1.893.055,4.027.064,8.014.067Z" fill-rule="evenodd"/>
    <path id="Path_13907" data-name="Path 13907" d="M1632.631,6811.574l3.155.059c1.358-.046,2.85-.053,4.213-.1l-7.326.014Z" fill-rule="evenodd"/>
    <path id="Path_13908" data-name="Path 13908" d="M1620.407,6811.606l-1.537-.056C1619.927,6811.6,1618.908,6811.567,1620.407,6811.606Z" fill-rule="evenodd"/>
    <path id="Path_13909" data-name="Path 13909" d="M1551.673,6811.438l.038-.026c-2.786-.079-11.358-.1-16.085-.106,2.317.113,5.356.142,10.3.177Z" fill-rule="evenodd"/>
    <path id="Path_13910" data-name="Path 13910" d="M1630.161,6811.6l1.619,0,.083-.054C1630.268,6811.581,1631.369,6811.547,1630.161,6811.6Z" fill-rule="evenodd"/>
    <path id="Path_13911" data-name="Path 13911" d="M1667.48,6811.61l4.813.036.9-.052-1.532-.057-4.049-.007Z" fill-rule="evenodd"/>
    <path id="Path_13912" data-name="Path 13912" d="M1679.621,6811.633l1.619,0,.941-.079A20.756,20.756,0,0,0,1679.621,6811.633Z" fill-rule="evenodd"/>
    <path id="Path_13913" data-name="Path 13913" d="M1684.7,6811.508l-1.707.051,2.429,0,.985-.1C1684.806,6811.492,1685.909,6811.459,1684.7,6811.508Z" fill-rule="evenodd"/>
    <path id="Path_13914" data-name="Path 13914" d="M1603.689,6811.39l-2.35-.057C1602.719,6811.389,1601.291,6811.352,1603.689,6811.39Z" fill-rule="evenodd"/>
    <path id="Path_13915" data-name="Path 13915" d="M1151.05,6810.428l-2.45.025,4.036.03Z" fill-rule="evenodd"/>
    <path id="Path_13916" data-name="Path 13916" d="M1142.939,6810.422l3.208.056C1144.6,6810.422,1145.885,6810.448,1142.939,6810.422Z" fill-rule="evenodd"/>
    <path id="Path_13917" data-name="Path 13917" d="M1140.506,6810.42c-1.565.036-.495,0-1.658.052h1.623Z" fill-rule="evenodd"/>
    <path id="Path_13918" data-name="Path 13918" d="M169.3,6811.559l-.02-.027c-3.2.041-1.437.013-2.36.083Z" fill-rule="evenodd"/>
    <path id="Path_13919" data-name="Path 13919" d="M628.277,6811.069l-3.231.026h3.228Z" fill-rule="evenodd"/>
    <path id="Path_13920" data-name="Path 13920" d="M1282.759,6811.577c-2.533.011-.679-.038-2.453.023l2.419,0Z" fill-rule="evenodd"/>
    <path id="Path_13921" data-name="Path 13921" d="M1323.2,6811.557l-2.384-.03-.107.08,3.227,0Z" fill-rule="evenodd"/>
    <path id="Path_13922" data-name="Path 13922" d="M1204.716,6811.283l-6.519.045,6.489-.019Z" fill-rule="evenodd"/>
    <path id="Path_13923" data-name="Path 13923" d="M1509.666,6811.8l3.271-.02.045-.027C1510,6811.77,1511.333,6811.747,1509.666,6811.8Z" fill-rule="evenodd"/>
    <path id="Path_13924" data-name="Path 13924" d="M1542.113,6811.754h-.808l-1.705.05C1542.1,6811.774,1540.564,6811.805,1542.113,6811.754Z" fill-rule="evenodd"/>
    <path id="Path_13925" data-name="Path 13925" d="M1681.908,6811.918c1.952-.076,1.638-.05.266-.133l-6.136-.175Z" fill-rule="evenodd"/>
    <path id="Path_13926" data-name="Path 13926" d="M184.075,6810.771l-3.211.029,3.23,0Z" fill-rule="evenodd"/>
    <path id="Path_13927" data-name="Path 13927" d="M861.769,6810.694h1.616C861.988,6810.668,863.22,6810.67,861.769,6810.694Z" fill-rule="evenodd"/>
    <path id="Path_13928" data-name="Path 13928" d="M1535.175,6811.553l1.708-.05C1535.265,6811.537,1536.4,6811.5,1535.175,6811.553Z" fill-rule="evenodd"/>
    <path id="Path_13929" data-name="Path 13929" d="M192.094,6810.684c-3.409-.012-2.846-.039-4.808.057l4.826-.03Z" fill-rule="evenodd"/>
    <path id="Path_13930" data-name="Path 13930" d="M766.461,6810.621c2.454-.033.966,0,2.441-.053h-.807Z" fill-rule="evenodd"/>
    <path id="Path_13931" data-name="Path 13931" d="M182.345,6810.612l-1.6.028.865.079C183.35,6810.649,182.57,6810.7,182.345,6810.612Z" fill-rule="evenodd"/>
    <path id="Path_13932" data-name="Path 13932" d="M159.747,6810.657l.04.054,1.615,0C160.24,6810.659,161.308,6810.693,159.747,6810.657Z" fill-rule="evenodd"/>
    <path id="Path_13933" data-name="Path 13933" d="M168.493,6810.463l.178.24,3.133-.136-2.5-.1Z" fill-rule="evenodd"/>
    <path id="Path_13934" data-name="Path 13934" d="M1378.792,6811.136l-1.693.051,4.076-.02Z" fill-rule="evenodd"/>
    <path id="Path_13935" data-name="Path 13935" d="M174.267,6810.618l5.654,0-3.329-.131h-1.616Z" fill-rule="evenodd"/>
    <path id="Path_13936" data-name="Path 13936" d="M180.652,6810.506l.846.053,1.634.025,1.6-.028Z" fill-rule="evenodd"/>
    <path id="Path_13937" data-name="Path 13937" d="M552.372,6810.371l0,.054h1.616C552.864,6810.373,553.908,6810.409,552.372,6810.371Z" fill-rule="evenodd"/>
    <path id="Path_13938" data-name="Path 13938" d="M816.615,6810.482l1.639-.052C816.684,6810.466,817.769,6810.432,816.615,6810.482Z" fill-rule="evenodd"/>
    <path id="Path_13939" data-name="Path 13939" d="M825.5,6810.487l1.641-.053C825.573,6810.471,826.657,6810.437,825.5,6810.487Z" fill-rule="evenodd"/>
    <path id="Path_13940" data-name="Path 13940" d="M847.347,6810.445l-1.642.053h3.232Z" fill-rule="evenodd"/>
    <path id="Path_13941" data-name="Path 13941" d="M1529.132,6811.3l.045-.027c-6.11-.019-9.423,0-11.436.058Z" fill-rule="evenodd"/>
    <path id="Path_13942" data-name="Path 13942" d="M1616.212,6811.532l3.228.007.1-.054C1616.549,6811.5,1617.893,6811.481,1616.212,6811.532Z" fill-rule="evenodd"/>
    <path id="Path_13943" data-name="Path 13943" d="M712.38,6810.416h3.233l.013-.054h-.809Z" fill-rule="evenodd"/>
    <path id="Path_13944" data-name="Path 13944" d="M158.757,6810.417l-2.466-.051-.7.134Z" fill-rule="evenodd"/>
    <path id="Path_13945" data-name="Path 13945" d="M1599.509,6811.362l3.377-.073-3.229-.007Z" fill-rule="evenodd"/>
    <path id="Path_13946" data-name="Path 13946" d="M179.728,6810.346l-3.252-.024.078.107,3.193-.056Z" fill-rule="evenodd"/>
    <path id="Path_13947" data-name="Path 13947" d="M171.647,6810.353l2.425,0-.02-.027-2.445-.025Z" fill-rule="evenodd"/>
    <path id="Path_13948" data-name="Path 13948" d="M1679.637,6811.43l5.81-.067-2.209-.112-10.182-.184C1676.2,6811.248,1678.647,6811.2,1679.637,6811.43Z" fill-rule="evenodd"/>
    <path id="Path_13949" data-name="Path 13949" d="M153.765,6810.234l-1.616,0,.061.08A11.445,11.445,0,0,0,153.765,6810.234Z" fill-rule="evenodd"/>
    <path id="Path_13950" data-name="Path 13950" d="M173.185,6810.244l-4.89-.049.06.08Z" fill-rule="evenodd"/>
    <path id="Path_13951" data-name="Path 13951" d="M1670.528,6811.115l1.614,0C1670.784,6811.089,1672.013,6811.093,1670.528,6811.115Z" fill-rule="evenodd"/>
    <path id="Path_13952" data-name="Path 13952" d="M1667.612,6810.947l-1.722.05C1667.514,6810.963,1666.379,6811,1667.612,6810.947Z" fill-rule="evenodd"/>
    <path id="Path_13953" data-name="Path 13953" d="M159.908,6809.8c-1.166-.051-.094-.016-1.658-.053l.04.054Z" fill-rule="evenodd"/>
    <path id="Path_13954" data-name="Path 13954" d="M163.912,6809.744l-2.446-.025.04.053,2.426,0Z" fill-rule="evenodd"/>
    <path id="Path_13955" data-name="Path 13955" d="M171.827,6809.5l.039.054,2.388-.056Z" fill-rule="evenodd"/>
    <path id="Path_13956" data-name="Path 13956" d="M147.524,6809.49l.041.054,1.619,0C148.018,6809.492,149.089,6809.526,147.524,6809.49Z" fill-rule="evenodd"/>
    <path id="Path_13957" data-name="Path 13957" d="M763.656,6809.335h-4.049l2.412.054Z" fill-rule="evenodd"/>
    <path id="Path_13958" data-name="Path 13958" d="M748.263,6809.357l.008-.027-3.247.025Z" fill-rule="evenodd"/>
    <path id="Path_13959" data-name="Path 13959" d="M166.91,6809.42l-2.428,0,.04.053Z" fill-rule="evenodd"/>
    <path id="Path_13960" data-name="Path 13960" d="M140.985,6809.416l.043.053,9.671-.062-6.58-.128c2.36-.071,5.213-.035,8.014-.114h-1.619c-3.311-.04-7.344-.024-9.761-.045-1.216.123-2.51.113-4.71.192A42.223,42.223,0,0,0,140.985,6809.416Z" fill-rule="evenodd"/>
    <path id="Path_13961" data-name="Path 13961" d="M153.937,6809.4l.041.054,1.619,0C154.431,6809.406,155.5,6809.44,153.937,6809.4Z" fill-rule="evenodd"/>
    <path id="Path_13962" data-name="Path 13962" d="M577.421,6809.247l-3.239.026h3.239Z" fill-rule="evenodd"/>
    <path id="Path_13963" data-name="Path 13963" d="M579.851,6809.247v-.054l-1.62.08h3.239Z" fill-rule="evenodd"/>
    <path id="Path_13964" data-name="Path 13964" d="M592.807,6809.22v.054h3.239Z" fill-rule="evenodd"/>
    <path id="Path_13965" data-name="Path 13965" d="M990.421,6809.394l-4.05,0,2.389.055Z" fill-rule="evenodd"/>
    <path id="Path_13966" data-name="Path 13966" d="M574.181,6809.193c-2.956.025-1.656,0-3.239.054h3.239Z" fill-rule="evenodd"/>
    <path id="Path_13967" data-name="Path 13967" d="M998.516,6809.4l-3.259.024,3.238,0Z" fill-rule="evenodd"/>
    <path id="Path_13968" data-name="Path 13968" d="M713.478,6809.212l.006-.027h-4.859l.8.054Z" fill-rule="evenodd"/>
    <path id="Path_13969" data-name="Path 13969" d="M718.345,6809.187l-.013.053h1.62C718.836,6809.189,719.873,6809.224,718.345,6809.187Z" fill-rule="evenodd"/>
    <path id="Path_13970" data-name="Path 13970" d="M221.926,6809.323l-1.689-.106-.741.108Z" fill-rule="evenodd"/>
    <path id="Path_13971" data-name="Path 13971" d="M557.172,6809.14l-3.239.027h3.24Z" fill-rule="evenodd"/>
    <path id="Path_13972" data-name="Path 13972" d="M553.928,6809.06h-.811l0,.08Z" fill-rule="evenodd"/>
    <path id="Path_13973" data-name="Path 13973" d="M525.579,6809.089l-3.237.027h3.24Z" fill-rule="evenodd"/>
    <path id="Path_13974" data-name="Path 13974" d="M1193,6809.447l-2.432,0-.058.053Z" fill-rule="evenodd"/>
    <path id="Path_13975" data-name="Path 13975" d="M233.16,6809.154l-4.876-.023.843.053Z" fill-rule="evenodd"/>
    <path id="Path_13976" data-name="Path 13976" d="M1240.774,6809.509l3.242.005-.747-.055C1240.9,6809.47,1239.328,6809.433,1240.774,6809.509Z" fill-rule="evenodd"/>
    <path id="Path_13977" data-name="Path 13977" d="M154.543,6809.136l-.77.054,2.431,0Z" fill-rule="evenodd"/>
    <path id="Path_13978" data-name="Path 13978" d="M179.594,6809.035l.828.026,1.582-.055-.829-.026-1.6.028Z" fill-rule="evenodd"/>
    <path id="Path_13979" data-name="Path 13979" d="M305.178,6808.975l4.038-.029-.013-.027C304.843,6808.926,303.567,6808.887,305.178,6808.975Z" fill-rule="evenodd"/>
    <path id="Path_13980" data-name="Path 13980" d="M322.191,6808.966l3.241,0-1.633-.026-2.454-.052Z" fill-rule="evenodd"/>
    <path id="Path_13981" data-name="Path 13981" d="M1351.955,6809.486l-3.2-.032-2.505.049Z" fill-rule="evenodd"/>
    <path id="Path_13982" data-name="Path 13982" d="M241.94,6808.934l12.994.045,28.327-.071-37.368-.137C244.528,6808.844,241.4,6808.89,241.94,6808.934Z" fill-rule="evenodd"/>
    <path id="Path_13983" data-name="Path 13983" d="M291.379,6808.929l-.014-.026-3.229.028Z" fill-rule="evenodd"/>
    <path id="Path_13984" data-name="Path 13984" d="M1010.184,6808.983l-.042.053,1.619,0C1010.673,6808.985,1011.691,6809.022,1010.184,6808.983Z" fill-rule="evenodd"/>
    <path id="Path_13985" data-name="Path 13985" d="M176.276,6808.93l.848.053C176.763,6808.959,177.76,6808.965,176.276,6808.93Z" fill-rule="evenodd"/>
    <path id="Path_13986" data-name="Path 13986" d="M1088,6809.031l-.86.053,2.43,0Z" fill-rule="evenodd"/>
    <path id="Path_13987" data-name="Path 13987" d="M1679.414,6810.46l-4.143.039a8.515,8.515,0,0,0,1.816-.305,24.106,24.106,0,0,0-2.851-.013c-1.015.134-2.637.259-4.753.371l-5.8.054c.138-.01.272-.02.427-.029l4.756-.047c.507,0,.8-.018.929-.034h.32l-.259-.015a3.327,3.327,0,0,0-.814-.047l-.386-.022-1.671.023-.012.006-1.6.009c-.428-.019-1.238-.03-1.914-.016q-1.427.031-2.88.057c-.63.007-1.262.013-1.879.021l4.621-.132c.907-.026.332-.067-.573-.079l2.967-.043.77.015,2.429.006c-.677-.028-.961-.041-1.3-.051l1.484-.023.727.022,1.62,0-.6-.109-1.565-.03-1.359.008c.128,0,.259-.006.385-.01l1.69-.017c1.518-.016,1.3-.1-.386-.1h-.4c-.307-.008-.7-.011-1.161-.006l-.784.008h-.21c-.468-.028-1.943-.033-2.6,0l-.122,0-22.356.03,12.03-.141c1.747-.021,1.055-.111-.772-.1l-16.968.152c-.389-.012-1.092-.027-1.527-.047l.46.057-4.343.039-.869-.068c1.266-.018.881-.1-.643-.093l-.521,0-1.118-.087c-4.358.084-9.214.034-13.253.133h.173q-3.612.009-7.223.013l-.285,0,.049-.027c4.016,0,4.713.007,6.575-.039-1.911-.084-1.428-.012-1.419-.111l2.428.006-1.521-.057c-3.687.05-2.662.036-5.767.041l-.049.027,3.09.087c-7.056-.06-12.268-.078-16.726-.093,2.247-.04.711,0,1.589-.073l-.81,0-1.67.024.664.051c-3.5-.011-6.556-.02-9.619-.043a14.217,14.217,0,0,0-3.046-.114c.812.113-.073.052.522.162l-5.575-.065-.048.027,2.336.058-3.334.047c-1.492-.058-.254-.028-3.143-.06,1.216-.072.525-.007.951-.078-9.112.056-16.874-.044-29.106-.086l2.336.059c-.671.03-1.138.038-1.452.042l-1.291-.01c-1.713-.015-2.469.068-1.02.09-6.217-.029-3.249-.059-10.278.011-6.547-.1-14.029-.137-21.743-.152l-1.468-.054-1.676.049c-9.412-.01-19.027,0-27.608-.024l-1.07.159-10.311-.153c-15.434.181-34.146-.061-50.289-.035l2.348.057c-3.544.024-2.108.016-4.166.074l.2-.134c-10.875-.02-21.248-.16-26.685-.072l2.429,0-.889.052-5.629-.036.039-.027,2.468-.022c-6.1.008-13.246.018-20.344.034l.02-.014-3.277.021h.063c-10.366.027-20.269.07-26.233.146q-32-.036-63.994-.068c.847.068,1.429.013.706.081-7.023-.118-10.861-.087-17.775-.052l1.52.083-4.855-.007c1.672-.081,2.051-.034,1.779-.132l-5.7.019-.161.134c-9.931-.169-29.721-.155-38.047-.051l.122-.107c-9.407.061-20.992-.1-30.044.042l2.427,0-.894.08c4.36-.012,4.7-.139,5.636.033-3.5,0-3.914,0-5.723.047,4.521,0,8.534-.009,10.889.053l-21.5.014-1.62,0c3.547-.13,5.745-.02,7.456-.151l2.428,0,.029-.027c-4.474-.027-5.774-.14-9.657-.066,1.635.026,2.083.014.753.055-15.772-.1-27.256-.1-42.93-.024-.758-.057-5.511-.141-7.967-.142-1.142.133-12.958.008-18.8.166-1.7.046-2.951-.08-3.166-.083-11.059-.174-27.6.066-41.333.011-20.916-.084-43.888-.126-64.786-.033-13.241.134-29.373-.1-35.623-.029-10.234.123-28.953.05-41.254-.084l-2.464.052c-4.171.065-15.353.041-18.635.014-.789-.006-38.1.01-39.736.11-4.112-.035-13.359-.065-15.328-.115.488-.089.869-.029-1.581-.082h-2.43a45.8,45.8,0,0,1-5.717.1,14.178,14.178,0,0,0,1.656-.079h-.809c-4.8.153-20.749.068-28.359.04l.011-.027,2.449-.052-4.047,0c-.365.1.9.034-.853.107-4.5-.043-2.265-.046-7.266-.057a7.944,7.944,0,0,1-1.67.133l.02-.054c-2.086-.019-1.832-.1-4.856,0a16.628,16.628,0,0,1,2.409.055c-5.773-.089-9.9-.112-13.725-.112.084-.009-.207-.012.011-.028l-.424.028c-5.716,0-10.827.047-19.825-.009l.008-.026.818-.027h3.24l.008-.026c-4.559,0-14.014.063-15.423.128l-4.835-.082c-3.257-.02-4.965.067-7.309.078-11.29.051-11.084-.211-25.095-.007-.324-.058-4.451-.12-6.447-.136l-.028.134c-5.731-.137-17.526-.156-28.309-.167l3.23.054-.013.081c-7.274-.022-8.144-.136-13.742-.137,2.116.054,1.869.017,3.222.108l-7.29.025c.954-.1,1.214-.023.018-.133-15.783-.019-32.225-.074-47.962,0l-.622,0,.1.007c-1.117.006-2.254.011-3.339.02-.341-.07.79-.015-.807-.08h-2.428c-.308.122,1.06.054-1.625.134l-11.335-.027c-.573-.123,1.434-.067-2.427-.107l1.618.107c-9.35-.028-18.467-.032-27.555-.024l.025,0-.041,0c-30.573.035-60.219.1-90.65-.018-13.826-.052-27.451.039-41.3-.015q-38.471-.015-76.944-.024c-13.389-.045-31.316-.088-47.75-.013l-51.329-.006a8.576,8.576,0,0,0-1.4.051l-.734.025.846-.006c.149.012.432.022.9.026l1.573.011q-3.8.017-7.579.039-5.934.018-11.819.057h-2.372c-.625,0-1.021.012-1.229.026l-4.1.034-9.672.007a7.762,7.762,0,0,0-1.391.05l-14.052.049a9.6,9.6,0,0,0-1.39.051c-5.339-.059-10.584-.143-16.074-.24-2.731.053-5.359.073-7.188.14,6.807.007,7.157.05,11.463.178l-2.409.028c-2.772-.036-3.251-.068-5.7-.049l.115.161H181c3.641-.042,6.669-.079,11.288-.062l.056.08c-5.379-.013-4.343.158-7.147.193l9.024.18-4,.057c-5.15-.04-6.483-.009-9.814-.153l-4.023.03,1.655.052c8.523.3,19.143.228,29.406.432l-5.636.031c-1.805-.047-4.52-.05-8.132-.074l.018.027,2.517.132-8.884.007.076.107c-3.4-.047-8.427-.1-11.283.036,3.219-.019,3.469-.044,5.669.022-3.874.022-6.938.039-8.82.088.556.1-.783.084.944.186,6.547-.033,14-.021,21.524.008-.833.022-1.4.034.336.049l.408-.046,4.713.022-1.013.073,2.26-.067,1.272.006c-.545.043-.652.08.575.109,1.538-.06,2.018-.067,2.168-.094l2.74.016-.1.019.53-.017,1.694.01c-5.385.133-9.024.346-22.121.379.8.092-.327.05,1.7.078-2.82.118-9.34.322-16.576.422l.638-.162-3.093.138-1.62,0,1.649.025c2.071.174-2.17.484-4.159.647l2.457.024c5.13-.206,10.94-.2,14.988-.366l1.619,0-1.676-.052c-3.357.048-.754.029-3.121.111-2.723-.394,31.052-.424,40.091-.4l1.617,0-4.641.22c-1.635-.071-1.032-.044-.943-.133-6.508.021-25.533.183-26.588.138-1.464.044-2.184.1-3.067.164,3.561.021,2.605.031,1.731.1,3.116.063,2.692.03,5.631-.033-1.247.084-.638.064-3.123.111,1.909.036.07.045,2.453.024l7.948-.144c8.486-.066,19.966.04,29.108-.033l.1.107c2.36-.048,1.324-.054,4.775-.086-.288.133-1.3.123,1.795.186h.809c-1.18-.05-.078-.016-1.669-.052l13.571,0c-.626.026-.239.078,1.088.084q8.853.037,17.7.045l1.23,0-27.574.047c-.611,0-1,.012-1.214.027l-4.928.006c-1.862,0-1.872.1,0,.1l10.665-.014h0l-24.8.109a8.163,8.163,0,0,0-1.383.055l-3.12,0c-1.86,0-1.876.1,0,.1l23.606-.008c.226.012.591.022,1.133.023l28.784.075-.434,0-30.659.084h-5.259c-1.257,0-1.709.044-1.207.074l-13.527-.008c-1.9,0-1.823.092,0,.1q7.428.024,14.852.033l-4.686.016-8.422-.012-19.831-.054c-1.879,0-1.826.091,0,.1q3.765.013,7.532.025l-7.669.015c-1.851,0-1.884.1,0,.1l9.665,0c.276.019.846.033,1.624.028q2.1-.014,4.2-.023c.246.01.6.018,1.061.018q4.984,0,9.716-.026l21.233,0,9.775.026c.637,0,1.073-.011,1.28-.029l55.676-.011c3.952.049,7.875.116,10.308.126,11.394.05,28.463-.076,42.686-.117l-2.36.082,10.485-.008-.019-.027c-2.613-.05-.232-.026-3.226,0a15.276,15.276,0,0,1,2.362-.082c-6.5-.2-22.835.014-28.375-.163,25.149-.164,52.1-.038,77.482-.035l.083.134-13.728-.017,4.185.238h.807c.9-.065,1.977-.036-.051-.08,2.517-.085,4.177,0,6.5.076l2.351-.109c9.7.033,13.684.017,22.634.065-1.95-.09-1.168-.027-1.693-.133l-20.2-.04c3.811-.247,25.585-.149,37.051-.132-2.069.054-.74.027-3.212.029,1.922.119,7.151.11,8.23.289h.808c1.567-.07,1.9-.082,3.957-.136l-2.491-.133c-.2.085-.158.054.88.134l-3.227,0-3.3-.132-.837-.053c13.374.012,27.941.014,41.128-.078,2.993.091,1.96.095,1.739.267l4.034,0c.253-.092.421-.013-2.47-.106l.758-.108c4.664.073.195.075,7.283.05l.833.053-4.827.03.013.026H515.6c1.655.044,2.281.026,7.273.023,1.3-.077-1.488-.046-3.263-.078l4.815-.056h.807c.284.085.211.053-.747.135,1.108-.01,2.206-.03,3.226-.054,1.072.077.5.059,2.446.1-1.145-.088-.511-.056-2.423-.1,2.71-.064,4.821-.158,4.714-.191,11.735-.032,27.922-.1,31.534.146,1.65-.074.612-.015.755-.134,4.933.02,9.259.022,12.96.128l-.037-.107,33.9.014.843.134h.807c1.572-.061.663,0-.023-.081l1.6-.054h3.228l-1.586.108,2.427.026c1.351-.124-1.311-.085,3.2-.108l.785-.081c-28.273-.063-57.441.021-84.775-.073l-4.179-.016,38.776-.046q38.648.057,77.309.1c-7.745.014-15.264.023-22.294.012l-1.6.054q47.209.027,94.414.061c-2.445-.032-4.97-.058-7.557-.08l10.606,0-1.436.048,6.456.026.8-.053-4.249-.02,6.512,0-.646.043q28.641,0,57.281,0c13.909.085,42.286.11,42.286.11h-6.8c1.786.2,5.742.142,10.467.162l-1.6-.107,0-.027a40.491,40.491,0,0,1,4.815.188l-4.025-.027-.006.053,4.025.027c2.181-.079,1-.1,1.636-.263,25.566,0,51.318-.016,76.652-.068,31.464-.064,65.561.277,96.8.012l.772.08c-4.2.067-5.1.041-9.722.1l-.829.053,24.212-.042c-2.142-.1-8.21-.1-12.071-.059h-.806l.035-.08q89.962-.02,179.924-.011l-.062.08c-13.766-.041-27.37.032-41.142-.007,15.05.229,35.089.126,50.8.042-1.931-.068-5.075-.067-8.043-.033h-.807c1.381-.22,29.487-.045,38.837-.125,4.815.058,6.436.024,7.906.2,7.4-.017,13.305-.082,16.93.016,1.175-.049.077-.016,1.66-.052l.831-.026.023-.026c-4.87-.045-14.717-.033-18.591.035l-.74-.081c5.112-.12,31.62-.056,35.579-.072-3.28.12-5.648.09-12.169.068l-1.732.132q33.522-.031,67.047-.061l.828-.074-.3,0-29.534.02c2.518-.147,22.255-.134,29.534-.02h.355l-.06,0c1.331.022,2.238.048,2.4.078q24.233-.014,48.465-.022c31.86-.053,63.43.088,95.237.048.093.1-.723.031.67.108l.1-.08,17.84-.054,1.578.029-.035.027-12.163.035-.034.027,24.219.009c-2.122-.06-3.41-.038-7.221-.037,2.468-.12,21.687-.062,30.817-.087-1.379.086-1.8.062-3.408.129l2.454-.023c-2.308.059-4.659.012-8.025-.039l-1.648.024,4.8.034c-20.036.158-42.967.133-63.148.12a42.5,42.5,0,0,1-4.769-.06h-.807l-.132.107q78.738-.008,157.475.007c12.976-.064,27.881-.135,39.7-.064,1.815-.1.462-.085,1.1-.185-1.839-.051-4.887-.071-8.741-.1,2.257-.064,2.485-.038,5.686-.016-2.74-.135-7.808-.09-11.246-.047l.168-.107-8.874-.016,2.629-.129.042-.027c-3.631.02-6.347.02-8.192.066l-5.607-.037c10.435-.194,20.991-.114,29.767-.4l1.7-.051-4-.034c-3.454.141-4.76.109-9.942.143l-3.954-.06,9.177-.172c-2.773-.037-1.589-.207-6.977-.2l.126-.08c4.631-.012,7.625.028,11.229.074h.807l.254-.16c-2.432-.022-2.939.01-5.74.043l-2.384-.031c4.415-.123,4.8-.166,11.612-.166-1.77-.069-4.38-.092-7.064-.147-13.815.228-26.043.373-41.766.275l2.265.111c-12.994-.032-28.474.019-40.751.173-1.909-.087-2.483-.045.153-.107l-3.964-.06.618.135-15.35-.025c6.123-.175,12.264-.152,17.387-.266l.038-.027c-4.747,0-3.092,0-6.392-.064-.448.069.752.016-.922.079-1.505-.063-.658,0,.114-.08-1.3-.04-2.7-.076-4.167-.109,1.82.017,3.648.034,5.473.048l-.522-.162,6.449.013c-.522-.01-1.087-.024-1.563-.03-12.6-.168-32.306-.255-51.089-.248-3.429-.006-6.848-.009-10.21-.01l10.777-.21h.4c.663.117,3.324.172,5.284.192,3.313-.113,12.047-.1,15.462-.05l1.084-.159c-1.17-.006-2.334-.017-3.514-.029,1.2-.023,1.021-.1-.622-.1l-13.951-.008c.619-.087-.531.027-.871-.138-13.32,0-18.643-.032-33.144-.036,2.685-.11,2.531-.03,1.875-.157l-4.843-.009.044-.027,4.887-.018,3.011.14,5.743-.043-2.338-.058,4.039.008c1.477.123,1.656.1,7.09.12l-1.438-.109a15.324,15.324,0,0,1-1.569-.03l.044-.027c2.877.007,1.646.028,4.084-.019-1.2-.063-1.384-.05-2.2-.138l1.617,0,8.975-.037.764.029-.989.1-2.422,0a9.984,9.984,0,0,0-1.614,0,29.241,29.241,0,0,0-4.307.153l.675.082,51.857-.006-1,.1,36.379.048c-1.622.034-.492,0-1.714.05l.808,0c3.152-.06,2.128-.051,1.954-.184,3.422.035,2.382.04,4.7.09l.2-.107c6.23.057,13.635.03,20.391.031l8.8.071c-.511.025-.327.07.73.079q1.065.011,2.132.018l-.008,0,.766,0q4.045.029,8.082.035l-.068.036c1.39-.021,1.318-.021.93-.034h2.565l1.948.153,3.228.007.113-.059,1.113.008c-.5-.019-.757-.028-1.066-.032l.107-.056a9.094,9.094,0,0,0,1.166-.041l2.423-.015,4.96.028c.7.018,1.392.038,2.074.062l-3.68,0c-.294-.023-.656-.046-1.2-.072l.444.072-3.523,0-.042.027h.288c-.1,0-.053.009-.7.051l1.147-.049,3.122.014.775.125c-1.383.03-.633.029-.83.048-1.63-.045-3.348-.085-5.07-.113l-.052.027,11.371.4,1.611,0c-1.661-.109-4.558-.227-7.843-.318l.815-.047.346.055c3.027-.02,2.108.011,4.135-.044-2.766-.036-3.505-.079-4.152-.132l4.712.022,1.662-.024.027-.017.488,0-.742-.065q3.964.018,7.953.034c1.626.006,1.971-.085.386-.1l-9.8-.072-.1-.01q2.449-.034,4.838-.077c1.212-.021.724-.075-.347-.089s-2.13-.028-3.2-.041l1.329,0c1.082,0,1.8-.046,1.254-.075,3.379-.1,6.138-.205,8.254-.327l8.335-.179C1681.9,6810.521,1681.042,6810.445,1679.414,6810.46Zm-1429.238,2.73h-1.751q5.044-.016,10.068-.04c.183.017.607.029,1.285.027l3.6-.01,4.481.018Zm-1.8.391-.879-.006,3.029,0h6.408Q252.656,6813.58,248.375,6813.581Zm1077.341-2.69-.089.01-2.1,0-.2-.015,10.7,0-6.263.011Q1326.775,6810.893,1325.716,6810.891Zm95.452.782.532-.009c-1.493-.039-.479,0-1.534-.056l4.883-.018-1.351.079Zm-133.615,1.235c-4.066-.041-8.405-.072-12.907-.094-1.193-.023-.347-.025-1.284-.006-18.436-.084-39.449-.02-56.135.111l-1.594-.028,3.274-.05-7.249-.034-.021.027,3.188.056-3.251.024-1.552-.081c-15.013.122-31.676.022-46.866-.014l1.54.109-1.6-.028a16.084,16.084,0,0,1-2.365-.082c-9.6-.007-16.75.112-20.264.091s-7.729-.061-12.244-.094l15.857-.028,134.015-.031c1.273,0,1.658-.05,1.2-.083h.4c10.419.045,21.043.049,31.484.047l.782.028c-3.548.07-5.827.12-9.8.1l-1.641.025c1.156-.044,1.884-.046,3.307-.077l1.616,0C1298.129,6812.679,1295.113,6812.9,1287.553,6812.908Zm-324.414.332-6.923-.141-4.038,0,1.59.081,8.043.065-13.3.027c-3.743-.1-8.323-.159-13.536-.188q22.761-.023,45.52-.05l3.205,0c-5.869.1-13.495.07-21.013.044,1.416.048,5.779.1,10.9.144Zm-96.038-.206-.38,0,49.534-.059,2.429.018Q892.895,6813.013,867.1,6813.034Zm-68.341.165v.026l0,.027-5.082-.061,4.006,0Zm-258.138.022c4.493-.017,8.689-.028,11.885,0l.3-.016,7.913,0,4.571.036-4.253.01Zm-78.378-1.1c7-.065,14.04-.073,21.106-.061l-19.243.065Zm36.107-.886h.355c6.608-.1,23.139-.1,28.223.007l-22.682,0-5.541-.009-.3,0,.05.005h-.327l.277-.005Zm273.759-.77h1.677l-.119,0,16.3-.033-.017.044,4.019.055c2.442-.033,1.821-.016,3.264-.078l-5.785-.024,8.307-.017c11.657.014,23.757-.029,34.686-.022,38.187.027,77.057.036,115.587.048l-.517.063q-17.953.01-35.908.018h-.008l-5.639-.031-.02.033-26.553.009.683,0,.03-.054-4.054.025.505.035-11.192,0,2.591-.016-2.4-.054-1.479.07-9.729,0q-17.568-.01-35.136-.025c-.637,0-1.037.012-1.239.028q-38.289,0-76.573-.008Zm488.7.936-15.409,0,1.25-.038c-1.421.032-.706.009-1.372.039q-26.407.008-52.813.02c.9-.093,1.79-.034-.694-.131l-3.376.13,2.094,0-5.873,0-1.06-.012c1.525-.126,2.43-.123,5.765-.1-.235-.008-.48-.015-.734-.021l19.157-.065c.14,0,.251,0,.37,0l2.834,0c18.816.063,38.092.089,56.042.038C1265.426,6811.337,1263.187,6811.372,1260.809,6811.4Zm74.2.391.036-.027c10.954.018,11.966-.132,19.655-.183l-2.532.076,1.537.056c4.531-.062,10.068-.051,14.557,0l.922-.079c-.806-.047-.566,0,.076-.054l1.574.03-.115.08c1.727-.051.691-.042,3.341-.075l-.153.107c.858.021,2.343-.06.923-.079,5.054-.028,6.361-.039,9.835-.091.623.081,1.829.068,8.8.068l-4.994.1-.015.01-3.826,0,3.111-.07-6.492.016-.038.027,2.76.028-15.91.021q-3.253,0-6.524.009h-.351l-25.953.031Zm62.486-.167,7.14.076-1.957,0,.387-.016-.553.017-4.5.007Zm16.214-.026-.081.053c.409.018.668.027.825.034l-3.167,0C1410.231,6811.625,1410.363,6811.651,1413.712,6811.6Zm-836.433-.253c-1.348,0-2.693,0-3.971,0l.89-.045,1.953.006C576.364,6811.312,576.729,6811.32,577.279,6811.344Zm198.857-.666c-.116.017-.342.031-.633.044h-6.26l2.853-.046c-11.257.046-14.754.059-25.04-.01l.538-.017,18.046.007-.015.044.454-.043,7.159,0-.343.044c1.411-.024,1.957-.03,2.285-.043l9.246,0-.213.017,1.306-.016,54.625.022.612.021c.969,0,1.782-.012,2.5-.02l6.233,0,.154.022c1.261-.015,1.858-.018,2.178-.021l11.26,0,9.732.017-91.862.008Q778.514,6810.7,776.136,6810.678Zm447.3-.2,33.2-.008c.163.014.26.025.326.034q-13.763.031-27.531.058l-5.067,0Zm35.631,0,5.413.013-5.269.013S1259.177,6810.486,1259.063,6810.472Zm49.338.194c-8.512-.024-18.906-.039-24.151.073q-11.147.035-22.3.065l-.052-.007-1.211.011h-.565l-37.416.017,22.411-.018c1.224,0,1.632-.047,1.25-.079l4.759-.008-.539.061c3.609-.036,4.227-.03,8.918-.015l-.372-.059,6.035-.01-1.59.048c2.48-.03.971,0,2.485-.05l4.976-.008c-.241.009-.371.022-1,.067,1.681-.029,2-.035,2.71-.07l10.07-.016c-3.407.024-3.581-.017-5.475.07,3.668,0,4.652,0,6.531-.044l.034-.027h-.3l26.038-.043c1.556,0,3.121.014,4.663.023Zm-64.53.321c-.574.016-1.208.029-1.852.041l-4.4,0c1.066-.028,1.454-.036,1.567-.047l1.461,0-.011.009Zm-67.774.446c-4.44-.044-8.946-.057-13.481-.056l18.26-.056c-1.828.034-3.472.078-4.556.112Zm-45.651.142c-1.165.012-2.559.032-3.641.055q-2.4.01-4.756.02c-8.34-.1-10.781,0-16.148.029l-.14-.005-3.04.011c-.835,0-1.736,0-2.728-.009-1.711-.01-3.05-.06-4.931-.079q16.568-.014,33.137-.025Zm43.834.11-3.147-.01,2.961-.006C1174.151,6811.673,1174.212,6811.678,1174.28,6811.685Zm-381.488,1.323c-.966-.014-1.753-.025-2.778-.038l4.718-.005v.041Zm-28.75.035v-.006h-1.613l.087.007-3.784,0-1.416-.047,2.015,0,24.844-.024,1.8.041Zm-20.846.024-3.325,0c.218,0,.6-.016,1.56-.033Zm313.877-2.562q-20.247.047-40.5.09l-39.1-.009Q1017.279,6810.556,1057.073,6810.5Zm-473.107,1.807-.043,0-15.024.022-10.363-.026Zm152.614-.973-25.673-.04c-.161-.007-.287-.015-.356-.024-1.033,0-2.485.014-3.881.034-14.652.039-29.444.017-44.216-.02l62.1-.051,33.62,0h4.051l-.005,0,.309,0,53.2-.009h0q-35.82.043-71.625.1C741.475,6811.323,738.948,6811.325,736.58,6811.339Zm-85.954.069L648,6811.4l-.27-.026,4.625,0c-.527.006-1.094.011-1.728.015Zm436.058-.067-.951-.022,5.024-.009-.022.024Zm-13.074,1.2c10.589-.054,21.361-.032,32.185,0q-14.617.018-29.238.032h-36.109l0,0-1.483,0h-25.916c-.1,0-.312-.006-.885-.02l.6.02h-8.472c-.1-.006-.039,0-1.014-.025l.732.025H984.069l-1-.034-1.049.033H963.691l-.823-.042-1.945.042h-8.864l.294-.019-4.031-.028-.015.047H922.444l0-.014q29.778-.042,59.566-.071l14.013.006c17.212,0,37.219.138,54.082-.025h.12C1052.509,6812.56,1066.685,6812.577,1073.61,6812.542Zm-182.325.146.268,0H885.8l.079,0Zm-157.277-.135,7.4-.017v.019Zm119.675.016.068-.007c-1.441,0-2.486,0-3.322.009l-5.825,0,21.587-.023h.213Q860.044,6812.557,853.683,6812.569Zm-82.931-.034-.25-.006.181.006-3.175.009c-.4-.008-.854-.015-1.377-.021h9.088Zm-29.055-.209.578,0-16.938.047-50.021.053-35.937.006-.666-.022-6.468,0,.317.021h-3.928c-.27,0-.778-.006-2.048-.02l.83.02-12.7,0c-.306,0-.833-.006-1.873-.018l.005.018-2.864-.007-.383-.036-6.468,0,.006.02-6.415-.014q33.012-.048,66.034-.085Zm253.006-1.081c-2.9.04-4.3.031-6.325.092l-4.994,0c1.662-.008,3.194-.019,4.824-.042-.964-.05-1.383-.064-1.489-.074h4.091c-.038.007-.082.015-.143.023l1.008-.023,4.8,0c-.051,0-.123,0-.141,0,1.521.088.567,0-.081.107l.644.015-6.77,0,5.362-.066.02-.027Zm112.516-.178h-3.529l.2-.01h3.37Zm-81.393.237-7.138.009.205-.02h-.808l-.364.023-4.946.006c3.159-.028,6.027-.065,8.273-.108H1026l.223.007.154-.007h2.466C1027.492,6811.246,1026.582,6811.267,1025.826,6811.3Zm-47.3-.019c-1.774.033-1.436.019-1.934.048l-27.874-.006,11.264-.084c-.241-.009-.381-.013-.481-.016h.437l.834.043,2.138-.044,8.005,0C974.033,6811.227,976.728,6811.243,978.525,6811.285Zm-33.911,0-4.045.041H934.9l.014-.022-2.406-.028-.032.051h-2.531c.255-.011.537-.027.951-.053,1.045-.033.574-.011.667-.031l4.322-.007,16.446-.006c-1.842.024-3.942.015-6.069,0l.646.1h-5l3.495-.014.018-.027Zm127.662-.212h-7.751c.588-.008.843-.014,1.112-.026h3.479l-.764.023,3.191-.023h.074Zm-114.6.008-.33.01-13.353,0,.509-.032,11.5,0c-.507.006-1.021.013-1.558.022Zm.808,0c2.833,0,3.644,0,4.8-.028l6.711,0c-.34,0-.694.007-1,.013l-.007.009-10.513.018Zm-26.789,0,3.685-.009-.323.02,2.42,0-.734-.025,1.075,0,5.615,0,.45.031-12.307,0,.252-.007Zm103.534,0,3.853-.007-.833.011h-3.024Zm11.131-.018,5.861-.01h4.883c.186.008.363.018.533.029l-12.221,0Zm14.189-.009h1.931a.237.237,0,0,0,.089.026h-3.82Zm36,.022.5-.013h3.28l.074.011Zm-169.629.182c-.261,0-.534.012-.858.02l.386.056q-27.08,0-54.159.013Zm131.922,0-1.947-.006c-.013,0-.029.006-.043.009l-17.394.027c.082-.011.236-.027.492-.052l-5.338.059-3.6,0,.016-.019c2.385-.017,4.6-.039,6.653-.066h20.865l-.011.012,4.111-.013h3.171l-.017.021.784-.02h9.728l.79.013Zm9.8.093,5.79-.009c-.953.008-1.89.017-2.753.031l-2.9,0Zm122.915-.359-.913,0q-19.7-.012-39.4-.022l20-.009-.135.014,3.041-.015,13.373-.006-.235.014,2.421,0-.506-.018h1.833Zm-418.932.4,8.585-.013-8.176.014Zm223.2.116c-.065-.008-.135-.016-.19-.025H993.2c-1.815.036-2.08.015-1.932.035l-13.793.025-35.081-.034q27.487-.023,54.969-.058h3.762l19.623.011Zm97.519-.179-1.212-.022,16.159-.03-2.31.029Zm17.288-.056,27.64-.055,14,0-41.2.076Zm97.059-.324-8.508.02-.424-.022,9,0Zm-560.818,1.259-35.83,0C622.173,6812.108,634.822,6812.162,646.866,6812.208Zm-73.276-.007c.074-.009.178-.019.347-.033l28.895.036Zm468.907-.507c.234-.014.377-.023.474-.031l1.69,0Zm32.651-.081c-3.809.017-6.9.015-9.651.009Zm17.066-.014-3.614.057h-1.11c-.589-.017-1.644-.034-2.941-.05Zm-51.461-.064,21.771-.04,6.422.006-7.547.015Zm194.938-.513c-.495-.01-.946-.022-1.383-.032l2.069-.006c.227.008.433.018.828.04Zm-343.8-.2-.3.008-6.023.009-1.813-.017Zm-276.942.49h4.867l0,.013Zm28.295.058h1.292l1.183.024-2.71-.007C643.089,6811.381,643.166,6811.375,643.246,6811.371Zm-71.738.8c-.259.028-.151.031-.124.032l-18.47,0c.282-.007.179-.016.779-.076C561.032,6812.2,561.933,6812.181,571.508,6812.169Zm-29.71.03-18.822,0,0-.006-.61.006h-2.729l-2.708-.009c.249-.03.444-.034,1.155-.074,8.379.09,23.219.086,31.565.011l1.16.074Zm270.7.786v-.023h9.446l3.148.009Zm236.253-.172.466.009-.085-.009,4.338,0h1.177c.056.006.108.012.163.016l-8.964.013-.214-.019Zm8.1.007-.092-.013,7.031,0,.045,0Zm81.329-1.209q-3.312,0-6.568.007l.027-.042,9.748.015C1140.276,6811.6,1139.194,6811.6,1138.178,6811.611Zm131.6-.642c2.381-.052,1.662-.017,1.595-.055h2.55c-1.062.032-2.075.06-4.178.083Zm13.854-.061-1.67.025-.158-.024Zm-64.541-.342q-77.514.036-155.038.033l3.1-.007,13.786-.033-.829.017c1.452-.018,1.532-.015,1.656-.019l5.465-.014c-.116,0-.3.008-.632.013h1.614c-.34-.006-.52-.011-.623-.014q17.771-.043,35.538-.09l.305.008-.221-.008,18.3-.047c7.93.013,15.634.031,22.856.05,17.649.045,40.49-.181,58.225.047l-5.722.046Zm-232.3-.1-.389-.007-6.556.013-20.728.015-.213-.023h-.809l-.778.025-5.482,0a2.1,2.1,0,0,1,.64-.086c24,.187,49.791-.072,73.6.024Q1006.431,6810.452,986.786,6810.468Zm-123.462.357-2.352.053-2.407,0c.86-.015,1.659-.034,2.42-.057Zm-200.287.251c4.573-.029,11.277-.025,16.278-.015Zm-22.508.02.661-.026,4.4.022Zm-54.233.24c-1.1.01-2.154.021-3.126.033l-1.419-.009-.013-.039Zm51.209.2,3.548.017-4.553.013C636.8,6811.557,637.135,6811.547,637.505,6811.539Zm-121.836.6-.4.041-17.973-.059,3.542-.011Q508.254,6812.138,515.669,6812.142Zm-27.715.011c-.015.016.112.031.4.041h-3.411l-.016-.031Zm-19.887.257c-1.317-.065-1.035-.048-.926-.108h3.63c12.254.154,27.47.145,40.18.137l-.857-.107c-9.107.035-18.344,0-27.539-.029l25.359,0,5.418.026.827.1-12.755.025-18.141,0c-2.172-.014-4.41-.013-6.5-.01l-8.24-.028Zm85.982.623c1.139.033,1.492.047,1.592.063h-1.764A.819.819,0,0,1,554.049,6813.033Zm8.854-.084c24.576.094,51.776.046,76.885-.046l14.341,0,4.58,0c12.516.085,26.121.081,39.451.063-.166.005-.3.012-.384.019l-1.09,0q-24.385.041-48.765.088c-2.554-.044-5.342-.061-7.431.006,1.785-.011,2.869-.016,3.713,0l-5.233.01-.908-.037-1.157.041-8.8.017H617.3q-16.5,0-32.989-.008c-.332-.016.064,0-1.168-.031l.964.031-14.482,0C567.027,6813.071,564.539,6813.035,562.9,6812.949Zm124.7.165q25.536-.045,51.078-.084c.618.025.806.038.962.042l-19.9.023h-.1l-.035,0-13.017.015Zm280.213-.177-1.071-.026,2.2,0,.853.027Zm10.684-.04,29.948-.036,35.505-.042,1.294.018q-30.244.044-60.5.08Zm55.9.065c-5.138.015-10.367.021-15.631.021Zm25.786-.037c-1.765.022-3.182.022-4.218.006Zm205.633-1.914,2.367-.1h1.26c-.617.065-.931.067-3.25.1Zm27.372-.05c-.482-.022-1-.04-1.585-.056l4.136,0-.365.054Zm4.111-.008a.3.3,0,0,1,.076-.051l24.794-.011c-4.919.015-8.864.024-12.646.04Zm18.941-.169.306-.034,3.372-.011-.389.044Zm27.069-.3c-.232-.012-.588-.019-1.092-.019l-4.943,0c7.328-.019,14.635-.032,21.868,0Zm-33.679.011,2.36-.018.574,0,.285.017Zm-471.01.335c-12.073.023-24.5.034-36.534,0Zm-205.494.189-.813.053c-1.311.031-.768.012-1.241.036l-11.159.01C624.127,6811.061,625.734,6811.012,633.125,6811.016Zm-74.308.219c.224.007.5.013.867.014l2.339.008c-1.6.011-3.3.03-5.263.06h-.168c-.616-.064-.088-.011.8-.078h-4.669l-.315-.012C553.388,6811.232,555.75,6811.234,558.817,6811.235Zm-106.256.927,5.592-.12.057.1Zm-6.876.416-5.744.012h-.082l.149-.01Zm52.881.087.389.048c-3.715-.056-15.9.1-18.563.064-2.239-.026-4.533-.064-7.31-.1Zm218.568.554-.717.036c-2.811,0-4.754-.008-6.687-.035Zm25.762-.008-.646.015c-2.6.061-7.9.036-12.827-.011Zm117.621-.172-.128,0,5.833-.006.165,0Zm10.908.1,0,.014c-1.376,0-2.329-.006-3.1-.012Zm463.806-1.511-1.724.078c-10.959-.022-22.519.014-33.494.046-9.645-.02-19.326-.043-29.1-.064l-.039,0,.022,0c-9.077-.017-18.193-.022-27.563,0l1.71-.106c-3.895.037-1.84-.017-2.519.1l-11.354.016c-2.614-.083-1.305-.014-1.508-.135l-2.428,0c-1.653.065-.475.011-.876.08-1.076-.01-2.208-.016-3.32-.023l.1-.007-.625,0c-13.278-.074-27.137-.057-40.669-.049-.23-.012-.591-.021-1.119-.022l-2.389,0,29.277-.014q20.2.023,40.458,0l.02-.016h1.353l-.568.017.85-.017h3.145c-.264.007-.522.014-.768.023,3.414,0,3-.015,5.616.034h-.149l-.365,0-.005,0c-2.505.012-2.829.013-4.239.064l-1.424-.075-.046.053-1.642.026,2.933,0h.305l-.046,0,.865-.007-.009.011,3.237,0-2.311-.022,2.347-.019-.012.014,3.238,0c-.555-.02-.742-.029-.893-.034,4.151-.031,8.13-.057,11.63-.082h5.381c.165.011.36.023.633.037,9.734-.073,28.26.206,37.216-.025-.026-.007-.054-.012-.084-.018h2.089a21.246,21.246,0,0,0,2.854,0h6.578c-.207.022-.507.05-1.02.087C1329.275,6811.617,1329.494,6811.622,1335.231,6811.629Zm-60.827-.233c.238-.011.633-.024,1.363-.043a.274.274,0,0,1,.09.043Zm104.351-.795c-3.625.079-10.483.042-15.468.055-.1.077.168.089-.017.107l-10.87,0c3.207-.021,6.313-.049,9.231-.088-11.384-.009-23.027.053-34.468.036l11.454-.037c.629,0,1.029-.016,1.231-.034l1.581,0c-.524-.028-.842-.039-1.211-.05l5.336,0-.047.033,26.782-.037.029-.02,4.9,0Zm-595.819-.27-4.709.01c.962-.01,1.7-.022,2.084-.036C781.175,6810.315,782.054,6810.323,782.936,6810.331Zm-263.706-.037c14.778.017,29.94.026,44.451-.084l-2.419.134,4.848-.027c-.261-.108-2.1-.053.8-.107,1.2.238,9.124.041,11.318.027.688.076-.772.074,3.233.08,27.97.038,56.018-.175,84.052.035-.923-.068-1.442-.012-.8-.081l8.882.055c27.308.195,56.1-.142,83.249.024,1.708.01,3.865.018,6.178.022l-20.435.045-1.115-.019-.006.021-5.7.013c.368-.007.018,0,.86-.036l-1.125.037-4.105.009-2.853-.048.784.053q-14.451.031-28.9.066-40.9-.012-81.8-.027v-.007l-1.806.007-13.333,0c-.554,0-.923.01-1.149.023-14.385-.094-30.661-.137-45.39-.085-.921-.02-.076-.017-1.289,0-4.518.018-8.883.045-12.983.083-7.554-.011-10.373-.24-17.789-.133h1.616c1.4.033,2.121.036,3.24.08l-1.619-.026c-3.988.02-6.222-.033-9.708-.106Zm-136.96.611.616.013,1.04-.012,13.2,0,.371.024,4.864,0-.193-.018h1.485l-.481.016,4.867,0,.794-.012q54.83.019,109.657.049c24.449.1,50.62.226,75.076.05l-1.616.08c5.828-.026,7.911-.086,9.689-.053-1.265.043-.26,0-.811.053l5.656-.106.8.107c3.43-.062,10.163-.164,12.034.021l-3.974,0q-27.831.013-55.665.021c-.634,0-1.03.012-1.232.027-12.028-.015-23.882-.05-35.106-.124-17.955-.12-38.24.036-57.319-.044l-12.581.032-9.663-.024,2.447.025.01.017-3.609.009-2.6,0-.287-.018,2.432,0c-3.351-.058-8.708-.029-14.915,0q-31.483-.045-62.97-.085l-.021-.054Zm-31.314,1.78c4.108-.077,2.944-.019,2.323-.136l3.254.024,3.234,0c-1.564.044-1.075.037-4,.057,3.362.077,10.406.051,17.016.039-1.409-.057-.868-.072-1.313-.076h2.29l-.206.022c16.721.146,38.626.1,56.139-.032h7.177l1.052.027c-.948.028-.707.1.825.1l21.625-.014c1.355.011,2.661.025,3.832.045l.329-.048H467.1c1.122.019,2.181.015,3.555.018l1.647.052c-10.735.169-24.256.01-36.359.036l.009.015c-.335-.005-.768-.008-1.139-.012-2.958.009-5.824.031-8.528.072l-4.105-.1c4.844-.008,9.384,0,12.633.032l1.13,0-.024-.039h1.615c-5.289-.135-18.616-.028-20.256-.066l.086.134c-23.362-.114-46.063-.077-69.6-.078l-.02-.027C349.8,6812.66,348.479,6812.687,350.956,6812.685Zm-47.685-1.55c-1.273.013-2.53.027-3.747.044l-2.445-.026c-.163-.009-.335-.019-.53-.032C298.434,6811.128,300.756,6811.132,303.271,6811.135Zm-29.585-1.535c-.462.012-.925.024-1.368.037h.005l-8.125-.016Zm-32.527.11c-1.92,0-1.795.091,0,.1l.829,0a9.007,9.007,0,0,0-1.071.045c-6.1-.025-12.2-.033-17.856-.025l2.359-.109c-7.786.041-14.671.023-21.283-.034l19.37-.033.278.041c2.349-.023,4.126-.03,6.21-.052l9.487-.016a11.152,11.152,0,0,0,1.373.043l21.941.045-2.056.009Zm29.136,3.06-13.123-.034,16.968-.006-.905-.106,51.829.057.745-.081a25.83,25.83,0,0,0-4.173-.157,10.012,10.012,0,0,0-1.616,0l-2.425,0-.9-.106.788-.028,8.94.045h1.619c-.9.087-1.067.074-2.321.136,2.4.049,1.183.027,4.065.023l.021.027c-1.3.041.11.03-1.594.028l-1.533.108c5.446-.01,5.608.009,7.192-.113l4.043,0-2.386.056,5.7.048,3.131-.136,4.869.022.021.027-4.849,0c-.766.127-.85.046,1.738.159-14.5-.01-19.843.012-33.161,0-.547.186-1.819.014-.68.184h-.366c-2.757-.023-5.224-.022-7.508-.011.254-.027-.191-.063-1.324-.065l-3.68-.01q5.966-.038,11.976-.069c.148,0,.252,0,.367,0h.428l-.195,0c1.006-.026.2-.094-1.372-.086l-4.193.021c-1.551,0-3.4,0-5.621,0l.02.024Q285.6,6812.788,270.3,6812.77Zm15.952.762c.762,0,1.518,0,2.264,0l-2.652.023A3.278,3.278,0,0,0,286.247,6813.532Zm-4.245.052q-4.312.027-8.673.04Q277.67,6813.606,282,6813.584Zm-11.652.165c.23-.006.4-.013.5-.022,4.876-.01,9.731-.032,14.531-.068.131.006.117,0,.553.009-.258.027.187.064,1.323.067l4.148.01Zm22.395-.11h-1.057c.034-.019-.994-.007-2.454-.01q2.382-.023,4.741-.047Zm7.249,0-.045-.054,21.815.006.848.053,0,0Zm164.593-.213c-15.516.135-31.66.032-48.463-.02-7.952-.025-20.973.065-36.291.081-10.82.012-28.736-.235-35.617-.1-13.716-.112-31.6-.148-48.005-.112l-7.784-.023c.08,0,.15-.008.194-.013q13.476.02,27.012,0c.4,0,.733-.007.977-.016l0,0,3.251.024c-1.547-.051-.428-.031-2.9-.048.154-.016.107-.033-.192-.045l4.395,0,6.821.142c3.282-.033,1.591.027,2.358-.083l8.966.1.767-.055-4.1-.076c5.166-.015,19.586.078,21.828.007,3.431.041.8.028,3.31.1l-.079-.107c2.6-.017,9.7.071,13.826.122l2.326-.136c9.014.076,20.007.152,29.97.111l-2.528-.159,4.865.023c-1.1.052-.055.016-1.582.055l7.355.128c-.148-.122-1.015-.065.722-.134l-.034-.054c3.847.067,3.426.021,1.7.133l2.438.025,12.048-.116-.743.108,9.7.02-.016-.027-4.908-.1c5.655.006,7.505.016,8.372-.023l3.349.006c1.8.023,3.49.036,6.882.058-1.436.018-.021.1.855.08l-.061-.107c2.62.036,1.592.026,3.275.078l-.046-.08.379-.007,1.645,0c.232.007.2,0-.4.029l.853.079c4.528-.042,10.073-.048,14.548.018l1.584-.054-1.338-.043,2.531,0c4.656.069,6.9.168,15.831.162l.013.027C484.431,6813.562,471.473,6813.37,464.587,6813.429Zm31.441-.1-1.638-.079q19.077.036,38.159.067H532c-1.434,0-1.76.068-.964.1C519.631,6813.371,507.527,6813.318,496.028,6813.33Zm178.854-.072q22.392.005,44.771.077l41.165,0c-1.431-.079-3.9-.1-6.35-.124l5.962,0h.825l-.438.073,15.338.054c-1.3-.1-2.3-.085-2.863-.132l17-.008c.361.049-.389.013-1.228.14,2.446-.066,14.1-.049,15.334,0h.808c-.7-.08-1.376-.115-2.389-.147l8,0c5.39.089,13.179.15,20.218.154l2.429-.053c-.556-.106-1.584-.021.012-.107-.038,0-.176,0-.36-.007l4.514,0,1.493.037a1.268,1.268,0,0,1-.177-.038l4.068,0c.277.028.115.018-1.477.094,3.619.055,6.759.052,12.1.082-1.3-.071-.241-.037-2.412-.08,2.517-.056,6.677-.06,11.31-.052-.845-.027-1.574-.045-2.249-.057l3.986,0-.115.008,4.827.108,1.627-.08c-.556.057.455.011-.814.053l12.893.11.829-.107c-2.975.015-5.9.023-8.063-.055l-1.312-.044,3.742,0-.009.048,5.648.028.815-.054-5.261-.023,19.33-.017q.67.021,1.438.038l-.166.006h.494c3.223.063,7.468.066,10.786.083l.822-.053c-1.157-.037-2.215-.064-3.33-.083l7.861-.007,1.135.038.613-.04h1.011l0,.015,6.436.082c1.4-.057,2.767-.073,4.876-.1,1.734.09,5.4.151,9.408.2q-18.234.033-36.477.058l.373-.048c-1.742-.047-2.159-.049-5.639-.055.535.057-.456.01.795.054.4.026.676.042.927.054h-.537q-141.644.188-283.38-.02Zm790.6.273q-39.2.012-78.4.029l-23.335-.083c-19.14.062-39.281-.114-57.332-.013-26.336.149-55.894.079-83.211.05-34.116-.037-69.722.173-104.139.021l-42.784.025c-46.1-.009-93.807.206-139.572-.04q-47.457-.007-94.961,0,54.228-.037,108.4-.14l1.932.016c-.148-.007-.311-.013-.463-.019q16.017-.031,32.025-.069c1.988.017,3.888.033,5.578.049l-.587-.061,13.821-.035c4.831.04,9.471.1,11.76.162-.08-.069.1-.032-.761-.108,17.895.025,36.775-.1,54.027.11-.072-.068.1-.031-.751-.107,26.061.039,52.538.117,78.3.027,5.19-.019,24.3-.042,26.571.1l17-.066c1.53.062.092,0-.061.08,5.238-.048,4.819-.064,10.509-.017-1.091-.052-.049-.017-1.572-.055l-.767-.055c7.691,0,9.063.059,13.634.12,1.946-.193,8.71-.082,12.124-.016l.893-.106,5.561.112c-.5-.058.463-.011-.764-.054,1.806-.032,3.835.031,9.639.062l-1.547-.081c24.294.2,50.565.1,75.088.023q77.112.034,154.213.089Zm33.921-1.722-6.432,0,6.252-.062C1499.409,6811.782,1499.418,6811.8,1499.4,6811.809Zm-27.606-.109c2.18.073,16.675-.005,21.825.014l-4.166.073.409.031c-3.561.005-6.958.012-10.1.02q-32.479-.024-64.96-.044,19.3-.031,38.6-.068l1.238.077c2.822-.032,7.019-.079,10.239-.1l3.686-.008-.171.106C1470.971,6811.727,1468.334,6811.738,1471.8,6811.7Zm10.464-.463-.044.027c-23.525-.022-46.185-.081-69.635.01l.2-.134c-1.672.036-14.9-.084-20.305.046l1.614,0-.058.039,1.127,0c3.28-.033,7.82-.032,12.656-.019l-4.193.1c-2.668-.044-5.514-.068-8.463-.081-.374,0-.809.006-1.148.011l.021-.014c-12.076-.038-25.727.107-36.312-.072l1.692-.051c1.9,0,3.182.008,4.918-.046l.038-.026c-6.676.016-10.79.095-14.757.137-2.69.028-14.737-.135-18.5-.083l.793-.088,5.309-.01,3.734.006.018-.013,1.379,0,1.029.019c4.282.069,21.153,0,25.071.013l-3.268.022.656.108c5.576-.086,13.719-.068,18.646-.023l.078-.053c-3.037-.041-1.679,0-3.114-.086l8.117-.013.73.055c-1.639.028-2.885.031-4.155.073,5.79-.007,5.408-.057,9.077-.119,18.06.175,42.759.277,61.338.134l-.682-.082,5.568.064a35.365,35.365,0,0,0-4.162.073c6.6.018,13.615.051,17.043-.023-2.91-.022-2.428-.015-3.953-.061l3.23.006,3.274-.02c-.722.116-1.836.057,2.205.138C1481.549,6811.21,1480.248,6811.181,1482.262,6811.237Zm146.2-1.315,1.95.061-2.322.02c.077-.022-.167-.048-.549-.076Zm-4.285.116c-.541,0-.847.019-.963.034-1.138-.036-2.257-.071-3.478-.1l1.769-.009.849.029-.137-.033,2.769-.016a6.473,6.473,0,0,0,1.275.079Zm18.093.163-12.8.045c-.814-.017-1.569-.035-2.271-.054q8.432,0,16.864-.009Zm1.28,1.028c.749,0,1.485-.009,2.221-.015.365.015.746.028,1.138.04Zm4.812.024c-.659-.024-.91-.04-1.02-.051l1.19-.011C1648.57,6811.211,1648.526,6811.231,1648.357,6811.253Zm-.355-.644-3.468.01-.373-.012q1.533-.006,3.04-.017l1.663.012Zm4.837.224.582-.03,2.573-.024.357.116C1655.152,6810.877,1653.979,6810.856,1652.839,6810.833Zm3.013-.613,3.253-.034c-.313.01-.618.021-.939.03C1657.377,6810.216,1656.6,6810.217,1655.852,6810.22Zm2.562.634-1.619-.076,2.384.008a.3.3,0,0,0-.122.055Zm.8.394c-.107-.012-.207-.025-.3-.038l1.6.019Zm3.088-.272c-.031,0-.041-.01-.068-.016q1.382-.034,2.669-.075l.619-.013C1664.522,6810.909,1663.452,6810.943,1662.3,6810.976Z" fill-rule="evenodd"/>
    <path id="Path_13988" data-name="Path 13988" d="M231.339,6808.835l-.016-.027-8.9.033.845.053C227.259,6808.9,229.4,6808.888,231.339,6808.835Z" fill-rule="evenodd"/>
    <path id="Path_13989" data-name="Path 13989" d="M1167.456,6809.067l-2.486.051C1167.454,6809.087,1165.938,6809.119,1167.456,6809.067Z" fill-rule="evenodd"/>
    <path id="Path_13990" data-name="Path 13990" d="M1170.668,6809.1l-2.4-.03-.057.054,2.43,0Z" fill-rule="evenodd"/>
    <path id="Path_13991" data-name="Path 13991" d="M1195.817,6809.1l-.782-.027c-2.929.021-4.792-.021-6.57.072l7.322-.018Z" fill-rule="evenodd"/>
    <path id="Path_13992" data-name="Path 13992" d="M1217.692,6809.13l-4.049,0,2.369.057Z" fill-rule="evenodd"/>
    <path id="Path_13993" data-name="Path 13993" d="M198.907,6808.832l-.019-.027-7.311-.021c1.322.048,2.809.056,4.125.1Z" fill-rule="evenodd"/>
    <path id="Path_13994" data-name="Path 13994" d="M212.683,6808.821l-1.585.055C212.631,6808.838,211.581,6808.873,212.683,6808.821Z" fill-rule="evenodd"/>
    <path id="Path_13995" data-name="Path 13995" d="M1209.622,6809.093l-1.683.052C1209.54,6809.109,1208.426,6809.143,1209.622,6809.093Z" fill-rule="evenodd"/>
    <path id="Path_13996" data-name="Path 13996" d="M1221.713,6809.163l-1.558-.056-.872.052Z" fill-rule="evenodd"/>
    <path id="Path_13997" data-name="Path 13997" d="M1222.585,6809.11l-.062.054,1.622,0C1223.074,6809.113,1224.082,6809.15,1222.585,6809.11Z" fill-rule="evenodd"/>
    <path id="Path_13998" data-name="Path 13998" d="M201.357,6808.857c-1.165-.051-.094-.016-1.658-.052l.037.053Z" fill-rule="evenodd"/>
    <path id="Path_13999" data-name="Path 13999" d="M1244.527,6809.086h-.811l-4.147.075c3.276-.007,3.178-.005,4.926-.047Z" fill-rule="evenodd"/>
    <path id="Path_14000" data-name="Path 14000" d="M164.042,6808.833l-.06-.08-4.053,0-1.58.055.851.052Z" fill-rule="evenodd"/>
    <path id="Path_14001" data-name="Path 14001" d="M497.17,6808.691l1.613-.053C497.23,6808.675,498.3,6808.64,497.17,6808.691Z" fill-rule="evenodd"/>
    <path id="Path_14002" data-name="Path 14002" d="M1252.564,6809.151l8.944-.015-.743-.054h-.811C1255.467,6809.088,1254.863,6809.071,1252.564,6809.151Z" fill-rule="evenodd"/>
    <path id="Path_14003" data-name="Path 14003" d="M1536.877,6809.627l1.71-.051-.762-.028-3.285.02Z" fill-rule="evenodd"/>
    <path id="Path_14004" data-name="Path 14004" d="M151.886,6808.844a18.57,18.57,0,0,0-2.492-.078l.871.079Z" fill-rule="evenodd"/>
    <path id="Path_14005" data-name="Path 14005" d="M182.681,6808.818l4.843-.031C183.607,6808.791,184.109,6808.765,182.681,6808.818Z" fill-rule="evenodd"/>
    <path id="Path_14006" data-name="Path 14006" d="M1270.555,6809.042c-3.868.014-4.625.022-6.614.1C1268.449,6809.132,1268.375,6809.122,1270.555,6809.042Z" fill-rule="evenodd"/>
    <path id="Path_14007" data-name="Path 14007" d="M1324.742,6809.2l.036-.027c-4.019-.013-7.038-.019-8.986.04Z" fill-rule="evenodd"/>
    <path id="Path_14008" data-name="Path 14008" d="M1392.023,6809.283c-1.614.035-.488,0-1.7.051Z" fill-rule="evenodd"/>
    <path id="Path_14009" data-name="Path 14009" d="M1419.608,6809.3l-.04.027,3.966.06,4.862.009-1.537-.057C1425.874,6809.3,1422.84,6809.261,1419.608,6809.3Z" fill-rule="evenodd"/>
    <path id="Path_14010" data-name="Path 14010" d="M1434.958,6809.357l-.729-.055-.808,0-3.281.021q-.467.041-.934.079l4.858.009Z" fill-rule="evenodd"/>
    <path id="Path_14011" data-name="Path 14011" d="M1618.044,6809.686l-1.671.023.711.055Z" fill-rule="evenodd"/>
    <path id="Path_14012" data-name="Path 14012" d="M1623.561,6809.778l-2.328-.059.71.056Z" fill-rule="evenodd"/>
    <path id="Path_14013" data-name="Path 14013" d="M515.8,6808.608l-3.241.028h3.244Z" fill-rule="evenodd"/>
    <path id="Path_14014" data-name="Path 14014" d="M1272.141,6809.071l3.174.058,1.623,0C1275.318,6809.058,1274.6,6809.05,1272.141,6809.071Z" fill-rule="evenodd"/>
    <path id="Path_14015" data-name="Path 14015" d="M1294.867,6809.077l-4.018-.033c-2.965.079-10.1,0-13.1.089h17.857Z" fill-rule="evenodd"/>
    <path id="Path_14016" data-name="Path 14016" d="M1298.813,6809.163l2.5-.05.035-.026-3.241,0-.035.027Z" fill-rule="evenodd"/>
    <path id="Path_14017" data-name="Path 14017" d="M1413.127,6809.292l-1.622,0,.731.055Z" fill-rule="evenodd"/>
    <path id="Path_14018" data-name="Path 14018" d="M1448.687,6809.408c1.721-.034,1.349-.028,2.555-.076l-3.241-.006-1.7.051Z" fill-rule="evenodd"/>
    <path id="Path_14019" data-name="Path 14019" d="M1604.278,6809.657l-.909.051,2.428,0Z" fill-rule="evenodd"/>
    <path id="Path_14020" data-name="Path 14020" d="M1456.019,6809.394l.043-.027-2.388-.031-.084.054Z" fill-rule="evenodd"/>
    <path id="Path_14021" data-name="Path 14021" d="M1482.879,6809.363l-2.429,0-1.751.077Z" fill-rule="evenodd"/>
    <path id="Path_14022" data-name="Path 14022" d="M587.958,6808.578c2.946-.017,2.454-.011,4.054-.054Z" fill-rule="evenodd"/>
    <path id="Path_14023" data-name="Path 14023" d="M1484.541,6809.339l-1.618,0,.724.055Z" fill-rule="evenodd"/>
    <path id="Path_14024" data-name="Path 14024" d="M1493.5,6809.329c-3.16.029-1.685,0-3.372.074C1493.283,6809.373,1491.811,6809.406,1493.5,6809.329Z" fill-rule="evenodd"/>
    <path id="Path_14025" data-name="Path 14025" d="M613.1,6808.472c-2.963.024-1.659,0-3.247.053h3.243Z" fill-rule="evenodd"/>
    <path id="Path_14026" data-name="Path 14026" d="M1521.044,6809.381l-1.713.051C1520.954,6809.4,1519.821,6809.43,1521.044,6809.381Z" fill-rule="evenodd"/>
    <path id="Path_14027" data-name="Path 14027" d="M1527.478,6809.421l1.039-.132-.811,0-5,.071,3.241.006c-1.451.03-2.183.031-3.376.074Z" fill-rule="evenodd"/>
    <path id="Path_14028" data-name="Path 14028" d="M1615,6809.572l-1.621,0,.711.055Z" fill-rule="evenodd"/>
    <path id="Path_14029" data-name="Path 14029" d="M1138.93,6808.93l10.574-.015C1145.141,6808.893,1142.361,6808.874,1138.93,6808.93Z" fill-rule="evenodd"/>
    <path id="Path_14030" data-name="Path 14030" d="M1156.022,6808.9l-.055.054,1.62,0C1156.512,6808.9,1157.522,6808.936,1156.022,6808.9Z" fill-rule="evenodd"/>
    <path id="Path_14031" data-name="Path 14031" d="M1186.04,6808.933l.029-.027-14.634.009.755.054Z" fill-rule="evenodd"/>
    <path id="Path_14032" data-name="Path 14032" d="M1191.747,6808.913h-.809l-2.495.05,3.245,0Z" fill-rule="evenodd"/>
    <path id="Path_14033" data-name="Path 14033" d="M1194.124,6808.97l12.227-.038C1201.836,6808.916,1196.377,6808.9,1194.124,6808.97Z" fill-rule="evenodd"/>
    <path id="Path_14034" data-name="Path 14034" d="M1211.251,6808.911l-.061.054,1.621,0C1211.74,6808.914,1212.747,6808.951,1211.251,6808.911Z" fill-rule="evenodd"/>
    <path id="Path_14035" data-name="Path 14035" d="M1221.8,6808.925l-6.46-.035-.9.079,7.329-.017Z" fill-rule="evenodd"/>
    <path id="Path_14036" data-name="Path 14036" d="M1226.665,6808.931l-2.434,0,.751.055Z" fill-rule="evenodd"/>
    <path id="Path_14037" data-name="Path 14037" d="M1255.87,6808.971l.032-.027c-5.4-.013-15.518-.069-13.856.035Z" fill-rule="evenodd"/>
    <path id="Path_14038" data-name="Path 14038" d="M1277.03,6808.947l-18.724.027H1277Z" fill-rule="evenodd"/>
    <path id="Path_14039" data-name="Path 14039" d="M1277.775,6809l10.581-.012C1283.941,6808.974,1281.438,6808.95,1277.775,6809Z" fill-rule="evenodd"/>
    <path id="Path_14040" data-name="Path 14040" d="M1290.891,6808.914l-.068.053c-1.606.035-.489,0-1.69.051,3.282-.006,3.184,0,4.935-.046Z" fill-rule="evenodd"/>
    <path id="Path_14041" data-name="Path 14041" d="M1329.061,6808.944c-7.39-.017-31.715-.014-33.4.057C1306.352,6809.025,1322.914,6809.075,1329.061,6808.944Z" fill-rule="evenodd"/>
    <path id="Path_14042" data-name="Path 14042" d="M1330.718,6808.92l-.881.052,3.246,0Z" fill-rule="evenodd"/>
    <path id="Path_14043" data-name="Path 14043" d="M1420.778,6809.067l-.731-.055c-10.148-.007-22.8-.157-34.155,0l4.83.035Z" fill-rule="evenodd"/>
    <path id="Path_14044" data-name="Path 14044" d="M1381.911,6808.948c-3.274.01-2.425-.005-4.134.047l4.87.008Z" fill-rule="evenodd"/>
    <path id="Path_14045" data-name="Path 14045" d="M1428.161,6809.026c-3.686,0-4.673,0-6.574.042l7.3.013Z" fill-rule="evenodd"/>
    <path id="Path_14046" data-name="Path 14046" d="M1430.594,6809.03l-.081.054,1.62,0C1431.083,6809.033,1432.076,6809.07,1430.594,6809.03Z" fill-rule="evenodd"/>
    <path id="Path_14047" data-name="Path 14047" d="M1480.167,6809.066c-11.1.013-28.134-.108-37.446.012l37.4.015Z" fill-rule="evenodd"/>
    <path id="Path_14048" data-name="Path 14048" d="M1592.405,6809.125c-34.62-.1-76.65-.275-110.7,0q55.328.01,110.652.03Z" fill-rule="evenodd"/>
  </g>
</svg>
