<svg xmlns="http://www.w3.org/2000/svg" width="30.473" height="30.46" viewBox="0 0 30.473 30.46">
  <defs>
    <style>
      .cls-1 {
        fill: #00913a;
      }

      .cls-2 {
        fill: #fff;
      }
    </style>
  </defs>
  <g id="グループ_56" data-name="グループ 56" transform="translate(-983.91 -3891.784)">
    <path id="パス_128" data-name="パス 128" class="cls-1" d="M1014.289,3905.769a14.15,14.15,0,0,0-1.518-5.364,15.424,15.424,0,0,0-9.6-8.026,12.236,12.236,0,0,0-2.689-.5c-.293-.022-.586-.063-.879-.095h-.931c-.278.032-.556.071-.835.094a14.259,14.259,0,0,0-5.746,1.691,15.141,15.141,0,0,0-7.835,10.34,13.642,13.642,0,0,0-.341,3.5,14.9,14.9,0,0,0,3.564,9.388,15.131,15.131,0,0,0,8.293,5.068,14.539,14.539,0,0,0,2.671.36,15.163,15.163,0,0,0,15.53-11.71,13.319,13.319,0,0,0,.36-2.648,2.423,2.423,0,0,1,.048-.289v-.973C1014.351,3906.326,1014.312,3906.049,1014.289,3905.769Z"/>
    <path id="パス_129" data-name="パス 129" class="cls-2" d="M993.634,3906.678c.046.02.077.036.109.046a2.339,2.339,0,0,1,1.743,2.173,3.63,3.63,0,0,1-.142,1.4,2.7,2.7,0,0,1-2.394,1.889,5.356,5.356,0,0,1-.738.043c-.833.005-1.665.009-2.5,0a1.821,1.821,0,0,1-.615-.119.673.673,0,0,1-.459-.69c0-.113,0-.226,0-.339v-8.317c0-.084,0-.169,0-.254a.783.783,0,0,1,.8-.832c1.107-.006,2.216-.019,3.321.037a2.7,2.7,0,0,1,2.012.991,2.434,2.434,0,0,1-.32,3.384C994.209,3906.3,993.924,3906.472,993.634,3906.678Zm-2.842,3.83c.38,0,.738,0,1.1,0a2.945,2.945,0,0,0,.419-.044,1.321,1.321,0,0,0,1.2-1.29,1.356,1.356,0,0,0-.988-1.547,5.844,5.844,0,0,0-1.73-.119Zm-.12-4.384c.483-.033.946-.046,1.4-.1a1.553,1.553,0,0,0,.585-.226,1.177,1.177,0,0,0,.546-1.161,1.147,1.147,0,0,0-.716-1.06,4.458,4.458,0,0,0-1.818-.181Z"/>
    <path id="パス_130" data-name="パス 130" class="cls-2" d="M1003.458,3905.793c0,1.037.022,2.075-.011,3.111a5.056,5.056,0,0,1-.225,1.39,2.855,2.855,0,0,1-2.593,2.015,5.019,5.019,0,0,1-1.787-.1,2.8,2.8,0,0,1-2.233-2.512,8.493,8.493,0,0,1-.08-1.138c-.008-2,0-3.994,0-5.991a.814.814,0,0,1,.849-.918,2.2,2.2,0,0,1,.443.007.828.828,0,0,1,.807.922c0,1.94-.009,3.881.008,5.821a4.215,4.215,0,0,0,.177,1.2,1.27,1.27,0,0,0,1.613.86,1.164,1.164,0,0,0,.8-.718,3.05,3.05,0,0,0,.212-1.242v-5.969a.756.756,0,0,1,.674-.855,1.8,1.8,0,0,1,.709.013.734.734,0,0,1,.637.836q0,1.631,0,3.26Z"/>
    <path id="パス_131" data-name="パス 131" class="cls-2" d="M1007.718,3901.537a4.176,4.176,0,0,1,1.815.46.728.728,0,0,1,.418,1,2.11,2.11,0,0,1-.07.222c-.164.415-.449.687-1,.425a2.587,2.587,0,0,0-1.469-.309,1.062,1.062,0,0,0-.939.654,1,1,0,0,0,.246,1.13,4.389,4.389,0,0,0,.742.551c.48.307,1,.556,1.453.9a3.284,3.284,0,0,1,.325,4.817,3.438,3.438,0,0,1-2.5.96,4.541,4.541,0,0,1-2.027-.448,1.016,1.016,0,0,1-.162-1.738.624.624,0,0,1,.639-.045,8,8,0,0,0,1.232.36,2.2,2.2,0,0,0,.936-.064,1.036,1.036,0,0,0,.6-1.634,2.163,2.163,0,0,0-.6-.583c-.36-.246-.755-.439-1.132-.66a4.165,4.165,0,0,1-1.184-.978,3.074,3.074,0,0,1,1.755-4.89C1007.1,3901.6,1007.412,3901.578,1007.718,3901.537Z"/>
  </g>
</svg>
