<svg xmlns="http://www.w3.org/2000/svg" width="395.736" height="493.794" viewBox="0 0 395.736 493.794">
  <g id="グループ_143" data-name="グループ 143" transform="translate(-381.264 -2734.741)">
    <g id="グループ_9" data-name="グループ 9" transform="translate(1)">
      <path id="パス_5" data-name="パス 5" d="M649.619,3111.976v.075a7.425,7.425,0,0,0,7.477,7.319h0a5.375,5.375,0,0,0,5.365-5.59,49.673,49.673,0,0,1,.848-11.117A50.281,50.281,0,0,1,763,3111.976c0,.211,0,.421,0,.631a6.646,6.646,0,0,0,6.63,6.763h0a6.17,6.17,0,0,0,6.167-6.023c.01-.455.016-.913.016-1.371a63.1,63.1,0,0,0-37.459-57.651,45.44,45.44,0,1,0-51.274,0A63.1,63.1,0,0,0,649.619,3111.976Z" fill="#323333"/>
      <path id="パス_6" data-name="パス 6" d="M515.005,3111.976v.075a7.424,7.424,0,0,0,7.476,7.319h0a5.374,5.374,0,0,0,5.365-5.59,49.734,49.734,0,0,1,.848-11.117,50.281,50.281,0,0,1,99.693,9.313q0,.316,0,.631a6.646,6.646,0,0,0,6.631,6.763h0a6.169,6.169,0,0,0,6.166-6.023c.011-.455.016-.913.016-1.371a63.1,63.1,0,0,0-37.458-57.651,45.441,45.441,0,1,0-51.275,0A63.1,63.1,0,0,0,515.005,3111.976Z" fill="#323333"/>
      <path id="パス_7" data-name="パス 7" d="M641.2,2797.838a63.1,63.1,0,1,0-106.5,45.781,30.737,30.737,0,0,1,9.407,25.79,34.9,34.9,0,0,0-.071,7.433,34.23,34.23,0,0,0,68.291-3.4,34.648,34.648,0,0,0-.183-3.562,31.569,31.569,0,0,1,9.41-26.315A62.879,62.879,0,0,0,641.2,2797.838Z" fill="#323333"/>
      <path id="パス_8" data-name="パス 8" d="M573.975,2743.093c-27.518,2.112-49.814,26.17-51.893,56-1.344,19.276,12.993,34.382,23.834,47.543,5.49,6.665,8.378,17.355,8.769,26.421h47.233c-.756-9.274,1.408-18.911,7.629-25.32,10.765-11.091,24.66-26.536,24.66-43.911C634.207,2768.733,606.83,2740.571,573.975,2743.093Z" fill="#ffb71b"/>
      <path id="パス_9" data-name="パス 9" d="M605.076,2812.518a5.333,5.333,0,0,0-7.543-.059l-19.188,18.888-18.888-19.187a5.334,5.334,0,0,0-7.6,7.484l20.9,21.235c.055.056.12.094.176.146l-.316,40.328a5.334,5.334,0,1,0,10.668.084l.316-40.328c.057-.052.123-.089.178-.143l21.236-20.905A5.335,5.335,0,0,0,605.076,2812.518Z" fill="#323333"/>
      <path id="パス_10" data-name="パス 10" d="M554.434,2878.894h47.79s.014,15.851-13.36,19.636H569.812S555.362,2898.274,554.434,2878.894Z" fill="#b2b2b2"/>
      <path id="パス_11" data-name="パス 11" d="M380.39,3111.976v.075a7.425,7.425,0,0,0,7.477,7.319h0a5.376,5.376,0,0,0,5.365-5.59,49.675,49.675,0,0,1,.848-11.117,50.281,50.281,0,0,1,99.693,9.313c0,.211,0,.421,0,.631a6.645,6.645,0,0,0,6.63,6.763h0a6.17,6.17,0,0,0,6.167-6.023c.01-.455.016-.913.016-1.371a63.1,63.1,0,0,0-37.459-57.651,45.44,45.44,0,1,0-51.274,0A63.1,63.1,0,0,0,380.39,3111.976Z" fill="#323333"/>
      <circle id="楕円形_1" data-name="楕円形 1" cx="36.061" cy="36.061" r="36.061" transform="translate(407.425 2980.75)" fill="#e5e5e4"/>
      <circle id="楕円形_2" data-name="楕円形 2" cx="36.061" cy="36.061" r="36.061" transform="translate(542.404 2980.75)" fill="#e5e5e4"/>
      <circle id="楕円形_3" data-name="楕円形 3" cx="36.061" cy="36.061" r="36.061" transform="translate(542.04 2980.75)" fill="#e5e5e4"/>
      <circle id="楕円形_4" data-name="楕円形 4" cx="36.061" cy="36.061" r="36.061" transform="translate(676.654 2980.75)" fill="#e5e5e4"/>
      <path id="パス_12" data-name="パス 12" d="M443.485,3060.027c-30.172,0-55.752,26.09-55.752,58.274l111.515,1.069C499.248,3087.186,473.658,3060.027,443.485,3060.027Z" fill="#00bed6"/>
      <path id="パス_13" data-name="パス 13" d="M578.1,3060.027c-30.173,0-55.753,26.09-55.753,58.274l111.516,1.069C633.863,3087.186,608.273,3060.027,578.1,3060.027Z" fill="#ffb71b"/>
      <path id="パス_14" data-name="パス 14" d="M712.715,3060.027c-30.173,0-55.753,26.09-55.753,58.274l111.516,1.069C768.478,3087.186,742.887,3060.027,712.715,3060.027Z" fill="#00bed6"/>
      <circle id="楕円形_5" data-name="楕円形 5" cx="4.584" cy="4.584" r="4.584" transform="translate(454.003 2997.063)" fill="#323333"/>
      <circle id="楕円形_6" data-name="楕円形 6" cx="4.584" cy="4.584" r="4.584" transform="translate(560.164 2997.063)" fill="#323333"/>
      <circle id="楕円形_7" data-name="楕円形 7" cx="4.584" cy="4.584" r="4.584" transform="translate(587.326 2997.063)" fill="#323333"/>
      <circle id="楕円形_8" data-name="楕円形 8" cx="4.584" cy="4.584" r="4.584" transform="translate(693.344 2997.063)" fill="#323333"/>
      <circle id="楕円形_9" data-name="楕円形 9" cx="4.584" cy="4.584" r="4.584" transform="translate(718.45 2997.063)" fill="#323333"/>
      <circle id="楕円形_10" data-name="楕円形 10" cx="4.584" cy="4.584" r="4.584" transform="translate(428.308 2997.063)" fill="#323333"/>
      <rect id="長方形_12" data-name="長方形 12" width="10.668" height="72.812" rx="1.777" transform="translate(508.714 2904.982) rotate(45)" fill="#323333"/>
      <rect id="長方形_13" data-name="長方形 13" width="10.668" height="72.812" rx="1.777" transform="translate(639.943 2912.404) rotate(-45)" fill="#323333"/>
      <rect id="長方形_14" data-name="長方形 14" width="10.668" height="37.926" rx="1.777" transform="translate(573.131 2920.5)" fill="#323333"/>
    </g>
    <g id="グループ_14" data-name="グループ 14" transform="translate(1)">
      <g id="グループ_12" data-name="グループ 12">
        <path id="パス_18" data-name="パス 18" d="M394.857,3169.993c3.849-.151,7.847-.35,11.9-.552l-.1,2.151-11.8.6v7.249c0,1.349-.3,1.95-1.349,2.348-1.1.35-2.949.35-6.248.35a8.738,8.738,0,0,0-.8-2.049c2.55.1,4.7.1,5.3.051.649,0,.8-.2.8-.7v-7.149c-4.5.25-8.647.449-11.946.6l-.15-2.3c3.2-.1,7.4-.248,12.1-.5v-2.65a54.032,54.032,0,0,0,6.649-3.849h-16.1v-2.1H401.9l.6-.1,1.65,1.249a51.834,51.834,0,0,1-9.3,5.647Zm-1.8-32.942a27.351,27.351,0,0,1,2.849,5.1h10.947v2.2H380.911v-2.2h12.6a38.41,38.41,0,0,0-2.3-4.25Zm10.7,21.145H384.161V3148h19.594Zm-2.249-8.2H386.359v6.2h15.147Zm23.994-9.148c-2.15,4.648-5,10.447-7.549,15.245,5.6,4.7,7.048,8.749,7.1,12.4,0,2.7-.6,5-2.251,6.048a6.678,6.678,0,0,1-3.148.949,27.575,27.575,0,0,1-4.549.051,6.1,6.1,0,0,0-.7-2.3,35.3,35.3,0,0,0,4.5.1,5.6,5.6,0,0,0,2.348-.65c1.15-.7,1.549-2.4,1.549-4.3-.049-3.449-1.748-7.3-7.4-12,2.55-4.7,5.05-10.1,6.848-14.247h-11.3v40.291H408.6v-42.591H423.5l.35-.149Z" fill="#00bed6"/>
        <path id="パス_19" data-name="パス 19" d="M471.365,3178.79c1.65,0,1.85-1.45,2.049-8.347a9.751,9.751,0,0,0,2.3,1.1c-.3,7.4-.9,9.546-4.25,9.546h-6.2c-3.347,0-4.247-.9-4.247-4.347v-25.593H448.37c-.948,12.5-4.1,24.592-15.746,31.292a9.854,9.854,0,0,0-2-1.8c11.3-6.147,14.4-17.644,15.3-29.49H432.175V3148.8h13.9c.2-3.9.2-7.847.2-11.547h2.548c-.049,3.749-.049,7.648-.3,11.547h14.945v27.944c0,1.7.3,2.049,1.95,2.049Z" fill="#00bed6"/>
        <path id="パス_20" data-name="パス 20" d="M499.434,3147.847H480.84V3145.7h18.594ZM484.99,3179.24v2.5h-2.2v-16.7h14.547v14.2Zm12.3-27.144v2.05h-14.4v-2.05Zm-14.346,6.45h14.445v2.1H482.94Zm2.05,8.647v9.9h10.1v-9.9Zm5.348-22.744a38.968,38.968,0,0,0-3.9-6.55l1.95-1a38.035,38.035,0,0,1,3.948,6.35Zm32.342,15.545a32.01,32.01,0,0,1-9.4,14.3,33.612,33.612,0,0,0,12.646,5.949,8.8,8.8,0,0,0-1.548,2.149,34.829,34.829,0,0,1-12.947-6.549,40.862,40.862,0,0,1-12.846,6.649,7.446,7.446,0,0,0-1.352-2.15,37.236,37.236,0,0,0,12.4-6.1,33.567,33.567,0,0,1-8.048-12.1l1.451-.5h-4v-2.3h21.643l.45-.15ZM506.533,3144.6c0,4.3-1.25,9.5-7,13.147a10.471,10.471,0,0,0-1.548-1.75,12.49,12.49,0,0,0,6.3-11.4v-5.55H518.53v12c0,1.4.1,1.8.851,1.8h3.549a12.644,12.644,0,0,0,2-.2c.051.6.2,1.6.251,2.151a9.41,9.41,0,0,1-2.249.2h-3.649c-2.45,0-3-1-3-4.05V3141.3h-9.748Zm-2.849,17.046a30.044,30.044,0,0,0,7.8,11.095,28.138,28.138,0,0,0,8.047-11.095Z" fill="#00bed6"/>
        <path id="パス_21" data-name="パス 21" d="M551.948,3147.847H531.6V3145.7h20.345ZM533.8,3152.1h16v2.05h-16Zm15.8,8.548H533.8v-2.1h15.8Zm.2,18.6H536.453v2.5H534.3v-16.7H549.8Zm-13.346-12.047v9.9h11.1v-9.9Zm5.149-22.744a39.945,39.945,0,0,0-3.9-6.5l1.949-1a43.33,43.33,0,0,1,3.9,6.3Zm33.99,12.7H564.7v25.244h-2.4v-25.244H551.848V3154.8H562.3V3138.05h2.4V3154.8h10.9Z" fill="#00bed6"/>
        <path id="パス_22" data-name="パス 22" d="M598.465,3144.548a86.277,86.277,0,0,1-8,7.2l23.993-1.15c-2-1.7-4.2-3.3-6.2-4.7l1.85-1.2a75.448,75.448,0,0,1,12.447,10.2l-2,1.5a35.672,35.672,0,0,0-3.9-3.85c-26.393,1.4-28.644,1.551-30.042,2.049a23.281,23.281,0,0,0-.8-2.448c1-.15,2.4-1.2,4.1-2.65,1-.751,3-2.6,5.4-4.949H581.469v-2.2h15.945a71.284,71.284,0,0,0,5.1-5.9l2.351,1.149c-1.4,1.6-2.849,3.25-4.25,4.748h24.344v2.2Zm20.644,34.741c0,1.651-.45,2.351-1.8,2.75-1.349.35-3.9.35-8,.35a10.705,10.705,0,0,0-.8-2.2c3.3.15,6.247.15,7,.1.849-.049,1.1-.3,1.1-1.049v-8.048c-8.3,1.75-16.995,3.4-23.293,4.6l-.951-2.351c6-.9,15.347-2.5,24.244-4.147v-10.2H590.267v7.4c0,5.049-.9,11.6-5.949,16.146a5.55,5.55,0,0,0-1.8-1.6c4.748-4.249,5.4-10,5.4-14.595v-9.5h31.193Zm-7.848-10.5a94.332,94.332,0,0,0-19.095-5.149l.749-1.7c6.5.951,14.7,3,19.1,4.85Z" fill="#00bed6"/>
        <path id="パス_23" data-name="パス 23" d="M672.123,3153.8a53.735,53.735,0,0,1-9,16.946c2.1,5.6,4.8,8.848,7.9,8.848,1.6,0,2.249-2.649,2.6-9.449a6.451,6.451,0,0,0,2.1,1.25c-.552,8.049-1.5,10.648-4.85,10.648-4,0-7.149-3.45-9.5-9.2a47.234,47.234,0,0,1-11.547,9.247,12.216,12.216,0,0,0-1.75-1.9,41.172,41.172,0,0,0,12.347-9.9,96,96,0,0,1-3.8-21.745H637.632v7.249h13.047s-.051.849-.051,1.2c-.25,11.647-.55,15.745-1.549,17a3.324,3.324,0,0,1-2.7,1.1,52.692,52.692,0,0,1-6.1-.1,5.968,5.968,0,0,0-.752-2.251c2.6.25,5.05.25,5.9.25.749,0,1.3-.1,1.6-.5.749-.8,1-4.4,1.249-14.447H637.632v1.85c0,6.8-.751,16.246-5.3,22.693a9.815,9.815,0,0,0-1.949-1.549c4.3-6.2,4.8-14.7,4.8-21.2V3146.2h21.3q-.227-4.423-.3-9h2.448c0,3.1.1,6.1.25,9h16.446v2.348h-16.3a92.617,92.617,0,0,0,3.248,19.5,53.691,53.691,0,0,0,7.448-14.846Zm-.851-8.448a50.643,50.643,0,0,0-9.447-6.048l1.4-1.549a50.469,50.469,0,0,1,9.447,5.9Z" fill="#00bed6"/>
        <path id="パス_24" data-name="パス 24" d="M722.837,3146.2v22.494h-2.45v-3.049H704.243v16.694h-2.451v-16.694H685.646v3.3H683.3V3146.2h18.495v-9.049h2.451v9.049Zm-21.045,17.094v-14.746H685.646v14.746Zm18.6,0v-14.746H704.243v14.746Z" fill="#00bed6"/>
        <path id="パス_25" data-name="パス 25" d="M737.911,3155.546c-.9,5.448-2.649,13.8-4.9,19l-2.3-1.05c2.349-5,4.1-12.947,4.9-18.446Zm7.5-4.7v25.593c0,2.249.7,2.8,3.749,2.8h11.1c3.4,0,3.849-1.9,4.25-11a8.78,8.78,0,0,0,2.3,1.1c-.449,9.5-1.3,12.2-6.549,12.2H749.108c-4.75,0-6.15-1.05-6.15-5.149v-25.544Zm1.9-11.4a98.115,98.115,0,0,1,13.348,11.448l-1.7,1.7a97.211,97.211,0,0,0-13.246-11.647Zm21.745,14.445A88.306,88.306,0,0,1,776,3172.842l-2.349.8A88.619,88.619,0,0,0,766.9,3154.7Z" fill="#00bed6"/>
      </g>
      <g id="グループ_13" data-name="グループ 13">
        <path id="パス_26" data-name="パス 26" d="M380.264,3207.907c0-7.764,4.88-12.563,11.925-12.563a10.3,10.3,0,0,1,7.412,2.933l-1.284,1.3a8.178,8.178,0,0,0-6.091-2.432c-5.945,0-9.651,4.131-9.651,10.7,0,6.632,3.487,10.865,9.5,10.865a8.837,8.837,0,0,0,5.688-1.734v-7.3h-6.2v-1.7H399.9v9.764a11.464,11.464,0,0,1-8.036,2.766C384.961,3220.5,380.264,3215.671,380.264,3207.907Z" fill="#ffb71b"/>
        <path id="パス_27" data-name="パス 27" d="M405.863,3207.84c0-7.7,4.624-12.5,11.081-12.5,6.533,0,11.12,4.8,11.12,12.5,0,7.731-4.587,12.664-11.12,12.664C410.487,3220.5,405.863,3215.571,405.863,3207.84Zm19.925,0c0-6.6-3.522-10.7-8.844-10.7-5.283,0-8.769,4.1-8.769,10.7s3.486,10.865,8.769,10.865C422.266,3218.705,425.788,3214.439,425.788,3207.84Z" fill="#ffb71b"/>
        <path id="パス_28" data-name="パス 28" d="M434.729,3216.9a6.279,6.279,0,0,0,4.66,1.933c3.706,0,7.046-2.932,7.265-11.329a8.987,8.987,0,0,1-6.53,3.232c-4.477,0-7.231-2.7-7.231-7.632,0-4.565,3.34-7.764,7.231-7.764,5.173,0,8.622,3.932,8.622,11.262,0,10.233-4.513,13.9-9.394,13.9a8.188,8.188,0,0,1-5.907-2.332Zm11.889-11.3c-.22-5.3-2.349-8.663-6.531-8.663-2.9,0-5.065,2.631-5.065,6.164,0,3.5,1.652,6.065,5.358,6.065C442.362,3209.173,444.6,3208.141,446.618,3205.607Z" fill="#ffb71b"/>
        <path id="パス_29" data-name="パス 29" d="M464.693,3195.777h6.313c8.22,0,12.256,4.632,12.256,12.063s-4.036,12.23-12.219,12.23h-6.35Zm6.091,22.594c7.046,0,10.166-4.233,10.166-10.531s-3.12-10.4-10.166-10.4h-3.889v20.929Z" fill="#ffb71b"/>
        <path id="パス_30" data-name="パス 30" d="M488.423,3211.206c0-5.766,4.145-9.364,8.586-9.364,4.733,0,7.558,3.065,7.558,8.265a8.327,8.327,0,0,1-.11,1.4H490.588c.11,4.331,2.935,7.363,7.155,7.363a9.344,9.344,0,0,0,5.21-1.533l.808,1.433a11.705,11.705,0,0,1-6.239,1.734C492.495,3220.5,488.423,3217.038,488.423,3211.206Zm14.2-1.233c0-4.3-2.166-6.464-5.579-6.464-3.193,0-6.054,2.4-6.457,6.464Z" fill="#ffb71b"/>
        <path id="パス_31" data-name="パス 31" d="M508.3,3218.072l1.138-1.4a9.466,9.466,0,0,0,6.164,2.232c2.974,0,4.478-1.532,4.478-3.366,0-2.1-2.459-3.066-4.734-3.8-2.9-.932-6.128-2.033-6.128-5.1,0-2.6,2.312-4.8,6.421-4.8a10.029,10.029,0,0,1,5.688,1.9l-1.1,1.333a7.955,7.955,0,0,0-4.66-1.6c-2.9,0-4.219,1.468-4.219,3.067,0,1.966,2.275,2.7,4.551,3.466,3.007,1.032,6.31,2,6.31,5.432,0,2.733-2.385,5.065-6.716,5.065A12.175,12.175,0,0,1,508.3,3218.072Z" fill="#ffb71b"/>
        <path id="パス_32" data-name="パス 32" d="M527.484,3196.61a1.636,1.636,0,0,1,1.8-1.6,1.581,1.581,0,1,1-1.8,1.6Zm.7,5.7h2.129v17.762H528.18Z" fill="#ffb71b"/>
        <path id="パス_33" data-name="パス 33" d="M536.874,3223.668c0-1.564,1.138-3.131,2.935-4.23v-.167a3.146,3.146,0,0,1-1.761-2.866,4.381,4.381,0,0,1,2.166-3.3v-.134a6.218,6.218,0,0,1-2.5-4.831c0-3.7,3.156-6.3,7.009-6.3a7.61,7.61,0,0,1,2.607.466h6.677v1.6h-4.4a5.444,5.444,0,0,1,2.017,4.265c0,3.665-3.045,6.266-6.9,6.266a7.115,7.115,0,0,1-3.155-.734,3.012,3.012,0,0,0-1.542,2.466c0,1.266.844,2.233,3.671,2.233h4.109c4.44,0,6.532,1.268,6.532,4.1,0,3.1-3.671,6.033-9.394,6.033C540.065,3228.535,536.874,3226.668,536.874,3223.668Zm15.339-.9c0-1.9-1.543-2.6-4.441-2.6h-4a15.164,15.164,0,0,1-2.46-.3c-1.687,1.066-2.422,2.365-2.422,3.565,0,2.166,2.312,3.633,6.313,3.633C549.459,3227.069,552.213,3224.9,552.213,3222.769Zm-2.642-14.628a4.864,4.864,0,0,0-9.725,0,4.863,4.863,0,0,0,9.725,0Z" fill="#ffb71b"/>
        <path id="パス_34" data-name="パス 34" d="M559.356,3202.308h1.762l.257,2.7h.073c1.982-1.765,4-3.165,6.679-3.165,4.073,0,5.945,2.3,5.945,6.864v11.364h-2.129v-11.1c0-3.7-1.284-5.4-4.294-5.4-2.275,0-3.889,1.066-6.164,3.2v13.3h-2.129Z" fill="#ffb71b"/>
        <path id="パス_35" data-name="パス 35" d="M589.614,3207.907c0-7.764,4.733-12.563,11.522-12.563a9.654,9.654,0,0,1,7.046,2.933l-1.248,1.3a7.852,7.852,0,0,0-5.8-2.432c-5.651,0-9.21,4.131-9.21,10.7,0,6.632,3.486,10.865,9.1,10.865a8.9,8.9,0,0,0,6.64-2.932l1.248,1.265a10.431,10.431,0,0,1-8,3.466C594.311,3220.5,589.614,3215.671,589.614,3207.907Z" fill="#ffb71b"/>
        <path id="パス_36" data-name="パス 36" d="M613.382,3211.206c0-5.766,4.145-9.364,8.586-9.364,4.733,0,7.558,3.065,7.558,8.265a8.33,8.33,0,0,1-.11,1.4H615.547c.11,4.331,2.935,7.363,7.155,7.363a9.346,9.346,0,0,0,5.21-1.533l.808,1.433a11.706,11.706,0,0,1-6.24,1.734C617.454,3220.5,613.382,3217.038,613.382,3211.206Zm14.2-1.233c0-4.3-2.166-6.464-5.579-6.464-3.193,0-6.054,2.4-6.457,6.464Z" fill="#ffb71b"/>
        <path id="パス_37" data-name="パス 37" d="M635.644,3202.308h1.762l.256,2.7h.074c1.982-1.765,4-3.165,6.679-3.165,4.072,0,5.944,2.3,5.944,6.864v11.364h-2.128v-11.1c0-3.7-1.284-5.4-4.3-5.4-2.275,0-3.888,1.066-6.164,3.2v13.3h-2.128Z" fill="#ffb71b"/>
        <path id="パス_38" data-name="パス 38" d="M658.789,3215V3203.94h-3.047v-1.465l3.12-.167.256-5.132h1.8v5.132h5.615v1.632h-5.615v11.2c0,2.235.662,3.7,3.267,3.7a7.377,7.377,0,0,0,2.385-.5l.515,1.5a11.944,11.944,0,0,1-3.267.668C659.963,3220.5,658.789,3218.3,658.789,3215Z" fill="#ffb71b"/>
        <path id="パス_39" data-name="パス 39" d="M670.047,3211.206c0-5.766,4.145-9.364,8.586-9.364,4.733,0,7.558,3.065,7.558,8.265a8.324,8.324,0,0,1-.11,1.4H672.212c.11,4.331,2.935,7.363,7.156,7.363a9.343,9.343,0,0,0,5.209-1.533l.808,1.433a11.706,11.706,0,0,1-6.239,1.734C674.119,3220.5,670.047,3217.038,670.047,3211.206Zm14.2-1.233c0-4.3-2.166-6.464-5.579-6.464-3.192,0-6.054,2.4-6.457,6.464Z" fill="#ffb71b"/>
        <path id="パス_40" data-name="パス 40" d="M692.309,3202.308h1.762l.257,3.3h.073c1.321-2.232,3.266-3.765,5.541-3.765a4.283,4.283,0,0,1,1.981.4l-.44,1.734a4.5,4.5,0,0,0-1.8-.3c-1.724,0-3.816,1.166-5.247,4.465v11.929h-2.128Z" fill="#ffb71b"/>
      </g>
    </g>
  </g>
</svg>
