<svg xmlns="http://www.w3.org/2000/svg" width="309.334" height="387.952" viewBox="0 0 309.334 387.952">
  <g id="グループ_8" data-name="グループ 8" transform="translate(-1103.666 -1992.238)">
    <g id="グループ_7" data-name="グループ 7">
      <path id="パス_1" data-name="パス 1" d="M1140.7,2157.377a2.485,2.485,0,0,0,.139-2.45c-7.571-14.962-14.389-25.679-8.687-43.019,12.946-39.365,29.054-79.393,67.936-99.358,34.781-17.86,77.186-17.186,113.7-5.165,42.4,13.959,78.208,50.3,89.536,93.742,7.307,28.023,1.344,57.422-9.621,83.644-6.6,15.79-16.126,29.951-25.247,44.343-7.761,12.245-18.2,24.963-20.761,39.57-3.977,22.695,11.108,49.584,23.952,67.323,4.508,6.225,15.459,24.926,25.624,33.44a2.434,2.434,0,0,1-1.561,4.306H1198.047c19.66,0,29.606-32.531,26.827-46.929-2.588-13.407-16.627-11.024-26.6-8.335-10.677,2.878-21.608,6.038-32.783,4.733-8.633-1.008-21.217-4.5-23.859-14.121a2.531,2.531,0,0,1-.01-1.232l5.68-24.344a2.4,2.4,0,0,0-.452-2.068c-4.223-5.234-11.176-11.59-13.286-17.533-2.927-8.249,7.9-29.6,1.8-35.066-2.479-2.218-26.459.7-25.212-7.4C1110.15,2221.456,1113.567,2199.25,1140.7,2157.377Z" fill="#ffb71b"/>
      <path id="パス_2" data-name="パス 2" d="M1395.714,2380.19H1198.047v-12.875c3.9,0,7.61-2.094,11.017-6.223,7.361-8.919,11.081-24.8,9.489-33.048-.526-2.73-1.578-3.664-2.323-4.13-2.67-1.668-8.146-1.4-16.279.79l-1.437.389c-10.751,2.907-21.866,5.915-33.768,4.523-15.858-1.852-26.545-8.708-29.321-18.81a8.96,8.96,0,0,1-.068-4.412l5.225-22.4c-.778-.9-1.631-1.85-2.515-2.834-4.041-4.5-8.62-9.6-10.569-15.087-1.935-5.452-.329-12.481,1.372-19.922.748-3.271,2.037-8.911,1.98-11.75-1.169-.092-2.628-.167-3.827-.227-8.343-.423-16.971-.861-21.182-6.029a9.666,9.666,0,0,1-2.054-7.67l.014,0c.781-5.541,7.034-28.385,30.263-64.682l-.794-1.548c-6.84-13.311-13.3-25.885-7.228-44.355,12.743-38.747,29.8-81.86,71.111-103.074,33.644-17.278,76.89-19.3,118.653-5.553,45.278,14.907,82.078,53.466,93.753,98.233,6.825,26.177,3.49,55.7-9.912,87.751-6.012,14.379-14.35,27.44-22.414,40.07q-1.67,2.616-3.334,5.236c-1.64,2.587-3.409,5.215-5.12,7.756-6.361,9.447-12.94,19.217-14.738,29.48-3.8,21.655,12.672,48.412,22.826,62.435,1.122,1.55,2.554,3.725,4.213,6.244,5.268,8,13.229,20.089,20.329,26.036a8.871,8.871,0,0,1-5.694,15.679Zm-175.188-12.875h165.58c-6.037-6.964-11.669-15.516-15.781-21.759-1.574-2.39-2.934-4.456-3.889-5.774-13.859-19.14-29.46-47.206-25.078-72.209,2.271-12.959,9.958-24.376,16.74-34.448,1.738-2.583,3.38-5.021,4.924-7.457q1.672-2.64,3.357-5.273c8.128-12.73,15.8-24.755,21.389-38.108,12.289-29.39,15.428-56.15,9.331-79.535-10.6-40.644-44.09-75.677-85.321-89.251-38.507-12.679-78.143-10.939-108.744,4.776-36.98,18.989-52.27,57.66-64.761,95.642-4.392,13.354-.079,21.746,6.448,34.449q.92,1.79,1.867,3.653a8.932,8.932,0,0,1-.478,8.855l0,0c-21.094,32.546-27.457,52.892-29.1,59.355a71.314,71.314,0,0,0,10.663,1.085c6.1.309,9.454.48,11.982,2.744,6.2,5.551,3.946,15.418,1.765,24.96-.925,4.048-2.473,10.823-1.79,12.748,1.1,3.089,4.771,7.179,8.013,10.789,1.509,1.68,2.935,3.266,4.217,4.856a8.8,8.8,0,0,1,1.712,7.571l-5.429,23.265c2.172,5,10.619,7.7,18.095,8.576,9.437,1.1,18.9-1.456,28.912-4.165l1.448-.39c8.227-2.218,18.67-4.14,26.452.721,2.962,1.85,6.779,5.54,8.144,12.609C1233.258,2336.293,1229.72,2354.762,1220.526,2367.315ZM1135.3,2153.878l0,0,0-.005Z" fill="#323333"/>
    </g>
    <path id="パス_3" data-name="パス 3" d="M1348.532,2098.469c.011-.449.068-.887.068-1.339a52.923,52.923,0,0,0-3.987-20.165l10.4-6.238-10.5-16.5-10.566,6.332a53.141,53.141,0,0,0-17.978-12.447l2.937-11.748-19.091-4.242-2.995,11.952c-.45-.011-.887-.068-1.339-.068a52.926,52.926,0,0,0-20.166,3.987l-6.237-10.4-16.5,10.5,6.332,10.566a53.173,53.173,0,0,0-12.447,17.977l-11.747-2.936-4.243,19.091,11.952,3c-.011.449-.067.887-.067,1.339a52.932,52.932,0,0,0,3.987,20.166l-10.4,6.237,10.5,16.5,10.566-6.331a53.168,53.168,0,0,0,17.977,12.447l-2.937,11.747,19.092,4.243,2.995-11.952c.449.011.887.067,1.339.067a52.927,52.927,0,0,0,20.165-3.987l6.238,10.4,16.5-10.5-6.332-10.566a53.15,53.15,0,0,0,12.447-17.977l11.748,2.937,4.242-19.092Zm-53.055,34.354a35.693,35.693,0,1,1,35.692-35.693A35.693,35.693,0,0,1,1295.477,2132.823Z" fill="#00bed6"/>
    <path id="パス_4" data-name="パス 4" d="M1341.847,2202.944c.07-.217.159-.422.223-.642a26.808,26.808,0,0,0,.92-10.377l5.943-1.56-2.768-9.517-6.039,1.582a26.955,26.955,0,0,0-6.981-8.6l3.095-5.3-8.687-4.772-3.152,5.391c-.217-.07-.422-.159-.642-.223a26.824,26.824,0,0,0-10.377-.921l-1.56-5.942-9.516,2.768,1.582,6.039a26.944,26.944,0,0,0-8.606,6.981l-5.3-3.095-4.772,8.687,5.39,3.152c-.069.217-.159.422-.223.642a26.824,26.824,0,0,0-.92,10.376l-5.943,1.561,2.769,9.516,6.038-1.582a26.934,26.934,0,0,0,6.981,8.6l-3.095,5.3,8.687,4.772,3.152-5.39c.217.069.422.159.642.223a26.829,26.829,0,0,0,10.377.92l1.56,5.943,9.516-2.769-1.581-6.038a26.953,26.953,0,0,0,8.6-6.981l5.3,3.095,4.771-8.687Zm-30.685,9.188a18.088,18.088,0,1,1,22.428-12.3A18.088,18.088,0,0,1,1311.162,2212.132Z" fill="#00bed6"/>
  </g>
</svg>
