<svg id="コンポーネント_24_1" data-name="コンポーネント 24 – 1" xmlns="http://www.w3.org/2000/svg" width="33.621" height="125.686" viewBox="0 0 33.621 125.686">
  <path id="パス_116" data-name="パス 116" d="M961.479,1676.676a1.582,1.582,0,0,0-2.577,0c-1.59,2.284-15.523,22.558-15.523,31.214a16.81,16.81,0,0,0,33.621,0c0-8.656-13.933-28.93-15.521-31.212Zm-1.328,41.812a2.313,2.313,0,0,1-2.269,1.889,2.42,2.42,0,0,1-.424-.038c-8.036-1.492-10.293-9.448-10.363-13.444a2.309,2.309,0,0,1,2.269-2.35.291.291,0,0,1,.043,0,2.312,2.312,0,0,1,2.309,2.261c.007.334.276,7.821,6.584,8.989a2.313,2.313,0,0,1,1.851,2.7Zm0,0" transform="translate(-943.379 -1676.011)" opacity="0.1"/>
  <path id="パス_117" data-name="パス 117" d="M961.479,1714.676a1.582,1.582,0,0,0-2.577,0c-1.59,2.284-15.523,22.558-15.523,31.214a16.81,16.81,0,0,0,33.621,0c0-8.656-13.933-28.93-15.521-31.212Zm-1.328,41.812a2.313,2.313,0,0,1-2.269,1.889,2.42,2.42,0,0,1-.424-.038c-8.036-1.492-10.293-9.448-10.363-13.444a2.309,2.309,0,0,1,2.269-2.35.291.291,0,0,1,.043,0,2.312,2.312,0,0,1,2.309,2.261c.007.334.276,7.821,6.584,8.989a2.313,2.313,0,0,1,1.851,2.7Zm0,0" transform="translate(-943.379 -1676.011)" opacity="0.5"/>
  <path id="パス_118" data-name="パス 118" d="M961.479,1753.676a1.582,1.582,0,0,0-2.577,0c-1.59,2.284-15.523,22.558-15.523,31.214a16.81,16.81,0,0,0,33.621,0c0-8.656-13.933-28.93-15.521-31.212Zm-1.328,41.812a2.313,2.313,0,0,1-2.269,1.889,2.42,2.42,0,0,1-.424-.038c-8.036-1.492-10.293-9.448-10.363-13.444a2.309,2.309,0,0,1,2.269-2.35.291.291,0,0,1,.043,0,2.312,2.312,0,0,1,2.309,2.261c.007.334.276,7.821,6.584,8.989a2.313,2.313,0,0,1,1.851,2.7Zm0,0" transform="translate(-943.379 -1676.011)"/>
</svg>
