<svg id="コンポーネント_30_1" data-name="コンポーネント 30 – 1" xmlns="http://www.w3.org/2000/svg" xmlns:xlink="http://www.w3.org/1999/xlink" width="776.698" height="411.907" viewBox="0 0 776.698 411.907">
  <defs>
    <clipPath id="clip-path">
      <rect id="長方形_17" data-name="長方形 17" width="175.651" height="132.272" transform="translate(243.022 3733.542)" fill="none"/>
    </clipPath>
    <clipPath id="clip-path-2">
      <rect id="長方形_18" data-name="長方形 18" width="52.122" height="68.202" transform="translate(554.203 3976.339)" fill="none"/>
    </clipPath>
    <clipPath id="clip-path-3">
      <rect id="長方形_22" data-name="長方形 22" width="93.3" height="83.564" transform="translate(749.356 3808.402)" fill="none"/>
    </clipPath>
    <clipPath id="clip-path-4">
      <rect id="長方形_23" data-name="長方形 23" width="41.604" height="79.817" transform="translate(550.283 3848.477)" fill="none"/>
    </clipPath>
    <clipPath id="clip-path-5">
      <rect id="長方形_25" data-name="長方形 25" width="53.361" height="55.598" transform="translate(606.744 3871.323)" fill="none"/>
    </clipPath>
    <clipPath id="clip-path-6">
      <rect id="長方形_26" data-name="長方形 26" width="10.01" height="36.594" transform="translate(594.661 3890.884)" fill="none"/>
    </clipPath>
    <clipPath id="clip-path-7">
      <rect id="長方形_27" data-name="長方形 27" width="39.26" height="36.171" transform="translate(447.541 3891.349)" fill="none"/>
    </clipPath>
    <clipPath id="clip-path-8">
      <rect id="長方形_28" data-name="長方形 28" width="37.626" height="34.67" transform="translate(445.031 3976.418)" fill="none"/>
    </clipPath>
    <clipPath id="clip-path-9">
      <rect id="長方形_29" data-name="長方形 29" width="58.473" height="43.22" transform="translate(487.612 3976.008)" fill="none"/>
    </clipPath>
    <clipPath id="clip-path-10">
      <rect id="長方形_30" data-name="長方形 30" width="64.2" height="59.061" transform="translate(336.48 3975.71)" fill="none"/>
    </clipPath>
    <clipPath id="clip-path-11">
      <rect id="長方形_32" data-name="長方形 32" width="35.545" height="10.786" transform="translate(363.536 3912.927)" fill="none"/>
    </clipPath>
    <clipPath id="clip-path-12">
      <rect id="長方形_34" data-name="長方形 34" width="26.29" height="7.791" transform="translate(575.413 3876.03)" fill="none"/>
    </clipPath>
  </defs>
  <path id="パス_41" data-name="パス 41" d="M897.415,3670.728v69.134H721.4l8.943-68.891-34.745-.243-10.006,67.726H578.507l-6.538-30.506H481.461l-60.624,224.971H141.3v34.544H248.936l32.836,115.172H301.42l-29.6-115.172H409.018v115.172h30.875V3967.463H656.024v115.172h36.79V3967.463h204.6v115.169H918v-411.9Zm-214.552,79.426-1.429,9.678-96.309,13.031-6.453-22.709Zm-190.9-29.528,67.736-.43,15.8,65.512-35.229,37.315-77.5,4.332Zm-30.935,122.186,82.541-4.708,57.662-56,78.413-10.12-23.778,160.935H435.8Zm435.391,90.107H695.334l22.324-171.937H896.415v171.937Z" transform="translate(-141.302 -3670.728)" fill="#aaa9a9"/>
  <path id="パス_42" data-name="パス 42" d="M732.386,3886.072c-3.692-.355-7.3,1.424-10.975.676a36.823,36.823,0,0,0-6.573-.939c-1-.023-.709-.655-.637-1.168q1.956-14.181,3.929-28.36,2.266-16.464,4.533-32.929c1.3-9.372,2.66-18.737,3.974-28.109.172-1.228.587-1.839,2.03-1.711s2.511-.5,2.156-2.315c-.1-.539.137-1.141.058-1.691-.273-1.837.489-2.38,2.293-2.356,6.215.082,12.433.015,18.646.018,7.028,0,14.05.1,21.074-.014,2.158-.033,3.081.184,2.958,2.807-.265,5.636-.073,11.3.056,16.945.028,1.188-.185,1.492-1.374,1.489-14.209-.025-28.416.021-42.626-.024-1.6-.006-2.341.151-2.253,2.074.175,3.868.048,7.749.015,11.624-.01,1.328-.013,2.442,1.9,2.217,1.285-.15,1.743.647,1.743,2-.021,13.966.025,27.933.047,41.9q.018,8.112-.008,16.225C733.353,3885.108,733.911,3886.215,732.386,3886.072Z" transform="translate(-141.302 -3670.728)" fill="#00bed6" fill-rule="evenodd" opacity="0.27"/>
  <path id="パス_43" data-name="パス 43" d="M876.719,3849.344c1.233-.09,1.087-1.253,1.081-2.166-.057-9.767-.159-19.534-.241-29.3-.031-3.874-.041-7.751-.051-11.624-.005-1.27.506-1.93,1.919-1.856a31.042,31.042,0,0,0,5.564-.024c1.849-.241,1.932.748,1.941,2.047.03,3.874.058,7.747.1,11.622.016,1.256-.274,2.6,1.568,3.043.946.225.453,1.27.457,1.932q.191,18.765.322,37.531.122,17.556.22,35.115c.02,4.277,0,8.555,0,12.833,0,.513.36,1.357-.523,1.322-4.445-.174-8.852,2.939-13.329.16a2.207,2.207,0,0,0-.948-.078c-3.235-.121-3.128-.119-3.143-3.427-.057-12.752-.2-25.509-.278-38.263-.01-1.793-.691-2.657-2.6-2.552-2.814.152-5.646.067-8.46.252-2.1.134-1.451-1.462-1.47-2.325-.126-6.21-.135-12.425-.156-18.641-.025-7.265.043-14.532-.077-21.8-.029-1.723.614-2.145,2.091-2.065.646.033,1.3-.107,1.934-.024,1.7.223,2.1-.657,2.084-2.141-.043-4.279,0-8.558-.028-12.835-.006-.76-.245-1.4.995-1.38,1.18.014,1.084.737,1.093,1.417q.09,7.867.123,15.737c.005,1.246-.655,1.5-1.888,1.525-4.19.082-4.271.159-4.321,4.4-.083,6.62-.005,13.241-.059,19.861-.011,1.212.361,1.912,1.585,1.915,4.52.014,9.042-.01,13.562-.03A5.933,5.933,0,0,0,876.719,3849.344Z" transform="translate(-141.302 -3670.728)" fill="#00bed6" fill-rule="evenodd" opacity="0.27"/>
  <path id="パス_44" data-name="パス 44" d="M783.277,3787.287q9.443-.024,18.887-.044,6.9-.014,13.807-.012c.557,0,1.448.218,1.455-.438.015-2.353,1.786-1.751,2.95-1.756,22.2-.072,44.406-.066,66.61-.152,1.3-.006,1.714.214,1.709,1.521-.025,5-.022,10.012.11,15.015.042,1.567-.44,1.934-1.945,1.89-2.9-.082-5.821.186-8.715.076-1.508-.057-1.687.41-1.674,1.768.107,11.141.119,22.282.171,33.423.013,2.664.064,5.329.091,7.99.016,1.172-.143,1.961-1.742,1.9-3.547-.132-7.1-.051-10.656.009-1.785.027-2.574-.493-2.538-2.53.1-6.536-.011-13.077-.078-19.615-.014-1.471.545-1.857,2.039-1.87,4.267-.037,4.254-.134,4.2-4.461-.063-4.763-.212-9.529-.1-14.288.047-1.835-.548-2.114-2.193-2.109-12.6.037-25.19-.074-37.789-.04-14.613.04-29.225.172-43.835.3-1.061.008-1.671-.065-1.67-1.378.012-4.681-.033-9.364-.17-14.045C782.173,3787.467,782.532,3787.338,783.277,3787.287Z" transform="translate(-141.302 -3670.728)" fill="#00bed6" fill-rule="evenodd" opacity="0.27"/>
  <g id="グループ_17" data-name="グループ 17" transform="translate(-141.302 -3670.728)" opacity="0.27">
    <g id="グループ_16" data-name="グループ 16">
      <g id="グループ_15" data-name="グループ 15" clip-path="url(#clip-path)">
        <rect id="長方形_16" data-name="長方形 16" width="175.651" height="132.272" transform="translate(243.024 3733.542)" fill="#00bed6"/>
      </g>
    </g>
  </g>
  <g id="グループ_20" data-name="グループ 20" transform="translate(-141.302 -3670.728)" opacity="0.27">
    <g id="グループ_19" data-name="グループ 19">
      <g id="グループ_18" data-name="グループ 18" clip-path="url(#clip-path-2)">
        <path id="パス_45" data-name="パス 45" d="M560.258,3976.336h46.067v68.2h-30.68v-21.649l-21.442-1.084v-45.469Z" fill="#00bed6"/>
      </g>
    </g>
  </g>
  <g id="グループ_23" data-name="グループ 23" transform="translate(-141.302 -3670.728)" opacity="0.27">
    <g id="グループ_22" data-name="グループ 22">
      <g id="グループ_21" data-name="グループ 21" clip-path="url(#clip-path-3)">
        <path id="パス_46" data-name="パス 46" d="M749.356,3824.158v56.593h37.218v3.058H805.95v-2.549h36.706v-57.1Zm36.2,39.258H763.632v-26h21.923Zm43.589.254H807.223v-26h21.921Z" fill="#00bed6"/>
        <rect id="長方形_19" data-name="長方形 19" width="13.256" height="8.157" transform="translate(790.18 3883.809)" fill="#00bed6"/>
        <rect id="長方形_20" data-name="長方形 20" width="31.101" height="5.1" transform="translate(781.002 3820.843)" fill="#00bed6"/>
        <rect id="長方形_21" data-name="長方形 21" width="16.268" height="16.265" transform="translate(788.441 3808.402)" fill="#00bed6"/>
      </g>
    </g>
  </g>
  <g id="グループ_26" data-name="グループ 26" transform="translate(-141.302 -3670.728)" opacity="0.27">
    <g id="グループ_25" data-name="グループ 25">
      <g id="グループ_24" data-name="グループ 24" clip-path="url(#clip-path-4)">
        <path id="パス_47" data-name="パス 47" d="M550.284,3854.47h7.026v-5.993h8.75V3899.5h8.333V3887.9l17.5.469v39.927h-41.6Z" fill="#00bed6"/>
      </g>
    </g>
  </g>
  <rect id="長方形_24" data-name="長方形 24" width="58.267" height="64.547" transform="translate(347.632 192.11)" fill="#ffb71b"/>
  <g id="グループ_29" data-name="グループ 29" transform="translate(-141.302 -3670.728)" opacity="0.27">
    <g id="グループ_28" data-name="グループ 28">
      <g id="グループ_27" data-name="グループ 27" clip-path="url(#clip-path-5)">
        <path id="パス_48" data-name="パス 48" d="M606.744,3903.6h10.544l8.308-6.708v-19.172h8.188v-6.391H660.1l-5.433,29.433-20.887,21.37-14.578,4.793H606.744Z" fill="#00bed6"/>
      </g>
    </g>
  </g>
  <g id="グループ_32" data-name="グループ 32" transform="translate(-141.302 -3670.728)" opacity="0.27">
    <g id="グループ_31" data-name="グループ 31">
      <g id="グループ_30" data-name="グループ 30" clip-path="url(#clip-path-6)">
        <path id="パス_49" data-name="パス 49" d="M594.659,3904v23.481H604.67v-36.6h-6.558v12.772Z" fill="#00bed6"/>
      </g>
    </g>
  </g>
  <g id="グループ_35" data-name="グループ 35" transform="translate(-141.302 -3670.728)" opacity="0.27">
    <g id="グループ_34" data-name="グループ 34">
      <g id="グループ_33" data-name="グループ 33" clip-path="url(#clip-path-7)">
        <path id="パス_50" data-name="パス 50" d="M486.8,3927.52v-31.379H460.334v-4.792h-7.5v6.616h-5.293v23.819l10.145.442-.441,5.293Z" fill="#00bed6"/>
      </g>
    </g>
  </g>
  <g id="グループ_38" data-name="グループ 38" transform="translate(-141.302 -3670.728)" opacity="0.27">
    <g id="グループ_37" data-name="グループ 37">
      <g id="グループ_36" data-name="グループ 36" clip-path="url(#clip-path-8)">
        <path id="パス_51" data-name="パス 51" d="M482.656,4011.086v-30.07H457.29v-4.594H450.1v6.339H445.03v22.83l9.724.422-.423,5.073Z" fill="#00bed6"/>
      </g>
    </g>
  </g>
  <g id="グループ_41" data-name="グループ 41" transform="translate(-141.302 -3670.728)" opacity="0.27">
    <g id="グループ_40" data-name="グループ 40">
      <g id="グループ_39" data-name="グループ 39" clip-path="url(#clip-path-9)">
        <path id="パス_52" data-name="パス 52" d="M487.613,3976.008h58.472v35.042H529.728l-1.026,8.178H487.613Z" fill="#00bed6"/>
      </g>
    </g>
  </g>
  <g id="グループ_44" data-name="グループ 44" transform="translate(-141.302 -3670.728)" opacity="0.27">
    <g id="グループ_43" data-name="グループ 43">
      <g id="グループ_42" data-name="グループ 42" clip-path="url(#clip-path-10)">
        <path id="パス_53" data-name="パス 53" d="M336.48,3979.817h11.813v-4.107H400.68v24.137H394.8v14.382h5.884v20.542H346.752V4028.1H336.48v-15.408h4.109v-4.11H336.48Z" fill="#00bed6"/>
      </g>
    </g>
  </g>
  <g id="グループ_47" data-name="グループ 47" transform="translate(-141.302 -3670.728)" opacity="0.27">
    <g id="グループ_46" data-name="グループ 46">
      <g id="グループ_45" data-name="グループ 45" clip-path="url(#clip-path-11)">
        <rect id="長方形_31" data-name="長方形 31" width="35.545" height="10.786" transform="translate(363.536 3912.927)" fill="#00bed6"/>
      </g>
    </g>
  </g>
  <g id="グループ_50" data-name="グループ 50" transform="translate(-141.302 -3670.728)" opacity="0.27">
    <g id="グループ_49" data-name="グループ 49">
      <g id="グループ_48" data-name="グループ 48" clip-path="url(#clip-path-12)">
        <rect id="長方形_33" data-name="長方形 33" width="26.288" height="7.791" transform="translate(575.413 3876.03)" fill="#00bed6"/>
      </g>
    </g>
  </g>
  <rect id="長方形_35" data-name="長方形 35" width="120.187" height="63.885" transform="translate(130.652 96.123)" fill="none" stroke="#fff" stroke-miterlimit="10" stroke-width="1"/>
  <rect id="長方形_36" data-name="長方形 36" width="65.775" height="38.926" transform="translate(156.718 108.602)" fill="none" stroke="#fff" stroke-miterlimit="10" stroke-width="0.5"/>
  <path id="パス_54" data-name="パス 54" d="M672.789,3791.236l-4.2,22.349H644.6l5.585-22.349Z" transform="translate(-141.302 -3670.728)" fill="#00bed6" opacity="0.27"/>
  <path id="パス_55" data-name="パス 55" d="M645.858,3818h22.386l-4.04,20.382h-22Z" transform="translate(-141.302 -3670.728)" fill="#00bed6" fill-rule="evenodd" opacity="0.27"/>
  <path id="パス_56" data-name="パス 56" d="M247.364,3956.112a15.523,15.523,0,0,0,2.213-4.427l1.182.464a19.9,19.9,0,0,1-2.141,4.577Zm7.729-7.054-6.043-.017.018-5.825,6.043.022.008-2.2,1.35.006-.008,2.2,6.152.019-.019,5.823-6.151-.021-.007,1.866-.98,0a22.456,22.456,0,0,1,2.764,2.356l-1.093.864a20.19,20.19,0,0,0-3-2.669l.963-.684Zm.005-1.237.01-3.346-4.713-.012-.011,3.344Zm3.038,8.418c.924,0,1.073-.314,1.172-2.381a4.57,4.57,0,0,0,1.311.56c-.193,2.494-.639,3.138-2.375,3.132l-3.789-.012c-2.014-.005-2.53-.43-2.526-1.949l.015-3.97,1.4,0-.012,3.955c0,.536.183.647,1.236.651Zm-1.68-11.758-.01,3.343,4.8.018.01-3.346Zm4.837,7.15a33.632,33.632,0,0,1,2.758,4.183l-1.24.681a28.7,28.7,0,0,0-2.722-4.277Z" transform="translate(-141.302 -3670.728)" fill="#fff"/>
  <path id="パス_57" data-name="パス 57" d="M275.953,3947.463c-.815.572-1.667,1.123-2.519,1.637l5.433.018.3-.072.884.741a21.141,21.141,0,0,1-4.571,2.518l0,.388,6.855.021-.005,1.219-6.854-.021-.009,2.495c0,.755-.188,1.087-.8,1.291a11.858,11.858,0,0,1-3.124.211,4.506,4.506,0,0,0-.514-1.24c1.219.039,2.366.044,2.7.027.3-.018.389-.075.39-.334l.008-2.456-6.671-.021,0-1.219,6.672.021,0-.923a16.343,16.343,0,0,0,3.2-1.524l-5.894-.017a41.3,41.3,0,0,1-4.813,2.146,6.082,6.082,0,0,0-.9-1.093,38.663,38.663,0,0,0,8.013-3.818l-7.669-.025.005-1.222,6.337.021.007-1.919-4.767-.019,0-1.2,4.767.018.008-2.035,1.348.006,0,2.035,4.138.011,0,1.2a23.751,23.751,0,0,0,2.41-2.525l1.144.669a27.008,27.008,0,0,1-3.893,3.777l4.972.017-.005,1.219Zm-.441-1.222a27.623,27.623,0,0,0,2.391-1.911l-4.14-.015-.006,1.924Z" transform="translate(-141.302 -3670.728)" fill="#fff"/>
  <path id="パス_58" data-name="パス 58" d="M295.359,3943.7l-.009,2.642,4.658.017-.037,11.548-1.367-.006,0-1.072L287,3956.792l0,1.147-1.349,0,.037-11.622,4.455.014.007-2.645-5.432-.014,0-1.334,16.114.054,0,1.33Zm3.253,11.854.009-3.158h-.24l-2.5-.008c-1.516,0-1.864-.395-1.859-1.876l.008-2.9-2.662-.006a5.93,5.93,0,0,1-3.565,5.438,3.985,3.985,0,0,0-.793-.964l-.01,3.437Zm-11.581-7.963-.013,4.471a4.886,4.886,0,0,0,3.1-4.463Zm7.017-3.9-2.643-.006-.009,2.642,2.643.008Zm1.3,3.924-.009,2.9c0,.48.072.555.7.557l2.219.006a1.393,1.393,0,0,0,.369-.018l.01-3.436Z" transform="translate(-141.302 -3670.728)" fill="#fff"/>
  <path id="パス_59" data-name="パス 59" d="M318.433,3943.442a14.057,14.057,0,0,1-2.714,4.909,12.392,12.392,0,0,0,4.2,2.73,5.649,5.649,0,0,0-.853,1.124c-.184-.092-.387-.168-.591-.261l-.02,6.079-1.311-.006,0-.608-4.619-.015,0,.665-1.275,0,.021-6.155c-.371.187-.742.349-1.112.515a4.11,4.11,0,0,0-.662-.927l-1.941-.006-.01,3.307c.795-.184,1.609-.365,2.422-.566l.125,1.24c-2.513.6-5.14,1.221-7.081,1.7l-.254-1.332.941-.2.022-6.3,1.162,0-.019,6.059,1.425-.328.022-7.464-2.584-.008.016-5.64,5.969.021-.015,4.9a13.452,13.452,0,0,0,3.364-5.661l1.309.316c-.184.54-.391,1.072-.594,1.571l3.565.012.24-.056Zm-13.482,2.953,3.475.008.011-3.231-3.475-.01Zm4.9,4.763a12.9,12.9,0,0,0,4.185-2.867,17.116,17.116,0,0,1-1.693-2.537,13.1,13.1,0,0,1-1.687,2.118,7.548,7.548,0,0,0-.959-.815l0,.553-2.125-.005-.008,2.66,2.292.006Zm7.76.287a13.988,13.988,0,0,1-2.729-2.192,14.613,14.613,0,0,1-2.777,2.171Zm-.46,4.745.012-3.548-4.619-.015-.013,3.545ZM313.2,3944.3l-.187.349a15,15,0,0,0,1.822,2.779,12.047,12.047,0,0,0,1.895-3.116Z" transform="translate(-141.302 -3670.728)" fill="#fff"/>
  <rect id="長方形_37" data-name="長方形 37" width="1.499" height="16.78" transform="translate(180.094 279.53) rotate(-89.832)" fill="#fff"/>
  <path id="パス_60" data-name="パス 60" d="M347.044,3953.994c-1.535.237-3.069.508-4.493.725l-.012,3.2-1.329,0,.009-2.994-1.331.216-.2-1.292c.444-.054.981-.125,1.534-.2l.034-10.7.037.018v-.018a26.321,26.321,0,0,0,4.848-1.724l1.107,1.041a31.7,31.7,0,0,1-4.662,1.516l-.007,2.017,4.139.015,0,1.219-4.141-.015-.007,2.533,4.119.012,0,1.22-4.12-.013-.01,2.678c1.367-.2,2.921-.415,4.438-.631Zm8.292-4.036a10.887,10.887,0,0,1-2.733,5.143,10.86,10.86,0,0,0,4.059,1.917,4.69,4.69,0,0,0-.855,1.182,11.591,11.591,0,0,1-4.167-2.233,13.117,13.117,0,0,1-4.665,2.314,4.1,4.1,0,0,0-.7-1.186,11.429,11.429,0,0,0,4.4-2.019,11.822,11.822,0,0,1-2.426-4.032l.685-.183-1.294,0,0-1.182,6.6.021.24-.057Zm-5.1-5.691a5.691,5.691,0,0,1-2.437,5.019,6.192,6.192,0,0,0-.938-.872,4.669,4.669,0,0,0,2.1-4.186l.006-2.217,5.119.017-.015,4.674c0,.478.052.629.312.629l1.238,0a4.619,4.619,0,0,0,.852-.069c.034.312.051.773.108,1.07a3.437,3.437,0,0,1-.945.07l-1.386,0c-1.22-.006-1.458-.484-1.452-1.741l.009-3.437-2.57-.009Zm-.834,6.6a9.76,9.76,0,0,0,2.226,3.386,8.947,8.947,0,0,0,2.081-3.37Z" transform="translate(-141.302 -3670.728)" fill="#fff"/>
  <path id="パス_61" data-name="パス 61" d="M421.511,3952.706a20.5,20.5,0,0,1-4.412,6.608,8.951,8.951,0,0,0-1.029-.908,16.053,16.053,0,0,0,4.189-6.068Zm4.439,7.246a47.846,47.846,0,0,1,3.527,5.122l-1.132.647c-.221-.428-.521-.915-.852-1.465-7.968.677-8.815.737-9.41.96a7.346,7.346,0,0,0-.466-1.211c.415-.1.853-.613,1.426-1.345a34.2,34.2,0,0,0,3.789-6.126l1.286.52a40.555,40.555,0,0,1-4.411,6.674l7.108-.508c-.615-.948-1.324-1.938-1.952-2.745Zm.2-7.764a11.187,11.187,0,0,0,4.171,5.865,6.12,6.12,0,0,0-.877,1.074,12.835,12.835,0,0,1-4.139-5.771l-2.862.041-.019-1.155Z" transform="translate(-141.302 -3670.728)" fill="#fff"/>
  <path id="パス_62" data-name="パス 62" d="M429.793,3974.722l.2,13.4-1.125.019-.01-.647-10.564.156.012.647-1.094.018-.2-13.4Zm-.948,11.718-.16-10.653-10.562.16.159,10.653Zm-4.817-1.865a3.859,3.859,0,0,0,.041.74,20.681,20.681,0,0,0-3.464,1.1,2.316,2.316,0,0,0-.334-.719.8.8,0,0,0,.587-.828l-.015-1.137a15.125,15.125,0,0,1-1.625.563,7.684,7.684,0,0,0-.6-.666,14.7,14.7,0,0,0,3.492-1.3l-2.156.037-.034-2.3,7.145-.108.035,2.293-3.7.057a9.114,9.114,0,0,1-1.678,1.024l.028,1.817Zm3.941-5.2-9.04.135-.009-.737,3.971-.06-.015-.954-3.094.048-.011-.709,3.1-.049-.014-.861,1.047-.018.012.864,3.2-.048.01.707-3.2.049.016.956,4.017-.06Zm-7.051,2.356,5.143-.077-.015-1.063-5.143.078Zm7.06,1.307a11.731,11.731,0,0,1-1.709,1.028c.7.47,1.353.922,1.8,1.283l-.746.535a29.229,29.229,0,0,0-4.2-2.816l.7-.442c.558.3,1.178.644,1.771,1.035a17.711,17.711,0,0,0,1.63-1.072Z" transform="translate(-141.302 -3670.728)" fill="#fff"/>
  <path id="パス_63" data-name="パス 63" d="M430.455,3998.946a11.664,11.664,0,0,1-2.186,4.131,10.371,10.371,0,0,0,3.546,2.213,4.66,4.66,0,0,0-.7.947c-.155-.075-.325-.132-.495-.207l.076,5.064-1.093.015-.008-.5-3.849.058.007.553-1.06.018-.078-5.128c-.307.159-.611.3-.918.446a3.417,3.417,0,0,0-.566-.762l-1.618.024.041,2.757c.662-.166,1.336-.326,2.012-.509l.123,1.029c-2.086.542-4.266,1.1-5.876,1.523l-.231-1.108.782-.18-.081-5.251.972-.012.077,5.05,1.181-.3-.1-6.221-2.156.03-.071-4.694,4.973-.075.063,4.08a11.2,11.2,0,0,0,2.714-4.77l1.1.244c-.147.452-.309.9-.473,1.318l2.973-.045.2-.051Zm-11.186,2.667,2.893-.046-.04-2.694-2.9.046Zm4.156,3.893a10.82,10.82,0,0,0,3.443-2.453,13.889,13.889,0,0,1-1.448-2.091,11.081,11.081,0,0,1-1.375,1.794,6.23,6.23,0,0,0-.813-.665l.009.461-1.771.029.034,2.215,1.909-.027Zm6.47.118a11.5,11.5,0,0,1-2.308-1.782,12.153,12.153,0,0,1-2.281,1.851Zm-.31,3.962-.045-2.954-3.849.06.045,2.955Zm-3.476-9.849-.15.293a12.5,12.5,0,0,0,1.559,2.289,9.825,9.825,0,0,0,1.531-2.627Z" transform="translate(-141.302 -3670.728)" fill="#fff"/>
  <path id="パス_64" data-name="パス 64" d="M739.432,3957.618a15.452,15.452,0,0,0,2.1-4.477l1.2.436a19.812,19.812,0,0,1-2.031,4.625Zm7.557-7.238-6.043.13-.122-5.822,6.044-.127-.047-2.2,1.348-.029.047,2.2,6.151-.133.122,5.821-6.152.129.04,1.865-.981.025a22.154,22.154,0,0,1,2.822,2.287l-1.073.89a20.127,20.127,0,0,0-3.067-2.593l.947-.708Zm-.026-1.236-.071-3.347-4.713.1.071,3.344Zm3.241,8.339c.926-.019,1.067-.337,1.115-2.4a4.7,4.7,0,0,0,1.322.526c-.13,2.5-.56,3.153-2.3,3.19l-3.787.078c-2.015.045-2.54-.37-2.572-1.887l-.084-3.97,1.405-.033.081,3.955c.013.536.2.644,1.254.62Zm-1.964-11.713.072,3.343,4.8-.1-.072-3.347Zm5.01,7.03a33.937,33.937,0,0,1,2.857,4.117l-1.221.711a29,29,0,0,0-2.825-4.211Z" transform="translate(-141.302 -3670.728)" fill="#fff"/>
  <path id="パス_65" data-name="パス 65" d="M767.8,3948.28c-.8.59-1.641,1.161-2.48,1.7l5.433-.114.294-.078.9.719a21.449,21.449,0,0,1-4.509,2.627l.008.388,6.854-.144.026,1.218-6.854.145.053,2.495c.015.755-.164,1.093-.767,1.309a11.6,11.6,0,0,1-3.119.286,4.571,4.571,0,0,0-.544-1.227c1.221.011,2.365-.013,2.7-.037.295-.024.386-.084.382-.343l-.052-2.456-6.669.142-.026-1.222,6.669-.139-.02-.923a16.464,16.464,0,0,0,3.165-1.6l-5.895.126a41.566,41.566,0,0,1-4.757,2.26,6.275,6.275,0,0,0-.928-1.071,38.39,38.39,0,0,0,7.919-4.009l-7.668.16-.026-1.22,6.338-.131-.041-1.924-4.767.1-.023-1.2,4.766-.1-.043-2.035,1.348-.027.043,2.032,4.138-.088.026,1.2a23.438,23.438,0,0,0,2.347-2.584l1.16.64a26.966,26.966,0,0,1-3.8,3.874l4.969-.106.025,1.219Zm-.47-1.209a28.376,28.376,0,0,0,2.343-1.972l-4.139.087.04,1.92Z" transform="translate(-141.302 -3670.728)" fill="#fff"/>
  <path id="パス_66" data-name="パス 66" d="M787.114,3944.046l.056,2.645,4.656-.1.242,11.547-1.367.027-.022-1.068-11.605.241.025,1.145-1.349.031-.243-11.619,4.452-.1-.057-2.641-5.43.114-.029-1.331,16.112-.337.027,1.328Zm-8.233,4.092.094,4.473a4.881,4.881,0,0,0,2.99-4.535Zm11.771,7.683-.066-3.16-.241.01-2.494.048c-1.515.033-1.874-.347-1.907-1.826l-.059-2.9-2.662.056a5.925,5.925,0,0,1-3.432,5.522,3.924,3.924,0,0,0-.815-.945l.073,3.438Zm-4.85-11.746-2.642.056.055,2.645,2.643-.058Zm1.394,3.889.062,2.9c.009.478.086.553.714.538l2.217-.046a1.676,1.676,0,0,0,.368-.026l-.072-3.437Z" transform="translate(-141.302 -3670.728)" fill="#fff"/>
  <path id="パス_67" data-name="パス 67" d="M810.175,3943.23a14.051,14.051,0,0,1-2.595,4.972,12.4,12.4,0,0,0,4.27,2.627,5.6,5.6,0,0,0-.826,1.147c-.187-.09-.392-.16-.6-.248l.128,6.077-1.313.027-.012-.609-4.619.1.015.662-1.276.027-.128-6.151c-.366.193-.733.368-1.1.539a4.235,4.235,0,0,0-.685-.909l-1.939.04.068,3.309c.791-.2,1.6-.4,2.409-.623l.155,1.234c-2.5.663-5.11,1.346-7.04,1.866l-.286-1.324.938-.222-.133-6.3,1.163-.023.129,6.06,1.416-.361-.158-7.465-2.586.054-.119-5.637,5.968-.123.1,4.9a13.462,13.462,0,0,0,3.226-5.744l1.318.289c-.175.536-.367,1.078-.561,1.579l3.567-.075.24-.06Zm-13.406,3.278,3.474-.073-.069-3.232-3.474.072Zm5.014,4.643a12.914,12.914,0,0,0,4.112-2.971,16.926,16.926,0,0,1-1.75-2.495,13.327,13.327,0,0,1-1.637,2.162,7.306,7.306,0,0,0-.979-.791l.013.553-2.123.042.055,2.66,2.29-.045Zm7.765.1a13.823,13.823,0,0,1-2.78-2.125,14.746,14.746,0,0,1-2.726,2.242Zm-.343,4.754-.076-3.545-4.617.1.074,3.548Zm-4.241-11.794-.177.355a14.734,14.734,0,0,0,1.886,2.732,11.873,11.873,0,0,0,1.819-3.159Z" transform="translate(-141.302 -3670.728)" fill="#fff"/>
  <rect id="長方形_38" data-name="長方形 38" width="16.779" height="1.497" transform="translate(671.968 277.744) rotate(-1.222)" fill="#fff"/>
  <path id="パス_68" data-name="パス 68" d="M839.033,3953.087c-1.529.27-3.055.58-4.475.833l.068,3.2-1.33.027-.064-2.991-1.325.251-.231-1.288c.443-.067.977-.152,1.529-.239l-.224-10.7.036.018v-.018a26.334,26.334,0,0,0,4.8-1.839l1.13,1.011a31.882,31.882,0,0,1-4.622,1.635l.041,2.013,4.139-.087.025,1.222-4.138.083.053,2.532,4.12-.087.026,1.218-4.12.087.057,2.679c1.36-.232,2.909-.485,4.42-.737Zm8.19-4.241a10.92,10.92,0,0,1-2.605,5.213,10.9,10.9,0,0,0,4.1,1.817,4.7,4.7,0,0,0-.826,1.2,11.581,11.581,0,0,1-4.22-2.131,13.129,13.129,0,0,1-4.606,2.428,4.012,4.012,0,0,0-.727-1.167,11.525,11.525,0,0,0,4.353-2.125,11.869,11.869,0,0,1-2.523-3.975l.68-.2-1.293.028-.025-1.184,6.6-.137.24-.06Zm-5.238-5.564a5.687,5.687,0,0,1-2.313,5.077,5.877,5.877,0,0,0-.96-.846,4.67,4.67,0,0,0,2-4.24l-.046-2.215,5.116-.112.1,4.677c.011.478.069.625.328.623l1.235-.027a4.386,4.386,0,0,0,.851-.091c.043.311.072.774.134,1.069a3.447,3.447,0,0,1-.943.093l-1.385.03c-1.219.027-1.468-.451-1.5-1.706l-.072-3.44-2.569.054Zm-.672,6.614a9.73,9.73,0,0,0,2.307,3.334,8.948,8.948,0,0,0,2-3.424Z" transform="translate(-141.302 -3670.728)" fill="#fff"/>
  <path id="パス_69" data-name="パス 69" d="M705.408,3795.768l-1.366,8.538-1.387-.224.165-1.039-5.236-.838-.946,5.912-1.406-.225.946-5.912-5.218-.835-.182,1.132-1.331-.212,1.383-8.632,6.549,1.049.521-3.249,1.4.226-.52,3.248Zm-9.017,4.881.777-4.837-5.22-.835-.774,4.836Zm6.643,1.063.775-4.837-5.238-.838-.773,4.836Z" transform="translate(-141.302 -3670.728)" fill="#fff"/>
  <path id="パス_70" data-name="パス 70" d="M701.585,3818.6l-2.056,12.846-1.388-.223.216-1.349-12.828-2.056,1.837-11.478,1.389.224-1.62,10.107,5,.8,2.19-13.667,1.385.222-2.188,13.667,5.055.81,1.621-10.127Z" transform="translate(-141.302 -3670.728)" fill="#fff"/>
  <path id="パス_71" data-name="パス 71" d="M689.033,3848.134l.049,1.207c-2.791.712-5.809,1.446-8.038,1.932l-.408-1.431c1.388-.248,3.379-.641,5.472-1.089l1.166-7.284-4.616-.738.211-1.331,4.617.74.684-4.271,1.387.224-1.978,12.35Zm5.684,3.418c.821.132,1.071-.728,1.739-4.193a3.837,3.837,0,0,0,1.19.864c-.745,3.716-1.282,4.959-3.033,4.679l-2.446-.391c-1.569-.253-1.939-.855-1.636-2.751l2.107-13.156,1.368.219-.678,4.234,5.091.814-.214,1.332-5.089-.814L691.9,3850c-.147.912-.045,1.1.65,1.209Z" transform="translate(-141.302 -3670.728)" fill="#fff"/>
  <path id="パス_72" data-name="パス 72" d="M694.625,3861.712a14.1,14.1,0,0,1-3.44,4.427,12.308,12.308,0,0,0,3.729,3.347,5.721,5.721,0,0,0-1.018.981c-.167-.12-.356-.227-.543-.349l-.961,6-1.3-.208.1-.6-4.562-.73-.106.657-1.257-.2.972-6.078c-.4.125-.786.229-1.178.334a4.155,4.155,0,0,0-.51-1.017l-1.915-.3-.523,3.266c.813-.057,1.645-.109,2.479-.182l-.068,1.242c-2.577.2-5.267.412-7.26.579l-.045-1.354.964-.053.995-6.223,1.15.185-.958,5.984,1.457-.1,1.181-7.373-2.555-.411.891-5.564,5.9.943-.776,4.837a13.428,13.428,0,0,0,4.2-5.073l1.246.516c-.267.5-.552,1-.832,1.458l3.522.564.246-.017Zm-13.776.827,3.43.549.513-3.193-3.432-.55Zm4.1,5.463a12.832,12.832,0,0,0,4.579-2.185,16.708,16.708,0,0,1-1.278-2.767,13.231,13.231,0,0,1-2,1.831,7.429,7.429,0,0,0-.821-.952l-.088.546-2.1-.335-.421,2.627,2.264.363Zm6.434,6.1.561-3.5-4.563-.731-.561,3.5Zm1.188-4.619a13.848,13.848,0,0,1-2.356-2.585,14.6,14.6,0,0,1-3.082,1.715Zm-3.252-7.742-.237.315a14.943,14.943,0,0,0,1.368,3.029,11.955,11.955,0,0,0,2.354-2.786Z" transform="translate(-141.302 -3670.728)" fill="#fff"/>
  <rect id="長方形_39" data-name="長方形 39" width="1.498" height="16.779" transform="translate(533.361 217.593) rotate(-80.896)" fill="#fff"/>
  <path id="パス_73" data-name="パス 73" d="M678.24,3911.325c-1.552,0-3.111.024-4.55.021l-.506,3.157-1.315-.211.474-2.955-1.348.006,0-1.306c.448.012.988.027,1.548.039l1.691-10.563.034.025,0-.019a26.575,26.575,0,0,0,5.055-.95l.93,1.2a31.6,31.6,0,0,1-4.841.777l-.317,1.988,4.086.657-.191,1.2-4.089-.654-.4,2.5,4.068.65-.2,1.205-4.068-.652-.422,2.643c1.381.018,2.948.042,4.481.066Zm8.819-2.7a10.958,10.958,0,0,1-3.5,4.659,10.917,10.917,0,0,0,3.713,2.525,4.471,4.471,0,0,0-1.026,1.032,11.569,11.569,0,0,1-3.773-2.852,13.168,13.168,0,0,1-4.967,1.567,3.967,3.967,0,0,0-.506-1.279,11.509,11.509,0,0,0,4.665-1.315,11.809,11.809,0,0,1-1.772-4.364l.7-.071-1.278-.2.187-1.168,6.515,1.041.246-.015Zm-4.159-6.413a5.7,5.7,0,0,1-3.185,4.581,5.955,5.955,0,0,0-.793-1.008,4.666,4.666,0,0,0,2.725-3.81l.35-2.191,5.055.813-.74,4.613c-.075.473-.044.629.211.671l1.223.2a4.277,4.277,0,0,0,.853.062c-.015.314-.07.775-.062,1.076a3.444,3.444,0,0,1-.942-.078l-1.37-.217c-1.2-.193-1.364-.707-1.165-1.946l.544-3.4-2.537-.4Zm-1.845,6.386a9.731,9.731,0,0,0,1.672,3.693,8.939,8.939,0,0,0,2.578-3.012Z" transform="translate(-141.302 -3670.728)" fill="#fff"/>
  <path id="パス_74" data-name="パス 74" d="M679.347,3987.968l.065,7.932-1.289.012-.009-.966-4.864.04.046,5.491-1.3.01-.046-5.493-4.85.04.01,1.053-1.237.012-.065-8.02,6.084-.051-.023-3.016,1.3-.008.025,3.014Zm-7.412,5.79-.036-4.493-4.848.042.036,4.493Zm6.17-.052-.037-4.493-4.865.043.038,4.492Z" transform="translate(-141.302 -3670.728)" fill="#fff"/>
  <path id="パス_75" data-name="パス 75" d="M679.367,4009.187l.1,11.933-1.286.011-.011-1.255-11.915.1-.087-10.662,1.288-.012.076,9.392,4.646-.039-.1-12.7,1.288-.009.1,12.7,4.695-.04-.077-9.41Z" transform="translate(-141.302 -3670.728)" fill="#fff"/>
  <path id="パス_76" data-name="パス 76" d="M673.431,4029.373c-.08.63-.177,1.255-.257,1.8l6.287-.054.078,9.341c.006.746-.178,1.087-.72,1.276a10.024,10.024,0,0,1-2.861.229,5.976,5.976,0,0,0-.469-1.132c1.068.043,2.1.033,2.391.012.306-.017.388-.1.387-.376l-.068-8.171-10.492.088.08,9.63-1.237.009-.088-10.8,5.507-.045c.082-.523.145-1.156.208-1.8l-6.645.054-.011-1.189,6.763-.057c.047-.608.092-1.2.106-1.71l1.357.143c-.047.492-.111,1.031-.175,1.558l6.764-.054.009,1.188Zm.126,9.288.025,2.985-1.2.009-.023-2.985-3.644.029-.01-1.047,3.644-.033-.013-1.712-3.289.027-.007-1.033,1.779-.012a8.126,8.126,0,0,0-.947-1.992l.995-.264a7.829,7.829,0,0,1,1,1.956l-.912.3,3.036-.027a19.971,19.971,0,0,0,.945-2.329l1.137.247c-.316.715-.649,1.444-.965,2.073l1.916-.012.008,1.032-3.491.027.014,1.712,3.779-.029.008,1.049Z" transform="translate(-141.302 -3670.728)" fill="#fff"/>
  <path id="パス_77" data-name="パス 77" d="M679.643,4049.221a12.889,12.889,0,0,1-2.437,4.528,11.31,11.31,0,0,0,3.885,2.458,5.259,5.259,0,0,0-.772,1.043c-.169-.085-.356-.151-.544-.233l.045,5.576-1.2.01,0-.56-4.237.037.005.607-1.17.012-.047-5.646c-.337.172-.675.328-1.013.482a3.741,3.741,0,0,0-.618-.84l-1.779.013.025,3.033c.727-.175,1.473-.349,2.218-.542l.126,1.135c-2.3.578-4.7,1.177-6.479,1.631l-.246-1.222.862-.192-.047-5.779,1.067-.009.045,5.559,1.3-.316-.055-6.846-2.374.018-.042-5.17,5.476-.042.037,4.489a12.341,12.341,0,0,0,3.025-5.23l1.205.28c-.165.49-.348.984-.531,1.444l3.273-.023.22-.055Zm-12.332,2.846,3.186-.027-.025-2.967-3.186.027Zm4.543,4.319a11.805,11.805,0,0,0,3.809-2.676,15.829,15.829,0,0,1-1.58-2.308,12.307,12.307,0,0,1-1.525,1.963,6.838,6.838,0,0,0-.887-.741l0,.508-1.949.015.02,2.441,2.1-.015Zm7.121.18a12.914,12.914,0,0,1-2.526-1.98,13.45,13.45,0,0,1-2.524,2.022Zm-.371,4.361-.027-3.257-4.237.033.027,3.257Zm-3.75-10.873-.167.326a13.8,13.8,0,0,0,1.7,2.53,11.024,11.024,0,0,0,1.707-2.881Z" transform="translate(-141.302 -3670.728)" fill="#fff"/>
  <path id="パス_78" data-name="パス 78" d="M740.243,3904.489a20.755,20.755,0,0,1-1.8,2.425l-.077,8.524-1.2-.013.066-7.193a19.083,19.083,0,0,1-1.847,1.673,10.879,10.879,0,0,0-.832-1.017,17.659,17.659,0,0,0,4.58-4.835Zm-.6-3.425a20,20,0,0,1-4.184,3.976,10.585,10.585,0,0,0-.7-.961,16.167,16.167,0,0,0,3.741-3.477Zm9.872,6.2-2.446-.025-.063,6.691c-.007.746-.188,1.114-.722,1.3a12.316,12.316,0,0,1-3.048.152,4.388,4.388,0,0,0-.378-1.17c1.15.042,2.219.052,2.527.038s.406-.077.407-.351l.063-6.674-5.41-.052.011-1.15,9.071.084Zm-.43-4.444-7.9-.072.011-1.134,7.9.07Z" transform="translate(-141.302 -3670.728)" fill="#05a3af"/>
  <path id="パス_79" data-name="パス 79" d="M764.709,3904.971a18.605,18.605,0,0,1-2.2,6.6,8.063,8.063,0,0,0,3.34,3.06,6.172,6.172,0,0,0-.837,1.017,9.005,9.005,0,0,1-3.227-3.011,10.6,10.6,0,0,1-3.673,2.976,6.169,6.169,0,0,0-.685-1.058,9.211,9.211,0,0,0,3.7-3.023,19.674,19.674,0,0,1-1.626-4.62,13.251,13.251,0,0,1-1.068,1.76,8.126,8.126,0,0,0-.949-.805l.08-.117-1.812-.012-.039,4.115,2.775-.609.106,1.087c-2.663.628-5.538,1.278-7.55,1.709l-.215-1.2.957-.182.067-7.2,1.1.01-.066,6.955,1.655-.349.083-9.016-3.433-.036.011-1.162,7.4.066-.011,1.163-2.8-.025-.033,3.532,2.2.02,0,.568a18.019,18.019,0,0,0,2.312-6.389l1.2.218c-.206.951-.454,1.909-.721,2.784l5.051.041-.011,1.136Zm-4.456.232a20.408,20.408,0,0,0,1.589,5.183,17.415,17.415,0,0,0,1.653-5.426l-3.126-.025Z" transform="translate(-141.302 -3670.728)" fill="#05a3af"/>
  <path id="パス_80" data-name="パス 80" d="M772.492,3902c-.5,1.32-1.1,2.888-1.661,4.176a5.019,5.019,0,0,1,1.424,3.513,2.282,2.282,0,0,1-.646,1.876,1.573,1.573,0,0,1-.845.3,5.52,5.52,0,0,1-1.086.02,2.444,2.444,0,0,0-.3-1.072,4.337,4.337,0,0,0,.941.027.9.9,0,0,0,.5-.143,1.412,1.412,0,0,0,.351-1.13,4.782,4.782,0,0,0-1.411-3.265c.464-1.167.962-2.551,1.311-3.632l-2.138-.023-.118,13.006-1.086-.011.128-14.106,3.663.036.194-.05Zm8.045,12.548c.358,0,.426-.273.475-2.041a2.606,2.606,0,0,0,1.031.445c-.117,2.112-.427,2.644-1.4,2.629l-1.427-.009c-1.134-.012-1.39-.353-1.381-1.5l.041-4.242-1.7-.019c-.3,2.963-1.1,4.851-4.171,5.89a3.7,3.7,0,0,0-.686-.962c2.792-.848,3.455-2.429,3.69-4.936l-2.253-.023.011-1.1,9.122.081-.013,1.1-2.867-.03-.038,4.229c0,.407.06.471.417.477Zm-6.688-8.777-1.118-.014.026-2.818,4.113.037a8.789,8.789,0,0,0-.855-1.79l1.087-.346a11.068,11.068,0,0,1,1.035,2.02l-.343.127,4.034.036-.027,2.821-1.149-.014.016-1.763-6.8-.065Zm.167,1.1.01-1.069,6.463.06-.009,1.068Z" transform="translate(-141.302 -3670.728)" fill="#05a3af"/>
  <path id="パス_81" data-name="パス 81" d="M314.141,3844.049a24.426,24.426,0,0,1,3.955,4.5l-.975.673a10.541,10.541,0,0,0-.906-1.331c-8.727.333-9.614.351-10.213.554a8.721,8.721,0,0,0-.348-1.122,2.954,2.954,0,0,0,1.253-.879,25.461,25.461,0,0,0,3.587-4.245l1.105.524a33.24,33.24,0,0,1-3.985,4.42l7.792-.244a28.018,28.018,0,0,0-2.173-2.285Zm-7.354,5.69,9.713.17-.112,6.351-1.191-.022.013-.792-7.374-.13-.016.824-1.143-.02Zm1.126,1.1-.059,3.371,7.375.13.06-3.373Z" transform="translate(-141.302 -3670.728)" fill="#05a3af"/>
  <path id="パス_82" data-name="パス 82" d="M326.432,3852.71l.183.981c-2.2.907-4.586,1.861-6.354,2.515l-.5-1.123c1.106-.363,2.686-.914,4.347-1.53l.106-6.089-3.861-.07.02-1.112,3.862.067.063-3.571,1.161.019-.183,10.336Zm5.048,2.136c.687.012.793-.72.935-3.633a3.153,3.153,0,0,0,1.074.568c-.176,3.128-.47,4.207-1.936,4.181l-2.047-.036c-1.311-.024-1.686-.474-1.659-2.06l.194-11.009,1.145.018-.064,3.544,4.262.076-.021,1.115-4.258-.076-.112,6.365c-.015.766.091.9.671.915Z" transform="translate(-141.302 -3670.728)" fill="#05a3af"/>
  <path id="パス_83" data-name="パス 83" d="M348.938,3854.648l-6.307-.111-.041,2.26-1.145-.02.041-2.259-6.169-.108.019-1.024,6.166.107.023-1.251-4.58-.082.1-5.905,4.58.081.021-1.116-5.711-.1.018-1.038,5.71.1.025-1.375,1.145.019-.024,1.376,5.786.1-.017,1.039-5.788-.1-.018,1.115,4.7.083-.1,5.908-4.7-.083-.019,1.251,6.3.112Zm-7.4-3.336.026-1.574-3.495-.061-.026,1.573Zm-3.454-2.534,3.5.061.028-1.559-3.494-.061Zm8.2,1.043-3.571-.063-.028,1.575,3.571.062Zm-3.528-2.521-.029,1.559,3.572.063.029-1.559Z" transform="translate(-141.302 -3670.728)" fill="#05a3af"/>
  <path id="パス_84" data-name="パス 84" d="M356.414,3852.993l.088,1.04c-2.025.484-4.156.979-5.75,1.351l-.256-1.119c.889-.185,2.054-.408,3.31-.692a55.167,55.167,0,0,0,1.1-6.12l1.066.217c-.339,1.783-.791,4.095-1.215,5.691Zm-5.586-7.184,5.893.1-.019,1.053-5.893-.1Zm1.481,1.783a45.193,45.193,0,0,1,.683,5.449l-.965.165a39.4,39.4,0,0,0-.637-5.462Zm1.314-1.886a13.278,13.278,0,0,0-.965-2.339l.952-.273a9.668,9.668,0,0,1,1.042,2.277Zm6.983,1.666-.054,3.008,3.207.057-.117,6.624-1.147-.021.013-.657-4.58-.079-.011.719-1.1-.02.119-6.688,2.473.043.126-7.252,1.148.02-.056,3.161,3.847.066-.019,1.084Zm1.988,4.11-4.58-.079-.068,3.832,4.58.08Z" transform="translate(-141.302 -3670.728)" fill="#05a3af"/>
  <path id="パス_85" data-name="パス 85" d="M295.32,3848.469a3.566,3.566,0,1,1-4.37-2.515,3.564,3.564,0,0,1,4.37,2.515" transform="translate(-141.302 -3670.728)" fill="#00bed6"/>
  <path id="パス_86" data-name="パス 86" d="M515.719,3907.508a9.529,9.529,0,1,0,11.676,6.715,9.528,9.528,0,0,0-11.676-6.715m4.679,17.352a8.446,8.446,0,1,1,5.956-10.356,8.44,8.44,0,0,1-5.956,10.356" transform="translate(-141.302 -3670.728)" fill="#05a3af"/>
  <path id="パス_87" data-name="パス 87" d="M516.6,3910.8a6.119,6.119,0,1,0,7.5,4.313,6.12,6.12,0,0,0-7.5-4.313" transform="translate(-141.302 -3670.728)" fill="#05a3af"/>
  <path id="パス_88" data-name="パス 88" d="M509.4,3881.228c.931-.03,1.9-.073,2.871-.1l-.034.8c-.958.041-1.913.088-2.843.118l-.016,1.558c-.005.473-.1.706-.467.836a5.931,5.931,0,0,1-1.744.123,3.242,3.242,0,0,0-.293-.823c.6.017,1.193.022,1.351.014s.209-.041.212-.172l.01-1.491-2.935.1-.06-.853c.827-.023,1.879-.051,3-.078l.007-.59a10.411,10.411,0,0,0,1.4-.853l-3.723-.035.01-.786,4.716.044.211-.051.583.516a13.706,13.706,0,0,1-2.254,1.422Zm-.415-8.609a8.776,8.776,0,0,1,.627,1.277l2.74.024-.006.837-6.725-.063.006-.838,3.014.027a9.467,9.467,0,0,0-.472-.986Zm2.577,5.721-5.189-.049.025-2.779,5.19.048Zm-.87-2.052-3.462-.033-.012,1.31,3.46.036Zm6.718-2.428c-.55,1.231-1.242,2.728-1.856,3.927a4.231,4.231,0,0,1,1.622,3.189,1.923,1.923,0,0,1-.662,1.694,1.814,1.814,0,0,1-.841.283,6.3,6.3,0,0,1-1.127,0,2.209,2.209,0,0,0-.252-.942,5.525,5.525,0,0,0,1.009.016,1.063,1.063,0,0,0,.562-.137,1.164,1.164,0,0,0,.38-1.032,3.933,3.933,0,0,0-1.678-2.963c.564-1.11,1.14-2.517,1.554-3.55l-2.4-.023-.1,10.338-.96-.007.107-11.256,3.8.034.145-.037Z" transform="translate(-141.302 -3670.728)" fill="#fff"/>
  <path id="パス_89" data-name="パス 89" d="M529.045,3883.562c.394,0,.462-.375.53-2.168a2.9,2.9,0,0,0,.9.441c-.112,2.045-.361,2.67-1.359,2.663l-1.481-.018c-1.059-.009-1.331-.351-1.324-1.515l.06-6.254-2.908-.025c-.291,3.206-1.188,6.267-4.152,8.046a3.248,3.248,0,0,0-.768-.768c2.82-1.571,3.633-4.346,3.887-7.29l-3.424-.035.011-.951,3.483.03c.05-.964.06-1.952.069-2.9l1.049.009c-.008.944-.034,1.929-.094,2.894l3.853.039-.066,7.207c-.005.483.057.574.451.578Z" transform="translate(-141.302 -3670.728)" fill="#fff"/>
  <path id="パス_90" data-name="パス 90" d="M503.919,3890.481l-3.457-.035a18.662,18.662,0,0,1,2.882,2.481l-.831.556c-.234-.277-.543-.612-.9-.953-6.709.279-7.38.282-7.826.437-.048-.193-.177-.655-.279-.932a2.674,2.674,0,0,0,1.11-.674,12.077,12.077,0,0,0,1.148-.956l-3.289-.034.009-.876,4.168.039c.423-.444.857-.934,1.242-1.413l.969.41c-.307.342-.625.687-.943,1.015l6,.056Zm-1.444,8.674c-.008.59-.166.84-.61.967a10.8,10.8,0,0,1-2.35.1,3.245,3.245,0,0,0-.264-.845c.81.038,1.692.045,1.889.034.23,0,.312-.077.312-.263l.016-1.676c-2.072.4-4.227.823-5.839,1.1l-.309-.878c1.483-.209,3.873-.563,6.152-.952l.026-2.4-6.5-.061-.013,1.532a6.265,6.265,0,0,1-1.549,4.5,2.651,2.651,0,0,0-.767-.616,5.228,5.228,0,0,0,1.372-3.918l.022-2.335,8.464.081Zm-1.7-7.366c-.43-.361-.871-.705-1.3-1.009l.555-.337-2.988-.03c-.611.573-1.23,1.092-1.84,1.559Zm-5.049,3.029a23.75,23.75,0,0,1,4.773,1.239l-.31.72a22.563,22.563,0,0,0-4.782-1.331Z" transform="translate(-141.302 -3670.728)" fill="#fff"/>
  <path id="パス_91" data-name="パス 91" d="M516.356,3892.893a14.846,14.846,0,0,1-2.349,4.405c.471,1.291,1.071,2.039,1.736,2.048.367.005.53-.679.636-2.419a2.342,2.342,0,0,0,.835.533c-.205,2.225-.564,2.864-1.561,2.855s-1.785-.819-2.376-2.172a11.658,11.658,0,0,1-2.722,2.152,5.8,5.8,0,0,0-.7-.782,10.507,10.507,0,0,0,3.035-2.394,25.784,25.784,0,0,1-.905-5.528l-4.52-.042-.019,1.708,3.343.03,0,.418c-.094,2.936-.181,4.033-.459,4.375a1.045,1.045,0,0,1-.793.37,15.029,15.029,0,0,1-1.559-.016,1.973,1.973,0,0,0-.269-.922c.6.06,1.17.076,1.39.08.184,0,.316-.02.4-.136.188-.2.255-1.021.33-3.278l-2.386-.021v.107c-.014,1.83-.236,4.468-1.435,6.158a3.791,3.791,0,0,0-.8-.666c1.088-1.583,1.229-3.824,1.244-5.518l.036-3.653,5.464.051c-.047-.727-.051-1.455-.06-2.2l1.009.012c-.006.757,0,1.491.033,2.2l4.234.038-.008.955-4.169-.038a23.57,23.57,0,0,0,.677,4.555,12.917,12.917,0,0,0,1.709-3.523Zm-2.228-4.4a12.25,12.25,0,0,1,2.332,1.515l-.607.661a13.594,13.594,0,0,0-2.308-1.592Z" transform="translate(-141.302 -3670.728)" fill="#fff"/>
  <path id="パス_92" data-name="パス 92" d="M529.643,3890.908l-.06,6.13-.994-.009.008-.746-3.763-.034-.039,4.245-1.008-.013.04-4.245-3.747-.034-.009.814-.957-.008.059-6.2,4.7.041.026-2.329,1.007.012-.025,2.33Zm-5.807,4.371.031-3.469-3.746-.036-.032,3.471Zm4.77.047.034-3.473-3.765-.03-.032,3.468Z" transform="translate(-141.302 -3670.728)" fill="#fff"/>
  <path id="パス_93" data-name="パス 93" d="M533.7,3893.41a26.557,26.557,0,0,1-1.2,5.127l-.964-.418a20.488,20.488,0,0,0,1.221-4.906Zm2.134-1.149-.063,6.463c0,.6.153.721.9.73l2.5.022c.813.007.934-.453,1.061-2.707a3.042,3.042,0,0,0,.912.443c-.167,2.475-.474,3.193-1.931,3.181l-2.633-.02c-1.416-.019-1.8-.372-1.792-1.675l.06-6.446Zm.305-3.171a24,24,0,0,1,3.5,2.931l-.7.714a24.882,24.882,0,0,0-3.446-3.008Zm5.664,3.867a23.577,23.577,0,0,1,1.709,4.934l-.961.372a23.561,23.561,0,0,0-1.654-4.959Z" transform="translate(-141.302 -3670.728)" fill="#fff"/>
  <path id="パス_94" data-name="パス 94" d="M727.1,3908.079a3.829,3.829,0,1,1-4.693-2.7,3.828,3.828,0,0,1,4.693,2.7" transform="translate(-141.302 -3670.728)" fill="#00bed6"/>
  <path id="パス_95" data-name="パス 95" d="M472.321,3910.522h-1.39l-.212-4c-.062-1.29-.137-2.759-.124-3.94h-.038c-.286,1.121-.659,2.34-1.057,3.543l-1.417,4.313H467l-1.306-4.226c-.384-1.243-.721-2.485-.957-3.63H464.7c-.026,1.181-.1,2.686-.177,4.016l-.21,3.928h-1.343l.646-9.522h1.79l1.343,4.19c.348,1.168.634,2.225.871,3.267h.036c.238-1.017.536-2.1.908-3.278l1.38-4.179h1.8Z" transform="translate(-141.302 -3670.728)" fill="#05a3af"/>
  <path id="パス_96" data-name="パス 96" d="M479.5,3905.528a2.36,2.36,0,0,1,1.8,2.5c-.1,1.519-1.35,2.726-3.471,2.587a4.436,4.436,0,0,1-2.242-.736l.443-1.079a3.686,3.686,0,0,0,1.814.654,1.685,1.685,0,0,0,1.984-1.576c.078-1.2-.9-1.83-2.007-1.9l-.632-.043.068-1.026.607.038a1.719,1.719,0,0,0,1.96-1.4,1.291,1.291,0,0,0-1.378-1.407,3.146,3.146,0,0,0-1.7.447l-.293-1.048a4.228,4.228,0,0,1,2.39-.532c1.748.112,2.536,1.224,2.458,2.414a2.344,2.344,0,0,1-1.806,2.079Z" transform="translate(-141.302 -3670.728)" fill="#05a3af"/>
  <path id="パス_97" data-name="パス 97" d="M467.39,3922.066v-4.16h-3.552a.424.424,0,0,1-.475-.485v-3.6h.985v2.945a.141.141,0,0,0,.155.162h2.887v-3.714h.974v3.714H471.2a.146.146,0,0,0,.167-.162v-2.945h.983v3.6a.427.427,0,0,1-.486.485h-3.5v4.16h3.053c.111,0,.155-.045.155-.155v-2.943h.985v3.6a.425.425,0,0,1-.487.486h-8.442c-.321,0-.475-.155-.475-.486v-3.6h.984v2.943c0,.11.045.155.144.155Z" transform="translate(-141.302 -3670.728)" fill="#05a3af"/>
  <path id="パス_98" data-name="パス 98" d="M475.343,3922.777v.507h-1.018v-9.26c0-.246.112-.355.353-.355h8.466c.254,0,.376.109.376.355v9.26h-1.03v-.507Zm0-1.033h7.147v-6.914c0-.1-.055-.143-.154-.143H475.5c-.112,0-.167.055-.156.154Z" transform="translate(-141.302 -3670.728)" fill="#05a3af"/>
  <g id="グループ_52" data-name="グループ 52" transform="translate(-141.302 -3670.728)">
    <g id="グループ_51" data-name="グループ 51">
      <path id="パス_99" data-name="パス 99" d="M472.963,3989.713a2.441,2.441,0,0,1-1.433-2.153,2.623,2.623,0,0,1,2.855-2.56,2.434,2.434,0,0,1,2.7,2.381,2.494,2.494,0,0,1-1.484,2.23v.038a2.7,2.7,0,0,1,1.8,2.483,2.864,2.864,0,0,1-3.147,2.8c-1.972,0-3.058-1.229-3.058-2.588a2.819,2.819,0,0,1,1.765-2.6Zm2.944,2.56c0-1.076-.717-1.677-1.765-2.026a2,2,0,0,0-1.448,1.924,1.6,1.6,0,0,0,1.6,1.715A1.537,1.537,0,0,0,475.907,3992.273Zm-2.969-4.8c0,.883.626,1.409,1.536,1.715a1.85,1.85,0,0,0,1.2-1.661,1.327,1.327,0,0,0-1.345-1.488A1.344,1.344,0,0,0,472.938,3987.472Z" fill="#05a3af"/>
    </g>
  </g>
  <path id="パス_100" data-name="パス 100" d="M458.693,3911.228a2.457,2.457,0,1,1-3.011-1.733,2.453,2.453,0,0,1,3.011,1.733" transform="translate(-141.302 -3670.728)" fill="#00bed6"/>
  <path id="パス_101" data-name="パス 101" d="M469.162,3994.917H467.85l-.2-3.775c-.058-1.218-.129-2.6-.117-3.714H467.5c-.27,1.056-.622,2.2-1,3.34l-1.336,4.066h-1.019l-1.231-3.984c-.363-1.172-.679-2.343-.9-3.422h-.034c-.024,1.113-.094,2.53-.166,3.786l-.2,3.7h-1.265l.609-8.979h1.687l1.266,3.952c.328,1.1.6,2.1.821,3.08h.034c.224-.958.505-1.979.857-3.091l1.3-3.941h1.7Z" transform="translate(-141.302 -3670.728)" fill="#05a3af"/>
  <path id="パス_102" data-name="パス 102" d="M464.005,4006.241v-3.921h-3.349a.4.4,0,0,1-.448-.459v-3.389h.929v2.776c0,.1.051.153.146.153h2.722v-3.5h.918v3.5h2.67a.137.137,0,0,0,.157-.153v-2.776h.927v3.389a.4.4,0,0,1-.458.459h-3.3v3.921H467.8c.1,0,.146-.041.146-.145v-2.774h.929v3.391a.4.4,0,0,1-.46.459h-7.959c-.3,0-.448-.146-.448-.459v-3.391h.928v2.774c0,.1.042.145.136.145Z" transform="translate(-141.302 -3670.728)" fill="#05a3af"/>
  <path id="パス_103" data-name="パス 103" d="M471.5,4006.913v.477h-.96v-8.729c0-.232.106-.336.333-.336h7.981c.241,0,.355.1.355.336v8.729h-.971v-.477Zm0-.975h6.738v-6.518c0-.093-.052-.134-.145-.134H471.65c-.1,0-.158.051-.147.144Z" transform="translate(-141.302 -3670.728)" fill="#05a3af"/>
  <path id="パス_104" data-name="パス 104" d="M456.237,3994.565a2.457,2.457,0,1,1-3.011-1.731,2.456,2.456,0,0,1,3.011,1.731" transform="translate(-141.302 -3670.728)" fill="#00bed6"/>
</svg>
