<svg id="コンポーネント_23_1" data-name="コンポーネント 23 – 1" xmlns="http://www.w3.org/2000/svg" width="155.895" height="265.697" viewBox="0 0 155.895 265.697">
  <path id="パス_105" data-name="パス 105" d="M1094.626,813.647a15.865,15.865,0,0,1-.6,23.011,4.585,4.585,0,0,1-.689,5.61l-32.1,32.1a1.616,1.616,0,0,0,0,2.287l-2.109,2.106a4.6,4.6,0,0,1,0-6.5l32.107-32.1a1.612,1.612,0,0,0,.473-1.146,2.06,2.06,0,0,0-.019-.206l-34.946,32.152a2.147,2.147,0,0,1-1.47.541,3.412,3.412,0,0,1-.8-.1l-51.913,50.237a6.1,6.1,0,0,1-6.2,1.374L981,943.385l-20.311,4.207,4.207-20.308,20.372-15.36a6.107,6.107,0,0,1,1.371-6.2l50.236-51.914a2.359,2.359,0,0,1,.426-2.258l34.294-37.279a15.868,15.868,0,0,1,23.034-.63Zm1.666,11.578a12.886,12.886,0,0,0-22.492-8.945l-34,36.959a11.173,11.173,0,0,0,2.561,3.507l9.172,9.168a11.161,11.161,0,0,0,3.506,2.564l36.946-33.987a12.808,12.808,0,0,0,4.31-9.266Zm-50.129,50.063,5.506-5.331a19.922,19.922,0,0,1-2.246-1.937l-9.169-9.168a19.806,19.806,0,0,1-1.939-2.249l-5.331,5.509Zm-4.37,4.228,2.227-2.156-13.108-13.107-2.154,2.228Zm-4.366,4.226,2.227-2.154-12.968-12.968-2.154,2.227ZM1005.7,914.448l29.591-28.634-12.826-12.826-28.631,29.591Zm-5.217,5.048,3.079-2.976-11.8-11.8-2.98,3.08a3.119,3.119,0,0,0,.037,4.355l7.308,7.308a3.12,3.12,0,0,0,4.356.033Zm-21.186,21.2,14.55-19.3-6.961-6.957-19.3,14.55L965.073,941.1l10.647-10.649a1.49,1.49,0,0,1,2.109,2.106L967.18,943.2Zm0,0" transform="translate(-943.379 -809)"/>
  <path id="パス_106" data-name="パス 106" d="M1092.522,815.753a12.89,12.89,0,0,1-.54,18.738l-36.946,33.987a11.161,11.161,0,0,1-3.506-2.564l-9.172-9.168a11.173,11.173,0,0,1-2.561-3.507l34-36.959a12.882,12.882,0,0,1,18.722-.527Zm0,0" transform="translate(-943.379 -809)" fill="#00bed6"/>
  <path id="パス_107" data-name="パス 107" d="M1051.669,869.957l-5.506,5.331-13.179-13.176,5.331-5.509a19.806,19.806,0,0,0,1.939,2.249l9.169,9.168a19.922,19.922,0,0,0,2.246,1.937Zm0,0" transform="translate(-943.379 -809)" fill="#00bed6"/>
  <path id="パス_108" data-name="パス 108" d="M1044.02,877.36l-2.227,2.156-13.035-13.035,2.154-2.228Zm0,0" transform="translate(-943.379 -809)" fill="#00bed6"/>
  <path id="パス_109" data-name="パス 109" d="M1039.654,881.588l-2.227,2.154-12.9-12.9,2.154-2.227Zm0,0" transform="translate(-943.379 -809)" fill="#00bed6"/>
  <path id="パス_110" data-name="パス 110" d="M1035.286,885.814,1005.7,914.448l-11.866-11.869,28.631-29.591Zm0,0" transform="translate(-943.379 -809)" fill="#00bed6"/>
  <path id="パス_111" data-name="パス 111" d="M1003.557,916.52l-3.079,2.976a3.12,3.12,0,0,1-4.356-.033l-7.308-7.308a3.119,3.119,0,0,1-.037-4.355l2.98-3.08Zm0,0" transform="translate(-943.379 -809)" fill="#a7b6c4"/>
  <path id="パス_112" data-name="パス 112" d="M993.842,921.393l-14.55,19.3L967.18,943.2l10.649-10.647a1.49,1.49,0,0,0-2.109-2.106L965.073,941.1l2.511-12.112,19.3-14.55Zm0,0" transform="translate(-943.379 -809)" fill="#ffb71b"/>
  <path id="パス_113" data-name="パス 113" d="M961.479,950.676a1.582,1.582,0,0,0-2.577,0c-1.59,2.284-15.523,22.558-15.523,31.214a16.81,16.81,0,0,0,33.621,0c0-8.656-13.933-28.93-15.521-31.212Zm-1.328,41.812a2.313,2.313,0,0,1-2.269,1.889,2.42,2.42,0,0,1-.424-.038c-8.036-1.492-10.293-9.448-10.363-13.444a2.309,2.309,0,0,1,2.269-2.35.309.309,0,0,1,.043,0,2.312,2.312,0,0,1,2.309,2.261c.007.334.276,7.821,6.584,8.989a2.312,2.312,0,0,1,1.851,2.695Zm0,0" transform="translate(-943.379 -809)"/>
  <path id="パス_114" data-name="パス 114" d="M961.479,988.676a1.582,1.582,0,0,0-2.577,0c-1.59,2.284-15.523,22.558-15.523,31.214a16.81,16.81,0,0,0,33.621,0c0-8.656-13.933-28.93-15.521-31.212Zm-1.328,41.812a2.313,2.313,0,0,1-2.269,1.889,2.42,2.42,0,0,1-.424-.038c-8.036-1.492-10.293-9.448-10.363-13.444a2.309,2.309,0,0,1,2.269-2.35.309.309,0,0,1,.043,0,2.312,2.312,0,0,1,2.309,2.261c.007.334.276,7.821,6.584,8.989a2.313,2.313,0,0,1,1.851,2.7Zm0,0" transform="translate(-943.379 -809)" opacity="0.5"/>
  <path id="パス_115" data-name="パス 115" d="M961.479,1026.676a1.582,1.582,0,0,0-2.577,0c-1.59,2.284-15.523,22.558-15.523,31.214a16.81,16.81,0,0,0,33.621,0c0-8.656-13.933-28.93-15.521-31.212Zm-1.328,41.812a2.313,2.313,0,0,1-2.269,1.889,2.42,2.42,0,0,1-.424-.038c-8.036-1.492-10.293-9.448-10.363-13.444a2.309,2.309,0,0,1,2.269-2.35.291.291,0,0,1,.043,0,2.312,2.312,0,0,1,2.309,2.261c.007.334.276,7.821,6.584,8.989a2.313,2.313,0,0,1,1.851,2.7Zm0,0" transform="translate(-943.379 -809)" opacity="0.1"/>
</svg>
