<svg xmlns="http://www.w3.org/2000/svg" width="409.249" height="376.354" viewBox="0 0 409.249 376.354">
  <g id="グループ_11" data-name="グループ 11" transform="translate(-373.471 -1189)">
    <g id="グループ_10" data-name="グループ 10">
      <path id="パス_15" data-name="パス 15" d="M578.093,1281.408l-66.006,145.223,26.4,92.409H617.7l26.4-92.409Zm0,0" fill="#ffb71b"/>
      <path id="パス_16" data-name="パス 16" d="M584.7,1381.962v-99.947H571.493v99.947a26.4,26.4,0,1,0,13.205,0Zm-6.6,38.669a13.2,13.2,0,1,1,13.2-13.2,13.216,13.216,0,0,1-13.2,13.2Zm0,0" fill="#333"/>
      <path id="パス_17" data-name="パス 17" d="M646.907,1222h83.941a26.4,26.4,0,1,0,0-13.2H604.5V1189H551.7v19.439l-126.357.352a26.4,26.4,0,1,0,.007,13.2l84.577-.231a184.512,184.512,0,0,0-116.131,158.666h-20.32v52.805h52.808v-52.805H407.015A171.236,171.236,0,0,1,551.688,1224.04v17.768H604.5V1224.04a171.221,171.221,0,0,1,144.673,156.384H729.914v52.805H782.72v-52.805H762.4A184.51,184.51,0,0,0,646.907,1222Zm109.41-19.8a13.2,13.2,0,1,1-13.205,13.2,13.211,13.211,0,0,1,13.205-13.2ZM399.874,1228.61a13.2,13.2,0,1,1,13.205-13.207,13.213,13.213,0,0,1-13.205,13.207Zm13.2,165.011v26.4h-26.4v-26.4ZM591.3,1228.61H564.9V1202.2h26.4Zm178.217,165.011v26.4h-26.4v-26.4Zm0,0" fill="#333"/>
    </g>
    <rect id="長方形_15" data-name="長方形 15" width="79.297" height="46.544" transform="translate(538.796 1518.811)" fill="#00bed6"/>
  </g>
</svg>
