<svg xmlns="http://www.w3.org/2000/svg" width="31.261" height="30.237" viewBox="0 0 31.261 30.237">
  <defs>
    <style>
      .cls-1 {
        fill: #171c61;
      }
    </style>
  </defs>
  <g id="グループ_508" data-name="グループ 508" transform="translate(0 -10.32)">
    <path id="パス_127" data-name="パス 127" class="cls-1" d="M996.494,3508.777c0-.733-.016-1.467.014-2.2.006-.144.2-.4.3-.4a42.957,42.957,0,0,1,4.325.2,2.093,2.093,0,0,1,1.848,2.223c.028,1.572-.471,2.428-1.76,2.705a15.773,15.773,0,0,1-2.533.195c-.544.026-1.091-.016-1.635.012-.412.021-.582-.1-.564-.541C996.517,3510.243,996.494,3509.509,996.494,3508.777Z" transform="translate(-983.595 -3486.412)"/>
    <path id="パス_126" data-name="パス 126" class="cls-1" d="M999.227,3526.969H986.271a2.381,2.381,0,0,1-2.676-2.685V3499.4a2.373,2.373,0,0,1,2.647-2.663h25.964a2.373,2.373,0,0,1,2.65,2.66q0,12.469,0,24.939a2.366,2.366,0,0,1-2.622,2.637Zm-6.909-14.861c0,2.884.01,5.769-.01,8.654,0,.456.132.585.58.571.989-.032,1.981-.033,2.97,0,.48.016.654-.114.646-.621-.028-1.775.006-3.551-.021-5.326-.008-.494.138-.632.633-.633a43.431,43.431,0,0,0,5.056-.126,5.112,5.112,0,0,0,4.462-3.493,6.553,6.553,0,0,0,.311-3.371,5.382,5.382,0,0,0-2.011-3.557,7.067,7.067,0,0,0-4.429-1.3c-2.509-.018-5.018.007-7.527-.015-.51-.005-.676.137-.671.663C992.331,3506.406,992.318,3509.257,992.318,3512.108Z" transform="translate(-983.595 -3486.412)"/>
  </g>
</svg>
