<svg xmlns="http://www.w3.org/2000/svg" width="81.554" height="81.554" viewBox="0 0 81.554 81.554">
  <defs>
    <style>
      .cls-1 {
        fill: #00bed6;
      }

      .cls-2 {
        fill: #fff;
      }
    </style>
  </defs>
  <g id="グループ_237" data-name="グループ 237" transform="translate(-1117.446 -4467.911)">
    <rect id="長方形_72" data-name="長方形 72" class="cls-1" width="81.554" height="81.554" rx="16.167" transform="translate(1117.446 4467.911)"/>
    <path id="パス_341" data-name="パス 341" class="cls-2" d="M1137.548,4491.172h6.883V4526.2h-3.476v-31.6h-5.509Z"/>
    <path id="パス_342" data-name="パス 342" class="cls-2" d="M1157.1,4508.694q0-6.922,1.483-10.715a12.571,12.571,0,0,1,4.2-5.735,10.179,10.179,0,0,1,6.072-1.951,10.4,10.4,0,0,1,6.168,1.958,13.077,13.077,0,0,1,4.368,5.893,35.554,35.554,0,0,1,.028,21.053,13.026,13.026,0,0,1-4.369,5.894,10.4,10.4,0,0,1-6.2,1.992,10.142,10.142,0,0,1-6.045-1.93,12.6,12.6,0,0,1-4.2-5.749Q1157.1,4515.581,1157.1,4508.694Zm3.31.062a29.068,29.068,0,0,0,1.058,8.978,9.517,9.517,0,0,0,3.133,4.6,6.9,6.9,0,0,0,8.737.041,9.422,9.422,0,0,0,3.076-4.616,27.6,27.6,0,0,0,1.306-9.006,26.829,26.829,0,0,0-1.168-8.661,10.073,10.073,0,0,0-3.228-4.932,6.857,6.857,0,0,0-8.723,0,9.606,9.606,0,0,0-3.119,4.6A28.626,28.626,0,0,0,1160.407,4508.756Z"/>
  </g>
</svg>
