<svg xmlns="http://www.w3.org/2000/svg" width="81.554" height="81.554" viewBox="0 0 81.554 81.554">
  <defs>
    <style>
      .cls-1 {
        fill: #00bed6;
      }

      .cls-2 {
        fill: #fff;
      }
    </style>
  </defs>
  <g id="グループ_214" data-name="グループ 214" transform="translate(-1117.446 -4726.826)">
    <rect id="長方形_74" data-name="長方形 74" class="cls-1" width="81.554" height="81.554" rx="16.167" transform="translate(1117.446 4726.826)"/>
    <path id="パス_301" data-name="パス 301" class="cls-2" d="M1137.621,4750.5h6.893v35.081h-3.481v-31.642h-5.517Z"/>
    <path id="パス_302" data-name="パス 302" class="cls-2" d="M1161.3,4761.474h-3.357a12.037,12.037,0,0,1,3.467-8.516,11.143,11.143,0,0,1,8.213-3.336,10.439,10.439,0,0,1,10.828,10.5,11.539,11.539,0,0,1-1.432,5.6,40.124,40.124,0,0,1-5.531,7.072l-8.748,9.411h16.192v3.383H1157.1l13.4-14.486a43.224,43.224,0,0,0,5.311-6.48,8.766,8.766,0,0,0,1.224-4.45,6.85,6.85,0,0,0-2.2-5.1,8,8,0,0,0-10.992.11A9.628,9.628,0,0,0,1161.3,4761.474Z"/>
  </g>
</svg>
