<svg xmlns="http://www.w3.org/2000/svg" xmlns:xlink="http://www.w3.org/1999/xlink" width="1920" height="386" viewBox="0 0 1920 386">
  <defs>
    <clipPath id="clip-path">
      <rect id="Rectangle_149" data-name="Rectangle 149" width="1920" height="386" transform="translate(0 848)" fill="#fff"/>
    </clipPath>
  </defs>
  <g id="Mask_Group_6" data-name="Mask Group 6" transform="translate(0 -848)" clip-path="url(#clip-path)">
    <g id="Group_155" data-name="Group 155" transform="translate(-1)">
      <path id="Path_178" data-name="Path 178" d="M1875.321,995.767h1.583c-3.165-25.005-7.6-58.87-7.6-87.038V848.168h-66.653l49.564,95.376Z" fill="#fff"/>
      <path id="Path_179" data-name="Path 179" d="M344.121,1022.035c31.016,0,50.322-28.8,50.322-74.693,0-45.576-19.306-72.479-50.322-72.479s-50.008,26.9-50.008,72.479C294.113,993.235,313.1,1022.035,344.121,1022.035Z" fill="#fff"/>
      <path id="Path_180" data-name="Path 180" d="M890.075,947.342c0-56.021-26.9-71.529-64.882-71.529H817.6V1020.77h7.595C863.174,1020.77,890.075,1003.363,890.075,947.342Z" fill="#fff"/>
      <path id="Path_181" data-name="Path 181" d="M560.29,940.7c11.393,0,24.052-6.013,33.231-22.155-4.746-38.93-19.623-50.007-34.181-50.007-14.876,0-27.535,10.445-27.535,37.664C531.8,931.517,544.464,940.7,560.29,940.7Z" fill="#fff"/>
      <g id="Component_7_1" data-name="Component 7 – 1" transform="translate(-55.797 848.168)">
        <path id="Path_182" data-name="Path 182" d="M948.149,1115.7c-12.849,0-24.545,4.331-35.374,10.828l8.952,16.893c8.23-4.62,15.016-7.219,21.513-7.219,8.374,0,11.839,3.9,12.417,10.539-32.053,3.466-45.624,12.85-45.624,30.176,0,13.717,9.239,24.978,24.4,24.978,9.1,0,16.748-4.187,23.534-10.251h.578l1.877,8.23h20.935v-46.635C981.357,1127.541,969.373,1115.7,948.149,1115.7Zm7.508,59.774c-3.754,4.042-7.22,6.5-12.417,6.5-5.342,0-8.807-2.31-8.807-7.075,0-5.775,5.2-10.395,21.224-12.561Z" transform="translate(55.797 -848.168)" fill="#ffb71b"/>
        <path id="Path_183" data-name="Path 183" d="M1024.379,1132.017h-.577l-1.733-14.294h-20.935v82.153h25.555v-46.924c4.332-10.828,11.7-14.727,17.759-14.727a33.4,33.4,0,0,1,8.952,1.3l4.331-22.091c-2.31-1.01-5.053-1.732-9.962-1.732C1039.539,1115.7,1030.443,1121.044,1024.379,1132.017Z" transform="translate(55.797 -848.168)" fill="#ffb71b"/>
        <path id="Path_184" data-name="Path 184" d="M892.131,1181.828c-6.065,0-10.4-3.609-10.4-12.7v-31.331h19.347v-20.069H881.735v-21.657H860.366l-2.888,21.657-12.56,1.011v19.058h11.117v31.62c0,19.491,8.374,32.485,29.021,32.485a60.4,60.4,0,0,0,18.625-3.032l-4.042-18.48A28.91,28.91,0,0,1,892.131,1181.828Z" transform="translate(55.797 -848.168)" fill="#ffb71b"/>
        <path id="Path_185" data-name="Path 185" d="M820.374,1138.8l-13.428-5.343c-9.528-3.753-16.314-6.063-16.314-11.983,0-5.775,4.908-8.952,12.85-8.952,8.374,0,15.015,2.888,22.09,8.23l12.85-16.171a49.993,49.993,0,0,0-34.94-14.149c-22.813,0-38.983,14.438-38.983,32.486,0,15.593,10.54,24.978,21.8,29.454l13.716,5.775c9.24,3.9,15.159,5.919,15.159,12.128,0,5.775-4.476,9.385-14,9.385-8.519,0-18.481-4.476-26.133-10.974l-14.583,17.759a60.114,60.114,0,0,0,40.139,15.449c25.988,0,41-15.737,41-33.64C841.6,1153.1,833.657,1144.145,820.374,1138.8Z" transform="translate(55.797 -848.168)" fill="#ffb71b"/>
        <path id="Path_186" data-name="Path 186" d="M1107.54,1181.828c-6.064,0-10.4-3.609-10.4-12.7v-31.331h19.348v-20.069h-19.348v-21.657h-21.368l-2.888,21.657-12.561,1.011v19.058h11.117v31.62c0,19.491,8.375,32.485,29.021,32.485a60.4,60.4,0,0,0,18.625-3.032l-4.042-18.48A28.919,28.919,0,0,1,1107.54,1181.828Z" transform="translate(55.797 -848.168)" fill="#ffb71b"/>
        <rect id="Rectangle_57" data-name="Rectangle 57" width="40.86" height="18.048" transform="translate(1178.783 300.886)" fill="#ffb71b"/>
        <path id="Path_187" data-name="Path 187" d="M1337.965,1115.7c-8.519,0-16.6,4.186-23.1,9.962h-.578l-1.732-7.941h-20.935v112.04h25.554v-23.534l-.721-12.85c5.486,5.486,12.128,8.518,19.058,8.518,17.615,0,34.507-16.17,34.507-44.469C1370.017,1132.161,1357.6,1115.7,1337.965,1115.7Zm-8.519,65.115a17.953,17.953,0,0,1-12.273-4.764v-32.486c4.477-4.764,8.375-6.93,13.14-6.93,9.095,0,13.283,6.786,13.283,21.224C1343.6,1174.32,1337.243,1180.817,1329.446,1180.817Z" transform="translate(55.797 -848.168)" fill="#ffb71b"/>
        <path id="Path_188" data-name="Path 188" d="M1244.7,1152.086c0,20.357-6.5,27.577-18.192,27.577-11.839,0-17.9-7.22-17.9-27.577v-59.63h-25.7v56.886c0,36.24,14.872,52.555,43.6,52.555,28.587,0,43.025-16.315,43.025-52.555v-56.886H1244.7Z" transform="translate(55.797 -848.168)" fill="#ffb71b"/>
        <path id="Path_189" data-name="Path 189" d="M1946,1251.369V1066.346h-80.489l-58.237-113.623-23.105-51.59h-1.581c2.53,26.27,7.279,58.552,7.279,87.038v78.175h-53.8V848.168h-61.768a107.857,107.857,0,0,1,10.183,8.971l-30.068,36.081c-11.394-10.444-23.737-18.357-43.359-18.357-34.816,0-59.821,27.22-59.821,73.112,0,46.842,20.89,74.06,64.567,74.06,8.546,0,17.407-2.215,22.471-6.012v-37.98h-37.345v-46.21h87.669v110.142c-16.458,15.825-45.576,28.8-78.491,28.8-65.516,0-116.79-41.145-116.79-120.9,0-46.429,18.5-81.111,46.642-101.706h-90v218.178H1393.3V848.168h-56.983a99.711,99.711,0,0,1,10.777,9.288L1318.926,892.9c-15.508-11.711-30.069-18.041-48.426-18.041-17.407,0-28.168,6.964-28.168,19.624,0,12.976,14.876,18.04,35.765,26.268l29.435,11.712c29.118,11.71,46.526,31.333,46.526,64.565,0,39.247-32.918,73.745-89.887,73.745-30.7,0-63.617-11.394-87.987-33.866l31.967-38.929c16.773,14.242,38.613,24.053,57.285,24.053,20.89,0,30.7-7.912,30.7-20.572,0-13.609-12.978-18.041-33.234-26.586l-30.068-12.66c-24.686-9.811-47.791-30.384-47.791-64.566,0-19.3,8.455-36.7,22.9-49.483h-66.893v29.544h-92.733v43.677h78.808v47.475h-78.808v50.007h96.216v47.475H991.669V848.168H901.511C930.816,865.95,948,898.054,948,947.342c0,81.973-47.475,119-116.156,119h-70.9V848.168H613.205c19.5,18.679,32.855,50.186,32.855,97.591,0,85.456-44.942,125.018-93.051,125.018-31.65,0-54.437-13.294-69.313-28.169l29.435-33.549c7.912,8.546,22.47,16.142,36.081,16.142,24.053,0,43.043-17.091,45.258-68.681-11.393,15.192-31.333,23.738-44.942,23.738-39.562,0-69-23.421-69-74.061,0-24.646,8.622-44.36,22.395-58.029h-91.4c25.442,20.22,40.517,54.012,40.517,99.174,0,77.226-43.677,123.435-107.926,123.435s-107.927-46.209-107.927-123.435c0-45.278,15.03-79,40.4-99.174H185.188a107.84,107.84,0,0,1,10.182,8.971L165.3,893.22c-11.393-10.444-23.736-18.357-43.358-18.357-34.817,0-59.821,27.22-59.821,73.112,0,46.842,20.89,74.06,64.567,74.06,8.546,0,17.407-2.215,22.47-6.012v-37.98H111.815v-46.21h87.67v110.142c-16.458,15.825-45.576,28.8-78.491,28.8-65.516,0-116.79-41.145-116.79-120.9,0-46.429,18.5-81.111,46.642-101.706H-55.8v403.2ZM800.595,1201.9a60.114,60.114,0,0,1-40.139-15.449l14.583-17.759c7.652,6.5,17.614,10.974,26.133,10.974,9.528,0,14-3.61,14-9.385,0-6.209-5.919-8.23-15.159-12.128l-13.716-5.775c-11.262-4.476-21.8-13.861-21.8-29.454,0-18.048,16.17-32.486,38.983-32.486a49.993,49.993,0,0,1,34.94,14.149l-12.85,16.171c-7.075-5.342-13.716-8.23-22.09-8.23-7.942,0-12.85,3.177-12.85,8.952,0,5.92,6.786,8.23,16.314,11.983l13.428,5.343c13.283,5.342,21.225,14.293,21.225,29.454C841.6,1186.16,826.583,1201.9,800.595,1201.9Zm84.461,0c-20.647,0-29.021-12.994-29.021-32.485v-31.62H844.918v-19.058l12.56-1.011,2.888-21.657h21.369v21.657h19.347v20.069H881.735v31.331c0,9.1,4.331,12.7,10.4,12.7a28.91,28.91,0,0,0,7.508-1.443l4.042,18.48A60.4,60.4,0,0,1,885.056,1201.9Zm96.3-2.021H960.422l-1.877-8.23h-.578c-6.786,6.064-14.438,10.251-23.534,10.251-15.161,0-24.4-11.261-24.4-24.978,0-17.326,13.571-26.71,45.624-30.176-.578-6.641-4.043-10.539-12.417-10.539-6.5,0-13.283,2.6-21.513,7.219l-8.952-16.893c10.829-6.5,22.525-10.828,35.374-10.828,21.224,0,33.208,11.839,33.208,37.539Zm72.043-60.351a33.4,33.4,0,0,0-8.952-1.3c-6.064,0-13.427,3.9-17.759,14.727v46.924h-25.555v-82.153h20.935l1.733,14.294h.577c6.064-10.973,15.16-16.315,23.39-16.315,4.909,0,7.652.722,9.962,1.732Zm47.065,62.372c-20.646,0-29.021-12.994-29.021-32.485v-31.62h-11.117v-19.058l12.561-1.011,2.888-21.657h21.368v21.657h19.348v20.069h-19.348v31.331c0,9.1,4.332,12.7,10.4,12.7a28.919,28.919,0,0,0,7.508-1.443l4.042,18.48A60.4,60.4,0,0,1,1100.465,1201.9Zm63.381-34.795h-40.86v-18.048h40.86Zm105.685-17.76c0,36.24-14.438,52.555-43.025,52.555-28.732,0-43.6-16.315-43.6-52.555v-56.886h25.7v59.63c0,20.357,6.065,27.577,17.9,27.577,11.694,0,18.192-7.22,18.192-27.577v-59.63h24.833Zm65.979,52.555c-6.93,0-13.572-3.032-19.058-8.518l.721,12.85v23.534h-25.554v-112.04h20.935l1.732,7.941h.578c6.5-5.776,14.582-9.962,23.1-9.962,19.635,0,32.052,16.459,32.052,41.726C1370.017,1185.727,1353.125,1201.9,1335.51,1201.9Z" transform="translate(55.797 -848.168)" fill="#fff"/>
        <path id="Path_190" data-name="Path 190" d="M934.433,1174.9c0,4.765,3.465,7.075,8.807,7.075,5.2,0,8.663-2.455,12.417-6.5v-13.139C939.631,1164.5,934.433,1169.123,934.433,1174.9Z" transform="translate(55.797 -848.168)" fill="#fff"/>
        <path id="Path_191" data-name="Path 191" d="M1330.313,1136.637c-4.765,0-8.663,2.166-13.14,6.93v32.486a17.953,17.953,0,0,0,12.273,4.764c7.8,0,14.15-6.5,14.15-22.956C1343.6,1143.423,1339.408,1136.637,1330.313,1136.637Z" transform="translate(55.797 -848.168)" fill="#fff"/>
      </g>
    </g>
  </g>
</svg>
