<svg xmlns="http://www.w3.org/2000/svg" width="171.512" height="171.512" viewBox="0 0 171.512 171.512">
  <defs>
    <style>
      .cls-1 {
        fill: #ffb71b;
      }

      .cls-2 {
        fill: #00bed6;
      }
    </style>
  </defs>
  <g id="グループ_159" data-name="グループ 159" transform="translate(-238.19 -1451.193)">
    <g id="グループ_157" data-name="グループ 157">
      <path id="パス_192" data-name="パス 192" class="cls-1" d="M337.52,1568.866H308.433v-1.939a26.388,26.388,0,0,0-5.9-16.308,27.022,27.022,0,0,1-5.487-20.347,27.153,27.153,0,0,1,54.054,3.689,26.8,26.8,0,0,1-5.9,16.879,25.812,25.812,0,0,0-5.73,15.968v1.939Zm0,0"/>
      <path id="パス_193" data-name="パス 193" class="cls-2" d="M384.023,1508.372l-2.253-11.256H370.487v3.878h5.659l-7,8.755c-.379-.769-.743-1.547-1.161-2.3l-3.386,1.894c.683,1.22,1.3,2.479,1.867,3.755l-2.073,2.59-11.683-9.736-14.175,18.9a7.683,7.683,0,0,0-2.951-.592,7.765,7.765,0,0,0-7.757,7.756v3.879h-7.756v-3.879a7.743,7.743,0,0,0-10.708-7.166l-14.177-18.9L283.5,1515.69l-2.069-2.588c.588-1.321,1.222-2.626,1.933-3.886l-3.379-1.9c-.446.792-.838,1.616-1.24,2.432l-7-8.753h5.66v-3.878H266.121l-2.252,11.256,3.8.761,1.121-5.616,8.187,10.231c-.137.348-.3.684-.426,1.033l1.763.642,4.626,5.781,11.589-9.653,11.744,15.659a7.661,7.661,0,0,0-1.723,4.811,7.763,7.763,0,0,0,7.757,7.757h3.878v25.21h-7.756a5.826,5.826,0,0,0-5.818,5.819,5.76,5.76,0,0,0,1.075,3.348l-1.588,3.308c.806.388,1.634.719,2.454,1.061,0,.014,0,.026,0,.04a5.8,5.8,0,0,0,2.717,4.9,5.737,5.737,0,0,0-.778,2.854,5.826,5.826,0,0,0,5.818,5.817h23.27a5.826,5.826,0,0,0,5.818-5.817,5.73,5.73,0,0,1,1.939-7.757c0-.014,0-.026,0-.04.822-.344,1.648-.673,2.454-1.061l-1.587-3.308a5.8,5.8,0,0,0-4.741-9.167H331.7v-25.21h3.878a7.765,7.765,0,0,0,7.757-7.757,7.677,7.677,0,0,0-1.723-4.813l11.744-15.661,11.589,9.655,4.436-5.544,2.01-.724c-.144-.4-.33-.787-.483-1.186l8.187-10.231,1.123,5.616ZM312.311,1535.9a3.876,3.876,0,0,1-3.566-5.4l2.015,2.684,3.1-2.325-2-2.67a3.251,3.251,0,0,1,.453-.047,3.882,3.882,0,0,1,3.878,3.878v3.879Zm27.149,42.662a1.94,1.94,0,0,1-1.94,1.939H310.372a1.939,1.939,0,1,1,0-3.878H337.52a1.94,1.94,0,0,1,1.94,1.939Zm-3.879,9.7h-23.27a1.94,1.94,0,0,1,0-3.879h23.27a1.94,1.94,0,0,1,0,3.879Zm5.818-17.453a1.939,1.939,0,0,1-1.939,1.939H308.43a1.939,1.939,0,0,1,0-3.878h31.028a1.941,1.941,0,0,1,1.941,1.939Zm-21.331-5.817v-25.21h7.756v25.21Zm19.392-32.967a3.883,3.883,0,0,1-3.879,3.879H331.7v-3.879a3.882,3.882,0,0,1,3.878-3.878,3.53,3.53,0,0,1,.451.047l-2,2.668,3.1,2.325,2.013-2.687a3.887,3.887,0,0,1,.314,1.525Zm0,0"/>
      <path id="パス_194" data-name="パス 194" class="cls-1" d="M305.552,1489.256l-1.533-3.559a50.63,50.63,0,0,0-7.26,3.856l2.094,3.267a46.773,46.773,0,0,1,6.7-3.564Zm0,0"/>
      <path id="パス_195" data-name="パス 195" class="cls-1" d="M320.225,1485.627l-.3-3.867a49.918,49.918,0,0,0-8.116,1.315l.937,3.763a46.315,46.315,0,0,1,7.48-1.211Zm0,0"/>
      <path id="パス_196" data-name="パス 196" class="cls-1" d="M292.822,1497.419l-2.6-2.882a50.951,50.951,0,0,0-5.638,5.969l3.026,2.427a46.612,46.612,0,0,1,5.208-5.514Zm0,0"/>
      <path id="パス_197" data-name="パス 197" class="cls-1" d="M277.854,1538.536l-3.838.537a50.077,50.077,0,0,0,1.8,8.022l3.7-1.16a46.747,46.747,0,0,1-1.664-7.4Zm0,0"/>
      <path id="パス_198" data-name="パス 198" class="cls-1" d="M351.262,1489.64a50.2,50.2,0,0,0-7.241-3.878l-1.546,3.557a46.515,46.515,0,0,1,6.683,3.579Zm0,0"/>
      <path id="パス_199" data-name="パス 199" class="cls-1" d="M336.239,1483.111a50.336,50.336,0,0,0-8.106-1.339l-.317,3.867a46.155,46.155,0,0,1,7.48,1.236Zm0,0"/>
      <path id="パス_200" data-name="パス 200" class="cls-1" d="M360.366,1503.045l3.032-2.416a50.929,50.929,0,0,0-5.619-5.992l-2.606,2.875a46.753,46.753,0,0,1,5.193,5.533Zm0,0"/>
      <path id="パス_201" data-name="パス 201" class="cls-1" d="M368.325,1546.081l3.7,1.171a50.133,50.133,0,0,0,1.83-8.013l-3.838-.549a46.491,46.491,0,0,1-1.689,7.391Zm0,0"/>
      <path id="パス_202" data-name="パス 202" class="cls-1" d="M369.721,1523.566a47.454,47.454,0,0,1,.755,7.55l3.879-.076a50.977,50.977,0,0,0-.82-8.171Zm0,0"/>
      <path id="パス_203" data-name="パス 203" class="cls-1" d="M361.469,1559.55l3.123,2.3a50.821,50.821,0,0,0,4.317-6.995l-3.454-1.762a47.142,47.142,0,0,1-3.986,6.456Zm0,0"/>
      <path id="パス_204" data-name="パス 204" class="cls-1" d="M350.652,1570.127l2.226,3.175a50.249,50.249,0,0,0,6.325-5.254l-2.717-2.769a46.246,46.246,0,0,1-5.834,4.848Zm0,0"/>
      <path id="パス_205" data-name="パス 205" class="cls-1" d="M278.914,1554.714a50.734,50.734,0,0,0,4.293,7.01l3.133-2.289a46.726,46.726,0,0,1-3.966-6.472Zm0,0"/>
      <path id="パス_206" data-name="パス 206" class="cls-1" d="M278.2,1523.419l-3.814-.714a51.129,51.129,0,0,0-.846,8.173l3.878.087a46.962,46.962,0,0,1,.782-7.546Zm0,0"/>
      <path id="パス_207" data-name="パス 207" class="cls-1" d="M288.576,1567.941a51.767,51.767,0,0,0,6.3,5.272l2.243-3.167a47.028,47.028,0,0,1-5.82-4.87Zm0,0"/>
    </g>
    <g id="グループ_158" data-name="グループ 158">
      <path id="パス_208" data-name="パス 208" class="cls-2" d="M323.946,1622.7a85.756,85.756,0,1,1,85.756-85.756A85.853,85.853,0,0,1,323.946,1622.7Zm0-166.512a80.756,80.756,0,1,0,80.756,80.756A80.847,80.847,0,0,0,323.946,1456.193Z"/>
    </g>
  </g>
</svg>
