<svg xmlns="http://www.w3.org/2000/svg" width="171.511" height="171.512" viewBox="0 0 171.511 171.512">
  <defs>
    <style>
      .cls-1 {
        fill: #00bed6;
      }

      .cls-2 {
        fill: #ffb71b;
      }
    </style>
  </defs>
  <g id="グループ_185" data-name="グループ 185" transform="translate(-1001.154 -1448.693)">
    <g id="グループ_166" data-name="グループ 166">
      <path id="パス_222" data-name="パス 222" class="cls-1" d="M1086.91,1620.2a85.756,85.756,0,1,1,85.755-85.756A85.853,85.853,0,0,1,1086.91,1620.2Zm0-166.512a80.756,80.756,0,1,0,80.755,80.756A80.847,80.847,0,0,0,1086.91,1453.693Z"/>
    </g>
    <g id="グループ_184" data-name="グループ 184">
      <g id="グループ_175" data-name="グループ 175">
        <g id="グループ_167" data-name="グループ 167">
          <path id="パス_223" data-name="パス 223" class="cls-1" d="M1122.076,1546.194h-41.768a2,2,0,0,1,0-4h41.741a7.2,7.2,0,0,0,4.531-1.819c1.319-1.306,1.988-3.3,1.988-5.926a2.064,2.064,0,0,1,.02-.284,5.856,5.856,0,0,0-1.154-4.133c-1.007-1.145-2.711-1.726-5.065-1.726h-9.691a2,2,0,0,1-.052-4,19.65,19.65,0,0,0,5.559-1.118c4.739-1.783,4.739-4.667,4.739-5.616,0-.046,0-.091.005-.136a5.541,5.541,0,0,0-1.408-3.7c-1.226-1.287-3.234-1.94-5.968-1.94a7.522,7.522,0,0,0-5.848,3.239,2,2,0,0,1-3.246-2.338c1.2-1.729,3.345-5.947,2.307-7.929-.682-1.3-2.95-1.59-4.758-1.6-.7.053-8.493.9-10.552,12.1a2,2,0,1,1-3.934-.722c1.4-7.589,5.146-11.362,8.048-13.191a13.743,13.743,0,0,1,6.292-2.182h.009c4.335,0,7.146,1.261,8.443,3.746a7.863,7.863,0,0,1,.472,5.314,9.617,9.617,0,0,1,2.816-.436h0c3.86,0,6.861,1.091,8.871,3.243a9.559,9.559,0,0,1,2.448,6.572,8.816,8.816,0,0,1-3.013,6.759,9.485,9.485,0,0,1,6.565,3.059,9.839,9.839,0,0,1,2.092,7.129c-.023,3.709-1.107,6.637-3.224,8.7A10.981,10.981,0,0,1,1122.076,1546.194Z"/>
        </g>
        <g id="グループ_168" data-name="グループ 168">
          <path id="パス_224" data-name="パス 224" class="cls-1" d="M1073.926,1528.414l-.144,0h-18.924a2,2,0,0,1-1.562-.751c-4.525-5.656-1.6-11.945.579-14.479,2.249-2.9,4.875-4.44,7.741-4.495a8.866,8.866,0,0,1,3.758.8,9.359,9.359,0,0,1,3.575-6.051,7.1,7.1,0,0,1,5.42-1.832,10.434,10.434,0,0,1,4.9,1.931,9.17,9.17,0,0,1,4.088-5.691c.038-.023.076-.042.115-.062,8.321-4.108,14.271,1.279,16.256,4.7a2,2,0,0,1-3.456,2.014c-.4-.681-4.109-6.489-10.953-3.168a5.255,5.255,0,0,0-1.932,6.363,2,2,0,0,1-3.478,1.846c-.811-1.025-3.456-3.742-5.894-3.952a3.174,3.174,0,0,0-2.484.907,2.1,2.1,0,0,1-.2.156,5.305,5.305,0,0,0-1.609,6.38,2,2,0,0,1-3.4,1.993c-.014-.016-2.04-2.342-4.546-2.342h-.1c-1.591.039-3.173,1.057-4.7,3.026-.212.254-3.7,4.475-1.082,8.7h17.923c.036,0,.073,0,.109,0h0a5.7,5.7,0,0,0,3.768-1.47c1.259-1.214,1.9-3.165,1.9-5.8a2,2,0,0,1,4,0c0,3.8-1.069,6.736-3.178,8.733A9.739,9.739,0,0,1,1073.926,1528.414Z"/>
        </g>
        <g id="グループ_169" data-name="グループ 169">
          <path id="パス_225" data-name="パス 225" class="cls-1" d="M1065.613,1546.194h-12.708a2,2,0,0,1-1.456-.629c-3.287-3.493-4.731-7.141-4.29-10.841.724-6.08,6.365-9.829,6.6-9.987a2,2,0,0,1,2.193,3.346c-.06.04-4.341,2.928-4.829,7.135-.262,2.263.635,4.607,2.667,6.976h11.818a2,2,0,0,1,0,4Z"/>
        </g>
        <g id="グループ_170" data-name="グループ 170">
          <path id="パス_226" data-name="パス 226" class="cls-1" d="M1089.676,1546.194a2,2,0,0,1-1.967-1.655c-.085-.48-2.007-11.849,2.931-17.726a9.791,9.791,0,0,1,7.876-3.466,2,2,0,0,1,0,4,5.888,5.888,0,0,0-4.813,2.039c-3.115,3.707-2.539,11.7-2.055,14.464a2,2,0,0,1-1.625,2.314A1.933,1.933,0,0,1,1089.676,1546.194Z"/>
        </g>
        <g id="グループ_171" data-name="グループ 171">
          <path id="パス_227" data-name="パス 227" class="cls-1" d="M1117.046,1546.194c-.04,0-.081,0-.121,0a2,2,0,0,1-1.879-2.076,4.573,4.573,0,0,0-1.5-2.981c-1.727-1.747-5.646-3.83-14.5-3.83a2,2,0,0,1,0-4c8.377,0,14.275,1.751,17.529,5.205a8.226,8.226,0,0,1,2.464,5.806A2,2,0,0,1,1117.046,1546.194Z"/>
        </g>
        <g id="グループ_172" data-name="グループ 172">
          <path id="パス_228" data-name="パス 228" class="cls-1" d="M1076.048,1543.853a2,2,0,0,1-1.9-1.388c-2.569-7.972-9.14-7.484-9.42-7.459a2,2,0,1,1-.353-3.984c3.471-.306,10.75,1.434,13.58,10.216a2,2,0,0,1-1.9,2.615Z"/>
        </g>
        <g id="グループ_173" data-name="グループ 173">
          <path id="パス_229" data-name="パス 229" class="cls-1" d="M1079.456,1562.167h-24.6a2.01,2.01,0,0,1-.852-.19c-3.5-1.648-5.622-4.023-6.307-7.06-1.318-5.837,3.456-11.742,3.659-11.991a2,2,0,0,1,3.1,2.533h0c-1.044,1.285-3.593,5.333-2.851,8.588.385,1.691,1.6,3.042,3.718,4.12h23.757c2.093-.858,5.832-3.045,5.832-5.241a2,2,0,0,1,4,0c0,5.7-7.862,8.783-8.758,9.116A2,2,0,0,1,1079.456,1562.167Z"/>
        </g>
        <g id="グループ_174" data-name="グループ 174">
          <path id="パス_230" data-name="パス 230" class="cls-1" d="M1090.956,1554.181h-28.644a2,2,0,0,1,0-4h28.533c.776-.1,5.085-.854,5.149-5.587a2,2,0,0,1,2-1.974h.027a2,2,0,0,1,1.974,2.027c-.093,6.9-5.833,9.248-8.855,9.525Q1091.047,1554.181,1090.956,1554.181Z"/>
        </g>
      </g>
      <g id="グループ_180" data-name="グループ 180">
        <g id="グループ_176" data-name="グループ 176">
          <path id="パス_231" data-name="パス 231" class="cls-2" d="M1137.62,1530.009a2,2,0,0,1-1.982-1.75,49.14,49.14,0,0,0-96.731-4.424l3.447-2.243a2,2,0,1,1,2.182,3.353l-7.285,4.741a2,2,0,0,1-3.075-1.926,53.137,53.137,0,0,1,105.431,0,2,2,0,0,1-1.734,2.234A1.969,1.969,0,0,1,1137.62,1530.009Z"/>
        </g>
        <g id="グループ_177" data-name="グループ 177">
          <path id="パス_232" data-name="パス 232" class="cls-2" d="M1086.89,1587.6a52.98,52.98,0,0,1-52.865-47.644,2,2,0,0,1,3.978-.41,49.158,49.158,0,0,0,97,5.016l-1.579,1.277a2,2,0,0,1-2.515-3.109l5.6-4.534a2,2,0,0,1,3.247,1.76A52.979,52.979,0,0,1,1086.89,1587.6Z"/>
        </g>
        <g id="グループ_178" data-name="グループ 178">
          <path id="パス_233" data-name="パス 233" class="cls-2" d="M1036.162,1530.009a2,2,0,0,1-1.816-1.159l-3.364-7.259a2,2,0,0,1,3.629-1.682l3.364,7.259a2,2,0,0,1-1.813,2.841Z"/>
        </g>
        <g id="グループ_179" data-name="グループ 179">
          <path id="パス_234" data-name="パス 234" class="cls-2" d="M1141.025,1547.986a2,2,0,0,1-1.774-1.074l-3.258-6.237a2,2,0,0,1,3.545-1.852l3.257,6.238a2,2,0,0,1-1.77,2.925Z"/>
        </g>
      </g>
      <g id="グループ_181" data-name="グループ 181">
        <path id="パス_235" data-name="パス 235" class="cls-2" d="M1047.278,1492.763h-6.07v-6.07h-2.343v6.07H1032.8v2.343h6.069v6.07h2.343v-6.07h6.07Z"/>
      </g>
      <g id="グループ_182" data-name="グループ 182">
        <path id="パス_236" data-name="パス 236" class="cls-2" d="M1115.287,1554.47h-6.069v-6.07h-2.343v6.07h-6.07v2.343h6.07v6.069h2.343v-6.069h6.069Z"/>
      </g>
      <g id="グループ_183" data-name="グループ 183">
        <path id="パス_237" data-name="パス 237" class="cls-2" d="M1106.875,1493.382h-2.859v-2.855h-1.1v2.855h-2.855v1.1h2.855v2.857h1.1v-2.857h2.859Z"/>
      </g>
    </g>
  </g>
</svg>
