<svg xmlns="http://www.w3.org/2000/svg" width="171.512" height="171.512" viewBox="0 0 171.512 171.512">
  <defs>
    <style>
      .cls-1 {
        fill: #00bed6;
      }

      .cls-2 {
        fill: #f9ba48;
      }

      .cls-3 {
        fill: none;
        stroke: #00bed6;
        stroke-miterlimit: 10;
        stroke-width: 5px;
      }
    </style>
  </defs>
  <g id="グループ_165" data-name="グループ 165" transform="translate(-746.833 -1451.193)">
    <g id="グループ_164" data-name="グループ 164">
      <path id="パス_213" data-name="パス 213" class="cls-1" d="M877.909,1489.949a6.721,6.721,0,0,0-6.714,6.715,6.645,6.645,0,0,0,1.017,3.511l-38.036,44.373a6.627,6.627,0,0,0-3.267-.884,6.7,6.7,0,0,0-4.769,2l-12.81-8.968a6.636,6.636,0,0,0,.795-3.1,6.715,6.715,0,0,0-13.429,0,6.641,6.641,0,0,0,.952,3.389l-10.991,10.989a6.632,6.632,0,0,0-3.389-.951,6.714,6.714,0,1,0,6.714,6.714,6.635,6.635,0,0,0-.952-3.388l10.992-10.991a6.576,6.576,0,0,0,7.046-.146l13.4,9.38a6.706,6.706,0,1,0,12.14-1.721l38.036-44.375a6.627,6.627,0,0,0,3.266.885,6.715,6.715,0,0,0,0-13.429Zm-90.641,67.143a3.357,3.357,0,1,1,3.358-3.358,3.36,3.36,0,0,1-3.358,3.358Zm20.142-20.143a3.357,3.357,0,1,1,3.357-3.356,3.361,3.361,0,0,1-3.357,3.356Zm23.5,16.785a3.357,3.357,0,1,1,3.358-3.356,3.359,3.359,0,0,1-3.358,3.356Zm47-53.712a3.357,3.357,0,1,1,3.356-3.358,3.361,3.361,0,0,1-3.356,3.358Zm0,0"/>
      <g id="グループ_163" data-name="グループ 163">
        <path id="パス_214" data-name="パス 214" class="cls-2" d="M827.553,1560.448l-8.392-9.789v33.29h6.712v-23.5Z"/>
        <path id="パス_215" data-name="パス 215" class="cls-2" d="M817.481,1548.7l-8.392-4.2v39.446H815.8V1548.7Z"/>
        <path id="パス_216" data-name="パス 216" class="cls-2" d="M805.733,1583.949v-39.167l-8.394,5.6h1.68v33.571Z"/>
        <path id="パス_217" data-name="パス 217" class="cls-2" d="M787.268,1563.806h1.678v20.143h6.714v-31.333Z"/>
        <path id="パス_218" data-name="パス 218" class="cls-2" d="M867.837,1515.128h1.68v68.82h6.713v-75.813Z"/>
        <path id="パス_219" data-name="パス 219" class="cls-2" d="M847.694,1538.627h1.68v45.321h6.715v-55.113Z"/>
        <path id="パス_220" data-name="パス 220" class="cls-2" d="M857.766,1526.879h1.678v57.07h6.714v-66.862Z"/>
        <rect id="長方形_66" data-name="長方形 66" class="cls-2" width="6.715" height="23.501" transform="translate(829.231 1560.448)"/>
        <path id="パス_221" data-name="パス 221" class="cls-2" d="M837.624,1560.448H839.3v23.5h6.714v-41.685Z"/>
      </g>
    </g>
    <circle id="楕円形_12" data-name="楕円形 12" class="cls-3" cx="83.256" cy="83.256" r="83.256" transform="translate(749.333 1453.693)"/>
  </g>
</svg>
