<svg xmlns="http://www.w3.org/2000/svg" width="171.512" height="171.512" viewBox="0 0 171.512 171.512">
  <defs>
    <style>
      .cls-1 {
        fill: #f9ba48;
      }

      .cls-2 {
        fill: #00bed6;
      }
    </style>
  </defs>
  <g id="グループ_162" data-name="グループ 162" transform="translate(-492.511 -1451.193)">
    <g id="グループ_160" data-name="グループ 160">
      <path id="パス_209" data-name="パス 209" class="cls-1" d="M557.327,1506.344a16.108,16.108,0,1,0,16.108,16.108H557.327Zm0,0"/>
      <path id="パス_210" data-name="パス 210" class="cls-1" d="M562.158,1501.512v16.108h16.108a16.106,16.106,0,0,0-16.108-16.108Zm0,0"/>
      <path id="パス_211" data-name="パス 211" class="cls-2" d="M628.2,1496.679v-9.665H528.332v9.665h4.833v57.989h-4.833v9.665h28l-10.11,20.22L549.1,1586l10.829-21.663h16.724v20.94h3.222v-20.94H596.6l10.831,21.661.822-.411a6.337,6.337,0,0,0,8.672-.926,6.416,6.416,0,0,0,11.277-4.215v-46.324a11.622,11.622,0,0,0-7.293-10.924,9.639,9.639,0,0,0,2.46-15.981v-10.534Zm-96.65-3.222v-3.222h93.428v3.222Zm0,64.433h74.1v3.221h-74.1Zm74.1,6.443v10.9l-5.447-10.9Zm19.33-30.215v46.324a3.221,3.221,0,0,1-6.443,0V1557.89h-3.223v22.552a3.222,3.222,0,0,1-6.444,0v-45.435l-9.086,4.037a2.931,2.931,0,0,1-3.251-.6l-8.269-8.27a1.806,1.806,0,1,1,2.553-2.554l8.172,8.171,1.1-.711c5-3.246,12.57-8.164,12.918-8.38a8.017,8.017,0,0,1,4.875-.968,8.36,8.36,0,0,1,7.1,8.389Zm-8.055-13.278a6.443,6.443,0,1,1,6.444-6.443,6.449,6.449,0,0,1-6.444,6.443Zm3.222-15.543a9.654,9.654,0,0,0-7.215,17.892,11.246,11.246,0,0,0-1.508.7c-.174.1-4.211,2.713-12,7.778l-6.326-6.326a5.032,5.032,0,0,0-5.49-1.08l-7.99-12.348-2.7,1.752,8.266,12.773a4.963,4.963,0,0,0,.809,6.014l8.27,8.27a6.174,6.174,0,0,0,6.838,1.27l4.555-2.028v14.7H536.385v-57.989h83.763Zm0,0"/>
      <rect id="長方形_60" data-name="長方形 60" class="cls-2" width="25.773" height="3.222" transform="translate(565.38 1541.782)"/>
      <rect id="長方形_61" data-name="長方形 61" class="cls-2" width="20.94" height="3.222" transform="translate(570.213 1548.225)"/>
      <rect id="長方形_62" data-name="長方形 62" class="cls-2" width="3.222" height="3.222" transform="translate(579.878 1501.512)"/>
      <rect id="長方形_63" data-name="長方形 63" class="cls-2" width="3.222" height="3.222" transform="translate(586.321 1501.512)"/>
      <rect id="長方形_64" data-name="長方形 64" class="cls-2" width="3.222" height="3.222" transform="translate(592.765 1501.512)"/>
      <rect id="長方形_65" data-name="長方形 65" class="cls-2" width="3.222" height="3.222" transform="translate(599.208 1501.512)"/>
    </g>
    <g id="グループ_161" data-name="グループ 161">
      <path id="パス_212" data-name="パス 212" class="cls-2" d="M578.267,1622.7a85.756,85.756,0,1,1,85.756-85.756A85.853,85.853,0,0,1,578.267,1622.7Zm0-166.512a80.756,80.756,0,1,0,80.756,80.756A80.848,80.848,0,0,0,578.267,1456.193Z"/>
    </g>
  </g>
</svg>
