<svg xmlns="http://www.w3.org/2000/svg" width="171.511" height="171.511" viewBox="0 0 171.511 171.511">
  <defs>
    <style>
      .cls-1, .cls-3 {
        fill: #00bed6;
      }

      .cls-2 {
        fill: #ffb71b;
        stroke: #00bed6;
        stroke-width: 2px;
      }

      .cls-2, .cls-3 {
        stroke-miterlimit: 10;
      }

      .cls-3 {
        stroke: #ffb71b;
        stroke-width: 3px;
      }
    </style>
  </defs>
  <g id="グループ_192" data-name="グループ 192" transform="translate(-1509.796 -1448.693)">
    <g id="グループ_189" data-name="グループ 189">
      <path id="パス_251" data-name="パス 251" class="cls-1" d="M1595.9,1620.2a85.756,85.756,0,1,1,85.406-86.1A85.852,85.852,0,0,1,1595.9,1620.2Zm-.677-166.51a80.756,80.756,0,1,0,81.083,80.427A80.847,80.847,0,0,0,1595.224,1453.694Z"/>
    </g>
    <g id="グループ_191" data-name="グループ 191">
      <rect id="長方形_67" data-name="長方形 67" class="cls-2" width="75.137" height="35.906" transform="translate(1576.835 1488.277) rotate(-0.233)"/>
      <rect id="長方形_68" data-name="長方形 68" class="cls-2" width="75.137" height="35.906" transform="translate(1569.697 1495.916) rotate(-0.233)"/>
      <rect id="長方形_69" data-name="長方形 69" class="cls-2" width="75.137" height="35.906" transform="translate(1562.636 1503.703) rotate(-0.233)"/>
      <g id="グループ_190" data-name="グループ 190">
        <path id="パス_252" data-name="パス 252" class="cls-1" d="M1607.015,1515.132a1.441,1.441,0,0,1-1.081.6,10.392,10.392,0,0,1-1.9-.588c-1.3-.414-2.036-.657-2.171-.727l-.023,4.52a19.1,19.1,0,0,1,4.917,2.434,5.718,5.718,0,0,1,2.474,4.616,5.583,5.583,0,0,1-2.471,4.566,10.356,10.356,0,0,1-5.034,2.053l.01,2.42c-1.337.005-2.456-.028-3.3-.024,0-.839-.007-1.715.031-2.557a18.417,18.417,0,0,1-4.215-1.735c-2.037-1.045-3.062-1.95-3.066-2.793,0-1.121.03-2.907.09-5.328a11.313,11.313,0,0,0,7.2,5.4c0-1.121-.011-2.8.049-5.082a21.58,21.58,0,0,1-4.81-2.537,5.712,5.712,0,0,1-2.371-4.617,5.238,5.238,0,0,1,2.368-4.392,9.692,9.692,0,0,1,4.9-1.806c0-.56-.043-1.088-.045-1.578,1.649.064,2.733.059,3.3.057l.007,1.753a22.1,22.1,0,0,1,4,1.176,10.376,10.376,0,0,0,3.474,1.107C1608.865,1512.776,1608.059,1513.8,1607.015,1515.132Zm-8.451-1.087q-2.206.166-2.2,1.586,0,1.05,2.218,2.095Zm3.231,10.114c-.031,1.019-.027,1.895-.024,2.594l.005,1.332c1.609-.391,2.452-.957,2.449-1.693C1604.221,1525.622,1603.415,1524.888,1601.8,1524.159Z"/>
      </g>
      <path id="パス_253" data-name="パス 253" class="cls-3" d="M1608.864,1558.51c1.109,0,14.276-1.637,14.276-1.637,5.948-8.89,12.371-10.246,12.371-10.246,7.3-2.911,5.341,5.519,5.341,5.519l-18.316,19.8c-21.7,3.857-11.016,16.225-24.818,12.514-.239-.065-.485-.132-.745-.2-14.586-3.8-57.551-11.756-57.551-11.756-1.638-21.271,6.988-25.518,6.988-25.518s11.558,7.933,23.505,2.565c0,0,10.836-6.029,22.857,6.556,0,0,18.609-2.239,17.758,6.6,0,0-.941,4.558-8.476,4.735,0,0-16.415-3.334-21.123,1.489"/>
    </g>
  </g>
</svg>
