<svg id="月曆" xmlns="http://www.w3.org/2000/svg" width="611" height="599" viewBox="0 0 611 599">
  <defs>
    <style>
      .cls-1 {
        fill: #00bed6;
      }

      .cls-2 {
        fill: #181a19;
      }

      .cls-3 {
        fill: #fff;
      }

      .cls-4 {
        fill: #ffb71b;
      }
    </style>
  </defs>
  <rect id="長方形_76" data-name="長方形 76" class="cls-1" width="71.554" height="71.554" rx="16.167" transform="translate(535.75 373.167)"/>
  <rect id="長方形_77" data-name="長方形 77" class="cls-1" width="71.554" height="71.554" rx="16.167" transform="translate(535.646 285.302)"/>
  <rect id="長方形_78" data-name="長方形 78" class="cls-1" width="71.554" height="71.554" rx="16.167" transform="translate(92.082 372.467)"/>
  <g id="グループ_211" data-name="グループ 211" transform="translate(-235 -4395)">
    <path id="パス_296" data-name="パス 296" class="cls-2" d="M346.457,4877.15h5.487v27.923h-2.771v-25.191h-4.392Z"/>
    <path id="パス_297" data-name="パス 297" class="cls-2" d="M368.275,4905.779l-2.3-1.478,7.556-11.441a9.21,9.21,0,0,1-2.858.505,7.535,7.535,0,0,1-5.64-2.405,8.141,8.141,0,0,1-2.322-5.913,8.533,8.533,0,0,1,1.117-4.348,8.247,8.247,0,0,1,3.176-3.1,8.888,8.888,0,0,1,4.413-1.155,8.5,8.5,0,0,1,4.283,1.117,7.969,7.969,0,0,1,3.089,3.133,8.7,8.7,0,0,1,1.117,4.293,10.5,10.5,0,0,1-.691,3.613,22.546,22.546,0,0,1-2.475,4.546Zm3.044-14.868a5.882,5.882,0,1,0-4.151-1.714A5.654,5.654,0,0,0,371.319,4890.911Z"/>
  </g>
  <g id="グループ_212" data-name="グループ 212" transform="translate(-235 -4395)">
    <path id="パス_298" data-name="パス 298" class="cls-2" d="M369.151,4702.115v2.655h-9.923l-1.4,7.618a11.825,11.825,0,0,1,3.286-.536,8.365,8.365,0,0,1,6.286,2.557,9.018,9.018,0,0,1,2.475,6.538A10.293,10.293,0,0,1,368.6,4726a8.949,8.949,0,0,1-3.45,3.522,10.054,10.054,0,0,1-5.016,1.227,8.322,8.322,0,0,1-5.739-2.082,8.54,8.54,0,0,1-2.793-5.383h2.87a6.246,6.246,0,0,0,1.094,2.617,5.554,5.554,0,0,0,2.049,1.628,6.1,6.1,0,0,0,2.683.618,6.287,6.287,0,0,0,4.732-2.086,7.292,7.292,0,0,0,1.971-5.213,6.158,6.158,0,0,0-1.785-4.589,6.511,6.511,0,0,0-4.764-1.764,15.873,15.873,0,0,0-5.98,1.5l2.585-13.876Z"/>
  </g>
  <g id="グループ_213" data-name="グループ 213" transform="translate(-235 -4395)">
    <path id="パス_299" data-name="パス 299" class="cls-3" d="M346.457,4789.63h5.487v27.928h-2.771v-25.19h-4.392Z"/>
    <path id="パス_300" data-name="パス 300" class="cls-3" d="M365.306,4798.364h-2.672a9.583,9.583,0,0,1,2.76-6.779,8.87,8.87,0,0,1,6.538-2.656,8.307,8.307,0,0,1,8.62,8.357,9.186,9.186,0,0,1-1.139,4.456,31.972,31.972,0,0,1-4.4,5.63l-6.965,7.492h12.891v2.694h-18.97l10.667-11.532a34.536,34.536,0,0,0,4.228-5.159,6.985,6.985,0,0,0,.975-3.543,5.452,5.452,0,0,0-1.753-4.058,6.367,6.367,0,0,0-8.75.087A7.671,7.671,0,0,0,365.306,4798.364Z"/>
  </g>
  <g id="グループ_215" data-name="グループ 215" transform="translate(-235 -4395)">
    <path id="パス_303" data-name="パス 303" class="cls-2" d="M343.763,4973.4H341.08a9.57,9.57,0,0,1,2.77-6.785,8.873,8.873,0,0,1,6.539-2.65,8.328,8.328,0,0,1,8.62,8.357,9.158,9.158,0,0,1-1.14,4.452,32.333,32.333,0,0,1-4.413,5.634L346.5,4989.9h12.879v2.7H340.423l10.667-11.532a34.265,34.265,0,0,0,4.217-5.159,6.906,6.906,0,0,0,.986-3.543,5.455,5.455,0,0,0-1.763-4.058,5.911,5.911,0,0,0-4.294-1.7,6.024,6.024,0,0,0-4.458,1.785A7.666,7.666,0,0,0,343.763,4973.4Z"/>
    <path id="パス_304" data-name="パス 304" class="cls-2" d="M375.087,4963.969l2.3,1.5-7.558,11.422a9.032,9.032,0,0,1,2.848-.509,7.54,7.54,0,0,1,5.651,2.405,8.185,8.185,0,0,1,2.323,5.913,8.494,8.494,0,0,1-1.128,4.354,8.182,8.182,0,0,1-3.177,3.094,8.994,8.994,0,0,1-4.435,1.15,8.548,8.548,0,0,1-4.272-1.111,7.912,7.912,0,0,1-3.089-3.122,8.77,8.77,0,0,1-1.128-4.31,10.507,10.507,0,0,1,.7-3.6,22.678,22.678,0,0,1,2.475-4.546Zm-3.067,14.862a5.87,5.87,0,0,0-4.151,10.032,5.874,5.874,0,1,0,4.151-10.032Z"/>
  </g>
  <g id="グループ_216" data-name="グループ 216" transform="translate(-235 -4395)">
    <path id="パス_305" data-name="パス 305" class="cls-2" d="M432.455,4885.879h-2.673a9.609,9.609,0,0,1,2.76-6.78,8.873,8.873,0,0,1,6.539-2.65,8.327,8.327,0,0,1,8.62,8.357,9.159,9.159,0,0,1-1.14,4.452,31.976,31.976,0,0,1-4.4,5.629l-6.965,7.492h12.89v2.694H429.115l10.667-11.527a34.54,34.54,0,0,0,4.228-5.159,7,7,0,0,0,.975-3.543,5.448,5.448,0,0,0-1.752-4.058,6.374,6.374,0,0,0-8.751.082A7.69,7.69,0,0,0,432.455,4885.879Z"/>
    <path id="パス_306" data-name="パス 306" class="cls-2" d="M450.735,4891.12a24.272,24.272,0,0,1,1.193-8.544A9.9,9.9,0,0,1,455.28,4878a8.057,8.057,0,0,1,4.841-1.555,8.293,8.293,0,0,1,4.917,1.566,10.365,10.365,0,0,1,3.483,4.7,28.208,28.208,0,0,1,.011,16.779,10.181,10.181,0,0,1-3.482,4.7,8.3,8.3,0,0,1-4.929,1.588,8.123,8.123,0,0,1-4.831-1.539,9.964,9.964,0,0,1-3.34-4.589A23.734,23.734,0,0,1,450.735,4891.12Zm2.64.049a23.093,23.093,0,0,0,.842,7.152,7.7,7.7,0,0,0,2.5,3.68,5.72,5.72,0,0,0,3.493,1.254,5.663,5.663,0,0,0,3.483-1.227,7.5,7.5,0,0,0,2.442-3.675,25.821,25.821,0,0,0,.121-14.09,8.066,8.066,0,0,0-2.574-3.931,5.5,5.5,0,0,0-6.965,0,7.653,7.653,0,0,0-2.487,3.663A22.83,22.83,0,0,0,453.375,4891.169Z"/>
  </g>
  <g id="グループ_217" data-name="グループ 217" transform="translate(-235 -4395)">
    <path id="パス_307" data-name="パス 307" class="cls-2" d="M453,4701.414l2.3,1.5-7.545,11.429a8.935,8.935,0,0,1,2.847-.509,7.549,7.549,0,0,1,5.64,2.4,8.153,8.153,0,0,1,2.322,5.915,8.591,8.591,0,0,1-1.117,4.358,8.248,8.248,0,0,1-3.186,3.094,8.939,8.939,0,0,1-4.437,1.151,8.564,8.564,0,0,1-4.271-1.113,8.094,8.094,0,0,1-3.088-3.121,8.746,8.746,0,0,1-1.117-4.31,10.493,10.493,0,0,1,.689-3.6,22.124,22.124,0,0,1,2.487-4.544Zm-3.066,14.862a5.863,5.863,0,1,0,4.162,1.715A5.682,5.682,0,0,0,449.935,4716.276Z"/>
  </g>
  <g id="グループ_218" data-name="グループ 218" transform="translate(-235 -4395)">
    <path id="パス_308" data-name="パス 308" class="cls-2" d="M435.15,4789.635h5.486v27.923h-2.771v-25.19h-4.381Z"/>
    <path id="パス_309" data-name="パス 309" class="cls-2" d="M454.644,4796.108H451.8a9.467,9.467,0,0,1,2.99-5.317,7.807,7.807,0,0,1,5.2-1.857,8.509,8.509,0,0,1,4.064,1,7.26,7.26,0,0,1,2.923,2.683,6.657,6.657,0,0,1,1.041,3.532,6.387,6.387,0,0,1-3.592,5.712,8.152,8.152,0,0,1,3.307,2.393,7.646,7.646,0,0,1,1.818,4.972,8.886,8.886,0,0,1-1.248,4.529,8.662,8.662,0,0,1-3.417,3.335,9.984,9.984,0,0,1-4.841,1.172,8.9,8.9,0,0,1-6.023-2.076,10.144,10.144,0,0,1-3.144-6.1h2.728a7.937,7.937,0,0,0,2.069,3.932,6.371,6.371,0,0,0,4.4,1.538,6.646,6.646,0,0,0,4.885-1.823,5.828,5.828,0,0,0,1.839-4.272,5.533,5.533,0,0,0-.919-3.055,5.782,5.782,0,0,0-2.475-2.147,13.667,13.667,0,0,0-4.787-.892V4800.8a8.806,8.806,0,0,0,3.493-.674,5.1,5.1,0,0,0,2.29-1.719,3.966,3.966,0,0,0,.7-2.278,4.136,4.136,0,0,0-1.445-3.149,5.209,5.209,0,0,0-3.669-1.332,4.94,4.94,0,0,0-3.121,1.02A7.743,7.743,0,0,0,454.644,4796.108Z"/>
  </g>
  <g id="グループ_219" data-name="グループ 219" transform="translate(-235 -4395)">
    <path id="パス_310" data-name="パス 310" class="cls-2" d="M432.455,4973.4h-2.673a9.587,9.587,0,0,1,2.76-6.78,8.878,8.878,0,0,1,6.539-2.656,8.338,8.338,0,0,1,8.62,8.357,9.183,9.183,0,0,1-1.14,4.458,31.976,31.976,0,0,1-4.4,5.629l-6.965,7.492h12.89v2.693H429.115l10.667-11.532a34.362,34.362,0,0,0,4.228-5.159,6.977,6.977,0,0,0,.975-3.543,5.445,5.445,0,0,0-1.752-4.052,6.359,6.359,0,0,0-8.751.082A7.679,7.679,0,0,0,432.455,4973.4Z"/>
    <path id="パス_311" data-name="パス 311" class="cls-2" d="M452.3,4964.664h17.71l-14.939,28.629-2.31-1.182,12.891-24.785H452.3Z"/>
  </g>
  <g id="グループ_220" data-name="グループ 220" transform="translate(-235 -4395)">
    <path id="パス_312" data-name="パス 312" class="cls-2" d="M521.158,4885.879h-2.684a9.609,9.609,0,0,1,2.76-6.78,8.89,8.89,0,0,1,6.539-2.65,8.309,8.309,0,0,1,8.62,8.357,9.158,9.158,0,0,1-1.128,4.452,32.179,32.179,0,0,1-4.414,5.629l-6.955,7.492h12.88v2.694H517.807l10.667-11.527a33.83,33.83,0,0,0,4.228-5.159,6.906,6.906,0,0,0,.986-3.543,5.459,5.459,0,0,0-1.763-4.058,5.948,5.948,0,0,0-4.295-1.7,6.034,6.034,0,0,0-4.457,1.78A7.683,7.683,0,0,0,521.158,4885.879Z"/>
    <path id="パス_313" data-name="パス 313" class="cls-2" d="M545.4,4877.15h5.488v27.923h-2.771v-25.191h-4.381Z"/>
  </g>
  <g id="グループ_221" data-name="グループ 221" transform="translate(-235 -4395)">
    <path id="パス_314" data-name="パス 314" class="cls-2" d="M530.216,4702.115h17.709l-14.938,28.63-2.312-1.189,12.891-24.786h-13.35Z"/>
  </g>
  <g id="グループ_222" data-name="グループ 222" transform="translate(-235 -4395)">
    <path id="パス_315" data-name="パス 315" class="cls-2" d="M523.852,4789.63h5.488v27.923h-2.772v-25.191h-4.392Z"/>
    <path id="パス_316" data-name="パス 316" class="cls-2" d="M554.76,4788.929h.57V4808.4H558.7v2.661H555.33v6.49h-2.772v-6.49H539.185Zm-2.2,19.473v-11.724l-8.28,11.724Z"/>
  </g>
  <g id="グループ_223" data-name="グループ 223" transform="translate(-235 -4395)">
    <path id="パス_317" data-name="パス 317" class="cls-2" d="M521.158,4973.4h-2.684a9.612,9.612,0,0,1,2.76-6.785,8.89,8.89,0,0,1,6.539-2.65,8.311,8.311,0,0,1,8.62,8.357,9.158,9.158,0,0,1-1.128,4.452,32.355,32.355,0,0,1-4.414,5.634L523.9,4989.9h12.88v2.7H517.807l10.667-11.532a33.83,33.83,0,0,0,4.228-5.159,6.906,6.906,0,0,0,.986-3.543,5.459,5.459,0,0,0-1.763-4.058,5.948,5.948,0,0,0-4.295-1.7,6.023,6.023,0,0,0-4.457,1.785A7.661,7.661,0,0,0,521.158,4973.4Z"/>
    <path id="パス_318" data-name="パス 318" class="cls-2" d="M553.139,4977.276a10.279,10.279,0,0,1,4.052,3.209,7.091,7.091,0,0,1,1.227,4.1,8.537,8.537,0,0,1-2.1,5.7,9.188,9.188,0,0,1-7.381,3.017c-3.1,0-5.433-.881-7.032-2.65a8.546,8.546,0,0,1-2.388-5.838,7.412,7.412,0,0,1,1.248-4.205,10.64,10.64,0,0,1,4.173-3.33,7.9,7.9,0,0,1-3.066-2.64,6.032,6.032,0,0,1-1.029-3.378,6.576,6.576,0,0,1,1.094-3.56,7.6,7.6,0,0,1,3.013-2.733,8.929,8.929,0,0,1,4.173-1,8.373,8.373,0,0,1,4.041,1,7.568,7.568,0,0,1,2.913,2.733,6.891,6.891,0,0,1,1.051,3.63,5.881,5.881,0,0,1-1,3.379A8.139,8.139,0,0,1,553.139,4977.276Zm-4.03,1.4a6.712,6.712,0,0,0-4.831,1.873,5.861,5.861,0,0,0-1.96,4.359,5.6,5.6,0,0,0,3.165,5.01,7.749,7.749,0,0,0,3.472.74,6.544,6.544,0,0,0,4.852-1.808,5.76,5.76,0,0,0,1.808-4.211,5.57,5.57,0,0,0-1.907-4.145A6.431,6.431,0,0,0,549.109,4978.678Zm-.132-12a5.5,5.5,0,0,0-3.812,1.358,4.22,4.22,0,0,0-1.51,3.241,4.514,4.514,0,0,0,1.62,3.368,5.434,5.434,0,0,0,3.8,1.512,5.289,5.289,0,0,0,2.618-.69,4.9,4.9,0,0,0,1.926-1.867,4.6,4.6,0,0,0,.7-2.382,4.438,4.438,0,0,0-1.368-3.117A5.293,5.293,0,0,0,548.977,4966.68Z"/>
  </g>
  <g id="グループ_224" data-name="グループ 224" transform="translate(-235 -4395)">
    <path id="パス_319" data-name="パス 319" class="cls-2" d="M612.544,4789.63h5.488v27.923H615.26v-25.191h-4.38Z"/>
    <path id="パス_320" data-name="パス 320" class="cls-2" d="M646.015,4789.63v2.656h-9.924l-1.4,7.617a11.626,11.626,0,0,1,3.287-.537,8.392,8.392,0,0,1,6.287,2.557,8.99,8.99,0,0,1,2.475,6.54,10.3,10.3,0,0,1-1.271,5.048,8.791,8.791,0,0,1-3.449,3.521,9.987,9.987,0,0,1-5.017,1.227,8.323,8.323,0,0,1-5.739-2.081,8.524,8.524,0,0,1-2.792-5.383h2.868a6.31,6.31,0,0,0,1.1,2.622,5.568,5.568,0,0,0,2.048,1.622,6.129,6.129,0,0,0,2.683.619,6.28,6.28,0,0,0,4.731-2.087,7.3,7.3,0,0,0,1.972-5.213,6.155,6.155,0,0,0-1.785-4.589,6.451,6.451,0,0,0-4.765-1.763,15.863,15.863,0,0,0-5.98,1.5l2.585-13.877Z"/>
  </g>
  <g id="グループ_225" data-name="グループ 225" transform="translate(-235 -4395)">
    <path id="パス_321" data-name="パス 321" class="cls-2" d="M609.85,4973.4h-2.672a9.537,9.537,0,0,1,2.76-6.78,8.873,8.873,0,0,1,6.538-2.656,8.338,8.338,0,0,1,8.62,8.357,9.193,9.193,0,0,1-1.139,4.458,31.64,31.64,0,0,1-4.414,5.629l-6.955,7.492h12.88v2.693H606.509l10.668-11.532a34.362,34.362,0,0,0,4.228-5.159,6.977,6.977,0,0,0,.975-3.543,5.479,5.479,0,0,0-1.753-4.052,6.357,6.357,0,0,0-8.75.082A7.674,7.674,0,0,0,609.85,4973.4Z"/>
    <path id="パス_322" data-name="パス 322" class="cls-2" d="M634.361,4993.293l-2.3-1.478,7.557-11.434a9.163,9.163,0,0,1-2.848.5,7.552,7.552,0,0,1-5.651-2.4,8.2,8.2,0,0,1-2.322-5.913,8.543,8.543,0,0,1,1.117-4.348,8.252,8.252,0,0,1,3.186-3.1,8.9,8.9,0,0,1,4.415-1.156,8.47,8.47,0,0,1,4.272,1.123,7.983,7.983,0,0,1,3.087,3.133,8.684,8.684,0,0,1,1.118,4.287,10.535,10.535,0,0,1-.691,3.62,22.65,22.65,0,0,1-2.475,4.545Zm3.045-14.862a5.866,5.866,0,0,0,4.162-10.015,5.872,5.872,0,1,0-4.162,10.015Z"/>
  </g>
  <g id="グループ_226" data-name="グループ 226" transform="translate(-235 -4395)">
    <path id="パス_323" data-name="パス 323" class="cls-2" d="M631.065,4714.722a10.3,10.3,0,0,1,4.052,3.208,7.155,7.155,0,0,1,1.227,4.1,8.5,8.5,0,0,1-2.114,5.7,9.193,9.193,0,0,1-7.382,3.018q-4.634,0-7.021-2.652a8.51,8.51,0,0,1-2.4-5.837,7.34,7.34,0,0,1,1.26-4.206,10.489,10.489,0,0,1,4.173-3.328,7.933,7.933,0,0,1-3.079-2.646,6.082,6.082,0,0,1-1.018-3.374,6.628,6.628,0,0,1,1.085-3.559,7.637,7.637,0,0,1,3.022-2.732,8.868,8.868,0,0,1,4.162-1,8.316,8.316,0,0,1,4.042,1.008,7.524,7.524,0,0,1,2.924,2.732,6.867,6.867,0,0,1,1.052,3.62,5.863,5.863,0,0,1-1,3.378A8.3,8.3,0,0,1,631.065,4714.722Zm-4.042,1.406a6.722,6.722,0,0,0-4.829,1.863,5.854,5.854,0,0,0-1.95,4.358,5.471,5.471,0,0,0,.832,2.908,5.587,5.587,0,0,0,2.333,2.109,7.768,7.768,0,0,0,3.472.739,6.566,6.566,0,0,0,4.852-1.807,5.8,5.8,0,0,0,1.8-4.211,5.589,5.589,0,0,0-1.906-4.151A6.443,6.443,0,0,0,627.023,4716.128Zm-.131-12a5.5,5.5,0,0,0-3.811,1.358,4.2,4.2,0,0,0-1.512,3.237,4.519,4.519,0,0,0,1.632,3.368,5.457,5.457,0,0,0,6.418.827,4.984,4.984,0,0,0,1.928-1.868,4.7,4.7,0,0,0,.69-2.387,4.385,4.385,0,0,0-1.37-3.11A5.254,5.254,0,0,0,626.892,4704.124Z"/>
  </g>
  <g id="グループ_227" data-name="グループ 227" transform="translate(-235 -4395)">
    <path id="パス_324" data-name="パス 324" class="cls-2" d="M609.85,4885.879h-2.672a9.559,9.559,0,0,1,2.76-6.78,8.867,8.867,0,0,1,6.538-2.65,8.327,8.327,0,0,1,8.62,8.357,9.169,9.169,0,0,1-1.139,4.452,31.64,31.64,0,0,1-4.414,5.629l-6.955,7.492h12.88v2.694H606.509l10.668-11.527a34.541,34.541,0,0,0,4.228-5.159,7,7,0,0,0,.975-3.543,5.483,5.483,0,0,0-1.753-4.058,6.373,6.373,0,0,0-8.75.082A7.685,7.685,0,0,0,609.85,4885.879Z"/>
    <path id="パス_325" data-name="パス 325" class="cls-2" d="M631.405,4885.879h-2.684a9.6,9.6,0,0,1,2.76-6.78,8.867,8.867,0,0,1,6.538-2.65,8.307,8.307,0,0,1,8.62,8.357,9.146,9.146,0,0,1-1.128,4.452,32.729,32.729,0,0,1-4.414,5.629l-6.955,7.492h12.881v2.694H628.052l10.668-11.527a33.83,33.83,0,0,0,4.228-5.159,6.883,6.883,0,0,0,.975-3.543,5.446,5.446,0,0,0-1.753-4.058,5.943,5.943,0,0,0-4.293-1.7,6.028,6.028,0,0,0-4.457,1.78A7.622,7.622,0,0,0,631.405,4885.879Z"/>
  </g>
  <g id="グループ_228" data-name="グループ 228" transform="translate(-235 -4395)">
    <path id="パス_326" data-name="パス 326" class="cls-2" d="M623.322,4614.6h5.486v27.924h-2.77v-25.191h-4.392Z"/>
  </g>
  <g id="グループ_229" data-name="グループ 229" transform="translate(-235 -4395)">
    <path id="パス_327" data-name="パス 327" class="cls-2" d="M701.247,4789.63h5.488v27.928h-2.783v-25.19h-4.38Z"/>
    <path id="パス_328" data-name="パス 328" class="cls-2" d="M729.876,4788.929l2.289,1.5-7.545,11.429a8.82,8.82,0,0,1,2.847-.515,7.52,7.52,0,0,1,5.64,2.4,8.144,8.144,0,0,1,2.323,5.915,8.587,8.587,0,0,1-1.117,4.353,8.1,8.1,0,0,1-3.187,3.093,8.92,8.92,0,0,1-4.436,1.151,8.452,8.452,0,0,1-4.261-1.111,7.912,7.912,0,0,1-3.088-3.123,8.623,8.623,0,0,1-1.129-4.309,10.252,10.252,0,0,1,.7-3.6,22.165,22.165,0,0,1,2.476-4.546ZM726.8,4803.79a5.873,5.873,0,1,0,4.162,1.721A5.67,5.67,0,0,0,726.8,4803.79Z"/>
  </g>
  <g id="グループ_230" data-name="グループ 230" transform="translate(-235 -4395)">
    <path id="パス_329" data-name="パス 329" class="cls-2" d="M699.188,4971.142h-2.847a9.446,9.446,0,0,1,2.978-5.317,7.835,7.835,0,0,1,5.2-1.862,8.572,8.572,0,0,1,4.074,1,7.342,7.342,0,0,1,2.924,2.684,6.657,6.657,0,0,1,1.041,3.531,6.407,6.407,0,0,1-3.592,5.712,8.129,8.129,0,0,1,3.3,2.394,7.591,7.591,0,0,1,1.829,4.977,8.9,8.9,0,0,1-1.248,4.524,8.792,8.792,0,0,1-3.417,3.329,9.93,9.93,0,0,1-4.841,1.177,8.9,8.9,0,0,1-6.024-2.074,10.173,10.173,0,0,1-3.154-6.107h2.737a7.894,7.894,0,0,0,2.071,3.926,6.35,6.35,0,0,0,4.4,1.545,6.637,6.637,0,0,0,4.884-1.824,5.822,5.822,0,0,0,1.84-4.271,5.522,5.522,0,0,0-.919-3.056,5.793,5.793,0,0,0-2.476-2.146,13.64,13.64,0,0,0-4.786-.893v-2.563a8.8,8.8,0,0,0,3.493-.674,5.1,5.1,0,0,0,2.279-1.719,3.9,3.9,0,0,0,.711-2.278,4.137,4.137,0,0,0-1.445-3.149,5.243,5.243,0,0,0-3.68-1.33,4.929,4.929,0,0,0-3.11,1.018A7.662,7.662,0,0,0,699.188,4971.142Z"/>
    <path id="パス_330" data-name="パス 330" class="cls-2" d="M716.833,4978.64a24.326,24.326,0,0,1,1.182-8.543,9.843,9.843,0,0,1,3.352-4.573,8.087,8.087,0,0,1,4.841-1.561,8.294,8.294,0,0,1,4.918,1.566,10.426,10.426,0,0,1,3.482,4.7,28.344,28.344,0,0,1,.022,16.785,10.38,10.38,0,0,1-3.483,4.7,8.341,8.341,0,0,1-4.939,1.582,8.025,8.025,0,0,1-4.819-1.538,9.855,9.855,0,0,1-3.352-4.584A23.8,23.8,0,0,1,716.833,4978.64Zm2.639.049a22.807,22.807,0,0,0,.843,7.152,7.509,7.509,0,0,0,2.5,3.674,5.51,5.51,0,0,0,6.966.027,7.378,7.378,0,0,0,2.441-3.674,25.525,25.525,0,0,0,.121-14.084,8.113,8.113,0,0,0-2.574-3.938,5.481,5.481,0,0,0-6.954,0,7.624,7.624,0,0,0-2.487,3.669A22.834,22.834,0,0,0,719.472,4978.689Z"/>
  </g>
  <g id="グループ_231" data-name="グループ 231" transform="translate(-235 -4395)">
    <path id="パス_331" data-name="パス 331" class="cls-2" d="M712.276,4730.745l-2.289-1.485,7.547-11.434a9.081,9.081,0,0,1-2.848.5,7.574,7.574,0,0,1-5.652-2.4,8.214,8.214,0,0,1-2.322-5.915,8.564,8.564,0,0,1,1.129-4.348,8.239,8.239,0,0,1,3.176-3.093,8.847,8.847,0,0,1,4.414-1.156,8.53,8.53,0,0,1,4.282,1.117,8.092,8.092,0,0,1,3.089,3.132,8.713,8.713,0,0,1,1.117,4.293,10.528,10.528,0,0,1-.69,3.615,22.929,22.929,0,0,1-2.486,4.545Zm3.056-14.868a5.87,5.87,0,1,0-4.162-1.72A5.638,5.638,0,0,0,715.332,4715.877Z"/>
  </g>
  <g id="グループ_232" data-name="グループ 232" transform="translate(-235 -4395)">
    <path id="パス_332" data-name="パス 332" class="cls-2" d="M698.542,4885.879h-2.673a9.61,9.61,0,0,1,2.761-6.78,8.867,8.867,0,0,1,6.538-2.65,8.309,8.309,0,0,1,8.62,8.357,9.147,9.147,0,0,1-1.128,4.452,32.693,32.693,0,0,1-4.415,5.629l-6.954,7.492h12.881v2.694H695.2l10.667-11.527a33.828,33.828,0,0,0,4.228-5.159,6.893,6.893,0,0,0,.975-3.543,5.446,5.446,0,0,0-1.753-4.058,5.952,5.952,0,0,0-4.3-1.7,6.02,6.02,0,0,0-4.446,1.78A7.69,7.69,0,0,0,698.542,4885.879Z"/>
    <path id="パス_333" data-name="パス 333" class="cls-2" d="M720.743,4883.622H717.9a9.394,9.394,0,0,1,2.979-5.317,7.8,7.8,0,0,1,5.2-1.856,8.573,8.573,0,0,1,4.075,1,7.39,7.39,0,0,1,2.924,2.684,6.765,6.765,0,0,1,1.029,3.531,6.387,6.387,0,0,1-3.592,5.712,8.208,8.208,0,0,1,3.307,2.394,7.648,7.648,0,0,1,1.818,4.977,8.884,8.884,0,0,1-1.248,4.524,8.652,8.652,0,0,1-3.417,3.334,10,10,0,0,1-4.841,1.178,8.9,8.9,0,0,1-6.023-2.08,10.212,10.212,0,0,1-3.144-6.107h2.727a7.942,7.942,0,0,0,2.07,3.932,6.394,6.394,0,0,0,4.414,1.539,6.648,6.648,0,0,0,4.873-1.818,5.847,5.847,0,0,0,1.841-4.277,5.523,5.523,0,0,0-.92-3.056,5.828,5.828,0,0,0-2.465-2.146,13.838,13.838,0,0,0-4.8-.893v-2.563a8.78,8.78,0,0,0,3.494-.674,5.061,5.061,0,0,0,2.289-1.713,4,4,0,0,0,.712-2.278,4.124,4.124,0,0,0-1.457-3.155,5.211,5.211,0,0,0-3.669-1.33,4.924,4.924,0,0,0-3.111,1.018A7.565,7.565,0,0,0,720.743,4883.622Z"/>
  </g>
  <g id="グループ_233" data-name="グループ 233" transform="translate(-235 -4395)">
    <path id="パス_334" data-name="パス 334" class="cls-2" d="M709.319,4623.329h-2.683a9.552,9.552,0,0,1,2.771-6.78,8.87,8.87,0,0,1,6.539-2.655,8.338,8.338,0,0,1,8.619,8.356,9.205,9.205,0,0,1-1.139,4.458,31.692,31.692,0,0,1-4.414,5.629l-6.955,7.492h12.88v2.695H705.979l10.668-11.534a34.776,34.776,0,0,0,4.227-5.152,7.012,7.012,0,0,0,.974-3.544,5.481,5.481,0,0,0-1.751-4.058,5.962,5.962,0,0,0-4.3-1.7,6.059,6.059,0,0,0-4.458,1.784A7.684,7.684,0,0,0,709.319,4623.329Z"/>
  </g>
  <g id="グループ_234" data-name="グループ 234" transform="translate(-235 -4395)">
    <path id="パス_335" data-name="パス 335" class="cls-3" d="M789.939,4789.63h5.488v27.928h-2.772v-25.19h-4.391Z"/>
    <path id="パス_336" data-name="パス 336" class="cls-3" d="M807.079,4789.63h17.71l-14.938,28.629-2.311-1.183,12.891-24.785H807.079Z"/>
  </g>
  <g id="グループ_236" data-name="グループ 236" transform="translate(-235 -4395)">
    <path id="パス_339" data-name="パス 339" class="cls-3" d="M789.939,4702.115h5.488v27.923h-2.772v-25.19h-4.391Z"/>
    <path id="パス_340" data-name="パス 340" class="cls-3" d="M805.525,4716.084a24.327,24.327,0,0,1,1.182-8.542,10.02,10.02,0,0,1,3.352-4.573,8.114,8.114,0,0,1,4.841-1.555,8.289,8.289,0,0,1,4.918,1.561,10.432,10.432,0,0,1,3.482,4.7,28.342,28.342,0,0,1,.022,16.784,10.39,10.39,0,0,1-3.483,4.7,8.3,8.3,0,0,1-4.939,1.588,8.083,8.083,0,0,1-4.819-1.539,10.046,10.046,0,0,1-3.352-4.584A24.12,24.12,0,0,1,805.525,4716.084Zm2.639.05a23.2,23.2,0,0,0,.843,7.157,7.6,7.6,0,0,0,2.5,3.67,5.5,5.5,0,0,0,6.966.032,7.507,7.507,0,0,0,2.452-3.679,22,22,0,0,0,1.041-7.18,21.384,21.384,0,0,0-.931-6.906,8.029,8.029,0,0,0-2.574-3.932,5.467,5.467,0,0,0-6.954,0,7.663,7.663,0,0,0-2.487,3.664A22.858,22.858,0,0,0,808.164,4716.134Z"/>
  </g>
  <g id="グループ_239" data-name="グループ 239" transform="translate(-235 -4395)">
    <path id="パス_345" data-name="パス 345" class="cls-4" d="M798.658,4621.074H795.81a9.418,9.418,0,0,1,2.979-5.313,7.807,7.807,0,0,1,5.2-1.867,8.613,8.613,0,0,1,4.074,1,7.4,7.4,0,0,1,2.925,2.688,6.679,6.679,0,0,1,1.04,3.533,6.411,6.411,0,0,1-3.593,5.712,8.3,8.3,0,0,1,3.309,2.392,7.644,7.644,0,0,1,1.818,4.978,8.921,8.921,0,0,1-1.249,4.529,8.8,8.8,0,0,1-3.418,3.33,10,10,0,0,1-4.851,1.176,8.9,8.9,0,0,1-6.013-2.08,10.171,10.171,0,0,1-3.155-6.1h2.739a7.933,7.933,0,0,0,2.07,3.926,6.371,6.371,0,0,0,4.4,1.54,6.661,6.661,0,0,0,4.886-1.824,5.861,5.861,0,0,0,1.839-4.271,5.53,5.53,0,0,0-.931-3.057,5.762,5.762,0,0,0-2.464-2.146,13.713,13.713,0,0,0-4.785-.893v-2.563a8.871,8.871,0,0,0,3.493-.673,5.1,5.1,0,0,0,2.278-1.714,3.925,3.925,0,0,0,.712-2.284,4.145,4.145,0,0,0-1.446-3.148,5.241,5.241,0,0,0-3.68-1.331,4.967,4.967,0,0,0-3.11,1.013A7.736,7.736,0,0,0,798.658,4621.074Z"/>
  </g>
  <g id="グループ_240" data-name="グループ 240" transform="translate(-235 -4395)">
    <path id="パス_346" data-name="パス 346" class="cls-4" d="M787.245,4885.879h-2.684a9.568,9.568,0,0,1,2.772-6.78,8.867,8.867,0,0,1,6.538-2.65,8.327,8.327,0,0,1,8.62,8.357,9.158,9.158,0,0,1-1.139,4.452,31.608,31.608,0,0,1-4.415,5.629l-6.954,7.492h12.881v2.694H783.9l10.668-11.527a34.536,34.536,0,0,0,4.228-5.159,7,7,0,0,0,.975-3.543,5.486,5.486,0,0,0-1.753-4.058,5.95,5.95,0,0,0-4.3-1.7,6.03,6.03,0,0,0-4.457,1.78A7.678,7.678,0,0,0,787.245,4885.879Z"/>
    <path id="パス_347" data-name="パス 347" class="cls-4" d="M820.847,4876.449h.57v19.473h3.372v2.661h-3.372v6.49h-2.771v-6.49H805.284Zm-2.2,19.473V4884.2l-8.281,11.724Z"/>
  </g>
  <g id="グループ_241" data-name="グループ 241" transform="translate(-235 -4395)">
    <path id="パス_348" data-name="パス 348" class="cls-4" d="M258.035,4877.851h5.487v27.928h-2.771v-25.19h-4.38Z"/>
    <path id="パス_349" data-name="パス 349" class="cls-4" d="M287.332,4890.457a10.371,10.371,0,0,1,4.054,3.209,7.1,7.1,0,0,1,1.225,4.1,8.485,8.485,0,0,1-2.113,5.695c-1.72,2.015-4.173,3.018-7.383,3.018-3.087,0-5.421-.882-7.019-2.65a8.487,8.487,0,0,1-2.388-5.833,7.4,7.4,0,0,1,1.248-4.206,10.513,10.513,0,0,1,4.174-3.334,7.968,7.968,0,0,1-3.078-2.64,6.084,6.084,0,0,1-1.019-3.378,6.672,6.672,0,0,1,1.084-3.56,7.7,7.7,0,0,1,3.024-2.733,8.881,8.881,0,0,1,4.172-1,8.409,8.409,0,0,1,4.042,1.007,7.5,7.5,0,0,1,2.912,2.732,6.869,6.869,0,0,1,1.052,3.626,5.875,5.875,0,0,1-1,3.379A8.323,8.323,0,0,1,287.332,4890.457Zm-4.03,1.407a6.712,6.712,0,0,0-4.841,1.868,5.849,5.849,0,0,0-1.949,4.358,5.453,5.453,0,0,0,.832,2.9,5.576,5.576,0,0,0,2.333,2.109,7.748,7.748,0,0,0,3.472.739,6.562,6.562,0,0,0,4.852-1.8,5.757,5.757,0,0,0,1.8-4.217,5.578,5.578,0,0,0-1.906-4.145A6.421,6.421,0,0,0,283.3,4891.864Zm-.132-12a5.512,5.512,0,0,0-3.822,1.358,4.209,4.209,0,0,0-1.512,3.237,4.531,4.531,0,0,0,1.633,3.368,5.458,5.458,0,0,0,6.418.827,4.951,4.951,0,0,0,1.928-1.873,4.582,4.582,0,0,0,.689-2.382,4.416,4.416,0,0,0-1.358-3.11A5.264,5.264,0,0,0,283.17,4879.865Z"/>
  </g>
  <g id="グループ_242" data-name="グループ 242" transform="translate(-235 -4395)">
    <path id="パス_350" data-name="パス 350" class="cls-4" d="M278.176,4702.115h.559v19.478h3.385v2.661h-3.385v6.5h-2.77v-6.5H262.6Zm-2.211,19.478v-11.73l-8.27,11.73Z"/>
  </g>
  <g id="グループ_243" data-name="グループ 243" transform="translate(-235 -4395)">
    <path id="パス_351" data-name="パス 351" class="cls-4" d="M258.035,4790.335h5.487v27.924h-2.771v-25.19h-4.38Z"/>
    <path id="パス_352" data-name="パス 352" class="cls-4" d="M279.589,4790.335h5.488v27.924h-2.771v-25.19h-4.392Z"/>
  </g>
  <g id="グループ_244" data-name="グループ 244" transform="translate(-235 -4395)">
    <path id="パス_353" data-name="パス 353" class="cls-4" d="M255.341,4974.1h-2.673a9.582,9.582,0,0,1,2.76-6.779,8.873,8.873,0,0,1,6.539-2.656,8.311,8.311,0,0,1,8.62,8.356,9.058,9.058,0,0,1-1.14,4.457,31.8,31.8,0,0,1-4.4,5.63l-6.965,7.492h12.89v2.694H252l10.668-11.533a33.769,33.769,0,0,0,4.228-5.159,6.979,6.979,0,0,0,.975-3.542,5.447,5.447,0,0,0-1.753-4.058,6.37,6.37,0,0,0-8.752.087A7.672,7.672,0,0,0,255.341,4974.1Z"/>
    <path id="パス_354" data-name="パス 354" class="cls-4" d="M291.506,4965.371v2.661h-9.924l-1.39,7.612a11.7,11.7,0,0,1,3.274-.532,8.361,8.361,0,0,1,6.287,2.553,8.995,8.995,0,0,1,2.475,6.544,10.2,10.2,0,0,1-1.27,5.048,8.764,8.764,0,0,1-3.451,3.516,9.972,9.972,0,0,1-5.015,1.227,8.292,8.292,0,0,1-5.729-2.076,8.489,8.489,0,0,1-2.792-5.382h2.87a6.149,6.149,0,0,0,1.084,2.618,5.529,5.529,0,0,0,2.048,1.62,6.062,6.062,0,0,0,2.683.625,6.3,6.3,0,0,0,4.731-2.087,7.311,7.311,0,0,0,1.983-5.219,6.183,6.183,0,0,0-1.785-4.583,6.489,6.489,0,0,0-4.765-1.763,15.664,15.664,0,0,0-5.979,1.5l2.573-13.882Z"/>
  </g>
  <path id="パス_355" data-name="パス 355" class="cls-4" d="M814.031,4492H266.969A31.969,31.969,0,0,0,235,4523.969v10.062A31.969,31.969,0,0,0,266.969,4566H814.031A31.969,31.969,0,0,0,846,4534.031v-10.062A31.969,31.969,0,0,0,814.031,4492Zm-532.2,54.695a9.775,9.775,0,0,1-7.086,2.832,10.46,10.46,0,0,1-5.827-1.714,15.821,15.821,0,0,1-4.82-5.745l3-1.8c2.114,3.883,4.545,5.827,7.316,5.827a6.985,6.985,0,0,0,3.329-.832,5.858,5.858,0,0,0,2.376-2.213,5.789,5.789,0,0,0,.811-2.952,5.948,5.948,0,0,0-1.193-3.471,28.779,28.779,0,0,0-6.046-5.662,30.866,30.866,0,0,1-5.488-4.82,8.8,8.8,0,0,1-1.871-5.394,8.234,8.234,0,0,1,1.1-4.2,7.851,7.851,0,0,1,3.1-2.985,9.043,9.043,0,0,1,4.358-1.09,9.284,9.284,0,0,1,4.656,1.238,15.916,15.916,0,0,1,4.588,4.546l-2.869,2.179a13.789,13.789,0,0,0-3.395-3.478,5.843,5.843,0,0,0-3.056-.838,4.81,4.81,0,0,0-3.483,1.293,4.226,4.226,0,0,0-1.358,3.192,5.3,5.3,0,0,0,.482,2.23,8.21,8.21,0,0,0,1.742,2.348c.471.45,1.981,1.622,4.555,3.528a25.775,25.775,0,0,1,6.287,6.012,9.748,9.748,0,0,1,1.7,5.3A8.958,8.958,0,0,1,281.835,4546.695Zm95.568,2.832L373.91,4524.3l-12.464,25.223h-.909l-12.617-25.414-3.461,25.414h-3.406l5.049-35.266h.57l14.336,28.935,14.205-28.935h.57l5.071,35.266Zm79.739-32.161h-7.864v31.816h-3.593v-31.816h-7.864v-3.45h19.321Zm93.938,31.126h-.657l-10.47-26.679-10.668,26.679h-.658l-10-35.267h3.626l7.2,25.416,10.119-25.416h.723l10,25.416,7.327-25.416h3.592Zm85.439-31.126h-7.863v31.816h-3.6v-31.816h-7.864v-3.45h19.331Zm90.378,0H712.758v11.05H726.9v3.455H712.758v17.311h-3.527v-35.266H726.9Zm85.856,29.329a9.809,9.809,0,0,1-7.086,2.832,10.369,10.369,0,0,1-5.827-1.714,15.691,15.691,0,0,1-4.819-5.739l2.99-1.8q3.171,5.824,7.317,5.827a6.971,6.971,0,0,0,3.329-.827,5.875,5.875,0,0,0,2.377-2.218,5.723,5.723,0,0,0,.821-2.946,6,6,0,0,0-1.2-3.483,28.733,28.733,0,0,0-6.046-5.656,30.936,30.936,0,0,1-5.486-4.82,8.8,8.8,0,0,1-1.873-5.393,8.189,8.189,0,0,1,1.106-4.195,7.883,7.883,0,0,1,3.1-2.985,8.973,8.973,0,0,1,4.36-1.089,9.322,9.322,0,0,1,4.665,1.231,16.093,16.093,0,0,1,4.59,4.546l-2.882,2.179a13.662,13.662,0,0,0-3.394-3.477,5.841,5.841,0,0,0-3.057-.838,4.812,4.812,0,0,0-3.482,1.3,4.208,4.208,0,0,0-1.358,3.187,5.476,5.476,0,0,0,.481,2.229,8.111,8.111,0,0,0,1.753,2.349q.69.674,4.556,3.527a25.514,25.514,0,0,1,6.276,6.018,9.664,9.664,0,0,1,1.709,5.295A9,9,0,0,1,812.753,4546.695Z" transform="translate(-235 -4395)"/>
  <g id="グループ_245" data-name="グループ 245" transform="translate(-235 -4395)">
    <path id="パス_356" data-name="パス 356" class="cls-4" d="M492.028,4395h3.932v26.527q0,6.119-.953,8.51a7.891,7.891,0,0,1-3.165,3.817,9.687,9.687,0,0,1-5.366,1.429,12.556,12.556,0,0,1-4.688-.92,19.846,19.846,0,0,1-5.116-3.247l2.082-3.122a30.938,30.938,0,0,0,5.114,3.045,6.5,6.5,0,0,0,2.618.586,5.064,5.064,0,0,0,3.067-1.013,5.283,5.283,0,0,0,1.928-2.7,24.727,24.727,0,0,0,.547-6.516Z"/>
    <path id="パス_357" data-name="パス 357" class="cls-4" d="M504.425,4405.235h3.736v13.57a29.3,29.3,0,0,0,.536,6.835,7.6,7.6,0,0,0,3.067,4.221,9.3,9.3,0,0,0,5.388,1.55,9.119,9.119,0,0,0,5.312-1.506,7.751,7.751,0,0,0,3.012-3.97,28.13,28.13,0,0,0,.559-7.13v-13.57h3.822v14.26q0,6.012-1.4,9.057a10.736,10.736,0,0,1-4.216,4.765,15.355,15.355,0,0,1-14.161,0,10.662,10.662,0,0,1-4.251-4.8q-1.395-3.089-1.4-9.287Z"/>
    <path id="パス_358" data-name="パス 358" class="cls-4" d="M538.16,4405.235H541.9v5.208a15.656,15.656,0,0,1,4.973-4.473,12.128,12.128,0,0,1,5.925-1.485,10.313,10.313,0,0,1,5.784,1.66,9.8,9.8,0,0,1,3.723,4.458q1.2,2.8,1.2,8.74V4434.3h-3.735v-13.865a33.276,33.276,0,0,0-.427-6.7,7.337,7.337,0,0,0-2.487-4.342,7.531,7.531,0,0,0-4.807-1.457,9.215,9.215,0,0,0-6.079,2.245,10.453,10.453,0,0,0-3.537,5.559,38.122,38.122,0,0,0-.538,7.907V4434.3H538.16Z"/>
    <path id="パス_359" data-name="パス 359" class="cls-4" d="M596,4424.654l3.153,1.653a17.448,17.448,0,0,1-3.581,4.918,14.368,14.368,0,0,1-4.578,2.848,16.029,16.029,0,0,1-5.75.974q-7.113,0-11.116-4.665a15.733,15.733,0,0,1-4.02-10.536,15.541,15.541,0,0,1,3.406-9.857,13.87,13.87,0,0,1,11.522-5.5,14.355,14.355,0,0,1,11.872,5.635,15.789,15.789,0,0,1,3.21,9.939H573.962a11.843,11.843,0,0,0,3.231,8.3,10.34,10.34,0,0,0,7.733,3.236,12.408,12.408,0,0,0,4.314-.771,11.336,11.336,0,0,0,3.571-2.048A17.293,17.293,0,0,0,596,4424.654Zm0-7.826a12.437,12.437,0,0,0-2.179-4.78,10.253,10.253,0,0,0-3.79-2.887,11.539,11.539,0,0,0-4.94-1.094,10.648,10.648,0,0,0-7.36,2.749,12.417,12.417,0,0,0-3.4,6.012Z"/>
  </g>
</svg>
