<svg xmlns="http://www.w3.org/2000/svg" width="2574.66" height="3778.18" viewBox="0 0 2574.66 3778.18">
  <g id="Group_696" data-name="Group 696" transform="translate(-17.569 -7578.962)" opacity="0.11">
    <path id="Path_9174" data-name="Path 9174" d="M567.215,7593.426c-32.214-8.107-26,22.212-36.16,36.167,14.993,9.107,29.483,18.726,36.16,36.16-8.4-1.18-12.867,1.593-14.46,7.228,4.7,12.277,16.624,4.521,14.46-7.228,8.115,1.527,11.258,8.023,14.464,14.46-11.726-5.172-11.726,34.1,0,28.929v28.931c-14.371.089-9.2,19.733-28.924,14.46-3.085-13.789-20.666-13.083-14.472-36.16-18.039,3.657-29.719,13.673-43.388,21.7-3.572,18.244,35.89-20.169,28.928,14.46h-21.7c4.054,15.034,11.286,15.328,21.7,7.236V7788.7c-15.12-3.062-19.15,4.957-28.928,7.233-1.65-12.813,7.286-36.218-14.468-28.928-21.657,4.756,6.92,15.459,0,28.928-9.495-2.554-11.37-12.732-21.7-14.464,20.894-21.746-17.252-25.241-7.228-57.856-22.741,9.79-24.847,2.249-28.931-21.7-16.485-2.021-27.189,1.739-28.928,14.46-25.191-18.726,30.74-16.9,14.464-50.62,18.147,14.445,24.218-18.795,50.623,0,2.8,34.633-34.828-12.439-36.159,21.7,6.653,19.71,22.614-10.1,43.392,0v7.232q-28.194-6.5-21.7,21.692,23.667,1.974,21.7-21.692c10.267.617,20.48,1.192,21.7-7.232-5.3-12.882-13.156-1.045-21.7,0,.625-10.264,1.2-20.485-7.233-21.7-.389-12.446,5.57-18.541,14.468-21.7-2.464,14.514,1.478,22.63,14.464,21.7,8.47-1.173,6.1-13.187,7.232-21.7,6.742-7.717,26.675-2.249,21.693-21.7,2.869-14.035-32.936-10.568-21.693,7.236-17.993-1.091-2.117-24.5,0-28.932,16.481-2.02,27.189,1.74,28.928,14.461,10.445-8.84,10.966-27.6,21.7-36.16,9.246.4,10.017,9.272,21.7,7.236Zm-43.392,72.327h14.46c.4-9.249,9.273-10.017,7.236-21.7h-21.7Zm-14.464-14.468c-2.006-2-10.973,3.495-7.236,7.233C504.129,7660.519,513.1,7655.023,509.359,7651.285Zm-14.464,28.928c11.363-.686,25.071.972,21.693-14.46H502.123C502.15,7673,496.268,7674.354,494.895,7680.213Zm43.388-7.232c-2-2-10.969,3.5-7.228,7.232C533.057,7682.219,542.029,7676.723,538.283,7672.981Zm0,36.161c19-5.844-4.643-40.643-14.46-14.461C522.149,7699.14,534.761,7710.229,538.283,7709.142Zm28.932-14.461c-2-2.005-10.973,3.491-7.232,7.232C561.985,7703.915,570.953,7698.418,567.215,7694.681Zm-72.32,28.928c21.091,10.63,21.091-32.33,0-21.7Zm-14.468-14.467c-2-2-10.969,3.493-7.228,7.231C475.2,7718.379,484.172,7712.883,480.427,7709.142Zm94.02,21.695c2.18-19.054-10.013-23.733-28.928-21.695C539.61,7735.026,560.913,7745.043,574.447,7730.837Zm-101.248,21.7c3.109-11.355,22.749-6.175,14.464-28.924H458.731C456.711,7740.094,460.474,7750.793,473.2,7752.533Zm43.389,21.7c-2-2-10.97,3.5-7.229,7.232C511.361,7783.466,520.333,7777.974,516.588,7774.233Z" fill-rule="evenodd"/>
    <path id="Path_9175" data-name="Path 9175" d="M567.215,7593.426c21.661,1.462-6.915,30.039,0,0Z" fill-rule="evenodd"/>
    <path id="Path_9176" data-name="Path 9176" d="M473.2,7644.053c.109-9.476,20.061-9.214,21.7,0Z" fill-rule="evenodd"/>
    <path id="Path_9177" data-name="Path 9177" d="M408.108,7665.753c-12.879-4-30.035-3.718-36.16-14.468-26.247,6.569-4.4,21.345-7.236,43.4-32.033-2.866-18.136-35.794-7.228-50.628C385.023,7640.62,402.627,7647.12,408.108,7665.753Z" fill-rule="evenodd"/>
    <path id="Path_9178" data-name="Path 9178" d="M581.679,7680.213c12.6-.543,22.491,1.612,28.932,7.236,2.175,19.054-10.017,23.733-28.932,21.693,1.6-5.636,6.055-8.409,14.464-7.229v-14.464C590.535,7685.825,581.88,7687.249,581.679,7680.213Z" fill-rule="evenodd"/>
    <path id="Path_9179" data-name="Path 9179" d="M1326.592,7983.964c-6.2-39.588-57.015-34.586-79.549-57.855-4.45-10.511-8.74.736,0,0-1.936,26.038,13.362,34.852,14.457,57.855,14.741,11.783,37.853,15.2,50.627,28.932,9.713-4.76,13.469-15.46,14.465-28.932,22.741,1.045,24.854-18.541,28.935-36.16,24.994,6.345,47.465,15.208,57.863,36.16,11.263-12.948,6.874-63.306,36.149-36.16-8.979-78.888,83.15-56.668,94.02-115.711,4.968,45.667,41.246,60,43.391,108.483,28.6-11.505,41.95,6.692,65.092-7.232,1.226-18.105-11.109-22.645-21.692-28.932-10.168,1.886-8.247,15.861-14.464,21.7-19.632-6.581,7.367-25.342,7.235-36.161,22,4.5,36.967,16.065,36.149,43.4q33.973-5.039,28.944,28.928c20.434-5.979,18.729,10.19,36.147,7.232,9.242-28.519-19.787-18.78-28.92-28.928,8.054-34.582-22.525-30.513-14.471-65.091,13.939,2.942,5.716,28.036,28.935,21.7,8.424-1.215,7.853-11.432,7.228-21.7-9-13.172-67.028-14.473-57.863,14.463-16.231-3.043-.193-38.374-14.456-43.4-22.125-5.246-21.275,12.481-43.4,7.232,5.007-14.283,19.293-19.278,36.164-21.692-2.268-9.782-10.3-13.812-7.228-28.928,9.758,15.184,56.258-33.152,57.864,14.46-14.225,2.164-14.349-9.763-21.708-14.46-14.858,2.013-14.433,19.312-21.692,28.928,13.684,11.555,35.546-12.556,57.855-14.468q-6.49,28.192,21.692,21.7,1.991-23.667-21.692-21.7c-3.509-8.544-7.706-16.4-14.455-21.7,6.3-10.565,5.73-28.006,28.919-21.7-1.6,5.639-6.047,8.408-14.464,7.232-2.175,19.053,10.013,23.732,28.928,21.7-7.289,21.746,16.115,12.813,28.936,14.46,7.282-21.755-16.115-12.813-28.936-14.46,5.971-20.443-10.2-18.738-7.236-36.164,9.505,9.28,26.668,9.28,36.172,0-.972-30.918-29.337-33.741-36.172-7.232-23.821-18.575,35.393-57.008,36.172-14.464,11.293-10.819,24.963-56.433,50.62-28.932-34.721-5.785-30.024,27.836-43.392,43.4,8.408,13.292,38.378,5.01,28.92,36.16,18.923-2.036,31.119,2.641,28.944,21.7,23.042-6.18,27.447,6.3,36.148,14.468-4.343,14.934-11.186,27.385-36.148,21.692.941,17.835,1.088,34.848-7.237,43.4-28.758,2.234-39.148-13.892-36.163-43.4-23.188-6.307-22.618,11.135-28.928,21.7-12.82,1.65-36.217-7.287-28.936,14.463,3.248,16.443,31.119-27.659,36.172,7.232-16.493-2.017-27.193,1.74-28.936,14.464-19.054-2.179-23.736,10.017-21.692,28.932,24.138,7.259,23.721-10.036,21.692-28.932,12.821-1.647,36.218,7.29,28.936-14.464,15.2,6.488,32.145,11.24,43.384,21.7-1.35,20.346-12.574,30.814-36.156,28.928,9.172,33.282-13.153,35.065-21.7,50.628,1.744,19.96,21.33,22.066,36.164,28.927,4.374,17.323,10.4,33,7.228,57.856,9.781-7.1,14.464-19.292,21.7-28.928,5.068-31.585-12.3-40.734-7.236-72.323,1.735-29.611,24.57-38.107,28.936-65.088,29.452,13.94,59.136,27.651,65.091,65.088,18.2-10.723,21.484-36.364,57.856-28.928-8.794,44.95,16.4,55.927,14.464,94.019,8.632,15.1,24.762-22.884,43.392-21.7,8.508-1.133,20.527,1.246,21.7-7.231,5.632,1.6,8.4,6.055,7.229,14.467,22.262,5.385,13.9-19.855,36.163-14.467,34.251-2.909,49.764,12.909,86.784,7.231-15.59,25.4-14.494,67.472-50.627,72.324,12.874,20.875,49.061,18.441,50.627,50.624-22.093-5.226-26.359,7.394-43.391,7.232-2.045-11.679,6.834-12.451,7.227-21.692-6.564-15.135-21.337-22.055-43.392-21.7.687-28.242,35.308-22.552,36.165-50.627,1.534-23.232-25.8-17.6-36.165-28.925-26.228.282-23.242,29.784-43.391,36.16-23.22,6.341-15-18.756-28.928-21.7-43.345,4.872-28.311,68.12-50.62,94.02a36.5,36.5,0,0,0,21.692,21.7c4.444,10.514,8.74-.733,0,0-6.21-23.073,11.386-22.367,14.456-36.16-2.53-26.039-11.054-34.852,0-57.856,16.254,3.039.2,38.37,14.472,43.392,30.856-12.539,52.309-34.482,79.556-50.627,22.717,14-21.268,21.445-28.936,28.932-9.3,12.392-14.95,28.434-36.156,28.923,20.427,27.748,50.473,13.558,86.784,14.472-20.512,40.164-101.078-14.3-115.72,21.692,5.979,6.912,63.935-10.106,72.32,14.467,15.644-6.062,24.677-18.729,50.636-14.467,12.087,12.019,29.282,18.934,28.927,43.392,26.652-2.275,17-40.85,28.928-57.855,13.832,3.047,31.134,2.619,28.92,21.7-9.126-9.782-38.154-13.9-28.92,14.464,10.846,23.906,17.681-15.028,36.164-7.229-2.021,18.889-2.453,36.192,21.7,28.925,15.983-2.931,9.665-42.386-14.472-28.925,1.35-10.714,17.48-6.633,28.928-7.235,6.071,8.393,9.542,19.389,7.236,36.16-10.515,4.447.74,8.744,0,0h14.456c-10.607,17.056-15.259,13.453-7.228,36.164-4.436-2.118-27.84-17.989-28.92,0-7.3,21.749,16.1,12.813,28.92,14.463,7.722,6.747,2.252,26.677,21.7,21.7-3.241,28.608-31.119-8.729-36.164,21.692,9.3,28.975,14.949-1.986,36.164,0,3.216,25.388-48.291,33.209-43.392,0-25.557,13.932-39.6-2.36-57.864-14.463-1.134,8.508,1.25,20.526-7.228,21.694,25.38,13.188,39.759,37.387,86.784,28.933,1.542,8.11,8.022,11.259,14.464,14.464,4,36.989,22.88,59.09,28.936,94.015.91,12.977-8.856,15.255-7.237,28.933-34.859,13.357-42.273,54.152-79.555,65.088,8.169,30.4,34.235,42.91,43.392,72.323,27.678,1.157,57.354,4.313,57.855-21.7,36.45,16.589,18.846,87.227,86.784,72.318,42.289-35.908-12.165-85.013-21.692-115.715,33.827,9,75.73,28.47,79.556-21.7-4.552-26.783-22.348-40.325-57.864-36.16,7.3-21.757-16.1-12.817-28.92-14.464,4.76,9.705,15.459,13.465,28.92,14.464,6.071,15.637,18.73,24.67,14.472,50.624-55.148-3.352-124.629,27.967-137.411-28.929,32.3,30.251,61.874,27.008,108.483,14.465,9.264-43.019-46.022-21.48-43.392-57.86,58.072-2.187,104.7-15.837,101.248-79.551-37.375-16.778-79.085-13.4-115.719,0,15.937-44.333,99.272-21.265,144.647-36.16-5.894,11.548-27.424,44.132-7.236,57.855-20.62,15.536-20.651,51.658-50.62,57.855,34.088,9.308,47.164,39.628,79.556,50.628-25.171,20.627-29.608,62-72.32,65.092,28.765,25.877-2.237,69.266,14.464,101.251-36.38,5.038-50.412-12.276-86.784-7.234-6.742-19.783-22.193-30.846-28.935-50.624-14.766,28.253-59.546-3.562-79.556-14.465-19.293,21.691-35.261,46.7-28.928,94.016-22.054,21.338-60.479,26.306-79.555,50.628-30.7-8.91-38.941-2.65-72.328,0-3.942-29.808-22.633-44.854-36.149-65.091-17.31,21.267-15.08,62.059-28.935,86.787-26.243,7.506-46.038,21.461-65.092,36.159-19.169-.107-42.581,4.012-43.384-14.464-9.326,9.968-31.419,7.159-50.627,7.232-29.769-16.03-31.335-60.278-86.784-50.624-10.321,1.731-12.2,11.907-21.707,14.461-2.014,16.488,1.751,27.191,14.471,28.931-2.121,22-38.247,9.972-43.392,28.929.348,30.99,43.392,19.28,72.32,21.694,16.971,2.312,27.146,11.43,50.628,7.237,22.347-8.987,38.8-23.88,50.62-43.4,7.235,12.386,15.906,48.371,28.927,14.465,13.909,39.126,17.527,88.546,72.328,86.786,26.2-27.184,49.918-73.812,21.692-115.715,23.08-6.2,22.371,11.382,36.164,14.464,17.1-17.589,6.271-68.594-14.464-72.319,34.759-17.669,38.508,57.752,50.627,86.784-17.04-.159-21.29,12.458-43.392,7.231,7.831,46.408-22.3,54.84-14.471,101.252,11.564-10.141,18.475-24.917,21.7-43.393,20.311,13.851-9.936,37.7-7.229,57.855,3.657,32.5,23.822,48.5,50.62,57.856,28.08-5.975,9.026-25.333,21.7-36.16,41.587-3.02,29.584,47.565,50.628,65.091h43.384c33.611-17.749,25.572-89.375-7.228-101.25.7-18.588,28.226-10.338,28.928-28.929-8.9-46.539-67.02-43.877-94.02-72.323-6.51,22.417-30.2,27.659-28.92,57.859-36.657.49-57.215-15.116-57.863-50.623,14.425,7.266,11.417,31.975,36.163,28.923,10.7-18.224,34.382-23.47,28.928-57.855,35.03,18.479,67.1-3.51,101.24-7.231a99.663,99.663,0,0,0-43.384-43.393c14.973-11.544,37.329-15.7,43.384-36.163,20.211,9.283-8.863,28.87-14.456,36.163,17.211,16.547,41.163,26.341,43.4,57.859-30.417-1.485-30.378,27.479-57.864,28.924,26.275,12.293,51,26.156,65.092,50.628-.486,21.207-16.539,26.857-28.928,36.161,37.39,26.479,22.833,66.009,21.7,122.946-45.837-9.291-115.912,11.861-115.719-57.859a174.957,174.957,0,0,1-36.165,36.163c-15.266-6.425-21.375-22.016-43.391-21.7-10.013-26.143-15.652-56.667-28.928-79.555-54.137,1.1-86.328-19.737-101.256-57.856-13.807,17.772-17.919,49.544-7.227,72.319-10.87,11.537-30.456-.2-36.165-14.463-13.33,15.593-22.231,35.615-36.155,50.627-20.265,3.85-37.6,10.615-57.864,14.46-18.907,5.2-22.17,26.047-43.392,28.933-2.213-40.6-39.272-78.757-14.464-122.948-25.271-8.574-27.539-42.192,7.228-43.4-15.575,14.942-3.124,27.394,21.7,21.7-27.863,20.435-27.863,80.816,0,101.251,18.761-7.765,35.469-17.572,65.092-14.468,27.6-15.787,44.34-42.443,50.62-79.552,10.175,1.887,8.246,15.864,14.472,21.7,7.559-16.543,22.594-25.621,21.7-50.627-.663-11.394-18.452-5.658-14.471-21.691-24.184,7.146-39.712,22.96-65.085,28.923-48.182-1.557-98.084-26.59-144.647-7.231,10.021-28.543,19.347-57.8,50.62-65.088-14.34-14.232-4.6-41.309,0-57.855,24.863-3.166,40.538,2.854,57.864,7.231,3.517-9.515-20.481-67.911,7.228-86.788-36.287,7.109-81.716,5.062-94.012,36.161-26.382-12.188-48.876-28.28-79.555-36.161-4.173-15.123-17.936-20.639-14.472-43.391-11.332-15.186-30.039-23-36.156-43.4-.787-39.357,36.951-40.187,28.928-86.784,22.888-8.45,50.906-11.779,57.856-36.159,16.269-11,74.232-15.353,72.319,14.459-28.92-17.981-82.2-7.741-72.319,36.161-14.364-12.042-9.187.655-28.921,0-8.03,25.722-25.156,42.354-36.171,65.091,5.007,14.283,19.293,19.281,36.171,21.7,5.871,25.013-13.506,30.527,0,43.387,16.4,14.939,47.89,14.788,65.093,28.932,1.372,8.213,7.25,4.016,7.227,0,47.689-17.395,116.2-13.974,137.412-57.858,6.148,1.331,6.819-2.82,7.227-7.232h7.237c4.443,10.519,8.74-.732,0,0-1.381-8.208-7.252-4.015-7.237,0-6.148-1.327-6.818,2.823-7.227,7.232-23.313,10.44-60.664,6.839-94.027,7.235-4.189,27.143-44.2,18.476-43.385,50.623h-7.227c-4.7-28.8,3.964-44.242,28.919-43.391,7.267-9.616,6.835-26.914,21.693-28.928,41.092,11.968,68.686,16.643,101.254-7.232-18.374-12.968-24.892-37.787-36.163-57.859,13.415-13.118,17.974-35.061,36.163-43.392,47.033-.2,61.405,9.634,86.785-14.469,6.441,5.621,16.338,7.776,28.935,7.236,1.373,5.855,7.251,7.206,7.236,14.464,6.433-3.205,12.921-6.349,14.456-14.464,28.033-3.31,28.666-34.02,43.392-50.627,32.43,3.5,32.291-25.565,57.863-28.929,21.639.055,30.386,12.994,36.157,28.929,13.507-14.155,26.482-2.23,43.4,0,2.692,41.273-13.16,63.984-28.936,86.786,21.94,22.738,89,31.123,115.72,7.232-6.92-13.469,21.661-24.172,0-28.928,8.624-22.718,39.905-22.772,43.392-50.627,5.839-34.779-31.736-26.124-21.7-65.088-2.553-9.5-12.728-11.375-14.464-21.7-33.487,4.556-52.194-5.658-65.092-21.7-22.88-1.184-24.161,19.22-50.628,14.468-1.118-20.415,20.45-18.132,28.936-28.928-1.119-17.993,11.363-22.39,14.464-36.16-.663-30.675-25.349-37.336-43.4-50.632.356-24.457-16.824-31.372-28.92-43.391-37.776,18.147-43.716,4.239-86.791,0-33.656,13.5-50.1,53.127-36.156,94.023,2.106,9.828,38.239-8.971,43.392,14.46,12.1-9.588,24.23-19.162,50.627-14.46,5.3,6.75,13.146,10.954,21.7,14.46-11.093,42.429,17.357,45.321,36.148,57.86-.131,21.553.679,44.066-21.691,43.392,35.407-50.488-51.292-33.3-36.157-86.788-50.249,2.77-51.252,16.96-94.019,0-14.487,9.633-16.115,32.106-21.692,50.624-20.111-15.926,1.01-51.533,0-72.318-24.77-6.569-43.492-19.193-65.092-28.93-42.281,3.526-47.711,43.9-86.791,50.624v50.624c-28.936-4.81-31.62-35.878-28.928-72.318-9.072-29.5-49.926-27.22-79.556-36.161-14.279,5-19.285,19.29-21.7,36.161-30.324-21.365-49.934,19.388-65.084,36.159q1.33,27.6,28.928,28.932c2.761,26.869-29.306,18.907-21.693,50.624-3.139,27.233,15.274,32.935,28.921,43.391v7.237c-22.255,5.384-13.9-19.857-36.156-14.468-15.221,37.813-85.573,20.5-94.019,65.088.631,23.48,43.121,5.095,36.163,36.163-23.667-14.522-47.966-17.249-79.556-7.232-3.44,27.54,3.063,45.147,21.693,50.628-22.633,24.492-45.468-11.977-72.32-7.235-27.933,5.816-32.153,35.35-50.628,50.628,18.129,12.057,69.034-12.794,72.32,28.927-13.963-13.11-36.65,5.84-50.628,14.465,18.082,24.16,35.053,50.041,72.328,36.159-8.679,9.5-2.823,11.374,0,21.7,36.881,11.333,56.667,39.767,86.791,57.863,18.1,1.224,22.641-11.115,28.92-21.7,21.1,12.369-16.377,26.32-7.228,50.624,52.78,2.156,56.575-44.677,65.092-86.787h7.228c-1.373-8.208-7.251-4.016-7.228,0-59.615,24.16-97.777-24.615-166.34-14.465,8.185-44.846,27.725-78.344,72.327-86.782-10.915-22.851-39.109-28.408-36.171-65.093,17.041.162,21.3-12.458,43.4-7.231,11.239,25.711-24.57,4.362-21.7,21.7,1.9,29.448,28.982,33.7,50.62,43.4-13.168,32.626-70.152,21.449-72.32,65.091,36.851,24.335,102.783,51.909,151.876,21.692,4.759,21.662,15.458-6.915,28.935,0-44.942,27.385-37.343,107.3-94.027,122.948,4.374,26.968,33.24,29.44,36.164,57.859-16.393,7.713-26.275,21.938-28.928,43.392-7.035.2-5.616,8.852-7.236,14.464-12.713,1.744-16.478,12.446-14.464,28.928,9.7-4.752,13.477-15.459,14.464-28.928,7.035-.2,5.624-8.853,7.236-14.464,14.379-.093,9.2-19.732,28.928-14.465,13.576,13.794-4.289,13.088,0,36.16-7.035.2-5.616,8.856-7.228,14.464-6.149-1.326-6.819,2.824-7.229,7.232-8.215,1.377-4.026,7.259,0,7.236v7.231c-10.521,4.447.726,8.74,0,0,22.518-.065,47.126-17.105,65.093,0-6.619,12.674-13.462,25.125-36.172,21.692,12.674,21.395,38.54-4.178,57.863,0,32.561,78.329,55.457,166.339,50.628,282.059-22.549-28.08-19.956-81.292-36.172-115.716-18.136,44.533-26.451,98.9-94.011,94.021-32.446-3.719-49.733-22.588-72.32-36.161,20.535,98.043-62.222,152.315-137.411,108.48,4.134,49.94-6.789,84.823-43.4,94.02,10.931,15.1,48.8-3.749,65.092-7.229,59.406-3.973,105.089,5.8,144.639,21.692-66.125,15.825-109.316,54.6-188.039,57.855,33.4-17.229,72.945-28.311,108.491-43.388-46.307-40.484-188.324,14.745-224.194-36.16-9.991,28.584-14.951,62.2-36.165,79.548-36.325,4.747-58.376-9.088-79.555,0,1.327-6.147-2.824-6.819-7.232-7.229,1.327-6.156-2.819-6.822-7.232-7.236,1.327-6.147-2.823-6.818-7.236-7.227v-21.7c-7.521,2.939-25.383,28.032,0,21.7-1.323,6.147,2.824,6.822,7.236,7.227-1.327,6.156,2.819,6.824,7.232,7.236-1.33,6.148,2.823,6.82,7.232,7.229v57.859c-6.148-1.331-6.823,2.824-7.232,7.232-6.152-1.331-6.823,2.822-7.232,7.235-10.515,4.443.733,8.736,0,0,6.152,1.327,6.823-2.823,7.232-7.235,6.152,1.331,6.823-2.819,7.232-7.232,8.115.737,11.255-10.51,14.46,0-5.037,36.383,12.277,50.408,7.236,86.788,2.3,16.978,11.428,27.145,7.232,50.624a183.147,183.147,0,0,1,14.464,57.859c14.348,21.815,18.159,54.16,43.392,65.088,2.368,33.792,41.031,31.3,43.4,65.088,24.824,16.152,53.8,28.164,65.084,57.862-39.257-13.784-72.721-33.355-108.483-50.619-36.04-16.994-57.27-48.812-94.016-65.1.321-12.374-5.376-18.733-14.468-21.7,1.331-6.151-2.819-6.818-7.228-7.231,1.331-6.152-2.823-6.823-7.232-7.232,1.173-8.407-1.593-12.866-7.232-14.464,1.327-6.147-2.819-6.823-7.232-7.228-4.447-10.519-8.744.729,0,0-1.331,6.147,2.82,6.818,7.232,7.228-1.18,8.408,1.6,12.863,7.232,14.464-1.33,6.152,2.82,6.823,7.232,7.232-1.33,6.152,2.82,6.823,7.228,7.231-.316,12.373,5.377,18.734,14.468,21.7,26.76,45.563,70.279,74.36,108.479,108.48-13.924,15.782-38.67-18.77-50.627-28.928-22.024-11.727-31.18-36.312-57.852-43.4a261.454,261.454,0,0,0-57.86-57.856c-4.443-10.511-8.736.736,0,0,20.269,59.29,49.139,109.97,72.324,166.344,19.359-7.159,8.979-44.063,36.16-43.4v115.72c31.82,62.207,56.3,131.733,94.02,188.039,54.376,70.985,134.58,116.128,202.5,173.567v-57.856c25.017,25.6,10.716,90.541,43.4,108.484h50.613c94.76,35.43,169.248,91.118,209.739,180.81-72.235-60.361-152.192-113-238.659-159.117-4.451-10.508-8.748.739,0,0,33.9,72.173,78.684,133.462,108.476,209.737,20.642-30.569-1.929-79.8,0-115.711,47.534,30.656,46.771,110.96,36.163,180.8,16.864,41.009,46.231,69.488,65.092,108.491,15.69,1.227,3.271-25.658,7.228-36.164,19.4,9.535,12.011,45.846,21.7,65.084,58.643,76.362,123.179,146.838,195.267,209.739,5.122-26.822-12.35-31.034-7.236-57.849,23.76,7.584,31.628,31.05,43.4,50.611,76.878-6.957,105.1,34.737,166.331,43.4-4.62,26.1-34.667-1.96-65.083,7.227-34.76-3.8-56.36-20.773-86.785-28.92,14.311,74.881,93.156,85.233,144.64,122.94,4.019.022,8.215-5.855,0-7.229,24.971-15.026,54.7,27.054,65.092,50.62,69.928,14.464,123.958,44.8,180.811,72.319-55.4,14.318-118.242-26.336-159.111-50.619-18.353,9.627,10.614,32.1,7.235,50.619-27.069-28.38-57.3-53.6-72.327-94.011-55.65-9.436-82.448-47.729-130.175-65.093v-7.228c-8.208,1.373-4.019,7.251,0,7.228,4.921,33.642,28.156,48.993,36.155,79.557-55.68-26.275-82.95-80.983-108.483-137.411-69.1-65.91-140.126-129.883-195.259-209.732-17.357,89.724,32.661,174.617,57.848,245.888-63.735-61.627-100.97-149.738-94.02-282.059-26.459-38.617-56.914-73.261-79.548-115.7-18.051,32.577-26.953,74.294-50.635,101.247-11.787-40.869,20.319-100.112,28.944-144.646-45.021-89.985-87.463-182.554-144.655-260.359-18.422,83.575,27.307,165.507,43.391,238.667-44.179-37.774-57.9-106.021-79.548-166.347v-115.711c-55.272-50.806-121.127-91.027-173.575-144.641-4.443-10.521-8.74.733,0,0,8.4,42.212,39.35,61.9,50.628,101.248h-14.464c.316-12.365-5.369-18.729-14.464-21.7,1.327-6.148-2.824-6.819-7.228-7.229,1.172-8.416-1.6-12.867-7.236-14.471-4.451-10.516-8.732.74,0,0-1.18,8.424,1.589,12.875,7.236,14.471-1.334,6.156,2.815,6.82,7.228,7.229-.316,12.365,5.369,18.729,14.464,21.7-15.374,21.839-26.93-20.72-43.4-21.7-9.9-19.03-30.441-27.408-36.157-50.62-14.471,94.012-61.782,155.185-115.715,209.73-9.6-33.872,36.438-74.332,36.16-122.947q30.2-60.215,43.392-137.41c-16.755-48.337-31.89-98.286-50.62-144.648-16.79,38.664-2.484,108.422-7.236,159.1-25.707,11.246-4.359-24.555-21.7-21.692-1.45-27.479-6.4-51.461-14.464-72.32v-144.64c-71.321-109.479-107.068-254.549-180.807-361.613-27.782,39.715-30.3,104.7-28.928,173.574-23.072,4.29-22.363-13.576-36.16,0-45.722,57.933-73.566,133.763-115.715,195.268-13.955-28.657,26.517-64.914,21.7-108.482,16.377-34.252,31.8-69.437,36.159-115.716,12.628-6.653,15.961-22.61,14.461-43.393,20.322-23.073,24.835-61.956,36.163-94.02-12.358-33.846-45.871-1.944-65.091-28.929-6.133-30.242,19.582-28.63,28.928-43.391-18.225-22.4-23.47,29.078-57.856,14.464-18.46-22.961,14.683-52.818-28.928-50.624,13.831-19.925,29.56-37.937,43.392-57.859,6.152,1.335,6.823-2.823,7.231-7.232,13.774-3.1,18.171-15.582,36.161-14.464.142-21.306-43.909-13.576-36.161,14.464-6.148-1.331-6.818,2.82-7.231,7.232H798.646c-6.072-8.394-9.539-19.39-7.232-36.159,9.322-9.967,31.411-7.159,50.624-7.236-4.953-25.313-45.672,7.189-50.624-28.928v-14.464c6.152,1.331,6.823-2.82,7.232-7.229,26.089-3.788,32.144-54.8,65.091-28.932.3-23.806,12.208-36,7.229-65.092,18.749,10.183,33.394,24.47,50.631,36.164-15.748-66.657-9.5-166.645,14.46-216.968,7.035-.2,5.609-8.852,7.232-14.468,10.511-4.442-.736-8.735,0,0-7.035.2-5.612,8.856-7.232,14.468-31.4,38.51-54.99,84.832-72.32,137.412-25.792,41.713-42.331,92.669-65.091,137.415-6.152-1.335-6.82,2.819-7.232,7.229-60.756,86.3-139.29,154.821-209.735,231.43-16.423-12.249,4.265-48.282,14.464-57.859,18.915-94.394,57.335-169.274,86.788-253.127,15.686-1.215,3.278,25.658,7.231,36.16,26.148-24.477,42.551-58.7,72.324-79.552,16.944-33.675,51.2-50.045,65.088-86.783,6.152,1.327,6.823-2.824,7.231-7.235,14.5-12.02,33.619-19.416,36.161-43.393,6.152,1.331,6.826-2.82,7.232-7.231,6.155,1.33,6.827-2.823,7.235-7.232,6.152,1.327,6.824-2.82,7.232-7.232,6.438-3.205,12.933-6.352,14.464-14.468,7.031-.2,5.612-8.848,7.232-14.46,6.152,1.323,6.823-2.823,7.236-7.231,6.149,1.326,6.819-2.823,7.228-7.232,6.152,1.327,6.823-2.823,7.232-7.235,6.148,1.33,6.824-2.815,7.232-7.229,6.152,1.327,6.823-2.823,7.232-7.236,6.156,1.327,6.823-2.818,7.236-7.23,6.148,1.326,6.82-2.82,7.228-7.232,10.515-4.447-.733-8.741,0,0-6.148-1.323-6.819,2.819-7.228,7.232-6.156-1.327-6.823,2.822-7.236,7.23-6.152-1.326-6.823,2.827-7.232,7.236-6.152-1.33-6.823,2.82-7.232,7.229-6.152-1.326-6.819,2.823-7.232,7.235-6.148-1.327-6.823,2.82-7.228,7.232-6.156-1.33-6.827,2.819-7.236,7.231-7.039.2-5.612,8.854-7.232,14.46-12.3-2.657-13.642,5.647-14.464,14.468-6.152-1.331-6.823,2.824-7.232,7.232-6.152-1.331-6.826,2.823-7.235,7.232-6.152-1.327-6.82,2.818-7.232,7.231-14.5,12.022-33.615,19.42-36.161,43.393-6.148-1.327-6.818,2.822-7.231,7.235-52.823,31.551-72.632,96.114-130.18,122.947-4.165-46.462-35.291-65.963-43.391-108.487H531.055c-5.708-15.986-25.294-18.1-36.16-28.928-1-25.514-20.7-32.338-21.7-57.856C406.73,9072.586,369.178,8967.9,321.32,8873.527v-36.159c1.651-12.821-7.29-36.222,14.464-28.933-3.124,46.521,1.524,85.265,21.7,108.487,12.08,40.955,37.668,68.4,50.624,108.48,15.092-22.039,38.25-3.762,72.319-14.465,27.393,3.946,45.185,17.491,79.556,14.465,13.376-1.088,4.439-24.493,14.464-28.933,19.034,7.487,24.361,28.682,43.395,36.163-40.1,13.666-136.751-.875-173.574,36.161,36.568,34.825,75.945-9.542,122.947-7.233-10.846,37.368-47.191,49.243-86.788,57.86-.139,50.768,31.652,69.6,50.628,101.252h130.18c39.8-6.009,63.583-28.024,94.019-43.4,34.679-20.764,55.291-55.6,94.016-72.32-34.224,35.682-56.938,82.885-79.552,130.176,21.156-2.951,23.466-24.747,36.16-36.161,45.239-34.311,77.708-81.4,122.947-115.715,14.811-21.348,34.644-37.675,57.856-50.624,8.165,8.706,20.647,13.111,14.467,36.161,10.206-25.955,33.785-38.533,43.389-65.092,19.964,8.62,25.391,20.531,50.631,7.235,4.282,30.2,45.664,34.443,72.32,21.7-6.36-23-29.051-24.5-50.624-14.463-2.04-11.683,6.835-12.451,7.232-21.7-27.258-5.554-34.571,8.825-57.859,7.232.918-12.972-8.852-15.251-7.229-28.924-19.609,4.494-18,30.212-43.4,28.924,15.733-42.123,44.919-70.793,57.855-115.712,7.035-.2,5.609-8.852,7.232-14.464,7.036-.2,5.617-8.856,7.237-14.468,7.031-.192,5.611-8.848,7.231-14.465-7.035.2-5.616,8.856-7.231,14.465-7.04.2-5.617,8.856-7.237,14.468-7.035.2-5.611,8.852-7.232,14.464-18.3,5.809-18.444,29.772-28.931,43.393-32.658-8.32-62.346-19.614-57.856-65.093,12.863-6.418,18.382-20.191,43.4-14.459,30.78-27.081,64.961-50.751,79.552-94.021,7.036-.2,5.612-8.852,7.236-14.464h7.232v28.929c-8.478,1.169-6.1,13.187-7.232,21.7-7.039.2-5.616,8.853-7.236,14.464,7.036-.2,5.612-8.852,7.236-14.464,8.474-1.169,6.094-13.184,7.232-21.7,21.5-31.535,29.379-76.694,43.392-115.717,5.265-19.735-14.375-14.556-14.464-28.932-31.836-33.251-57.382-72.8-101.252-94.015,1.327-6.152-2.823-6.823-7.235-7.232-9.3-12.4-14.954-28.437-36.16-28.931,1.33-6.149-2.82-6.82-7.229-7.233-3.158-8.9-9.256-14.849-21.7-14.459,1.33-6.151-2.824-6.828-7.232-7.232-3.155-8.9-9.253-14.857-21.7-14.468,1.327-6.147-2.82-6.819-7.232-7.228-.2-7.036-8.852-5.613-14.464-7.237,1.327-6.151-2.82-6.821-7.228-7.23-4.451-10.511-8.744.736,0,0-1.33,6.15,2.816,6.827,7.228,7.23.2,7.04,8.852,5.613,14.464,7.237-1.326,6.147,2.82,6.818,7.232,7.228,3.155,8.9,9.257,14.854,21.7,14.468-1.327,6.152,2.824,6.822,7.232,7.232,3.159,8.891,9.257,14.854,21.7,14.459-1.33,6.152,2.82,6.827,7.229,7.233,9.3,12.4,14.957,28.441,36.16,28.931-1.323,6.152,2.823,6.823,7.235,7.232,6.828,22.1,35.192,22.664,36.165,50.628-64.757-25.16-52.561,54.187-130.18,36.16-9.558.081-6.615,12.674-14.468,14.464,16.358,74.414-13.222,145.449-21.692,216.967-41.934-44.858-29.36-144.224-50.631-209.735,3.548-32.479-3.661-54.191-7.229-79.556-23.265-24.72-55.668-35.235-86.787-50.624-31-15.335-63.317-37.378-101.252-43.392-22.856-30.179-76.315-29.757-101.251-57.86-43.9-9.141-79.1-26.972-115.716-43.391-39.87,2.814-50.215-7.822-79.552,0-10.7,3.764-18.228,10.7-28.927,14.464-17.654,16.095-34.771,32.727-36.164,65.092-17.036-.166-21.291,12.454-43.392,7.228,14.522-42.143,59.684-71.538,36.16-130.18,21.068-15.59,35.863,7.432,50.628-14.46-19.139-15.343-61.223-18.895-86.788-7.236-1.832,25.939,21.716,26.494,21.7,50.624-34.324,2.986-37.995-24.677-72.319-21.691-28.663.266-34.606,23.25-50.628,36.16,10.63,23.111,58.669,8.827,79.552,21.7.922,25.024-37.653,10.558-43.392,28.929,14.491,16.854,21.642,41.038,57.859,36.159-29.61,24.427-56.825-15.221-79.555-21.7-.39-12.439,5.569-18.538,14.464-21.7-28.481-17.321-60.016-31.593-65.088-72.319,54.794,8.99,60.919-30.69,115.712-21.7,10.714-1.339,6.634-17.477,7.235-28.929,9.778-2.274,13.812-10.294,28.928-7.23-14.637-14.858,2.947-14.435,14.465-21.7v-43.393c21.174-2.932,29.3-18.906,43.391-28.928-2.229-17.052-25.113-13.453-21.7-36.16-39.064,6.742-82.664,8.941-94.019,43.4,1.573,26.453,9.935,27.74,0,50.624,6.136,15.563,17.816,25.577,43.4,21.7-15.058,26.737-42.011,4.744-57.86-7.235v-36.161q-41.284-12.952-72.319-36.159c-17.326,4.373-33,10.395-57.856,7.235-12.049-14.371.652-9.2,0-28.931-28.372-10.206-36.762-40.384-65.092-50.624,4.826-24.106,18.591-39.265,50.624-36.164,18.059-5-13.422-19.293-7.231-36.159,18.271-12.1,32.306-28.4,57.859-14.465,10.46-25-8.077-34.084,7.232-50.623-20.461-18.113-63.483-13.665-72.324-43.392.822-8.829,2.164-17.125,14.464-14.468-24.963-8.786-4.351-63.151-21.7-79.552,15.745-26.57,64.938-9.557,79.556,7.229,21.634-12.111,34.393-33.106,50.624-50.624,16.87,2.418,31.161,7.409,36.159,21.7,20.4-1.3,9.018-34.374,36.161-28.929,4.451,10.515,8.743-.736,0,0-2.959-17.425,13.21-15.721,7.235-36.163,20.1-23.289,67.028-19.752,72.32-57.852,11.714,34.089,38.768,52.841,43.4,94.015,29.124,2.608,13.338-39.692,36.16-43.391h14.464c10.857,13.249-.228,48.44,36.159,36.16v28.927c14.411-10.468,25.33,7.518,36.164-14.463,3.826,5.816,7.544,11.745,7.228,21.7,19.058,2.183,23.737-10.017,21.7-28.929,16.134,7.414,5.708,48.422-14.464,43.4-1.223,25.325,25.445,22.767,36.16,36.159-2.634,40.989,37.236,70.638,21.7,101.252-10.268-.625-20.481-1.192-21.7,7.232-2.214,14.687,20.894-1.482,21.7-7.232,5.612,1.62,14.267.2,14.464,7.232,1.1,22.8-29.321,14.067-36.16,28.927.86,20.836-3.953,47.346,7.236,57.857,122.184-46.563,266.314-71.187,405-101.248-90.171-15.39-172.7,39.4-267.6,43.391-4.189-23.477,4.926-33.644,7.232-50.627,109.452-25.244,209.1-91.748,339.915-72.32,39.253,33.071,71.6,73.045,101.251,115.716,3.753,56.884,16.527,133.9,0,188.035,3.791,22.727,12.69,40.349,21.7,57.859,8.679-13.869-5.786-66.264,0-101.251,2.036-11.683-6.835-12.454-7.232-21.7v-94.016c-5.211-76.755-67.344-96.588-94.016-151.874,31.6,9.38,40.715,41.239,72.32,50.624,24.018-31.767-56.371-52.287-36.16-79.556,4.444,10.514,8.736-.733,0,0-2.017-14.858-19.32-14.43-28.931-21.692,1.327-6.156-2.82-6.828-7.229-7.236,1.323-6.149-2.823-6.819-7.236-7.233,1.327-6.147-2.823-6.819-7.235-7.227-4.44-10.519-8.736.733,0,0-1.323,6.148,2.823,6.819,7.235,7.227-1.326,6.152,2.824,6.824,7.236,7.233-1.33,6.152,2.816,6.823,7.229,7.236-31.713,26.521-53.737-18.314-79.556-21.7-12.724,1.735-16.485,12.443-14.464,28.928,11,25.159,62.187,10.136,72.32,36.159,1.18,8.405-1.593,12.867-7.228,14.464-17.693-20.882-64.14-13-101.252-14.464-84.712,28.589-181.435,45.174-253.126,86.784v57.86c-12.86,13.5-18.38-5.879-43.4,0,4.285-35.624-6.986-55.688-43.392-50.624,5.249-22.124-12.473-21.276-7.228-43.4,7.413-23.925,20.03-42.643,50.62-43.391-1.732,10.321-11.911,12.2-14.46,21.7-10.519,4.443.732,8.736,0,0,18.475-.806,25.31-13.253,36.16-21.7H675.7c-1.789-9.1-14.379-7.295-14.463,0-2.35,1.739-12.868-2.265-14.465,0,30.464-43.323,143.733-57.691,195.268-94.02,57.092-3.178,88.658-31.882,151.879-28.932-52.017-20.543-112.665,12.6-151.879,28.932-92.484,16-165.252,51.711-238.663,86.787-13.453,13.064-26.5,26.533-21.7,57.857-29.915-27.093-9.87-59.863-21.7-101.248,3.382-25.554,18.267-39.593,28.932-57.86,17.8,15.941,43.542,23.96,50.62,50.624,22.71,3.417,19.112-19.463,36.163-21.7,12.594-.544,22.491,1.616,28.929,7.236,101.371-23.987,171.364-79.355,303.75-72.328,75.135,52.637,150.248,105.294,216.975,166.343,4.443,10.511,8.732-.732,0,0-21.114-40.653,18.86-97.946-14.472-122.947,11.355-15.521,60.864-8.3,65.092,7.232,9.635-36.168,45.775-45.829,43.391-94.016,26.591-2.484,21.87,26.344,28.936,43.388,15.3-30.5,37.976-53.617,86.783-50.624,15.606,16.466-14.487,28.018-21.692,43.4-5.716,23.212-26.273,31.6-36.171,50.624-29.152,28.7-41.779,73.932-57.856,115.715C1321.238,7921.83,1330.911,7945.9,1326.592,7983.964ZM270.7,7817.625c-19.732,5.272-14.556-14.372-28.928-14.46-9.719,10.572-14.787,57.281,7.229,57.855,6.491-15.208,11.243-32.156,21.7-43.4,29.568-24.176,55.731,16.2,79.556,0,11.258-33.194,5.558-60.159-14.468-79.552C289.669,7737.027,245.255,7770.6,270.7,7817.625Zm737.681-65.092c-2-2-10.97,3.495-7.229,7.236C1003.147,7761.771,1012.118,7756.275,1008.377,7752.533Zm-607.505,28.932h21.7v-21.7h-21.7Zm621.973-21.7c-2-2-10.973,3.49-7.232,7.232C1017.614,7769,1026.586,7763.51,1022.845,7759.769Zm-86.788,21.7c21.981-4.532,62.295,9.261,72.32-7.232C985.6,7763.548,953.83,7767.664,936.057,7781.465Zm412.242-7.232c-8.416-1.172-12.875,1.6-14.472,7.232h-21.7v21.7c-15.428-3.383-13.762,10.333-14.456,21.7-6.156-1.331-6.826,2.819-7.236,7.232-25.711,11.239-4.358-24.566-21.7-21.7-13.654,18.943,16.6,42.3,7.237,79.556,15.922,16.991,2.969,57.841,36.155,36.161-23.775-20.019-34.983-56.306-21.692-94.016,6.156,1.322,6.82-2.824,7.236-7.232,6.75-5.3,10.954-13.153,14.456-21.7a36.534,36.534,0,0,0,21.7-21.7c8.416,1.176,12.868-1.593,14.472-7.232C1358.814,7769.79,1347.559,7765.492,1348.3,7774.233Zm-303.762,7.232c4.447,10.51,8.743-.733,0,0C1040.1,7770.954,1035.8,7782.2,1044.537,7781.465Zm737.688,28.927c-21.214-6.144,9.4-18.2,0-36.159h-21.692C1760.078,7789.839,1769.011,7832.328,1782.225,7810.392Zm-853.4-28.927c-8.509,1.134-20.527-1.242-21.7,7.231C915.638,7787.563,927.656,7789.943,928.825,7781.465Zm94.02,0c-2-2-10.973,3.49-7.232,7.231C1017.614,7790.7,1026.586,7785.2,1022.845,7781.465ZM1753.3,7788.7c-.092-7.3-12.682-9.1-14.471,0C1740.368,7797.437,1746.856,7793.14,1753.3,7788.7Zm-1352.425,21.7c.393-12.438-5.569-18.54-14.46-21.7C376.063,7799.265,375.782,7816.7,400.872,7810.392Zm28.931,0c21.094,10.634,21.094-32.326,0-21.7Zm455.63-14.463c-26.123,2.807-48.259,9.6-65.087,21.7,28.469,3.371,37.552-15.159,50.62,7.236-4.49,22.024-38.9,14.135-43.392,36.159,22.343,18.726,51.418-2.132,79.555,0,11.911-19.432,59.65-3.031,50.628-43.4-21.114-18.981-41.668,6.429-72.324,0-8.678-9.5-2.819-11.375,0-21.7C915.469,7802.845,886.891,7774.272,885.433,7795.929Zm-470.093,0c-2-2-10.97,3.491-7.232,7.236C410.11,7805.162,419.081,7799.67,415.34,7795.929Zm166.339,65.091c12.369-11.736,26.324-21.9,50.628-21.7C633.3,7768.991,542.672,7803.06,581.679,7861.02Zm491.789-57.855c-1.327,6.148,2.824,6.819,7.232,7.227v7.233c5.817,3.83,11.742,7.548,21.7,7.236-1.326,6.152,2.823,6.822,7.232,7.232v7.231c22.595,8.748,31.447,31.231,57.86,36.161,27.57,32.7,54.384,66.152,72.319,108.479-2.128-58.134-30.972-89.561-72.319-108.479-12.96-20.79-31.612-35.887-57.86-43.392,1.331-6.152-2.819-6.828-7.232-7.232-3.155-8.9-9.253-14.858-21.7-14.469,1.331-6.147-2.823-6.819-7.232-7.227C1069.021,7792.646,1064.729,7803.9,1073.468,7803.165Zm-708.756,0c-2-2.006-10.974,3.486-7.228,7.227C359.482,7812.4,368.453,7806.9,364.712,7803.165Zm1424.741,14.46c18.1.9,22.648,13.8,28.935-7.233C1808.769,7801,1791.474,7800.858,1789.453,7817.625Zm-1381.345,7.236h14.464v-14.469H408.108Zm-188.035,57.855c23.585-28.781-16.705-55.341-36.164-65.091-24.5,11.663-35.439,36.889-43.392,65.091-11.248-22.5-32.627-34.876-65.092-36.163,5.227,22.1-7.394,26.355-7.232,43.4,2.307,16.979,22.387,16.188,28.928,28.928-3.108,11.355-22.749,6.18-14.46,28.928,17.318,4.378,32.993,10.4,57.856,7.232-11.537-62.341,50.924-63.761,94.015-50.624C236.7,7890.195,224.771,7890.071,220.073,7882.716Zm564.109-50.623c16.485,2.017,27.184-1.744,28.928-14.468C799.645,7818.62,788.938,7822.384,784.182,7832.093Zm-462.862,7.231c-9.627-18.953-32.1-13.816-50.624-7.231,7.368,31.473-14.965,33.251-21.7,50.623,23.905,10.846-15.028,17.685-7.229,36.16,20.69-5.824,28.843-24.195,50.624-28.928,13.8,22.518,31.4-11.3,50.624-7.232,18.684,17.789,60.066,17.92,72.324-7.231a257.158,257.158,0,0,0-50.628-50.624C343.536,7822.97,342.495,7841.207,321.32,7839.324Zm1439.213,0c9.773,2.276,13.808,10.295,28.92,7.229v-21.692C1772.968,7822.839,1762.269,7826.6,1760.533,7839.324Zm57.855,7.229c16.478,2.02,27.178-1.74,28.929-14.46-9.774-2.276-13.817-10.295-28.929-7.232Zm-1410.28-7.229c-7.876,33.869,33.869-7.872,0,0C403.661,7828.806,399.368,7840.057,408.108,7839.324Zm14.464,50.624c62.588-2.321,81.325,39.207,94.016,86.788,11.972-24.192,25.583-46.743,21.7-86.788-10.862-17.163-30.447-7.224-36.16-14.463.324-22.016-15.266-28.126-21.7-43.392C435.936,7826.172,421.754,7850.56,422.572,7889.948Zm354.378-57.855c-5.612,1.616-14.267.2-14.464,7.231C768.094,7837.7,776.749,7839.124,776.95,7832.093Zm889.556,7.231c-.309,9.952,3.409,15.88,7.235,21.7,19.054,2.176,23.737-10.013,21.7-28.927C1682.844,7831.545,1672.947,7833.705,1666.506,7839.324Zm57.855,28.928h21.7c-9.233-23.578,9.065-34.81-14.464-36.159C1734.559,7849.515,1718.391,7847.81,1724.361,7868.252Zm86.792-36.159c-5.616,1.616-14.271.2-14.472,7.231C1802.305,7837.7,1810.952,7839.124,1811.153,7832.093Zm-108.484,28.927h14.464v-14.467h-14.464ZM682.931,7911.644c18.76,16.632,47.834-.258,65.091-7.232,27.8-3.537,58.507-4.17,50.624-43.392-24.863-3.163-40.538,2.854-57.86,7.232-9.631,1.081-21.827-29.406-28.928-7.232C740.03,7887.333,666.746,7873.348,682.931,7911.644Zm433.933-50.624c-1.331,6.152,2.82,6.824,7.232,7.232,4.444,10.511,8.74-.736,0,0,1.327-6.152-2.819-6.826-7.232-7.232C1112.417,7850.506,1108.12,7861.753,1116.864,7861.02Zm701.524,21.7v-28.931h-28.935Q1784.421,7887.751,1818.388,7882.716Zm-672.6,0c-1.323,6.152,2.824,6.824,7.236,7.232-1.327,6.152,2.819,6.824,7.232,7.232-.32,12.37,5.373,18.73,14.464,21.7-1.327,6.152,2.819,6.823,7.228,7.233-1.172,8.407,1.6,12.867,7.236,14.467,4.447,10.511,8.744-.737,0,0,1.177-8.412-1.6-12.871-7.236-14.467,1.331-6.153-2.819-6.824-7.228-7.233.316-12.369-5.373-18.726-14.464-21.7,1.327-6.152-2.819-6.823-7.232-7.232,1.327-6.152-2.823-6.823-7.236-7.232C1141.345,7872.2,1137.052,7883.453,1145.788,7882.716Zm325.451,94.02c-22.256,5.384-13.893-19.856-36.157-14.464-4.574,26.367-8.793,45.085,7.229,65.087,16.624-9.893,17.95-35.079,28.928-50.623,27.238-14.368,58.511-4.682,79.562,7.228-5.5-18.383,49.409-12.131,21.693-28.928,9.017-42.767-15.822-51.689-28.935-72.32C1496.117,7889.3,1443.892,7918.128,1471.239,7976.736Zm-1113.755-36.16c2.033,11.683-6.839,12.447-7.232,21.7,12.709-4.162,42.489,8.736,43.392-7.236-23.073,6.2-22.371-11.379-36.16-14.46-5.979-20.443,10.19-18.738,7.228-36.164-18.8-17.951-43.986-1.5-50.624,14.464-8.393-6.067-19.393-9.534-36.159-7.232-.093,14.371-19.738,9.2-14.465,28.932,23.169,17.507,25.5,8.782,50.624,0C323,7962.545,338.962,7932.73,357.484,7940.576Zm14.464-7.232c9.249,9.889,34.143,9.889,43.392,0,7.721,6.742,2.248,26.679,21.7,21.692,38.161-7.888,40.63-2.144,57.859,21.7C515.573,7899.923,394.149,7879.955,371.948,7933.344ZM198.373,8077.983c-48.788,10.314-74.021,35.921-57.856,94.023,30.417.922,28.627,34.051,57.856,36.161,20.442-20.543,33.178-48.788,57.859-65.092-26-14.98-44.637-37.332-57.859-65.092,6.541-34.447,28.719-53.238,50.624-72.32-15.124-6.568-22.047-21.344-21.7-43.391-2.141-19.023,28.059-5.7,21.7-28.928-18.472-.81-25.31-13.257-36.161-21.7-20.256,3.85-37.6,10.614-57.855,14.465,2.731,26.844,1.1,49.315-21.7,50.627C135.622,8023.7,131.43,8079.587,198.373,8077.983ZM654,7918.876c17.472,37.2,18.691-24.9,0,0Zm1106.53,0c-5.708,27.848,34.621,27.848,28.92,0C1769.72,7919.528,1774.9,7906.83,1760.533,7918.876ZM632.307,7933.344c10.51-4.451-.737-8.74,0,0-16.038,3.981-10.3-13.816-21.7-14.468v21.7C620.874,7941.2,631.092,7941.768,632.307,7933.344Zm513.481,0c-21.657,1.462,6.916,30.035,0,0,10.268.617,20.485,1.191,21.7-7.235-5.859-1.374-7.209-7.252-14.464-7.233C1151.651,7924.735,1145.769,7926.089,1145.788,7933.344Zm607.509-7.235c-5.623,1.623-14.271.2-14.471,7.235C1744.449,7931.724,1753.1,7933.143,1753.3,7926.109Zm-101.255,36.163h21.7v-21.7h-21.7Zm-28.921,7.232v14.46h28.921c7.29-21.75-16.107-12.813-28.921-14.46,2.184-19.058-10.02-23.737-28.935-21.7C1592,7966.857,1604.2,7971.536,1623.121,7969.5Zm21.693-14.468c-.085-7.294-12.675-9.1-14.464,0C1631.877,7963.776,1638.365,7959.483,1644.814,7955.036Zm108.483,21.7c2.268-9.782,10.3-13.812,7.236-28.932H1731.6C1729.561,7966.719,1734.243,7978.911,1753.3,7976.736Zm195.267,130.179c-3.039,13.828-2.623,31.126-21.7,28.932,5.615-6.441,7.775-16.335,7.228-28.932-22.41-4.1-19.008-34.023-43.385-36.16q1.62,26.938-14.463,36.16-8.333-35.067-43.392-43.4c-31.844,13.877-29.623,43.364-14.465,72.327,5.493,18.383-49.416,12.127-21.707,28.924,3.116-16.168,35.647-2.932,50.636-7.232,8.037-18.476,22.093-30.945,43.391-36.164,18.09,8.435,27.81,25.221,57.856,21.7,7.321-9.049,27.686-55.591,0-36.16,29.1-48.66-2.522-84.485-14.471-130.179-30.749-4.235-5.4,47.626-36.149,43.392-16.037-24.952-11.517-70.454-50.627-72.324-32.909,8.081-30.764,51.2-28.929,94.02,25.55,3.378,39.59,18.267,57.857,28.931,9.681-14.433,16.87-31.354,36.155-36.16C1914.09,8069.066,1932.565,8086.759,1948.564,8106.915ZM299.625,7998.432c10.263.62,20.48,1.191,21.7-7.232-11.683,2.036-12.45-6.839-21.7-7.236-2.041-11.683,6.834-12.451,7.231-21.692-27.3,3.8-33.954,10.155-50.624-7.236-27.111,30.672,22.437,76.1,43.393,57.86C289.114,8009.69,300.361,8006.547,299.625,7998.432Zm904.027-43.4c-2.006-2-10.978,3.494-7.236,7.236C1198.422,7964.27,1207.393,7958.777,1203.652,7955.036ZM335.784,7969.5c-31.859-1.342-2.048,28.465,0,0C346.3,7965.056,335.051,7960.764,335.784,7969.5Zm94.019,0c-24.364-21.97-21.93,26.737,0,0Zm43.4,7.232c4.44,10.51,8.736-.733,0,0C471.733,7955.074,443.157,7983.647,473.2,7976.736Zm715.985-7.232c-2-2.006-10.969,3.49-7.236,7.232C1183.954,7978.734,1192.922,7973.241,1189.184,7969.5Zm21.7,0c-2-2.006-10.97,3.49-7.228,7.232C1205.65,7978.734,1214.622,7973.241,1210.88,7969.5ZM473.2,7991.2c-24.862-3.167-40.537,2.854-57.859,7.232-5-14.287-19.293-19.282-36.161-21.7-55.861-7.649-35.989,60.44-57.859,86.784,6.5,21.175,6.5,22.22,0,43.4,17.318,9.2,26.629,26.406,57.859,21.7,4.39-36.592,13.131-68.841,57.857-65.091,6.861-14.835,8.971-34.421,28.928-36.161,23.284-1.585,30.605,12.791,57.859,7.236-6.1-30.216,14.059-34.158,14.46-57.859-30.463,3.282-33.294,34.2-57.856,43.392C480.971,8007.531,478.815,7997.637,473.2,7991.2Zm188.036-14.464c-2-2.006-10.974,3.49-7.232,7.228C656,7985.97,664.972,7980.473,661.235,7976.736Zm752.155,86.784v14.463c17.8,11.247,21.253-24.562,7.229-21.7,6.487-49.891-16.146-70.649-50.628-79.551-12.019,16.909-40.383,17.476-36.164,50.623,25.48,8.274,51.608,15.9,65.084,36.161-32.654-1.825-49.208-30.9-79.548-14.465-3.355-27.983-39.882-22.794-57.863-36.159-10.908,24.816-13.454,72.99,14.472,79.556-6.743,7.717-26.676,2.248-21.7,21.695,10.159,21.183,40.445,22.24,72.32,21.7C1310.739,8066.945,1372.282,8075.465,1413.39,8063.52Zm202.5-86.784c-2.006-2.006-10.977,3.49-7.236,7.228C1610.656,7985.97,1619.635,7980.473,1615.886,7976.736Zm-419.47,21.7c-1.327,6.152,2.823,6.823,7.236,7.231v7.233c30.44-5.782,7.59-46.008,0-7.233,1.326-6.152-2.823-6.822-7.236-7.231C1203.335,7968.393,1174.755,7996.97,1196.416,7998.432Zm383.306,72.323c-44.24-9.766-52.826,27.277-86.783,7.228-13.655,10.457-32.068,16.157-28.936,43.392,9.573,3.321,47.457,14.1,21.707,28.932-22.286,5.4-8.817-24.936-36.171-14.46-16.578,26.479,25.379,88.3,57.863,65.083-18.151-3.082,6.943-20.666,21.692-14.464-3.911-21.526-38.316-26.433-7.227-43.392-10.261.621-20.482,1.2-21.7-7.228-.316-12.377,5.377-18.738,14.463-21.7,19.8,31.342,35.678-10.942,57.864,7.228v14.472c-6.156-1.334-6.827,2.816-7.236,7.228h50.628c6.657-28.357-38.147-5.245-43.392-21.7-5.8-25.082,10.769-27.794,7.228-50.62,29.483,5.374,24.9-23.312,57.856-14.468-9.651-36.151-32.785-58.816-65.084-72.323-15.058,4.243-23.381,15.2-36.164,21.7-6.572-15.127-21.344-22.05-43.391-21.7-.2,7.035-8.849,5.616-14.465,7.236-1.087,35.045-39.334,46.77-21.7,79.555-12.3-2.661-13.646,5.636-14.463,14.46,10.931,15.108,24.785-27.759,50.628-21.695,30.3,18.212,32.275-15.7,72.319-7.233C1571.707,8059.5,1578.187,8062.64,1579.722,8070.755ZM661.235,7991.2c-2-2.006-10.974,3.491-7.232,7.232C656,8000.433,664.972,7994.937,661.235,7991.2Zm983.579,36.159c5.693-24.978-6.758-31.812-21.693-36.159C1623.924,8009.675,1636.375,8016.51,1644.814,8027.359Zm115.719,130.18c1.9,23.6-22.494,20.9-28.936,36.163,31.9-113.05-98.94-158.243-144.647-86.787,10.522,11.181,37.028,6.372,57.864,7.232q-1.98,23.668,21.692,21.7c22.124,5.246,21.275-12.486,43.4-7.236,21.546,7.379,6.333,51.511,21.692,65.091,1.335,6.147-2.815,6.824-7.236,7.229-14.356-4.926-16.538-22.02-28.92-28.925-58.7,18.793-64.544-17.048-122.947-14.467-38.385,34.119-37.768,102.944-43.4,151.879,17.612,13.731,35.755,26.923,72.32,21.7-5.793-25.09,10.769-27.8,7.236-50.627,16.678-7.434,23.319-24.9,50.62-21.7,14.764-14.16,15.151-42.7,43.4-43.393,30.409,9.2,30.378,11.214,57.864,14.469-4.829-35.709,42.62-81.014,0-72.324,12.875-36.418,26.421-64.513,14.456-108.484-9.21-18.463-35.423,6.708-36.163-7.231-4.66-31.5-18.73-53.582-57.856-50.624-21.206,12.535-33.58,33.918-36.156,65.087,76.153.363,94.806,54.107,108.483,108.484C1751.762,8158.673,1756.275,8157.909,1760.533,8157.539Zm-520.726-159.107c-1.989-2-10.968,3.49-7.227,7.231C1234.57,8007.666,1243.549,8002.173,1239.807,7998.432Zm-50.623,137.415c10.51-4.451-.733-8.744,0,0-30.683-16.018,14.236-87.081-21.7-122.951C1171.962,8051.96,1153.468,8152.07,1189.184,8135.847Zm50.623-101.252c.541-10.136-1.619-27.658-7.227-14.467C1232.039,8030.26,1234.2,8047.787,1239.807,8034.6Zm-954.647,7.229c-2.557,9.5-12.732,11.374-14.464,21.7,17.939,1.064,35.1,1.35,36.16-14.465-11.683,2.037-12.45-6.838-21.7-7.231,1.049-20.335-17.715-20.859-36.163-21.7-4.035,14.745-21.758,14.178-7.229,28.927C259.816,8047.134,265.922,8021.914,285.16,8041.824Zm-195.271,0c-7.61,31.72,24.462,23.755,21.7,50.628-18.124,11.89-55.321-10.943-65.088,21.695,5.636,1.593,8.409,6.055,7.232,14.464,22.31,13.716,44.171,6.349,57.856,14.464-10.163,9.45-26,38.285,0,43.392,1.6-5.636,6.06-8.408,14.468-7.232,2.094-36.97-4.462-80.389,28.928-101.252-24.134-7.205-25.044-37.636-50.624-43.388C102.757,8040.227,98.3,8043,89.889,8041.824Zm1128.219,7.231c-5.238-32.723-35.685-2.283,0,0ZM321.32,8135.847c-4.547-12.327-21.846-11.907-28.928-21.7-5.535-16.215,33.395-23.053,7.233-36.164-12.347,6.943-15.849,22.726-21.7,36.164,4.547,12.323,21.846,11.9,28.927,21.7-44.931,5.508-44.715-27.373-36.16-57.864-13.966-12.547-36.657-16.376-50.623-28.928C211.742,8115.331,266.141,8157.153,321.32,8135.847Zm101.252,14.46c-6.438,3.205-12.937,6.345-14.464,14.464-10.515,4.447.732,8.74,0,0,12.3,2.658,13.646-5.639,14.464-14.464H429.8c16.663-14.676,33.965-28.716,50.624-43.392,17.562-13.781,47.423-15.258,50.628-43.4-30.343,3.818-40.4-12.637-65.091-14.465-8.467,10.819-8.987,29.584-21.7,36.16-22.915-20.087-47.851,19.344-50.624,43.4C403.256,8135.874,420.554,8135.453,422.572,8150.307Zm795.536-79.552c-1.99-2-10.969,3.487-7.228,7.228C1212.877,8079.985,1221.857,8074.492,1218.108,8070.755Zm0,14.46c-1.99-2-10.969,3.5-7.228,7.237C1212.877,8094.453,1221.857,8088.957,1218.108,8085.215Zm21.7,0c-1.989-2-10.968,3.5-7.227,7.237C1234.57,8094.453,1243.549,8088.957,1239.807,8085.215Zm151.876,188.043c-6.973,14.711-27.77,15.618-50.62,14.46-.494-21.206-16.539-26.859-28.936-36.16-10.792-8.48-8.516-30.05-28.919-28.932-5.979,20.443,10.19,18.738,7.227,36.161h-7.227c1.319-6.148-2.824-6.82-7.236-7.229-4.451-10.514-8.733.737,0,0-1.327,6.149,2.823,6.82,7.236,7.229-1.335,6.156,2.815,6.826,7.227,7.235,14.086,13.442,4.968,29.217-7.227,36.159,30.57,33.295-25.72,71.978-7.236,94.021H1304.9c10.954-40.414-18.962-101.109,36.163-108.484a36.545,36.545,0,0,1-21.7,21.7c-5.585,34.513,11.309,46.543,7.229,79.552,31.843,1.917,33.286,34.221,65.091,36.16,14.588-9.523,24.477-23.745,28.936-43.392,11.409-12.69,33.2-15,36.155-36.16-36.626-9.176-48.529-43.075-65.091-72.32,6.148-39.666,32.144-59.464,57.856-79.556-20.867-5.646-18.051-34.987-28.92-50.627a175.055,175.055,0,0,1,28.92-28.928c-24.1-29.576-77.38-37.074-108.476-7.232,6.226,32.746-7.984,45.05-28.936,50.624,3.456,25.912,11.78,41.787,0,65.087C1333.981,8244.168,1340.508,8281.042,1391.683,8273.258Zm-151.876-166.343c.024-4.015-5.854-8.211-7.227,0C1232.557,8110.93,1238.435,8115.123,1239.807,8106.915Zm0,21.7c.024-4.015-5.854-8.212-7.227,0C1232.557,8132.626,1238.435,8136.822,1239.807,8128.611Zm549.646,0c.023-4.015-5.847-8.212-7.228,0C1782.2,8132.626,1788.08,8136.822,1789.453,8128.611ZM415.34,8215.395c75.953,1.219,116.849-32.616,137.415-86.784C481.685,8132.275,435.127,8160.447,415.34,8215.395Zm-21.7-72.319c-14.125-17.2-40.472,13.222-57.86-7.228C320.344,8175.089,400.687,8176.519,393.644,8143.075Zm904.027,72.319c13.26-28.932-7.552-49.556,14.456-72.319-20.828-.864-47.333,3.953-57.855-7.228C1255.506,8175.59,1248.8,8223.283,1297.671,8215.395Zm253.13-65.087c-31.866-1.342-2.059,28.473,0,0C1561.308,8145.86,1550.061,8141.567,1550.8,8150.307Zm79.549,7.232c10.815-1.234,26.691,2.588,28.92-7.232C1649.658,8140.915,1632.363,8140.776,1630.35,8157.539Zm79.555,7.232c11.24-17.8-24.561-21.264-21.691-7.232C1698.164,8157.223,1704.089,8160.941,1709.905,8164.771Zm209.731,7.235c-12.342-39.6-60.386-14.706-72.319,7.229-66.18-37.911-87.062,82.606-28.929,94.023,30.849-7.725,36.319-40.826,72.32-43.395,38.695,1.607,54.817,35.168,79.556,14.463-23.188-24.337,21.468-53.508,0-79.555C1944.329,8150.777,1943.758,8167.552,1919.636,8172.006Zm-723.22-14.467c-5.608,1.62-14.267.2-14.468,7.232C1187.567,8163.151,1196.223,8164.57,1196.416,8157.539Zm-860.632,72.324c33.549,2.2,50-12.687,50.628-43.4C365.4,8172.524,337.944,8202.146,335.784,8229.863Zm853.4,72.318c6.291-10.587,10.826-22.922,28.924-21.694-14.286-31.51-22.664-68.942-36.16-101.252C1191.113,8228.879,1176.861,8264.568,1189.184,8302.182Zm983.583-86.787c21.091,10.635,21.091-32.326,0-21.692Zm36.148-21.692c-5.608,1.621-14.256.2-14.456,7.229C2200.075,8199.311,2208.722,8200.734,2208.915,8193.7Zm-773.833,50.624c32.816,13.531,9.836-28.731,36.157-21.7,22.671,5,9.426,19.3,7.235,36.161,12.6-6.681,38.818.25,36.156-21.692q-28.187,6.491-21.691-21.7c-22.117,5.249-21.276-12.474-43.4-7.228C1446.468,8221.956,1428.873,8221.25,1435.082,8244.326Zm759.377-14.463c-5.832-5.02-19.81-11.26-21.692,0,19.524,2.163,12.968,30.424,28.92,36.159,19.957-19.316-8.54-15.718-7.228-36.159,10.746,11.39,32.307,8.057,28.928-14.469,24.369,21.967,21.931-26.736,0,0-14.372-12.046-9.2.655-28.928,0Zm-969.107-14.469c-2.007-2-10.986,3.494-7.244,7.231C1220.114,8224.633,1229.093,8219.136,1225.352,8215.395Zm-911.264,28.932c-21.661,1.463,6.916,30.036,0,0C335.749,8242.861,307.172,8214.288,314.088,8244.326Zm0,36.161c9.956-.317,15.884,3.4,21.7,7.23,6.924-14.775,14.776-28.615,21.7-43.392C326.766,8240.13,323.935,8263.816,314.088,8280.487Zm925.719-28.93c-.084-7.3-12.681-9.094-14.455,0C1233.459,8250.822,1236.6,8262.069,1239.807,8251.558Zm296.523,94.021c3.518-30.042-41.695-11.343-43.391-36.16,6.9-12.385,24-14.572,28.928-28.931-21.647-18.029-35.046,18.5-43.393,36.159,8.555,10.73,27.316,11.255,36.156,21.7-33.679,15.108-60.779-23.138-43.391-65.088-18.021-10.911-35.485-22.378-57.849-28.932C1408.754,8319.643,1468.57,8366.468,1536.33,8345.578Zm672.585-65.091c9.218,9.854,35.439,11.169,36.172-7.229-14.888-1.985-6.812-26.944-21.7-28.932C2228.779,8266.586,2203.539,8258.223,2208.915,8280.487Zm-1808.043-7.229c-30.035-6.916-1.458,21.661,0,0,126.874-23.269,235.126,21.815,332.682,50.62.2,7.035,8.852,5.612,14.468,7.236.2,7.032,8.852,5.607,14.464,7.231,1.462,21.658,30.035-6.915,0,0-.2-7.036-8.852-5.611-14.464-7.231-.2-7.035-8.856-5.616-14.468-7.236v-7.231c-61.728-25.06-124-49.567-202.5-57.859C486.244,8262.2,424.708,8248.874,400.872,8273.258Zm1858.679-7.235c.015-4.016-5.855-8.212-7.236,0C2252.3,8270.038,2258.17,8274.234,2259.551,8266.022Zm-455.634,21.7c.023-4.015-5.855-8.208-7.236,0C1796.665,8291.734,1802.552,8295.93,1803.917,8287.718ZM776.95,8381.738v7.231c6.438,5.62,16.335,7.775,28.928,7.232-1.327,6.151,2.82,6.823,7.232,7.231.2,7.035,8.852,5.612,14.464,7.231.2,7.036,8.852,5.613,14.464,7.233,4.443,10.514,8.74-.733,0,0-.2-7.036-8.852-5.608-14.464-7.233-.2-7.031-8.848-5.611-14.464-7.231,1.326-6.151-2.82-6.823-7.232-7.231v-7.232c-12.972.918-15.255-8.852-28.928-7.231-75.676-66.562-188.961-95.513-332.682-94.021,7.694,16.416,45.463,2.754,65.091,7.232C612.258,8310.174,692.226,8348.336,776.95,8381.738Zm441.158-79.557c5.261,21.265,22.549,30.49,50.627,28.933C1275.64,8298.2,1238.334,8285.578,1218.108,8302.182Zm-889.556,28.933c-2-2.006-10.973,3.489-7.232,7.231C323.322,8340.344,332.29,8334.852,328.552,8331.114Zm1265.634,7.231c-1.736,22.371-59.522-11.309-50.627,21.692,18.583,27.212,68.138,25.915,72.327-14.46C1605.927,8345.89,1600,8342.172,1594.186,8338.346Zm-802.772,7.232c-2-2.006-10.974,3.491-7.232,7.228C786.184,8354.811,795.155,8349.315,791.414,8345.578Zm14.464,14.46c4.443,10.518,8.74-.733,0,0C801.43,8349.528,797.138,8360.775,805.878,8360.038Zm614.741,65.092c11.833,17.095,35.276,22.583,50.62,36.159-18.985,15-26.884,27.471,0,36.161-35.778,7.621-58.767,28.021-79.556,50.627,22.633,1.478,53.089-4.879,65.091,7.231v-43.392c12.713-4.161,42.49,8.741,43.393-7.232-12.443.387-18.538-5.568-21.693-14.468,34.529,5.6,28.3-29.552,28.928-57.854,26.437-4.9,40.121-22.558,50.628-43.393C1527.876,8339.469,1425.448,8365.249,1420.619,8425.13Zm-593.045-57.855c-2-2-10.97,3.49-7.228,7.231C822.344,8376.508,831.315,8371.011,827.574,8367.274Zm14.464,7.231c-2-2-10.97,3.5-7.233,7.232C836.811,8383.739,845.779,8378.247,842.038,8374.506Zm21.7,14.464c-2-2-10.973,3.49-7.232,7.232C858.5,8398.2,867.475,8392.707,863.737,8388.97Zm477.326,101.247c11.934-29.039,51.253-30.71,72.327-50.624-43.839-4.385-69.025-27.416-101.263-43.391C1319.023,8430.29,1331.575,8458.717,1341.063,8490.217Zm202.5-43.387c40.205,4.042,65.431-6.9,65.091-43.4C1572.348,8378.07,1553.2,8422.438,1543.559,8446.83Zm-658.126-43.4c-2-2-10.969,3.49-7.235,7.231C880.2,8412.668,889.174,8407.175,885.433,8403.434ZM899.9,8417.9c4.443,10.514,8.739-.733,0,0C895.45,8407.383,891.157,8418.63,899.9,8417.9Zm361.6-7.233c-10.168,74.743-83.285,141.447-36.148,209.736-9.851-103.863,55.494-132.536,72.319-209.736ZM2028.12,8598.7c-19.663,12.864,17.164,93.541,36.156,101.251-3.155-1.28,33.973.718,36.171,0,10.522-3.452,17.758-11.574,21.693-21.692-30.286-4.783-17.658-24.981-14.465-50.632-21.121-22.285-61.682,4.961-79.555-28.927,32.106,10.588,42.451-.05,79.555,0,20.234,20.755,11.332,70.634,36.157,86.788a175.062,175.062,0,0,1-28.928,28.931c18.4,12.737,35.276,18.557,50.627,0,10.846-15.679,36.187-16.848,36.156-43.395-20.743-44.142,16.254-50.009,21.7-86.784-21.036-36.824-71.44-44.271-108.483-65.092-29.345,4.4-46.377,21.122-79.549,21.7,7.637-20.392,28.659-9.018,14.457-36.16,23.08,23.192,21.476-15.234,43.4-14.468-3.835,5.817-7.545,11.746-7.237,21.7,39.59-1.389,47.311-34.663,50.62-72.324-20.758-3.347-39.843-8.365-43.383-28.928-36,9.014-41.479,29.6-72.328,28.928v36.165c-14.163-12.039-42.705,5.389-43.392,28.927,29.368-2.843,50.389,2.644,50.628,28.929-3.271,47.542-47.311,67.371-94.027,50.628-16.933,21.248-57.486,7.714-72.32,14.46-4.482,43.052,25.055,52.1,21.7,94.02-3.155,8.895-9.25,14.854-21.7,14.463,10.144,39.072-19.524,38.332-21.693,65.093a82.606,82.606,0,0,0,65.093,0c10.845,8.438,17.68,20.886,36.155,21.7,12.235-23.937,38.949-33.375,57.856-50.624-7.9-32.021,12.266-35.963,14.472-57.858-9.011-27.979-25.742-71.1,0-94.021C2022.064,8590.3,2026.523,8593.069,2028.12,8598.7ZM863.737,8432.362c4.443,10.514,8.737-.734,0,0C859.29,8421.852,855,8433.1,863.737,8432.362Zm21.7,7.23c-2-2-10.969,3.5-7.235,7.237C880.2,8448.827,889.174,8443.335,885.433,8439.593Zm643.661,14.465c-18.552.737-11.617,26.953-21.692,36.159,20.327,1.053,20.852-17.712,21.692-36.159C1539.609,8449.614,1528.369,8445.321,1529.094,8454.058Zm433.942,65.092q-8.274-27.9-36.171-36.16c-19.41,24.284-43.847,20.177-79.548,14.461-12.412,11.7-17.967,30.251-14.464,57.858,19.694,19.941,83.335,49.613,101.24,7.232,16.269,26.29,77.627,16.435,72.327-21.7C2000.287,8525.282,1988.616,8515.265,1963.036,8519.149Zm-636.444-7.232c10.522-4.443-.725-8.74,0,0-23.2,6.017-14.989,6.156-28.921-7.232,3.425,22.564-9.018,35.016-21.7,21.7v36.16c-5.856-1.373-7.213-7.255-14.472-7.232-7.915,11.85-26.761,49.726-7.228,65.093,1.358-25.163,20.889-32.146,36.163-43.393-8.416,1.173-12.875-1.6-14.463-7.235,19.2-2.492,24.407-18.984,28.928-36.16Q1328.573,8535.585,1326.592,8511.917Zm-325.444,21.7c-1.33,6.151,2.82,6.823,7.229,7.231-1.323,6.152,2.823,6.823,7.236,7.232,4.443,10.514,8.736-.736,0,0,1.327-6.152-2.823-6.823-7.236-7.232,1.33-6.151-2.82-6.822-7.229-7.231C996.7,8523.1,992.409,8534.346,1001.148,8533.613Zm36.161,28.928c-2-2-10.974,3.5-7.233,7.232C1032.079,8571.778,1041.046,8566.282,1037.309,8562.541Zm752.144,137.411c1.419,32.334,21.26,46.242,43.4,57.859,20.967-14.765,14.579-47.959,0-65.091,16.77,2.307,27.762-1.162,36.155-7.231-11.5-17.419-5.276-52.576-28.928-57.861C1826.465,8654.991,1792.778,8662.288,1789.453,8699.952ZM1348.3,8634.865c-1.1,13.376-24.5,4.438-28.936,14.463-13.677,1.474-71.448-4.875-50.628,7.231,48.592-10.229,80.551,27.332,115.72,7.233C1385.488,8641.056,1365.91,8638.946,1348.3,8634.865Zm-130.191,79.555c19-5.851-4.644-40.646-14.456-14.468C1201.978,8704.419,1214.59,8715.5,1218.108,8714.42Zm108.484,36.16c22.293-18.279-29.206-48.5-43.384-28.932C1302.809,8726.149,1301.2,8751.865,1326.592,8750.58Zm781.083-36.16c-8.508,1.13-20.535-1.246-21.7,7.229C2094.484,8720.514,2106.511,8722.894,2107.675,8714.42Zm-889.567,28.928h14.472V8728.88h-14.472Zm-72.32,28.929c.027-4.016-5.855-8.212-7.228,0C1138.533,8776.291,1144.419,8780.487,1145.788,8772.276Zm28.932,57.855c47.176,4.574,36.507-42.162,14.464-57.855C1186.048,8799.514,1159.1,8802.9,1174.72,8830.132Zm-72.324,0c-10.51,4.451.737,8.74,0,0C1124.061,8828.67,1095.484,8800.1,1102.4,8830.132Zm810,28.928c.023-4.016-5.855-8.208-7.227,0C1905.149,8863.079,1911.02,8867.271,1912.4,8859.06Zm-361.6,72.324c.1-19.174-4.018-42.583,14.457-43.393,10.908,13.19,7.683,40.542,21.692,50.624-3.363-37.61-8.809-73.153-43.391-79.556C1529.449,8876.79,1536.33,8919.847,1550.8,8931.384Zm-36.171,50.627c.2,7.035,8.856,5.612,14.464,7.232-11.239,17.8,24.57,21.264,21.707,7.228-5.824-3.826-11.74-7.545-21.707-7.228-.192-7.036-8.848-5.612-14.464-7.232-4.026-17.665-27.978-15.413-21.691-43.4,20.441-5.976,18.729,10.189,36.155,7.231-1.319,6.152,2.824,6.823,7.236,7.236-1.327,6.148,2.823,6.819,7.229,7.228v7.232c6.163-1.323,6.826,2.823,7.242,7.236h14.457c3.379-15.437-10.337-13.777-21.7-14.469,1.326-6.147-2.816-6.818-7.229-7.228,1.327-6.156-2.823-6.827-7.236-7.236v-7.231c-19.948-6.047-42.505-33.433-65.091-14.464C1470.614,8953.712,1486.173,8974.308,1514.63,8982.011Zm43.4-36.164c-2-2-10.977,3.5-7.229,7.236C1552.792,8955.081,1561.771,8949.588,1558.03,8945.847Zm21.692,57.856c-9.1,1.79-7.29,14.383,0,14.468,4.451,10.51,8.748-.737,0,0V9003.7C1609.761,9010.622,1581.188,8982.045,1579.722,9003.7Zm-50.628,36.164c18.113.9,22.649,13.8,28.936-7.233-11.455.6-27.586-3.478-28.936,7.233-12.7-4.162-42.481,8.744-43.384-7.233-5.083-26.771,30.919-12.473,36.157-28.931-37.429-1.261-65.894,6.43-65.093,43.4C1472.5,9059.206,1521.935,9058.708,1529.094,9039.867Zm108.484-21.7c-.085-7.3-12.667-9.1-14.457,0C1624.649,9026.911,1631.137,9022.618,1637.578,9018.171Zm14.464,14.463c-1.327,6.152,2.815,6.824,7.228,7.233,3.085,13.8,20.666,13.087,14.471,36.16-20.434,5.978-18.737-10.19-36.163-7.232,1.334-6.152-2.808-6.824-7.228-7.233,1.326-6.147-2.824-6.817-7.229-7.231,2.207-8.767-20.889-24.939-21.707-7.231,10.422,1.636,2.531,21.588,14.472,21.7-1.188-8.405,1.589-12.867,7.235-14.465-1.334,6.152,2.817,6.824,7.229,7.231-1.327,6.152,2.815,6.82,7.228,7.233,13.707,17.63,29.653,33.023,65.091,28.928-1.712-32.041-15.852-51.646-43.4-57.855,1.334-6.153-2.808-6.823-7.228-7.233C1650.584,9010.97,1622,9039.55,1652.042,9032.634Zm-621.966,28.928c-10.514,4.448.733,8.741,0,0,22.865-8.465,49.468-13.218,65.092-28.928C1062.576,9031.381,1028.958,9029.109,1030.076,9061.562Zm542.418,7.233c-7.043.2-5.616,8.856-7.236,14.463-7.035.2-5.616,8.856-7.228,14.465-4.435,2.117-27.84,17.992-28.936,0-5.971-20.438,10.19-18.737,7.236-36.161,10.522-4.442-.733-8.738,0,0h-7.236c-8.555,16.6-29.845,69.131,0,79.557,12.1-12.02,29.291-18.938,28.936-43.4,7.027-.2,5.608-8.852,7.228-14.465,7.035-.2,5.608-8.852,7.236-14.463,10.414,1.635,2.523,21.588,14.456,21.7-4.374-14.911,11.672-50.245-14.456-43.4Zm43.392,57.859c-16.987-2.307-16.192-22.382-28.936-28.932-.709,32.061,8.571,54.11,36.171,57.859,13.917-19.2,8.34-67.236-7.235-79.555ZM993.917,9321.925v7.229c4.435,2.118,27.84,17.994,28.928,0-12.976.918-15.259-8.853-28.928-7.229-2.037-11.683,6.834-12.45,7.231-21.7-35.522-2.313,7.522-41.293-21.7-43.391h14.468c.983-14.58-9.855-12.223-14.468-21.7-3.055-6.271,11.208-15.9-7.232-21.7,1.373-5.855,7.259-7.205,7.232-14.466,22.752-8.283,17.573,11.356,28.928,14.466,7.062-21.87,15.012-42.849,28.932-57.856,12.716,34.185,37.548-28.442,65.087,0,11.456-29.529,37.645-44.325,50.628-72.324-59.364-13.553-64.794,26.818-86.787,50.624-14.352-9.751,2.275-50.489-21.7-50.624-3.329,42.479-31.077,60.529-43.389,94.021-16.889-.553-40.749-30.8-57.859-7.232C962.088,9218.753,931.436,9316.9,993.917,9321.925Zm455.622-180.807c2.052-18.915-2.639-31.107-21.692-28.928C1426.6,9130.311,1444.046,9129.744,1449.539,9141.118Zm-57.856,21.7c-2.16-14.218,9.774-14.341,14.464-21.7-9.774-2.276-13.808-10.29-28.928-7.236C1378.222,9147.355,1381.987,9158.059,1391.683,9162.814Zm101.256-7.232c-.309-9.955,3.4-15.88,7.228-21.7-10.816,1.235-26.683-2.584-28.928,7.236C1485.456,9138.954,1485.579,9150.885,1492.939,9155.582Zm-65.092,0c-2-2-10.977,3.5-7.228,7.232C1422.617,9164.816,1431.588,9159.323,1427.847,9155.582ZM1080.7,9170.046c-52.251,16.716-99.77,102.413-43.391,144.644-4.949-67.631,26.767-98.591,43.391-144.644C1091.215,9165.6,1079.964,9161.306,1080.7,9170.046Zm368.839-7.231c-1.99-2-10.97,3.49-7.228,7.231C1444.309,9172.048,1453.28,9166.555,1449.539,9162.814Zm-94.012,36.158c12.875-4.322,30.039,21.2,36.156,0-8.817-.82-17.118-2.158-14.464-14.463,5.616-1.62,14.271-.2,14.464-7.231C1368.973,9173.849,1362.138,9186.3,1355.527,9198.973Zm57.863-21.694c-2.013-2-10.984,3.494-7.243,7.231C1408.153,9186.516,1417.124,9181.015,1413.39,9177.278Zm50.613,0c-2-2-10.97,3.494-7.229,7.231C1458.773,9186.516,1467.752,9181.015,1464,9177.278Zm50.627,21.694c7.622-18.289-24.384-32.055-28.92-14.463C1509.1,9175.573,1491.233,9207.915,1514.63,9198.973Zm-101.24,0c-2.013-2-10.984,3.491-7.243,7.233C1408.153,9208.208,1417.124,9202.715,1413.39,9198.973Zm57.849,0c-2-2-10.978,3.491-7.236,7.233C1466.009,9208.208,1474.98,9202.715,1471.239,9198.973Zm-180.8,28.933c1.528-8.743,8.023-4.446,14.465,0q1.967-23.667-21.692-21.7C1284.333,9214.718,1281.958,9226.737,1290.435,9227.905Zm50.628,21.7c2.268-9.78,10.3-13.811,7.236-28.927C1321.238,9217.623,1326.044,9242.331,1341.063,9249.6Zm43.392,0h14.456c-.015-7.258,5.863-8.6,7.236-14.467-14.21,2.167-14.341-9.763-21.692-14.46Zm43.392-28.927c-2-2.006-10.977,3.49-7.228,7.231C1422.617,9229.9,1431.588,9224.412,1427.847,9220.674ZM1254.272,9249.6c20.25-37.224-34.4-17.776,0,0Zm216.967-7.23c14.88,19.478,43.561-9.211,14.471-14.465C1485.626,9237.463,1473.028,9234.513,1471.239,9242.37Zm-43.392,21.7c7.251-.023,8.609,5.857,14.464,7.228.408-4.409,1.08-8.559,7.228-7.228-1.612-5.613-.193-14.269-7.228-14.466-1.528,8.741-8.023,4.444-14.464,0Zm-151.875,0c-5.617,1.619-14.272.2-14.472,7.228C1267.123,9269.677,1275.778,9271.1,1275.972,9264.066Zm50.62,0c-1.991-2-10.97,3.489-7.229,7.228C1321.361,9273.3,1330.341,9267.807,1326.592,9264.066Zm28.935,7.228c-1.381,5.862-7.259,7.212-7.228,14.468,15.837,5.389,33.564-19.853,7.228-14.468C1351.076,9260.784,1346.787,9272.034,1355.527,9271.294Zm-130.175,14.468h14.455v-14.468h-14.455Zm43.383,0c-2-2-10.976,3.494-7.235,7.232C1263.505,9295,1272.484,9289.5,1268.735,9285.762Zm-94.015,28.928c4.443,10.514,8.74-.732,0,0,1.176-8.408-1.6-12.866-7.232-14.465C1158.1,9311.746,1157.953,9329.327,1174.72,9314.689Zm65.087,14.464h14.465c4.412-.408,8.563-1.08,7.228-7.229-9.551-.088-6.6-12.674-14.457-14.468C1247.352,9317.412,1243.642,9323.337,1239.807,9329.153Zm108.492,0c.378-12.439-5.57-18.54-14.472-21.7C1334.522,9318.82,1332.863,9332.532,1348.3,9329.153Zm-21.707-14.464c-1.991-2-10.97,3.494-7.229,7.235C1321.361,9323.927,1330.341,9318.427,1326.592,9314.689Zm-188.032,7.235c-5.612,1.62-14.267.2-14.464,7.229C1129.708,9327.533,1138.363,9328.956,1138.56,9321.925Zm72.32,7.229c-.085-7.3-12.675-9.095-14.464,0C1204.531,9328.417,1207.671,9339.668,1210.88,9329.153Zm86.791,21.7c.4-4.407,1.08-8.559,7.229-7.228-1.621-5.616-.2-14.271-7.229-14.468-.416,4.413-1.08,8.563-7.236,7.232-1.62-5.608-.2-14.264-7.227-14.461C1281.178,9338.406,1284.951,9349.11,1297.671,9350.849Zm-260.362-21.7c-21.962,24.364,26.74,21.928,0,0Zm159.107,21.7c-2.005-2-10.97,3.5-7.232,7.236C1191.186,9360.086,1200.157,9354.59,1196.416,9350.849Zm-310.983,94.021c-16.681,2.217-8.034-20.895-21.7-21.692-6.761,40.5,24.161,43.334,43.392,57.856-32.244,28.024-79.4,41.135-94.019,86.783,21.41,13.793,41.625-3.638,72.323-14.464v14.464c-18.043,3.656-29.722,13.674-43.395,21.7,21.553-.143,44.067.675,43.395-21.7,14.371-.093,9.2-19.732,28.928-14.464-11.278,25.078-25.421,66.48,7.236,79.555,5.192-23.735,3.186-54.665,21.692-65.091-6.437-3.205-12.937-6.346-14.464-14.464,18.9-10.024-3.517-61.374,14.464-72.319-8.023-13.678-18.043-25.354-21.692-43.4,11.07-29.168-2.133-73.886-36.164-79.552C865.585,9385.551,874.487,9414.3,885.433,9444.869Zm224.2-72.32H1124.1v-14.464h-14.468Zm65.092-14.464c-2-2.006-10.97,3.491-7.232,7.232C1169.49,9367.315,1178.457,9361.823,1174.72,9358.085Zm57.86,7.232c-.086-7.3-12.683-9.1-14.472,0C1219.635,9374.053,1226.139,9369.761,1232.58,9365.317Zm-86.792,36.159c-24.361-21.962-21.923,26.737,0,0Zm65.092,0c.023-4.015-5.855-8.208-7.228,0C1203.621,9405.492,1209.507,9409.688,1210.88,9401.477Zm-216.963,14.465c-8.412-1.174-12.867,1.6-14.468,7.235-6.152-1.335-6.819,2.819-7.232,7.229-6.148-1.331-6.819,2.822-7.232,7.231-21.661,1.462,6.916,30.035,0,0,6.152,1.331,6.823-2.819,7.232-7.231,6.152,1.331,6.823-2.82,7.232-7.229,8.412,1.172,12.871-1.6,14.468-7.235C1023.952,9422.852,995.379,9394.28,993.917,9415.941Zm43.392-7.232c-8.509,1.13-20.531-1.242-21.7,7.232C1024.125,9414.807,1036.14,9417.183,1037.309,9408.709Zm65.087,7.232c-1.326,6.151,2.823,6.822,7.232,7.235.2,7.031,8.856,5.608,14.468,7.229-1.331,6.151,2.819,6.818,7.232,7.231-6.916,30.035,21.661,1.462,0,0,1.327-6.151-2.823-6.819-7.232-7.231-.2-7.035-8.856-5.609-14.468-7.229,1.331-6.155-2.819-6.827-7.232-7.235C1079.077,9393.809,1048.286,9424.6,1102.4,9415.941Zm57.86,0c24.361,21.966,21.927-26.737,0,0Zm-108.484,7.235c-2.005-2.006-10.972,3.491-7.235,7.229C1046.542,9432.406,1055.51,9426.914,1051.772,9423.177Zm-202.5,21.692c.023-4.016-5.855-8.208-7.232,0C842.018,9448.887,847.9,9453.08,849.27,9444.869Zm238.667,72.323c5.091-24.859-36.049-40.453-50.628-21.7C1047.09,9509.817,1057.389,9523.626,1087.937,9517.192Zm-65.092,36.16c5.264-16.8,18.309-54.037-14.468-50.628C997.774,9514.187,993.458,9560.148,1022.845,9553.353Zm7.231,21.7c37.314,3.561,57.552-9.955,57.861-43.395-25.959,4.257-35-8.405-50.628-14.465C1048.609,9551.092,1014.205,9558.324,1030.076,9575.052Zm-50.627-14.468c-2-2-10.969,3.5-7.232,7.232C974.222,9569.818,983.19,9564.325,979.449,9560.584Zm-21.692,14.468c-2.005-2-10.974,3.487-7.236,7.229C952.523,9584.286,961.494,9578.79,957.757,9575.052Zm180.8,28.924c.54-10.129-1.616-27.654-7.232-14.464C1130.781,9599.645,1132.94,9617.171,1138.56,9603.976Zm-180.8,0c.023-4.016-5.863-8.212-7.236,0C950.5,9607.991,956.38,9612.188,957.757,9603.976Zm86.78,0c-2-2-10.97,3.494-7.228,7.236C1039.31,9613.214,1048.282,9607.721,1044.537,9603.976Zm-151.872,21.7c.024-4.016-5.859-8.212-7.232,0C885.406,9629.687,891.292,9633.884,892.665,9625.676Zm72.32,0c4.447,10.51,8.74-.736,0,0C960.542,9615.165,956.249,9626.409,964.985,9625.676Zm159.111,0c-6.152-1.335-6.827,2.823-7.232,7.231-8.408-1.176-12.871,1.6-14.468,7.229-10.51,4.451.737,8.744,0,0,8.409,1.181,12.867-1.593,14.468-7.229,6.152,1.331,6.823-2.823,7.232-7.231C1134.607,9621.228,1123.359,9616.936,1124.1,9625.676Zm-137.415,14.46c.9,15.976,30.683,3.074,43.4,7.236-.9-15.973-30.678-3.071-43.4-7.236C982.238,9629.625,977.94,9640.872,986.681,9640.136Zm57.856-7.229c-2-2-10.97,3.491-7.228,7.229C1039.31,9642.142,1048.282,9636.649,1044.537,9632.907Zm43.4,14.465c-38.367-7.846-8.548,21.973,0,0Zm-7.237,43.392c-2-2-10.969,3.494-7.232,7.232C1075.474,9700,1084.442,9694.5,1080.7,9690.764Zm7.237,14.463c-2.007-2-10.974,3.491-7.237,7.236C1082.7,9714.462,1091.674,9708.968,1087.937,9705.227Zm7.231,14.466c-2.005-2-10.973,3.5-7.231,7.234C1089.934,9728.929,1098.906,9723.433,1095.168,9719.692Zm7.228,28.927c4.447,10.514,8.745-.729,0,0C1109.312,9718.584,1080.735,9747.161,1102.4,9748.619Z" fill-rule="evenodd"/>
    <path id="Path_9180" data-name="Path 9180" d="M1811.153,7716.373c21.97,8.547-7.838,38.362,0,0Z" fill-rule="evenodd"/>
    <path id="Path_9181" data-name="Path 9181" d="M422.572,7745.305c-.733-8.74,10.514-4.447,0,0Z" fill-rule="evenodd"/>
    <path id="Path_9182" data-name="Path 9182" d="M523.823,7759.769v-7.236C527.838,7752.514,532.035,7758.4,523.823,7759.769Z" fill-rule="evenodd"/>
    <path id="Path_9183" data-name="Path 9183" d="M538.283,7767c5.3-12.879,13.157-1.042,21.7,0,5.269,19.732-14.375,14.556-14.464,28.928C520.14,7793.946,563.666,7768.987,538.283,7767Z" fill-rule="evenodd"/>
    <path id="Path_9184" data-name="Path 9184" d="M1630.35,7803.165c-15.128-4.167-20.643-17.928-43.4-14.469-26.236,6.569-4.4,21.346-7.228,43.4C1509,7812.086,1619.774,7743.677,1630.35,7803.165Z" fill-rule="evenodd"/>
    <path id="Path_9185" data-name="Path 9185" d="M1572.494,7955.036c.015,4.016-5.862,8.211-7.236,0Z" fill-rule="evenodd"/>
    <path id="Path_9186" data-name="Path 9186" d="M299.625,7983.964v14.468c-16.486,2.021-27.189-1.744-28.929-14.468C281.395,7975.59,288.929,7975.59,299.625,7983.964Z" fill-rule="evenodd"/>
    <path id="Path_9187" data-name="Path 9187" d="M2476.51,8056.287c1.859-16.924,31.782-4.165,36.171,0,5.824,32.349-12.875,40.168-36.171,43.4,4.937-14.36,22.024-16.546,28.936-28.928C2503.7,8058.03,2493,8054.27,2476.51,8056.287Z" fill-rule="evenodd"/>
    <path id="Path_9188" data-name="Path 9188" d="M1413.39,8063.52c.4-4.409,1.081-8.555,7.229-7.233C1421.938,8062.439,1417.8,8063.111,1413.39,8063.52Z" fill-rule="evenodd"/>
    <path id="Path_9189" data-name="Path 9189" d="M2454.818,8106.915c-13.531-14.205-34.838-4.185-28.928,21.7,18.915,2.037,31.111-2.642,28.928-21.7,11.98,7.305,7.86,30.714,14.464,43.392,18.1,1.226,22.641-11.112,28.935-21.7-4.767-9.7-15.467-13.469-28.935-14.464,10.09-21.009,35.7,2.044,43.4,7.228,3.41,22.707-19.478,19.112-21.7,36.164-29.5-5.4-1.381,46.836-36.163,36.163.393,9.242,9.272,10.01,7.228,21.692-8.54,3.507-16.385,7.719-21.692,14.469-10.7-8.378-18.229-8.378-28.936,0-2.029,11.679,6.843,12.45,7.236,21.694,19.447,4.984,13.986-14.952,21.7-21.694,19.308,10.579-3.031,39.677-21.7,36.159-12.25-23.775-18.19-32.326-50.62-21.7-1.535-8.115-8.03-11.254-14.464-14.463q1.32-27.609,28.928-28.933c-19.123,15.922-14.387,33.873,21.692,28.933-2.838-38.15-30.548-51.419-43.384-79.556,10.322,1.732,12.2,11.907,21.692,14.464,8.115-1.531,11.263-8.027,14.464-14.464-5-22.668-19.285-9.431-36.156-7.232v-72.32h28.92c9.211,3.2,1.134,22.506,7.236,28.928C2415.592,8119.3,2449.487,8066.767,2454.818,8106.915Zm-86.784,0h21.692v-21.7h-21.692Zm36.156,28.932c9.388-9.62,9.535-26.918-7.228-28.932C2398.2,8117.734,2394.377,8133.6,2404.19,8135.847Zm-21.692-14.472c.016-4.015-5.855-8.208-7.228,0C2375.247,8125.4,2381.117,8129.587,2382.5,8121.375Zm57.856,36.164c-2.114,4.439-17.99,27.84,0,28.928-2.175-29.545,10.012,1.223,28.928-7.232v-21.7h-28.928c-7.714-6.746-2.253-26.679-21.7-21.692v21.692Zm14.464-21.692c-2-2.006-10.97,3.487-7.228,7.228C2449.58,8145.077,2458.559,8139.585,2454.818,8135.847Zm-43.4,14.46c-1.99-2-10.961,3.491-7.228,7.232C2406.188,8159.541,2415.167,8154.044,2411.418,8150.307Zm-14.456,43.4h28.928C2431.591,8165.851,2391.261,8165.851,2396.962,8193.7Zm36.164,21.692c21.09,10.635,21.09-32.326,0-21.692Zm-7.236-7.228c-5.616,1.62-14.271.2-14.472,7.228C2417.042,8213.774,2425.7,8215.2,2425.89,8208.167Z" fill-rule="evenodd"/>
    <path id="Path_9190" data-name="Path 9190" d="M2353.57,8099.683c2.206,16.678-20.9,8.031-21.7,21.692-8.934,23.4,23.4,5.528,14.463,28.932-18.1,1.226-22.641-11.112-28.928-21.7C2318.764,8108.265,2329.988,8097.8,2353.57,8099.683Z" fill-rule="evenodd"/>
    <path id="Path_9191" data-name="Path 9191" d="M2324.634,8172.006c-36.881-10.371-30.9,22.125-50.627,28.925-.309-9.955,3.41-15.88,7.236-21.7-2.022-14.858-19.316-14.43-28.928-21.7,8.848-21.9,27.6,5.111,36.164,7.232,17.989-.791,22.386-13.554,36.155,0Z" fill-rule="evenodd"/>
    <path id="Path_9192" data-name="Path 9192" d="M1485.71,8157.539c21.746-7.289,12.814,16.114,14.457,28.928h-21.693C1475.412,8171.351,1483.434,8167.321,1485.71,8157.539Z" fill-rule="evenodd"/>
    <path id="Path_9193" data-name="Path 9193" d="M2490.981,8157.539c38.548-4.8,63.287,4.212,72.32,28.928.687,32.025-13,49.688-50.62,43.4,2.361-21.739,39.72-8.493,43.384-28.933C2553.335,8167.5,2515.065,8169.619,2490.981,8157.539Z" fill-rule="evenodd"/>
    <path id="Path_9194" data-name="Path 9194" d="M2324.634,8172.006c12.721,1.74,16.493,12.44,14.465,28.925C2317.353,8208.22,2326.285,8184.82,2324.634,8172.006Z" fill-rule="evenodd"/>
    <path id="Path_9195" data-name="Path 9195" d="M2266.779,8237.095c9.781,2.271,13.823,10.294,28.935,7.231v28.932h-7.235v-14.471c-1.173-8.471-13.191-6.095-21.7-7.229Z" fill-rule="evenodd"/>
    <path id="Path_9196" data-name="Path 9196" d="M1290.435,8266.022v-7.235C1294.454,8258.767,1298.643,8264.65,1290.435,8266.022Z" fill-rule="evenodd"/>
    <path id="Path_9197" data-name="Path 9197" d="M2339.1,8381.738c-6.28,10.588-10.823,22.922-28.92,21.7,16.376-18.518,2.915-51.018-7.237-65.088-11.686-2.04-12.45,6.835-21.7,7.232q1.33-27.609,28.936-28.932C2311.922,8346.238,2330.5,8358.993,2339.1,8381.738Z" fill-rule="evenodd"/>
    <path id="Path_9198" data-name="Path 9198" d="M1948.564,8396.2c-36.1-4,5.045-40.283-36.164-36.164-2.036-18.915,2.647-31.1,21.693-28.924,6.873,14.835,8.979,34.421,28.943,36.16C1968.305,8387,1948.657,8381.827,1948.564,8396.2Z" fill-rule="evenodd"/>
    <path id="Path_9199" data-name="Path 9199" d="M2020.884,8417.9c-36.719,5.585-29.9-23.923-14.464-36.16-10.8-10.89-41.224-2.16-36.156-28.933,2.962-9.087,9.334-14.779,21.692-14.46,7.537,16.566,28.118,20.1,36.164,36.16C2019.788,8383.053,2019.935,8400.066,2020.884,8417.9Z" fill-rule="evenodd"/>
    <path id="Path_9200" data-name="Path 9200" d="M1883.473,8374.506c-17.936,1.062-35.092,1.346-36.156-14.468,1.064-15.806,18.22-15.525,36.156-14.46Z" fill-rule="evenodd"/>
    <path id="Path_9201" data-name="Path 9201" d="M1890.708,8396.2c-1.334,6.151,2.816,6.823,7.236,7.231,5.269,19.733-14.379,14.557-14.471,28.929,2.128,17.2,19.57-8.039,21.7-14.464,1.172-8.409-1.6-12.867-7.229-14.465,1.327-6.151-2.823-6.823-7.236-7.231-.4-9.245-9.272-10.018-7.235-21.7,9.789-2.275,13.815-10.294,28.927-7.231,8.378,10.7,8.378,18.228,0,28.928,23.189-6.311,22.626,11.132,28.928,21.7-29.391,12.79-4.913,36.437-28.928,43.391-12.6-.539-22.486,1.613-28.927,7.236-2.754-31-37.036-30.468-50.62-50.627,5.068-81.3-112.495-27.467-72.32,28.932-26.93.4-20.859-32.18-21.707-57.86,29.2-45.3,124.466-36.079,122.947,28.929C1859.6,8398.844,1871.794,8394.166,1890.708,8396.2Z" fill-rule="evenodd"/>
    <path id="Path_9202" data-name="Path 9202" d="M2483.746,8461.289a315.919,315.919,0,0,0,57.855-57.855c-19.362-22.29-38.077-4.833-65.091,0,13.129-27.855,54.654-27.327,86.791-36.159-5.7,30.459-17.689,54.635-36.163,72.318,22.64,13.521,50,22.333,65.091,43.4-33.3,22.144-38.609,72.286-101.248,65.088,14.48-14.449,45.136-12.72,57.849-28.928-1.057-17.939-1.342-35.1,14.471-36.16C2558.5,8454.046,2516.785,8462.007,2483.746,8461.289Z" fill-rule="evenodd"/>
    <path id="Path_9203" data-name="Path 9203" d="M1948.564,8396.2c18.915-2.036,31.111,2.642,28.928,21.7-9.774,2.274-13.816,10.3-28.928,7.231Z" fill-rule="evenodd"/>
    <path id="Path_9204" data-name="Path 9204" d="M1803.917,8519.149c-37.066-1.5-35.03-42.115-43.384-72.319,10.021-2.866,20.489-41.063,28.92-21.7C1768.772,8459.357,1778.723,8496.481,1803.917,8519.149Z" fill-rule="evenodd"/>
    <path id="Path_9205" data-name="Path 9205" d="M1977.492,8468.525H1955.8c-4.166-4.39-16.932-34.3,0-36.163C1988.77,8427.969,1985.53,8448.542,1977.492,8468.525Z" fill-rule="evenodd"/>
    <path id="Path_9206" data-name="Path 9206" d="M2483.746,8461.289c.733,8.741-10.514,4.448,0,0Z" fill-rule="evenodd"/>
    <path id="Path_9207" data-name="Path 9207" d="M249,8468.525c21.665,4.756-6.912,15.46,0,28.925C231.011,8496.366,246.883,8472.961,249,8468.525Z" fill-rule="evenodd"/>
    <path id="Path_9208" data-name="Path 9208" d="M2288.479,8504.685c-8.748.733-4.452-10.514,0,0Z" fill-rule="evenodd"/>
    <path id="Path_9209" data-name="Path 9209" d="M531.055,8642.1c-8.408-1.18-12.867,1.6-14.467,7.231-6.149-1.33-6.82,2.824-7.229,7.231-10.514,4.447.733,8.741,0,0,6.148,1.331,6.819-2.822,7.229-7.231,8.408,1.177,12.871-1.6,14.467-7.231,56.329-7.987,120.406,41.4,151.876-7.231,18.741,21.571-31.505,35.685-36.161,57.855-13.468,1-24.175,4.76-28.928,14.463H502.123c-11.409-15.107-5.01-48.026-14.46-65.087-9.654-12.046-40.977-2.419-50.627-14.469,12.72-64.419,91.67-62.614,137.411-94.015,54.4,1.364,88.82-17.253,144.643-14.464-20.442,25.359-70.561,21.048-101.248,36.159-30.386,15.42-67.706,23.906-86.787,50.628,30.544,15.259,80.975,10.631,108.48,28.929C605.426,8647,555.933,8612.212,531.055,8642.1Zm50.624,57.855c25.58,3.884,37.259-6.136,43.4-21.692-12.6.54-22.495-1.616-28.932-7.234C592.378,8681.724,585.444,8689.257,581.679,8699.952Z" fill-rule="evenodd"/>
    <path id="Path_9210" data-name="Path 9210" d="M1558.03,8533.613c7.29.089,9.095,12.679,0,14.464Z" fill-rule="evenodd"/>
    <path id="Path_9211" data-name="Path 9211" d="M371.948,8685.489c4.443,10.514,8.736-.737,0,0-13.724-40.308-105.139-29.947-79.556-86.788,45.448,19.64,76.274,53.906,101.252,94.02,8.319,21.205-34.687,26.86-14.465,36.159-31.859,24.8-75.956-32.013-65.091-50.62C341.342,8672.7,348.659,8687.081,371.948,8685.489Z" fill-rule="evenodd"/>
    <path id="Path_9212" data-name="Path 9212" d="M1095.168,8598.7c11.483,20.441,46.439,45.844,28.928,72.324-29.4,2.88-22.255-30.78-43.4-36.16-18.911,2.779-20.2,23.191-50.624,14.463-3.143,39.3,65.713,6.606,57.861,50.624-6.442,3.213-12.937,6.353-14.469,14.468C997.747,8712.688,994.534,8575.242,1095.168,8598.7Z" fill-rule="evenodd"/>
    <path id="Path_9213" data-name="Path 9213" d="M1116.864,8743.348c-7.039.2-5.616,8.853-7.236,14.464-17.329,16.415-45.038,22.461-65.091,36.16-17.816-23.011,37.865-34.185,50.631-50.624,6.075-18.023,9.465-38.748,7.228-65.088C1126.38,8680.794,1113.747,8719.944,1116.864,8743.348Z" fill-rule="evenodd"/>
    <path id="Path_9214" data-name="Path 9214" d="M1001.148,8692.721c33.572,2.587,47.686,24.635,57.86,50.627-34.817-1.067-32.075,35.428-50.631,50.624-18.171-14,8.5-44.055,7.236-65.092C1021,8706.621,995.76,8714.983,1001.148,8692.721Z" fill-rule="evenodd"/>
    <path id="Path_9215" data-name="Path 9215" d="M1666.506,8699.952c-.726-8.739,10.514-4.447,0,0Z" fill-rule="evenodd"/>
    <path id="Path_9216" data-name="Path 9216" d="M1124.1,8743.348c-6.916-30.039,21.662-1.462,0,0Z" fill-rule="evenodd"/>
    <path id="Path_9217" data-name="Path 9217" d="M379.179,8808.436c-7.84-38.361,21.971-8.543,0,0Z" fill-rule="evenodd"/>
    <path id="Path_9218" data-name="Path 9218" d="M379.179,8808.436c3.927,35.852-24.58,67.707-7.231,94.02,19.185,26.614,89.294,2.313,108.479,28.929,18.476-.807,25.314-13.258,36.161-21.7,34.983,52.071-76.733,19.532-79.552,57.856-9.708-4.752-13.465-15.459-14.464-28.928-32.816,3.892-43.323-14.537-65.088-21.692-5.639-46.624,10.676-71.286,14.464-108.487Z" fill-rule="evenodd"/>
    <path id="Path_9219" data-name="Path 9219" d="M2172.767,8887.991c-2.021,14.854-19.316,14.433-28.935,21.7,24.445,28.6,51.251,54.82,57.855,101.252-31.975-37.934-51.2-88.623-101.24-108.483C2108.416,8873.3,2148.969,8908.981,2172.767,8887.991Z" fill-rule="evenodd"/>
    <path id="Path_9220" data-name="Path 9220" d="M1623.121,8974.779v-7.236c6.148,1.331,6.82-2.819,7.229-7.232,7.035-.2,5.608-8.852,7.228-14.464,9.712-4.755,13.469-15.459,14.464-28.924,28.334-4.224,18.467,29.746,36.172,36.16C1671.026,8964.831,1644.4,8967.13,1623.121,8974.779Z" fill-rule="evenodd"/>
    <path id="Path_9221" data-name="Path 9221" d="M1008.377,9010.938c.412-4.408,1.08-8.559,7.236-7.235C1015.2,9008.115,1014.533,9012.265,1008.377,9010.938Z" fill-rule="evenodd"/>
    <path id="Path_9222" data-name="Path 9222" d="M1001.148,9018.171c.41-4.413,1.081-8.562,7.229-7.232C1007.968,9015.348,1007.3,9019.5,1001.148,9018.171Z" fill-rule="evenodd"/>
    <path id="Path_9223" data-name="Path 9223" d="M993.917,9025.4c.409-4.409,1.08-8.563,7.231-7.232C1000.736,9022.58,1000.065,9026.73,993.917,9025.4Z" fill-rule="evenodd"/>
    <path id="Path_9224" data-name="Path 9224" d="M986.681,9032.634c.412-4.412,1.084-8.558,7.236-7.23C993.508,9029.815,992.837,9033.965,986.681,9032.634Z" fill-rule="evenodd"/>
    <path id="Path_9225" data-name="Path 9225" d="M979.449,9198.973c-4.011.028-8.208-5.857,0-7.23Z" fill-rule="evenodd"/>
    <path id="Path_9226" data-name="Path 9226" d="M1659.27,9437.637c20.535-51.793,68.339-76.319,86.791-130.18C1769.126,9374.014,1689.015,9399.8,1659.27,9437.637Z" fill-rule="evenodd"/>
    <path id="Path_9227" data-name="Path 9227" d="M1724.361,9408.709c15.128,4.162,20.651,17.927,43.4,14.468-6.125,10.745-23.289,10.464-36.164,14.46,6.18,35.11-16.809,41.05-36.156,50.623-27.022,7.738-20.62-17.95-43.4-14.463C1670.81,9446.755,1708.856,9439,1724.361,9408.709Zm-7.228,36.16c-10.514,4.447.741,8.744,0,0C1727.647,9440.422,1716.4,9436.132,1717.133,9444.869Z" fill-rule="evenodd"/>
    <path id="Path_9228" data-name="Path 9228" d="M1652.042,9444.869c.416-4.412,1.08-8.56,7.228-7.232C1658.869,9442.049,1658.19,9446.2,1652.042,9444.869Z" fill-rule="evenodd"/>
    <path id="Path_9229" data-name="Path 9229" d="M885.433,9444.869c4.413.412,8.559,1.084,7.232,7.231C888.252,9451.7,884.1,9451.021,885.433,9444.869Z" fill-rule="evenodd"/>
    <path id="Path_9230" data-name="Path 9230" d="M1652.042,9444.869c.74,8.744-10.515,4.447,0,0Z" fill-rule="evenodd"/>
    <path id="Path_9231" data-name="Path 9231" d="M892.665,9452.1c8.74-.732,4.447,10.515,0,0Z" fill-rule="evenodd"/>
    <path id="Path_9232" data-name="Path 9232" d="M1485.71,9560.584c-59.521,59.665-133.593-21.95-173.583-50.624,6.465-10.637,50.59,1.959,65.092,7.232,59.869,6.013,108.53-13.311,144.648,7.231-27.98,8.182-58.968,13.358-65.093,43.393C1470.444,9569.436,1472.728,9559.67,1485.71,9560.584Zm-72.32,0c16.47,2.021,27.17-1.739,28.921-14.464C1429.49,9547.771,1406.093,9538.831,1413.39,9560.584Z" fill-rule="evenodd"/>
    <path id="Path_9233" data-name="Path 9233" d="M885.433,9553.353c-.736-8.74,10.511-4.443,0,0Z" fill-rule="evenodd"/>
    <path id="Path_9234" data-name="Path 9234" d="M1485.71,9560.584c1.45-21.661,30.039,6.916,0,0Z" fill-rule="evenodd"/>
    <path id="Path_9235" data-name="Path 9235" d="M1644.814,9618.444c11.185,10.507,15.189,28.207,14.456,50.624,27.639-20.574,42.342-54.093,50.635-94.017,15.243,56.332-38.987,105.583-50.635,159.107-26.652,4.679-37.923,24.747-43.384,50.624,1.543-47.357-62.338-29.275-94.019-43.4,32.113-18.511,94.343-6.9,130.175-21.7C1657.064,9678.514,1639.8,9659.626,1644.814,9618.444Z" fill-rule="evenodd"/>
    <path id="Path_9236" data-name="Path 9236" d="M1644.814,9618.444c-8.748.735-4.452-10.516,0,0Z" fill-rule="evenodd"/>
    <path id="Path_9237" data-name="Path 9237" d="M1608.65,9792.015c-1.936,86.634-102.783,50.2-166.339,43.4,4.937-21.581,28.8-24.246,57.856-21.7C1537.889,9794.441,1570.318,9798.514,1608.65,9792.015Z" fill-rule="evenodd"/>
    <path id="Path_9238" data-name="Path 9238" d="M1579.722,9857.1c14.07,21.635-14.626,62.276-21.692,86.791,18.39,140.722,60.263,257.945,101.24,376.071-41.162-48.029-67.591-110.8-94.012-173.576-33.973-55.217-47.851-130.537-86.784-180.795-34.52,5.585-46.547-11.316-79.563-7.235,35.192-23.136,92.377,16.716,130.183-7.236C1560.028,9933.843,1566.569,9892.164,1579.722,9857.1Z" fill-rule="evenodd"/>
    <path id="Path_9239" data-name="Path 9239" d="M1926.865,10088.533c-3.372,15.436,10.337,13.77,21.7,14.473-6.495,21.166-6.495,22.208,0,43.383-27.023-7.729-20.619,17.959-43.391,14.473,3.378-15.444-10.337-13.778-21.7-14.473.647-27.015,8.115-20.61,0-43.383C1898.593,10098.832,1904.116,10085.07,1926.865,10088.533Zm-7.229,14.473c-2-2.006-10.977,3.486-7.236,7.228C1914.4,10112.231,1923.378,10106.747,1919.636,10103.006Zm-14.463,7.228c-2-2-10.978,3.486-7.229,7.228C1899.935,10119.46,1908.914,10113.974,1905.173,10110.233Zm28.92,0c-1.99-2-10.97,3.486-7.228,7.228C1928.87,10119.46,1937.841,10113.974,1934.093,10110.233Zm-28.92,14.465c-2-2-10.978,3.485-7.229,7.228C1899.935,10133.931,1908.914,10128.439,1905.173,10124.7Zm28.92,7.228c.03-4.012-5.848-8.2-7.228,0C1926.849,10135.953,1932.72,10140.134,1934.093,10131.926Zm-14.457,7.228c.016-4.012-5.855-8.2-7.236,0C1912.385,10143.18,1918.263,10147.369,1919.636,10139.153Z" fill-rule="evenodd"/>
    <path id="Path_9240" data-name="Path 9240" d="M1268.735,10153.626c126.219-27.348,173.691,86.644,202.5,180.8C1398.456,10279.457,1353.051,10197.078,1268.735,10153.626Z" fill-rule="evenodd"/>
    <path id="Path_9241" data-name="Path 9241" d="M1153.024,10327.2v43.392c-16.485-2.021-27.188,1.744-28.928,14.464-12.789-6.5-21.114-17.464-36.159-21.7,10.8-22.009-2.38-28.117,7.231-43.392C1117.89,10308.779,1135.513,10315.344,1153.024,10327.2Zm-36.16,7.228c-30.043-6.912-1.466,21.661,0,0C1127.374,10329.978,1116.127,10325.688,1116.864,10334.428Zm28.924,0c-5.608,1.62-14.263.2-14.46,7.229C1136.936,10340.045,1145.592,10341.464,1145.788,10334.428Zm-36.16,14.464c-2-2-10.969,3.5-7.232,7.236C1104.4,10358.126,1113.366,10352.641,1109.628,10348.892Zm28.932,0c-2-2-10.973,3.5-7.232,7.236C1133.33,10358.126,1142.3,10352.641,1138.56,10348.892Zm-14.464,14.465c.019-4.012-5.859-8.2-7.232,0C1116.841,10367.383,1122.719,10371.572,1124.1,10363.356Z" fill-rule="evenodd"/>
    <path id="Path_9242" data-name="Path 9242" d="M1796.681,10341.657c27.578-3.464,14.742,33.479,50.636,21.7-2.538,26.043-11.062,34.853,0,57.863-12.821,8.879-38.115,5.276-43.4,21.7-27.57,3.448-14.734-33.479-50.62-21.7,2.538-26.043,11.054-34.853,0-57.863C1762.562,10350.937,1796.534,10363.21,1796.681,10341.657Zm14.472,36.171c-7.182,34.914,41.093-2.067,14.472-7.236-.2,7.035-8.856,5.616-14.472,7.236v-21.7C1790.055,10345.49,1790.055,10388.45,1811.153,10377.828Zm-21.7,0c-9.242-.394-10.013-9.28-21.692-7.236C1756.514,10388.389,1792.322,10391.86,1789.453,10377.828Zm0,28.92v21.7c21.1,10.63,21.1-32.322,0-21.7,1.188-8.4-1.6-12.859-7.228-14.463-4.7,7.351-16.624,7.481-14.464,21.69C1779.44,10416.028,1780.211,10407.141,1789.453,10406.748Zm43.4,0c-9.25-.393-10.021-9.272-21.7-7.229C1799.906,10417.316,1835.722,10420.78,1832.853,10406.748Z" fill-rule="evenodd"/>
    <path id="Path_9243" data-name="Path 9243" d="M1384.455,10385.056c8.732-.739,4.444,10.516,0,0Z" fill-rule="evenodd"/>
    <path id="Path_9244" data-name="Path 9244" d="M2006.42,10457.376h21.7v21.692h-21.7Z" fill-rule="evenodd"/>
    <path id="Path_9245" data-name="Path 9245" d="M1869.008,10674.343c-2.954,17.418,13.215,15.722,7.237,36.163,21.167-6.5,22.216-6.5,43.391,0,4.32,26.021-2.6,40.793-21.692,43.385,10,11.7,25.588,17.813,21.692,43.4-5.014,5.662-40.36,16.1-43.391,0-12.42,9.273-8.956,34.436-28.928,36.164-22.734,1.033-24.848-18.553-28.929-36.164-17.827.956-34.852,1.095-43.4-7.229-3.425-22.718,9.026-29.553,21.692-36.171-9.581-12.1-19.154-24.223-14.456-50.611,24.13-5.895,51.646,7.258,57.855-28.937Zm-7.235,57.855v14.465c9.434,8.578,45.922,3.417,43.4-21.692-14.773-15.452-28.62,2.036-43.4,7.228-3.2-13.661,9.843-43.584-14.456-36.155-15.081,4.142-9.049,46.786,7.228,43.391C1853.218,10733.278,1857.36,10732.615,1861.773,10732.2Zm-65.092-14.456c-4.289,21.739,30.525,41.016,43.4,21.691C1829.173,10727.747,1813.459,10701.82,1796.681,10717.742Zm36.172,57.855c-1.428,20.7-.9,39.466,21.692,36.156,6.495-21.175,6.495-22.216,0-43.384-11.679-2.052-12.451,6.827-21.692,7.228v-14.472c-7.846-16.562-45.468-2.753-36.172,21.7C1813.459,10785.141,1824.452,10781.661,1832.853,10775.6Zm65.091,14.464c5.045-26.752-11.448-31.951-36.171-28.936C1863.138,10781.468,1874.354,10791.944,1897.944,10790.062Z" fill-rule="evenodd"/>
    <path id="Path_9246" data-name="Path 9246" d="M1963.036,10696.043c5.269,19.724-14.379,14.556-14.472,28.928-10.583-6.287-22.926-10.831-21.7-28.928C1936.36,10686.755,1953.525,10686.755,1963.036,10696.043Z" fill-rule="evenodd"/>
    <path id="Path_9247" data-name="Path 9247" d="M1630.35,10739.434c18.151,112.2-67.884,182.8-130.183,238.667-15.328-15.813,20.272-42.057,28.927-57.862,6.241-25.1,22.549-40.138,36.164-57.856C1581.89,10816.336,1613.024,10784.793,1630.35,10739.434Z" fill-rule="evenodd"/>
    <path id="Path_9248" data-name="Path 9248" d="M2078.747,10956.393c-15.12,3.071-19.154-4.951-28.935-7.228C2051.116,10928.191,2084.186,10931.739,2078.747,10956.393Z" fill-rule="evenodd"/>
  </g>
</svg>
