<svg xmlns="http://www.w3.org/2000/svg" width="435.633" height="435.633" viewBox="0 0 435.633 435.633">
  <defs>
    <style>
      .cls-1 {
        fill: #00bed6;
      }

      .cls-2 {
        fill: #ffb71b;
      }
    </style>
  </defs>
  <g  transform="translate(-195.267 -1380.639)">
    <g >
      <path class="cls-1" d="M544.641,1492.36V1466.9H281.526v25.462h12.733v152.779H281.526v25.46H355.29l-26.635,53.273,7.592,3.8,28.532-57.075h44.06v55.169h8.489V1670.6h44.055l28.536,57.069,2.166-1.081a16.7,16.7,0,0,0,22.847-2.441,16.905,16.905,0,0,0,29.709-11.106V1591a30.617,30.617,0,0,0-19.213-28.781,25.4,25.4,0,0,0,6.48-42.1V1492.36Zm-254.628-8.487v-8.487H536.154v8.487Zm0,169.752H485.228v8.488H290.013ZM485.228,1670.6v28.7l-14.351-28.7Zm50.926-79.6V1713.04a8.488,8.488,0,0,1-16.976,0v-59.415h-8.491v59.415a8.488,8.488,0,0,1-16.976,0v-119.7l-23.938,10.636a7.722,7.722,0,0,1-8.565-1.589l-21.786-21.79a4.757,4.757,0,1,1,6.728-6.728l21.53,21.529,2.884-1.876c13.162-8.551,33.116-21.507,34.032-22.075a21.12,21.12,0,0,1,12.845-2.552c10.49,1.194,18.713,10.905,18.713,22.1Zm-21.222-34.983a16.974,16.974,0,1,1,16.976-16.974,16.99,16.99,0,0,1-16.976,16.974Zm8.488-40.948a25.435,25.435,0,0,0-19.008,47.138,29.434,29.434,0,0,0-3.972,1.845c-.458.256-11.1,7.147-31.618,20.492l-16.667-16.666a13.256,13.256,0,0,0-14.462-2.846L416.642,1532.5l-7.126,4.613,21.778,33.652a13.073,13.073,0,0,0,2.131,15.844l21.786,21.787a16.265,16.265,0,0,0,18.016,3.347l12-5.342v38.737H302.742V1492.36H523.42Zm0,0"/>
      <rect class="cls-1" width="67.901" height="8.488" transform="translate(379.131 1611.188)"/>
      <rect class="cls-1" width="55.167" height="8.488" transform="translate(391.865 1628.162)"/>
      <rect class="cls-2" width="21.571" height="35.955" transform="translate(315.498 1550.165)"/>
      <rect  class="cls-2" width="21.572" height="53.931" transform="translate(347.855 1532.19)"/>
      <rect class="cls-2" width="21.573" height="64.717" transform="translate(380.213 1521.403)"/>
    </g>
    <g >
      <path  class="cls-1" d="M413.084,1816.272a217.815,217.815,0,1,1,154.019-63.8A216.395,216.395,0,0,1,413.084,1816.272Zm0-425.633c-114.591,0-207.817,93.226-207.817,207.817s93.226,207.816,207.817,207.816S620.9,1713.047,620.9,1598.456,527.674,1390.639,413.084,1390.639Z"/>
    </g>
  </g>
</svg>
