<svg xmlns="http://www.w3.org/2000/svg" width="92.871" height="92.87" viewBox="0 0 92.871 92.87">
  <defs>
    <style>
      .cls-1 {
        fill: #00bed6;
      }

      .cls-2 {
        fill: #ffb71b;
      }
    </style>
  </defs>
  <g id="グループ_358" data-name="グループ 358" transform="translate(-1051.364 -5085.781)">
    <g id="グループ_340" data-name="グループ 340">
      <path id="パス_513" data-name="パス 513" class="cls-1" d="M1097.8,5178.651a46.433,46.433,0,1,1,32.835-13.6A46.135,46.135,0,0,1,1097.8,5178.651Zm0-90.739a44.3,44.3,0,1,0,44.3,44.3A44.355,44.355,0,0,0,1097.8,5087.912Z"/>
    </g>
    <g id="グループ_357" data-name="グループ 357">
      <path id="パス_514" data-name="パス 514" class="cls-2" d="M1106.107,5128.8a8.307,8.307,0,1,0-10.933,7.882v1.5h5.252v-1.5A8.312,8.312,0,0,0,1106.107,5128.8Z"/>
      <path id="パス_515" data-name="パス 515" class="cls-2" d="M1100.426,5139.183h-5.252v3.768h1.071v1.433h3.109v-1.433h1.071Z"/>
      <g id="グループ_341" data-name="グループ 341">
        <path id="パス_516" data-name="パス 516" class="cls-2" d="M1097.8,5118.5a.753.753,0,0,1-.753-.753v-4.983a.753.753,0,0,1,1.505,0v4.983A.753.753,0,0,1,1097.8,5118.5Z"/>
      </g>
      <g id="グループ_342" data-name="グループ 342">
        <path id="パス_517" data-name="パス 517" class="cls-2" d="M1097.8,5152.425a.753.753,0,0,1-.753-.752v-4.984a.753.753,0,0,1,1.505,0v4.984A.752.752,0,0,1,1097.8,5152.425Z"/>
      </g>
      <g id="グループ_343" data-name="グループ 343">
        <path id="パス_518" data-name="パス 518" class="cls-2" d="M1083.326,5132.968h-4.983a.752.752,0,1,1,0-1.5h4.983a.752.752,0,1,1,0,1.5Z"/>
      </g>
      <g id="グループ_344" data-name="グループ 344">
        <path id="パス_519" data-name="パス 519" class="cls-2" d="M1117.257,5132.968h-4.984a.752.752,0,0,1,0-1.5h4.984a.752.752,0,1,1,0,1.5Z"/>
      </g>
      <g id="グループ_345" data-name="グループ 345">
        <path id="パス_520" data-name="パス 520" class="cls-2" d="M1087.565,5122.734a.75.75,0,0,1-.532-.22l-3.523-3.524a.753.753,0,0,1,1.064-1.064l3.523,3.524a.752.752,0,0,1-.532,1.284Z"/>
      </g>
      <g id="グループ_346" data-name="グループ 346">
        <path id="パス_521" data-name="パス 521" class="cls-2" d="M1111.558,5146.726a.749.749,0,0,1-.532-.22l-3.524-3.524a.752.752,0,0,1,1.064-1.064l3.524,3.524a.752.752,0,0,1-.532,1.284Z"/>
      </g>
      <g id="グループ_347" data-name="グループ 347">
        <path id="パス_522" data-name="パス 522" class="cls-2" d="M1084.042,5146.726a.752.752,0,0,1-.532-1.284l3.523-3.524a.752.752,0,1,1,1.064,1.064l-3.523,3.524A.751.751,0,0,1,1084.042,5146.726Z"/>
      </g>
      <g id="グループ_348" data-name="グループ 348">
        <path id="パス_523" data-name="パス 523" class="cls-2" d="M1108.034,5122.734a.752.752,0,0,1-.532-1.284l3.524-3.524a.753.753,0,0,1,1.064,1.064l-3.524,3.524A.749.749,0,0,1,1108.034,5122.734Z"/>
      </g>
      <g id="グループ_349" data-name="グループ 349">
        <circle id="楕円形_19" data-name="楕円形 19" class="cls-1" cx="5.503" cy="5.503" r="5.503" transform="translate(1064.239 5126.712)"/>
      </g>
      <g id="グループ_350" data-name="グループ 350">
        <circle id="楕円形_20" data-name="楕円形 20" class="cls-1" cx="5.503" cy="5.503" r="5.503" transform="translate(1120.354 5126.712)"/>
      </g>
      <g id="グループ_351" data-name="グループ 351">
        <circle id="楕円形_21" data-name="楕円形 21" class="cls-1" cx="5.503" cy="5.503" r="5.503" transform="translate(1072.457 5146.552)"/>
      </g>
      <g id="グループ_352" data-name="グループ 352">
        <circle id="楕円形_22" data-name="楕円形 22" class="cls-1" cx="5.503" cy="5.503" r="5.503" transform="translate(1112.136 5106.873)"/>
      </g>
      <g id="グループ_353" data-name="グループ 353">
        <circle id="楕円形_23" data-name="楕円形 23" class="cls-1" cx="5.503" cy="5.503" r="5.503" transform="translate(1092.297 5154.771)"/>
      </g>
      <g id="グループ_354" data-name="グループ 354">
        <circle id="楕円形_24" data-name="楕円形 24" class="cls-1" cx="5.503" cy="5.503" r="5.503" transform="translate(1092.297 5098.655)"/>
      </g>
      <g id="グループ_355" data-name="グループ 355">
        <circle id="楕円形_25" data-name="楕円形 25" class="cls-1" cx="5.503" cy="5.503" r="5.503" transform="translate(1112.136 5146.552)"/>
      </g>
      <g id="グループ_356" data-name="グループ 356">
        <circle id="楕円形_26" data-name="楕円形 26" class="cls-1" cx="5.503" cy="5.503" r="5.503" transform="translate(1072.457 5106.873)"/>
      </g>
    </g>
  </g>
</svg>
