<svg xmlns="http://www.w3.org/2000/svg" width="92.871" height="92.87" viewBox="0 0 92.871 92.87">
  <defs>
    <style>
      .cls-1 {
        fill: #00bed6;
      }

      .cls-2 {
        fill: #ffb71b;
      }
    </style>
  </defs>
  <g id="グループ_378" data-name="グループ 378" transform="translate(-1051.364 -5198.781)">
    <g id="グループ_376" data-name="グループ 376">
      <path id="パス_534" data-name="パス 534" class="cls-1" d="M1097.8,5291.651a46.433,46.433,0,1,1,32.835-13.6A46.135,46.135,0,0,1,1097.8,5291.651Zm0-90.739a44.3,44.3,0,1,0,44.3,44.3A44.355,44.355,0,0,0,1097.8,5200.912Z"/>
    </g>
    <g id="グループ_377" data-name="グループ 377">
      <path id="パス_535" data-name="パス 535" class="cls-1" d="M1099.689,5223.149a3.746,3.746,0,1,0-3.779,0,4.682,4.682,0,0,0-2.792,4.275v.936a.935.935,0,0,0,.936.937h2.809v6.555h1.873V5229.3h2.809a.936.936,0,0,0,.937-.937v-.936a4.681,4.681,0,0,0-2.793-4.275Zm-1.889-5.089a1.873,1.873,0,1,1-1.873,1.873,1.875,1.875,0,0,1,1.873-1.873Zm-2.809,9.364a2.809,2.809,0,0,1,5.618,0Zm0,0"/>
      <path id="パス_536" data-name="パス 536" class="cls-1" d="M1070.644,5235.852h7.491a.936.936,0,0,0,.936-.937v-.123l9.781,6.521,1.039-1.558-11.136-7.423a4.687,4.687,0,0,0-2.477-2.628,3.745,3.745,0,1,0-3.778,0,4.679,4.679,0,0,0-2.793,4.275v.936a.936.936,0,0,0,.937.937Zm3.745-11.237a1.872,1.872,0,1,1-1.872,1.873,1.875,1.875,0,0,1,1.872-1.873Zm0,6.555a2.813,2.813,0,0,1,2.81,2.809h-5.619a2.812,2.812,0,0,1,2.809-2.809Zm0,0"/>
      <path id="パス_537" data-name="パス 537" class="cls-1" d="M1123.1,5229.7a3.746,3.746,0,1,0-3.779,0,4.692,4.692,0,0,0-2.478,2.628l-11.135,7.423,1.038,1.558,9.782-6.521v.123a.936.936,0,0,0,.937.937h7.491a.935.935,0,0,0,.936-.937v-.936a4.679,4.679,0,0,0-2.792-4.275Zm-1.89-5.089a1.872,1.872,0,1,1-1.873,1.873,1.875,1.875,0,0,1,1.873-1.873Zm-2.809,9.364a2.81,2.81,0,0,1,5.619,0Zm0,0"/>
      <path id="パス_538" data-name="パス 538" class="cls-1" d="M1123.1,5255.923a3.746,3.746,0,1,0-3.779,0,4.722,4.722,0,0,0-1.387.94l-11.173-7.735-1.066,1.541,11.19,7.747a4.66,4.66,0,0,0-.357,1.783v.936a.936.936,0,0,0,.937.937h7.491a.935.935,0,0,0,.936-.937v-.936a4.683,4.683,0,0,0-2.792-4.276Zm-1.89-5.089a1.873,1.873,0,1,1-1.873,1.873,1.875,1.875,0,0,1,1.873-1.873Zm-2.809,9.365a2.81,2.81,0,1,1,5.619,0Zm0,0"/>
      <path id="パス_539" data-name="パス 539" class="cls-1" d="M1099.689,5268.1a3.722,3.722,0,0,0-.953-6.829v-6.688h-1.873v6.688a3.722,3.722,0,0,0-.953,6.829,4.682,4.682,0,0,0-2.792,4.275v.937a.935.935,0,0,0,.936.936h7.491a.936.936,0,0,0,.937-.936v-.937a4.681,4.681,0,0,0-2.793-4.275Zm-1.889-5.089a1.873,1.873,0,1,1-1.873,1.873,1.875,1.875,0,0,1,1.873-1.873Zm-2.809,9.364a2.809,2.809,0,1,1,5.618,0Zm0,0"/>
      <path id="パス_540" data-name="パス 540" class="cls-1" d="M1088.839,5249.128l-11.172,7.736a4.708,4.708,0,0,0-1.387-.941,3.746,3.746,0,1,0-3.78,0,4.684,4.684,0,0,0-2.793,4.276v.936a.936.936,0,0,0,.937.937h7.491a.936.936,0,0,0,.936-.937v-.936a4.623,4.623,0,0,0-.357-1.783l11.192-7.747Zm-14.45,1.706a1.873,1.873,0,1,1-1.872,1.873,1.875,1.875,0,0,1,1.872-1.873Zm-2.809,9.365a2.81,2.81,0,1,1,5.619,0Zm0,0"/>
      <path id="パス_541" data-name="パス 541" class="cls-2" d="M1097.8,5255.517a10.3,10.3,0,1,1,10.3-10.3,10.314,10.314,0,0,1-10.3,10.3Zm0,0"/>
      <path id="パス_542" data-name="パス 542" class="cls-1" d="M1099.689,5244.686a3.746,3.746,0,1,0-3.779,0,4.682,4.682,0,0,0-2.792,4.276v.936a.935.935,0,0,0,.936.936h7.491a.936.936,0,0,0,.937-.936v-.936a4.682,4.682,0,0,0-2.793-4.276Zm-1.889-5.089a1.873,1.873,0,1,1-1.873,1.873,1.875,1.875,0,0,1,1.873-1.873Zm-2.809,9.365a2.809,2.809,0,1,1,5.618,0Zm0,0"/>
    </g>
  </g>
</svg>
