<svg xmlns="http://www.w3.org/2000/svg" width="91.857" height="91.857" viewBox="0 0 91.857 91.857">
  <defs>
    <style>
      .cls-1 {
        fill: #00bed6;
      }

      .cls-2 {
        fill: #38878d;
      }

      .cls-3 {
        fill: #ffb71b;
      }
    </style>
  </defs>
  <g id="グループ_336" data-name="グループ 336" transform="translate(-346.143 -5312.679)">
    <g id="グループ_334" data-name="グループ 334">
      <path id="パス_487" data-name="パス 487" class="cls-1" d="M392.072,5404.536a45.928,45.928,0,1,1,32.476-13.452A45.629,45.629,0,0,1,392.072,5404.536Zm0-89.748a43.819,43.819,0,1,0,43.819,43.82A43.869,43.869,0,0,0,392.072,5314.788Z"/>
    </g>
    <g id="グループ_335" data-name="グループ 335">
      <path id="パス_488" data-name="パス 488" class="cls-2" d="M392.069,5362.771l-18.8-10.744-11.495,6.525,30.293,17.312,30.3-17.312-11.493-6.525Zm0,0"/>
      <path id="パス_489" data-name="パス 489" class="cls-1" d="M392.069,5375.864l-18.8-10.746-11.495,6.527,30.293,17.311,30.3-17.311-11.493-6.527Zm0,0"/>
      <path id="パス_490" data-name="パス 490" class="cls-3" d="M410.572,5353.253a1.191,1.191,0,1,1-1.192-1.192,1.194,1.194,0,0,1,1.192,1.192Zm0,0"/>
      <path id="パス_491" data-name="パス 491" class="cls-3" d="M414.139,5356.82a1.188,1.188,0,1,1-1.191-1.191,1.189,1.189,0,0,1,1.191,1.191Zm0,0"/>
      <path id="パス_492" data-name="パス 492" class="cls-3" d="M374.868,5353.253a1.192,1.192,0,1,1-1.191-1.192,1.193,1.193,0,0,1,1.191,1.192Zm0,0"/>
      <path id="パス_493" data-name="パス 493" class="cls-3" d="M407,5356.82a1.188,1.188,0,1,1-1.184-1.191A1.187,1.187,0,0,1,407,5356.82Zm0,0"/>
      <path id="パス_494" data-name="パス 494" class="cls-3" d="M371.294,5356.82a1.188,1.188,0,1,1-1.184-1.191,1.187,1.187,0,0,1,1.184,1.191Zm0,0"/>
      <path id="パス_495" data-name="パス 495" class="cls-3" d="M378.436,5356.82a1.188,1.188,0,1,1-1.192-1.191,1.189,1.189,0,0,1,1.192,1.191Zm0,0"/>
      <path id="パス_496" data-name="パス 496" class="cls-3" d="M374.868,5360.4a1.192,1.192,0,1,1-1.191-1.192,1.188,1.188,0,0,1,1.191,1.192Zm0,0"/>
      <path id="パス_497" data-name="パス 497" class="cls-3" d="M382.011,5360.4a1.192,1.192,0,1,1-1.192-1.192,1.188,1.188,0,0,1,1.192,1.192Zm0,0"/>
      <path id="パス_498" data-name="パス 498" class="cls-3" d="M382.011,5367.53a1.192,1.192,0,1,1-1.192-1.184,1.19,1.19,0,0,1,1.192,1.184Zm0,0"/>
      <path id="パス_499" data-name="パス 499" class="cls-3" d="M378.436,5363.962a1.188,1.188,0,1,1-1.192-1.191,1.19,1.19,0,0,1,1.192,1.191Zm0,0"/>
      <path id="パス_500" data-name="パス 500" class="cls-3" d="M385.578,5363.962a1.191,1.191,0,1,1-1.192-1.191,1.193,1.193,0,0,1,1.192,1.191Zm0,0"/>
      <path id="パス_501" data-name="パス 501" class="cls-3" d="M389.145,5367.53a1.188,1.188,0,1,1-1.184-1.184,1.183,1.183,0,0,1,1.184,1.184Zm0,0"/>
      <path id="パス_502" data-name="パス 502" class="cls-3" d="M396.288,5367.53a1.188,1.188,0,1,1-1.192-1.184,1.185,1.185,0,0,1,1.192,1.184Zm0,0"/>
      <path id="パス_503" data-name="パス 503" class="cls-3" d="M392.72,5363.962a1.191,1.191,0,1,1-1.191-1.191,1.194,1.194,0,0,1,1.191,1.191Zm0,0"/>
      <path id="パス_504" data-name="パス 504" class="cls-3" d="M399.862,5363.962a1.191,1.191,0,1,1-1.191-1.191,1.194,1.194,0,0,1,1.191,1.191Zm0,0"/>
      <path id="パス_505" data-name="パス 505" class="cls-3" d="M392.72,5371.1a1.191,1.191,0,1,1-1.191-1.192,1.193,1.193,0,0,1,1.191,1.192Zm0,0"/>
      <path id="パス_506" data-name="パス 506" class="cls-3" d="M403.43,5360.4a1.191,1.191,0,1,1-1.192-1.192,1.187,1.187,0,0,1,1.192,1.192Zm0,0"/>
      <path id="パス_507" data-name="パス 507" class="cls-3" d="M410.572,5360.4a1.191,1.191,0,1,1-1.192-1.192,1.188,1.188,0,0,1,1.192,1.192Zm0,0"/>
      <path id="パス_508" data-name="パス 508" class="cls-3" d="M403.43,5367.53a1.192,1.192,0,1,1-1.192-1.184,1.189,1.189,0,0,1,1.192,1.184Zm0,0"/>
      <path id="パス_509" data-name="パス 509" class="cls-3" d="M407,5363.962a1.188,1.188,0,1,1-1.184-1.191,1.188,1.188,0,0,1,1.184,1.191Zm0,0"/>
      <path id="パス_510" data-name="パス 510" class="cls-3" d="M417.714,5360.4a1.191,1.191,0,1,1-1.192-1.192,1.188,1.188,0,0,1,1.192,1.192Zm0,0"/>
      <path id="パス_511" data-name="パス 511" class="cls-3" d="M422.367,5345.465l-30.3,17.306-30.293-17.306,30.293-17.206Zm0,0"/>
    </g>
  </g>
</svg>
