<svg xmlns="http://www.w3.org/2000/svg" width="92.871" height="92.87" viewBox="0 0 92.871 92.87">
  <defs>
    <style>
      .cls-1 {
        fill: #00bed6;
      }

      .cls-2 {
        mix-blend-mode: multiply;
        isolation: isolate;
      }

      .cls-3 {
        fill: #0b6c6e;
      }

      .cls-4 {
        fill: #ffb71b;
      }
    </style>
  </defs>
  <g id="グループ_375" data-name="グループ 375" transform="translate(-347.364 -5198.781)">
    <g id="グループ_359" data-name="グループ 359">
      <path id="パス_524" data-name="パス 524" class="cls-1" d="M393.8,5291.651a46.433,46.433,0,1,1,32.835-13.6A46.135,46.135,0,0,1,393.8,5291.651Zm0-90.739a44.3,44.3,0,1,0,44.3,44.3A44.355,44.355,0,0,0,393.8,5200.912Z"/>
    </g>
    <g id="グループ_374" data-name="グループ 374">
      <g id="グループ_360" data-name="グループ 360" class="cls-2">
        <circle id="楕円形_27" data-name="楕円形 27" class="cls-1" cx="8.423" cy="8.423" r="8.423" transform="translate(377.49 5230.35)"/>
      </g>
      <g id="グループ_361" data-name="グループ 361" class="cls-2">
        <circle id="楕円形_28" data-name="楕円形 28" class="cls-3" cx="8.423" cy="8.423" r="8.423" transform="translate(383.133 5239.224)"/>
      </g>
      <g id="グループ_362" data-name="グループ 362" class="cls-2">
        <circle id="楕円形_29" data-name="楕円形 29" class="cls-4" cx="8.423" cy="8.423" r="8.423" transform="translate(388.986 5230.35)"/>
      </g>
      <g id="グループ_373" data-name="グループ 373">
        <g id="グループ_363" data-name="グループ 363">
          <path id="パス_525" data-name="パス 525" class="cls-1" d="M407.119,5272.786l-2.089-7.925,14.242-3.753,2.088,7.925Zm-.88-7.22,1.584,6.011,12.328-3.248-1.584-6.012Z"/>
        </g>
        <g id="グループ_364" data-name="グループ 364">
          <path id="パス_526" data-name="パス 526" class="cls-1" d="M407.116,5264.86l-2.058-6.03L392.2,5246.26l-.03-.152a18.09,18.09,0,0,1-.282-2.72c-.043-2.035.408-3.256,1.341-3.63l.052-.018c2.353-.655,4.032,3.419,4.382,4.354l2.924,2.255,1.859-2.008-.758-1.2.837-.528,1.163,1.843-2.99,3.229-3.867-2.984-.049-.136c-.4-1.119-1.841-4.212-3.208-3.879-.878.4-.8,3.2-.46,5.083l12.808,12.518,2.134,6.253Z"/>
        </g>
        <g id="グループ_365" data-name="グループ 365">
          <path id="パス_527" data-name="パス 527" class="cls-1" d="M416.507,5262.442l-3.793-8.01-1.3-10.114.981-.125,1.276,9.958,3.725,7.868Z"/>
        </g>
        <g id="グループ_366" data-name="グループ 366">
          <path id="パス_528" data-name="パス 528" class="cls-1" d="M414.549,5245.106a1.91,1.91,0,0,1-.314-.025l-18.15-2.55.138-.98,18.184,2.556h0a1.031,1.031,0,0,0,.685-.147,1.063,1.063,0,0,0,.382-.726c.167-.987-.381-1.221-.5-1.259l-21.481-2.7-2.042.536,1.435,1.115-.607.781-3.018-2.345,4.165-1.093.1.012,21.642,2.72.028.007a1.926,1.926,0,0,1,1.257,2.39,2,2,0,0,1-.8,1.378A1.93,1.93,0,0,1,414.549,5245.106Z"/>
        </g>
        <g id="グループ_367" data-name="グループ 367">
          <path id="パス_529" data-name="パス 529" class="cls-1" d="M400.29,5240.03l-.76-.739-3.1.341-.108-.984,3.566-.391,1.094,1.063Z"/>
        </g>
        <g id="グループ_368" data-name="グループ 368">
          <path id="パス_530" data-name="パス 530" class="cls-1" d="M409.014,5227.848H374.465a3.924,3.924,0,0,1,0-7.848h34.549v.99a2.934,2.934,0,1,0,0,5.868Zm-34.549-6.858a2.934,2.934,0,1,0,0,5.868h31.947a3.916,3.916,0,0,1,0-5.868Z"/>
        </g>
        <g id="グループ_369" data-name="グループ 369">
          <rect id="長方形_130" data-name="長方形 130" class="cls-1" width="0.99" height="10.969" transform="translate(408.519 5226.988)"/>
        </g>
        <g id="グループ_370" data-name="グループ 370">
          <path id="パス_531" data-name="パス 531" class="cls-1" d="M411.906,5241.293l-.413-1.372-10.028-5.649-6.448,2.3a2.552,2.552,0,0,0-.62,1.466.637.637,0,0,0,.25.46l-.628.764a1.624,1.624,0,0,1-.608-1.145,3.623,3.623,0,0,1,.94-2.292l.084-.1,7.123-2.544,10.767,6.066.528,1.754Z"/>
        </g>
        <g id="グループ_371" data-name="グループ 371">
          <path id="パス_532" data-name="パス 532" class="cls-1" d="M411.885,5241.155l-.159-17.328a2.712,2.712,0,0,0-.686-2.02,3.18,3.18,0,0,0-2.027-.817V5220h0a4.156,4.156,0,0,1,2.725,1.106,3.645,3.645,0,0,1,.976,2.724l.159,17.316Z"/>
        </g>
        <g id="グループ_372" data-name="グループ 372">
          <path id="パス_533" data-name="パス 533" class="cls-1" d="M406.882,5270.441H373.97v-43.089h.99v42.1h31.922Z"/>
        </g>
      </g>
    </g>
  </g>
</svg>
