<svg xmlns="http://www.w3.org/2000/svg" xmlns:xlink="http://www.w3.org/1999/xlink" width="92.871" height="92.87" viewBox="0 0 92.871 92.87">
  <defs>
    <style>
      .cls-1 {
        fill: none;
      }

      .cls-2 {
        fill: #00bed6;
      }

      .cls-3 {
        clip-path: url(#clip-path);
      }

      .cls-4 {
        fill: #ffb71b;
      }
    </style>
    <clipPath id="clip-path">
      <rect id="長方形_128" data-name="長方形 128" class="cls-1" width="56.546" height="61.687" transform="translate(365.527 5101.373)"/>
    </clipPath>
  </defs>
  <g id="グループ_333" data-name="グループ 333" transform="translate(-347.364 -5085.781)">
    <g id="グループ_329" data-name="グループ 329">
      <path id="パス_483" data-name="パス 483" class="cls-2" d="M393.8,5178.651a46.433,46.433,0,1,1,32.835-13.6A46.135,46.135,0,0,1,393.8,5178.651Zm0-90.739a44.3,44.3,0,1,0,44.3,44.3A44.355,44.355,0,0,0,393.8,5087.912Z"/>
    </g>
    <g id="グループ_332" data-name="グループ 332">
      <g id="グループ_331" data-name="グループ 331">
        <g id="グループ_330" data-name="グループ 330" class="cls-3">
          <path id="パス_484" data-name="パス 484" class="cls-4" d="M366.556,5149.7a1.029,1.029,0,0,1-.432-1.963l1.868-.864a1.028,1.028,0,0,1,.863,1.867l-1.867.864a1.016,1.016,0,0,1-.432.1Zm52.275-.552a1.025,1.025,0,0,1-.432-.09l-1.868-.864a1.028,1.028,0,1,1,.863-1.867l1.867.862a1.021,1.021,0,0,1,.5,1.361,1.032,1.032,0,0,1-.933.6Zm-46.673-2.033a1.03,1.03,0,0,1-.432-1.964l1.867-.862a1.027,1.027,0,0,1,.859,1.867l-1.867.864a1.012,1.012,0,0,1-.427.095Zm41.069-.548a.964.964,0,0,1-.426-.1l-1.868-.863a1.028,1.028,0,0,1,.859-1.868l1.867.864a1.028,1.028,0,0,1-.432,1.962Zm-35.471-2.038a1.029,1.029,0,0,1-.432-1.962l1.868-.864a1.028,1.028,0,0,1,.863,1.867l-1.867.864a1.011,1.011,0,0,1-.432.095Zm29.875-.547a1,1,0,0,1-.432-.1l-1.868-.863a1.029,1.029,0,1,1,.864-1.867l1.867.863a1.029,1.029,0,0,1-.431,1.963Zm-24.273-2.039a1.028,1.028,0,0,1-.432-1.962l1.868-.864a1.029,1.029,0,0,1,.863,1.868l-1.867.863a1.008,1.008,0,0,1-.432.095Zm18.669-.546a1.031,1.031,0,0,1-.432-.1l-1.867-.863a1.029,1.029,0,0,1,.864-1.868l1.867.863a1.029,1.029,0,0,1-.432,1.964Zm-13.067-2.038a1.03,1.03,0,0,1-.432-1.964l1.869-.863a1.028,1.028,0,0,1,.858,1.868l-1.868.863a.992.992,0,0,1-.427.1Zm7.465-.548a1.019,1.019,0,0,1-.431-.1l-1.863-.863a1.028,1.028,0,1,1,.859-1.868l1.867.864a1.028,1.028,0,0,1-.432,1.962Zm0,0"/>
        </g>
      </g>
      <path id="パス_485" data-name="パス 485" class="cls-4" d="M393.288,5129.134a1.03,1.03,0,0,1-1.029-1.029v-2.059a1.026,1.026,0,1,1,2.052,0v2.059a1.025,1.025,0,0,1-1.023,1.029Zm0-6.17a1.03,1.03,0,0,1-1.029-1.029v-2.059a1.026,1.026,0,0,1,2.052,0v2.059a1.025,1.025,0,0,1-1.023,1.029Zm0-6.17a1.029,1.029,0,0,1-1.029-1.029v-2.053a1.026,1.026,0,1,1,2.052,0v2.053a1.025,1.025,0,0,1-1.023,1.029Zm0-6.17a1.029,1.029,0,0,1-1.029-1.029v-2.053a1.026,1.026,0,1,1,2.052,0v2.053a1.025,1.025,0,0,1-1.023,1.029Zm0-6.17a1.025,1.025,0,0,1-1.029-1.023V5102.4a1.026,1.026,0,1,1,2.052,0v1.029a1.02,1.02,0,0,1-1.023,1.023Zm0,0"/>
      <path id="パス_486" data-name="パス 486" class="cls-2" d="M421.011,5115.507a.885.885,0,0,0-.045-.115,1.023,1.023,0,0,0-.058-.135.994.994,0,0,0-.071-.1,1.06,1.06,0,0,0-.094-.115.973.973,0,0,0-.1-.082c-.025-.019-.045-.043-.072-.06s-.032-.014-.048-.022-.03-.024-.047-.033l-26.732-13.363a1.025,1.025,0,0,0-.919,0l-26.733,13.363c-.017.009-.03.023-.046.033s-.033.013-.049.022-.051.044-.077.065-.061.046-.088.073a1.1,1.1,0,0,0-.109.135c-.018.026-.039.049-.055.076a1.078,1.078,0,0,0-.086.2c-.005.018-.015.034-.02.052a1.014,1.014,0,0,0-.036.265v32.9a1.035,1.035,0,0,0,.566.919l26.733,13.363a.869.869,0,0,0,.119.044c.028.01.055.024.083.031a1.039,1.039,0,0,0,.26.035,1.006,1.006,0,0,0,.255-.035c.03-.008.058-.022.087-.032s.077-.024.115-.043l26.732-13.363a1.035,1.035,0,0,0,.567-.919v-32.9A1.053,1.053,0,0,0,421.011,5115.507Zm-27.723-11.956,24.356,12.178-15.4,7.107-8.96,4.134-15.882-7.328-8.474-3.913Zm-25.7,13.823,24.674,11.388v31.606l-24.674-12.338Zm51.406,30.656-24.68,12.338v-31.6l21.551-9.95,3.129-1.444Z"/>
      <rect id="長方形_129" data-name="長方形 129" class="cls-1" width="56.546" height="61.687" transform="translate(365.527 5101.373)"/>
    </g>
  </g>
</svg>
