<svg xmlns="http://www.w3.org/2000/svg" width="1920.183" height="193.945" viewBox="0 0 1920.183 193.945">
  <defs>
    <style>
      .cls-1 {
        fill: #f2f2f2;
      }

      .cls-2 {
        fill: #dadada;
      }
    </style>
  </defs>
  <g id="グループ_285" data-name="グループ 285" transform="translate(0.183 -2158.055)">
    <path id="パス_427" data-name="パス 427" class="cls-1" d="M-.183,2187.2V2352H1920V2164.785s-10.55-9.812-128.361,0-223.322,12.61-260.249,8.4-114.3-21.332-156.5-12.769-86.162,21.178-160.013,12.769-174.083-19.615-242.66-7-302.448,29.427-402.676,30.828S414.8,2185.8,330.4,2180.2s-186.391,15.416-239.142,16.817S-.183,2187.2-.183,2187.2Z"/>
    <path id="パス_428" data-name="パス 428" class="cls-2" d="M-.183,2250.369v15.8c38.748,8.436,95.013,12.338,170.564,1.814,125.728-17.515,147.928-21.126,259.658-12.377,65.65,5.139,106.679-14.48,185.221-21.255-66.234-22.184-103.123,13.311-212.146,3.034-62.542-5.9-171.19-20.543-228.043-11.207C128.543,2233.819,76.111,2251.771-.183,2250.369Z"/>
    <path id="パス_429" data-name="パス 429" class="cls-2" d="M930.013,2223.142s118.4-35.272,200.462-32,129.537,27.094,243.834,21.018,187.562-14.949,187.562-14.949-72.1,38.775-172.912,39.706-187.56-23.569-270.207-22.994S930.013,2223.142,930.013,2223.142Z"/>
    <path id="パス_430" data-name="パス 430" class="cls-2" d="M1920,2237.056q-7.987-1.734-16.7-3.409c-65.941-12.612-156.5-2.1-211.009,21.018s-166.174,28.388-166.174,28.388,64.185,7.345,130.126,4.543,122.207-35.731,214.527-31.947c18.468.758,34.827,1.481,49.233,2.154Z"/>
  </g>
</svg>
