<svg xmlns="http://www.w3.org/2000/svg" width="240.314" height="178.049" viewBox="0 0 240.314 178.049">
  <g id="Group_1319" data-name="Group 1319" transform="translate(-384.361 -1571.358)" opacity="0.4">
    <g id="Group_755" data-name="Group 755">
      <path id="Path_19074" data-name="Path 19074" d="M469.724,1572.908c1.533-.927,3.987.929,4.191-1.234l-2.455-.316c-3.275.623-7.256.723-9.5,2.479C464.407,1573.936,467.473,1573.936,469.724,1572.908Z" fill="#231815"/>
      <path id="Path_19075" data-name="Path 19075" d="M495.278,1573.837l-2.245-.415C492.93,1574.66,494.666,1574.143,495.278,1573.837Z" fill="#231815"/>
      <path id="Path_19076" data-name="Path 19076" d="M500.393,1575.074c-1.121-1.032-2.964-.414-4.4-.931C497.222,1574.455,498.964,1575.489,500.393,1575.074Z" fill="#231815"/>
      <path id="Path_19077" data-name="Path 19077" d="M501.926,1575.074l-.512.31h.718Z" fill="#231815"/>
      <path id="Path_19078" data-name="Path 19078" d="M507.243,1576.827c-1.229,0-1.941-1.443-3.376-.93A3.726,3.726,0,0,0,507.243,1576.827Z" fill="#231815"/>
      <path id="Path_19079" data-name="Path 19079" d="M480.357,1577.345l-1.226,1.028h.407C480.047,1578.893,480.664,1577.447,480.357,1577.345Z" fill="#231815"/>
      <path id="Path_19080" data-name="Path 19080" d="M474.936,1577.861v-.31h-1.225Z" fill="#231815"/>
      <path id="Path_19081" data-name="Path 19081" d="M484.444,1577.861c-.1-.31-.41-.31-.714-.31v.515C484.034,1578.066,484.345,1578.171,484.444,1577.861Z" fill="#231815"/>
      <path id="Path_19082" data-name="Path 19082" d="M463.179,1580.027h.407v-.2c.515-.516,1.129-1.344.515-1.961-1.123-.1-2.145,0-2.455,1.237h1.94Z" fill="#231815"/>
      <path id="Path_19083" data-name="Path 19083" d="M467.783,1578.583c.305-.1.815.2,1.019-.21.1-.2-.1-.41-.3-.512Z" fill="#231815"/>
      <path id="Path_19084" data-name="Path 19084" d="M489.657,1578.373c-.411-.307-1.53-.616-1.53.21C488.635,1579.2,489.35,1578.478,489.657,1578.373Z" fill="#231815"/>
      <path id="Path_19085" data-name="Path 19085" d="M465.122,1578.583h1.226v-.21C465.94,1578.478,465.325,1578.171,465.122,1578.583Z" fill="#231815"/>
      <path id="Path_19086" data-name="Path 19086" d="M494.97,1579.1c-.3-.62-1.426.208-1.426-.725-.821.725-1.633,0-2.455.21C492.112,1580.132,494.052,1578.583,494.97,1579.1Z" fill="#231815"/>
      <path id="Path_19087" data-name="Path 19087" d="M457.967,1580.853a.856.856,0,0,1,.31-.826c1.118.413-.411,1.033.407,1.551.511.1.711-.21,1.021-.518l-.717-.722c.207-.206.31-.624.717-.516.408-.209.919-.209.715-1.034-1.025.62-3.373.1-2.965,2.065Z" fill="#231815"/>
      <path id="Path_19088" data-name="Path 19088" d="M492.112,1745.712a2.537,2.537,0,0,0,1.223-.209l-.508-.515C492.93,1745.5,492.215,1745.3,492.112,1745.712Z" fill="#231815"/>
      <path id="Path_19089" data-name="Path 19089" d="M411.687,1719.952l-.36-.26A.818.818,0,0,0,411.687,1719.952Z" fill="#231815"/>
      <path id="Path_19090" data-name="Path 19090" d="M558.052,1685.051c.41-.21-.51-1.342.511-1.24,0-3.407,1.837-5.672,2.251-9.178.1-2.065.814-3.615.206-5.472l1.019-7.636h.205c-.205-1.132-.616-2.061,0-3.2-1.534-1.856.818-3.507-1.023-5.263-.1-2.679-.611-5.26-.407-8.148-1.025-1.447-.1-3.613-1.533-4.954,1.022-1.756-.819-3.093-.511-4.953h-.411c-1.128-3.916-3.683-7.839-5.213-11.86-2.454-2.685-4.4-7.119-6.645-8.461a31.741,31.741,0,0,0-6.543-7.432l.2-.2c-.715-.62-2.248-.42-2.248-1.756-1.122.2-1.536-1.134-2.454-1.753-3.68-1.45-6.443-5.164-10.223-6.606-2.965-3.4-7.363-1.442-10.122-4.742-2.554-.725-4.908-2.582-7.049-3.713-1.228-1.342-3.479-1.446-5.219-2.274-.1,1.755-2.349-.823-2.148,0,1.022.619,3.48,1.237,3.376,2.064l-2.658.21c-2.451-.625-1.837-3.2-2.965-3.923l-.715.927-.513-.512c-.508-1.24-.715-.519-1.944-.725-2.041-1.24-4.292-.826-5.621-2.679-.612.926-1.329-1.24-1.53.2-1.228.515-.921-.721-1.742-1.238v.517c-.3.721-1.426.308-1.941-.207a1.1,1.1,0,0,0,.515-1.24c-2.558.725-5.113-1.547-7.057.725-4.5-1.652-7.874-.1-12.065.2-2.044.411-4.8.1-5.925,1.753-4.3-.62-6.952,2.891-11.453,3.717-4.5,2.885-9.505,5.257-14.311,7.939-.306.413.3,1.756-.918,1.238-.411-.3-.411-.618-.513-1.028-1.123.923-3.374.723-4.2,2.472l-.511-.515.308-.206-.512-.515-.51.515c-.918-.1-2.658,1.446-3.17,2.474l-.511-.515c-.1-.2.1-.307.3-.513-1.736.206-1.533,2.066-3.473,1.547,2.452,1.651-1.226,3.4-1.943,3.919.2-1.236-.307-1.752.717-2.682l-.206.205c-.922-.512-1.429,1.136-2.248,1.241l-.51-.93-1.74,2.479-.409-.518-1.532,1.755a2.19,2.19,0,0,0,2.451-.516c.1-1.859,1.637-.619,2.455-1.034.611,2.892-3.579,1.962-2.965,4.434,1.74-.619,2.864-4.121,5.419-3.2-.614-1.754,2.248-2.475,2.963-3.4.411-2.579,3.68-2.063,4.908-3.506.816-.208,1.943-1.344,2.658-.208-.814.31-1.736,1.342-2.658.927-.307,1.034.816.105,1.023.515a67.357,67.357,0,0,1-10.122,10.117c-.408,1.03,0,2.992-1.734,2.78.508.62.508.932-.207,1.446-1.124.828-2.962,1.446-2.659,2.787,1.023.1.615-1.139,1.43-1.548.614,1.856,0,3.815-.511,5.466-1.325-.205-.407,2.477-1.736,1.443a2.534,2.534,0,0,1-.4,2.79c-1.027-.313,0-1.24-.31-1.24-2.455,2.27,1.532,3.612,1.229,5.47-.413,3.608-2.659,6.5-4.6,9.9l-.815-.823-1.229,1.234c-.407,2.787-2.15,5.883-2.865,8.463h-.306a2.706,2.706,0,0,0,.717,2.477c.718-2.785,1.433-6.4,3.476-8.668.307.515-.2,1.445.515,1.961,2.861,1.65,1.736-2.68,3.372-3.919a23.277,23.277,0,0,1-1.944,7.633c.922,4.646-3.679,8.149-1.736,12.9-.821,1.444-.407,4.85-1.943,5.672h.511c-.1-.205.1-.306.2-.516,1.229.516-.1,1.241.308,2.067,1.124,2.166.818,4.435,1.229,6.6-1.025,2.166,1.736,5.26,1.225,7.94.614,5.778,3.68,9.9,6.132,14.857,1.842,1.755,3.171,4.537,5.109,5.978,1.331,3.512,4.294,5.264,6.648,8.155,1.126-.1,2.148,1.031,1.737,1.957,1.74-.412,1.435,1.756,2.661,1.964l.308-.208c1.021,1.24,1.738,2.681,3.168,3.715l-1.228.724c-1.126,5.981,6.134,5.779,9.815,8.145l.2-.718c.718.206.615,1.342,1.225,1.547a29.976,29.976,0,0,0,11.351,3.714c1.637,1.446,3.68.1,5.62,1.237l-.711.41,1.43.516.2-.926c3.788,1.136,7.26-.209,11.557.209,0,.821,1.226.717,1.531.717v-.2a.84.84,0,0,1-.818-.314c.614-.306,1.842-.41,2.764-.717,1.327.717-.821,1.75.2,2.473-.2-1.338,1.536-1.338,2.251-1.957.206-.209-.1-1.038.717-.722.1.1.3.3.2.513l2.25.209v.515a.933.933,0,0,1,1.229-.724c.916.209,1.941.724,2.452-.513,4.6.408,8.074-3.514,12.472-4.229,1.022-.725,1.94.515,2.759-.725,0,.62,1.025,1.44,0,1.959,1.329,1.449,2.047-1.648,3.172-.2-.1,1.443-1.843,1.133-2.761,1.959-.1.411.3.723.51.923l.31-.2a1.369,1.369,0,0,1,1.631,1.029,2.959,2.959,0,0,1-2.656.926c-.714.724-2.761,1.445-2.453,2.788-1.433-.718-1.433,1.549-2.658.721-.615,1.546-1.637,1.344-2.969.929-1.226,0-1.43.928-1.943,1.756-1.938-1.139-3.166,1.032-4.9,1.032-.814,0-2.046.1-2.046-1.032-.818.209-1.226,3.2-2.351,1.753-.61,2.064-1.533-.721-2.756,0v.518c-1.74-.31-2.761,1.336-4.6,1.439.31-1.029-.512-1.234-1.531-1.439a1.373,1.373,0,0,1,.713,2.164c-1.738.829-.92-1.341-2.453-1.237-1.228.311-.205,1.237-1.228,1.55-1.122.307-3.065,1.439-3.887,0-.611-.209-1.323-.209-1.424.516-8.491-.313-17.18-2.993-25.358-5.47-1.433-.518-3.166-2.169-4.6-1.242l-.507-.513c-2.354-2.065-6.346-3.2-8.8-5.672-2.759.206-1.329-2.375-4.191-2.274-.1-2.369-3.474-2.68-4.7-4.951,1.228-1.44,2.761,2.271,3.168-.512-.407-1.759-1.94.512-2.655-1.24-.206-.62-.717-1.443-.513-1.958-.1-.725-.718.515-.718-.516a1.3,1.3,0,0,1-2.244-.724c-2.556-.515-2.556-5.881-6.133-4.436-.413.514-1.228,1.029-1.228,1.441.407,1.448.308-.512,1.023-.2.306,1.341,1.228,2.684,2.451,1.756l.206,2.167a.565.565,0,0,1-.378.03l.682.486.207-.209.511.516-.2.208c.919,3.407,3.675,1.443,5.618,3.92l-.307.31c-.3-.1-.715.2-.919-.31,0,2.062,2.762,1.233,3.373,2.786l-.2.719a1.506,1.506,0,0,0,2.655.515,5.424,5.424,0,0,0,2.765,2.686c1.12,3.609,5.313,3.4,7.564,6.5,1.533,2.682-1.125-.62-1.429,1.649l-1.229-.926-.511.514c-.718-.1-.611-.722-.718-1.032-1.636.414-3.066-2.889-4.4-1.753a11.769,11.769,0,0,0,6.135,4.025l.2-.311.717,1.034.715-1.239c1.126.309-.2.929.511,1.444,1.533,1.033,3.577,2.063,4.909,1.959a43.184,43.184,0,0,0,4.392,2.271c1.739-.622,3.375,1.335,4.7.206.51,2.061,3.169.616,4.2,1.752,2.351-.623,3.881.931,6.134.722l-.31.313c7.975.41,17.072,1.234,25.764.205l.511-.518c2.031,1.234,2.708-1.118,3.975-1.821a.814.814,0,0,1-.088-.343,7.221,7.221,0,0,1,5.21-1.24c.206-1.031,1.428-.718,1.739-1.547,1.429.21,2.863-1.341,4.091-.2l-2.15,1.234,2.965-1.031-.307-.725c1.228.107,1.842-2.059,3.168-.923,0,.516-.614.722-.918.923l.718.725c2.658-.828,3.577-1.959,6.131-2.887,0-.311.1-.625-.2-.828.711-.308.919.312,1.94,0,1.43-1.754,3.78-2.269,5.62-3.4,1.023-.721,1.433-3.092,2.967-2.269a158.489,158.489,0,0,0,20.342-17.537,32.231,32.231,0,0,1,5.932-6.911c-1.226-3.3,3.169-2.786,2.658-5.984a2.359,2.359,0,0,1,1.226.208c.92-3.2,2.965-5.369,3.889-8.671,1.734-.306,1.631-3.2,2.956-4.64C556.519,1688.97,556.112,1686.181,558.052,1685.051ZM413.8,1639.965c.4,1.546-1.536,1.961-1.229,3.507-.307-.721-.614-1.546.511-2.267-.1-2.271,1.636-4.025,1.74-5.884,1.63-2.682,2.451-5.566,4.188-8.249C417.689,1631.3,415.337,1635.948,413.8,1639.965Zm21.876,78v-.516c.2,1.544,1.837.206,1.941,1.753C436.907,1719.713,436.3,1718.476,435.681,1717.961Zm9.812-101.521-2.965,1.761c-.307-2.891,2.354-1.037,2.454-2.995h-.511c3.069-2.063,6.032-4.435,9.611-5.158C451.424,1612.318,447.54,1614.378,445.493,1616.44Zm87.306,85.427c-.1,2.065-2.25,2.476-2.451,4.022-1.125,1.136-1.74,2.269-2.968,2.89l-.508-.413-1.433,1.238c1.329-1.961-1.533-2.474-.508-4.233,1.737-1.132,3.58-1.543,4.395-3.717,1.838,0,1.533-1.849,3.473-1.957l.719-.82-.923-.727c1.02,0,.715-2.268,1.944-.719l.718-1.446.712.725.306-.31C535.153,1697.845,534.64,1700.526,532.8,1701.867Z" fill="#231815"/>
      <path id="Path_19091" data-name="Path 19091" d="M488.635,1746.744l.2-.307a1.361,1.361,0,0,0-1.135.134C487.9,1746.865,488.3,1746.147,488.635,1746.744Z" fill="#231815"/>
      <path id="Path_19092" data-name="Path 19092" d="M410.636,1719.2l.691.494C411.132,1719.465,410.946,1719.2,410.636,1719.2Z" fill="#231815"/>
      <path id="Path_19093" data-name="Path 19093" d="M498.45,1579.822c-.308-.724-1.43-.516-2.251-.724l.308.929C497.123,1580.027,497.942,1580.338,498.45,1579.822Z" fill="#231815"/>
      <path id="Path_19094" data-name="Path 19094" d="M489.657,1581.06c.721.308.921-.413.921-1.033-.921.207-2.347-.619-2.657,0C488.535,1580.132,489.454,1580.132,489.657,1581.06Z" fill="#231815"/>
      <path id="Path_19095" data-name="Path 19095" d="M499.578,1580.182a1.522,1.522,0,0,0,.225.046,1.8,1.8,0,0,1-.125-.2Z" fill="#231815"/>
      <path id="Path_19096" data-name="Path 19096" d="M499.8,1580.228a1.315,1.315,0,0,0,1.817.315C501.063,1580.123,500.417,1580.31,499.8,1580.228Z" fill="#231815"/>
      <path id="Path_19097" data-name="Path 19097" d="M499.472,1580.338l.106-.156a1.334,1.334,0,0,1-.614-.36Z" fill="#231815"/>
      <path id="Path_19098" data-name="Path 19098" d="M456.74,1580.338c-.618-.311-1.228,1.24-1.736,0a1.177,1.177,0,0,0-1.23,1.24A9.941,9.941,0,0,0,456.74,1580.338Z" fill="#231815"/>
      <path id="Path_19099" data-name="Path 19099" d="M491.6,1580.853c.31,1.135,1.636.823,2.451,1.24l.2-1.033C493.748,1580.954,491.911,1580.132,491.6,1580.853Z" fill="#231815"/>
      <path id="Path_19100" data-name="Path 19100" d="M494.97,1581.578c1.436.307,2.662,1.751,3.687.926-.515-1.651-2.558-.619-3.687-1.444Z" fill="#231815"/>
      <path id="Path_19101" data-name="Path 19101" d="M505.606,1581.578c-.206-.108-.3-.311-.51-.311l.51.826Z" fill="#231815"/>
      <path id="Path_19102" data-name="Path 19102" d="M506.836,1581.267l.2,1.237.511-.411.717.718.511-.515C508.264,1581.47,507.14,1581.885,506.836,1581.267Z" fill="#231815"/>
      <path id="Path_19103" data-name="Path 19103" d="M500.393,1582.3c-.614.932,1.128,2.271,1.227,2.477C501.007,1584.048,502.029,1582.191,500.393,1582.3Z" fill="#231815"/>
      <path id="Path_19104" data-name="Path 19104" d="M516.136,1583.017c-.614-.206-1.327-.513-1.941-.721C514.5,1582.71,515.522,1583.846,516.136,1583.017Z" fill="#231815"/>
      <path id="Path_19105" data-name="Path 19105" d="M502.644,1582.811h-.311v.722C502.644,1583.431,502.644,1583.122,502.644,1582.811Z" fill="#231815"/>
      <path id="Path_19106" data-name="Path 19106" d="M512.455,1583.533l-2.25-.722C510.512,1583.017,511.744,1584.362,512.455,1583.533Z" fill="#231815"/>
      <path id="Path_19107" data-name="Path 19107" d="M504.383,1583.533l.2,1.24c.307-.31.614-.516.511-1.031C504.892,1583.431,504.585,1583.533,504.383,1583.533Z" fill="#231815"/>
      <path id="Path_19108" data-name="Path 19108" d="M506.531,1584.982a.776.776,0,0,1,.3-.725l-1.023-.209C506.324,1584.257,505.606,1585.393,506.531,1584.982Z" fill="#231815"/>
      <path id="Path_19109" data-name="Path 19109" d="M514.4,1584.048c-.815,2.168,2.562.823,1.436,2.686l2.759,1.546c.1-.207.306-.309.2-.511-.922-.316-1.737-1.139-2.658-1.553l.715-1.234Z" fill="#231815"/>
      <path id="Path_19110" data-name="Path 19110" d="M441.3,1585.494l.2.313c1.737.409.207-.936,1.022-1.55-.815.516-2.042.614-2.455,1.55a1.858,1.858,0,0,0,1.025.409C441.1,1586.013,441,1585.7,441.3,1585.494Z" fill="#231815"/>
      <path id="Path_19111" data-name="Path 19111" d="M508.983,1585.494v-.2c-.311-.309-.919-.1-1.229-.518A.968.968,0,0,0,508.983,1585.494Z" fill="#231815"/>
      <path id="Path_19112" data-name="Path 19112" d="M518.283,1585.807c-.1-.209-.2-.414-.411-.313l.21,1.034C518.386,1586.319,518.283,1586.013,518.283,1585.807Z" fill="#231815"/>
      <path id="Path_19113" data-name="Path 19113" d="M519.509,1587.971c0,2.27,2.965,1.65,3.478,2.784,2.967,2.375,7.361,1.033,8.382,4.953v-.823c.816-.52,1.43,0,2.149-.212.3,1.86,1.325.83,1.94,2.48,1.332-.1,2.557.514,2.761-1.034l-4.191-2.89.511.414-.717.825c-.512-1.032-1.023-2.885-2.248-2.473-.1-2.268-2.454-.725-3.477-1.548a5.312,5.312,0,0,0-2.658-1.239c-2.144-.823-4.087-3.505-6.338-2.474A15.031,15.031,0,0,0,523.2,1589C522.17,1589.831,520.637,1588.693,519.509,1587.971Z" fill="#231815"/>
      <path id="Path_19114" data-name="Path 19114" d="M537.708,1593.952l-4.4-3.2,4.191,3.407Z" fill="#231815"/>
      <path id="Path_19115" data-name="Path 19115" d="M563.982,1593.643l-.51-.415.2.724Z" fill="#231815"/>
      <path id="Path_19116" data-name="Path 19116" d="M566.127,1645.949a1.138,1.138,0,0,0-.407,1.238.76.76,0,0,0,.715-.307l.92,1.031a14.3,14.3,0,0,0,0-2.992h-.407C566.435,1645.329,567.255,1646.672,566.127,1645.949Z" fill="#231815"/>
      <path id="Path_19117" data-name="Path 19117" d="M549.774,1609.534c-.511,3.609,3.68,3.609,3.68,6.906,1.836.213.715,3,2.658,3.2l-.208.826c2.659,2.27,3.681,5.78,5.621,8.667l.922-.515c.307.515.921,1.237.307,1.751-.407.106-.51-.41-.715-.514-1.535.932,1.226,1.549,0,2.685.308.1.715-.209.922.306-1.125,2.889,1.533,5.469,1.94,8.358.207,1.136.511,3.3,2.047,3.714.407-.721-1.023-1.961.2-2.686-1.841-1.237-.615-3.4-1.227-4.742-1.431-4.541-2.863-9.8-5.622-13.823-.308-3.3-3.476-5.78-4.4-8.977-1.02-.412-2.247-.93-1.735-2.475-2.863-1.034-2.76-5.26-5.624-5.677,0-1.547-2.248-3.3-3.68-4.229a17.711,17.711,0,0,0-6.135-5.157v.719h-.307v1.239C542.717,1602,545.89,1606.336,549.774,1609.534Z" fill="#231815"/>
      <path id="Path_19118" data-name="Path 19118" d="M400.3,1619.435l.516-.518c1.533-2.784,3.37-4.741,4.906-7.421,1.122-1.657,2.451-1.657,3.886-2.992,0-.931,1.124-1.245,1.735-2.168-1.326-.414.614-1.136,0-1.237l-.712.925.2.312c.1.3-.3.513-.407.724-.615-.1-.922-1.343-.816-1.448-1.635,1.857-2.968,4.85-5.628,6.188.41,3.51-3.577,3.1-4.6,5.678C398.364,1618.614,400.1,1618.712,400.3,1619.435Z" fill="#231815"/>
      <path id="Path_19119" data-name="Path 19119" d="M417.789,1609.741c-.2-.1-.307-.313-.511-.207l.2.721A.642.642,0,0,0,417.789,1609.741Z" fill="#231815"/>
      <path id="Path_19120" data-name="Path 19120" d="M415.027,1610.981c-.407.3-.714,1.235-1.222.515-.718,2.265-3.783,2.986-3.684,4.742h.515C410.836,1613.558,415.337,1614.378,415.027,1610.981Z" fill="#231815"/>
      <path id="Path_19121" data-name="Path 19121" d="M408.178,1615.206l-.714.724.6.334C407.691,1615.9,408.438,1615.3,408.178,1615.206Z" fill="#231815"/>
      <path id="Path_19122" data-name="Path 19122" d="M408.385,1616.44l-.324-.176A.64.64,0,0,0,408.385,1616.44Z" fill="#231815"/>
      <path id="Path_19123" data-name="Path 19123" d="M410.429,1618.917c1.226-.2,1.636-2.37,2.147-2.679C411.45,1616.959,410.225,1617.68,410.429,1618.917Z" fill="#231815"/>
      <path id="Path_19124" data-name="Path 19124" d="M407.668,1616.959l.51,1.035.515-.516C408.588,1617.268,408.178,1616.754,407.668,1616.959Z" fill="#231815"/>
      <path id="Path_19125" data-name="Path 19125" d="M407.668,1618.4c-.045-.024-.154.151-.287.393A1.029,1.029,0,0,0,407.668,1618.4Z" fill="#231815"/>
      <path id="Path_19126" data-name="Path 19126" d="M407.381,1618.8c-.411.356-.963.1-1.451.433C406.164,1621.209,406.941,1619.608,407.381,1618.8Z" fill="#231815"/>
      <path id="Path_19127" data-name="Path 19127" d="M398.875,1619.435l-.511.516h1.226Z" fill="#231815"/>
      <path id="Path_19128" data-name="Path 19128" d="M404.5,1623.355l.715-.718c-.922-.826.821-1.14.514-1.964l-.721.721c-.919-.307-.407-1.857-.508-1.959l-.513.206c-.816,1.341-.713,3.923-2.452,4.027.2,1.752-1.125,3.713-1.737,4.435,0,.31-.818,2.169.509,1.961.717-.309.1-1.756,1.228-1.445.408,1.445-.511,2.887-1.228,4.228,1.532-1.751,3.071-3.4,3.478-5.466l.715.207C403.376,1625.73,407.257,1624.7,404.5,1623.355Z" fill="#231815"/>
      <path id="Path_19129" data-name="Path 19129" d="M395.913,1625.832c.51-2.164,3.268-3.507,1.734-5.365-.713,1.236-.3,1.445-.713,2.888l-.31-.2c-.608.617-1.94.823-1.94,1.959l.2-.206Z" fill="#231815"/>
      <path id="Path_19130" data-name="Path 19130" d="M405.93,1623.871c.612-1.546,2.763-.516,2.966-2.168l-.718.725c-.407.1-.51-.311-.714-.516.2-.1.307-.62.714-.518v-.721h-.51C407.464,1622.117,405.113,1622.53,405.93,1623.871Z" fill="#231815"/>
      <path id="Path_19131" data-name="Path 19131" d="M411.146,1625.111c-2.147,1.549-1.639,2.89-3.478,4.438l-.2-.93c-1.534.93-1.022,3.093-2.251,4.432l-.207-.2c-1.122.725.107,2.376-.508,2.889,1.229,0,.2-.309,1.229-.923.1.306.408.2.715.2a.789.789,0,0,0-.208-1.237c1.434.107,1.637-2.269,2.459-3.405-.822-.41-.208-.821-.308-1.236l.815.206C409.918,1628,411.348,1626.35,411.146,1625.111Z" fill="#231815"/>
      <path id="Path_19132" data-name="Path 19132" d="M564.183,1626.35l.31-.725-.818-.515Z" fill="#231815"/>
      <path id="Path_19133" data-name="Path 19133" d="M393.662,1626.142l.667.173c.057-.173.107-.337.148-.483Z" fill="#231815"/>
      <path id="Path_19134" data-name="Path 19134" d="M394.329,1626.315c-.026.085-.053.179-.083.275.08-.078.152-.168.231-.24Z" fill="#231815"/>
      <path id="Path_19135" data-name="Path 19135" d="M390.292,1689.278c-1.029-3.921-2.151-7.634-2.251-11.863a22.345,22.345,0,0,1-.717-7.017h-.512a127.63,127.63,0,0,1,.719-22.7c1.124-.822.1-2.682.51-3.3.1-1.544,1.123-3.094,1.022-4.435,1.326-3.093,2.045-7.528,4.191-9.389a20.4,20.4,0,0,1,.992-3.986c-1.659,1.644-2.356,3.992-3.036,6.257-.41.415-1.125.928-.41,1.444-1.227.522-.919,2.477-1.227,3.2a25.748,25.748,0,0,0-2.042,3.505c0,3.309-1.844,5.264-1.229,8.664-1.333.62-.2,1.45-1.226,2.173.508,3.5-.207,8.354-.715,12.173,2.044,2.063.308,5.258,1.022,7.632l-1.022-1.65,1.022,4.953c1.226.822-.307,2.062.2,2.888-.408,3.2,2.354,5.157,1.025,7.943.715.721.611,1.854.922,2.79C388.552,1688.66,389.47,1690.206,390.292,1689.278Z" fill="#231815"/>
      <path id="Path_19136" data-name="Path 19136" d="M412.369,1626.66l-.714-.31c-1.534,1.548-1.019,3.61-.819,5.258C412.065,1630.476,411.45,1628.413,412.369,1626.66Z" fill="#231815"/>
      <path id="Path_19137" data-name="Path 19137" d="M398.571,1694.231c.51-.412.1-1.136.51-1.548l-.51.517c-2.354-.62.711-3.715-1.637-3.2l.408-2.676-.207.2c-.511-.2-1.327-.723-1.023-1.441,1.436-1.346-.711-2.892,0-4.746-.61-.107-2.244-.208-2.45-1.237.307-.415.815-.1,1.226-.209-.308-1.341-2.451-2.682-.713-3.71-1.738-1.964.4-4.336-.713-5.783,1.015-4.95-3.889-8.043-1.74-12.789a12.935,12.935,0,0,1,.507-6.193c-.4-2.783,1.639-4.434,1.74-7.016,1.225-1.341.508-4.017,1.944-5.675,1.635-2.678,1.529-5.979,3.883-7.937-2.554-2.068-2.248,1.544-3.172,2.987a45.916,45.916,0,0,0-3.37,6.706,1.243,1.243,0,0,1,1.223.515c-.1.515.207,1.135-.3,1.446l-.921-1.446c-1.228,2.063.921,6.086-1.74,8.153.208,3.712-2.451,6.292-1.021,9.9-1.838,1.342-.2,4.85-.719,6.7.311.724-1.119,1.034-.2,1.755-.1,3.613.92,8.458,1.43,11.553,0-.2-.1-.513.207-.719,1.326,2.886,1.43,6.292,2.759,8.979.307,1.647,1.737-.106,2.454.41,0,1.853.819,3.711.919,5.775C398.163,1693.2,398.364,1694.025,398.571,1694.231Z" fill="#231815"/>
      <path id="Path_19138" data-name="Path 19138" d="M407.668,1634.5v.513a3.4,3.4,0,0,0,1.74,1.24c.51-1.24-.409-1.858.205-3.2C408.385,1632.95,408.385,1635.012,407.668,1634.5Z" fill="#231815"/>
      <path id="Path_19139" data-name="Path 19139" d="M568.584,1633.051l.819,1.762v-.726C569.4,1633.572,569.3,1632.746,568.584,1633.051Z" fill="#231815"/>
      <path id="Path_19140" data-name="Path 19140" d="M397.852,1638.209c.919-1.441,2.252-3.4,1.944-4.637Z" fill="#231815"/>
      <path id="Path_19141" data-name="Path 19141" d="M406.442,1637.491h.511c.1-.516.918-1.341.2-1.755Z" fill="#231815"/>
      <path id="Path_19142" data-name="Path 19142" d="M569.81,1636.561h-.2l.2.721Z" fill="#231815"/>
      <path id="Path_19143" data-name="Path 19143" d="M570.321,1639.965c1.634.828-.2,2.376.715,3.507,1.225-1.341-.1-3.71-.715-4.949C570.117,1639.038,570.731,1639.242,570.321,1639.965Z" fill="#231815"/>
      <path id="Path_19144" data-name="Path 19144" d="M397.647,1639.038c-.3-.1-.512.409-.512.724h.512Z" fill="#231815"/>
      <path id="Path_19145" data-name="Path 19145" d="M403.985,1639.762c0,1.341-1.123,2.471-.713,3.71A7.465,7.465,0,0,0,403.985,1639.762Z" fill="#231815"/>
      <path id="Path_19146" data-name="Path 19146" d="M401.837,1641.511l-.815-.515a1.849,1.849,0,0,0,.815,1.755c.207-.929,1.435-2.065.921-2.786Z" fill="#231815"/>
      <path id="Path_19147" data-name="Path 19147" d="M401.022,1643.68c-1.126,1.96-.821,3.817-1.226,5.674C400.715,1647.7,400.715,1645.124,401.022,1643.68Z" fill="#231815"/>
      <path id="Path_19148" data-name="Path 19148" d="M572.06,1646.156c.1-.31-.306-.516-.514-.725l.308,1.034Z" fill="#231815"/>
      <path id="Path_19149" data-name="Path 19149" d="M408.178,1650.388v-2.272c.1.93-1.225,1.648-.51,2.478C407.871,1650.49,407.978,1650.28,408.178,1650.388Z" fill="#231815"/>
      <path id="Path_19150" data-name="Path 19150" d="M403.069,1650.9l.715-1.24-.512-1.234Z" fill="#231815"/>
      <path id="Path_19151" data-name="Path 19151" d="M566.64,1649.149v1.033c.512-.208.2-.724.308-1.033Z" fill="#231815"/>
      <path id="Path_19152" data-name="Path 19152" d="M399.59,1650.388c-.308.309-1.327.206-1.019,1.028,1.225.62-.207,1.445.3,2.48C398.771,1652.552,400.1,1651.52,399.59,1650.388Z" fill="#231815"/>
      <path id="Path_19153" data-name="Path 19153" d="M403.985,1652.656h.306a2.47,2.47,0,0,1,.207-1.24Z" fill="#231815"/>
      <path id="Path_19154" data-name="Path 19154" d="M556.558,1703.479a7.148,7.148,0,0,0-.63,1.139A3.421,3.421,0,0,0,556.558,1703.479Z" fill="#231815"/>
      <path id="Path_19155" data-name="Path 19155" d="M554.884,1707.13l.71-.828a4.139,4.139,0,0,1,.334-1.684C555.32,1705.437,554.573,1706.182,554.884,1707.13Z" fill="#231815"/>
      <path id="Path_19156" data-name="Path 19156" d="M565.205,1662.968c-.1.933-.919,2.17-.3,2.787l-1.225.206c1.943,1.031-.514,2.376.306,4.027-.92,1.96-.205,3.818-1.535,6.193,1.839,3.3-2.144,5.773.307,9.075-.1,1.029-1.636,2.784-1.022,3.714-1.532,4.23-3.58,9.489-5.113,13.925a1.859,1.859,0,0,1-.061.584c1.189-1.8,3-3.4,2.518-5.845a78.376,78.376,0,0,0,5.825-18.774c.777-1.371-.37-3.1.977-3.812-.5-.918.249-2.085.249-2.583.1-4.748,1.943-10.32,1.228-15.681a10.1,10.1,0,0,0,.308-5.16C563.879,1654.1,566.741,1659.258,565.205,1662.968Z" fill="#231815"/>
      <path id="Path_19157" data-name="Path 19157" d="M566.127,1674.941a2.037,2.037,0,0,0-.249.107c.022.033.024.066.047.1Z" fill="#231815"/>
      <path id="Path_19158" data-name="Path 19158" d="M405.213,1655.544a1.27,1.27,0,0,1,1.229.516l.511-2.993-1.432.829.206.2C405.727,1654.617,405.827,1655.239,405.213,1655.544Z" fill="#231815"/>
      <path id="Path_19159" data-name="Path 19159" d="M403.477,1655.851c.508,0,.2-1.852.306-1.955C403.68,1654.515,402.862,1655.239,403.477,1655.851Z" fill="#231815"/>
      <path id="Path_19160" data-name="Path 19160" d="M398.571,1654.305v1.239l.3-.209C398.771,1655.028,399.081,1654.305,398.571,1654.305Z" fill="#231815"/>
      <path id="Path_19161" data-name="Path 19161" d="M572.06,1657.3v-.726h-.206Z" fill="#231815"/>
      <path id="Path_19162" data-name="Path 19162" d="M403.477,1657.815l-.2-.515.2,1.235Z" fill="#231815"/>
      <rect id="Rectangle_159" data-name="Rectangle 159" width="0.201" height="1.959" transform="translate(398.163 1658.33)" fill="#231815"/>
      <path id="Path_19163" data-name="Path 19163" d="M405.521,1660.084l-.819-1.033C404.6,1659.568,404.806,1660.289,405.521,1660.084Z" fill="#231815"/>
      <path id="Path_19164" data-name="Path 19164" d="M405.006,1661.735v-.931h-.3Z" fill="#231815"/>
      <path id="Path_19165" data-name="Path 19165" d="M398.875,1676.588h.715c-.509-4.33-1.019-8.976-1.427-13.1-1.028,1.131-1.332,2.165-.311,3.5-1.635-.2-.918,1.24-.918,1.964l.713-1.239c.819,1.856-1.327,2.992.717,4.436C398.056,1673.6,398.771,1675.149,398.875,1676.588Z" fill="#231815"/>
      <path id="Path_19166" data-name="Path 19166" d="M400.337,1664.734a3.937,3.937,0,0,0-.233-1.245A1.362,1.362,0,0,0,400.337,1664.734Z" fill="#231815"/>
      <path id="Path_19167" data-name="Path 19167" d="M400.3,1670.709c.921,1.343,0,4.023,1.739,4.44.511-1.758-1.022-3-.511-4.956-.1-.515-1.022.311-.712-.722,1.223-.515-.413-1.859.508-2.787.2-1.011-.558-1.365-.992-1.95C400.451,1666.671,399.639,1669.028,400.3,1670.709Z" fill="#231815"/>
      <path id="Path_19168" data-name="Path 19168" d="M402.555,1665.035l.2.72v-.72Z" fill="#231815"/>
      <path id="Path_19169" data-name="Path 19169" d="M403.069,1671.948c.1-.31.714-.723.2-1.034h-.2Z" fill="#231815"/>
      <path id="Path_19170" data-name="Path 19170" d="M569.606,1672.67l.51-.516-.51-.929Z" fill="#231815"/>
      <path id="Path_19171" data-name="Path 19171" d="M403.985,1677.108c-.1-.52.206-1.243-.2-1.756C403.477,1675.865,403.272,1676.9,403.985,1677.108Z" fill="#231815"/>
      <path id="Path_19172" data-name="Path 19172" d="M403.985,1683.811c-.916-2.372-1.123-5.055-1.737-7.63C401.636,1678.55,402.758,1681.749,403.985,1683.811Z" fill="#231815"/>
      <path id="Path_19173" data-name="Path 19173" d="M407.464,1688.762l-.715-4.228c-1.84-1.961-1.228-4.538-2.764-6.705C404.191,1681.85,406.339,1685.665,407.464,1688.762Z" fill="#231815"/>
      <path id="Path_19174" data-name="Path 19174" d="M405.727,1700.936a2.452,2.452,0,0,1,2.966,1.444,52.475,52.475,0,0,0-3.482-6.629C405.053,1697.959,406.633,1698.693,405.727,1700.936Z" fill="#231815"/>
      <path id="Path_19175" data-name="Path 19175" d="M402.044,1686.285c-2.043-.62-1.022-3.3-1.739-4.435-.92-1.031,1.024-2.474-.715-2.99-.1.718-.409,1.443-1.226,1.443.717.927-.615,3.1,1.226,2.995-.612,1.439,2.351,2.883.206,4.226.509.826,1.025-.62,1.533.209a1.726,1.726,0,0,0,.2,2.062c1.885.4,2.138,4.375,3.547,5.751-.13-.2-.245-.4-.378-.591C404.7,1691.547,401.837,1689.9,402.044,1686.285Z" fill="#231815"/>
      <path id="Path_19176" data-name="Path 19176" d="M405.08,1695.546c.042.067.086.139.131.2,0-.028,0-.052,0-.075A1.834,1.834,0,0,1,405.08,1695.546Z" fill="#231815"/>
      <path id="Path_19177" data-name="Path 19177" d="M406.953,1680.1l.2,1.237C407.871,1680.922,407.056,1680.512,406.953,1680.1Z" fill="#231815"/>
      <path id="Path_19178" data-name="Path 19178" d="M391,1682.366h.718l-.512-1.029Z" fill="#231815"/>
      <path id="Path_19179" data-name="Path 19179" d="M567.152,1684.019c.715-.208.511-1.136.511-1.446C567.049,1682.678,567.152,1684.019,567.152,1684.019Z" fill="#231815"/>
      <path id="Path_19180" data-name="Path 19180" d="M407.668,1683.3l.51,1.543v-.514Z" fill="#231815"/>
      <path id="Path_19181" data-name="Path 19181" d="M407.156,1691.757a15.718,15.718,0,0,0-1.635-3.508c-1.023-.926.513-3.613-1.738-3.408.408,3.2,2.966,5.467,3.373,8.667,1.126,1.858,2.457,3.923,3.48,5.677-.1-1.136-1.844-2.269-1.023-3.715.715.412,1.223,1.135,2.042,1.446,0-1.24-1.019-2.272-1.737-2.993l-.718.516C408.178,1693.715,408.178,1692.272,407.156,1691.757Z" fill="#231815"/>
      <path id="Path_19182" data-name="Path 19182" d="M408.693,1685.563l.92.722v-.513C409.507,1685.357,409,1685.665,408.693,1685.563Z" fill="#231815"/>
      <path id="Path_19183" data-name="Path 19183" d="M409.613,1688.562c.816,1.746,1.941,4.121,3.273,4.946a14.142,14.142,0,0,0-4.193-7.223C409,1687.009,408.9,1688.144,409.613,1688.562Z" fill="#231815"/>
      <path id="Path_19184" data-name="Path 19184" d="M560.5,1686.493v1.547l.717-1.031C561.02,1686.9,560.914,1686.493,560.5,1686.493Z" fill="#231815"/>
      <path id="Path_19185" data-name="Path 19185" d="M392.743,1687.524c-.717.826.511,1.547.511,2.475l.715-.514C394.175,1688.451,393.254,1688.04,392.743,1687.524Z" fill="#231815"/>
      <path id="Path_19186" data-name="Path 19186" d="M395.706,1690.206c-.2-.825-.712-.515-1.229-.928.924,2.062,1.229,4.85,2.457,6.4a5.3,5.3,0,0,0-1.533-4.435C395.5,1690.931,395.194,1690.412,395.706,1690.206Z" fill="#231815"/>
      <path id="Path_19187" data-name="Path 19187" d="M409.2,1692.995v-1.237l-1.533-1.962Z" fill="#231815"/>
      <path id="Path_19188" data-name="Path 19188" d="M391,1694.955l.719-.209-.512-.515.816-1.031-1.734-.725c.61-.515-.207-1.031-.31-1.439C388.041,1692.889,391.514,1693.095,391,1694.955Z" fill="#231815"/>
      <path id="Path_19189" data-name="Path 19189" d="M393.462,1697.634l-1.025-2.164c-.82,0-1.329.725-1.434,1.749,1.329-.1.31,2.173,1.941,1.966l-.715,1.235c.514-.615,1.025.106,1.433.206a2.475,2.475,0,0,1-.408,1.754c.208.926.921.828,1.43.723a11.184,11.184,0,0,0,1.428,4.745l.311-.31,2.962,2.787c-1.428-2.682-3.065-7.019-5.21-9.179C394.477,1699.805,392.743,1698.981,393.462,1697.634Z" fill="#231815"/>
      <path id="Path_19190" data-name="Path 19190" d="M408.122,1710.652l.263-.327C408.158,1710.4,408.1,1710.519,408.122,1710.652Z" fill="#231815"/>
      <path id="Path_19191" data-name="Path 19191" d="M408.178,1714.555a.394.394,0,0,0,.718,0c-1.639,0-.718-2.066-1.74-2.478l-.2.212c0-.728-1.023-1.344-.511-1.964l1.943,1.964c.691-.551-.186-1.21-.263-1.637l-.144.188c-.414-1.958-2.251-.515-2.972-1.236.515-.93-.815-1.857.207-2.786-.207-1.032-1.228-.827-1.941-1.241l.511-.509-.714-.725c.307-.62-1.64-2.476.408-2.476.1-.516-.922-.721-.2-1.241a1.679,1.679,0,0,0-1.228,1.241c0-.827-1.022-1.032-.715-1.756-.508-1.442-1.636-.822-2.454-1.234,0-.208-.1-.516.206-.727l.3.309c1.33-1.647-1.533-1.136-2.043-2.264.714,3.4,2.554,5.26,3.987,8.662,1.025.1.919,1.548,1.429,2.273-.2.408-.817.1-1.225.2v.518a1.362,1.362,0,0,0,1.225.518.858.858,0,0,1,.311-.828c1.633,1.031,1.84,4.436,2.861,4.023l-.2.2c-.206.106-.307-.1-.514-.2.411,1.136,1.126,1.238,1.74,2.169l-.511.514,1.226,1.24c.1-.621-.715-1.034-.2-1.754Z" fill="#231815"/>
      <path id="Path_19192" data-name="Path 19192" d="M401.837,1699.392c.718-.825-.712-1.654-.815-2.173C400.3,1698.049,401.533,1698.669,401.837,1699.392Z" fill="#231815"/>
      <path id="Path_19193" data-name="Path 19193" d="M414.517,1697.944l.82,1.241v-.726C415.027,1698.258,414.928,1697.845,414.517,1697.944Z" fill="#231815"/>
      <path id="Path_19194" data-name="Path 19194" d="M416.561,1699.185l-.815.512c0,.619,1.532,1.034.815,1.654l1.228,1.029.408-.513C417.586,1701.04,417.689,1699.805,416.561,1699.185Z" fill="#231815"/>
      <rect id="Rectangle_160" data-name="Rectangle 160" width="0.304" height="0.724" transform="translate(397.342 1699.697)" fill="#231815"/>
      <path id="Path_19195" data-name="Path 19195" d="M413.8,1701.351c-.514-.516-1.229,0-1.74.3l.821.937c0-1.136,1.631-.62,1.631-1.445C414.108,1700.526,414.108,1701.146,413.8,1701.351Z" fill="#231815"/>
      <path id="Path_19196" data-name="Path 19196" d="M531.059,1701.654c.31,0,.515-.407.515-.718h-.515Z" fill="#231815"/>
      <path id="Path_19197" data-name="Path 19197" d="M528.912,1703.62c.208-.618.824-.314,1.229-.725C529.736,1702.38,528.711,1702.9,528.912,1703.62Z" fill="#231815"/>
      <path id="Path_19198" data-name="Path 19198" d="M399.081,1703.828h.509l-.509-.933Z" fill="#231815"/>
      <path id="Path_19199" data-name="Path 19199" d="M413.291,1703.416l1.536,2.473v-.821C413.6,1705.068,414.108,1703.416,413.291,1703.416Z" fill="#231815"/>
      <path id="Path_19200" data-name="Path 19200" d="M416.561,1704.65v-.822c-.3-.1-.409-.522-.815-.412Z" fill="#231815"/>
      <path id="Path_19201" data-name="Path 19201" d="M412.369,1707.13l-1.733-2.062C410.429,1706.1,411.554,1706.918,412.369,1707.13Z" fill="#231815"/>
      <path id="Path_19202" data-name="Path 19202" d="M416.257,1705.577c.614.932,1.432,1.241,1.532,2.477-.2-1.342,1.022-.1.919-1.236C418.2,1705.786,417.071,1705.991,416.257,1705.577Z" fill="#231815"/>
      <path id="Path_19203" data-name="Path 19203" d="M420.651,1706.1l.8.809C421.25,1706.507,421.224,1706.025,420.651,1706.1Z" fill="#231815"/>
      <path id="Path_19204" data-name="Path 19204" d="M421.876,1707.33l-.421-.424A.81.81,0,0,0,421.876,1707.33Z" fill="#231815"/>
      <path id="Path_19205" data-name="Path 19205" d="M407.668,1708.054c-.715-.411-.612-1.136-.919-1.752-1.636.928.919,1.445.407,2.267Z" fill="#231815"/>
      <path id="Path_19206" data-name="Path 19206" d="M419.729,1707.848c-.614.518.311,1.237.718,1.446C420.651,1708.674,420.14,1708.263,419.729,1707.848Z" fill="#231815"/>
      <path id="Path_19207" data-name="Path 19207" d="M423.92,1709.809c1.434.516,1.637,1.957,3.172,2.68C427.3,1710.736,424.945,1710.013,423.92,1709.809Z" fill="#231815"/>
      <path id="Path_19208" data-name="Path 19208" d="M415.027,1712.077c0,1.547,1.534.722,1.947.927-.413-1.65-1.331-2.059-2.661-3.2C414.517,1710.527,415.746,1711.153,415.027,1712.077Z" fill="#231815"/>
      <path id="Path_19209" data-name="Path 19209" d="M420.447,1712.8c.815-.825-.511-1.959-.511-2.99C419.115,1710.945,420.547,1711.663,420.447,1712.8Z" fill="#231815"/>
      <rect id="Rectangle_161" data-name="Rectangle 161" width="0.204" height="1.036" transform="translate(552.942 1710.013)" fill="#231815"/>
      <path id="Path_19210" data-name="Path 19210" d="M409.408,1721.671c-.923-.205-1.43-1.958-2.966-2.473-.1-1.961-2.355-1.753-2.457-3.714-1.737-.414-1.631-2.066-2.656-3.2-.508-.212-.921.305-1.024.51,1.228.931.614,4.233,2.453,3.922l1.025,1.034c1.533-.828,1.223,1.547,1.944,2.167,1.837-.1.408,2.474,2.251,2.266l-.31.208,1.532,1.752C410.737,1723.222,408.693,1723.222,409.408,1721.671Zm-6.65-5.672-.51-.723h.51Z" fill="#231815"/>
      <path id="Path_19211" data-name="Path 19211" d="M423.41,1716c.206.1.3-.1.51-.208.107-.515-.3-.721-.51-1.029.206-.622.51-1.86,1.229-1.445-.411-.62-1.023-.723-1.537-1.028C421.469,1713.83,423.31,1714.14,423.41,1716Z" fill="#231815"/>
      <path id="Path_19212" data-name="Path 19212" d="M417.99,1714.244c1.539.93.1,2.373,1.231,3.2,0-.208-.106-.518.2-.724,1.122,1.034,3.985,1.651,2.962,4.024h1.74c1.022-2.682-2.451-1.756-3.169-4.23C419.322,1716.515,419.322,1714.45,417.99,1714.244Z" fill="#231815"/>
      <path id="Path_19213" data-name="Path 19213" d="M430.054,1714.762c-.51.722.82.617,1.23,1.029C431.387,1715.07,430.365,1715.07,430.054,1714.762Z" fill="#231815"/>
      <path id="Path_19214" data-name="Path 19214" d="M426.785,1715.791h.512v-.515c-.1-.1-.31-.307-.512-.307Z" fill="#231815"/>
      <path id="Path_19215" data-name="Path 19215" d="M426.379,1716.721l-.312,1.034h.512C426.478,1717.445,426.785,1716.721,426.379,1716.721Z" fill="#231815"/>
      <path id="Path_19216" data-name="Path 19216" d="M429.036,1718.266c1.329,1.343,3.066.312,4.395.932-.1-2.063-2.251-.1-3.169-1.753l-.512,1.031Z" fill="#231815"/>
      <path id="Path_19217" data-name="Path 19217" d="M425.354,1720.745v.415h.713C425.867,1721.051,425.763,1720.644,425.354,1720.745Z" fill="#231815"/>
      <path id="Path_19218" data-name="Path 19218" d="M427.6,1722.708v-.312c-.408-.208-.614-.725-1.022-.725A.787.787,0,0,0,427.6,1722.708Z" fill="#231815"/>
      <path id="Path_19219" data-name="Path 19219" d="M430.262,1721.985h1.022A.577.577,0,0,0,430.262,1721.985Z" fill="#231815"/>
      <path id="Path_19220" data-name="Path 19220" d="M430.465,1724.873c-.1-1.342-1.635-1.237-2.454-1.962Z" fill="#231815"/>
      <path id="Path_19221" data-name="Path 19221" d="M414.827,1727.659c-1.941.2-.1-2.166-1.74-2.476l-.511.515c-.717-.415-1.636-.31-2.147-1.24l-.308.725c.515.616,1.227,2.163,2.248,1.236.207.825,1.534.725.718,1.756,1.33-.1,1.122,1.959,2.659,1.234C415.027,1728.893,415.131,1728.279,414.827,1727.659Z" fill="#231815"/>
      <path id="Path_19222" data-name="Path 19222" d="M421.676,1724.873l.711,1.028c1.229,0,2.352,2.894,3.17.721l-.408-.516C423.1,1727.659,423.513,1724.563,421.676,1724.873Z" fill="#231815"/>
      <path id="Path_19223" data-name="Path 19223" d="M432.717,1725.9c-.411-.408-.818-1.028-1.433-.718l.2,1.439Z" fill="#231815"/>
      <rect id="Rectangle_162" data-name="Rectangle 162" width="0.207" height="1.031" transform="translate(438.644 1725.388)" fill="#231815"/>
      <path id="Path_19224" data-name="Path 19224" d="M433.942,1726.622l-.712-.2.712.516Z" fill="#231815"/>
      <path id="Path_19225" data-name="Path 19225" d="M441.813,1727.346l-.511-.41.2.724Z" fill="#231815"/>
      <path id="Path_19226" data-name="Path 19226" d="M539.648,1727.659l-.715,2.168,1.025-1.968.409.519v-.519C540.16,1727.859,539.856,1727.965,539.648,1727.659Z" fill="#231815"/>
      <path id="Path_19227" data-name="Path 19227" d="M439.562,1731.886l1.536-1.237c-1.226-1.031-2.66-1.133-3.987-1.756Z" fill="#231815"/>
      <path id="Path_19228" data-name="Path 19228" d="M419.015,1731.579c.455.151,1.3-.313,1.911-.152a9.973,9.973,0,0,0-3.648-1.809v.209c-.3.514-.717,0-1.021-.209l-.207.723a37.748,37.748,0,0,0,6.134,4.744C422.49,1732.916,419.322,1733.844,419.015,1731.579Z" fill="#231815"/>
      <path id="Path_19229" data-name="Path 19229" d="M420.926,1731.427c.18.154.371.289.543.459A.813.813,0,0,0,420.926,1731.427Z" fill="#231815"/>
      <path id="Path_19230" data-name="Path 19230" d="M430.465,1731.579v-.522c-.814-.923-1.429-.2-2.146-1.439C428.522,1730.443,429.75,1730.959,430.465,1731.579Z" fill="#231815"/>
      <path id="Path_19231" data-name="Path 19231" d="M447.64,1730.857l.3-1.239h-.3C447.74,1730.029,447.54,1730.754,447.64,1730.857Z" fill="#231815"/>
      <path id="Path_19232" data-name="Path 19232" d="M450.6,1731.057c.206-1.136-.715-.3-1.223-.2C449.684,1731.373,450.2,1731.057,450.6,1731.057Z" fill="#231815"/>
      <path id="Path_19233" data-name="Path 19233" d="M497.735,1730.649c-.612.408,0,1.132.512,1.237Z" fill="#231815"/>
      <rect id="Rectangle_163" data-name="Rectangle 163" width="0.207" height="0.83" transform="translate(501.926 1731.057)" fill="#231815"/>
      <path id="Path_19234" data-name="Path 19234" d="M433.942,1733.536l-.511-1.957C433.534,1732.714,432.513,1733.022,433.942,1733.536Z" fill="#231815"/>
      <path id="Path_19235" data-name="Path 19235" d="M451.631,1731.579c.15.254.434.254.715.254Z" fill="#231815"/>
      <path id="Path_19236" data-name="Path 19236" d="M452.346,1731.833l.715.262C452.907,1731.833,452.623,1731.833,452.346,1731.833Z" fill="#231815"/>
      <path id="Path_19237" data-name="Path 19237" d="M501.11,1732.095l-.92-.209v.41C500.5,1732.3,501.215,1732.61,501.11,1732.095Z" fill="#231815"/>
      <path id="Path_19238" data-name="Path 19238" d="M444.471,1733.844l1.534.208-.512-.723.918-.517c-.61,0-1.121-.516-1.633-.717C445.086,1732.714,444.367,1733.229,444.471,1733.844Z" fill="#231815"/>
      <path id="Path_19239" data-name="Path 19239" d="M459.2,1733.124h-.665A.723.723,0,0,0,459.2,1733.124Z" fill="#231815"/>
      <path id="Path_19240" data-name="Path 19240" d="M457.455,1733.124h1.075a1.148,1.148,0,0,1-.563-1.029Z" fill="#231815"/>
      <path id="Path_19241" data-name="Path 19241" d="M493.033,1732.61a6.6,6.6,0,0,0-2.965,1.442C491.4,1733.229,493.033,1734.98,493.033,1732.61Z" fill="#231815"/>
      <path id="Path_19242" data-name="Path 19242" d="M448.151,1733.536c1.841-.207,2.558,2.681,3.988,2.482-.2-1.241,1.329-.625,1.943-1.241l-.308-.209C451.831,1735.393,449.992,1733.229,448.151,1733.536Z" fill="#231815"/>
      <path id="Path_19243" data-name="Path 19243" d="M486.181,1734.36c-.918,2.581-4.3,0-5.62,2.169l1.228.516-.511,1.237c1.223,1.647,1.633-1.032,2.756-.724-.712-.617-1.329.929-2.044.207.1-.308-.2-.824.311-.928,1.123-.516,2.658-1.342,3.679-.516l1.43-1.544C487,1734.672,486.691,1734.154,486.181,1734.36Z" fill="#231815"/>
      <path id="Path_19244" data-name="Path 19244" d="M487.921,1735.6l1.736-1.032-.307-.208C488.84,1735.495,487.513,1733.844,487.921,1735.6Z" fill="#231815"/>
      <path id="Path_19245" data-name="Path 19245" d="M492.315,1736.321l1.433-1.753C493.033,1734.672,491.8,1735.188,492.315,1736.321Z" fill="#231815"/>
      <path id="Path_19246" data-name="Path 19246" d="M449.684,1734.777h-.818l.818.308Z" fill="#231815"/>
      <path id="Path_19247" data-name="Path 19247" d="M454.8,1734.777c-.815,1.031,1.325.823.715,2.06,1.128.312,2.964,1.755,3.683.208C459.5,1734.052,456.64,1736.018,454.8,1734.777Z" fill="#231815"/>
      <path id="Path_19248" data-name="Path 19248" d="M531.778,1735.085h-.2v1.444C531.674,1736.018,532.495,1735.6,531.778,1735.085Z" fill="#231815"/>
      <path id="Path_19249" data-name="Path 19249" d="M423.41,1735.292v1.237h.925v-.511C424.027,1735.808,424.027,1734.98,423.41,1735.292Z" fill="#231815"/>
      <path id="Path_19250" data-name="Path 19250" d="M490.068,1738.8l.31-.313c.1-.309-.31-.41-.517-.722l.717-.72c1.737.513.1-1.027.719-1.753l-1.64.726C490.169,1736.631,488.535,1738.386,490.068,1738.8Z" fill="#231815"/>
      <path id="Path_19251" data-name="Path 19251" d="M439.052,1736.321h1.021v-.3C439.872,1735.7,438.954,1735.7,439.052,1736.321Z" fill="#231815"/>
      <path id="Path_19252" data-name="Path 19252" d="M461.442,1736.837c.411-.1.922.208,1.225-.308C462.364,1735.6,460.928,1736.217,461.442,1736.837Z" fill="#231815"/>
      <path id="Path_19253" data-name="Path 19253" d="M475.651,1736.529c-1.533-.312-2.453,0-4.191.308C473.6,1737.665,473.5,1736.529,475.651,1736.529Z" fill="#231815"/>
      <path id="Path_19254" data-name="Path 19254" d="M477.391,1736.321c-1.022,0-1.229,1.136-1.229,1.961-.1.825,1.33.205,1.944,0,.1-.517-.508-.31-.715-.724l.715-1.237Z" fill="#231815"/>
      <path id="Path_19255" data-name="Path 19255" d="M470.54,1736.837l-2.452-.308C468.395,1738.178,469.416,1736.631,470.54,1736.837Z" fill="#231815"/>
      <path id="Path_19256" data-name="Path 19256" d="M485.263,1737.765h1.122v-.72C485.98,1736.321,485.056,1737.149,485.263,1737.765Z" fill="#231815"/>
      <path id="Path_19257" data-name="Path 19257" d="M442.528,1737.558h1.432c-.307-.409-.821-.206-1.228-.513Z" fill="#231815"/>
      <path id="Path_19258" data-name="Path 19258" d="M453.571,1740.759c-.611-2.387-2.584-1.273-4.312-1.238l.629.2C450.913,1739.929,452.753,1741.587,453.571,1740.759Z" fill="#231815"/>
      <path id="Path_19259" data-name="Path 19259" d="M449.259,1739.521l-1.619-.515A2.208,2.208,0,0,0,449.259,1739.521Z" fill="#231815"/>
      <path id="Path_19260" data-name="Path 19260" d="M525.646,1740.554v-.827l-.207-.412Z" fill="#231815"/>
      <path id="Path_19261" data-name="Path 19261" d="M481.99,1740.038c.1-.206-.1-.312-.2-.517l-.511.517Z" fill="#231815"/>
      <path id="Path_19262" data-name="Path 19262" d="M457.252,1741.277c-.105.716.92.618,1.224.205C458.277,1741.068,457.661,1741.379,457.252,1741.277Z" fill="#231815"/>
      <path id="Path_19263" data-name="Path 19263" d="M460.727,1741.277l-.307.716c.411-.1.612.316,1.022.211C461.749,1741.587,460.928,1741.587,460.727,1741.277Z" fill="#231815"/>
      <path id="Path_19264" data-name="Path 19264" d="M462.364,1742.515l.815-.311c-.614-.411-.614-.722-1.223-.927Z" fill="#231815"/>
      <path id="Path_19265" data-name="Path 19265" d="M469.006,1742.716a1.648,1.648,0,0,0-.718-1.439l.21.927-1.944.512Z" fill="#231815"/>
      <rect id="Rectangle_164" data-name="Rectangle 164" width="0.203" height="0.718" transform="translate(500.19 1743.754)" fill="#231815"/>
    </g>
    <g id="Group_807" data-name="Group 807">
      <g id="Group_756" data-name="Group 756">
        <path id="Path_19266" data-name="Path 19266" d="M596.865,1728.043c-.162,0-.153.325,0,0Z" fill="#231815"/>
        <path id="Path_19267" data-name="Path 19267" d="M614.627,1718.289l.04-1.759c-.026-.414-.8-4.064-1.173-3-.158-1.673-4.479-5.038-6.009-5.118-.182-.1-.056-1.441-1.389-.955-.7-.676-2.658-.128-2.2.107-1.565-1.065-2.148-.357-4.019-.131-.685-.24-3.4.865-4.24.188-1.566,1.55-2.648-.086-4.167,1.317-.978.658-2.312.35-1.975,1.754.723.175-1.315,2.852-.328,3.512l-.659,1.973c-.351.27.761.4.843.588.006-.045-.29,1.319-.162,1.129.223.94-.309.976-.352,1.574-.786.408-.582.478-.147,1.78-.039,1.07,1.263,1.713,1.508,2.353-.024-.035.856-.052.819-.068-.419,1.175-.437.638.733,1.1.046.227-.124,1.976,1,2.033a14.1,14.1,0,0,0,2.619-.416,1.009,1.009,0,0,0-.119.474,4.94,4.94,0,0,0,.982-.774c.34.863-.083.006.53.739a3.786,3.786,0,0,0,.2,1.113c-.038.1-.067.177-.094.237.061,0,.143.037.251.174a5.675,5.675,0,0,1,1.846.572c-.005-.029-.667.83-.66.816.1-.03.157,0,.17.079.089-.061,1.005-.733,1.143-.421.088.163-.725.255-.648.63a13.255,13.255,0,0,0,5.273.013c1.109-.061,2.685-2.65,3.682-2.306.542.413,1.182.282,1.81.463-.009-.242-.286-.453-.293-.715a.8.8,0,0,0,.945-.649.682.682,0,0,0,.684.625c-.031-.088,0-.136.1-.144-.023-.194-.471-1.263-.293-1.335-.044,0,.852-.029.818-.03.028-.279-.561-.495-.464-.724.372-.542,2.055.774.582-.923,2.792-.1,1.015-.606,1.571-1.574C615.171,1721.661,616.47,1719.344,614.627,1718.289Z" fill="#231815"/>
      </g>
      <g id="Group_757" data-name="Group 757">
        <path id="Path_19268" data-name="Path 19268" d="M589.017,1713.113c-.178.128-.346.245,0,0" fill="#231815"/>
      </g>
      <g id="Group_758" data-name="Group 758">
        <path id="Path_19269" data-name="Path 19269" d="M595.143,1725.839c.01.121-.026.153-.141.178C594.826,1725.978,594.96,1725.736,595.143,1725.839Z" fill="#231815"/>
      </g>
      <g id="Group_759" data-name="Group 759">
        <path id="Path_19270" data-name="Path 19270" d="M596.921,1727.328c.574.162.256.11,0,0" fill="#231815"/>
      </g>
      <g id="Group_760" data-name="Group 760">
        <path id="Path_19271" data-name="Path 19271" d="M597.906,1727.963h0" fill="#231815"/>
      </g>
      <g id="Group_761" data-name="Group 761">
        <path id="Path_19272" data-name="Path 19272" d="M602.952,1708.252c.394.912-.071,0,0,0" fill="#231815"/>
      </g>
      <g id="Group_762" data-name="Group 762">
        <path id="Path_19273" data-name="Path 19273" d="M602.954,1707.592c.87.006-.077.148,0,0" fill="#231815"/>
      </g>
      <g id="Group_763" data-name="Group 763">
        <path id="Path_19274" data-name="Path 19274" d="M605.092,1707.7c.976.082.23.041,0,0" fill="#231815"/>
      </g>
      <g id="Group_764" data-name="Group 764">
        <path id="Path_19275" data-name="Path 19275" d="M604.11,1728.729c-.2.146-.2.147,0,0" fill="#231815"/>
      </g>
      <g id="Group_765" data-name="Group 765">
        <path id="Path_19276" data-name="Path 19276" d="M604.14,1729.534c.026.137-.4.211,0,0" fill="#231815"/>
      </g>
      <g id="Group_766" data-name="Group 766">
        <path id="Path_19277" data-name="Path 19277" d="M607.874,1709.608c-.291.311-.159-.04,0,0" fill="#231815"/>
      </g>
      <g id="Group_767" data-name="Group 767">
        <path id="Path_19278" data-name="Path 19278" d="M609.935,1710.741c.041.144-.569.359,0,0" fill="#231815"/>
      </g>
      <g id="Group_768" data-name="Group 768">
        <path id="Path_19279" data-name="Path 19279" d="M576.455,1704.1a13.929,13.929,0,0,1,1.337.509c-.433-.206-1.09,1.074-1.337-.509" fill="#231815"/>
      </g>
      <g id="Group_769" data-name="Group 769">
        <path id="Path_19280" data-name="Path 19280" d="M581.044,1699.194c.473-.055.335.53.139.519-.445.006-.37-.517-.139-.519" fill="#231815"/>
      </g>
      <g id="Group_770" data-name="Group 770">
        <path id="Path_19281" data-name="Path 19281" d="M579.307,1726.711c.089.05.356-.684.924-.39-.063.529-.778,1.378-.924.39" fill="#231815"/>
      </g>
      <path id="Path_19282" data-name="Path 19282" d="M586.209,1702.8c0-.256-2.061-2.091-2.528-1.184-.547-.01-4.272,1.624-2.52,3.817-.055.568,1.012,2.711,1.577,1.928,2.131,1.164,1.815-.281,3.614-.18.373-.937.386-2.2.728-3.012" fill="#231815"/>
      <g id="Group_771" data-name="Group 771">
        <path id="Path_19283" data-name="Path 19283" d="M581.2,1710.29a3.9,3.9,0,0,1,1.914.833c.1.692-3.271-.536-1.914-.833" fill="#231815"/>
      </g>
      <g id="Group_772" data-name="Group 772">
        <path id="Path_19284" data-name="Path 19284" d="M581.456,1712.137c.205-.04,1,.07.956.452-.859.441-1,.15-.956-.452" fill="#231815"/>
      </g>
      <g id="Group_773" data-name="Group 773">
        <path id="Path_19285" data-name="Path 19285" d="M583.018,1690.776a1.314,1.314,0,0,1,.808,1.29c-.17-.025-1.356-1.255-.808-1.29" fill="#231815"/>
      </g>
      <g id="Group_774" data-name="Group 774">
        <path id="Path_19286" data-name="Path 19286" d="M581.257,1729.385c.118.056.394-.736.812-.547-.187,1.009-.626.5-.812.547" fill="#231815"/>
      </g>
      <g id="Group_775" data-name="Group 775">
        <path id="Path_19287" data-name="Path 19287" d="M582.781,1709.2a1.6,1.6,0,0,1,.847.153c.09.564-.954.133-.847-.153" fill="#231815"/>
      </g>
      <g id="Group_776" data-name="Group 776">
        <path id="Path_19288" data-name="Path 19288" d="M584.6,1711.27a4.736,4.736,0,0,1,1.062.719c-.241.042-2.624-.182-2.34-.784.423.025.852.043,1.278.065" fill="#231815"/>
      </g>
      <g id="Group_777" data-name="Group 777">
        <path id="Path_19289" data-name="Path 19289" d="M583.409,1725.086c.169-.011,1.108,0,.314.385-1.171.078-.512,0-.314-.385" fill="#231815"/>
      </g>
      <g id="Group_778" data-name="Group 778">
        <path id="Path_19290" data-name="Path 19290" d="M587.271,1694.888c.055.171,1.054.216.205.742-.587.071-.373-.561-.205-.742" fill="#231815"/>
      </g>
      <g id="Group_779" data-name="Group 779">
        <path id="Path_19291" data-name="Path 19291" d="M586.947,1716.9c-.068-.033.583-.415.759-.4.031.047-.061.853-.236.87-.283-.083-.657,0-.523-.467" fill="#231815"/>
      </g>
      <g id="Group_780" data-name="Group 780">
        <path id="Path_19292" data-name="Path 19292" d="M587.209,1723.521c.017-.007,1.837-.184,1.64-.208,1.02,1.487-2.988.344-1.64.208" fill="#231815"/>
      </g>
      <g id="Group_781" data-name="Group 781">
        <path id="Path_19293" data-name="Path 19293" d="M588.474,1705.084c-.352-.169,2.079-.829,2.707-.671,1.121.769,1.1,2.112.069,2.612.061.359-4.1.669-2.776-1.941" fill="#231815"/>
      </g>
      <g id="Group_782" data-name="Group 782">
        <path id="Path_19294" data-name="Path 19294" d="M589.845,1700.233c.373.265,1.927,1.653,1.727,2.292-.883-.409-2.134-1.45-1.727-2.292" fill="#231815"/>
      </g>
      <g id="Group_783" data-name="Group 783">
        <path id="Path_19295" data-name="Path 19295" d="M590.276,1727.351a1.52,1.52,0,0,1,.894.085c.348.935-1.9-.072-.894-.085" fill="#231815"/>
      </g>
      <g id="Group_784" data-name="Group 784">
        <path id="Path_19296" data-name="Path 19296" d="M592.916,1704.1a.541.541,0,0,1,.463.721c-.1.009-.129.056-.1.141-.409.011-.766-.826-.367-.862" fill="#231815"/>
      </g>
      <g id="Group_785" data-name="Group 785">
        <path id="Path_19297" data-name="Path 19297" d="M594.316,1690.478c.716-.214,1.009.913.555,1.2-.487-.252-.4-.731-.555-1.2" fill="#231815"/>
      </g>
      <g id="Group_786" data-name="Group 786">
        <path id="Path_19298" data-name="Path 19298" d="M593.31,1728.681c.045.174.192.708-.1.807-.934,0,.166-.96.1-.807" fill="#231815"/>
      </g>
      <g id="Group_787" data-name="Group 787">
        <path id="Path_19299" data-name="Path 19299" d="M593.933,1728.347c-.2-.1.744-.319.8-.325,1.554,1.009-1.727.1-.8.325" fill="#231815"/>
      </g>
      <g id="Group_788" data-name="Group 788">
        <path id="Path_19300" data-name="Path 19300" d="M593.237,1744.172c.715-.061-.325-.695,1.007-.314.252-.292-.1-.818.706-.844.657,1.088-1.6,2.261-1.713,1.158" fill="#231815"/>
      </g>
      <g id="Group_789" data-name="Group 789">
        <path id="Path_19301" data-name="Path 19301" d="M593.848,1736.788a10.945,10.945,0,0,1,2.066-1.288c.164.368-1.44,3-2.066,1.288" fill="#231815"/>
      </g>
      <g id="Group_790" data-name="Group 790">
        <path id="Path_19302" data-name="Path 19302" d="M599.446,1705.721c.108.188.436.065.259.529-.462-.044-.55-.222-.259-.529" fill="#231815"/>
      </g>
      <g id="Group_791" data-name="Group 791">
        <path id="Path_19303" data-name="Path 19303" d="M599.545,1735.026c.409.069,1.161-1.222,1.173.1.018,1.352-.874.346-1.173-.1" fill="#231815"/>
      </g>
      <g id="Group_792" data-name="Group 792">
        <path id="Path_19304" data-name="Path 19304" d="M601.68,1730.364c.4-.086.309.572.084.592-.382.041-.411-.155-.084-.592" fill="#231815"/>
      </g>
      <g id="Group_793" data-name="Group 793">
        <path id="Path_19305" data-name="Path 19305" d="M600.76,1748.086c.326-.165.021-.579.535-.229-.1.776-.785.761-.535.229" fill="#231815"/>
      </g>
      <g id="Group_794" data-name="Group 794">
        <path id="Path_19306" data-name="Path 19306" d="M607.583,1703.422c.125-.1.169-.642.27-.79.506-.086-.256.79-.27.79" fill="#231815"/>
      </g>
      <g id="Group_795" data-name="Group 795">
        <path id="Path_19307" data-name="Path 19307" d="M610.416,1729.271c1.377-.1-.2.982,0,0" fill="#231815"/>
      </g>
      <g id="Group_796" data-name="Group 796">
        <path id="Path_19308" data-name="Path 19308" d="M611.912,1726.926c1.028-1.32,2.293,1.922,0,0" fill="#231815"/>
      </g>
      <g id="Group_797" data-name="Group 797">
        <path id="Path_19309" data-name="Path 19309" d="M613.336,1707.539c.028.012.877-.489.666.254.11.059-1.016.3-.666-.254" fill="#231815"/>
      </g>
      <g id="Group_798" data-name="Group 798">
        <path id="Path_19310" data-name="Path 19310" d="M615.811,1708.252c.378.147,3.216-.578.849.927-1.2.764-1.866.015-.849-.927" fill="#231815"/>
      </g>
      <g id="Group_799" data-name="Group 799">
        <path id="Path_19311" data-name="Path 19311" d="M615.145,1711.011c-.546-.26,2.566-.315.518.54-.231-.025-.664-.541-.518-.54" fill="#231815"/>
      </g>
      <g id="Group_800" data-name="Group 800">
        <path id="Path_19312" data-name="Path 19312" d="M618.337,1703.5c.042.042.7-.134.29.711-.321-.06-.945-.639-.29-.711" fill="#231815"/>
      </g>
      <g id="Group_801" data-name="Group 801">
        <path id="Path_19313" data-name="Path 19313" d="M616.848,1723.213c.061.017,1.136.674.423.684-.422-.125-.562-.349-.423-.684" fill="#231815"/>
      </g>
      <g id="Group_802" data-name="Group 802">
        <path id="Path_19314" data-name="Path 19314" d="M620.285,1701.434c.868.439.819.226,0,0" fill="#231815"/>
      </g>
      <g id="Group_803" data-name="Group 803">
        <path id="Path_19315" data-name="Path 19315" d="M620.08,1710.973c.385.117.606-.05.228.378-.45.083-.525-.044-.228-.378" fill="#231815"/>
      </g>
      <g id="Group_804" data-name="Group 804">
        <path id="Path_19316" data-name="Path 19316" d="M623.8,1731.576c1.26.593,1.072,1.117,0,0" fill="#231815"/>
      </g>
      <g id="Group_805" data-name="Group 805">
        <path id="Path_19317" data-name="Path 19317" d="M596.948,1727.585h0" fill="#231815"/>
      </g>
      <g id="Group_806" data-name="Group 806">
        <path id="Path_19318" data-name="Path 19318" d="M582.412,1712.589c1.234-.178.632.145,1.4.183-.258,1.03-1.065-.052-1.4-.183" fill="#231815"/>
      </g>
    </g>
  </g>
</svg>
