<svg xmlns="http://www.w3.org/2000/svg" width="171.109" height="129.451" viewBox="0 0 171.109 129.451">
  <g id="Group_1320" data-name="Group 1320" transform="translate(-253.226 -1124.798)" opacity="0.61">
    <g id="Group_809" data-name="Group 809">
      <path id="Path_19319" data-name="Path 19319" d="M361.28,1253.17c-1.117.636-2.841-.742-3.029.8l1.754.274c2.36-.384,5.217-.38,6.862-1.6A12.952,12.952,0,0,0,361.28,1253.17Z" fill="#231815"/>
      <path id="Path_19320" data-name="Path 19320" d="M342.976,1252.017l1.6.34C344.675,1251.472,343.421,1251.809,342.976,1252.017Z" fill="#231815"/>
      <path id="Path_19321" data-name="Path 19321" d="M339.332,1251.032c.785.761,2.118.354,3.136.751C341.594,1251.537,340.365,1250.762,339.332,1251.032Z" fill="#231815"/>
      <path id="Path_19322" data-name="Path 19322" d="M338.233,1251l.373-.213-.515-.014Z" fill="#231815"/>
      <path id="Path_19323" data-name="Path 19323" d="M334.455,1249.645c.881.023,1.364,1.071,2.4.731A2.665,2.665,0,0,0,334.455,1249.645Z" fill="#231815"/>
      <path id="Path_19324" data-name="Path 19324" d="M353.741,1249.786l.9-.713-.292-.008C353.993,1248.683,353.523,1249.708,353.741,1249.786Z" fill="#231815"/>
      <path id="Path_19325" data-name="Path 19325" d="M357.637,1249.52l-.006.222.879.023Z" fill="#231815"/>
      <path id="Path_19326" data-name="Path 19326" d="M350.821,1249.338c.065.224.288.23.506.236l.009-.369C351.118,1249.2,350.9,1249.118,350.821,1249.338Z" fill="#231815"/>
      <path id="Path_19327" data-name="Path 19327" d="M366.108,1248.191l-.292-.008,0,.147c-.378.361-.834.943-.406,1.4.8.1,1.538.041,1.783-.839l-1.39-.037Z" fill="#231815"/>
      <path id="Path_19328" data-name="Path 19328" d="M362.78,1249.139c-.221.069-.581-.163-.735.131-.076.143.063.3.209.372Z" fill="#231815"/>
      <path id="Path_19329" data-name="Path 19329" d="M347.093,1248.872c.288.227,1.085.471,1.1-.121C347.842,1248.3,347.315,1248.8,347.093,1248.872Z" fill="#231815"/>
      <path id="Path_19330" data-name="Path 19330" d="M364.688,1249.19l-.88-.024,0,.151C364.1,1249.249,364.534,1249.481,364.688,1249.19Z" fill="#231815"/>
      <path id="Path_19331" data-name="Path 19331" d="M343.3,1248.251c.207.45,1.027-.123,1.009.547.6-.5,1.171.031,1.764-.1C345.366,1247.564,343.946,1248.638,343.3,1248.251Z" fill="#231815"/>
      <path id="Path_19332" data-name="Path 19332" d="M369.861,1247.7a.616.616,0,0,1-.238.587c-.794-.317.314-.733-.262-1.12-.365-.08-.514.137-.743.352l.5.531c-.152.144-.234.442-.524.356-.3.143-.663.133-.532.728.747-.424,2.42-.01,2.165-1.424Z" fill="#231815"/>
      <path id="Path_19333" data-name="Path 19333" d="M348.527,1128.849a1.821,1.821,0,0,0-.881.126l.355.379C347.936,1128.982,348.445,1129.142,348.527,1128.849Z" fill="#231815"/>
      <path id="Path_19334" data-name="Path 19334" d="M405.7,1148.853l.253.193A.58.58,0,0,0,405.7,1148.853Z" fill="#231815"/>
      <path id="Path_19335" data-name="Path 19335" d="M300.093,1171.082c-.3.142.34.971-.391.879-.065,2.443-1.425,4.032-1.789,6.537-.111,1.479-.653,2.577-.252,3.919l-.876,5.456-.147,0c.125.816.4,1.489-.061,2.29,1.064,1.361-.653,2.5.633,3.793a50.472,50.472,0,0,1,.136,5.85c.707,1.057.006,2.592,1,3.581-.765,1.24.528,2.234.272,3.561l.295.008c.734,2.829,2.491,5.691,3.511,8.6,1.708,1.971,3.017,5.188,4.6,6.193a22.767,22.767,0,0,0,4.549,5.453l-.148.139c.5.458,1.6.344,1.578,1.3.808-.125,1.079.842,1.726,1.3,2.611,1.109,4.52,3.825,7.2,4.931,2.061,2.5,5.251,1.175,7.166,3.593,1.818.568,3.47,1.945,4.984,2.8.855.986,2.467,1.1,3.7,1.73.1-1.257,1.668.635,1.54.041-.721-.464-2.471-.953-2.381-1.545l1.91-.1c1.745.494,1.256,2.328,2.051,2.869l.53-.651.358.377c.341.9.5.386,1.38.557,1.44.928,3.061.674,3.979,2.028.456-.653.929.914,1.1-.116.89-.346.646.534,1.225.92l.01-.37c.232-.511,1.028-.194,1.388.185a.79.79,0,0,0-.393.88c1.848-.472,3.636,1.206,5.073-.386,3.194,1.27,5.644.225,8.654.083,1.474-.255,3.448.018,4.282-1.143,3.069.526,5.039-1.94,8.282-2.446,3.281-1.983,6.916-3.588,10.412-5.419.228-.29-.185-1.265.682-.87.289.226.283.451.349.747.822-.641,2.432-.455,3.054-1.693l.357.379-.225.142.357.379.376-.36c.656.092,1.933-.986,2.32-1.713l.356.379c.07.149-.076.218-.228.362,1.249-.114,1.139-1.452,2.52-1.043-1.726-1.23.944-2.417,1.468-2.772-.17.882.187,1.261-.566,1.909l.153-.143c.65.384,1.046-.787,1.635-.847l.348.677,1.295-1.745.283.38,1.132-1.23a1.573,1.573,0,0,0-1.768.323c-.109,1.332-1.185.414-1.779.7-.384-2.085,2.6-1.338,2.21-3.122-1.259.411-2.132,2.9-3.946,2.187.406,1.27-1.659,1.732-2.189,2.385-.344,1.841-2.678,1.408-3.586,2.42-.589.133-1.419.926-1.91.1.589-.207,1.27-.929,1.923-.614.24-.735-.582-.09-.723-.388a48.277,48.277,0,0,1,7.45-7.061c.312-.73.057-2.145,1.3-1.96-.352-.454-.346-.678.177-1.032.821-.573,2.151-.981,1.959-1.948-.731-.092-.463.8-1.055,1.082a6.475,6.475,0,0,1,.471-3.909c.946.172.339-1.768,1.272-1a1.818,1.818,0,0,1,.344-1.993c.73.244-.024.889.2.895,1.8-1.581-1.029-2.619-.776-3.945.365-2.579,2.03-4.607,3.49-7.01l.569.6.9-.861c.345-1.99,1.654-4.177,2.216-6.013l.22.006a1.94,1.94,0,0,0-.467-1.789c-.568,1.982-1.15,4.559-2.658,6.148-.21-.376.171-1.032-.331-1.416-2.021-1.238-1.3,1.888-2.493,2.746a16.7,16.7,0,0,1,1.539-5.436c-.572-3.349,2.794-5.772,1.491-9.213.617-1.019.385-3.469,1.5-4.029l-.367-.01c.071.149-.079.218-.155.366-.872-.393.1-.887-.181-1.488-.765-1.574-.5-3.195-.755-4.759.776-1.533-1.145-3.8-.727-5.715-.33-4.155-2.45-7.171-4.113-10.769-1.288-1.294-2.187-3.314-3.549-4.384-.888-2.543-2.978-3.856-4.611-5.974-.809.053-1.52-.78-1.208-1.436-1.256.262-.995-1.287-1.87-1.459l-.225.143a12.868,12.868,0,0,0-2.2-2.724l.9-.5c.921-4.266-4.288-4.26-6.882-6.026l-.159.51c-.511-.161-.415-.974-.849-1.132a21.477,21.477,0,0,0-8.067-2.879c-1.146-1.068-2.637-.146-4.006-.995l.518-.28-1.015-.4-.162.661c-2.694-.887-5.209.011-8.282-.371.016-.589-.865-.538-1.083-.543l0,.145a.6.6,0,0,1,.58.24c-.446.208-1.329.259-1.995.462-.938-.54.621-1.239-.1-1.777.118.963-1.127.93-1.651,1.36-.152.146.055.747-.528.5-.068-.075-.213-.223-.135-.372l-1.609-.192.01-.369a.669.669,0,0,1-.895.495c-.653-.167-1.378-.556-1.768.321-3.289-.381-5.856,2.365-9.023,2.794-.746.5-1.381-.406-1.992.467.012-.445-.707-1.052.038-1.4-.926-1.065-1.5,1.142-2.278.084.1-1.032,1.342-.776,2.017-1.351.082-.293-.2-.525-.348-.672l-.226.138a.982.982,0,0,1-1.15-.769,2.122,2.122,0,0,1,1.922-.614c.526-.505,2.007-.983,1.812-1.951,1.014.542,1.057-1.084,1.919-.466.471-1.1,1.2-.933,2.147-.61.879.023,1.042-.638,1.426-1.222,1.368.854,2.29-.679,3.536-.646.583.016,1.469-.034,1.447.778.59-.133.94-2.268,1.719-1.211.477-1.469,1.086.546,1.976.053l.01-.372c1.242.255,2.005-.905,3.329-.944-.243.732.343.894,1.069,1.061a.985.985,0,0,1-.469-1.565c1.261-.562.633.979,1.734.934.887-.2.172-.883.911-1.088.81-.2,2.225-.974,2.787.074.433.162.944.175,1.03-.343,6.082.387,12.261,2.474,18.077,4.406,1.017.4,2.229,1.616,3.273.978l.354.378c1.649,1.526,4.489,2.416,6.2,4.234,1.982-.094.908,1.729,2.962,1.711.027,1.7,2.439,1.987,3.277,3.639-.909,1.009-1.937-1.681-2.282.307.259,1.268,1.4-.33,1.88.94.136.448.487,1.048.331,1.413.061.522.525-.356.505.384a.929.929,0,0,1,1.6.562c1.822.418,1.72,4.265,4.312,3.3.306-.36.9-.714.908-1.01-.264-1.046-.23.362-.737.127-.194-.967-.829-1.947-1.724-1.3l-.106-1.558a.4.4,0,0,1,.271-.014l-.479-.362-.153.146-.357-.38.149-.145c-.594-2.46-2.607-1.105-3.953-2.918l.226-.216c.216.081.517-.133.653.24.039-1.479-1.957-.937-2.366-2.062l.16-.512a1.08,1.08,0,0,0-1.893-.42,3.894,3.894,0,0,0-1.931-1.978c-.735-2.609-3.745-2.54-5.3-4.8-1.048-1.952.794.466,1.056-1.156l.863.688.376-.359c.513.085.424.53.495.754,1.181-.266,2.144,2.129,3.118,1.34a8.443,8.443,0,0,0-4.322-3l-.152.219-.494-.755-.537.875c-.8-.244.164-.663-.338-1.046a6.9,6.9,0,0,0-3.482-1.5,30.96,30.96,0,0,0-3.106-1.712c-1.259.413-2.395-1.022-3.367-.237-.327-1.488-2.26-.5-2.976-1.337-1.7.4-2.765-.741-4.385-.634l.229-.219c-5.71-.446-12.216-1.211-18.468-.639l-.376.362c-1.433-.923-1.963.75-2.885,1.23a.584.584,0,0,1,.057.247,5.181,5.181,0,0,1-3.759.79c-.168.735-1.038.487-1.277,1.076-1.02-.178-2.078.907-2.937.067l1.566-.844-2.146.683.206.526c-.879-.1-1.36,1.441-2.289.6.01-.37.454-.506.676-.644l-.5-.534c-1.922.544-2.6,1.336-4.451,1.953-.006.223-.086.446.128.6-.516.208-.653-.24-1.391-.037-1.059,1.231-2.754,1.555-4.1,2.335-.747.5-1.086,2.189-2.17,1.57a113.67,113.67,0,0,0-14.92,12.185,23.118,23.118,0,0,1-4.384,4.842c.816,2.391-2.326,1.937-2.02,4.24a1.7,1.7,0,0,1-.875-.173c-.721,2.278-2.228,3.792-2.954,6.142-1.249.187-1.23,2.261-2.208,3.27C301.266,1168.3,301.505,1170.309,300.093,1171.082Zm102.559,35.078c-.26-1.116,1.138-1.376.948-2.491.206.523.411,1.12-.41,1.616.031,1.63-1.249,2.854-1.359,4.185-1.22,1.892-1.864,3.944-3.16,5.835C399.7,1212.3,401.477,1209.011,402.652,1206.16Zm-14.2-56.338-.01.37c-.114-1.111-1.313-.183-1.358-1.294C387.611,1148.543,388.026,1149.441,388.456,1149.822Zm-8.972,72.6,2.159-1.206c.165,2.078-1.708.7-1.817,2.1l.366.01c-2.239,1.42-4.409,3.064-6.988,3.514C375.153,1225.264,377.976,1223.861,379.484,1222.422Zm-60.965-62.915c.111-1.478,1.66-1.732,1.834-2.837.828-.793,1.291-1.593,2.183-2.015l.356.3,1.052-.859c-.991,1.38,1.051,1.8.283,3.044-1.267.778-2.6,1.038-3.223,2.581-1.317-.035-1.134,1.3-2.527,1.337l-.531.574.648.539c-.731-.02-.556,1.612-1.407.478l-.542,1.023-.5-.533-.226.216C316.754,1162.346,317.174,1160.433,318.519,1159.507Z" fill="#231815"/>
      <path id="Path_19336" data-name="Path 19336" d="M351.04,1128.175l-.153.216a.976.976,0,0,0,.816-.074C351.571,1128.1,351.268,1128.609,351.04,1128.175Z" fill="#231815"/>
      <path id="Path_19337" data-name="Path 19337" d="M406.436,1149.414l-.486-.368C406.086,1149.212,406.214,1149.408,406.436,1149.414Z" fill="#231815"/>
      <path id="Path_19338" data-name="Path 19338" d="M340.816,1247.665c.207.525,1.016.4,1.6.562l-.2-.672C341.771,1247.543,341.19,1247.3,340.816,1247.665Z" fill="#231815"/>
      <path id="Path_19339" data-name="Path 19339" d="M347.144,1246.945c-.511-.235-.668.279-.68.723.664-.13,1.671.489,1.9.051C347.931,1247.632,347.272,1247.614,347.144,1246.945Z" fill="#231815"/>
      <path id="Path_19340" data-name="Path 19340" d="M340.014,1247.385a1.208,1.208,0,0,0-.16-.037,1.459,1.459,0,0,1,.085.146Z" fill="#231815"/>
      <path id="Path_19341" data-name="Path 19341" d="M339.854,1247.348a.944.944,0,0,0-1.3-.261C338.948,1247.4,339.415,1247.278,339.854,1247.348Z" fill="#231815"/>
      <path id="Path_19342" data-name="Path 19342" d="M340.094,1247.275l-.08.11a.96.96,0,0,1,.434.27Z" fill="#231815"/>
      <path id="Path_19343" data-name="Path 19343" d="M370.731,1248.091c.437.235.9-.865,1.244.033a.843.843,0,0,0,.906-.865A7.11,7.11,0,0,0,370.731,1248.091Z" fill="#231815"/>
      <path id="Path_19344" data-name="Path 19344" d="M345.746,1247.056c-.2-.819-1.157-.621-1.733-.935l-.166.737C344.209,1246.943,345.51,1247.567,345.746,1247.056Z" fill="#231815"/>
      <path id="Path_19345" data-name="Path 19345" d="M343.345,1246.472c-1.024-.247-1.875-1.306-2.626-.734.337,1.193,1.822.493,2.616,1.106Z" fill="#231815"/>
      <path id="Path_19346" data-name="Path 19346" d="M335.719,1246.269c.146.082.212.229.36.233l-.35-.6Z" fill="#231815"/>
      <path id="Path_19347" data-name="Path 19347" d="M334.832,1246.469l-.12-.891-.375.285-.5-.528-.377.359C333.811,1246.3,334.625,1246.02,334.832,1246.469Z" fill="#231815"/>
      <path id="Path_19348" data-name="Path 19348" d="M339.47,1245.854c.458-.656-.765-1.65-.832-1.8C339.063,1244.586,338.3,1245.9,339.47,1245.854Z" fill="#231815"/>
      <path id="Path_19349" data-name="Path 19349" d="M328.2,1245.036c.436.16.941.393,1.378.555C329.362,1245.288,328.653,1244.454,328.2,1245.036Z" fill="#231815"/>
      <path id="Path_19350" data-name="Path 19350" d="M337.867,1245.442l.222.006.014-.518C337.878,1245,337.873,1245.219,337.867,1245.442Z" fill="#231815"/>
      <path id="Path_19351" data-name="Path 19351" d="M330.846,1244.737l1.6.561C332.229,1245.144,331.372,1244.156,330.846,1244.737Z" fill="#231815"/>
      <path id="Path_19352" data-name="Path 19352" d="M336.633,1244.891l-.121-.893c-.226.216-.45.358-.386.73C336.266,1244.955,336.489,1244.887,336.633,1244.891Z" fill="#231815"/>
      <path id="Path_19353" data-name="Path 19353" d="M335.121,1243.811a.557.557,0,0,1-.232.514l.729.169C335.256,1244.335,335.792,1243.534,335.121,1243.811Z" fill="#231815"/>
      <path id="Path_19354" data-name="Path 19354" d="M329.464,1244.33c.626-1.538-1.821-.638-.978-1.952l-1.949-1.162c-.077.147-.225.216-.155.363.655.244,1.224.85,1.876,1.164l-.536.871Z" fill="#231815"/>
      <path id="Path_19355" data-name="Path 19355" d="M381.9,1244.689l-.14-.228c-1.238-.326-.167.667-.763,1.092.594-.355,1.476-.4,1.79-1.064a1.328,1.328,0,0,0-.727-.313C382.054,1244.321,382.121,1244.545,381.9,1244.689Z" fill="#231815"/>
      <path id="Path_19356" data-name="Path 19356" d="M333.373,1243.4l0,.145c.217.229.657.093.871.4A.694.694,0,0,0,333.373,1243.4Z" fill="#231815"/>
      <path id="Path_19357" data-name="Path 19357" d="M326.711,1243c.07.151.136.3.288.231l-.13-.745C326.647,1242.626,326.715,1242.848,326.711,1243Z" fill="#231815"/>
      <path id="Path_19358" data-name="Path 19358" d="M325.873,1241.42c.043-1.627-2.094-1.239-2.44-2.062-2.082-1.759-5.258-.881-5.916-3.711l-.015.59c-.6.357-1.026-.028-1.545.111-.182-1.339-.934-.62-1.343-1.815-.958.049-1.824-.417-2,.688l2.95,2.153-.359-.307.53-.578c.347.75.678,2.088,1.564,1.816.029,1.628,1.747.567,2.464,1.176a3.826,3.826,0,0,0,1.882.94c1.521.63,2.864,2.59,4.5,1.894a10.811,10.811,0,0,0-2.892-1.7C324,1240.036,325.078,1240.882,325.873,1241.42Z" fill="#231815"/>
      <path id="Path_19359" data-name="Path 19359" d="M312.939,1236.785l3.092,2.376-2.94-2.523Z" fill="#231815"/>
      <path id="Path_19360" data-name="Path 19360" d="M294.1,1236.5l.358.307-.132-.523Z" fill="#231815"/>
      <path id="Path_19361" data-name="Path 19361" d="M293.556,1198.962a.816.816,0,0,0,.316-.879.545.545,0,0,0-.519.206l-.64-.757a10.339,10.339,0,0,0-.057,2.145l.292.008C293.324,1199.4,292.762,1198.423,293.556,1198.962Z" fill="#231815"/>
      <path id="Path_19362" data-name="Path 19362" d="M304.586,1225.383c.435-2.578-2.569-2.658-2.506-5.022-1.313-.187-.456-2.161-1.845-2.346l.164-.588c-1.862-1.678-2.528-4.214-3.864-6.321l-.671.352c-.21-.375-.637-.905-.187-1.262.294-.068.358.3.5.382,1.119-.639-.849-1.133.051-1.924-.218-.077-.516.135-.655-.238.862-2.049-.994-3.95-1.231-6.029-.127-.818-.3-2.375-1.4-2.7-.306.509.7,1.425-.2,1.922,1.3.922.376,2.452.789,3.423.94,3.283,1.867,7.083,3.768,10.018.158,2.374,2.382,4.211,2.982,6.521.724.314,1.594.709,1.2,1.807,2.033.8,1.878,3.824,3.923,4.177-.029,1.11,1.549,2.409,2.559,3.1a12.682,12.682,0,0,0,4.3,3.814l.013-.515.22.006.024-.889C309.5,1230.919,307.31,1227.749,304.586,1225.383Z" fill="#231815"/>
      <path id="Path_19363" data-name="Path 19363" d="M411.939,1221.137l-.38.362c-1.152,1.966-2.507,3.335-3.659,5.227-.836,1.166-1.789,1.141-2.843,2.071-.018.667-.83.871-1.285,1.521.942.322-.462.8-.024.887l.528-.65-.137-.228c-.069-.219.228-.361.3-.51.439.086.636.98.557,1.053,1.209-1.3,2.221-3.421,4.154-4.329-.227-2.525,2.624-2.154,3.406-3.983C413.315,1221.763,412.07,1221.66,411.939,1221.137Z" fill="#231815"/>
      <path id="Path_19364" data-name="Path 19364" d="M399.218,1227.754c.144.077.215.23.363.158l-.132-.521C399.372,1227.464,399.224,1227.534,399.218,1227.754Z" fill="#231815"/>
      <path id="Path_19365" data-name="Path 19365" d="M401.222,1226.918c.3-.21.536-.872.887-.346.557-1.611,2.769-2.069,2.731-3.33l-.369-.01C404.277,1225.15,401.065,1224.476,401.222,1226.918Z" fill="#231815"/>
      <path id="Path_19366" data-name="Path 19366" d="M406.214,1224.019l.526-.506-.422-.25C406.576,1223.534,406.029,1223.95,406.214,1224.019Z" fill="#231815"/>
      <path id="Path_19367" data-name="Path 19367" d="M406.089,1223.131l.229.132A.463.463,0,0,0,406.089,1223.131Z" fill="#231815"/>
      <path id="Path_19368" data-name="Path 19368" d="M404.671,1221.316c-.883.123-1.218,1.668-1.591,1.879C403.9,1222.7,404.793,1222.206,404.671,1221.316Z" fill="#231815"/>
      <path id="Path_19369" data-name="Path 19369" d="M406.613,1222.772l-.346-.752-.379.361C405.959,1222.533,406.243,1222.909,406.613,1222.772Z" fill="#231815"/>
      <path id="Path_19370" data-name="Path 19370" d="M406.641,1221.736c.031.018.113-.106.212-.276A.732.732,0,0,0,406.641,1221.736Z" fill="#231815"/>
      <path id="Path_19371" data-name="Path 19371" d="M406.853,1221.46c.3-.247.693-.057,1.049-.283C407.772,1219.753,407.185,1220.886,406.853,1221.46Z" fill="#231815"/>
      <path id="Path_19372" data-name="Path 19372" d="M412.964,1221.165l.376-.36-.879-.023Z" fill="#231815"/>
      <path id="Path_19373" data-name="Path 19373" d="M409.008,1218.247l-.527.5c.645.61-.61.8-.406,1.4l.531-.5c.653.237.256,1.339.327,1.414l.372-.138c.61-.946.586-2.8,1.834-2.84a4.889,4.889,0,0,1,1.331-3.146c.006-.223.627-1.54-.328-1.416-.52.208-.107,1.257-.908,1.012-.265-1.043.421-2.06.961-3.008-1.132,1.227-2.267,2.379-2.6,3.853l-.508-.162C409.857,1216.565,407.055,1217.231,409.008,1218.247Z" fill="#231815"/>
      <path id="Path_19374" data-name="Path 19374" d="M415.21,1216.635c-.407,1.541-2.41,2.452-1.345,3.813.534-.872.245-1.03.566-2.057l.218.152c.448-.432,1.407-.553,1.428-1.368l-.149.144Z" fill="#231815"/>
      <path id="Path_19375" data-name="Path 19375" d="M407.991,1217.85c-.469,1.1-1.991.317-2.168,1.5l.529-.507c.293-.065.359.233.5.384-.148.068-.232.438-.522.358l-.014.517.366.009C406.858,1219.077,408.551,1218.827,407.991,1217.85Z" fill="#231815"/>
      <path id="Path_19376" data-name="Path 19376" d="M404.274,1216.861c1.569-1.07,1.231-2.041,2.579-3.115l.129.67c1.117-.637.792-2.2,1.7-3.135l.145.15c.818-.5-.032-1.705.419-2.061-.881-.023-.152.218-.9.639-.066-.222-.288-.151-.508-.157a.565.565,0,0,0,.125.891c-1.026-.1-1.217,1.595-1.828,2.394.581.31.133.593.2.892l-.58-.163C405.211,1214.812,404.154,1215.968,404.274,1216.861Z" fill="#231815"/>
      <path id="Path_19377" data-name="Path 19377" d="M294.576,1213.051l-.236.514.577.385Z" fill="#231815"/>
      <path id="Path_19378" data-name="Path 19378" d="M416.83,1216.456l-.475-.137c-.044.123-.083.239-.115.343Z" fill="#231815"/>
      <path id="Path_19379" data-name="Path 19379" d="M416.355,1216.319c.02-.061.042-.128.065-.2-.059.054-.112.118-.17.168Z" fill="#231815"/>
      <path id="Path_19380" data-name="Path 19380" d="M420.451,1171.253a36.058,36.058,0,0,1,1.388,8.548,16.026,16.026,0,0,1,.38,5.046l.367.009a91.528,91.528,0,0,1-.949,16.259c-.821.567-.122,1.921-.428,2.358-.1,1.1-.865,2.2-.818,3.159-1.01,2.193-1.61,5.359-3.184,6.652a14.647,14.647,0,0,1-.787,2.839,10.2,10.2,0,0,0,2.3-4.428c.3-.29.824-.644.321-1.027.89-.351.707-1.759.941-2.272a18.261,18.261,0,0,0,1.531-2.474c.063-2.372,1.423-3.739,1.047-6.188.967-.419.174-1.035.92-1.534-.3-2.521.308-5.986.745-8.714-1.426-1.518-.12-3.776-.587-5.492l.7,1.2-.637-3.57c-.864-.614.259-1.473-.09-2.075.353-2.283-1.589-3.743-.583-5.715-.5-.53-.4-1.34-.608-2.018C421.687,1171.729,421.058,1170.6,420.451,1171.253Z" fill="#231815"/>
      <path id="Path_19381" data-name="Path 19381" d="M403.428,1215.727l.505.236c1.13-1.08.8-2.569.688-3.754C403.718,1213,404.12,1214.488,403.428,1215.727Z" fill="#231815"/>
      <path id="Path_19382" data-name="Path 19382" d="M414.61,1167.544c-.374.285-.094.813-.395,1.1l.376-.36c1.675.489-.581,2.649,1.112,2.326l-.344,1.911.153-.141c.362.154.937.544.705,1.053-1.055.937.455,2.087-.09,3.4.435.088,1.6.192,1.733.933-.228.292-.586.059-.883.127.2.967,1.706,1.969.44,2.673,1.209,1.442-.373,3.1.4,4.16-.822,3.53,2.635,5.841,1,9.2a9.288,9.288,0,0,1-.482,4.43c.236,2-1.26,3.148-1.382,5-.9.939-.44,2.87-1.5,4.032-1.224,1.889-1.211,4.258-2.936,5.616,1.792,1.532,1.641-1.064,2.331-2.081a32.839,32.839,0,0,0,2.544-4.744.892.892,0,0,1-.867-.392c.08-.368-.127-.818.244-1.031l.633,1.054c.92-1.455-.544-4.381,1.4-5.812-.078-2.665,1.877-4.464.921-7.08,1.344-.927.237-3.473.643-4.792-.208-.526.823-.721.178-1.255a48.186,48.186,0,0,0-.8-8.31c0,.145.063.369-.162.511-.9-2.094-.905-4.538-1.806-6.49-.189-1.187-1.247.043-1.752-.341.035-1.329-.516-2.676-.549-4.158C414.883,1168.291,414.755,1167.7,414.61,1167.544Z" fill="#231815"/>
      <path id="Path_19383" data-name="Path 19383" d="M406.948,1210.2l.01-.367a2.447,2.447,0,0,0-1.224-.923c-.39.88.257,1.34-.209,2.291C406.4,1211.293,406.443,1209.815,406.948,1210.2Z" fill="#231815"/>
      <path id="Path_19384" data-name="Path 19384" d="M291.549,1208.163l-.554-1.279-.014.52C290.971,1207.774,291.03,1208.368,291.549,1208.163Z" fill="#231815"/>
      <path id="Path_19385" data-name="Path 19385" d="M414.056,1207.724c-.686,1.015-1.679,2.392-1.482,3.287Z" fill="#231815"/>
      <path id="Path_19386" data-name="Path 19386" d="M407.884,1208.074l-.367-.009c-.083.368-.684.944-.179,1.254Z" fill="#231815"/>
      <path id="Path_19387" data-name="Path 19387" d="M290.736,1205.623l.146,0-.132-.521Z" fill="#231815"/>
      <path id="Path_19388" data-name="Path 19388" d="M290.435,1203.172c-1.155-.625.192-1.7-.446-2.528-.9.938,0,2.662.418,3.563C290.564,1203.841,290.127,1203.683,290.435,1203.172Z" fill="#231815"/>
      <path id="Path_19389" data-name="Path 19389" d="M414.219,1207.134c.216.08.375-.284.381-.51l-.367-.01Z" fill="#231815"/>
      <path id="Path_19390" data-name="Path 19390" d="M409.689,1206.493c.026-.961.852-1.75.582-2.646A5.339,5.339,0,0,0,409.689,1206.493Z" fill="#231815"/>
      <path id="Path_19391" data-name="Path 19391" d="M411.262,1205.28l.574.385a1.325,1.325,0,0,0-.551-1.274c-.165.662-1.068,1.453-.713,1.98Z" fill="#231815"/>
      <path id="Path_19392" data-name="Path 19392" d="M411.888,1203.741c.844-1.384.662-2.721.987-4.045C412.185,1200.863,412.136,1202.711,411.888,1203.741Z" fill="#231815"/>
      <path id="Path_19393" data-name="Path 19393" d="M289.306,1198.7c-.078.22.21.375.355.529l-.2-.747Z" fill="#231815"/>
      <path id="Path_19394" data-name="Path 19394" d="M406.885,1198.794l-.043,1.629c-.057-.668.91-1.158.413-1.766C407.107,1198.728,407.027,1198.876,406.885,1198.794Z" fill="#231815"/>
      <path id="Path_19395" data-name="Path 19395" d="M410.558,1198.525l-.536.875.343.895Z" fill="#231815"/>
      <path id="Path_19396" data-name="Path 19396" d="M293.249,1196.658l.02-.741c-.371.14-.16.516-.24.735Z" fill="#231815"/>
      <path id="Path_19397" data-name="Path 19397" d="M413.043,1198.958c.226-.215.955-.121.75-.717-.866-.468.176-1.032-.171-1.783C413.671,1197.423,412.7,1198.137,413.043,1198.958Z" fill="#231815"/>
      <path id="Path_19398" data-name="Path 19398" d="M409.935,1197.249l-.22-.006a1.767,1.767,0,0,1-.172.885Z" fill="#231815"/>
      <path id="Path_19399" data-name="Path 19399" d="M301.515,1157.9a5.164,5.164,0,0,0,.473-.8A2.489,2.489,0,0,0,301.515,1157.9Z" fill="#231815"/>
      <path id="Path_19400" data-name="Path 19400" d="M302.785,1155.312l-.525.58a2.947,2.947,0,0,1-.272,1.2C302.44,1156.518,302.99,1156,302.785,1155.312Z" fill="#231815"/>
      <path id="Path_19401" data-name="Path 19401" d="M294.542,1186.778c.088-.667.7-1.539.272-1.992l.882-.125c-1.374-.776.413-1.693-.143-2.893.7-1.388.22-2.733,1.219-4.411-1.256-2.4,1.648-4.1-.047-6.512.094-.736,1.226-1.965.8-2.644,1.18-3,2.748-6.735,3.932-9.886a1.314,1.314,0,0,1,.055-.417c-.887,1.268-2.218,2.378-1.917,4.142a56.255,56.255,0,0,0-4.534,13.349c-.584.968.205,2.234-.774,2.715.34.667-.218,1.49-.228,1.847-.164,3.4-1.59,7.362-1.18,11.219a7.256,7.256,0,0,0-.319,3.694C295.324,1193.161,293.37,1189.409,294.542,1186.778Z" fill="#231815"/>
      <path id="Path_19402" data-name="Path 19402" d="M294.11,1178.176a1.5,1.5,0,0,0,.18-.072c-.015-.024-.016-.048-.032-.073Z" fill="#231815"/>
      <path id="Path_19403" data-name="Path 19403" d="M409.11,1195.154a.91.91,0,0,1-.872-.393l-.423,2.136,1.042-.566-.143-.151C408.723,1195.81,408.663,1195.362,409.11,1195.154Z" fill="#231815"/>
      <path id="Path_19404" data-name="Path 19404" d="M410.36,1194.968c-.364-.01-.181,1.323-.257,1.4C410.189,1195.921,410.789,1195.418,410.36,1194.968Z" fill="#231815"/>
      <path id="Path_19405" data-name="Path 19405" d="M413.848,1196.17l.024-.889-.222.145C413.719,1195.647,413.482,1196.16,413.848,1196.17Z" fill="#231815"/>
      <path id="Path_19406" data-name="Path 19406" d="M289.519,1190.711l-.014.52.147,0Z" fill="#231815"/>
      <path id="Path_19407" data-name="Path 19407" d="M410.4,1193.559l.137.373-.123-.89Z" fill="#231815"/>
      <rect id="Rectangle_165" data-name="Rectangle 165" width="1.405" height="0.144" transform="translate(414.073 1193.288) rotate(-88.475)" fill="#231815"/>
      <path id="Path_19408" data-name="Path 19408" d="M408.976,1191.894l.567.756C409.627,1192.282,409.492,1191.761,408.976,1191.894Z" fill="#231815"/>
      <path id="Path_19409" data-name="Path 19409" d="M409.376,1190.72l-.018.667.218.006Z" fill="#231815"/>
      <path id="Path_19410" data-name="Path 19410" d="M414.055,1180.188l-.512-.014c.282,3.114.559,6.455.773,9.419a1.713,1.713,0,0,0,.289-2.506c1.169.177.682-.871.7-1.391l-.534.876c-.553-1.347,1.008-2.12-.43-3.2C414.585,1182.349,414.1,1181.221,414.055,1180.188Z" fill="#231815"/>
      <path id="Path_19411" data-name="Path 19411" d="M412.781,1188.659a2.819,2.819,0,0,0,.143.9A.979.979,0,0,0,412.781,1188.659Z" fill="#231815"/>
      <path id="Path_19412" data-name="Path 19412" d="M412.918,1184.376c-.635-.981.077-2.885-1.162-3.217-.4,1.251.675,2.167.271,3.563.065.372.739-.2.5.531-.886.346.261,1.341-.417,1.989-.166.721.374.989.674,1.417C412.736,1187.268,413.363,1185.593,412.918,1184.376Z" fill="#231815"/>
      <path id="Path_19413" data-name="Path 19413" d="M411.2,1188.4l-.132-.52-.014.516Z" fill="#231815"/>
      <path id="Path_19414" data-name="Path 19414" d="M410.96,1183.434c-.078.22-.526.505-.165.738l.145,0Z" fill="#231815"/>
      <path id="Path_19415" data-name="Path 19415" d="M291.572,1179.738l-.376.36.348.676Z" fill="#231815"/>
      <path id="Path_19416" data-name="Path 19416" d="M410.4,1179.718c.062.374-.172.887.11,1.262C410.742,1180.619,410.909,1179.881,410.4,1179.718Z" fill="#231815"/>
      <path id="Path_19417" data-name="Path 19417" d="M410.53,1174.912a43.208,43.208,0,0,1,1.1,5.5C412.113,1178.728,411.37,1176.414,410.53,1174.912Z" fill="#231815"/>
      <path id="Path_19418" data-name="Path 19418" d="M408.13,1171.3l.431,3.044c1.283,1.441.795,3.277,1.855,4.861C410.344,1176.314,408.877,1173.538,408.13,1171.3Z" fill="#231815"/>
      <path id="Path_19419" data-name="Path 19419" d="M409.608,1162.6a1.758,1.758,0,0,1-2.1-1.092,37.417,37.417,0,0,0,2.37,4.82C410.034,1164.748,408.915,1164.191,409.608,1162.6Z" fill="#231815"/>
      <path id="Path_19420" data-name="Path 19420" d="M411.969,1173.175c1.452.484.669,2.385,1.162,3.213.639.757-.782,1.754.455,2.157.086-.513.321-1.026.907-1.011-.5-.678.5-2.21-.822-2.171.466-1.02-1.63-2.111-.067-3.034-.349-.6-.747.425-1.1-.178a1.238,1.238,0,0,0-.107-1.483c-1.344-.321-1.449-3.178-2.434-4.191.09.144.168.293.26.431C410.163,1169.351,412.185,1170.589,411.969,1173.175Z" fill="#231815"/>
      <path id="Path_19421" data-name="Path 19421" d="M409.968,1166.477c-.028-.049-.058-.1-.089-.149a.522.522,0,0,0,0,.054A1.029,1.029,0,0,1,409.968,1166.477Z" fill="#231815"/>
      <path id="Path_19422" data-name="Path 19422" d="M408.331,1177.516l-.122-.891C407.688,1176.908,408.265,1177.218,408.331,1177.516Z" fill="#231815"/>
      <path id="Path_19423" data-name="Path 19423" d="M419.809,1176.2l-.515-.014.347.747Z" fill="#231815"/>
      <path id="Path_19424" data-name="Path 19424" d="M293.548,1171.647c-.516.136-.388.805-.394,1.027C293.6,1172.611,293.548,1171.647,293.548,1171.647Z" fill="#231815"/>
      <path id="Path_19425" data-name="Path 19425" d="M407.879,1175.209l-.336-1.116-.01.369Z" fill="#231815"/>
      <path id="Path_19426" data-name="Path 19426" d="M408.408,1169.154a11.232,11.232,0,0,0,1.105,2.546c.716.684-.437,2.581,1.181,2.477-.232-2.3-2.022-3.976-2.253-6.279-.772-1.353-1.687-2.859-2.387-4.136.054.816,1.279,1.662.663,2.683-.505-.309-.855-.837-1.437-1.076a3.367,3.367,0,0,0,1.189,2.179l.524-.356C407.712,1167.731,407.685,1168.765,408.408,1169.154Z" fill="#231815"/>
      <path id="Path_19427" data-name="Path 19427" d="M407.188,1173.565l-.647-.534-.009.367C406.6,1173.7,406.97,1173.487,407.188,1173.565Z" fill="#231815"/>
      <path id="Path_19428" data-name="Path 19428" d="M406.585,1171.4c-.552-1.267-1.313-2.992-2.252-3.609a10.143,10.143,0,0,0,2.868,5.259C406.995,1172.523,407.091,1171.711,406.585,1171.4Z" fill="#231815"/>
      <path id="Path_19429" data-name="Path 19429" d="M298.362,1170l.03-1.11-.534.726C298,1169.7,298.068,1169.993,298.362,1170Z" fill="#231815"/>
      <path id="Path_19430" data-name="Path 19430" d="M418.66,1172.464c.53-.579-.336-1.119-.319-1.784l-.522.355C417.652,1171.772,418.3,1172.084,418.66,1172.464Z" fill="#231815"/>
      <path id="Path_19431" data-name="Path 19431" d="M416.588,1170.484c.13.6.5.383.863.69-.624-1.5-.789-3.5-1.64-4.634a3.8,3.8,0,0,0,1.014,3.208C416.748,1169.969,416.958,1170.347,416.588,1170.484Z" fill="#231815"/>
      <path id="Path_19432" data-name="Path 19432" d="M406.966,1168.228l-.024.887,1.061,1.436Z" fill="#231815"/>
      <path id="Path_19433" data-name="Path 19433" d="M420.05,1167.169l-.519.137.357.379-.605.724,1.229.552c-.447.358.129.744.2,1.038C422.134,1168.708,419.648,1168.493,420.05,1167.169Z" fill="#231815"/>
      <path id="Path_19434" data-name="Path 19434" d="M418.338,1165.2l.694,1.571c.587.015.967-.495,1.061-1.227-.955.045-.181-1.564-1.354-1.446l.536-.872c-.38.431-.733-.1-1.023-.175a1.775,1.775,0,0,1,.326-1.25c-.131-.668-.645-.611-1.012-.546a8.017,8.017,0,0,0-.933-3.429l-.229.216-2.071-2.054c.974,1.95,2.064,5.091,3.561,6.68C417.652,1163.626,418.879,1164.25,418.338,1165.2Z" fill="#231815"/>
      <path id="Path_19435" data-name="Path 19435" d="M408.075,1155.589l-.194.229C408.045,1155.767,408.09,1155.685,408.075,1155.589Z" fill="#231815"/>
      <path id="Path_19436" data-name="Path 19436" d="M408.11,1152.789a.283.283,0,0,0-.515-.013c1.175.031.476,1.495,1.2,1.809l.15-.148c-.014.522.708.983.329,1.418l-1.356-1.445c-.506.382.11.871.157,1.179l.108-.133c.259,1.412,1.6.413,2.107.944-.387.656.548,1.347-.2,1.993.129.744.865.617,1.368.927l-.376.355.5.533c-.232.439,1.129,1.807-.339,1.768-.082.368.647.534.123.893a1.205,1.205,0,0,0,.9-.866c-.016.593.713.76.479,1.272.337,1.044,1.157.622,1.736.932,0,.15.065.372-.162.517l-.212-.227c-.985,1.156,1.077.844,1.421,1.662-.447-2.449-1.73-3.819-2.692-6.286-.733-.094-.63-1.128-.982-1.657.154-.289.588-.056.882-.12l.01-.371a.976.976,0,0,0-.868-.4.617.617,0,0,1-.239.588c-1.151-.771-1.234-3.216-1.974-2.94l.149-.143c.15-.072.218.08.365.157-.273-.822-.784-.909-1.206-1.588l.376-.358-.855-.913c-.086.443.492.755.112,1.262Z" fill="#231815"/>
      <path id="Path_19437" data-name="Path 19437" d="M412.367,1163.781c-.53.578.479,1.2.543,1.574C413.44,1164.774,412.571,1164.306,412.367,1163.781Z" fill="#231815"/>
      <path id="Path_19438" data-name="Path 19438" d="M403.248,1164.578l-.564-.906-.014.521C402.888,1164.343,402.952,1164.641,403.248,1164.578Z" fill="#231815"/>
      <path id="Path_19439" data-name="Path 19439" d="M401.806,1163.649l.6-.351c.012-.445-1.079-.771-.553-1.2l-.861-.761-.3.36C401.107,1162.3,401.01,1163.183,401.806,1163.649Z" fill="#231815"/>
      <rect id="Rectangle_166" data-name="Rectangle 166" width="0.519" height="0.218" transform="translate(415.377 1163.643) rotate(-88.475)" fill="#231815"/>
      <path id="Path_19440" data-name="Path 19440" d="M403.824,1162.149c.358.379.881.023,1.253-.185l-.571-.687c-.021.815-1.181.414-1.2,1.005C403.59,1162.734,403.6,1162.29,403.824,1162.149Z" fill="#231815"/>
      <path id="Path_19441" data-name="Path 19441" d="M319.762,1159.693c-.222-.006-.377.282-.383.505l.369.01Z" fill="#231815"/>
      <path id="Path_19442" data-name="Path 19442" d="M321.339,1158.325c-.16.439-.6.209-.895.5C320.725,1159.2,321.469,1158.848,321.339,1158.325Z" fill="#231815"/>
      <path id="Path_19443" data-name="Path 19443" d="M414.427,1160.654l-.365-.01.347.679Z" fill="#231815"/>
      <path id="Path_19444" data-name="Path 19444" d="M404.232,1160.678l-1.054-1.8-.016.589C404.043,1159.488,403.646,1160.662,404.232,1160.678Z" fill="#231815"/>
      <path id="Path_19445" data-name="Path 19445" d="M401.911,1159.731l-.016.589c.216.081.283.382.577.311Z" fill="#231815"/>
      <path id="Path_19446" data-name="Path 19446" d="M404.964,1158.033l1.2,1.511C406.335,1158.811,405.544,1158.2,404.964,1158.033Z" fill="#231815"/>
      <path id="Path_19447" data-name="Path 19447" d="M402.147,1159.072c-.423-.68-1-.917-1.052-1.805.12.966-.734.055-.682.868C400.76,1158.885,401.571,1158.76,402.147,1159.072Z" fill="#231815"/>
      <path id="Path_19448" data-name="Path 19448" d="M399.006,1158.615l-.561-.595C398.584,1158.31,398.594,1158.656,399.006,1158.615Z" fill="#231815"/>
      <path id="Path_19449" data-name="Path 19449" d="M398.151,1157.708l.294.312A.579.579,0,0,0,398.151,1157.708Z" fill="#231815"/>
      <path id="Path_19450" data-name="Path 19450" d="M408.352,1157.46c.505.308.417.826.625,1.274,1.191-.635-.631-1.054-.249-1.634Z" fill="#231815"/>
      <path id="Path_19451" data-name="Path 19451" d="M399.7,1157.377c.451-.36-.2-.893-.487-1.05C399.055,1156.768,399.414,1157.072,399.7,1157.377Z" fill="#231815"/>
      <path id="Path_19452" data-name="Path 19452" d="M396.733,1155.891c-1.018-.4-1.136-1.434-2.223-1.982C394.329,1155.162,396,1155.726,396.733,1155.891Z" fill="#231815"/>
      <path id="Path_19453" data-name="Path 19453" d="M403.152,1154.435c.03-1.109-1.086-.547-1.378-.7.265,1.191.915,1.5,1.847,2.342C403.488,1155.556,402.619,1155.084,403.152,1154.435Z" fill="#231815"/>
      <path id="Path_19454" data-name="Path 19454" d="M399.28,1153.814c-.6.576.329,1.414.309,2.153C400.2,1155.169,399.187,1154.627,399.28,1153.814Z" fill="#231815"/>
      <rect id="Rectangle_167" data-name="Rectangle 167" width="0.743" height="0.146" transform="translate(304.086 1153.278) rotate(-88.475)" fill="#231815"/>
      <path id="Path_19455" data-name="Path 19455" d="M407.364,1147.663c.658.165.988,1.432,2.08,1.831.036,1.408,1.654,1.3,1.69,2.709,1.237.33,1.13,1.512,1.844,2.341.359.162.665-.2.743-.345-.863-.691-.359-3.047-1.684-2.859l-.715-.761c-1.115.564-.847-1.133-1.352-1.591-1.319.039-.245-1.782-1.571-1.667l.227-.144-1.066-1.286C406.441,1146.526,407.907,1146.565,407.364,1147.663Zm4.66,4.194.351.529-.365-.01Z" fill="#231815"/>
      <path id="Path_19456" data-name="Path 19456" d="M397.217,1151.463c-.146-.079-.22.068-.37.14-.086.367.2.522.346.747-.159.442-.4,1.324-.908,1.012.282.453.719.539,1.082.767C398.567,1153.055,397.253,1152.8,397.217,1151.463Z" fill="#231815"/>
      <path id="Path_19457" data-name="Path 19457" d="M401.07,1152.825c-1.086-.7-.03-1.7-.823-2.319,0,.15.067.374-.16.516-.784-.763-2.825-1.26-2.046-2.942l-1.248-.033c-.783,1.9,1.724,1.305,2.192,3.093C400.157,1151.171,400.118,1152.652,401.07,1152.825Z" fill="#231815"/>
      <path id="Path_19458" data-name="Path 19458" d="M392.429,1152.223c.38-.508-.575-.458-.862-.761C391.48,1151.977,392.213,1152,392.429,1152.223Z" fill="#231815"/>
      <path id="Path_19459" data-name="Path 19459" d="M394.793,1151.548l-.367-.01-.01.369c.073.075.216.226.361.23Z" fill="#231815"/>
      <path id="Path_19460" data-name="Path 19460" d="M395.1,1150.889l.243-.736-.366-.009C395.045,1150.368,394.811,1150.881,395.1,1150.889Z" fill="#231815"/>
      <path id="Path_19461" data-name="Path 19461" d="M393.227,1149.731c-.928-.989-2.193-.283-3.134-.753.035,1.481,1.612.116,2.239,1.317l.386-.729Z" fill="#231815"/>
      <path id="Path_19462" data-name="Path 19462" d="M395.914,1148.023l.008-.3-.512-.014C395.552,1147.794,395.619,1148.088,395.914,1148.023Z" fill="#231815"/>
      <path id="Path_19463" data-name="Path 19463" d="M394.34,1146.573l-.006.224c.289.157.426.531.719.539A.564.564,0,0,0,394.34,1146.573Z" fill="#231815"/>
      <path id="Path_19464" data-name="Path 19464" d="M392.419,1147.041l-.734-.02A.415.415,0,0,0,392.419,1147.041Z" fill="#231815"/>
      <path id="Path_19465" data-name="Path 19465" d="M392.328,1144.966c.046.964,1.149.918,1.722,1.454Z" fill="#231815"/>
      <path id="Path_19466" data-name="Path 19466" d="M403.593,1143.267c1.4-.107.033,1.555,1.2,1.809l.377-.36c.506.311,1.167.253,1.515.93l.235-.514c-.358-.452-.838-1.574-1.588-.929-.133-.595-1.086-.549-.482-1.273-.955.049-.767-1.425-1.882-.935C403.473,1142.379,403.387,1142.817,403.593,1143.267Z" fill="#231815"/>
      <path id="Path_19467" data-name="Path 19467" d="M398.629,1145.134l-.49-.751c-.881-.023-1.631-2.12-2.259-.577l.283.378C397.66,1143.109,397.306,1145.321,398.629,1145.134Z" fill="#231815"/>
      <path id="Path_19468" data-name="Path 19468" d="M390.733,1144.186c.287.3.567.753,1.013.542l-.118-1.035Z" fill="#231815"/>
      <rect id="Rectangle_168" data-name="Rectangle 168" width="0.74" height="0.148" transform="translate(386.326 1144.437) rotate(-88.475)" fill="#231815"/>
      <path id="Path_19469" data-name="Path 19469" d="M389.869,1143.646l.506.159-.5-.384Z" fill="#231815"/>
      <path id="Path_19470" data-name="Path 19470" d="M384.239,1142.977l.359.3-.132-.523Z" fill="#231815"/>
      <path id="Path_19471" data-name="Path 19471" d="M314.1,1140.884l.554-1.541-.772,1.392-.283-.38-.01.372C313.737,1140.731,313.958,1140.661,314.1,1140.884Z" fill="#231815"/>
      <path id="Path_19472" data-name="Path 19472" d="M385.939,1139.764l-1.124.858a11,11,0,0,0,2.825,1.335Z" fill="#231815"/>
      <path id="Path_19473" data-name="Path 19473" d="M400.666,1140.377c-.324-.117-.936.2-1.374.072a7.147,7.147,0,0,0,2.581,1.367l0-.15c.228-.363.514.013.728.17l.163-.515a27,27,0,0,0-4.308-3.518C398.2,1139.352,400.488,1138.747,400.666,1140.377Z" fill="#231815"/>
      <path id="Path_19474" data-name="Path 19474" d="M399.292,1140.449c-.126-.114-.261-.214-.38-.339A.581.581,0,0,0,399.292,1140.449Z" fill="#231815"/>
      <path id="Path_19475" data-name="Path 19475" d="M392.456,1140.158l-.01.375c.566.677,1.021.17,1.512,1.072C393.827,1141.01,392.957,1140.616,392.456,1140.158Z" fill="#231815"/>
      <path id="Path_19476" data-name="Path 19476" d="M380.128,1140.348l-.242.883.219.005C380.041,1140.94,380.2,1140.424,380.128,1140.348Z" fill="#231815"/>
      <path id="Path_19477" data-name="Path 19477" d="M378.008,1140.148c-.17.811.507.231.873.166C378.673,1139.939,378.3,1140.156,378.008,1140.148Z" fill="#231815"/>
      <path id="Path_19478" data-name="Path 19478" d="M344.208,1139.541c.446-.281.022-.812-.343-.9Z" fill="#231815"/>
      <rect id="Rectangle_169" data-name="Rectangle 169" width="0.595" height="0.148" transform="translate(341.062 1139.165) rotate(-88.475)" fill="#231815"/>
      <path id="Path_19479" data-name="Path 19479" d="M390,1138.689l.328,1.413C390.277,1139.285,391.015,1139.084,390,1138.689Z" fill="#231815"/>
      <path id="Path_19480" data-name="Path 19480" d="M377.281,1139.754c-.1-.185-.307-.19-.508-.2Z" fill="#231815"/>
      <path id="Path_19481" data-name="Path 19481" d="M376.773,1139.559l-.508-.2C376.371,1139.548,376.575,1139.553,376.773,1139.559Z" fill="#231815"/>
      <path id="Path_19482" data-name="Path 19482" d="M341.815,1138.44l.657.167.007-.294C342.26,1138.307,341.751,1138.069,341.815,1138.44Z" fill="#231815"/>
      <path id="Path_19483" data-name="Path 19483" d="M382.457,1138.267l-1.1-.179.353.529-.668.352c.437.012.794.392,1.157.546C381.995,1139.065,382.52,1138.709,382.457,1138.267Z" fill="#231815"/>
      <path id="Path_19484" data-name="Path 19484" d="M371.887,1138.5l.477.013A.518.518,0,0,0,371.887,1138.5Z" fill="#231815"/>
      <path id="Path_19485" data-name="Path 19485" d="M373.135,1138.535l-.771-.02a.823.823,0,0,1,.384.748Z" fill="#231815"/>
      <path id="Path_19486" data-name="Path 19486" d="M347.617,1138.225a4.74,4.74,0,0,0,2.153-.978C348.8,1137.812,347.662,1136.526,347.617,1138.225Z" fill="#231815"/>
      <path id="Path_19487" data-name="Path 19487" d="M379.813,1138.417c-1.324.114-1.783-1.971-2.811-1.855.122.893-.965.422-1.417.852l.216.156C377.21,1137.016,378.487,1138.6,379.813,1138.417Z" fill="#231815"/>
      <path id="Path_19488" data-name="Path 19488" d="M352.562,1137.1c.708-1.833,3.08.082,4.072-1.448l-.871-.394.39-.877c-.845-1.2-1.191.709-1.99.467.5.456.971-.641,1.469-.11-.079.219.129.595-.24.66-.816.348-1.931.911-2.648.3l-1.054,1.079C351.982,1136.861,352.193,1137.239,352.562,1137.1Z" fill="#231815"/>
      <path id="Path_19489" data-name="Path 19489" d="M351.339,1136.179l-1.265.706.217.155C350.678,1136.236,351.6,1137.445,351.339,1136.179Z" fill="#231815"/>
      <path id="Path_19490" data-name="Path 19490" d="M348.2,1135.578l-1.06,1.229C347.656,1136.746,348.547,1136.4,348.2,1135.578Z" fill="#231815"/>
      <path id="Path_19491" data-name="Path 19491" d="M378.738,1137.5l.586.016-.58-.236Z" fill="#231815"/>
      <path id="Path_19492" data-name="Path 19492" d="M375.072,1137.4c.6-.724-.935-.615-.473-1.491-.8-.245-2.092-1.314-2.637-.22C371.687,1137.831,373.774,1136.476,375.072,1137.4Z" fill="#231815"/>
      <path id="Path_19493" data-name="Path 19493" d="M319.885,1135.711l.146,0,.027-1.036C319.978,1135.044,319.381,1135.328,319.885,1135.711Z" fill="#231815"/>
      <path id="Path_19494" data-name="Path 19494" d="M397.585,1137.631l.024-.887-.663-.018-.01.367C397.153,1137.249,397.137,1137.843,397.585,1137.631Z" fill="#231815"/>
      <path id="Path_19495" data-name="Path 19495" d="M349.861,1133.843l-.229.219c-.078.219.215.3.357.527l-.528.5c-1.236-.4-.091.735-.548,1.244l1.189-.489C349.747,1135.4,350.951,1134.169,349.861,1133.843Z" fill="#231815"/>
      <path id="Path_19496" data-name="Path 19496" d="M386.39,1136.595l-.732-.02-.006.217C385.79,1137.023,386.449,1137.041,386.39,1136.595Z" fill="#231815"/>
      <path id="Path_19497" data-name="Path 19497" d="M370.347,1135.8c-.3.066-.657-.167-.884.2C369.663,1136.667,370.7,1136.251,370.347,1135.8Z" fill="#231815"/>
      <path id="Path_19498" data-name="Path 19498" d="M360.154,1135.746a7.07,7.07,0,0,0,3.01-.14C361.643,1134.971,361.693,1135.787,360.154,1135.746Z" fill="#231815"/>
      <path id="Path_19499" data-name="Path 19499" d="M358.9,1135.863c.733.019.9-.791.918-1.383.088-.589-.949-.172-1.393-.037-.084.368.358.232.5.532l-.536.874Z" fill="#231815"/>
      <path id="Path_19500" data-name="Path 19500" d="M363.824,1135.623l1.752.268C365.388,1134.7,364.626,1135.793,363.824,1135.623Z" fill="#231815"/>
      <path id="Path_19501" data-name="Path 19501" d="M353.286,1134.677l-.8-.022-.014.516C352.744,1135.7,353.423,1135.122,353.286,1134.677Z" fill="#231815"/>
      <path id="Path_19502" data-name="Path 19502" d="M383.921,1135.641l-1.027-.027c.213.3.586.163.872.391Z" fill="#231815"/>
      <path id="Path_19503" data-name="Path 19503" d="M376.065,1133.135c.393,1.724,1.828.962,3.068.97l-.447-.159C377.955,1133.781,376.668,1132.557,376.065,1133.135Z" fill="#231815"/>
      <path id="Path_19504" data-name="Path 19504" d="M379.133,1134.1l1.151.4A1.585,1.585,0,0,0,379.133,1134.1Z" fill="#231815"/>
      <path id="Path_19505" data-name="Path 19505" d="M324.386,1131.907l-.016.593.14.3Z" fill="#231815"/>
      <path id="Path_19506" data-name="Path 19506" d="M355.676,1133.11c-.078.145.068.225.134.374l.376-.36Z" fill="#231815"/>
      <path id="Path_19507" data-name="Path 19507" d="M373.436,1132.693c.088-.511-.648-.46-.874-.17C372.7,1132.824,373.144,1132.613,373.436,1132.693Z" fill="#231815"/>
      <path id="Path_19508" data-name="Path 19508" d="M370.944,1132.627l.234-.507c-.3.062-.432-.239-.729-.171C370.218,1132.385,370.806,1132.4,370.944,1132.627Z" fill="#231815"/>
      <path id="Path_19509" data-name="Path 19509" d="M369.8,1131.709l-.591.207c.433.306.427.529.859.688Z" fill="#231815"/>
      <path id="Path_19510" data-name="Path 19510" d="M365.036,1131.437a1.183,1.183,0,0,0,.487,1.046l-.132-.668,1.4-.331Z" fill="#231815"/>
      <rect id="Rectangle_170" data-name="Rectangle 170" width="0.515" height="0.146" transform="translate(342.552 1130.094) rotate(-88.475)" fill="#231815"/>
    </g>
    <g id="Group_861" data-name="Group 861">
      <g id="Group_810" data-name="Group 810">
        <path id="Path_19511" data-name="Path 19511" d="M273.086,1139.517c.116,0,.115-.23,0,0Z" fill="#231815"/>
        <path id="Path_19512" data-name="Path 19512" d="M260.165,1146.171l-.063,1.26c.011.3.495,2.929.784,2.172.081,1.2,3.115,3.7,4.21,3.784.129.072.013,1.035.978.711.489.5,1.9.143,1.576-.034,1.1.793,1.534.3,2.879.17.487.186,2.453-.555,3.044-.054,1.152-1.081,1.9.113,3.013-.864.713-.453,1.664-.207,1.449-1.22-.515-.139,1-2.02.3-2.511l.51-1.4c.257-.187-.539-.3-.593-.437-.006.032.233-.94.137-.807-.142-.678.241-.693.282-1.121.572-.278.427-.332.14-1.274.049-.766-.873-1.252-1.037-1.715.017.025-.614.02-.588.032.323-.834.326-.449-.5-.8-.029-.163.126-1.414-.675-1.476a10.1,10.1,0,0,0-1.886.248.726.726,0,0,0,.094-.338,3.569,3.569,0,0,0-.719.536c-.227-.624.06,0-.366-.539a2.729,2.729,0,0,0-.119-.8,1.636,1.636,0,0,1,.072-.168c-.044,0-.1-.03-.178-.13a4.051,4.051,0,0,1-1.312-.445c0,.021.494-.582.489-.573-.074.02-.112,0-.12-.059-.066.041-.735.506-.828.279-.06-.118.524-.169.477-.439a9.528,9.528,0,0,0-3.781-.11c-.8.023-1.975,1.849-2.684,1.584-.381-.307-.842-.226-1.288-.367,0,.174.2.33.2.518a.575.575,0,0,0-.69.447c-.019-.26-.18-.412-.479-.461.021.064,0,.1-.072.1.012.14.313.915.184.963.031,0-.611.005-.587.006-.025.2.393.366.319.528-.277.381-1.459-.594-.435.651-2,.022-.739.415-1.156,1.1C259.839,1143.743,258.863,1145.38,260.165,1146.171Z" fill="#231815"/>
      </g>
      <g id="Group_811" data-name="Group 811">
        <path id="Path_19513" data-name="Path 19513" d="M278.427,1150.371c.13-.088.253-.169,0,0" fill="#231815"/>
      </g>
      <g id="Group_812" data-name="Group 812">
        <path id="Path_19514" data-name="Path 19514" d="M274.278,1141.13c-.005-.087.022-.109.1-.125C274.508,1141.036,274.407,1141.208,274.278,1141.13Z" fill="#231815"/>
      </g>
      <g id="Group_813" data-name="Group 813">
        <path id="Path_19515" data-name="Path 19515" d="M273.031,1140.028c-.408-.127-.181-.083,0,0" fill="#231815"/>
      </g>
      <g id="Group_814" data-name="Group 814">
        <path id="Path_19516" data-name="Path 19516" d="M272.337,1139.554h0" fill="#231815"/>
      </g>
      <g id="Group_815" data-name="Group 815">
        <path id="Path_19517" data-name="Path 19517" d="M268.343,1153.59c-.264-.661.052,0,0,0" fill="#231815"/>
      </g>
      <g id="Group_816" data-name="Group 816">
        <path id="Path_19518" data-name="Path 19518" d="M268.329,1154.064c-.623-.022.058-.1,0,0" fill="#231815"/>
      </g>
      <g id="Group_817" data-name="Group 817">
        <path id="Path_19519" data-name="Path 19519" d="M266.8,1153.944c-.7-.078-.165-.034,0,0" fill="#231815"/>
      </g>
      <g id="Group_818" data-name="Group 818">
        <path id="Path_19520" data-name="Path 19520" d="M267.9,1138.887c.145-.1.143-.1,0,0" fill="#231815"/>
      </g>
      <g id="Group_819" data-name="Group 819">
        <path id="Path_19521" data-name="Path 19521" d="M267.9,1138.309c-.017-.1.29-.144,0,0" fill="#231815"/>
      </g>
      <g id="Group_820" data-name="Group 820">
        <path id="Path_19522" data-name="Path 19522" d="M264.841,1152.524c.214-.218.112.031,0,0" fill="#231815"/>
      </g>
      <g id="Group_821" data-name="Group 821">
        <path id="Path_19523" data-name="Path 19523" d="M263.384,1151.672c-.026-.1.415-.246,0,0" fill="#231815"/>
      </g>
      <g id="Group_822" data-name="Group 822">
        <path id="Path_19524" data-name="Path 19524" d="M287.261,1157.075a9.975,9.975,0,0,1-.948-.391c.306.156.8-.748.948.391" fill="#231815"/>
      </g>
      <g id="Group_823" data-name="Group 823">
        <path id="Path_19525" data-name="Path 19525" d="M283.878,1160.5c-.341.03-.23-.387-.09-.375.319,0,.256.377.09.375" fill="#231815"/>
      </g>
      <g id="Group_824" data-name="Group 824">
        <path id="Path_19526" data-name="Path 19526" d="M285.649,1140.807c-.064-.038-.269.483-.671.262.056-.378.585-.973.671-.262" fill="#231815"/>
      </g>
      <path id="Path_19527" data-name="Path 19527" d="M280.244,1157.821c0,.184,1.437,1.538,1.789.9.393.018,3.094-1.083,1.88-2.689.05-.405-.674-1.962-1.094-1.412-1.505-.876-1.307.167-2.6.06-.285.664-.318,1.573-.579,2.145" fill="#231815"/>
      <g id="Group_825" data-name="Group 825">
        <path id="Path_19528" data-name="Path 19528" d="M283.977,1152.544a2.793,2.793,0,0,1-1.355-.633c-.062-.5,2.334.446,1.355.633" fill="#231815"/>
      </g>
      <g id="Group_826" data-name="Group 826">
        <path id="Path_19529" data-name="Path 19529" d="M283.83,1151.215c-.148.025-.715-.069-.677-.342.624-.3.718-.089.677.342" fill="#231815"/>
      </g>
      <g id="Group_827" data-name="Group 827">
        <path id="Path_19530" data-name="Path 19530" d="M282.3,1166.5a.943.943,0,0,1-.555-.94c.122.021.948.925.555.94" fill="#231815"/>
      </g>
      <g id="Group_828" data-name="Group 828">
        <path id="Path_19531" data-name="Path 19531" d="M284.3,1138.853c-.083-.043-.3.52-.592.376.153-.719.458-.346.592-.376" fill="#231815"/>
      </g>
      <g id="Group_829" data-name="Group 829">
        <path id="Path_19532" data-name="Path 19532" d="M282.823,1153.3a1.152,1.152,0,0,1-.6-.126c-.054-.406.687-.077.6.126" fill="#231815"/>
      </g>
      <g id="Group_830" data-name="Group 830">
        <path id="Path_19533" data-name="Path 19533" d="M281.556,1151.777a3.4,3.4,0,0,1-.748-.536c.174-.026,1.878.18,1.663.607-.3-.026-.61-.048-.915-.071" fill="#231815"/>
      </g>
      <g id="Group_831" data-name="Group 831">
        <path id="Path_19534" data-name="Path 19534" d="M282.676,1141.894c-.121.005-.794-.024-.217-.282.84-.034.367.008.217.282" fill="#231815"/>
      </g>
      <g id="Group_832" data-name="Group 832">
        <path id="Path_19535" data-name="Path 19535" d="M279.331,1163.471c-.036-.124-.751-.175-.133-.536.422-.039.257.409.133.536" fill="#231815"/>
      </g>
      <g id="Group_833" data-name="Group 833">
        <path id="Path_19536" data-name="Path 19536" d="M279.984,1147.695c.048.025-.426.286-.552.274-.022-.034.06-.61.185-.619.2.065.472.009.367.345" fill="#231815"/>
      </g>
      <g id="Group_834" data-name="Group 834">
        <path id="Path_19537" data-name="Path 19537" d="M279.922,1142.944c-.013,0-1.321.1-1.18.117-.7-1.086,2.149-.19,1.18-.117" fill="#231815"/>
      </g>
      <g id="Group_835" data-name="Group 835">
        <path id="Path_19538" data-name="Path 19538" d="M278.663,1156.138c.249.128-1.506.554-1.954.43-.788-.573-.751-1.536,0-1.875-.037-.259,2.952-.4,1.953,1.445" fill="#231815"/>
      </g>
      <g id="Group_836" data-name="Group 836">
        <path id="Path_19539" data-name="Path 19539" d="M277.588,1159.59c-.263-.2-1.35-1.223-1.2-1.676.625.31,1.5,1.08,1.2,1.676" fill="#231815"/>
      </g>
      <g id="Group_837" data-name="Group 837">
        <path id="Path_19540" data-name="Path 19540" d="M277.8,1140.139a1.088,1.088,0,0,1-.639-.078c-.232-.677,1.362.088.639.078" fill="#231815"/>
      </g>
      <g id="Group_838" data-name="Group 838">
        <path id="Path_19541" data-name="Path 19541" d="M275.46,1156.757a.388.388,0,0,1-.319-.525c.069-.005.094-.038.072-.1.294,0,.533.607.247.625" fill="#231815"/>
      </g>
      <g id="Group_839" data-name="Group 839">
        <path id="Path_19542" data-name="Path 19542" d="M274.2,1166.5c-.518.139-.706-.675-.375-.874.344.19.27.532.375.874" fill="#231815"/>
      </g>
      <g id="Group_840" data-name="Group 840">
        <path id="Path_19543" data-name="Path 19543" d="M275.647,1139.127c-.029-.126-.125-.511.088-.576.67.017-.137.685-.088.576" fill="#231815"/>
      </g>
      <g id="Group_841" data-name="Group 841">
        <path id="Path_19544" data-name="Path 19544" d="M275.193,1139.355c.144.073-.539.214-.579.217-1.094-.752,1.24-.035.579-.217" fill="#231815"/>
      </g>
      <g id="Group_842" data-name="Group 842">
        <path id="Path_19545" data-name="Path 19545" d="M275.995,1128.022c-.515.03.219.5-.729.206-.186.2.058.589-.522.592-.45-.793,1.19-1.591,1.251-.8" fill="#231815"/>
      </g>
      <g id="Group_843" data-name="Group 843">
        <path id="Path_19546" data-name="Path 19546" d="M275.415,1133.305a7.859,7.859,0,0,1-1.506.883c-.11-.267,1.09-2.125,1.506-.883" fill="#231815"/>
      </g>
      <g id="Group_844" data-name="Group 844">
        <path id="Path_19547" data-name="Path 19547" d="M270.808,1155.472c-.073-.137-.311-.055-.175-.385.33.041.39.17.175.385" fill="#231815"/>
      </g>
      <g id="Group_845" data-name="Group 845">
        <path id="Path_19548" data-name="Path 19548" d="M271.3,1134.459c-.291-.057-.856.854-.839-.093.013-.969.633-.231.839.093" fill="#231815"/>
      </g>
      <g id="Group_846" data-name="Group 846">
        <path id="Path_19549" data-name="Path 19549" d="M269.677,1137.761c-.287.054-.21-.416-.048-.426.274-.023.291.118.048.426" fill="#231815"/>
      </g>
      <g id="Group_847" data-name="Group 847">
        <path id="Path_19550" data-name="Path 19550" d="M270.676,1125.072c-.237.112-.027.415-.388.154.083-.554.577-.531.388-.154" fill="#231815"/>
      </g>
      <g id="Group_848" data-name="Group 848">
        <path id="Path_19551" data-name="Path 19551" d="M264.931,1156.964c-.092.067-.133.458-.208.562-.365.052.2-.562.208-.562" fill="#231815"/>
      </g>
      <g id="Group_849" data-name="Group 849">
        <path id="Path_19552" data-name="Path 19552" d="M263.393,1138.378c-.989.048.163-.7,0,0" fill="#231815"/>
      </g>
      <g id="Group_850" data-name="Group 850">
        <path id="Path_19553" data-name="Path 19553" d="M262.276,1140.03c-.762.927-1.607-1.422,0,0" fill="#231815"/>
      </g>
      <g id="Group_851" data-name="Group 851">
        <path id="Path_19554" data-name="Path 19554" d="M260.885,1153.9c-.02-.009-.638.334-.473-.195-.078-.044.734-.194.473.195" fill="#231815"/>
      </g>
      <g id="Group_852" data-name="Group 852">
        <path id="Path_19555" data-name="Path 19555" d="M259.124,1153.344c-.268-.112-2.317.354-.591-.68.875-.525,1.338.025.591.68" fill="#231815"/>
      </g>
      <g id="Group_853" data-name="Group 853">
        <path id="Path_19556" data-name="Path 19556" d="M259.654,1151.379c.387.2-1.846.177-.361-.4.165.023.466.4.361.4" fill="#231815"/>
      </g>
      <g id="Group_854" data-name="Group 854">
        <path id="Path_19557" data-name="Path 19557" d="M257.222,1156.7c-.029-.031-.5.083-.194-.515.229.049.665.476.194.515" fill="#231815"/>
      </g>
      <g id="Group_855" data-name="Group 855">
        <path id="Path_19558" data-name="Path 19558" d="M258.666,1142.6c-.043-.013-.8-.505-.291-.5.3.1.4.261.291.5" fill="#231815"/>
      </g>
      <g id="Group_856" data-name="Group 856">
        <path id="Path_19559" data-name="Path 19559" d="M255.786,1158.147c-.614-.331-.583-.177,0,0" fill="#231815"/>
      </g>
      <g id="Group_857" data-name="Group 857">
        <path id="Path_19560" data-name="Path 19560" d="M256.115,1151.312c-.274-.091-.436.024-.156-.275q.486-.077.156.275" fill="#231815"/>
      </g>
      <g id="Group_858" data-name="Group 858">
        <path id="Path_19561" data-name="Path 19561" d="M253.842,1136.47c-.892-.449-.748-.822,0,0" fill="#231815"/>
      </g>
      <g id="Group_859" data-name="Group 859">
        <path id="Path_19562" data-name="Path 19562" d="M273.017,1139.844h0" fill="#231815"/>
      </g>
      <g id="Group_860" data-name="Group 860">
        <path id="Path_19563" data-name="Path 19563" d="M283.153,1150.873c-.888.1-.451-.116-1-.158.2-.734.762.057,1,.158" fill="#231815"/>
      </g>
    </g>
  </g>
</svg>
