<svg xmlns="http://www.w3.org/2000/svg" width="165.979" height="218.891" viewBox="0 0 165.979 218.891">
  <g id="Group_1321" data-name="Group 1321" transform="translate(-1074.192 -1582.3)" opacity="0.4">
    <g id="Group_863" data-name="Group 863">
      <path id="Path_19564" data-name="Path 19564" d="M1217.71,1618.695c1.327.792.907,3.413,2.636,2.693l-.752-2c-1.8-2.242-3.487-5.235-5.734-6.236C1214.776,1615.061,1216.017,1617.4,1217.71,1618.695Z" fill="#231815"/>
      <path id="Path_19565" data-name="Path 19565" d="M1227.344,1638.535l-.592-1.878C1225.768,1637.08,1226.863,1638.193,1227.344,1638.535Z" fill="#231815"/>
      <path id="Path_19566" data-name="Path 19566" d="M1228.472,1642.932c.332-1.272-.884-2.426-1.071-3.726C1227.661,1640.266,1227.578,1642.011,1228.472,1642.932Z" fill="#231815"/>
      <path id="Path_19567" data-name="Path 19567" d="M1229.092,1644.1l-.443-.264.291.547Z" fill="#231815"/>
      <path id="Path_19568" data-name="Path 19568" d="M1229.909,1648.859c-.5-.936.313-2.062-.658-2.947A3.211,3.211,0,0,0,1229.909,1648.859Z" fill="#231815"/>
      <path id="Path_19569" data-name="Path 19569" d="M1218.634,1628.59l-1.279-.519.165.311C1217.33,1628.979,1218.681,1628.864,1218.634,1628.59Z" fill="#231815"/>
      <path id="Path_19570" data-name="Path 19570" d="M1216.047,1624.67l.236-.125-.5-.933Z" fill="#231815"/>
      <path id="Path_19571" data-name="Path 19571" d="M1219.9,1631.911c.2-.2.07-.437-.053-.669l-.393.209C1219.573,1631.682,1219.618,1631.961,1219.9,1631.911Z" fill="#231815"/>
      <path id="Path_19572" data-name="Path 19572" d="M1209.639,1616.59l.165.311.156-.083c.6.183,1.481.315,1.7-.4-.375-.9-.868-1.634-1.935-1.369l.785,1.477Z" fill="#231815"/>
      <path id="Path_19573" data-name="Path 19573" d="M1212.6,1619.512c.2.191.174.705.572.692.194-.005.272-.242.266-.439Z" fill="#231815"/>
      <path id="Path_19574" data-name="Path 19574" d="M1221.615,1636.089c.067-.436-.15-1.415-.779-1.08C1220.569,1635.646,1221.41,1635.9,1221.615,1636.089Z" fill="#231815"/>
      <path id="Path_19575" data-name="Path 19575" d="M1211.526,1617.486l.5.934.16-.085C1211.937,1618.067,1211.922,1617.474,1211.526,1617.486Z" fill="#231815"/>
      <path id="Path_19576" data-name="Path 19576" d="M1223.213,1640.43c.349-.483-.736-1-.025-1.38-.885-.332-.661-1.244-1.153-1.785C1221.268,1638.671,1223.233,1639.522,1223.213,1640.43Z" fill="#231815"/>
      <path id="Path_19577" data-name="Path 19577" d="M1206.9,1612.954a.739.739,0,0,1,.754-.1c.139,1.019-.952.105-1.016.938.132.429.447.457.808.568l.259-.838c.241.074.6-.017.684.337.325.226.531.615,1.077.126-.887-.53-1.445-2.527-2.773-1.422Z" fill="#231815"/>
      <path id="Path_19578" data-name="Path 19578" d="M1095.145,1705.678c.085.353.411.581.653.847l.187-.595C1095.635,1706.217,1095.5,1705.591,1095.145,1705.678Z" fill="#231815"/>
      <path id="Path_19579" data-name="Path 19579" d="M1082.22,1633.994l.052-.38A.7.7,0,0,0,1082.22,1633.994Z" fill="#231815"/>
      <path id="Path_19580" data-name="Path 19580" d="M1168.035,1731.357c.326.228.816-.931,1.151-.113,2.6-1.378,5.064-.9,7.9-2,1.613-.759,3.083-.843,4.25-2.057l6.23-2.314.082.155c.78-.614,1.321-1.3,2.434-1.293.793-1.919,3-.8,3.6-2.908a60.3,60.3,0,0,1,6.042-3.607c.687-1.367,2.71-1.542,3.153-3.173,1.751.067,2.025-1.876,3.566-2.394l-.166-.313c2.526-2.444,4.48-5.978,6.924-8.77,1.052-2.956,3.643-6.231,3.756-8.486a27.383,27.383,0,0,0,3.013-7.991l.233.073c.183-.8-.589-1.882.428-2.423-.61-.772.242-1.629.342-2.579-.385-3.389,1.327-7,.9-10.459,1.392-3.636-1.881-6.192-.484-9.629-.482-2.239-.02-4.784-.025-6.873.526-1.479-.306-3.235-.379-4.9-1.377.637-.324-2.121-.869-1.635-.059,1.029.465,3.151-.207,3.406l-1.235-1.939c-.517-2.12,1.693-2.694,1.788-3.846l-1-.17.183-.6c.739-.889.106-.755-.235-1.774.119-2.057-1.107-3.6-.234-5.365-.953-.092.407-1.514-.774-1.084-.889-.727.177-.993.238-1.828l-.393.209c-.673.06-.812-.961-.629-1.562a.951.951,0,0,0,1.154-.11c-1.588-1.654-.891-4.52-3.408-5.081-.563-4.095-3.107-6.04-5.039-9.107-1.14-1.391-2.024-3.618-3.733-3.8-1.267-3.524-5.015-4.126-7.466-7.22-4.018-2.259-7.851-5.112-11.839-7.687-.438-.067-1.214.942-1.314-.2.066-.436.3-.563.575-.807-1.157-.481-1.916-2.277-3.581-2.2l.186-.6.282.151.185-.6-.6-.18c-.292-.741-2.177-1.439-3.167-1.413l.186-.6c.114-.161.273-.049.513.025-.859-1.24-2.194-.332-2.584-2.02-.265,2.536-3.088.444-3.771.106,1.024-.345,1.21-.943,2.333-.539l-.239-.075c.016-.908-1.444-.628-1.855-1.21l.5-.765-2.593-.321.23-.521-1.958-.457c-.061.829.745,1.4,1.385,1.658,1.458-.673,1.135,1,1.781,1.451-1.955,1.636-2.943-1.932-4.577-.464,1.176,1.075,4.3.514,4.627,2.836,1.088-1.178,2.795.71,3.792.878,2.131-.731,3.061,1.968,4.657,2.32.488.537,1.81.936,1.234,1.94-.566-.494-1.724-.779-1.781-1.65-.912.186.25.664.021.988a58.059,58.059,0,0,1-11.8-3.616c-.95.106-2.279,1.211-2.819-.2-.267.638-.505.764-1.186.428-1.085-.521-2.3-1.671-3.2-.9.336.82,1.115.007,1.757.463-1.165,1.219-2.906,1.544-4.37,1.822-.38-1.092-2.052.693-1.8-.738a2.185,2.185,0,0,1-2.289.82c-.177-.909.944-.5.819-.738-2.722-.951-2.131,2.63-3.669,3.15-2.916,1.145-6.024.6-9.4.5l.3-.954-1.437-.436c-2.287.817-5.351.742-7.6,1.242l-.124-.234a2.336,2.336,0,0,0-1.6,1.549c2.412-.58,5.453-1.5,8.009-.86-.268.443-1.181.432-1.285,1.186-.1,2.847,2.744.238,4.35.982a20.071,20.071,0,0,1-6.6,1.609c-3.166,2.582-7.7.495-10.525,3.9-1.432-.042-3.859,1.652-5.107.815l.207.389c.114-.162.275-.045.475-.054.1,1.145-.986.426-1.45,1.071-1.194,1.733-3.046,2.418-4.534,3.609-2.064.1-3.3,3.451-5.551,4.146-4.153,2.806-6.055,6.812-8.835,10.684-.592,2.113-2.173,4.251-2.487,6.311-2.136,2.435-2.272,5.4-3.521,8.363a1.368,1.368,0,0,1-.788,2.116c1.019,1.159-.757,1.8-.418,2.821l.282.151a15.45,15.45,0,0,0-1.547,3.916l-1.049-.642c-5.011,1.563-1.92,7.011-2.232,10.772l.629-.135c.133.629-.774,1.011-.683,1.559a25.865,25.865,0,0,0,1.765,10.148c-.439,1.832,1.41,2.846,1.332,4.782l-.6-.375.185,1.3.787-.222c.667,3.345,3.1,5.445,4.518,8.888-.626.332-.051,1.224.072,1.456l.155-.082a.725.725,0,0,1-.092-.75c.482.344,1.058,1.238,1.665,1.815-.01,1.3-1.665.083-1.8,1.154.938-.7,1.641.629,2.4.922.242.073.749-.5.84.255-.038.115-.108.354-.309.361l.751,1.8-.392.208a.8.8,0,0,1,1.048.643c.212.782.235,1.771,1.383,1.661,1.55,3.667,5.944,4.728,8.269,7.788.966.485.393,1.686,1.669,1.809-.472.25-.682,1.363-1.492.792-.566,1.6,2.083.892,1.438,2.334-1.141.505-1.608-.945-2.609-1.31-.356.087-.428.524-.5.762l.277.155a1.18,1.18,0,0,1-.123,1.659,2.553,2.553,0,0,1-1.781-1.648c-.84-.252-2.218-1.519-3.115-.741-.034-1.382-1.761-.465-1.625-1.733-1.427.157-1.687-.7-1.91-1.885-.5-.934-1.285-.714-2.124-.77.084-1.937-2.067-1.994-2.77-3.318-.329-.62-.905-1.517-.042-1.976-.49-.538-2.932.36-2.287-1.081-1.819.371-.071-1.46-1.115-2.1l-.4.209c-.468-1.45-2.134-1.563-2.959-2.924.909-.18.733-.889.477-1.748a1.184,1.184,0,0,1-1.36,1.418c-1.335-.988.649-1.243-.05-2.369-.734-.81-1.026.344-1.678-.308-.688-.731-2.337-1.753-1.573-2.961-.088-.55-.376-1.092-.97-.875-3.2-6.595-4.672-14.3-6.095-21.53-.185-1.3.371-3.289-.915-4.005l.185-.594c.621-2.629-.129-6.129.76-9-1.273-2.019,1.272-1.974.036-4.113,1.764-1.035.636-3.731,1.868-5.585,1.595.353-.612,3.022,1.673,2.206,1.174-1.022-1.175-1.271-.13-2.524.388-.409.809-1.131,1.283-1.184.511-.373-.683-.338.1-.756a1.117,1.117,0,0,1-.356-2c-.642-2.155,3.445-4.327.9-6.466-.559-.107-1.281-.52-1.595-.353-.939.9.515.027.569.7-.9.776-1.547,2.021-.346,2.577l-1.567,1.034a.486.486,0,0,1-.175-.275l-.095.716.243.073-.186.6-.24-.069c-2.223,2.079.388,3.383-.712,5.866l-.361-.109c-.043-.274-.445-.462-.135-.825-1.571.834.178,2.6-.757,3.7l-.63.135a1.3,1.3,0,0,0,.682,2.231,4.671,4.671,0,0,0-.927,3.193c-2.3,2.314-.441,5.423-1.889,8.391-1.422,2.253.017-1.108-1.835-.421l.209-1.311-.6-.181c-.215-.587.3-.758.5-.965-.978-1.078.959-3.5-.444-4.057a10.148,10.148,0,0,0-.582,6.3l.319.029-.5.965,1.234.043c.219.983-.791.222-.894.974-.166,1.586-.123,3.559.495,4.532a37.276,37.276,0,0,0,.047,4.264c1.178,1.073.349,3.112,1.746,3.665-1.363,1.223.813,2.663.364,3.906,1.426,1.539.861,3.333,1.933,4.965l-.364-.11c2.914,6.241,5.968,13.5,10.27,19.708l.6.179c-.118,2.047,1.948,1.611,3,2.291a.71.71,0,0,1,.225-.206,6.231,6.231,0,0,1,3.053,3.467c.869-.26,1.125.8,1.882.7.419,1.173,2.18,1.637,1.811,3.034l-1.811-1.139,1.986,1.841.428-.526c.415.979,2.314.57,1.985,2.039-.393.209-.8-.176-1.075-.326l-.261.841c1.706,1.689,2.939,1.931,4.68,3.5.237-.125.518-.173.549-.487.523.417.135.826.785,1.478,1.915.379,3.259,1.961,4.869,2.9.963.487,2.934-.16,2.928,1.341a136.662,136.662,0,0,0,21.591,8.4,27.815,27.815,0,0,1,7.664,1.721c2.02-2.269,3.405,1.287,5.634-.4a2.047,2.047,0,0,1,.338,1.019c2.811-.595,5.289.085,8.178-.547.935,1.2,3.1-.052,4.731.374C1164.43,1731.776,1166.389,1730.337,1168.035,1731.357ZM1144,1603.237c-1.014.934-2.115-.376-3.168.484.425-.526.929-1.094,1.934-.528,1.688-1,3.727-.383,5.185-1.057,2.7.156,5.232-.385,7.979-.148C1152.175,1602.69,1147.684,1602.779,1144,1603.237Zm-50.557,48.228.393-.209c-1.094.778.586,1.482-.549,2.187C1092.608,1653.107,1093.3,1652.141,1093.446,1651.465Zm81.3-33.611-2.541-1.545c2.077-1.4,1.742,1.373,3.275.656l-.207-.388c2.813,1.5,5.819,2.8,7.818,5.233C1180.286,1620.7,1177.145,1618.58,1174.746,1617.854Zm-29.739,101.073c-1.614.759-2.8-.712-4.056-.239-1.32-.4-2.432-.408-3.4-1.092l.109-.554-1.523-.591c2.032.219,1.264-2.168,3.019-2.1,1.565.865,2.624,2.1,4.61,1.844.743,1.4,2.029.419,2.9,1.853l.915.215.18-1c.413.776,2.018-.374,1.335,1.189l1.391-.038-.263.835.36.108C1149.023,1719.093,1146.773,1719.786,1145.007,1718.927Z" fill="#231815"/>
      <path id="Path_19581" data-name="Path 19581" d="M1092.951,1703.447l.317.032a1.177,1.177,0,0,0-.561-.81C1092.561,1702.935,1093.271,1702.952,1092.951,1703.447Z" fill="#231815"/>
      <path id="Path_19582" data-name="Path 19582" d="M1082.369,1632.888l-.1.726C1082.366,1633.374,1082.494,1633.124,1082.369,1632.888Z" fill="#231815"/>
      <path id="Path_19583" data-name="Path 19583" d="M1224.069,1643.374c.427-.528-.186-1.3-.359-2.008l-.584.61C1223.376,1642.446,1223.47,1643.2,1224.069,1643.374Z" fill="#231815"/>
      <path id="Path_19584" data-name="Path 19584" d="M1219.568,1637.177c.057.674.687.535,1.159.284-.53-.619-.477-2.039-1.075-2.024C1219.821,1635.947,1220.192,1636.647,1219.568,1637.177Z" fill="#231815"/>
      <path id="Path_19585" data-name="Path 19585" d="M1224.251,1644.379a1.429,1.429,0,0,0,.057.189,1.575,1.575,0,0,1,.1-.176Z" fill="#231815"/>
      <path id="Path_19586" data-name="Path 19586" d="M1224.308,1644.568a1.135,1.135,0,0,0,.494,1.512C1224.9,1645.486,1224.494,1645.069,1224.308,1644.568Z" fill="#231815"/>
      <path id="Path_19587" data-name="Path 19587" d="M1224.089,1644.361l.162.018a1.159,1.159,0,0,1,.026-.614Z" fill="#231815"/>
      <path id="Path_19588" data-name="Path 19588" d="M1206.8,1611.812c-.013-.6-1.442-.434-.7-1.323a1.014,1.014,0,0,0-1.442-.435A8.581,8.581,0,0,0,1206.8,1611.812Z" fill="#231815"/>
      <path id="Path_19589" data-name="Path 19589" d="M1220.512,1638.574c-.739.7.035,1.579.047,2.368l.87-.263C1221.3,1640.25,1221.187,1638.518,1220.512,1638.574Z" fill="#231815"/>
      <path id="Path_19590" data-name="Path 19590" d="M1221.323,1641.434c.348,1.217-.256,2.736.787,3.183,1.049-1.06-.563-2.2-.392-3.393Z" fill="#231815"/>
      <path id="Path_19591" data-name="Path 19591" d="M1225.627,1649.535c0-.2.114-.358.031-.515l-.423.723Z" fill="#231815"/>
      <path id="Path_19592" data-name="Path 19592" d="M1226.362,1650.346l-.862.653.521.223-.257.837.6.181C1226.786,1651.516,1226.015,1650.827,1226.362,1650.346Z" fill="#231815"/>
      <path id="Path_19593" data-name="Path 19593" d="M1222.971,1645.855c-.958-.091-1.273,1.778-1.39,1.937C1221.885,1647.032,1223.713,1647.058,1222.971,1645.855Z" fill="#231815"/>
      <path id="Path_19594" data-name="Path 19594" d="M1228.793,1658.138c-.092-.551-.147-1.218-.236-1.77C1228.366,1656.77,1227.913,1658.006,1228.793,1658.138Z" fill="#231815"/>
      <path id="Path_19595" data-name="Path 19595" d="M1223.49,1647.777l-.126-.236-.55.292C1223.017,1648.028,1223.253,1647.9,1223.49,1647.777Z" fill="#231815"/>
      <path id="Path_19596" data-name="Path 19596" d="M1226.91,1655.543l-.36-2.006C1226.517,1653.854,1225.991,1655.336,1226.91,1655.543Z" fill="#231815"/>
      <path id="Path_19597" data-name="Path 19597" d="M1223.643,1649.4l-.862.655c.36.109.641.259.992-.028C1223.927,1649.741,1223.725,1649.548,1223.643,1649.4Z" fill="#231815"/>
      <path id="Path_19598" data-name="Path 19598" d="M1223.409,1651.617a.67.67,0,0,1,.676-.061l-.255-.864C1223.878,1651.166,1222.722,1651.078,1223.409,1651.617Z" fill="#231815"/>
      <path id="Path_19599" data-name="Path 19599" d="M1227.3,1657.23c-1.981.256.41,2.284-1.465,2.18l-.061,2.728c.2-.006.359.108.472-.052-.132-.83.164-1.785.107-2.654l1.23.046Z" fill="#231815"/>
      <path id="Path_19600" data-name="Path 19600" d="M1196.622,1602.139l-.156.281c.392,1.489.8-.22,1.6.152-.724-.412-1.3-1.307-2.174-1.243a1.6,1.6,0,0,0,.1.947C1196.144,1602.193,1196.339,1601.99,1196.622,1602.139Z" fill="#231815"/>
      <path id="Path_19601" data-name="Path 19601" d="M1224.011,1653.692l.154-.082c.111-.362-.292-.743-.1-1.146A.835.835,0,0,0,1224.011,1653.692Z" fill="#231815"/>
      <path id="Path_19602" data-name="Path 19602" d="M1227.537,1660.9c.117-.162.233-.321.072-.439l-.7.578C1227.188,1661.188,1227.38,1660.985,1227.537,1660.9Z" fill="#231815"/>
      <path id="Path_19603" data-name="Path 19603" d="M1226.384,1662.712c-1.729.919-.057,2.926-.713,3.776-.608,3.221,2.192,6.025-.38,8.389l.626-.333c.727.411.579,1.09,1.031,1.551-1.293.984-.095,1.345-1.1,2.481.618.973.643,2.156,1.9,1.685l.506-4.362-.109.557-.919-.212c.58-.808,1.784-1.947.975-2.713,1.686-.995-.441-2.163-.229-3.275a4.583,4.583,0,0,0-.131-2.527c-.241-1.965,1.016-4.531-.681-5.828a12.979,12.979,0,0,0-.07,4.035C1226.044,1665.491,1226.291,1663.863,1226.384,1662.712Z" fill="#231815"/>
      <path id="Path_19604" data-name="Path 19604" d="M1229.193,1679l.656-4.644-.9,4.571Z" fill="#231815"/>
      <path id="Path_19605" data-name="Path 19605" d="M1240.061,1698.883l.11-.556-.469.448Z" fill="#231815"/>
      <path id="Path_19606" data-name="Path 19606" d="M1201.087,1721.684a.982.982,0,0,0-1.107.191.655.655,0,0,0,.523.42l-.413,1.119a12.356,12.356,0,0,0,2.279-1.211l-.165-.31C1201.684,1721.668,1200.993,1722.835,1201.087,1721.684Z" fill="#231815"/>
      <path id="Path_19607" data-name="Path 19607" d="M1222.207,1694.491c-2.956,1.072-1.26,4.264-3.771,5.6.581,1.485-1.992,1.757-1.363,3.32l-.713.177c-.653,2.943-2.912,5.142-4.327,7.788l.766.494c-.268.442-.57,1.2-1.21.942-.246-.267.106-.554.1-.752-1.331-.793-.683,1.56-2.045,1.086.05.274.448.46.14.826-2.656.312-3.546,3.381-5.581,4.86-.782.618-2.307,1.725-2,3.063.714.018,1.08-1.573,2.129-.932.2-1.9,2.344-1.846,3.115-2.853,2.88-2.928,6.309-6.149,8.254-9.877,2.391-1.571,3-4.987,5.058-6.983-.1-.944-.2-2.088,1.183-2.324-.371-2.6,2.89-4.23,2.048-6.58,1.179-.627,1.6-3.048,1.732-4.516a15.274,15.274,0,0,0,1.446-6.759l-.548.291-.124-.234-.944.5C1225.09,1686.067,1223.071,1690.239,1222.207,1694.491Z" fill="#231815"/>
      <path id="Path_19608" data-name="Path 19608" d="M1154.178,1584.646l.6.184c2.74.041,4.975.648,7.638.733,1.716.184,2.253,1.2,3.852,1.75.709-.377,1.4.352,2.352.444-.22-1.178,1.114.008.943-.5l-.993-.168-.157.279c-.189.2-.514-.024-.716-.017-.169-.51.65-1.246.773-1.207-2.076-.495-4.9-.3-6.991-1.784-2.508,1.734-3.808-1.47-6.186-1.2C1154.018,1582.835,1154.648,1584.2,1154.178,1584.646Z" fill="#231815"/>
      <path id="Path_19609" data-name="Path 19609" d="M1168.638,1594.041c0-.2.114-.361-.049-.473l-.467.447A.555.555,0,0,0,1168.638,1594.041Z" fill="#231815"/>
      <path id="Path_19610" data-name="Path 19610" d="M1166.576,1592.439c-.4-.188-1.23-.044-.887-.723-2.016.371-3.806-1.673-5.1-.887l.208.393C1162.916,1590.289,1164.113,1594.05,1166.576,1592.439Z" fill="#231815"/>
      <path id="Path_19611" data-name="Path 19611" d="M1160.586,1588.931l-.841-.25-.013.59C1159.864,1588.84,1160.622,1589.166,1160.586,1588.931Z" fill="#231815"/>
      <path id="Path_19612" data-name="Path 19612" d="M1159.73,1589.589l0-.318A.549.549,0,0,0,1159.73,1589.589Z" fill="#231815"/>
      <path id="Path_19613" data-name="Path 19613" d="M1158.67,1592.148c.652.851,2.467.287,2.909.551C1160.574,1592.134,1159.529,1591.493,1158.67,1592.148Z" fill="#231815"/>
      <path id="Path_19614" data-name="Path 19614" d="M1159.044,1589.253l-.582.807.6.183C1159.181,1590.079,1159.406,1589.558,1159.044,1589.253Z" fill="#231815"/>
      <path id="Path_19615" data-name="Path 19615" d="M1157.943,1589.837c0-.044-.178-.056-.415-.059A.886.886,0,0,0,1157.943,1589.837Z" fill="#231815"/>
      <path id="Path_19616" data-name="Path 19616" d="M1157.528,1589.778c-.437-.169-.47-.691-.917-.93C1155.2,1589.827,1156.731,1589.771,1157.528,1589.778Z" fill="#231815"/>
      <path id="Path_19617" data-name="Path 19617" d="M1153.6,1583.557l-.6-.18.5.934Z" fill="#231815"/>
      <path id="Path_19618" data-name="Path 19618" d="M1152.889,1589.426l.836.254c.257-1.036,1.2.165,1.705-.4l-.841-.257c-.139-.824,1.249-1.062,1.286-1.18l-.365-.307c-1.352-.079-3.277,1.044-4.059-.238a5.883,5.883,0,0,1-4.081.471c-.236.125-1.984.255-1.288,1.181.526.422,1.379-.632,1.6.351-.936.9-2.406.78-3.718.776,1.954.459,3.833.963,5.571.438l.132.627C1150.626,1589.533,1152.983,1592.072,1152.889,1589.426Z" fill="#231815"/>
      <path id="Path_19619" data-name="Path 19619" d="M1147.528,1583.889c1.855-.487,3.994,1.071,4.788-.85-1.229-.043-1.224.353-2.488.626l.029-.318c-.716-.214-1.411-1.145-2.277-.685l.239.072Z" fill="#231815"/>
      <path id="Path_19620" data-name="Path 19620" d="M1153.076,1590.726c1.425-.159,1.511,1.9,2.852,1.382l-.844-.254c-.242-.268.031-.514.1-.752.16.114.6-.017.684.334l.549-.292-.206-.389C1155.032,1591.185,1153.766,1589.561,1153.076,1590.726Z" fill="#231815"/>
      <path id="Path_19621" data-name="Path 19621" d="M1154.242,1595.2c-2.049-1.008-2.865-.079-4.788-.854l.626-.531c-1.329-.792-2.77.473-4.287.079l.071-.24c-1.006-.562-1.766,1.042-2.405.782.5.936.317.03,1.2.562-.193.2.013.392.137.626a.682.682,0,0,0,.859-.659c.5,1.135,2.39.329,3.588.5-.02-.792.542-.491.817-.735l.173.7C1151.543,1595.435,1153.379,1595.856,1154.242,1595.2Z" fill="#231815"/>
      <path id="Path_19622" data-name="Path 19622" d="M1215.229,1712.272l.678-.057.061-.832Z" fill="#231815"/>
      <path id="Path_19623" data-name="Path 19623" d="M1146.381,1582.3l.138.579c.155-.027.3-.056.428-.083Z" fill="#231815"/>
      <path id="Path_19624" data-name="Path 19624" d="M1146.519,1582.879l-.243.047c.092.03.189.048.276.079Z" fill="#231815"/>
      <path id="Path_19625" data-name="Path 19625" d="M1096.926,1605.283c2.57-2.37,4.945-4.727,8.125-6.515a19.291,19.291,0,0,1,5.055-3.386l-.207-.39a110.162,110.162,0,0,1,17.579-8.637c1.08.524,2.083-1.01,2.721-.948,1.217-.548,2.811-.4,3.792-1.015,2.893-.242,6.561-1.49,8.847-.608a17.622,17.622,0,0,1,3.438-.858c-1.923-.6-3.994-.179-5.995.22-.481-.144-1.161-.481-1.265.272-.894-.723-2.259.3-2.935.361a22.06,22.06,0,0,0-3.5-.137c-2.52,1.339-4.756.725-7.1,2.57-1.011-.764-1.186.431-2.151-.055-2.461,1.8-6.447,3.223-9.561,4.382-.744,2.392-3.881,2.362-5.4,3.867l.845-1.447-3.36,2.783c-.13,1.267-1.695.6-2.119,1.322-2.6.983-2.975,3.88-5.635,3.995-.26.836-1.164,1.216-1.752,1.832C1096.692,1603.708,1095.886,1605.033,1096.926,1605.283Z" fill="#231815"/>
      <path id="Path_19626" data-name="Path 19626" d="M1153.557,1596.759l-.053-.669c-1.8-.542-3.162.685-4.336,1.5C1150.527,1598.072,1151.85,1596.769,1153.557,1596.759Z" fill="#231815"/>
      <path id="Path_19627" data-name="Path 19627" d="M1096.5,1613.594c.52.222.906-.383,1.385-.238l-.6-.179c-.48-2.044,3.117-.962,1.776-2.542l2.2-.772-.238-.077c-.053-.471.014-1.3.684-1.362,1.606.549,1.915-1.712,3.615-1.921-.166-.508-.749-1.793-.049-2.367.44.066.409.579.655.849.9-.777,1.051-2.952,2.537-2.044.793-2.119,3.467-1.446,4.117-2.884,4.181-1.229,4.553-6.216,9.037-6.5a11.164,11.164,0,0,1,4.923-2.12c1.956-1.434,4.041-.546,6.048-1.514,1.518.39,3.265-1.239,5.109-.816,2.7.162,5.173-1.255,7.617-.254.542-2.783-2.085-1.087-3.558-1.208a39.713,39.713,0,0,0-6.472.148,1.071,1.071,0,0,1,.1,1.139c-.431.135-.78.618-1.223.356l.728-1.287c-2.068-.1-4.263,3.164-6.914,1.974-2.743,1.66-5.784.679-7.956,3.229-1.765-.857-3.775,1.81-5.4,2.166-.427.53-1.242-.434-1.419.557-2.794,1.384-6.071,4.123-8.221,5.764.154-.082.349-.284.631-.133-1.662,2.178-4.214,3.636-5.722,5.735-1.131.9.783,1.28.68,2.035-1.412.75-2.495,2.126-4.027,3.038C1097.124,1612.866,1096.577,1613.353,1096.5,1613.594Z" fill="#231815"/>
      <path id="Path_19628" data-name="Path 19628" d="M1145.683,1596.351l-.39.207a2.933,2.933,0,0,0-.241,1.827c1.151-.113,1.25-1.062,2.521-1.138C1147.154,1596.27,1145.583,1597.1,1145.683,1596.351Z" fill="#231815"/>
      <path id="Path_19629" data-name="Path 19629" d="M1211.906,1718.336l-1.01,1.337.553-.294C1211.841,1719.171,1212.428,1718.757,1211.906,1718.336Z" fill="#231815"/>
      <path id="Path_19630" data-name="Path 19630" d="M1138.885,1590.376c1.47.116,3.5.34,4.319-.4Z" fill="#231815"/>
      <path id="Path_19631" data-name="Path 19631" d="M1142.908,1596.628l.207.389c.434-.13,1.393.157,1.419-.555Z" fill="#231815"/>
      <path id="Path_19632" data-name="Path 19632" d="M1209.729,1720.69l-.083-.155-.467.447Z" fill="#231815"/>
      <path id="Path_19633" data-name="Path 19633" d="M1207.343,1722.457c.03,1.58-1.893.806-2.382,1.964,1.517.391,2.785-1.578,3.481-2.547C1207.967,1721.926,1208.06,1722.477,1207.343,1722.457Z" fill="#231815"/>
      <path id="Path_19634" data-name="Path 19634" d="M1138.171,1590.554c-.044-.273-.519-.224-.759-.1l.207.39Z" fill="#231815"/>
      <path id="Path_19635" data-name="Path 19635" d="M1140.184,1595.675c-1.022.543-2.336.145-3.115.959A6.439,6.439,0,0,0,1140.184,1595.675Z" fill="#231815"/>
      <path id="Path_19636" data-name="Path 19636" d="M1137.983,1594.747l.062-.829c-.633.14-.937.9-1.007,1.331.791-.219,2.153.257,2.495-.426Z" fill="#231815"/>
      <path id="Path_19637" data-name="Path 19637" d="M1136,1595c-1.949-.064-3.24.919-4.818,1.362C1132.813,1596.4,1134.776,1595.354,1136,1595Z" fill="#231815"/>
      <path id="Path_19638" data-name="Path 19638" d="M1203.331,1726.287c.277-.049.268-.442.344-.685l-.663.654Z" fill="#231815"/>
      <path id="Path_19639" data-name="Path 19639" d="M1133.787,1603.169l1.73-.919c-.666.456-1.751-.266-2.093.614C1133.585,1602.977,1133.788,1602.973,1133.787,1603.169Z" fill="#231815"/>
      <path id="Path_19640" data-name="Path 19640" d="M1131.329,1599.485l1.234.043.733-.889Z" fill="#231815"/>
      <path id="Path_19641" data-name="Path 19641" d="M1198.858,1723.37l-.787.418c.366.306.634-.138.911-.184Z" fill="#231815"/>
      <path id="Path_19642" data-name="Path 19642" d="M1130.311,1596.628c-.36-.109-.693-.928-1.2-.36.023,1.183-1.184.427-1.766,1.235C1128.332,1596.88,1129.657,1597.477,1130.311,1596.628Z" fill="#231815"/>
      <path id="Path_19643" data-name="Path 19643" d="M1130.363,1600.893l.124.233a2.144,2.144,0,0,1,1.028-.344Z" fill="#231815"/>
      <path id="Path_19644" data-name="Path 19644" d="M1153.393,1737.677a6.1,6.1,0,0,0-1.121-.019A2.964,2.964,0,0,0,1153.393,1737.677Z" fill="#231815"/>
      <path id="Path_19645" data-name="Path 19645" d="M1149.935,1737.879l.919.206a3.559,3.559,0,0,1,1.418-.427C1151.4,1737.526,1150.532,1737.259,1149.935,1737.879Z" fill="#231815"/>
      <path id="Path_19646" data-name="Path 19646" d="M1187.751,1727.869c-.75.3-2.025.179-2.246.9l-.653-.85c0,1.9-2.017.571-2.943,1.863-1.866.093-2.991,1.389-5.339,1.338-1.768,2.735-5.265.7-6.788,3.906-.825.337-2.783-.119-3.243.725-3.841.544-8.676,1.113-12.675,1.74a1.605,1.605,0,0,1-.471.19c1.854.177,3.8.913,5.472-.447a67.6,67.6,0,0,0,16.657-3.162c1.359.038,2.216-1.537,3.3-.8.5-.75,1.689-.654,2.068-.855,3.658-1.844,8.647-2.7,12.441-5.41a8.722,8.722,0,0,0,4.056-1.854C1193.969,1723.271,1191.2,1727.538,1187.751,1727.869Z" fill="#231815"/>
      <path id="Path_19647" data-name="Path 19647" d="M1179,1733.417a1.926,1.926,0,0,0-.182-.147c-.016.03-.041.045-.058.077Z" fill="#231815"/>
      <path id="Path_19648" data-name="Path 19648" d="M1128.659,1603a1.093,1.093,0,0,1,.1,1.145l2.486-.822-1.21-.755-.073.24C1129.574,1603.014,1129.141,1603.342,1128.659,1603Z" fill="#231815"/>
      <path id="Path_19649" data-name="Path 19649" d="M1127.723,1601.8c.206.387,1.493-.594,1.614-.558C1128.823,1601.414,1127.941,1601.083,1127.723,1601.8Z" fill="#231815"/>
      <path id="Path_19650" data-name="Path 19650" d="M1126.916,1597.436l-.944.5.282.147C1126.446,1597.882,1127.122,1597.825,1126.916,1597.436Z" fill="#231815"/>
      <path id="Path_19651" data-name="Path 19651" d="M1194.842,1730.8l.553-.294-.083-.157Z" fill="#231815"/>
      <path id="Path_19652" data-name="Path 19652" d="M1126.227,1602.594l.31-.364-.858.656Z" fill="#231815"/>
      <rect id="Rectangle_171" data-name="Rectangle 171" width="1.689" height="0.173" transform="translate(1122.193 1599.547) rotate(-27.981)" fill="#231815"/>
      <path id="Path_19653" data-name="Path 19653" d="M1125.326,1605.069l.455-1.041C1125.346,1604.158,1124.881,1604.607,1125.326,1605.069Z" fill="#231815"/>
      <path id="Path_19654" data-name="Path 19654" d="M1123.86,1605.345l.709-.377-.123-.232Z" fill="#231815"/>
      <path id="Path_19655" data-name="Path 19655" d="M1110.065,1606.686l.29.544c3.092-2.139,6.425-4.408,9.4-6.387-1.277-.326-2.188-.139-2.794,1.18-.507-1.327-1.316-.2-1.868.1l1.233.041c-1.082,1.376-2.816.2-3.09,2.342C1112.013,1604.851,1111.119,1606.024,1110.065,1606.686Z" fill="#231815"/>
      <path id="Path_19656" data-name="Path 19656" d="M1119.687,1603a3.393,3.393,0,0,0,.853-.681A1.177,1.177,0,0,0,1119.687,1603Z" fill="#231815"/>
      <path id="Path_19657" data-name="Path 19657" d="M1115.122,1605.4c-.65,1.245-3.064,1.628-2.678,3.121,1.546-.322,1.868-1.99,3.569-2.394.35-.288-.651-.654.261-.835.887.723,1.249-1.067,2.328-.741.854-.254.814-.977,1.085-1.545C1118.258,1603.873,1116.133,1604.209,1115.122,1605.4Z" fill="#231815"/>
      <path id="Path_19658" data-name="Path 19658" d="M1120.355,1604.813l-.466.446.548-.291Z" fill="#231815"/>
      <path id="Path_19659" data-name="Path 19659" d="M1115.3,1608c.276-.049.84.251.87-.264l-.082-.155Z" fill="#231815"/>
      <path id="Path_19660" data-name="Path 19660" d="M1182.142,1735.148l.6.18.5-.765Z" fill="#231815"/>
      <path id="Path_19661" data-name="Path 19661" d="M1111.737,1610.788c.355-.287,1.031-.345,1.256-.864C1112.479,1609.9,1111.608,1610.161,1111.737,1610.788Z" fill="#231815"/>
      <path id="Path_19662" data-name="Path 19662" d="M1106.631,1613.5c1.437-1.658,3.4-2.9,5.109-4.41C1109.688,1609.583,1107.706,1611.732,1106.631,1613.5Z" fill="#231815"/>
      <path id="Path_19663" data-name="Path 19663" d="M1104.268,1618.154l2.931-2.254c.749-2.2,2.96-2.773,3.989-4.82C1108.209,1612.865,1106.172,1616.044,1104.268,1618.154Z" fill="#231815"/>
      <path id="Path_19664" data-name="Path 19664" d="M1094.292,1621.758a2.116,2.116,0,0,1,.1,2.844,45.316,45.316,0,0,0,3.64-5.335C1096.287,1620.04,1096.368,1621.541,1094.292,1621.758Z" fill="#231815"/>
      <path id="Path_19665" data-name="Path 19665" d="M1103.962,1613.023c-.355-1.806,2.1-2.113,2.674-3.119.413-1.117,2.3-.221,1.988-1.754-.587.214-1.264.273-1.595-.35-.416.921-2.609.786-1.785,2.146-1.344.116-1.245,2.957-3.136,1.867-.423.722.887.53.461,1.252a1.49,1.49,0,0,0-1.488.99c.46,1.6-2.467,3.4-2.945,5.029.1-.179.207-.349.3-.527C1101.029,1617.178,1101.126,1614.329,1103.962,1613.023Z" fill="#231815"/>
      <path id="Path_19666" data-name="Path 19666" d="M1098.136,1619.084c-.034.059-.071.122-.1.183.022-.01.04-.019.058-.029A1.56,1.56,0,0,1,1098.136,1619.084Z" fill="#231815"/>
      <path id="Path_19667" data-name="Path 19667" d="M1110.659,1614.26l-.86.656C1110.4,1615.292,1110.387,1614.505,1110.659,1614.26Z" fill="#231815"/>
      <path id="Path_19668" data-name="Path 19668" d="M1102.479,1603.028l.291.547.577-.806Z" fill="#231815"/>
      <path id="Path_19669" data-name="Path 19669" d="M1172.5,1737.871c.448.461,1.072-.07,1.308-.2C1173.483,1737.25,1172.5,1737.871,1172.5,1737.871Z" fill="#231815"/>
      <path id="Path_19670" data-name="Path 19670" d="M1108.513,1616.1l-.969,1.013.391-.208Z" fill="#231815"/>
      <path id="Path_19671" data-name="Path 19671" d="M1101.862,1619.132a13.548,13.548,0,0,0,2.011-2.665c.291-1.154,2.96-1.071,1.893-2.7-2.272,1.6-2.964,4.471-5.238,6.076-.959,1.609-1.994,3.459-2.915,4.948.823-.539.981-2.323,2.415-2.282a12.637,12.637,0,0,0-.275,2.14,4.047,4.047,0,0,0,1.577-2.535l-.684-.337C1100.785,1620.7,1101.883,1620.119,1101.862,1619.132Z" fill="#231815"/>
      <path id="Path_19672" data-name="Path 19672" d="M1107.2,1617.8l-.177.993.391-.207C1107.689,1618.333,1107.249,1618.071,1107.2,1617.8Z" fill="#231815"/>
      <path id="Path_19673" data-name="Path 19673" d="M1105.29,1619.711c-1,1.328-2.353,3.146-2.443,4.494a12.2,12.2,0,0,0,3.806-6.117C1106.225,1618.615,1105.319,1619,1105.29,1619.711Z" fill="#231815"/>
      <path id="Path_19674" data-name="Path 19674" d="M1167.929,1733.808l-1.179.626,1.076.129C1167.825,1734.368,1168.095,1734.121,1167.929,1733.808Z" fill="#231815"/>
      <path id="Path_19675" data-name="Path 19675" d="M1099.254,1606.441c-.92-.212-.972,1.015-1.678,1.391l.68.336C1099.128,1607.906,1099.067,1607.039,1099.254,1606.441Z" fill="#231815"/>
      <path id="Path_19676" data-name="Path 19676" d="M1098.41,1609.783c.545-.489.1-.751.21-1.312-1.2,1.539-3.2,2.9-3.879,4.461a4.574,4.574,0,0,0,2.758-2.962C1097.775,1609.921,1098.046,1609.476,1098.41,1609.783Z" fill="#231815"/>
      <path id="Path_19677" data-name="Path 19677" d="M1101.747,1621.19l.943-.5.874-1.961Z" fill="#231815"/>
      <path id="Path_19678" data-name="Path 19678" d="M1092.889,1608.123l.451.462.185-.6,1.116.2-.15-1.614c.639.257.7-.575.97-.818C1093.265,1605.03,1094.513,1607.759,1092.889,1608.123Z" fill="#231815"/>
      <path id="Path_19679" data-name="Path 19679" d="M1091.844,1611.079l1.233-1.656c-.331-.624-1.09-.719-1.912-.384.612.973-1.53,1.116-.712,2.274l-1.23-.045c.677.143.334.824.422,1.175-.468.45-1.026.349-1.5.4-.622.533-.258,1.036.028,1.382a9.634,9.634,0,0,0-3.036,3.008l.361.111-.924,3.384c1.465-2.173,4.106-5.175,4.883-7.683C1090.6,1612.731,1090.527,1611.077,1091.844,1611.079Z" fill="#231815"/>
      <path id="Path_19680" data-name="Path 19680" d="M1087.861,1627.515l.355.068C1088.065,1627.441,1087.953,1627.443,1087.861,1627.515Z" fill="#231815"/>
      <path id="Path_19681" data-name="Path 19681" d="M1084.911,1629.136a.34.34,0,0,0,.29.547c-.663-1.248,1.283-1.383,1.183-2.327l-.244-.069c.555-.3.611-1.324,1.29-1.185l-.71,2.275c.7.3.847-.631,1.141-.862l-.2-.034c1.324-1.108-.519-1.923-.261-2.764.917.015,1.085-1.372,2.206-.97.7-.575.133-1.27.16-1.981l.595.184.262-.838c.6-.016,1.223-2.251,2.051-.691.434-.132.177-.994.863-.658a1.453,1.453,0,0,0-1.443-.434c.63-.334.373-1.195,1.048-1.255.894-.97-.035-1.578-.052-2.368.158-.084.35-.288.637-.137l-.112.356c1.792.346.244-1.627.9-2.472-2.3,1.919-2.972,4.074-4.984,6.542.336.822-.808,1.327-1.153,2.008-.393.011-.407-.582-.648-.852l-.4.21a1.176,1.176,0,0,0,.1,1.143.74.74,0,0,1,.757-.1c-.125,1.662-2.634,3.2-1.907,3.808l-.238-.072c-.165-.114-.045-.275-.052-.474-.7.772-.487,1.358-.948,2.2l-.6-.181-.449,1.436c.515-.173.5-.963,1.254-.865Z" fill="#231815"/>
      <path id="Path_19682" data-name="Path 19682" d="M1093.894,1618.171c.919.212.972-1.213,1.325-1.5C1094.3,1616.46,1094.322,1617.646,1093.894,1618.171Z" fill="#231815"/>
      <path id="Path_19683" data-name="Path 19683" d="M1100.128,1627.243l-.613,1.127.553-.294C1100.1,1627.758,1100.37,1627.516,1100.128,1627.243Z" fill="#231815"/>
      <path id="Path_19684" data-name="Path 19684" d="M1100.01,1629.3l-.719-.414c-.472.251-.168,1.586-.931,1.291l-.286,1.352.555.1C1099.012,1630.833,1099.995,1630.412,1100.01,1629.3Z" fill="#231815"/>
      <rect id="Rectangle_172" data-name="Rectangle 172" width="0.624" height="0.262" transform="translate(1091.292 1615.163) rotate(-27.981)" fill="#231815"/>
      <path id="Path_19685" data-name="Path 19685" d="M1097.245,1628.079c.185-.6-.5-.936-.935-1.2l-.381,1.005c.865-.46,1.132.991,1.76.658C1098,1627.977,1097.524,1628.227,1097.245,1628.079Z" fill="#231815"/>
      <path id="Path_19686" data-name="Path 19686" d="M1144.465,1717.516c.126.236.518.227.755.1l-.208-.392Z" fill="#231815"/>
      <path id="Path_19687" data-name="Path 19687" d="M1142.1,1716.676c.554-.092.572.5,1.049.642C1143.377,1716.8,1142.57,1716.229,1142.1,1716.676Z" fill="#231815"/>
      <path id="Path_19688" data-name="Path 19688" d="M1089.4,1617.866l.206.388.5-.765Z" fill="#231815"/>
      <path id="Path_19689" data-name="Path 19689" d="M1095.464,1628.523l-1.262,2.171.626-.332C1094.331,1629.426,1095.8,1629.146,1095.464,1628.523Z" fill="#231815"/>
      <path id="Path_19690" data-name="Path 19690" d="M1095.848,1631.513l.626-.332c-.044-.274.232-.522-.016-.788Z" fill="#231815"/>
      <path id="Path_19691" data-name="Path 19691" d="M1092.262,1629.324l.87-2.154C1092.264,1627.428,1092.094,1628.618,1092.262,1629.324Z" fill="#231815"/>
      <path id="Path_19692" data-name="Path 19692" d="M1095.018,1631.657c-.461.845-.365,1.593-1.266,2.17.94-.7.493.735,1.313.2C1095.645,1633.219,1095.033,1632.444,1095.018,1631.657Z" fill="#231815"/>
      <path id="Path_19693" data-name="Path 19693" d="M1096.4,1635.215l-.291.939C1096.331,1635.837,1096.687,1635.622,1096.4,1635.215Z" fill="#231815"/>
      <path id="Path_19694" data-name="Path 19694" d="M1095.958,1636.647l.152-.493A.7.7,0,0,0,1095.958,1636.647Z" fill="#231815"/>
      <path id="Path_19695" data-name="Path 19695" d="M1089.656,1626.117c.024-.711.617-.926.963-1.409-1.37-.87-.729,1.285-1.563,1.228Z" fill="#231815"/>
      <path id="Path_19696" data-name="Path 19696" d="M1094.694,1635.221c-.644-.258-.817.737-.811,1.132C1094.438,1636.258,1094.544,1635.7,1094.694,1635.221Z" fill="#231815"/>
      <path id="Path_19697" data-name="Path 19697" d="M1094.9,1639.207c.187,1.3-.828,2.039-.758,3.5C1095.556,1642.154,1095.156,1640.07,1094.9,1639.207Z" fill="#231815"/>
      <path id="Path_19698" data-name="Path 19698" d="M1089.569,1633.351c-1.177.626.072,1.46.083,1.858,1.089-.982,1.029-1.848,1.356-3.32C1090.544,1632.335,1090.564,1633.524,1089.569,1633.351Z" fill="#231815"/>
      <path id="Path_19699" data-name="Path 19699" d="M1091.213,1637.772c.959.286,1.286-1.182,2.071-1.6C1092.086,1636.006,1092.119,1637.388,1091.213,1637.772Z" fill="#231815"/>
      <rect id="Rectangle_173" data-name="Rectangle 173" width="0.893" height="0.176" transform="translate(1146.165 1737.985) rotate(-27.981)" fill="#231815"/>
      <path id="Path_19700" data-name="Path 19700" d="M1079.988,1632.953c-.218-.785.913-1.882.683-3.26,1.452-.872.382-2.5,1.835-3.374-.387-1.491.913-2.079,1.358-3.316-.044-.473-.6-.579-.8-.574-.212,1.312-2.976,2.181-1.994,3.456l-.373,1.2c1.251.832-.684,1.558-.865,2.358.822,1.357-1.719,1.311-.814,2.631l-.285-.152-.714,1.877C1079.344,1634.593,1078.517,1633.036,1079.988,1632.953Zm1.629-7.36.345-.682.206.389Z" fill="#231815"/>
      <path id="Path_19701" data-name="Path 19701" d="M1089.974,1641.323c0,.2.2.19.366.305.435-.127.426-.524.577-.805.557-.095,1.623-.364,1.6.351a3.122,3.122,0,0,0,.161-1.586C1090.841,1638.967,1091.35,1640.495,1089.974,1641.323Z" fill="#231815"/>
      <path id="Path_19702" data-name="Path 19702" d="M1089.118,1636.484c-.086,1.55-1.765,1.04-1.94,2.234.159-.084.352-.291.635-.138-.335,1.273.354,3.7-1.867,3.885l.7,1.325c2.456-.307.346-2.577,1.939-4.125C1087.927,1638.419,1089.5,1637.583,1089.118,1636.484Z" fill="#231815"/>
      <path id="Path_19703" data-name="Path 19703" d="M1093.606,1645.884c-.757-.1-.139.874-.286,1.353C1093.911,1647.024,1093.5,1646.245,1093.606,1645.884Z" fill="#231815"/>
      <path id="Path_19704" data-name="Path 19704" d="M1091.5,1643.81l.207.39.393-.209a.763.763,0,0,0,.026-.513Z" fill="#231815"/>
      <path id="Path_19705" data-name="Path 19705" d="M1090.626,1643.877l-.914.181.207.39C1090.115,1644.245,1090.791,1644.186,1090.626,1643.877Z" fill="#231815"/>
      <path id="Path_19706" data-name="Path 19706" d="M1090.525,1646.526c-.486,1.556,1,2.462,1.069,3.725,1.528-.914-.834-1.756.052-3.123l-.993.027Z" fill="#231815"/>
      <path id="Path_19707" data-name="Path 19707" d="M1087.146,1644.724l-.316.168.289.544C1087.121,1645.24,1087.389,1644.995,1087.146,1644.724Z" fill="#231815"/>
      <path id="Path_19708" data-name="Path 19708" d="M1086.56,1647.231l.238-.126c-.006-.4.3-.761.138-1.073A.679.679,0,0,0,1086.56,1647.231Z" fill="#231815"/>
      <path id="Path_19709" data-name="Path 19709" d="M1088.188,1648.965l.414.779A.5.5,0,0,0,1088.188,1648.965Z" fill="#231815"/>
      <path id="Path_19710" data-name="Path 19710" d="M1086.07,1650.288c.982-.619.281-1.746.5-2.663Z" fill="#231815"/>
      <path id="Path_19711" data-name="Path 19711" d="M1077.62,1639.5c-.939-1.4,1.608-.956,1.182-2.327l-.6-.181c.026-.714-.425-1.371.076-2.137l-.677.059c-.261.641-1.151,1.809-.032,2.212-.544.492.069,1.462-1.046,1.258.617.97-1.038,1.647.135,2.524C1076.761,1640.156,1077.271,1639.986,1077.62,1639.5Z" fill="#231815"/>
      <path id="Path_19712" data-name="Path 19712" d="M1082.514,1643.594l-.5.957c.5.936-1.252,2.963.734,2.707l.228-.52C1080.969,1645.808,1083.493,1644.868,1082.514,1643.594Z" fill="#231815"/>
      <path id="Path_19713" data-name="Path 19713" d="M1086.2,1652.419c.144-.478.451-1.039-.033-1.381l-1.014.737Z" fill="#231815"/>
      <rect id="Rectangle_174" data-name="Rectangle 174" width="0.889" height="0.178" transform="translate(1088.202 1657.144) rotate(-27.981)" fill="#231815"/>
      <path id="Path_19714" data-name="Path 19714" d="M1086.145,1653.644l-.133-.624-.105.751Z" fill="#231815"/>
      <path id="Path_19715" data-name="Path 19715" d="M1088.779,1659.933l.106-.555-.469.448Z" fill="#231815"/>
      <path id="Path_19716" data-name="Path 19716" d="M1128.133,1734.582l-1.941.332,1.913-.015-.229.521.4-.21C1128.187,1735.052,1127.983,1734.864,1128.133,1734.582Z" fill="#231815"/>
      <path id="Path_19717" data-name="Path 19717" d="M1084.41,1660.056l1.564.669c.289-1.351-.214-2.485-.276-3.748Z" fill="#231815"/>
      <path id="Path_19718" data-name="Path 19718" d="M1076.329,1644.28c.069.408.763.862.889,1.4a8.618,8.618,0,0,0-.1-3.511l-.16.085c-.514-.024-.29-.547-.254-.863l-.634.135a32.477,32.477,0,0,0-1.131,6.592C1076.717,1647.469,1074.728,1645.431,1076.329,1644.28Z" fill="#231815"/>
      <path id="Path_19719" data-name="Path 19719" d="M1077.218,1645.675c-.044.2-.07.4-.13.6A.7.7,0,0,0,1077.218,1645.675Z" fill="#231815"/>
      <path id="Path_19720" data-name="Path 19720" d="M1080.963,1653l.4-.211c.374-.994-.426-1.17.228-2.218C1081.042,1651.062,1081.146,1652.207,1080.963,1653Z" fill="#231815"/>
      <path id="Path_19721" data-name="Path 19721" d="M1088.463,1665.792l1.067-.269-.123-.232C1089.134,1665.534,1088.5,1665.675,1088.463,1665.792Z" fill="#231815"/>
      <path id="Path_19722" data-name="Path 19722" d="M1089.51,1668.13c.948-.3-.059-.668-.343-1.012C1088.9,1667.558,1089.345,1667.819,1089.51,1668.13Z" fill="#231815"/>
      <path id="Path_19723" data-name="Path 19723" d="M1108.894,1703.866c-.558-.3-.863.458-.736.89Z" fill="#231815"/>
      <rect id="Rectangle_175" data-name="Rectangle 175" width="0.716" height="0.178" transform="translate(1109.647 1707.559) rotate(-27.981)" fill="#231815"/>
      <path id="Path_19724" data-name="Path 19724" d="M1080.879,1656.442l1.284-1.181C1081.339,1655.8,1080.692,1655.146,1080.879,1656.442Z" fill="#231815"/>
      <path id="Path_19725" data-name="Path 19725" d="M1089.528,1669.124c-.133.218-.018.434.1.648Z" fill="#231815"/>
      <path id="Path_19726" data-name="Path 19726" d="M1089.624,1669.772l.09.65C1089.851,1670.2,1089.736,1669.983,1089.624,1669.772Z" fill="#231815"/>
      <path id="Path_19727" data-name="Path 19727" d="M1109.158,1707.022l-.213-.785-.313.165C1108.756,1706.636,1108.808,1707.31,1109.158,1707.022Z" fill="#231815"/>
      <path id="Path_19728" data-name="Path 19728" d="M1084.905,1664.587l.462,1.253.344-.683.765.491c-.247-.465-.061-1.064-.114-1.535C1086.014,1664.6,1085.331,1664.259,1084.905,1664.587Z" fill="#231815"/>
      <path id="Path_19729" data-name="Path 19729" d="M1091.412,1675.511l-.269-.506A.623.623,0,0,0,1091.412,1675.511Z" fill="#231815"/>
      <path id="Path_19730" data-name="Path 19730" d="M1090.708,1674.186l.435.819a.992.992,0,0,1,.556-.846Z" fill="#231815"/>
      <path id="Path_19731" data-name="Path 19731" d="M1105.5,1701.078a5.7,5.7,0,0,0-2.3-1.675C1104.363,1700.083,1103.692,1702.037,1105.5,1701.078Z" fill="#231815"/>
      <path id="Path_19732" data-name="Path 19732" d="M1086.629,1667.266c.9,1.318-1.007,3.033-.277,4.041.863-.657,1.014.76,1.732.978l.034-.318C1086.7,1670.82,1087.607,1668.544,1086.629,1667.266Z" fill="#231815"/>
      <path id="Path_19733" data-name="Path 19733" d="M1101.391,1696.567c-2.337.345-1.738-3.271-3.926-3.4l.1,1.144-1.148.111c-.76,1.6,1.446.827,1.666,1.807.183-.792-1.245-.637-.985-1.473.277-.047.547-.487.833-.14.848.648,2.1,1.482,1.883,2.594l1.754.464C1101.485,1697.316,1101.755,1696.872,1101.391,1696.567Z" fill="#231815"/>
      <path id="Path_19734" data-name="Path 19734" d="M1101.151,1698.394l1.488.9.035-.319C1101.6,1699.051,1102.324,1697.372,1101.151,1698.394Z" fill="#231815"/>
      <path id="Path_19735" data-name="Path 19735" d="M1102.38,1702.033l1.915.382C1103.926,1701.912,1103.036,1701.185,1102.38,1702.033Z" fill="#231815"/>
      <path id="Path_19736" data-name="Path 19736" d="M1086.3,1668.935l-.331-.623.1.747Z" fill="#231815"/>
      <path id="Path_19737" data-name="Path 19737" d="M1088.373,1672.83c-1.115-.2-.09,1.343-1.28,1.378.219.986-.136,2.969,1.332,2.89C1090.828,1676.119,1088.174,1674.736,1088.373,1672.83Z" fill="#231815"/>
      <path id="Path_19738" data-name="Path 19738" d="M1119.292,1731.592l-.083-.155-1.1.584C1118.539,1731.89,1119.19,1732.346,1119.292,1731.592Z" fill="#231815"/>
      <path id="Path_19739" data-name="Path 19739" d="M1075.279,1649.131l-.942.5.374.705.389-.207C1075.136,1649.81,1075.767,1649.474,1075.279,1649.131Z" fill="#231815"/>
      <path id="Path_19740" data-name="Path 19740" d="M1099.582,1701.324l.364.11c.276-.049.187-.4.34-.686l.839.255c.313,1.531.824-.339,1.627-.162l-1.217-.955C1101.275,1700.523,1099.277,1699.99,1099.582,1701.324Z" fill="#231815"/>
      <path id="Path_19741" data-name="Path 19741" d="M1080.825,1661.462l.414.778.231-.123C1081.629,1661.836,1081.258,1661.136,1080.825,1661.462Z" fill="#231815"/>
      <path id="Path_19742" data-name="Path 19742" d="M1089.493,1678.726c.245.271.214.786.73.808C1090.809,1678.927,1089.757,1678.083,1089.493,1678.726Z" fill="#231815"/>
      <path id="Path_19743" data-name="Path 19743" d="M1095.478,1689.424a8.5,8.5,0,0,0-1.931-3.068C1093.784,1688.325,1094.609,1687.789,1095.478,1689.424Z" fill="#231815"/>
      <path id="Path_19744" data-name="Path 19744" d="M1096.341,1690.665c-.414-.778-1.363-.476-1.991-.142-.669.257.381,1.1.786,1.48.435-.13.031-.512.262-.837l1.232.043Z" fill="#231815"/>
      <path id="Path_19745" data-name="Path 19745" d="M1093.175,1685.655l-.758-1.992C1091.285,1684.564,1092.877,1684.716,1093.175,1685.655Z" fill="#231815"/>
      <path id="Path_19746" data-name="Path 19746" d="M1098.426,1697.246l.454.854.548-.291C1099.817,1697.207,1098.811,1696.838,1098.426,1697.246Z" fill="#231815"/>
      <path id="Path_19747" data-name="Path 19747" d="M1081.29,1664.61l.579,1.091c.187-.4-.175-.709-.106-1.143Z" fill="#231815"/>
      <path id="Path_19748" data-name="Path 19748" d="M1083.32,1674.317c1.572-1.431-.076-2.483-.8-3.785l.1.562C1082.877,1671.956,1082.358,1674.029,1083.32,1674.317Z" fill="#231815"/>
      <path id="Path_19749" data-name="Path 19749" d="M1082.518,1670.532l-.263-1.442A1.912,1.912,0,0,0,1082.518,1670.532Z" fill="#231815"/>
      <path id="Path_19750" data-name="Path 19750" d="M1112.644,1729.134l.63-.335.23-.324Z" fill="#231815"/>
      <path id="Path_19751" data-name="Path 19751" d="M1095.371,1695.672c.2,0,.2-.2.311-.362l-.6-.18Z" fill="#231815"/>
      <path id="Path_19752" data-name="Path 19752" d="M1084.415,1677.33c-.587.211-.1.952.34,1.016C1084.99,1678.026,1084.5,1677.683,1084.415,1677.33Z" fill="#231815"/>
      <path id="Path_19753" data-name="Path 19753" d="M1085.822,1679.978l-.67.055c.241.273.007.594.254.864C1086,1680.881,1085.667,1680.256,1085.822,1679.978Z" fill="#231815"/>
      <path id="Path_19754" data-name="Path 19754" d="M1085.541,1681.725l.567.495c.064-.634.3-.76.211-1.306Z" fill="#231815"/>
      <path id="Path_19755" data-name="Path 19755" d="M1088.076,1686.867a1.423,1.423,0,0,0,.8-1.13l-.62.534-1.177-1.272Z" fill="#231815"/>
      <rect id="Rectangle_176" data-name="Rectangle 176" width="0.619" height="0.175" transform="translate(1099.358 1711.33) rotate(-27.981)" fill="#231815"/>
    </g>
    <g id="Group_915" data-name="Group 915">
      <g id="Group_864" data-name="Group 864">
        <path id="Path_19756" data-name="Path 19756" d="M1150.995,1778.319c-.069-.121-.309.016,0,0Z" fill="#231815"/>
        <path id="Path_19757" data-name="Path 19757" d="M1165.612,1787.9l1.356-.682c.306-.187,2.773-2.253,1.809-2.106,1.211-.8,2.026-5.451,1.467-6.649,0-.177,1.075-.625.165-1.444.232-.807-.978-2.077-.97-1.629.178-1.623-.6-1.781-1.527-3.115-.094-.619-2.033-2.237-1.859-3.153-1.814-.566-1.005-2.052-2.689-2.642-.9-.478-1.2-1.619-2.135-.794.159.621-2.7.152-2.808,1.171l-1.77.3c-.348-.159.006.74-.107.88.038-.014-1.121.312-.925.334-.626.55-.868.159-1.341.368-.629-.433-.6-.25-1.415.609-.831.4-.8,1.655-1.182,2.1.016-.033.385.63.382.6-1.064.156-.662-.075-.542,1-.154.127-1.555.705-1.146,1.581a12.181,12.181,0,0,0,1.377,1.827.871.871,0,0,0-.409.1,4.252,4.252,0,0,0,.987.435c-.52.608-.038-.061-.348.7a3.242,3.242,0,0,0-.769.6c-.095.014-.161.021-.218.024.027.045.029.124-.031.262a4.895,4.895,0,0,1,.311,1.638c.02-.016-.9-.173-.889-.173.064.066.066.119.009.161.083.044.965.47.783.7-.088.133-.487-.449-.742-.239a11.428,11.428,0,0,0,2.124,4.022c.495.82,3.106.973,3.247,1.871-.095.581.263,1.015.379,1.567.182-.1.23-.4.427-.513a.691.691,0,0,0,.876.458.589.589,0,0,0-.2.773c.055-.059.1-.054.149.017.139-.1.772-.87.9-.764-.019-.033.366.637.353.611.224-.092.151-.628.365-.647.562.065.241,1.88.938.07,1.21,2.085.873.528,1.834.56C1163.264,1789.681,1165.555,1789.732,1165.612,1787.9Z" fill="#231815"/>
      </g>
      <g id="Group_865" data-name="Group 865">
        <path id="Path_19758" data-name="Path 19758" d="M1159.191,1766.3h0" fill="#231815"/>
      </g>
      <g id="Group_866" data-name="Group 866">
        <path id="Path_19759" data-name="Path 19759" d="M1151.977,1776.116c-.088.057-.127.042-.193-.035C1151.742,1775.93,1151.981,1775.935,1151.977,1776.116Z" fill="#231815"/>
      </g>
      <g id="Group_867" data-name="Group 867">
        <path id="Path_19760" data-name="Path 19760" d="M1151.562,1778.073c.109.5.02.24,0,0" fill="#231815"/>
      </g>
      <g id="Group_868" data-name="Group 868">
        <path id="Path_19761" data-name="Path 19761" d="M1151.477,1779.08h0" fill="#231815"/>
      </g>
      <g id="Group_869" data-name="Group 869">
        <path id="Path_19762" data-name="Path 19762" d="M1168.533,1774.947c-.535.669-.032-.053,0,0" fill="#231815"/>
      </g>
      <g id="Group_870" data-name="Group 870">
        <path id="Path_19763" data-name="Path 19763" d="M1169.037,1774.681c.347.665-.144,0,0,0" fill="#231815"/>
      </g>
      <g id="Group_871" data-name="Group 871">
        <path id="Path_19764" data-name="Path 19764" d="M1169.818,1776.354c.333.777.062.193,0,0" fill="#231815"/>
      </g>
      <g id="Group_872" data-name="Group 872">
        <path id="Path_19765" data-name="Path 19765" d="M1153.4,1784.116c-.191-.093-.191-.09,0,0" fill="#231815"/>
      </g>
      <g id="Group_873" data-name="Group 873">
        <path id="Path_19766" data-name="Path 19766" d="M1152.8,1784.465c-.094.075-.322-.219,0,0" fill="#231815"/>
      </g>
      <g id="Group_874" data-name="Group 874">
        <path id="Path_19767" data-name="Path 19767" d="M1169.492,1779.245c-.355-.1-.034-.137,0,0" fill="#231815"/>
      </g>
      <g id="Group_875" data-name="Group 875">
        <path id="Path_19768" data-name="Path 19768" d="M1169.463,1781.273c-.093.089-.5-.288,0,0" fill="#231815"/>
      </g>
      <g id="Group_876" data-name="Group 876">
        <path id="Path_19769" data-name="Path 19769" d="M1160.975,1753.083a12.057,12.057,0,0,1,.153,1.224c-.018-.413-1.259-.4-.153-1.224" fill="#231815"/>
      </g>
      <g id="Group_877" data-name="Group 877">
        <path id="Path_19770" data-name="Path 19770" d="M1166.567,1754.594c.233.338-.268.469-.339.315-.185-.335.243-.491.339-.315" fill="#231815"/>
      </g>
      <g id="Group_878" data-name="Group 878">
        <path id="Path_19771" data-name="Path 19771" d="M1144.9,1764.406c0,.089.665-.005.671.547-.428.165-1.364-.036-.671-.547" fill="#231815"/>
      </g>
      <path id="Path_19772" data-name="Path 19772" d="M1165.913,1759.986c.194-.106.758-2.416-.122-2.4-.213-.421-2.965-2.6-3.927-.374-.454.187-1.655,1.867-.83,1.981-.025,2.094.949,1.269,1.6,2.68.864-.1,1.834-.6,2.588-.664" fill="#231815"/>
      <g id="Group_879" data-name="Group 879">
        <path id="Path_19773" data-name="Path 19773" d="M1158.178,1759.2a3.356,3.356,0,0,1,.14,1.8c-.485.36-.915-2.708-.14-1.8" fill="#231815"/>
      </g>
      <g id="Group_880" data-name="Group 880">
        <path id="Path_19774" data-name="Path 19774" d="M1156.875,1760.145c.113.14.351.79.042.911-.683-.475-.518-.7-.042-.911" fill="#231815"/>
      </g>
      <g id="Group_881" data-name="Group 881">
        <path id="Path_19775" data-name="Path 19775" d="M1173.778,1752.691a1.133,1.133,0,0,1-.656,1.137c-.05-.139.407-1.54.656-1.137" fill="#231815"/>
      </g>
      <g id="Group_882" data-name="Group 882">
        <path id="Path_19776" data-name="Path 19776" d="M1143.656,1766.974c.006.113.72,0,.745.4-.843.266-.633-.275-.745-.4" fill="#231815"/>
      </g>
      <g id="Group_883" data-name="Group 883">
        <path id="Path_19777" data-name="Path 19777" d="M1159.651,1759.965a1.4,1.4,0,0,1,.226.707c-.393.3-.488-.673-.226-.707" fill="#231815"/>
      </g>
      <g id="Group_884" data-name="Group 884">
        <path id="Path_19778" data-name="Path 19778" d="M1158.81,1762.193a4.13,4.13,0,0,1-.118,1.1c-.13-.166-.924-2.072-.35-2.1.152.332.312.666.468,1" fill="#231815"/>
      </g>
      <g id="Group_885" data-name="Group 885">
        <path id="Path_19779" data-name="Path 19779" d="M1147.8,1766.874c.077.124.446.845-.167.394-.532-.86-.209-.389.167-.394" fill="#231815"/>
      </g>
      <g id="Group_886" data-name="Group 886">
        <path id="Path_19780" data-name="Path 19780" d="M1172.366,1757.594c-.107.112.263.89-.481.457-.292-.419.276-.511.481-.457" fill="#231815"/>
      </g>
      <g id="Group_887" data-name="Group 887">
        <path id="Path_19781" data-name="Path 19781" d="M1155.468,1766.255c0-.065.552.277.614.416-.023.042-.674.3-.758.172-.051-.249-.269-.5.144-.588" fill="#231815"/>
      </g>
      <g id="Group_888" data-name="Group 888">
        <path id="Path_19782" data-name="Path 19782" d="M1150.532,1769.134c.012.011.883,1.326.822,1.166-.72,1.378-1.472-2.137-.822-1.166" fill="#231815"/>
      </g>
      <g id="Group_889" data-name="Group 889">
        <path id="Path_19783" data-name="Path 19783" d="M1165.087,1762.637c-.013-.336,1.473,1.248,1.607,1.79-.132,1.165-1.162,1.7-1.962,1.11-.249.192-2.169-2.852.355-2.9" fill="#231815"/>
      </g>
      <g id="Group_890" data-name="Group 890">
        <path id="Path_19784" data-name="Path 19784" d="M1169.337,1761.718c-.05.392-.48,2.137-1.047,2.243-.045-.838.241-2.212,1.047-2.243" fill="#231815"/>
      </g>
      <g id="Group_891" data-name="Group 891">
        <path id="Path_19785" data-name="Path 19785" d="M1148.855,1773.021a1.309,1.309,0,0,1,.3.715c-.572.644-.715-1.478-.3-.715" fill="#231815"/>
      </g>
      <g id="Group_892" data-name="Group 892">
        <path id="Path_19786" data-name="Path 19786" d="M1167.633,1765.623a.466.466,0,0,1-.362.644c-.046-.069-.094-.075-.146-.015-.175-.308.319-.918.508-.629" fill="#231815"/>
      </g>
      <g id="Group_893" data-name="Group 893">
        <path id="Path_19787" data-name="Path 19787" d="M1178.577,1761.176c.452.459-.287,1.138-.692.91-.005-.473.4-.6.692-.91" fill="#231815"/>
      </g>
      <g id="Group_894" data-name="Group 894">
        <path id="Path_19788" data-name="Path 19788" d="M1149.07,1775.869c-.115.1-.461.434-.655.25-.379-.712.8-.262.655-.25" fill="#231815"/>
      </g>
      <g id="Group_895" data-name="Group 895">
        <path id="Path_19789" data-name="Path 19789" d="M1149.577,1776.209c-.008-.193.544.438.57.478-.139,1.591-.771-1.277-.57-.478" fill="#231815"/>
      </g>
      <g id="Group_896" data-name="Group 896">
        <path id="Path_19790" data-name="Path 19790" d="M1137.241,1782.083c.336.52.4-.529.647.64.324.074.582-.408.928.2-.562.941-2.369-.3-1.575-.836" fill="#231815"/>
      </g>
      <g id="Group_897" data-name="Group 897">
        <path id="Path_19791" data-name="Path 19791" d="M1143.113,1779.56a9.542,9.542,0,0,1,1.817,1.053c-.214.274-2.87.118-1.817-1.053" fill="#231815"/>
      </g>
      <g id="Group_898" data-name="Group 898">
        <path id="Path_19792" data-name="Path 19792" d="M1169.043,1771.252c-.1.158.127.359-.3.412-.153-.37-.053-.509.3-.412" fill="#231815"/>
      </g>
      <g id="Group_899" data-name="Group 899">
        <path id="Path_19793" data-name="Path 19793" d="M1146.76,1783.187c.113.339,1.4.39.4.933-1.022.56-.616-.526-.4-.933" fill="#231815"/>
      </g>
      <g id="Group_900" data-name="Group 900">
        <path id="Path_19794" data-name="Path 19794" d="M1151.176,1782.927c.226.269-.311.466-.418.3-.186-.274-.048-.375.418-.3" fill="#231815"/>
      </g>
      <g id="Group_901" data-name="Group 901">
        <path id="Path_19795" data-name="Path 19795" d="M1137.3,1789.4c.257.182.449-.218.391.315-.63.242-.9-.289-.391-.315" fill="#231815"/>
      </g>
      <g id="Group_902" data-name="Group 902">
        <path id="Path_19796" data-name="Path 19796" d="M1174.086,1776.52c.124.056.558-.132.711-.115.27.352-.7.126-.711.115" fill="#231815"/>
      </g>
      <g id="Group_903" data-name="Group 903">
        <path id="Path_19797" data-name="Path 19797" d="M1155.543,1789.138c.636,1.007-.829.245,0,0" fill="#231815"/>
      </g>
      <g id="Group_904" data-name="Group 904">
        <path id="Path_19798" data-name="Path 19798" d="M1157.935,1789.329c1.422.249-.537,2.524,0,0" fill="#231815"/>
      </g>
      <g id="Group_905" data-name="Group 905">
        <path id="Path_19799" data-name="Path 19799" d="M1173.278,1782.568c0,.026.727.47.076.61,0,.108-.637-.653-.076-.61" fill="#231815"/>
      </g>
      <g id="Group_906" data-name="Group 906">
        <path id="Path_19800" data-name="Path 19800" d="M1173.737,1784.742c.041.347,1.742,2.215-.362,1.022-1.068-.6-.767-1.416.362-1.022" fill="#231815"/>
      </g>
      <g id="Group_907" data-name="Group 907">
        <path id="Path_19801" data-name="Path 19801" d="M1171.366,1785.351c-.023-.521,1.278,1.827-.2.613-.074-.186.144-.725.2-.613" fill="#231815"/>
      </g>
      <g id="Group_908" data-name="Group 908">
        <path id="Path_19802" data-name="Path 19802" d="M1178.377,1784.744c-.015.049.384.475-.424.508-.084-.269.1-.978.424-.508" fill="#231815"/>
      </g>
      <g id="Group_909" data-name="Group 909">
        <path id="Path_19803" data-name="Path 19803" d="M1162.761,1791.586c.011.053-.054,1.138-.35.6-.076-.372.038-.57.35-.6" fill="#231815"/>
      </g>
      <g id="Group_910" data-name="Group 910">
        <path id="Path_19804" data-name="Path 19804" d="M1180.741,1785.39c.017.84.159.716,0,0" fill="#231815"/>
      </g>
      <g id="Group_911" data-name="Group 911">
        <path id="Path_19805" data-name="Path 19805" d="M1173.391,1789.094c.068.341.284.442-.194.327-.246-.309-.18-.418.194-.327" fill="#231815"/>
      </g>
      <g id="Group_912" data-name="Group 912">
        <path id="Path_19806" data-name="Path 19806" d="M1159.2,1800.265c.059,1.2-.416,1.269,0,0" fill="#231815"/>
      </g>
      <g id="Group_913" data-name="Group 913">
        <path id="Path_19807" data-name="Path 19807" d="M1151.377,1778.2h0" fill="#231815"/>
      </g>
      <g id="Group_914" data-name="Group 914">
        <path id="Path_19808" data-name="Path 19808" d="M1156.917,1761.056c.635.868.146.541.427,1.14-.89.22-.391-.832-.427-1.14" fill="#231815"/>
      </g>
    </g>
  </g>
</svg>
