<svg xmlns="http://www.w3.org/2000/svg" width="479.318" height="497.393" viewBox="0 0 479.318 497.393">
  <g id="Group_1322" data-name="Group 1322" transform="translate(-521.64 -1778.678)" opacity="0.35">
    <g id="Group_917" data-name="Group 917">
      <path id="Path_19809" data-name="Path 19809" d="M526.033,2014.952c-.918-3.992,4.865-7.994.316-9.983l-2.442,5.1c-.987,7.556-3.615,16.273-1.408,22.408C524.466,2027.23,526.656,2020.574,526.033,2014.952Z" fill="#231815"/>
      <path id="Path_19810" data-name="Path 19810" d="M546.309,1960.129l-2.505,4.578C546.418,1965.814,546.538,1961.676,546.309,1960.129Z" fill="#231815"/>
      <path id="Path_19811" data-name="Path 19811" d="M552.651,1949.906c-3.042,1.7-3.018,6.141-5.163,8.884C549.039,1956.349,552.531,1953.306,552.651,1949.906Z" fill="#231815"/>
      <path id="Path_19812" data-name="Path 19812" d="M553.747,1946.577l.308,1.332.513-1.56Z" fill="#231815"/>
      <path id="Path_19813" data-name="Path 19813" d="M561.351,1936.285c-.878,2.668-4.519,3.184-4.431,6.665C559.232,1941.985,560.856,1939.315,561.351,1936.285Z" fill="#231815"/>
      <path id="Path_19814" data-name="Path 19814" d="M543.265,1995.033l1.355,3.4.291-.885C546.4,1996.813,543.7,1994.44,543.265,1995.033Z" fill="#231815"/>
      <path id="Path_19815" data-name="Path 19815" d="M540.512,2007.172l-.673-.221-.876,2.661Z" fill="#231815"/>
      <path id="Path_19816" data-name="Path 19816" d="M547.306,1986.529c-.744-.006-.966.668-1.183,1.328l1.118.368C547.459,1987.565,547.908,1986.966,547.306,1986.529Z" fill="#231815"/>
      <path id="Path_19817" data-name="Path 19817" d="M536.814,2034.25l.291-.885-.445-.146c-.753-1.486-2.113-3.412-3.891-2.518-1.029,2.363-1.532,4.656.931,6.212l1.386-4.212Z" fill="#231815"/>
      <path id="Path_19818" data-name="Path 19818" d="M536.967,2023.221c-.01-.738,1.028-1.625.273-2.363-.366-.363-.962-.078-1.329.295Z" fill="#231815"/>
      <path id="Path_19819" data-name="Path 19819" d="M552.142,1975.575c-.959.672-2.432,2.882-.638,3.472C553.213,1978.388,552.15,1976.317,552.142,1975.575Z" fill="#231815"/>
      <path id="Path_19820" data-name="Path 19820" d="M535.066,2029l.876-2.662-.456-.15C535.422,2027.147,534.318,2028.262,535.066,2029Z" fill="#231815"/>
      <path id="Path_19821" data-name="Path 19821" d="M557.512,1964.556c-1.563.218-.566,3.245-2.592,2.578.986,2.3-1.167,3.547-1.3,5.48C557.716,1971.5,555.738,1966.182,557.512,1964.556Z" fill="#231815"/>
      <path id="Path_19822" data-name="Path 19822" d="M534.883,2046.158c-.673-.222-1.346-.443-1.572-1.264,1.7-2.133,1.948,1.63,3.658.224.578-1.04.053-1.694-.4-2.588l-2.078,1.042c-.3-.6-1.135-1.119-.608-1.927-.164-1.035.2-2.144-1.736-2.29.613,2.668-2.183,7.4,2.367,7.914Z" fill="#231815"/>
      <path id="Path_19823" data-name="Path 19823" d="M917.244,2089.819a5.8,5.8,0,0,0,.421-2.8l-1.481.734C917.376,2087.894,916.425,2089.3,917.244,2089.819Z" fill="#231815"/>
      <path id="Path_19824" data-name="Path 19824" d="M803.842,2246.041l-.821.6A1.858,1.858,0,0,0,803.842,2246.041Z" fill="#231815"/>
      <path id="Path_19825" data-name="Path 19825" d="M832.647,1903.3c-.162-1.042-3.276.149-2.326-1.995-7.4-2.435-11-8.043-18.32-11.448-4.411-1.692-7.268-4.35-11.733-4.356l-15.853-7.67.146-.444c-2.6-.365-4.915-.136-6.937-2.283-5.126,2-7.031-4.282-12.159-1.54-5.889-1.691-11.859-2.433-17.982-4.939-3.875,1.192-7.92-2.355-11.853-.211-3.082-3.473-7.3-.433-11.12-2.43l-.293.892c-9.309-.349-19.653,2.4-29.478,2.845-7.582,3.41-18.6,4.461-23.12,8.381a72.628,72.628,0,0,0-20.811,8.9l-.289-.58c-1.857,1.11-2.519,4.581-5.419,3.627-.359,2.581-3.559,2.525-5.561,4.076-5.777,6.954-15.816,10.3-21.647,17.476-9.509,4.007-8.393,14.956-17.53,18.589-3.4,5.028-9.113,8.812-13.1,12.654-3.792,1.708-5.626,6.521-8.667,9.707,3.743,1.466-3.465,4.511-1.535,4.662,2.076-1.775,5.174-6.671,6.9-5.854l-1.444,5.922c-3.107,4.876-8.257,1.7-10.637,3.634l1.5,2.215-1.48.749c-3.055.217-1.637,1.182-2.962,3.7-4.151,3.546-4.861,8.728-9.833,10.29,1.574,1.99-3.642,2-.653,3.467.24,3.035-2.224,1.484-3.932,2.9l1.121.369c1.348,1.176-.349,3.317-1.835,4.067a2.52,2.52,0,0,0-2.326-2.005c-.252,6.073-7.011,10-3.467,15.841-6.8,8.588-5.854,17.023-8.176,26.344-.57,4.731-3.208,10.508-.428,14.117-4.417,8.888,1.308,17.161-.114,27.525,3.049,11.829,4.623,24.4,7.013,36.746.676.96,4.03.594,2.031,2.878-.955.675-1.635.451-2.6.38,1.2,3.1-.839,7.842,2.372,10.875l-1.484.742-.228-.816-1.484.743.754,1.475c-.881,1.92,1.24,6.806,3.106,8.651l-1.483.742c-.519.077-.6-.432-.9-1.027-.793,3.917,3.39,4.8.878,8.646,5.337-4.143,6.514,5.094,7.119,7.02-2.538-1.326-4.022-.584-5.311-3.474l.3.595c-1.769,1.635,1.445,3.914,1.088,5.768l-2.384.443,4.141,5.549-1.418.517,2.717,4.582c1.7-1.405,1.316-4,.631-5.692-3.963-1.553-.176-4-.492-6.068,6.716.738,1.7,9.173,7.51,9.606-.1-4.22-6.9-9.164-3.064-14.05-4.249.079-3.77-6.65-5.278-8.866-5.306-2.735-1.849-9.464-4.106-13.163.133-1.919-1.528-5.179,1.449-5.92.092,1.989,1.672,4.728.112,6.434,2.028,1.405.811-1.7,1.849-1.853a153.955,153.955,0,0,1,14.735,29.207c1.945,1.623,6.5,2.138,4.8,5.752,1.709-.659,2.387-.436,2.992,1.483.995,3.033,1.023,7.465,4.152,7.764.951-2.148-2.033-2.148-2.338-4.211,4.469-.007,8.283,2.726,11.5,5.015-1.393,2.733,5.087,2.655,1.891,4.8a5.791,5.791,0,0,1,5.769,2.873c-1.414,2.007-2.691-.886-2.913-.213,3.174,6.952,8.938-.746,12.754,1.24,7.54,3.475,12.207,10.414,18.206,17.072l-2.368,1.183,1.8,3.549c5.761,2.875,11.237,8.873,16.327,12.269l-.219.665c2.393,1.03,3.585,1.18,5.891.212-5.533-3.549-12.867-7.682-16.336-13.74,1.338-.3,2.994,1.467,4.626.283,5.627-5.035-4.578-5.685-6.1-10.123a53.188,53.188,0,0,1,15.184,9.675c10.749,1.318,15.066,13.812,26.761,12.984,2.548,2.816,10.239,4.35,10.928,8.273l.365-1.11c-.52.08-.592-.442-.976-.81,2-2.3,2.623,1.1,4.708.809,5.507-.894,10.214,1.392,15.22,2.051,3.971,3.774,12.661-.012,18.115,3.014,12.984,2.8,24.134-.915,36.641-2.7,5.129-2.746,12.118-3.644,16.632-6.821,8.576-.382,14.5-5.562,22.457-8.608.579-2.519,3.774-3.928,5.492-2.374.348-4.073,4.837-1.86,6.164-4.374l-.231-.817c3.422-1.332,7.064-1.859,10.33-4.226l.7,3.186c12.183,6.717,16.932-9.19,24.7-15.492l-1.414-.955c.961-1.41,3.354-.374,4.235-1.554,6.523-6.222,12.729-13.773,16.174-21.991,4.31-2.523,2.858-7.918,6.7-11.321l.383,1.837,2.142-2.735-1.868-1.1c5.173-7.412,4.732-15.913,8.711-24.945,1.784.587,2.435-2.15,2.652-2.81l-.44-.145c-.218.661-.438,1.329-1.265,1.551-.227-1.552.426-4.293.416-6.514,2.507-2.368,3.214,3.032,5.515,1.332-3.048-.52-1.807-4.293-2.642-6.287-.305-.6-2.328-.515-1.054-2.073.29-.139.876-.443,1.258-.07l2.06-4.737,1.119.368a2.13,2.13,0,0,1-.694-3.184c1.108-1.84,2.958-3.7.639-5.692,4.172-9.693-1.86-20.042-.271-30.1-.844-2.736,2.5-3.844.4-6.509,1.346.443,3.86-1.2,4.253,1.4,4.1-1.85-2.115-5.621,1.826-7.032,3.058,1.256,1.142,4.81,2.28,7.4.818.52,1.788-.144,2.368-.448l-.211-.815a3.128,3.128,0,0,1,3.4-2.807c1.36,1.926.924,4.724.114,6.429,1.06,2.068,1.164,7.027,4.3,7.318-2.583,2.6,2.341,4.22-.333,6.287,2.918,2.44,1.75,4.515-.1,7.111-.876,2.662.993,3.767,2.424,5.474-3.858,3.393-.023,7.611-1.265,11.384-.581,1.768-1.242,4.516-3.7,3.707-.131,1.924,6.066,4.946,2.125,6.356,4.048,2.8-2.661,2.814-1.969,5.984l1.126.371c-1.916,3.556.926,6.95-.166,11.026-2.012-1.409-3.044.228-4.218,2.294,1.174-2.066,4-1.634,5.208,0,.559,4.365-3.569,1.038-4.44,4.441-.2,2.889,2.54,1.331,2.49,3.775-.137,2.656.934,7.685-2.778,8.44-.892,1.176-1.4,2.723.1,3.46-6.747,18.213-18.776,35.166-30,51.154-2.149,2.739-6.973,5.324-5.982,9.1l-1.477.736c-6.167,3.635-11.486,11.49-18.6,15.052-1.527,6.137-6.108,1.188-7.934,7.475-5.215-1.475-8.3,5.627-14.109,6.672-2.25-3.7,6.9-4.372,1.151-7.246-4.109-.372-.273,4.579-4.589,4.879-1.494.006-3.645.527-4.618-.284-1.65-.292.605,1.928-1.634,1.191,1.2,2.357-.495,4.505-3.177,4.355-2.944,5.181-14.594,1.347-14.013,10.145.82,1.264,1.356,3.4,2.252,3.7,3.435.152-.894-1.034.288-2.366,3.131.293,6.7-.749,5.563-4.067l4.853,1.1a1.306,1.306,0,0,1-.205.841l1.544-1.133-.308-.6,1.487-.742.308.587c8.054.439,5.759-6.949,12.526-9.4l.453.889c-.445.586-.066,1.7-1.329,1.773,4.478,1.473,4.65-5.115,8.459-5.334l1.415.956c3.877.3,4.15-4.285,3.016-5.4,3.286-.155,5.363-1.933,7.807-4.084,8.638.147,11.181-9.106,19.514-11.781,6.92-1.412-2.15,2,2.561,4.283l-2.889,2.006.75,1.477c-.727,1.487-2.005.81-2.754.82-.269,3.85-8.463,4.595-6.946,8.292,4.459-1.492,10.322-5.709,13.123-10.447l-.53-.664,2.759-.818-2.181-2.438c1.477-2.223,1.873,1.106,3.5-.077,3.337-2.591,7.034-6.294,7.761-9.259,2.674-2.062,5.476-5.327,8.069-7.913-.108-4.223,5.311-6.376,3.808-10.063,4.84.364,3.6-6.44,6.8-7.861.326-5.55,4.794-7.762,5.949-12.8l.459.9c6.589-17.023,14.878-36.187,18.855-55.795l-.76-1.481c4.131-3.528-.492-6.679-1.113-9.931a1.874,1.874,0,0,1-.808-.055c-1.6-4.213-.5-8.271,1.031-12.2-2.092-1.183-.538-3.614-2.117-4.881,1.477-2.954-.866-7.175,2.483-9.029l1.143,5.551-.12-7.174-1.793.147c1.11-2.59-3.154-5.471.26-7.538,1.12.369,1.127,1.849,1.348,2.653l2.086-1.042c.1-6.363-1.7-9.165-1.888-15.376-.675-.222-1.281-.671-1.939-.155-.162-1.766,1.332-1.773,1.386-4.212-2.788-4.359-2.227-9.831-3.379-14.638-.835-2.736-5.688-5.319-2.806-8.063-6.08-19.966-14.409-38.443-23.542-56.7a73.734,73.734,0,0,1-10.769-17.818c-8.045.3-3.784-8.872-11.094-10.048a5.409,5.409,0,0,1,1.329-2.513c-6.294-4.287-9.539-10.274-16.049-14.64.574-3.984-5.776-5.826-7.961-9.735C840.063,1909.424,833.715,1908.316,832.647,1903.3Zm-200.97,280.991c3.647.227,3.161,4.735,6.737,5.174-1.785.151-3.8.229-4.557-2.731-5.005-1.4-7.57-6.427-11.534-7.981-4.659-5.455-10.333-9.3-14.919-14.988C615.64,2169.662,624.049,2178.089,631.677,2184.287Zm184.989,8.232-1.121-.369c3.5.667,1.76-3.84,5.192-2.962C821.344,2191.109,818.223,2191.554,816.666,2192.519Zm-213.427-93.848,1.706,7.7c-6.5-1.4-.569-5.852-4.751-7.468l-.364,1.108c-2.285-8.137-5.319-16.265-4.333-24.553C598.528,2082.849,600.227,2092.752,603.239,2098.671Zm247.878-128.527c4.411,1.694,3.768,6.655,6.982,8.2,1.662,3.254,3.682,5.4,4.153,8.509l-1.258.808,1.662,4c-3.308-4.287-6.466,1.56-9.554-1.922-1.215-4.58-.791-8.876-4.929-12.2,1.313-3.989-2.92-4.65-1.769-8.939l-1.266-2.146-2.237,1.484c.728-2.213-4.415-3.174-.172-4.735L840.1,1960.6l2.082-1.028-.454-.887C844.066,1962.158,849.52,1965.19,851.117,1970.144Z" fill="#231815"/>
      <path id="Path_19826" data-name="Path 19826" d="M917,2098.108l-.521-.665a3.119,3.119,0,0,0-.519,2.56C916.736,2099.795,915.466,2098.405,917,2098.108Z" fill="#231815"/>
      <path id="Path_19827" data-name="Path 19827" d="M801.453,2247.785l1.568-1.148C802.389,2246.9,801.675,2247.112,801.453,2247.785Z" fill="#231815"/>
      <path id="Path_19828" data-name="Path 19828" d="M561.572,1957.518c-1.793.15-2.142,2.736-3.182,4.37l2.239,0C561.07,1960.545,562.33,1958.989,561.572,1957.518Z" fill="#231815"/>
      <path id="Path_19829" data-name="Path 19829" d="M557.976,1977.494c1.186-1.345-.237-2.3-1.583-2.738-.211,2.148-3.023,4.654-1.9,5.77C555.161,1979.267,555.817,1977.273,557.976,1977.494Z" fill="#231815"/>
      <path id="Path_19830" data-name="Path 19830" d="M563.16,1955.326a3.7,3.7,0,0,0,.26-.456,4.589,4.589,0,0,1-.525.128Z" fill="#231815"/>
      <path id="Path_19831" data-name="Path 19831" d="M563.42,1954.87a3.008,3.008,0,0,0,1.983-3.72C564.093,1952.059,564.037,1953.595,563.42,1954.87Z" fill="#231815"/>
      <path id="Path_19832" data-name="Path 19832" d="M563.423,1955.669l-.263-.343a3.059,3.059,0,0,1-1.22,1.076Z" fill="#231815"/>
      <path id="Path_19833" data-name="Path 19833" d="M532.888,2048.453c-1.116,1.119,1.815,3.553-1.24,3.769a2.687,2.687,0,0,0,1.813,3.557A22.735,22.735,0,0,0,532.888,2048.453Z" fill="#231815"/>
      <path id="Path_19834" data-name="Path 19834" d="M558.917,1973.126c2.686.138,2.955-2.963,4.443-4.435l-2.1-1.181C560.669,1968.537,557.573,1971.938,558.917,1973.126Z" fill="#231815"/>
      <path id="Path_19835" data-name="Path 19835" d="M562.9,1966.328c1.692-2.9,5.705-4.528,4.646-7.344-3.952-.061-3.173,5.112-5.771,6.974Z" fill="#231815"/>
      <path id="Path_19836" data-name="Path 19836" d="M570.5,1943.236c-.382.369-.892.437-1.04.884l2.158-.516Z" fill="#231815"/>
      <path id="Path_19837" data-name="Path 19837" d="M570.7,1940.343l2.829.45-.527-1.405,2.071-1.045-.753-1.477C572.163,1937.385,572.26,1940.123,570.7,1940.343Z" fill="#231815"/>
      <path id="Path_19838" data-name="Path 19838" d="M568.332,1955.066c1.585,2,5.737-.827,6.255-.893C572.576,1954.985,569.273,1951.44,568.332,1955.066Z" fill="#231815"/>
      <path id="Path_19839" data-name="Path 19839" d="M581.148,1921.4c-.887,1.186-2.062,2.514-2.954,3.7C579.312,1924.725,582.507,1923.324,581.148,1921.4Z" fill="#231815"/>
      <path id="Path_19840" data-name="Path 19840" d="M571.058,1950.548l-.221.674,1.568.516C572.4,1950.991,571.734,1950.77,571.058,1950.548Z" fill="#231815"/>
      <path id="Path_19841" data-name="Path 19841" d="M579.638,1929.76l-3.176,4.369C577.129,1933.611,580.928,1931.9,579.638,1929.76Z" fill="#231815"/>
      <path id="Path_19842" data-name="Path 19842" d="M573.87,1947.287l2.836.448c-.453-.889-.682-1.7-1.874-1.846C574.011,1946.108,574.014,1946.849,573.87,1947.287Z" fill="#231815"/>
      <path id="Path_19843" data-name="Path 19843" d="M578.55,1943.658a1.778,1.778,0,0,1-1.357-1.179l-1.183,2.072C576.828,1943.59,578.781,1945.961,578.55,1943.658Z" fill="#231815"/>
      <path id="Path_19844" data-name="Path 19844" d="M582.143,1925.913c4.123,3.319,3.617-4.973,6.857-1.2l5.329-4.886c-.377-.371-.451-.886-.965-.807-1.344,1.776-3.714,2.96-5.272,4.662l-2.168-2.434Z" fill="#231815"/>
      <path id="Path_19845" data-name="Path 19845" d="M533.052,2085.658l.823-.219c2.13-3.48-1.883-1.118-2.634-3.327.538,2.139-.125,4.872,1.611,6.437.885-.456,1.1-1.116,1.62-1.933C534.032,2086.471,533.286,2086.472,533.052,2085.658Z" fill="#231815"/>
      <path id="Path_19846" data-name="Path 19846" d="M581.414,1938.7l-.44-.145c-.9.453-.884,1.92-2,2.3A2.212,2.212,0,0,0,581.414,1938.7Z" fill="#231815"/>
      <path id="Path_19847" data-name="Path 19847" d="M588.738,1918.731c-.526.074-1.042.141-.971.667l2.393.285C589.925,1918.873,589.185,1918.878,588.738,1918.731Z" fill="#231815"/>
      <path id="Path_19848" data-name="Path 19848" d="M594.315,1917.615c4.928,1.621,5.7-5.259,8.529-5.563,7.276-4.745,7.5-15.244,16.745-14.661l-1.787-.588c-.547-2.144,1.022-3.1,1.075-4.816,4.255.668,2.749-2.286,6.77-2.441.727-2.967,2.943-5.186-.271-6.734l-9.271,7.035,1.266-.814,1.278,2.146c-2.607.373-6.995.159-6.977,3.113-4.995-1.4-3.327,4.812-5.845,6.445a12.162,12.162,0,0,0-4.591,4.886c-3.318,4.066-10.53,6.37-9.9,11.994,3.335-1.858,6.3-5.554,7.849-7.269C600.254,1913.166,596.687,1915.681,594.315,1917.615Z" fill="#231815"/>
      <path id="Path_19849" data-name="Path 19849" d="M620.306,1882.372l-10.085,7.265,10.392-6.666Z" fill="#231815"/>
      <path id="Path_19850" data-name="Path 19850" d="M638.41,1825.1l-1.265.811,1.716.075Z" fill="#231815"/>
      <path id="Path_19851" data-name="Path 19851" d="M753.516,1857.821a2.6,2.6,0,0,0,2.4,1.769,1.738,1.738,0,0,0-.155-1.772l2.9-1.262c-2.091-1.187-3.585-1.18-6.5-2.138l-.291.884C752.39,1856.71,755.89,1855.889,753.516,1857.821Z" fill="#231815"/>
      <path id="Path_19852" data-name="Path 19852" d="M662.76,1867.308c7.473,3.689,10.467-5.411,17.625-3.055,1.775-3.836,7.015.588,8.851-3.484l1.646,1.04c6.827-4.15,15.178-3.862,22.833-6.011l-.459-2.371c1.338-.3,3.345-1.115,4.022.586-.061.96-1.255.815-1.627,1.185.927,4,4.238-1.556,5.829,1.918.433-.6.058-1.7,1.324-1.782,5.468,4.507,12.971.579,19.534,1.76,2.614.361,7.53,1.247,9.528-1.792-1.275-1.4-4.988.819-5.688-2.363-4,3.114-7.829-1.1-11.171-.724-10.884-.137-23.333-.787-34.033,2.332-7.392-1.693-15.035,3.416-22.636,3.134-1.622,1.923-3.625,4.216-6.614,2-4.289,5.477-13.392,2.233-16.344,8.153-3.36-1.1-8.771,2.524-11.814,4.97-5.355,1.927-11.368,5.124-15.581,9.636l1.561.513-.219.666,2.692.886C641.359,1877.246,653.042,1873.457,662.76,1867.308Z" fill="#231815"/>
      <path id="Path_19853" data-name="Path 19853" d="M577.453,2198.929l-.756-1.491c-4.949-5.316-7.887-10.706-12.608-15.955-2.8-3.619-1.846-6.5-3.72-10.576-2.021-.666-1.9-3.329-3.466-5.315-1.848,2.583-2.028-2.145-2.687-.884l1.5,2.206.821-.211c.733-.009.9,1.027,1.28,1.4-.664,1.26-3.576,1.042-3.727.736,2.864,4.879,8.411,9.911,9.414,16.644,7.916,1.616,4.174,9.98,9.042,14.043C574.283,2202.557,575.739,2198.849,577.453,2198.929Z" fill="#231815"/>
      <path id="Path_19854" data-name="Path 19854" d="M568.9,2154.038c-.368.369-.9.444-.815.962l1.711.073C569.643,2154.773,569.564,2154.257,568.9,2154.038Z" fill="#231815"/>
      <path id="Path_19855" data-name="Path 19855" d="M569.616,2160.921c.367,1.1,2.172,2.433.245,3.023,4.406,3.176,3.781,10.348,7.665,11.387l.368-1.118C572.217,2171.864,577.215,2162.676,569.616,2160.921Z" fill="#231815"/>
      <path id="Path_19856" data-name="Path 19856" d="M573.9,2178.813l1.064,2.068,1.151-1.058C575.045,2180.362,574.277,2178.312,573.9,2178.813Z" fill="#231815"/>
      <path id="Path_19857" data-name="Path 19857" d="M576.723,2179.244l-.613.579A1.473,1.473,0,0,0,576.723,2179.244Z" fill="#231815"/>
      <path id="Path_19858" data-name="Path 19858" d="M583.562,2176.576c.431-2.809-3.977-5.245-4.282-6.575C580.041,2172.961,580.732,2176.135,583.562,2176.576Z" fill="#231815"/>
      <path id="Path_19859" data-name="Path 19859" d="M577.339,2181.173l2.61-.368-.752-1.487C578.667,2179.4,577.258,2179.919,577.339,2181.173Z" fill="#231815"/>
      <path id="Path_19860" data-name="Path 19860" d="M580.476,2182.206c-.084.08.219.442.649.9A2.365,2.365,0,0,0,580.476,2182.206Z" fill="#231815"/>
      <path id="Path_19861" data-name="Path 19861" d="M581.125,2183.109c.478,1.145-.461,2.166-.1,3.46C585.493,2187.474,582.571,2184.644,581.125,2183.109Z" fill="#231815"/>
      <path id="Path_19862" data-name="Path 19862" d="M576.432,2202.034l.756,1.479.876-2.662Z" fill="#231815"/>
      <path id="Path_19863" data-name="Path 19863" d="M588.96,2192.626l-1.047-2.065c-2.453,1.411-1.887-2.6-3.9-2.52l1.051,2.08c-1.322,1.777-4.324-.442-4.616-.3l.081,1.262c2.329,2.73,8.009,4.351,6.991,8.2,3.948.818,7.259,5.1,8.388,6.942.673.221,4.126,3.325,4.621.295-.158-1.778-3.739-1.478-2.259-3.7,3.428.148,5.9,3.173,8.3,5.688-2.708-4.579-5.188-9.1-9.383-11.458l.959-1.4C593.317,2196.759,593.849,2187.595,588.96,2192.626Z" fill="#231815"/>
      <path id="Path_19864" data-name="Path 19864" d="M588.2,2213.038c-4.333-2.655-5.279-9.6-10.409-7.6,2.173,2.43,2.92,1.693,5.76,3.611l-.661.528c.906,1.762.4,4.8,2.866,5.612l-.3-.589Z" fill="#231815"/>
      <path id="Path_19865" data-name="Path 19865" d="M591.1,2189.885c-2.921-2.434.853-6.367-2.589-7.99l1.063,2.079c-.071.956-1.04.885-1.631,1.181-.075-.515-1.127-1.109-.616-1.92l-1.566-.516-.364,1.108C588.393,2185.3,587.608,2190.7,591.1,2189.885Z" fill="#231815"/>
      <path id="Path_19866" data-name="Path 19866" d="M597.524,2179.444c1.83,5.77,5.105,5.626,7.15,10.725l-2.164-.221c.923,3.994,5.987,4.429,8.015,8.054l-.59.3c.771,2.955,5.234,1.467,5.908,3.168.879-2.668-.524-.664-1.126-3.328.738,0,.725-.743.944-1.41a1.8,1.8,0,0,0-2.835-.434c1.257-3.035-3.756-5.175-5.635-7.77-1.478,1.49-1.933-.137-2.9-.216l1.031-1.623C602.922,2184.178,600.359,2179.894,597.524,2179.444Z" fill="#231815"/>
      <path id="Path_19867" data-name="Path 19867" d="M709.571,1848.036l-1.352-1.192-1.7,1.408Z" fill="#231815"/>
      <path id="Path_19868" data-name="Path 19868" d="M587.269,2218.147l.853-1.326c-.336-.247-.656-.472-.944-.666Z" fill="#231815"/>
      <path id="Path_19869" data-name="Path 19869" d="M588.122,2216.821c.167.118.35.244.537.377-.111-.23-.256-.449-.355-.672Z" fill="#231815"/>
      <path id="Path_19870" data-name="Path 19870" d="M721.95,2270.579c-9.248-.569-18.113-.785-27.366-3.589-4.464.009-11.111-1.682-15.75-3.457l-.366,1.111c-17.007-4.128-34.045-11.205-48.766-17.78-.981-3.027-5.753-2.131-6.806-3.466-3.28-1.321-5.914-4.649-8.9-5.389-5.77-5.09-14.885-9.818-17.392-15.809-1.682-.554-5.285-3.095-7.947-5,2.384,4.777,6.985,7.969,11.418,11.063.607,1.187,1.209,3.106,2.841,1.922.257,3.037,4.722,3.766,6.073,4.951,2.548,2.806,3.608,4.875,6.151,6.939,7.185,2.364,10.112,7.766,17.934,8.859.394,3.337,3,1.48,3.842,4.215,7.966,1.4,17.992,6.42,25.92,10.25,5.941-2.963,11.637,3.09,17.3,3.237l-4.315,1.038,11.485,1.321c2.662-2.074,4.259,2.139,6.415,1.628,6.647,3.167,12.88-1.427,17.979,3.45,2.077-1.037,4.463,0,6.718-.009C719.366,2273.915,723.379,2273.026,721.95,2270.579Z" fill="#231815"/>
      <path id="Path_19871" data-name="Path 19871" d="M601.762,2177.9l-1.183,1.329c2.264,4.437,7.11,4.792,10.83,5.535C609.83,2181.284,604.91,2181.145,601.762,2177.9Z" fill="#231815"/>
      <path id="Path_19872" data-name="Path 19872" d="M738.62,2256.142c-.528-1.4-2.394-1.031-2.995-2.214l.756,1.477c-3.028,4.668-7.557-4.2-8.119,1.267l-5.519-2.8.289.595c-.8.965-2.519,2.364-3.86,1.19-1.9-4.079-6.787-.523-10.3-3.391-.669,1.25-2.056,4.724-4.438,4.437-.68-.964.358-1.844.424-2.81-3.132-.291-7.575,3.405-8.565-1.1-5.507,2.371-9.127-3.978-13.068-2.584-10.022-5.741-20.243,2.695-29.012-5.361-4.775-.588-8.815-2.65-13.084-5.527-6.333-1.111-8.457-6.728-13.992-8.792-2.036-3.617-8.358-3.972-10.932-8.274-4.647-5.465-11.891-7.593-14.459-14.1-6.315,4.068,1.746,5.983,4.218,9.021a105.1,105.1,0,0,0,12.154,12.109,2.841,2.841,0,0,1,1.992-2.287c1.049.578,2.613.361,2.924,1.689l-3.8.966c3.6,4.141,13.872,2.349,16.459,9.6,8.209,2.2,11.91,9.818,20.772,9.294,1.6,4.949,10.386,3.9,14.042,6.35,1.795-.156,1.446,3.17,3.668,1.692,7.772,2.8,19.022,4.047,26.106,5.15-.44-.145-1.185-.148-1.413-.963,7.214-.816,14.684,1.391,21.467.425,3.8.512,1.011-3.846,2.644-5.035,4.025,1.324,8.643.874,13.2,2.131C736.09,2256.29,738.025,2256.443,738.62,2256.142Z" fill="#231815"/>
      <path id="Path_19873" data-name="Path 19873" d="M615.424,2193.707l1.113.366c1.491-.737,3.2-1.412,3.935-2.892-2.327-1.993-4.324-.44-6.8-2.733C612.572,2191.042,617.05,2192.516,615.424,2193.707Z" fill="#231815"/>
      <path id="Path_19874" data-name="Path 19874" d="M727.265,1843.27l4.41-.52-1.575-.519C728.981,1841.863,727.113,1841.5,727.265,1843.27Z" fill="#231815"/>
      <path id="Path_19875" data-name="Path 19875" d="M616.466,2217.67c-2.474-3.024-5.767-7.315-8.681-7.533Z" fill="#231815"/>
      <path id="Path_19876" data-name="Path 19876" d="M621.045,2198.507l.365-1.11c-1.047-.592-2.256-2.952-3.667-1.7Z" fill="#231815"/>
      <path id="Path_19877" data-name="Path 19877" d="M735.762,1843.115l-.146.443,1.712.072Z" fill="#231815"/>
      <path id="Path_19878" data-name="Path 19878" d="M743.519,1844.438c2.966-2.955,5.013,2.141,8.126.953-2.036-3.618-8.127-2.432-11.258-1.984C741.359,1844.219,742.241,1843.031,743.519,1844.438Z" fill="#231815"/>
      <path id="Path_19879" data-name="Path 19879" d="M618.117,2218.709c-.442.586.523,1.4,1.208,1.628l.366-1.11Z" fill="#231815"/>
      <path id="Path_19880" data-name="Path 19880" d="M624.22,2205.465c2.912.958,4.562,4.2,7.546,4.2A17.05,17.05,0,0,0,624.22,2205.465Z" fill="#231815"/>
      <path id="Path_19881" data-name="Path 19881" d="M626.483,2211.377l-1.7,1.4c1.43.954,3.431.15,4.393-.516-1.869-1.112-3.458-4.591-5.391-3.99Z" fill="#231815"/>
      <path id="Path_19882" data-name="Path 19882" d="M630.609,2214.7c3.453,3.845,7.7,4.511,11.444,6.717C639.122,2218.238,633.526,2216.4,630.609,2214.7Z" fill="#231815"/>
      <path id="Path_19883" data-name="Path 19883" d="M758.2,1845.086c-.6-.441-1.337.3-1.941.6l2.467.07Z" fill="#231815"/>
      <path id="Path_19884" data-name="Path 19884" d="M650.289,2203.953l-4.933-1.623c2.093.438,2.7,3.837,5.014,2.877C650.29,2204.691,649.911,2204.31,650.289,2203.953Z" fill="#231815"/>
      <path id="Path_19885" data-name="Path 19885" d="M647.749,2215.412l-2.181-2.438-3.045.229Z" fill="#231815"/>
      <path id="Path_19886" data-name="Path 19886" d="M760.83,1858.992l2.244.739c-.087-1.26-1.428-.961-2.024-1.407Z" fill="#231815"/>
      <path id="Path_19887" data-name="Path 19887" d="M644.152,2222.6c.451.889-.5,3.028,1.5,2.948,2.221-2.217,2.989,1.481,5.6,1.111C648.265,2225.925,646.976,2222.293,644.152,2222.6Z" fill="#231815"/>
      <path id="Path_19888" data-name="Path 19888" d="M652.216,2214.678l.219-.665a5.672,5.672,0,0,1-2.544-1.335Z" fill="#231815"/>
      <path id="Path_19889" data-name="Path 19889" d="M871.595,1919.708a16.4,16.4,0,0,0,2.022,2.18A7.879,7.879,0,0,0,871.595,1919.708Z" fill="#231815"/>
      <path id="Path_19890" data-name="Path 19890" d="M878.325,1925.952l-1.29-2.135a9.419,9.419,0,0,1-3.418-1.929C874.961,1923.8,876.045,1925.949,878.325,1925.952Z" fill="#231815"/>
      <path id="Path_19891" data-name="Path 19891" d="M789.809,1871.984c1.957.877,4.057,3.545,5.834,2.652l-.427,2.807c3.627-3.482,4.792,2.812,8.962,2.212,3.6,3.4,8.144,3.175,12.352,7.758,8.477-1.635,11,8.783,19.923,5.819,2.16.959,4.878,5.542,7.335,4.872,8.089,6.35,18.046,14.554,26.582,21.053a4.22,4.22,0,0,1,1.225.551c-3.062-3.87-5.231-8.95-10.892-9.645-10.79-10.191-23.372-18.76-36.6-26.062-2.421-2.668-7.006-1.417-7.58-4.847-2.347.426-4.349-2.031-5.431-2.386-10.236-3.616-21.018-11.594-33.17-13.872-3.672-2.44-7.559-4.209-10.985-4.356C769.609,1868.527,782.852,1866,789.809,1871.984Z" fill="#231815"/>
      <path id="Path_19892" data-name="Path 19892" d="M816.465,1878.537a5.255,5.255,0,0,0,.055.617c.087-.023.161-.005.254-.03Z" fill="#231815"/>
      <path id="Path_19893" data-name="Path 19893" d="M659.365,2214.075a2.9,2.9,0,0,1,2-2.3l-6.134-3.249.775,3.7.593-.3C657.719,2212.3,659.141,2212.523,659.365,2214.075Z" fill="#231815"/>
      <path id="Path_19894" data-name="Path 19894" d="M658.79,2218.064c.363-1.1-3.874-1.765-4.026-2.063C656.037,2216.667,657.023,2218.961,658.79,2218.064Z" fill="#231815"/>
      <path id="Path_19895" data-name="Path 19895" d="M651.927,2227.612l2.692.885-.238-.81C653.641,2227.694,652.292,2226.5,651.927,2227.612Z" fill="#231815"/>
      <path id="Path_19896" data-name="Path 19896" d="M782.4,1853.049l-1.576-.519-.147.446Z" fill="#231815"/>
      <path id="Path_19897" data-name="Path 19897" d="M663.056,2219.468l-1.264.076,2.828.438Z" fill="#231815"/>
      <rect id="Rectangle_177" data-name="Rectangle 177" width="0.46" height="4.477" transform="matrix(0.313, -0.95, 0.95, 0.313, 660.377, 2231.374)" fill="#231815"/>
      <path id="Path_19898" data-name="Path 19898" d="M669.442,2216.651l-2.826,1.04C667.662,2218.283,669.376,2218.35,669.442,2216.651Z" fill="#231815"/>
      <path id="Path_19899" data-name="Path 19899" d="M672.659,2218.948l-2.021-.665-.217.66Z" fill="#231815"/>
      <path id="Path_19900" data-name="Path 19900" d="M700.53,2242.874l.511-1.552c-9.765-1.99-20.219-4.2-29.462-6.261,1.72,3.039,3.749,4.439,7.383,3.177-1.609,3.406,2.036,2.88,3.61,3.4l-2.183-2.433c4.616-.454,5.549,5.019,10.146,1.613C693.448,2242.514,697.33,2242.072,700.53,2242.874Z" fill="#231815"/>
      <path id="Path_19901" data-name="Path 19901" d="M675.834,2231.229a9.017,9.017,0,0,0-2.868-.383A3.117,3.117,0,0,0,675.834,2231.229Z" fill="#231815"/>
      <path id="Path_19902" data-name="Path 19902" d="M688.786,2235.568c3.574-1.039,8.735,2.875,10.883-.6-3.452-2.366-7.234.077-11.127-2.434-1.192-.141-.055,2.443-2.075,1.031-.244-3.022-4.332-.432-5.688-3.093-2.051-1.168-3.363.235-4.945.759C680.122,2232.365,684.661,2235.812,688.786,2235.568Z" fill="#231815"/>
      <path id="Path_19903" data-name="Path 19903" d="M678.072,2226.628l1.709.073-1.564-.514Z" fill="#231815"/>
      <path id="Path_19904" data-name="Path 19904" d="M693.452,2230.453c-.6-.439-1.06-2.069-2.1-1.181l-.145.442Z" fill="#231815"/>
      <path id="Path_19905" data-name="Path 19905" d="M814.021,1869.36l-.756-1.477-2.381.445Z" fill="#231815"/>
      <path id="Path_19906" data-name="Path 19906" d="M705.309,2232.151c-1.2-.153-2.551-1.338-3.956-.818C702.247,2232.366,704.347,2233.549,705.309,2232.151Z" fill="#231815"/>
      <path id="Path_19907" data-name="Path 19907" d="M719.864,2236.941c-5.806.293-11.777-1.175-17.807-1.682C706.763,2238.28,714.509,2238.13,719.864,2236.941Z" fill="#231815"/>
      <path id="Path_19908" data-name="Path 19908" d="M733.1,2232.924l-9.689-1.47c-5.574,2.6-10.733-.574-16.536,1.212C715.754,2235.09,725.571,2233.154,733.1,2232.924Z" fill="#231815"/>
      <path id="Path_19909" data-name="Path 19909" d="M758.294,2245.4c-.32-2.8,2.726-5.252,5.254-5.408a119.493,119.493,0,0,0-16.882,2.823C751.348,2244.73,754.07,2241.824,758.294,2245.4Z" fill="#231815"/>
      <path id="Path_19910" data-name="Path 19910" d="M723.848,2242.923c-2.806,3.993-7.892-.139-10.871.606-2.9,1.26-4.64-3.99-7-.584,1.486.732,2.84,1.918,2.256,3.693,2.526-.9,6.29,3.549,7.38-.521,2.688,2.356,7.939-3.045,9.324,2.573,2.157-.516-.614-2.67,1.548-3.18.978,1.543,3.209,1.547,4.624,1.03,2.21-3.808,11.028-1.515,15.021-3.593-.521.141-1.046.245-1.552.4C737.175,2240.911,731.546,2245.952,723.848,2242.923Z" fill="#231815"/>
      <path id="Path_19911" data-name="Path 19911" d="M746.127,2242.947c.176-.042.363-.086.539-.137-.058-.024-.11-.041-.162-.058A3.575,3.575,0,0,1,746.127,2242.947Z" fill="#231815"/>
      <path id="Path_19912" data-name="Path 19912" d="M713.927,2227.844l2.832.442C716.369,2226.438,714.9,2227.915,713.927,2227.844Z" fill="#231815"/>
      <path id="Path_19913" data-name="Path 19913" d="M707.451,2264.095l.513-1.56-2.6.376Z" fill="#231815"/>
      <path id="Path_19914" data-name="Path 19914" d="M836.911,1882.8c.058-1.7-2.1-1.921-2.774-2.143C833.926,1882.065,836.911,1882.8,836.911,1882.8Z" fill="#231815"/>
      <path id="Path_19915" data-name="Path 19915" d="M721.382,2228.577l3.714,0-1.116-.367Z" fill="#231815"/>
      <path id="Path_19916" data-name="Path 19916" d="M739.384,2235.732c-3.36.372-5.968,0-8.786,1.045-2.742,1.558-7.478-3.7-8.641,1.336,7.238,1.4,13.989-2.533,21.23-1.129,4.837-1.118,10.274-2.532,14.812-3.5-2.541-.585-6.244,2.383-8.8-.434,1.4-1.258,3.338-1.843,4.6-3.4-2.694-.887-5.661.59-7.741,1.634l.609,1.926C744.364,2234.913,741.232,2233.882,739.384,2235.732Z" fill="#231815"/>
      <path id="Path_19917" data-name="Path 19917" d="M727.033,2227.97l2.224-1.484-1.113-.366C727.167,2226.055,727.472,2227.377,727.033,2227.97Z" fill="#231815"/>
      <path id="Path_19918" data-name="Path 19918" d="M734.2,2228.114c4.373-.524,10.335-1.27,13.078-3.571a32.328,32.328,0,0,0-18.682,3.942C730.392,2228.338,732.782,2229.372,734.2,2228.114Z" fill="#231815"/>
      <path id="Path_19919" data-name="Path 19919" d="M837.531,1899l3.36,1.106-1.726-2.3C838.793,1898.176,837.825,1898.111,837.531,1899Z" fill="#231815"/>
      <path id="Path_19920" data-name="Path 19920" d="M719.894,2264c1.281,2.148,3.725,0,5.739.659l-.6-1.92C722.928,2261.556,721.38,2263.262,719.894,2264Z" fill="#231815"/>
      <path id="Path_19921" data-name="Path 19921" d="M727.835,2259.487c-1.937-.147-1.627,1.177-2.9,2,5.139-.534,11.41.8,15.648-.764-2.917-1.7-8.208-1.471-10.724.159C729.263,2260.448,727.915,2260.744,727.835,2259.487Z" fill="#231815"/>
      <path id="Path_19922" data-name="Path 19922" d="M743.531,2232.178l-2.687-.884-5.355,1.926Z" fill="#231815"/>
      <path id="Path_19923" data-name="Path 19923" d="M734.786,2273.091l.059-1.71-1.484.743-1.656-2.508-2.813,3.247c-.682-1.694-2.387-.287-3.346-.355C728.182,2278.046,731.112,2270.652,734.786,2273.091Z" fill="#231815"/>
      <path id="Path_19924" data-name="Path 19924" d="M742.36,2269.667l-5.431.68c-.585,1.778.624,3.4,2.773,4.362.737-2.956,4.94.879,5.655-2.81l2.171,2.435c-.969-1.556.962-2.15,1.471-2.963,1.722.069,2.552,1.321,3.517,2.138,2.159.211,2.456-1.407,2.593-2.588,3.205.807,8.061,1.175,11.322.289l-.451-.9,8.169-4.441c-6.846,1.186-17.431,1.641-23.655,4.755C747.8,2269.014,744.77,2272.19,742.36,2269.667Z" fill="#231815"/>
      <path id="Path_19925" data-name="Path 19925" d="M781.1,2247.136l-.523-.8C780.585,2246.881,780.795,2247.093,781.1,2247.136Z" fill="#231815"/>
      <path id="Path_19926" data-name="Path 19926" d="M789.615,2249.8a.9.9,0,0,0,.513-1.559c-1.171,3.559-5,.083-6.622,2.007l.315.593c-1.581-.52-3.65,1.26-4.63-.294l5.654-2.815c-.7-1.9-2.761-.462-3.743-.6l.3.448c-4.547-.5-2.727,4.52-4.808,5.569-1.652-1.781-4.615.442-5.9-2.439-2.389-.289-2.673,2.076-4.081,3.327l-.74-1.474-2.084,1.034c-1.126-1.11-6.548,1.791-5.085-2.655-1.049-.587-2.225,1.487-2.84-.442a3.84,3.84,0,0,0,1.816,3.554c-1.8-.591-2.971,1.48-4.323.3-3.495.072-2.955,2.964-4.433,4.446-.453-.149-1.2-.142-1.431-.967l.888-.44c-2.628-4.063-3.562,2.517-6.376,2.818,7.888.878,13.245-1.787,21.656-2.466.958-2.151,4.019-.89,5.957-1.479.741.733-.366,1.847-.442,2.8l1.126.371a3.117,3.117,0,0,0,2-2.289c-.678-.224-1.346-.443-1.577-1.267,3.406-2.809,10.946-.826,10.78-3.338l.3.588c.083.523-.444.591-.812.969,2.76-.08,3.491-1.56,5.951-2.229l.751,1.477,3.57-1.775c-1.274-.668-2.757.813-3.956-.811Z" fill="#231815"/>
      <path id="Path_19927" data-name="Path 19927" d="M752.162,2252.737c-1.279-2.147-4.1.365-5.3.218C748.15,2255.1,750.374,2252.881,752.162,2252.737Z" fill="#231815"/>
      <path id="Path_19928" data-name="Path 19928" d="M758.078,2224.171l3.28-.9-1.576-.518C759.123,2223.286,758.156,2223.208,758.078,2224.171Z" fill="#231815"/>
      <path id="Path_19929" data-name="Path 19929" d="M762.233,2220.619l.528,2.136c1.346.443,3.342-2.589,4.175-.588l3.112-1.932-.823-1.251C766.993,2219.719,764.385,2218.613,762.233,2220.619Z" fill="#231815"/>
      <rect id="Rectangle_178" data-name="Rectangle 178" width="0.696" height="1.654" transform="matrix(0.313, -0.95, 0.95, 0.313, 749.611, 2262.715)" fill="#231815"/>
      <path id="Path_19930" data-name="Path 19930" d="M764.967,2228.152c-1.488.747-.879,2.668-.586,3.994l2.621-1.113c-2.467-.812-.181-3.985-1.972-4.574C763.392,2226.9,764.738,2227.346,764.967,2228.152Z" fill="#231815"/>
      <path id="Path_19931" data-name="Path 19931" d="M849.411,1973.769c.222-.673-.515-1.409-1.19-1.631l-.368,1.118Z" fill="#231815"/>
      <path id="Path_19932" data-name="Path 19932" d="M852.145,1979.836c-1.193-.891-.092-2.012-.7-3.186C850.041,1977.162,850.427,1979.755,852.145,1979.836Z" fill="#231815"/>
      <path id="Path_19933" data-name="Path 19933" d="M759.824,2261.891l.364-1.1-2.39.438Z" fill="#231815"/>
      <path id="Path_19934" data-name="Path 19934" d="M769.082,2230.743l6.469-1.568-1.784-.587C772.889,2231.255,769.666,2228.968,769.082,2230.743Z" fill="#231815"/>
      <path id="Path_19935" data-name="Path 19935" d="M774.1,2224.524l-1.784-.587c-.444.586-1.425.514-1.478,1.475Z" fill="#231815"/>
      <path id="Path_19936" data-name="Path 19936" d="M776.489,2235.4l-5.717,2.289C772.859,2238.872,775.446,2237.016,776.489,2235.4Z" fill="#231815"/>
      <path id="Path_19937" data-name="Path 19937" d="M775.9,2225.847c2.462-.667,3.717-2.223,6.474-1.557-3.06-.518.5-2.293-2.028-2.879C777.734,2221.784,777.375,2224.375,775.9,2225.847Z" fill="#231815"/>
      <path id="Path_19938" data-name="Path 19938" d="M780.163,2216.676l2.331-1.166C781.482,2215.669,780.417,2215.382,780.163,2216.676Z" fill="#231815"/>
      <path id="Path_19939" data-name="Path 19939" d="M783.716,2214.9l-1.222.612A1.85,1.85,0,0,0,783.716,2214.9Z" fill="#231815"/>
      <path id="Path_19940" data-name="Path 19940" d="M775.136,2246.267c-1.4,1.258-2.9.517-4.461.742.846,4.217,3.793-.962,5.214.736Z" fill="#231815"/>
      <path id="Path_19941" data-name="Path 19941" d="M783.307,2219.93c.687,1.7,2.909.21,3.653-.526C785.76,2218.518,784.5,2219.335,783.307,2219.93Z" fill="#231815"/>
      <path id="Path_19942" data-name="Path 19942" d="M790.56,2212.231c2.145-2.744,5.42-2.155,8.085-4.972C794.986,2205.562,791.735,2210.151,790.56,2212.231Z" fill="#231815"/>
      <path id="Path_19943" data-name="Path 19943" d="M789.131,2233.162c3.357,1.1,2.662-2.815,3.4-3.565-3.877-.282-5.422,1.419-8.838,3.494C785.4,2233.162,787.638,2230.942,789.131,2233.162Z" fill="#231815"/>
      <path id="Path_19944" data-name="Path 19944" d="M794.57,2221.908c-1.209-2.358-4.618-.29-6.857-1.027C789.592,2223.477,792.174,2220.88,794.57,2221.908Z" fill="#231815"/>
      <rect id="Rectangle_179" data-name="Rectangle 179" width="0.466" height="2.368" transform="matrix(0.313, -0.95, 0.95, 0.313, 883.197, 1932.228)" fill="#231815"/>
      <path id="Path_19945" data-name="Path 19945" d="M805.947,2252.219c-1.105,1.856-5.275,1.706-7.491,4.672-4.331-1.177-5.488,3.861-9.819,2.682-2.141,3.475-5.651,2.066-8.835,3.485-.823.95,0,2.216.375,2.586,2.9-2,9.63,1.691,10.268-2.524l2.979-1.487c-.7-3.92,4.234-1.549,6.095-2.671,1.087-4.062,5.662.882,6.527-3.269l.231.822,4.9-2.075C810.264,2250.441,808.8,2254.88,805.947,2252.219ZM788.879,2262.6l-1.935.59.364-1.107Z" fill="#231815"/>
      <path id="Path_19946" data-name="Path 19946" d="M803.636,2217.763c.375-.373-.007-.735-.088-1.258-1.042-.6-1.783.145-2.6.374-1.2-.893-3.673-2.438-2.259-3.7-1.64.449-2.3,1.7-3.33,2.6C797.539,2220.427,799.527,2216.652,803.636,2217.763Z" fill="#231815"/>
      <path id="Path_19947" data-name="Path 19947" d="M795.951,2228.277c3.121-2.677,5.227,1.471,7.832-.387-.453-.149-1.2-.139-1.428-.96,3.048-1.7,6.432-7.472,10.855-3.556l1.243-3.778c-5.094-4.134-5.564,4.067-11.448,3.86C801.836,2227.007,797.351,2225.531,795.951,2228.277Z" fill="#231815"/>
      <path id="Path_19948" data-name="Path 19948" d="M805.7,2202.451c1.2,1.623,1.926-1.337,3.112-1.936C807.318,2199.776,806.587,2202,805.7,2202.451Z" fill="#231815"/>
      <path id="Path_19949" data-name="Path 19949" d="M805.6,2210.284l.365-1.111-1.118-.368c-.3.154-.887.454-1.031.892Z" fill="#231815"/>
      <path id="Path_19950" data-name="Path 19950" d="M807.324,2211.832l2.023,1.416.366-1.111C808.968,2212.135,807.614,2210.949,807.324,2211.832Z" fill="#231815"/>
      <path id="Path_19951" data-name="Path 19951" d="M812.577,2207.166c3.867-1.926,2.869-6.434,5.165-8.877-4.552-1.249-1.829,4.815-6.07,5.629l1.873,1.848Z" fill="#231815"/>
      <path id="Path_19952" data-name="Path 19952" d="M815.33,2216.933l.9.3.51-1.549C816.362,2216.037,815.4,2215.972,815.33,2216.933Z" fill="#231815"/>
      <path id="Path_19953" data-name="Path 19953" d="M821.2,2213.456l-.677-.223c-.745.738-2.013.815-2.3,1.7A1.8,1.8,0,0,0,821.2,2213.456Z" fill="#231815"/>
      <path id="Path_19954" data-name="Path 19954" d="M821.529,2207.162l.73-2.221A1.322,1.322,0,0,0,821.529,2207.162Z" fill="#231815"/>
      <path id="Path_19955" data-name="Path 19955" d="M827.946,2208.784c-2.986-.741-3.856,2.667-6.014,3.927Z" fill="#231815"/>
      <path id="Path_19956" data-name="Path 19956" d="M822.82,2244.731c-.952,4.358-4.777-1.322-6.619,2.008l.753,1.478c-1.413,1.262-1.842,3.331-4.226,3.776l1.353,1.187c1.707-.678,5.573-1.118,4.291-4,1.939.14,2.669-2.812,4.326-.3.724-2.96,5.054-1.036,4.579-4.891C825.643,2245.177,824.383,2244.514,822.82,2244.731Z" fill="#231815"/>
      <path id="Path_19957" data-name="Path 19957" d="M821.665,2227.868l2.74-.81c.878-2.668,7.965-3.038,3.831-6.367l-1.412.518C828.733,2226.762,822.3,2223.658,821.665,2227.868Z" fill="#231815"/>
      <path id="Path_19958" data-name="Path 19958" d="M831.786,2204.63c-1.179.6-2.816,1.042-2.582,2.6l3.27.587Z" fill="#231815"/>
      <rect id="Rectangle_180" data-name="Rectangle 180" width="0.473" height="2.357" transform="matrix(0.313, -0.95, 0.95, 0.313, 834.908, 2191.394)" fill="#231815"/>
      <path id="Path_19959" data-name="Path 19959" d="M834.227,2202.486l-.949,1.4,1.629-1.176Z" fill="#231815"/>
      <path id="Path_19960" data-name="Path 19960" d="M841.423,2185.911l-1.256.816,1.716.075Z" fill="#231815"/>
      <path id="Path_19961" data-name="Path 19961" d="M912.014,1973.7l4.2,3.1-3.54-3.632,1.417-.516-1.126-.37C912.815,1972.735,912.827,1973.471,912.014,1973.7Z" fill="#231815"/>
      <path id="Path_19962" data-name="Path 19962" d="M849.674,2194.043l-1.589-4.219c-3.116,1.925-4.361,4.967-6.662,7.4Z" fill="#231815"/>
      <path id="Path_19963" data-name="Path 19963" d="M834.323,2238.439c.655-.88.249-3.04,1.037-4.259a22.8,22.8,0,0,0-6.535,6.628l.455.15c.9,1.028-.513,1.557-1.185,2.068l1.423.966a86.12,86.12,0,0,0,14.683-9.93C839.711,2231.848,839.461,2239.389,834.323,2238.439Z" fill="#231815"/>
      <path id="Path_19964" data-name="Path 19964" d="M835.36,2234.18c.462-.281.894-.6,1.385-.851A1.865,1.865,0,0,0,835.36,2234.18Z" fill="#231815"/>
      <path id="Path_19965" data-name="Path 19965" d="M842.505,2213.576l-1.133-.373c-2.585,1.108-1.454,2.961-4.658,3.633C838.65,2216.984,840.649,2214.685,842.505,2213.576Z" fill="#231815"/>
      <path id="Path_19966" data-name="Path 19966" d="M853.212,2175.768l-2.474-1.547-.218.661C851.485,2174.958,852.916,2175.91,853.212,2175.768Z" fill="#231815"/>
      <path id="Path_19967" data-name="Path 19967" d="M855.762,2169.478c-2.319-1.261-1.169,1.336-1.307,2.512C855.793,2171.7,855.471,2170.362,855.762,2169.478Z" fill="#231815"/>
      <path id="Path_19968" data-name="Path 19968" d="M888.556,2066.846c.448,1.62,2.459.81,3.052-.226Z" fill="#231815"/>
      <rect id="Rectangle_181" data-name="Rectangle 181" width="0.473" height="1.896" transform="matrix(0.313, -0.95, 0.95, 0.313, 892.436, 2058.037)" fill="#231815"/>
      <path id="Path_19969" data-name="Path 19969" d="M849.24,2207.426l-4.615-.29C847.165,2207.724,847.1,2210.162,849.24,2207.426Z" fill="#231815"/>
      <path id="Path_19970" data-name="Path 19970" d="M857.63,2167.618c.659-.145.862-.761,1.063-1.371Z" fill="#231815"/>
      <path id="Path_19971" data-name="Path 19971" d="M858.693,2166.247l1.079-1.365C859.093,2165.03,858.89,2165.646,858.693,2166.247Z" fill="#231815"/>
      <path id="Path_19972" data-name="Path 19972" d="M894.107,2060.55,893,2062.4l.89.293C894.106,2062.028,895.3,2060.692,894.107,2060.55Z" fill="#231815"/>
      <path id="Path_19973" data-name="Path 19973" d="M857.432,2184.782l1.549-3.18-1.937.594-.465-2.363c-.436,1.326-1.922,2.067-2.725,3.034C855.419,2182.642,856.024,2184.57,857.432,2184.782Z" fill="#231815"/>
      <path id="Path_19974" data-name="Path 19974" d="M866.39,2152.3l-.475,1.444A1.643,1.643,0,0,0,866.39,2152.3Z" fill="#231815"/>
      <path id="Path_19975" data-name="Path 19975" d="M865.146,2156.076l.769-2.334a2.628,2.628,0,0,1-2.637.488Z" fill="#231815"/>
      <path id="Path_19976" data-name="Path 19976" d="M889.453,2078.458a15.1,15.1,0,0,0,1.014,7.468C889.63,2082.452,894.6,2080.151,889.453,2078.458Z" fill="#231815"/>
      <path id="Path_19977" data-name="Path 19977" d="M859.394,2176.572c.865-4.144,7.649-3.638,8.237-6.884-2.839-.445-.406-3.332-1.3-5.106l-.673.519C866.056,2169.91,860.043,2172.357,859.394,2176.572Z" fill="#231815"/>
      <path id="Path_19978" data-name="Path 19978" d="M888.358,2094.585c4.947,3.838-3.069,9.326.694,13.754l2-2.3,2.319,1.993c4.452-1.477-1.071-4.283.4-6.5-1.85,1.1,1.067,3.549-1.01,4.586-.6-.444-1.935-.152-1.795-1.337-.318-2.81-1.015-6.732,1.509-8.359l-2.331-4.207C889.62,2093.033,888.274,2093.331,888.358,2094.585Z" fill="#231815"/>
      <path id="Path_19979" data-name="Path 19979" d="M892.293,2091.693l-1-4.506-.672.519C892.721,2089.624,888.188,2091.325,892.293,2091.693Z" fill="#231815"/>
      <path id="Path_19980" data-name="Path 19980" d="M897,2082.667l-2.782-4.362C893.931,2079.932,894.174,2082.967,897,2082.667Z" fill="#231815"/>
      <path id="Path_19981" data-name="Path 19981" d="M863.183,2174.132l-.584,1.775,1.252-1.555Z" fill="#231815"/>
      <path id="Path_19982" data-name="Path 19982" d="M866.837,2163.029c1.656,2.507,2.733-2.29,4.984-.08,1.484-2.226,5.928-5.184,3.084-7.848C868.623,2152.3,870.848,2159.914,866.837,2163.029Z" fill="#231815"/>
      <path id="Path_19983" data-name="Path 19983" d="M922.513,1996.1l-.145.441,3.137,1.033C924.465,1996.991,924.144,1994.908,922.513,1996.1Z" fill="#231815"/>
      <path id="Path_19984" data-name="Path 19984" d="M845.527,2231.549l2.687.884.66-2.008-1.11-.365C847.088,2230.578,845.29,2229.986,845.527,2231.549Z" fill="#231815"/>
      <path id="Path_19985" data-name="Path 19985" d="M900.776,2089.319l-.458-.9c-.6-.438-1.113.381-1.936.608l-1.051-2.072c2.355-3.406-2.16-.952-3.294-2.813l.4,4.079C896.138,2087.55,898.783,2092.351,900.776,2089.319Z" fill="#231815"/>
      <path id="Path_19986" data-name="Path 19986" d="M858.938,2198.32l.73-2.218-.658-.217C858.178,2196.1,857.522,2198.09,858.938,2198.32Z" fill="#231815"/>
      <path id="Path_19987" data-name="Path 19987" d="M876.058,2150.071c.071-.965,1.111-1.851.208-2.879C874.03,2147.187,874.345,2150.746,876.058,2150.071Z" fill="#231815"/>
      <path id="Path_19988" data-name="Path 19988" d="M885.543,2119c-1.772,3.1-1.753,5.327-2.326,9.32C886.548,2124.256,884.009,2123.661,885.543,2119Z" fill="#231815"/>
      <path id="Path_19989" data-name="Path 19989" d="M886.334,2115.073c-.73,2.218,1.589,3.479,3.38,4.069,1.719.808,1.4-2.74,1.389-4.22-1.047-.592-1.036.881-2.082,1.036l-2.176-2.437Z" fill="#231815"/>
      <path id="Path_19990" data-name="Path 19990" d="M882.559,2130.319l-2.42,5.1C883.938,2135.934,881.309,2132.611,882.559,2130.319Z" fill="#231815"/>
      <path id="Path_19991" data-name="Path 19991" d="M895.1,2099.013l.8-2.436-1.564-.515C892.472,2096.423,893.61,2099.022,895.1,2099.013Z" fill="#231815"/>
      <path id="Path_19992" data-name="Path 19992" d="M864.109,2191.656l1.023-3.11c-1.108.376-1.034,1.637-1.991,2.3Z" fill="#231815"/>
      <path id="Path_19993" data-name="Path 19993" d="M878.949,2169.966c-5.619-.38-4.609,4.7-5.767,8.477l.894-1.217C875.249,2175.145,880.163,2172.334,878.949,2169.966Z" fill="#231815"/>
      <path id="Path_19994" data-name="Path 19994" d="M873.182,2178.443l-2.276,3.148A5.057,5.057,0,0,0,873.182,2178.443Z" fill="#231815"/>
      <path id="Path_19995" data-name="Path 19995" d="M930.007,2013.321l-1.8-.591-1.043.154Z" fill="#231815"/>
      <path id="Path_19996" data-name="Path 19996" d="M897.691,2107.743c-.372-.371-.75,0-1.265.068l.756,1.478Z" fill="#231815"/>
      <path id="Path_19997" data-name="Path 19997" d="M882.705,2162.344c1.48.737,2-1.558,1.321-2.513C882.982,2159.969,883.218,2161.527,882.705,2162.344Z" fill="#231815"/>
      <path id="Path_19998" data-name="Path 19998" d="M885.189,2154.8l1.334,1.179c.081-.962,1.125-1.1,1.188-2.07C886.592,2152.8,886.005,2154.583,885.189,2154.8Z" fill="#231815"/>
      <path id="Path_19999" data-name="Path 19999" d="M889.045,2152.128l-.093-1.992c-1.329,1.04-2.005.818-2.885,1.993Z" fill="#231815"/>
      <path id="Path_20000" data-name="Path 20000" d="M894.23,2137.849a3.766,3.766,0,0,0-3.638.531l2.161.207-.275,4.586Z" fill="#231815"/>
      <rect id="Rectangle_182" data-name="Rectangle 182" width="0.465" height="1.641" transform="matrix(0.313, -0.95, 0.95, 0.313, 918.766, 2070.881)" fill="#231815"/>
    </g>
    <g id="Group_969" data-name="Group 969">
      <g id="Group_918" data-name="Group 918">
        <path id="Path_20001" data-name="Path 20001" d="M953.732,1849.741c-.1.355.6.563,0,0Z" fill="#231815"/>
        <path id="Path_20002" data-name="Path 20002" d="M945.247,1804.2l-3.792-1.344c-.918-.24-9.4-1.171-7.347.4-3.747-.852-14.14,6.125-15.407,9.391-.338.327-3.17-.909-3.066,2.333-1.97,1.037-2.179,5.68-1.336,4.844-3.432,2.637-2.312,4.409-3.157,8.634-1.011,1.316-.549,7.994-2.621,9.34,2.246,4.508-2.081,5.689-.12,9.989.731,2.594-.891,5.271,2.4,5.543.895-1.445,5.253,4.893,7.391,3.222L922,1859.4c.335.956,1.4-1.37,1.879-1.41-.095-.046,2.655,1.572,2.336,1.157,2.2.188,1.9,1.37,3.166,1.889.324,2,.622,1.608,3.759,1.591,2.294.851,4.623-1.517,6.186-1.593-.091.028.5-1.893.439-1.826,2.252,1.749,1.074,1.405,2.917-.8.525.061,4.2,1.681,5.125-.709a32.225,32.225,0,0,0,.968-5.984,2.307,2.307,0,0,0,.945.6,11.321,11.321,0,0,0-.978-2.685c2.115-.121-.047.185,1.981-.623a8.662,8.662,0,0,0,2.558.369c.2.155.336.27.447.373.037-.135.184-.283.559-.422a12.92,12.92,0,0,1,2.561-3.6c-.069-.009,1.324,2.042,1.3,2.017.009-.243.107-.342.292-.313-.067-.237-.872-2.707-.1-2.783.417-.074.037,1.756.905,1.858,1.519-2.473,3.765-8.322,3.8-11.441.661-2.45-3.836-7.724-2.377-9.643,1.286-.882,1.458-2.365,2.3-3.6-.534-.155-1.19.3-1.764.125a1.829,1.829,0,0,0-.732-2.516,1.561,1.561,0,0,0,1.845-1.04c-.213.005-.295-.1-.242-.314-.439-.09-3.08.119-3.109-.319-.029.1.547-1.869.52-1.8-.586-.26-1.477.863-1.9.489-.909-1.194,3.151-3.909-1.588-1.923,1.768-6.138-.591-2.637-2.294-4.535C952.956,1805.432,948.852,1800.955,945.247,1804.2Z" fill="#231815"/>
      </g>
      <g id="Group_919" data-name="Group 919">
        <path id="Path_20003" data-name="Path 20003" d="M915.708,1856.112c.149.479.284.927,0,0" fill="#231815"/>
      </g>
      <g id="Group_920" data-name="Group 920">
        <path id="Path_20004" data-name="Path 20004" d="M947.717,1851.905c.27.064.313.166.286.432C947.792,1852.693,947.362,1852.228,947.717,1851.905Z" fill="#231815"/>
      </g>
      <g id="Group_921" data-name="Group 921">
        <path id="Path_20005" data-name="Path 20005" d="M952.222,1849.107c.761-1.129.42-.477,0,0" fill="#231815"/>
      </g>
      <g id="Group_922" data-name="Group 922">
        <path id="Path_20006" data-name="Path 20006" d="M954.3,1847.423h0" fill="#231815"/>
      </g>
      <g id="Group_923" data-name="Group 923">
        <path id="Path_20007" data-name="Path 20007" d="M915.111,1822.381c2.26-.2-.044.158,0,0" fill="#231815"/>
      </g>
      <g id="Group_924" data-name="Group 924">
        <path id="Path_20008" data-name="Path 20008" d="M913.677,1821.905c.636-1.883.267.273,0,0" fill="#231815"/>
      </g>
      <g id="Group_925" data-name="Group 925">
        <path id="Path_20009" data-name="Path 20009" d="M915.445,1817.342c.875-2.061.254-.471,0,0" fill="#231815"/>
      </g>
      <g id="Group_926" data-name="Group 926">
        <path id="Path_20010" data-name="Path 20010" d="M960.4,1834.5c.175.536.18.529,0,0" fill="#231815"/>
      </g>
      <g id="Group_927" data-name="Group 927">
        <path id="Path_20011" data-name="Path 20011" d="M962.17,1835.009c.315.041.173,1.016,0,0" fill="#231815"/>
      </g>
      <g id="Group_928" data-name="Group 928">
        <path id="Path_20012" data-name="Path 20012" d="M921.572,1812.664c.467.853-.2.316,0,0" fill="#231815"/>
      </g>
      <g id="Group_929" data-name="Group 929">
        <path id="Path_20013" data-name="Path 20013" d="M925.5,1809c.341.014.372,1.492,0,0" fill="#231815"/>
      </g>
      <g id="Group_930" data-name="Group 930">
        <path id="Path_20014" data-name="Path 20014" d="M887.154,1876.945a32.085,32.085,0,0,1,2.061-2.538c-.757.793,1.551,3.135-2.061,2.538" fill="#231815"/>
      </g>
      <g id="Group_931" data-name="Group 931">
        <path id="Path_20015" data-name="Path 20015" d="M879.787,1863.478c.219-1.066,1.39-.348,1.225.069-.3.97-1.385.436-1.225-.069" fill="#231815"/>
      </g>
      <g id="Group_932" data-name="Group 932">
        <path id="Path_20016" data-name="Path 20016" d="M938.294,1886.913c.173-.158-1.23-1.263-.186-2.286,1.1.516,2.435,2.675.186,2.286" fill="#231815"/>
      </g>
      <path id="Path_20017" data-name="Path 20017" d="M891.3,1854.838c-.559-.178-6.013,2.982-4.377,4.643-.414,1.182.473,10.436,6.487,8.2,1.193.525,6.609-.26,5.313-2.046,4.051-3.8.686-4.142,2.192-7.977-1.767-1.478-4.509-2.412-6.019-3.733" fill="#231815"/>
      <g id="Group_933" data-name="Group 933">
        <path id="Path_20018" data-name="Path 20018" d="M903.991,1871.067a8.93,8.93,0,0,1,3.176-3.559c1.579.268-3.5,6.718-3.176,3.559" fill="#231815"/>
      </g>
      <g id="Group_934" data-name="Group 934">
        <path id="Path_20019" data-name="Path 20019" d="M908.184,1871.833c.06-.474.867-2.119,1.665-1.753.344,2.18-.386,2.275-1.665,1.753" fill="#231815"/>
      </g>
      <g id="Group_935" data-name="Group 935">
        <path id="Path_20020" data-name="Path 20020" d="M862.919,1853.177c.686-1.1,2.489-1.2,3.378-.833-.175.352-3.692,2.047-3.378.833" fill="#231815"/>
      </g>
      <g id="Group_936" data-name="Group 936">
        <path id="Path_20021" data-name="Path 20021" d="M945.494,1884.59c.206-.218-1.317-1.382-.607-2.155,2.056,1.128.636,1.717.607,2.155" fill="#231815"/>
      </g>
      <g id="Group_937" data-name="Group 937">
        <path id="Path_20022" data-name="Path 20022" d="M902.748,1866.854a3.647,3.647,0,0,1,.937-1.729c1.289.207-.393,2.167-.937,1.729" fill="#231815"/>
      </g>
      <g id="Group_938" data-name="Group 938">
        <path id="Path_20023" data-name="Path 20023" d="M908.551,1864.376a10.888,10.888,0,0,1,2.32-1.791c-.081.554-2.268,5.568-3.374,4.521.356-.9.7-1.82,1.054-2.73" fill="#231815"/>
      </g>
      <g id="Group_939" data-name="Group 939">
        <path id="Path_20024" data-name="Path 20024" d="M937.7,1876.844c.1-.375.8-2.4,1.061-.405-.668,2.6-.361,1.113-1.061.405" fill="#231815"/>
      </g>
      <g id="Group_940" data-name="Group 940">
        <path id="Path_20025" data-name="Path 20025" d="M874.887,1846.881c.411,0,1.221-2.134,1.758.084-.267,1.326-1.484.41-1.758-.084" fill="#231815"/>
      </g>
      <g id="Group_941" data-name="Group 941">
        <path id="Path_20026" data-name="Path 20026" d="M922.452,1863.315a3.6,3.6,0,0,1-.331-1.937c.123-.033,1.807.741,1.719,1.134-.383.555-.46,1.43-1.388.8" fill="#231815"/>
      </g>
      <g id="Group_942" data-name="Group 942">
        <path id="Path_20027" data-name="Path 20027" d="M937.013,1867.476c0-.043.915-4.122.722-3.711,3.957-1.152-1.388,6.734-.722,3.711" fill="#231815"/>
      </g>
      <g id="Group_943" data-name="Group 943">
        <path id="Path_20028" data-name="Path 20028" d="M897.885,1851.554c-.618.643-.313-5.107.477-6.358,2.471-1.883,5.376-.889,5.722,1.718.823.124-1.477,9.38-6.2,4.64" fill="#231815"/>
      </g>
      <g id="Group_944" data-name="Group 944">
        <path id="Path_20029" data-name="Path 20029" d="M888.332,1845.112c.841-.623,4.967-3,6.21-2.113-1.519,1.623-4.672,3.6-6.21,2.113" fill="#231815"/>
      </g>
      <g id="Group_945" data-name="Group 945">
        <path id="Path_20030" data-name="Path 20030" d="M947.522,1863.553a3.483,3.483,0,0,1,.823-1.882c2.28-.087-1.515,4.079-.823,1.882" fill="#231815"/>
      </g>
      <g id="Group_946" data-name="Group 946">
        <path id="Path_20031" data-name="Path 20031" d="M898.926,1841.207a1.236,1.236,0,0,1,1.9-.49c-.048.214.029.319.239.309-.268.9-2.342,1.073-2.136.181" fill="#231815"/>
      </g>
      <g id="Group_947" data-name="Group 947">
        <path id="Path_20032" data-name="Path 20032" d="M870.344,1828.433c.05-1.709,2.706-1.539,3.01-.347-.9.878-1.87.341-3.01.347" fill="#231815"/>
      </g>
      <g id="Group_948" data-name="Group 948">
        <path id="Path_20033" data-name="Path 20033" d="M952.578,1857.916c.41.027,1.673.088,1.679.8-.665,2.029-1.965-1.046-1.679-.8" fill="#231815"/>
      </g>
      <g id="Group_949" data-name="Group 949">
        <path id="Path_20034" data-name="Path 20034" d="M952.3,1856.324c-.355.37-.161-1.843-.134-1.967,3.3-2.653-1.026,3.818.134,1.967" fill="#231815"/>
      </g>
      <g id="Group_950" data-name="Group 950">
        <path id="Path_20035" data-name="Path 20035" d="M986.162,1869.144c.378-1.6-1.741.209.037-2.411-.453-.756-1.848-.365-1.328-2.136,2.832-.651,3.768,5.088,1.291,4.547" fill="#231815"/>
      </g>
      <g id="Group_951" data-name="Group 951">
        <path id="Path_20036" data-name="Path 20036" d="M970.565,1862.54c-.277.276-1.334-5.144-1.319-5.407.916-.093,5.49,5.273,1.319,5.407" fill="#231815"/>
      </g>
      <g id="Group_952" data-name="Group 952">
        <path id="Path_20037" data-name="Path 20037" d="M907.108,1828.184c.485-.1.453-.9,1.336-.183-.427.972-.876,1.035-1.336.183" fill="#231815"/>
      </g>
      <g id="Group_953" data-name="Group 953">
        <path id="Path_20038" data-name="Path 20038" d="M970.811,1848.911c.441-.838-1.825-3.394,1.051-2.477,2.947.927.125,2.145-1.051,2.477" fill="#231815"/>
      </g>
      <g id="Group_954" data-name="Group 954">
        <path id="Path_20039" data-name="Path 20039" d="M962.213,1840.943c.1-.927,1.462-.26,1.347.242-.185.859-.63.781-1.347-.242" fill="#231815"/>
      </g>
      <g id="Group_955" data-name="Group 955">
        <path id="Path_20040" data-name="Path 20040" d="M1000.037,1855.606c-.126-.826-1.242-.46-.116-1.325,1.617.761,1.093,2.247.116,1.325" fill="#231815"/>
      </g>
      <g id="Group_956" data-name="Group 956">
        <path id="Path_20041" data-name="Path 20041" d="M907.932,1808.875c-.121-.342-1.274-.826-1.524-1.15.176-1.161,1.534,1.119,1.524,1.15" fill="#231815"/>
      </g>
      <g id="Group_957" data-name="Group 957">
        <path id="Path_20042" data-name="Path 20042" d="M966.082,1821.195c.76-3.065,1.99,1.136,0,0" fill="#231815"/>
      </g>
      <g id="Group_958" data-name="Group 958">
        <path id="Path_20043" data-name="Path 20043" d="M962.06,1816.271c-2.133-3.176,5.812-3.6,0,0" fill="#231815"/>
      </g>
      <g id="Group_959" data-name="Group 959">
        <path id="Path_20044" data-name="Path 20044" d="M920.982,1799.325c.045-.054-.435-2.253,1.027-1.264.208-.2-.08,2.418-1.027,1.264" fill="#231815"/>
      </g>
      <g id="Group_960" data-name="Group 960">
        <path id="Path_20045" data-name="Path 20045" d="M924.3,1794.46c.59-.715,1.041-7.4,2.618-1.181.8,3.152-1.3,4.063-2.618,1.181" fill="#231815"/>
      </g>
      <g id="Group_961" data-name="Group 961">
        <path id="Path_20046" data-name="Path 20046" d="M929.813,1797.878c-.954,1,1.151-5.8,1.543-.739-.22.484-1.65,1.055-1.543.739" fill="#231815"/>
      </g>
      <g id="Group_962" data-name="Group 962">
        <path id="Path_20047" data-name="Path 20047" d="M915.79,1785.582c.122-.063.205-1.608,1.751-.122-.361.655-2.063,1.594-1.751.122" fill="#231815"/>
      </g>
      <g id="Group_963" data-name="Group 963">
        <path id="Path_20048" data-name="Path 20048" d="M957.525,1802.9c.08-.119,2.276-1.985,1.786-.431-.571.828-1.159.973-1.786.431" fill="#231815"/>
      </g>
      <g id="Group_964" data-name="Group 964">
        <path id="Path_20049" data-name="Path 20049" d="M912.691,1779.875c1.574-1.573,1.076-1.619,0,0" fill="#231815"/>
      </g>
      <g id="Group_965" data-name="Group 965">
        <path id="Path_20050" data-name="Path 20050" d="M933.257,1787.136c.528-.754.325-1.353.983-.226-.141,1.037-.47,1.109-.983.226" fill="#231815"/>
      </g>
      <g id="Group_966" data-name="Group 966">
        <path id="Path_20051" data-name="Path 20051" d="M980.65,1793.783c2.188-2.314,3.192-1.531,0,0" fill="#231815"/>
      </g>
      <g id="Group_967" data-name="Group 967">
        <path id="Path_20052" data-name="Path 20052" d="M952.8,1849.233h0" fill="#231815"/>
      </g>
      <g id="Group_968" data-name="Group 968">
        <path id="Path_20053" data-name="Path 20053" d="M909.849,1870.08c.5-2.806.766-1.269,1.4-2.9,2.052,1.3-.875,2.274-1.4,2.9" fill="#231815"/>
      </g>
    </g>
  </g>
</svg>
