<svg xmlns="http://www.w3.org/2000/svg" width="340.729" height="478.4" viewBox="0 0 340.729 478.4">
  <g id="Group_1323" data-name="Group 1323" transform="translate(-755.666 -944.974)" opacity="0.75">
    <g id="Group_971" data-name="Group 971">
      <path id="Path_20054" data-name="Path 20054" d="M844.537,1325.912c-1.738-1.906.2-5.891-2.915-5.574l.24,3.555c1.8,4.45,3.051,10.045,6.159,12.728C847.476,1333.132,846.618,1328.8,844.537,1325.912Z" fill="#231815"/>
      <path id="Path_20055" data-name="Path 20055" d="M838.7,1289.565l.042,3.286C840.52,1292.65,839.3,1290.343,838.7,1289.565Z" fill="#231815"/>
      <path id="Path_20056" data-name="Path 20056" d="M839.018,1281.994c-1.144,1.873.243,4.3-.085,6.472C839.03,1286.647,840,1283.9,839.018,1281.994Z" fill="#231815"/>
      <path id="Path_20057" data-name="Path 20057" d="M838.589,1279.829l.581.636-.2-1.015Z" fill="#231815"/>
      <path id="Path_20058" data-name="Path 20058" d="M839.577,1271.831c.343,1.736-1.494,3.145-.369,5.027A5.36,5.36,0,0,0,839.577,1271.831Z" fill="#231815"/>
      <path id="Path_20059" data-name="Path 20059" d="M847.829,1309.654l1.794,1.445-.114-.576C850.1,1309.66,847.886,1309.193,847.829,1309.654Z" fill="#231815"/>
      <path id="Path_20060" data-name="Path 20060" d="M850.074,1317.165l-.438.087.343,1.731Z" fill="#231815"/>
      <path id="Path_20061" data-name="Path 20061" d="M847.415,1303.739c-.41.226-.323.665-.238,1.094l.727-.144C847.819,1304.26,847.88,1303.792,847.415,1303.739Z" fill="#231815"/>
      <path id="Path_20062" data-name="Path 20062" d="M856.421,1333.163l-.113-.575-.29.057c-.873-.582-2.215-1.218-2.913-.178.166,1.615.6,3.028,2.432,3.12l-.543-2.739Z" fill="#231815"/>
      <path id="Path_20063" data-name="Path 20063" d="M853.093,1327.065c-.233-.4.062-1.209-.581-1.38-.313-.086-.551.254-.637.573Z" fill="#231815"/>
      <path id="Path_20064" data-name="Path 20064" d="M846.679,1296.233c-.318.666-.443,2.334.724,2.1C848.136,1297.445,846.913,1296.638,846.679,1296.233Z" fill="#231815"/>
      <path id="Path_20065" data-name="Path 20065" d="M853.838,1330.823l-.343-1.732-.3.059C853.461,1329.7,853.2,1330.651,853.838,1330.823Z" fill="#231815"/>
      <path id="Path_20066" data-name="Path 20066" d="M846.216,1288.527c-.79.6.694,1.956-.624,2.217,1.253.957.457,2.306.982,3.408C848.477,1292.275,845.746,1289.969,846.216,1288.527Z" fill="#231815"/>
      <path id="Path_20067" data-name="Path 20067" d="M859.046,1340.292a1.23,1.23,0,0,1-1.253-.206c.269-1.7,1.572.291,2.076-1.009-.005-.749-.495-.946-1.018-1.3l-.818,1.215c-.349-.234-.969-.263-.93-.869-.41-.517-.553-1.238-1.66-.719,1.161,1.274,1.091,4.734,3.746,3.609Z" fill="#231815"/>
      <path id="Path_20068" data-name="Path 20068" d="M1082.306,1245.961a3.657,3.657,0,0,0-.636-1.668l-.585.861C1081.783,1244.864,1081.7,1245.931,1082.306,1245.961Z" fill="#231815"/>
      <path id="Path_20069" data-name="Path 20069" d="M1068.424,1366.741l-.266.582A1.186,1.186,0,0,0,1068.424,1366.741Z" fill="#231815"/>
      <path id="Path_20070" data-name="Path 20070" d="M978.2,1169.809c-.411-.521-1.752,1.1-1.894-.375-4.811.953-8.524-1.008-13.591-.612-2.943.436-5.333-.139-7.784,1.24l-11.069.7-.057-.288c-1.542.6-2.739,1.445-4.512.893-2.192,2.685-5.182-.174-7.146,2.916-3.755.895-7.259,2.334-11.393,2.854-1.757,1.852-5.073,1.158-6.567,3.551-2.766-.952-4.14,2.021-6.852,2.107l.115.58c-5.215,2.688-10.04,7.394-15.291,10.679-3.1,4.216-8.823,8.2-10.09,11.75a45.7,45.7,0,0,0-8.664,11.319l-.338-.229c-.676,1.183.035,3.292-1.851,3.666.6,1.527-1.172,2.486-1.79,3.956-1.018,5.6-5.49,10.542-6.469,16.283-3.976,5.14.023,10.8-3.865,15.621-.309,3.809-2.274,7.653-3.273,10.994-1.552,2.11-1.068,5.318-1.751,8.006,2.506-.353-.505,3.547.6,3.033.59-1.616.774-5.261,1.972-5.345l1.039,3.7c-.2,3.635-4,3.488-4.711,5.284l1.51.75-.58.868c-1.609,1.065-.532,1.155-.48,2.948-1.18,3.229.034,6.292-2.211,8.687,1.48.6-1.379,2.223.715,2.1,1.071,1.59-.761,1.5-1.261,2.806l.729-.144c1.1.228.835,1.927.252,2.8a1.588,1.588,0,0,0-1.9-.381c1.74,3.41-.754,7.654,3,9.762-1.074,6.816,2.055,11.15,3.665,16.982,1.151,2.771,1.49,6.757,4.132,7.876.326,6.242,6.026,9.01,8.452,15.135,5.332,5.546,10.083,11.953,15.215,17.989.668.317,2.394-.921,2,.95-.315.666-.757.753-1.308,1.013,1.617,1.327,1.965,4.561,4.665,5.232l-.584.866-.377-.377-.585.866.87.576c.111,1.326,2.786,3.35,4.38,3.785l-.584.866c-.261.2-.46-.053-.809-.286.777,2.394,3.346,1.587,3.156,4.471,1.646-3.924,5.149.78,6.077,1.648-1.8.058-2.387.925-3.988-.262l.347.234c-.464,1.444,2,1.7,2.382,2.828l-1.171.98,3.988,1.764-.618.721,2.908,1.674c.5-1.3-.514-2.6-1.414-3.318-2.655.374-1.333-2.138-2.148-3.177,3.913-1.672,3.772,4.506,7.092,2.947-1.362-2.284-6.621-2.892-6.028-6.76-2.306,1.358-4.125-2.481-5.638-3.231-3.756.141-3.941-4.62-6.324-5.95-.521-1.094-2.44-2.369-1.036-3.7.665,1.063,2.379,2.076,2.052,3.495,1.546.143-.081-1.182.441-1.589A96.969,96.969,0,0,1,909.074,1388c1.569.289,4.225-.837,4.411,1.671.733-.89,1.174-.977,2.1-.111,1.484,1.355,2.87,3.778,4.679,2.974-.143-1.472-1.779-.55-2.585-1.586,2.45-1.387,5.387-1.067,7.862-.808.081,1.93,3.612-.117,2.523,2.049a3.648,3.648,0,0,1,4.054-.208c-.156,1.538-1.751.346-1.664.784,3.891,2.832,4.672-3.174,7.379-3.265,5.212-.426,9.919,1.937,15.269,3.733l-.933,1.381,2.086,1.391c4.049-.205,8.909,1.391,12.752,1.679l.086.433a3.9,3.9,0,0,0,3.3-1.706c-4.133-.236-9.436-.234-13.212-2.484.641-.579,2.1-.122,2.625-1.276,1.529-4.5-4.27-1.7-6.479-3.666a33.506,33.506,0,0,1,11.323.61c6.3-2.6,12.537,2.917,18.7-1.155,2.269.756,6.962-.782,8.554,1.157l-.143-.721c-.261.2-.462-.06-.786-.143.385-1.88,1.78-.205,2.833-1.013,2.744-2.194,6.034-2.4,8.984-3.583,3.345.842,6.942-3.923,10.869-3.95,7.988-2.483,12.957-7.968,19.266-12.815,1.964-3.093,5.52-5.748,7.013-8.888,4.587-2.862,6.233-7.536,9.657-11.669-.461-1.56.855-3.322,2.278-3-1.069-2.342,2.079-2.517,2.029-4.306l-.379-.377c1.465-1.789,3.3-3.2,4.359-5.514l1.367,1.533c8.761-.084,6.445-10.28,8.756-16.139l-1.07-.087c.09-1.07,1.723-1.243,1.842-2.162,1.653-5.431,2.722-11.493,2.069-17.068,1.584-2.716-.881-5.227.176-8.283l.778.889.329-2.163-1.364-.024c.545-5.666-2.327-10.194-2.938-16.379,1.16-.23.67-1.932.585-2.362l-.286.057a1.21,1.21,0,0,1-.214,1.242c-.6-.782-1.094-2.487-1.787-3.7.643-2.075,2.7.669,3.437-.976-1.832.658-2.318-1.795-3.394-2.631-.352-.233-1.436.438-1.219-.811.116-.166.343-.515.668-.428l-.335-3.236.727-.144a1.341,1.341,0,0,1-1.365-1.532c.038-1.352.479-2.944-1.41-3.32-.71-6.608-7.221-10.419-9.461-16.43-1.309-1.24.184-2.884-1.8-3.694.875-.173,1.747-1.85,2.766-.547,1.674-2.283-2.9-2.43-1.174-4.423,2.066-.257,2.115,2.285,3.538,3.351.61.033.937-.632,1.161-.978l-.368-.382a1.969,1.969,0,0,1,1-2.591,4.262,4.262,0,0,1,2.051,3.492c1.221.806,2.812,3.494,4.621,2.684-.612,2.225,2.59,1.591,1.762,3.553,2.356.435,2.357,1.935,2.144,3.932.343,1.731,1.709,1.759,3.023,2.253-1.067,3.055,2.342,4.183,2.828,6.636.227,1.15.715,2.862-.884,3.179.523,1.1,4.858.837,3.132,2.829,3.086.283-.589,2.367.771,3.892l.732-.145c.049,2.544,2.658,3.526,3.32,6.1-1.54-.151-1.6,1.067-1.6,2.564a1.976,1.976,0,0,1,2.856-1.612c1.658,2.222-1.636,1.674-1.061,3.809.783,1.648,1.805-.055,2.533,1.3.747,1.5,2.89,3.927,1.088,5.49-.126.921.073,1.926,1.127,1.866,1.932,12.078.578,25.1-.632,37.341-.332,2.168-2.179,5.078-.468,6.841l-.582.86c-2.259,3.9-2.747,9.857-5.549,14.012,1.061,3.839-2.983,2.541-2.04,6.555-3.317.8-2.813,5.655-5.676,8.025-2.377-1.332,2.435-4.534-1.61-4.331-2.369,1.067,1.267,2.6-1.008,4.1-.818.465-1.837,1.416-2.621,1.272-1,.351.928.871-.528,1.159,1.39.921,1.122,2.625-.4,3.372-.012,3.753-7.589,5.254-4.549,9.9.842.439,1.8,1.446,2.379,1.331,1.932-.979-.81-.291-.574-1.387,1.809-.808,3.446-2.485,1.794-3.952l3-.9a.823.823,0,0,1,.148.525l.5-1.1-.354-.233.586-.867.351.227c4.554-2.251,1.009-5.594,3.964-9.031l.523.348c-.063.459.49.952-.181,1.383,2.913-.577.969-4.244,2.991-5.543l1.072.087c2.218-1.037.951-3.634-.015-3.893,1.755-1.1,2.344-2.719,3.019-4.655,4.785-2.592,3.317-8.455,7.061-12.5,3.359-2.915-.56,1.763,2.73,1.557l-.965,1.995.869.578c.061,1.041-.849,1.064-1.257,1.3,1.044,2.2-3.221,5.138-1.245,6.7a16.945,16.945,0,0,0,3.967-9.79l-.5-.2,1.26-1.3-1.951-.663c.123-1.676,1.37.028,1.9-1.125,1.029-2.454,1.912-5.629,1.393-7.48a62.2,62.2,0,0,0,1.978-6.837c-1.365-2.283.942-5.141-1.024-6.7,2.768-1.3-.016-4.647,1.3-6.417-1.538-3.145.229-5.741-.7-8.865l.529.351c-1.651-11.377-3.032-24.454-6.917-36.441l-.875-.576c1.175-3.214-2.336-3.513-3.683-5.1a1.175,1.175,0,0,1-.46.22c-2.179-1.818-2.831-4.384-3.207-7.011-1.514,0-1.414-1.816-2.672-2.023-.1-2.077-2.694-3.668-1.431-5.721l2.344,2.692-2.285-3.9-.938.636c-.192-1.765-3.423-2.026-2.189-4.216.729-.144,1.19.666,1.56,1.039l.823-1.217c-1.914-3.523-3.767-4.5-5.793-7.851-.439.087-.911.028-1.112.514-.635-.918.182-1.384-.542-2.739-2.878-1.529-4.263-4.7-6.382-6.985-1.305-1.243-4.766-1.158-4.034-3.555-9.512-9.072-19.8-16.632-30.455-23.822a46.408,46.408,0,0,1-11.419-6.443c-4.32,2.654-4.821-3.7-9.194-2.08a3.4,3.4,0,0,1-.049-1.79c-4.779-.4-8.411-2.685-13.333-3.066-.918-2.363-4.971-1.409-7.379-2.878C984.161,1170.877,980.336,1172.232,978.2,1169.809Zm-23.323,216.315c2.07-1,3.2,1.619,5.3.754-.933.635-2.011,1.3-3.345-.088-3.178.781-6.141-1.184-8.8-.811-4.243-1.551-8.545-1.905-12.82-3.606C941.553,1383.062,948.773,1385.083,954.875,1386.124Zm104.026-52.71-.729.144c2.124-.716-.222-2.651,1.932-3.231C1061.032,1331.192,1059.457,1332.4,1058.9,1333.414Zm-146.112,14.54,3.317,3.694c-4,1.243-2.123-3.034-4.917-2.627l.143.721c-3.771-3.757-7.949-7.277-9.972-12.129C905.31,1340.732,909.306,1345.639,912.789,1347.954Zm96.22-147.187c2.944-.436,4.126,2.485,6.366,2.336,1.919,1.272,3.69,1.823,4.911,3.384l-.441.832,2.148,1.678c-3.141-1.328-3.064,2.856-5.835,1.9-2.084-2.137-3.18-4.624-6.479-5.168-.513-2.594-3.04-1.647-3.735-4.356l-1.358-.786-.769,1.506c-.285-1.439-3.4-.375-1.559-2.544l-2.242-.608.824-1.209-.523-.346C1002.671,1198.567,1006.6,1198.543,1009.009,1200.767Z" fill="#231815"/>
      <path id="Path_20071" data-name="Path 20071" d="M1084.737,1250.583l-.492-.2a1.969,1.969,0,0,0,.507,1.565C1085.113,1251.591,1083.987,1251.221,1084.737,1250.583Z" fill="#231815"/>
      <path id="Path_20072" data-name="Path 20072" d="M1067.653,1368.437l.505-1.114C1067.892,1367.661,1067.566,1368,1067.653,1368.437Z" fill="#231815"/>
      <path id="Path_20073" data-name="Path 20073" d="M846.266,1283.411c-.937.637-.329,2.163-.393,3.381l1.227-.694C846.927,1285.227,847.137,1283.983,846.266,1283.411Z" fill="#231815"/>
      <path id="Path_20074" data-name="Path 20074" d="M850.473,1295.482c.234-1.105-.84-1.186-1.715-1.012.549,1.243-.219,3.488.743,3.752C849.477,1297.325,849.22,1296.028,850.473,1295.482Z" fill="#231815"/>
      <path id="Path_20075" data-name="Path 20075" d="M846.459,1281.717a2.421,2.421,0,0,0,0-.33,2.921,2.921,0,0,1-.249.232Z" fill="#231815"/>
      <path id="Path_20076" data-name="Path 20076" d="M846.461,1281.387a1.9,1.9,0,0,0-.063-2.654C845.96,1279.636,846.405,1280.5,846.461,1281.387Z" fill="#231815"/>
      <path id="Path_20077" data-name="Path 20077" d="M846.709,1281.824l-.25-.107a1.924,1.924,0,0,1-.336.968Z" fill="#231815"/>
      <path id="Path_20078" data-name="Path 20078" d="M858.662,1342.169c-.267.959,2.094,1.387.485,2.451a1.692,1.692,0,0,0,2.1,1.39A14.335,14.335,0,0,0,858.662,1342.169Z" fill="#231815"/>
      <path id="Path_20079" data-name="Path 20079" d="M849.638,1292.794c1.516-.755.7-2.54,1.065-3.807h-1.516C849.179,1289.735,848.533,1292.558,849.638,1292.794Z" fill="#231815"/>
      <path id="Path_20080" data-name="Path 20080" d="M849.719,1287.834c.032-2.113,1.729-4.249.277-5.466-2.187,1.189-.16,3.785-1.009,5.611Z" fill="#231815"/>
      <path id="Path_20081" data-name="Path 20081" d="M846.744,1272.815c-.1.32-.354.516-.3.807l1.024-.951Z" fill="#231815"/>
      <path id="Path_20082" data-name="Path 20082" d="M845.961,1271.165l1.692-.629-.724-.607.813-1.214-.87-.578C845.848,1269.09,846.748,1270.562,845.961,1271.165Z" fill="#231815"/>
      <path id="Path_20083" data-name="Path 20083" d="M849.216,1279.975c1.488.606,2.891-2.229,3.155-2.426C851.519,1278.617,848.611,1277.694,849.216,1279.975Z" fill="#231815"/>
      <path id="Path_20084" data-name="Path 20084" d="M845.831,1257.541c-.119.925-.353,2.017-.475,2.943C845.854,1259.934,847.173,1258.177,845.831,1257.541Z" fill="#231815"/>
      <path id="Path_20085" data-name="Path 20085" d="M849.314,1276.653l.087.438,1.02-.2C850.189,1276.479,849.753,1276.566,849.314,1276.653Z" fill="#231815"/>
      <path id="Path_20086" data-name="Path 20086" d="M847.59,1262.595l-.391,3.379C847.4,1265.483,848.959,1263.368,847.59,1262.595Z" fill="#231815"/>
      <path id="Path_20087" data-name="Path 20087" d="M849.847,1273.994l1.7-.631c-.524-.348-.9-.723-1.6-.434C849.56,1273.3,849.791,1273.709,849.847,1273.994Z" fill="#231815"/>
      <path id="Path_20088" data-name="Path 20088" d="M851.292,1270.555a1.118,1.118,0,0,1-1.109-.227l-.008,1.5C850.326,1271.051,852.132,1271.748,851.292,1270.555Z" fill="#231815"/>
      <path id="Path_20089" data-name="Path 20089" d="M847.774,1259.71c3.289.545.445-3.848,3.391-2.779l1.412-4.329c-.322-.087-.522-.346-.78-.144-.187,1.39-1.121,2.772-1.449,4.188l-1.943-.664Z" fill="#231815"/>
      <path id="Path_20090" data-name="Path 20090" d="M870.261,1362.528l.384-.375c.091-2.568-1.379-.031-2.475-1.011.957,1.008,1.439,2.712,2.875,3.034a2.657,2.657,0,0,0,.291-1.562C871.05,1362.671,870.641,1362.9,870.261,1362.528Z" fill="#231815"/>
      <path id="Path_20091" data-name="Path 20091" d="M851.33,1266.95l-.286.057c-.351.525.109,1.327-.389,1.88A1.393,1.393,0,0,0,851.33,1266.95Z" fill="#231815"/>
      <path id="Path_20092" data-name="Path 20092" d="M849.17,1253.73c-.266.2-.528.4-.326.666l1.4-.584C849.865,1253.44,849.461,1253.672,849.17,1253.73Z" fill="#231815"/>
      <path id="Path_20093" data-name="Path 20093" d="M851.884,1251.392c3.205-.635,1.5-4.648,2.958-5.69,2.524-4.854-.6-10.684,4.65-13.223l-1.162.23c-.963-1.006-.4-2.019-.9-2.974,2.541-.95.8-2.1,2.959-3.433-.519-1.853.01-3.756-2.232-3.611l-2.91,6.727.443-.838,1.366.782c-1.315,1.011-3.789,2.251-2.865,3.866-3.174.777-.337,3.669-1.213,5.344a7.664,7.664,0,0,0-1.007,4.1c-.562,3.257-3.806,6.752-1.72,9.643,1.254-2.051,1.736-4.995,2.057-6.416C853.766,1247.114,852.587,1249.6,851.884,1251.392Z" fill="#231815"/>
      <path id="Path_20094" data-name="Path 20094" d="M855.24,1224.018l-3.285,7.105,3.639-6.872Z" fill="#231815"/>
      <path id="Path_20095" data-name="Path 20095" d="M847.455,1187l-.443.836.965-.49Z" fill="#231815"/>
      <path id="Path_20096" data-name="Path 20096" d="M920.721,1169.342a1.638,1.638,0,0,0,1.861.229,1.1,1.1,0,0,0-.633-.924l1.2-1.589c-1.514,0-2.332.462-4.226.837l.114.576C919.759,1169.081,921.425,1167.547,920.721,1169.342Z" fill="#231815"/>
      <path id="Path_20097" data-name="Path 20097" d="M873.869,1202.621c5.24-.288,4.068-6.206,8.723-7.128-.213-2.653,4.03-1.847,3.778-4.649l1.225.062c2.461-4.389,7.131-6.815,10.666-10.362l-.985-1.158c.641-.577,1.49-1.647,2.387-.923.264.546-.436.835-.525,1.153,1.745,1.908,1.843-2.164,3.791-.751.052-.461-.495-.951.175-1.387,4.393.781,7.294-3.7,11.259-5.077,1.547-.611,4.517-1.646,4.673-3.93-1.132-.374-2.483,1.992-3.851.463-1.231,2.945-4.634,1.82-6.352,3.058-6.013,3.292-13.044,6.787-17.949,11.807-4.578,1.359-7.19,6.526-11.447,8.722-.3,1.557-.685,3.434-3.01,3.144-.659,4.331-6.655,5.368-6.443,9.529-2.185.432-4.031,4.1-4.944,6.381a25.477,25.477,0,0,0-5.566,10.105l1.015-.2.086.433,1.75-.347C865.2,1214.694,870.44,1209,873.869,1202.621Z" fill="#231815"/>
      <path id="Path_20098" data-name="Path 20098" d="M929.659,1410.93l-.877-.584c-4.359-1.385-7.638-3.433-11.852-4.852-2.653-1.121-3.025-3-5.312-4.651-1.315.26-2.072-1.239-3.546-1.843-.215,1.988-1.776-.55-1.747.346l1.505.746.385-.37c.4-.232.809.286,1.136.372.025.9-1.639,1.679-1.817,1.557,3.08,1.791,7.68,2.835,10.313,6.218,4.843-1.562,5.377,4.184,9.3,4.907C929.041,1413.9,928.693,1411.417,929.659,1410.93Z" fill="#231815"/>
      <path id="Path_20099" data-name="Path 20099" d="M911.078,1388.95c-.088.317-.356.523-.15.78l.962-.489A.927.927,0,0,0,911.078,1388.95Z" fill="#231815"/>
      <path id="Path_20100" data-name="Path 20100" d="M913.6,1392.5c.541.491,1.943.663,1.069,1.583,3.4.379,5.275,4.507,7.727,3.875l-.144-.727C918.413,1397.7,918.313,1391.116,913.6,1392.5Z" fill="#231815"/>
      <path id="Path_20101" data-name="Path 20101" d="M921.484,1400.995l1.223.806.3-.937C922.593,1401.49,921.538,1400.6,921.484,1400.995Z" fill="#231815"/>
      <path id="Path_20102" data-name="Path 20102" d="M923.168,1400.357l-.157.507A.917.917,0,0,0,923.168,1400.357Z" fill="#231815"/>
      <path id="Path_20103" data-name="Path 20103" d="M926.095,1396.778c-.633-1.674-3.8-1.647-4.384-2.282C923.045,1395.884,924.406,1397.412,926.095,1396.778Z" fill="#231815"/>
      <path id="Path_20104" data-name="Path 20104" d="M924.1,1401.225l1.318-1.01-.873-.582C924.281,1399.838,923.671,1400.562,924.1,1401.225Z" fill="#231815"/>
      <path id="Path_20105" data-name="Path 20105" d="M926.143,1400.821c-.021.07.257.175.635.295A1.48,1.48,0,0,0,926.143,1400.821Z" fill="#231815"/>
      <path id="Path_20106" data-name="Path 20106" d="M926.778,1401.116c.617.48.418,1.331,1.018,1.928C930.525,1402.159,928.047,1401.511,926.778,1401.116Z" fill="#231815"/>
      <path id="Path_20107" data-name="Path 20107" d="M930.059,1412.95l.872.577-.343-1.731Z" fill="#231815"/>
      <path id="Path_20108" data-name="Path 20108" d="M934.021,1403.913l-1.214-.809c-.908,1.532-1.838-.842-2.917-.177l1.22.816c-.176,1.384-2.509,1.095-2.624,1.266l.435.667c2.122.777,5.739-.091,6.372,2.336,2.419-.773,5.558.55,6.748,1.213.438-.087,3.293.548,2.627-1.268-.637-.926-2.508.346-2.384-1.33,1.927-.979,4.221-.086,6.315.552-2.9-1.675-5.66-3.386-8.692-3.384l.092-1.066C937.69,1404.832,935.146,1399.64,934.021,1403.913Z" fill="#231815"/>
      <path id="Path_20109" data-name="Path 20109" d="M939.921,1415.344c-3.2-.116-5.867-3.635-8.061-.949,1.944.661,2.125.026,4.277.2l-.2.495c1.042.686,1.7,2.509,3.309,2.191l-.347-.229Z" fill="#231815"/>
      <path id="Path_20110" data-name="Path 20110" d="M934.349,1401.746c-2.354-.432-1.5-3.757-3.891-3.582l1.226.811c.257.546-.3.807-.53,1.153-.2-.26-.961-.261-.931-.864l-1.019.2.143.72C931.444,1400.07,932.684,1403.275,934.349,1401.746Z" fill="#231815"/>
      <path id="Path_20111" data-name="Path 20111" d="M934.641,1394.032c2.789,2.6,4.541,1.507,7.24,3.672l-1.256.548c1.742,1.905,4.655.578,6.889,1.939l-.23.349c1.337,1.382,3.325-.815,4.221-.09-.343-1.736-.493-.2-1.647-1.478.405-.227.168-.632.082-1.065a1.136,1.136,0,0,0-1.69.639c-.249-2.054-3.661-1.677-5.495-2.52-.35,1.275-1.1.523-1.66.781l.063-1.209C939.067,1394.959,936.335,1393.4,934.641,1394.032Z" fill="#231815"/>
      <path id="Path_20112" data-name="Path 20112" d="M893.587,1177.569l-1.11-.236-.5,1.3Z" fill="#231815"/>
      <path id="Path_20113" data-name="Path 20113" d="M940.988,1418.436l.058-.991c-.261-.032-.506-.056-.724-.074Z" fill="#231815"/>
      <path id="Path_20114" data-name="Path 20114" d="M941.046,1417.445l.411.04c-.132-.092-.279-.167-.4-.259Z" fill="#231815"/>
      <path id="Path_20115" data-name="Path 20115" d="M1031.09,1405.535c-5.249,2.549-10.179,5.173-16.122,6.5a32.214,32.214,0,0,1-9.71,2.976l.144.722c-10.607,3-22.143,4.386-32.253,5.333-1.474-1.357-3.815.61-4.8.2-2.209.29-4.683-.721-6.549-.2-4.739-1.007-11.2-.781-14.431-3.292a29.263,29.263,0,0,1-5.907-.286c2.786,1.883,6.3,2.211,9.686,2.537.7.464,1.624,1.33,2.153.176,1.08,1.586,3.755.6,4.863.837,2.266.751,3.488,1.558,5.521,1.9,4.673-.926,7.95,1.132,12.579-.688,1.248,1.708,2.1-.117,3.411,1.123,4.8-1.7,11.856-2.044,17.39-2.4,2.342-3.463,7.34-1.905,10.494-3.577l-2.046,1.9,6.709-2.828c.818-1.961,3-.144,4.022-1.092,4.626-.318,6.625-4.766,10.93-3.669.819-1.211,2.447-1.382,3.683-2.083C1030.7,1408.165,1032.632,1406.436,1031.09,1405.535Z" fill="#231815"/>
      <path id="Path_20116" data-name="Path 20116" d="M936.487,1391.873l-.238,1.094c2.615,1.734,5.383.43,7.654-.313C941.961,1391.235,939.219,1392.68,936.487,1391.873Z" fill="#231815"/>
      <path id="Path_20117" data-name="Path 20117" d="M1035.769,1392.458c-.723-.6-1.632.176-2.328-.288l.872.577c-.217,3.5-5.444.034-4.062,3.207l-3.894.171.343.237c-.142.778-.651,2.076-1.75,1.847-2.3-1.651-3.884,1.813-6.7,1.328.019.892.333,3.227-1.062,3.807-.672-.319-.375-1.123-.638-1.673-1.807.809-3.1,4.211-5.039,2.044-2.288,3-6.238.641-7.968,2.625-7.274-.049-10.271,7.741-17.574,6.034a18.637,18.637,0,0,1-8.887,1.015c-3.818,1.35-6.721-1.074-10.4-.494-2.236-1.355-5.813.406-8.556-1.158-4.241-1.56-8.872-.486-12.3-3.263-2.206,4.185,2.809,2.742,5.1,3.643A66.069,66.069,0,0,0,961.352,1415a1.789,1.789,0,0,1,.385-1.87c.755-.007,1.545-.61,2.127.022l-1.785,1.7c3.256,1.158,8.337-3,12,.177,5.184-1.331,9.57,1.7,14.27-1.327,2.408,2.22,6.9-1.073,9.667-.861.936-.641,1.774,1.292,2.536-.207,5.131-.865,11.687-3.664,15.914-5.25-.286.056-.7.285-1.073-.091,3.705-2.68,8.485-3.78,11.908-6.408,2.241-.894-.636-2.423-.107-3.58,2.617-.518,5.011-2.194,7.9-2.914C1034.427,1393.323,1035.536,1392.808,1035.769,1392.458Z" fill="#231815"/>
      <path id="Path_20118" data-name="Path 20118" d="M948.873,1396.319l.724-.143a4.9,4.9,0,0,0,1.264-2.8c-1.894-.374-2.509,1.1-4.578.605C946.484,1395.739,949.4,1395.163,948.873,1396.319Z" fill="#231815"/>
      <path id="Path_20119" data-name="Path 20119" d="M901.819,1169.48l2.258-1.649-1.025.2C902.325,1168.178,901.188,1168.556,901.819,1169.48Z" fill="#231815"/>
      <path id="Path_20120" data-name="Path 20120" d="M956.857,1409.143c-2.292-.894-5.426-2.23-7.092-1.448Z" fill="#231815"/>
      <path id="Path_20121" data-name="Path 20121" d="M953.441,1397.213l-.143-.721c-.758,0-2.151-.922-2.536.2Z" fill="#231815"/>
      <path id="Path_20122" data-name="Path 20122" d="M906.432,1166.766l.057.288.961-.49Z" fill="#231815"/>
      <path id="Path_20123" data-name="Path 20123" d="M911.1,1165.093c.712-2.539,3.412-.376,4.752-1.991-2.236-1.355-5.211,1.18-6.79,2.394C909.844,1165.641,909.96,1164.716,911.1,1165.093Z" fill="#231815"/>
      <path id="Path_20124" data-name="Path 20124" d="M958.085,1409.2c-.062.459.72.608,1.166.52l-.143-.722Z" fill="#231815"/>
      <path id="Path_20125" data-name="Path 20125" d="M957.335,1400.048c1.894-.375,3.8.894,5.439-.031A10.738,10.738,0,0,0,957.335,1400.048Z" fill="#231815"/>
      <path id="Path_20126" data-name="Path 20126" d="M960.406,1402.591l-.5,1.3c1.08.081,1.929-.979,2.25-1.643-1.369-.031-3.317-1.448-4.191-.52Z" fill="#231815"/>
      <path id="Path_20127" data-name="Path 20127" d="M963.7,1403.136c3.084,1.041,5.62.093,8.356.145C969.462,1402.445,965.822,1403.166,963.7,1403.136Z" fill="#231815"/>
      <path id="Path_20128" data-name="Path 20128" d="M919.352,1160.906c-.466-.056-.641.577-.879.928l1.374-.725Z" fill="#231815"/>
      <path id="Path_20129" data-name="Path 20129" d="M971.168,1391.155l-3.208.635c1.284-.407,2.669,1.269,3.641.027C971.4,1391.559,971.072,1391.467,971.168,1391.155Z" fill="#231815"/>
      <path id="Path_20130" data-name="Path 20130" d="M973.32,1398.226l-1.951-.663-1.6,1.068Z" fill="#231815"/>
      <path id="Path_20131" data-name="Path 20131" d="M925.095,1167.722l1.46-.289c-.438-.664-1.081-.085-1.546-.146Z" fill="#231815"/>
      <path id="Path_20132" data-name="Path 20132" d="M973.571,1403.282c.522.348.66,1.817,1.736,1.152.533-1.9,2.1-.112,3.416-1.123C976.855,1403.834,975.025,1402.24,973.571,1403.282Z" fill="#231815"/>
      <path id="Path_20133" data-name="Path 20133" d="M975.543,1396.442l-.085-.433a3.572,3.572,0,0,1-1.809.055Z" fill="#231815"/>
      <path id="Path_20134" data-name="Path 20134" d="M1004.641,1166.764a10.32,10.32,0,0,0,1.783.571A4.945,4.945,0,0,0,1004.641,1166.764Z" fill="#231815"/>
      <path id="Path_20135" data-name="Path 20135" d="M1010.264,1168.107l-1.368-.772a5.95,5.95,0,0,1-2.472,0C1007.751,1167.965,1009.012,1168.811,1010.264,1168.107Z" fill="#231815"/>
      <path id="Path_20136" data-name="Path 20136" d="M945.012,1165.884c1.344-.124,3.322.69,4.02-.35l.634,1.672c.913-3.032,3.5.061,5.6-1.559,3.027.752,5.45-.777,9.176.435,4.144-3.519,8.752,1.415,12.729-2.971,1.482-.142,4.39,1.531,5.531.4,6.4.981,14.4,2.4,21.095,3.326a2.662,2.662,0,0,1,.843-.077c-2.877-1.176-5.639-3.292-8.96-1.922a112.877,112.877,0,0,0-28.141-2.973c-2.153-.715-4.282,1.389-5.658-.315-1.156.96-3.014.232-3.717.371-6.734,1.183-15.117.142-22.487,2.652a14.538,14.538,0,0,0-7.374,1.009C932.861,1170.236,939.343,1164.752,945.012,1165.884Z" fill="#231815"/>
      <path id="Path_20137" data-name="Path 20137" d="M961.662,1161.233a3.191,3.191,0,0,0,.22.321c.041-.039.087-.052.13-.095Z" fill="#231815"/>
      <path id="Path_20138" data-name="Path 20138" d="M979.279,1393.9a1.827,1.827,0,0,1,.385-1.88l-4.37.116,1.57,1.791.232-.349C977.825,1393.433,978.676,1393.117,979.279,1393.9Z" fill="#231815"/>
      <path id="Path_20139" data-name="Path 20139" d="M980.2,1396.266c-.142-.718-2.671.23-2.847.113C978.255,1396.351,979.505,1397.3,980.2,1396.266Z" fill="#231815"/>
      <path id="Path_20140" data-name="Path 20140" d="M979.386,1403.626l1.751-.347-.381-.371C980.352,1403.141,979.243,1402.905,979.386,1403.626Z" fill="#231815"/>
      <path id="Path_20141" data-name="Path 20141" d="M935.091,1157.788l-1.025.2.057.29Z" fill="#231815"/>
      <path id="Path_20142" data-name="Path 20142" d="M982.971,1395.716l-.67.433,1.687-.634Z" fill="#231815"/>
      <rect id="Rectangle_183" data-name="Rectangle 183" width="2.82" height="0.289" transform="translate(985.129 1402.792) rotate(-11.203)" fill="#231815"/>
      <path id="Path_20143" data-name="Path 20143" d="M985.6,1392.195l-1.228,1.445C985.132,1393.641,986.093,1393.147,985.6,1392.195Z" fill="#231815"/>
      <path id="Path_20144" data-name="Path 20144" d="M988.079,1392.46l-1.315.26.085.43Z" fill="#231815"/>
      <path id="Path_20145" data-name="Path 20145" d="M1010.769,1396.964l-.2-1.01c-5.972,1.929-12.391,3.95-18.1,5.679,1.883,1.135,3.43,1.276,5.033-.541.171,2.366,2.007.95,3.031.747l-1.95-.659c2.392-1.677,4.6,1.036,6.065-2.254C1006.773,1398.957,1008.766,1397.513,1010.769,1396.964Z" fill="#231815"/>
      <path id="Path_20146" data-name="Path 20146" d="M993.62,1398.215a5.7,5.7,0,0,0-1.692.677A1.965,1.965,0,0,0,993.62,1398.215Z" fill="#231815"/>
      <path id="Path_20147" data-name="Path 20147" d="M1002.067,1396.589c1.639-1.676,5.681-1.126,5.784-3.7-2.626-.23-3.945,2.281-6.857,2.108-.7.291.726,1.357-.819,1.207-1.069-1.582-2.511,1.1-4.078.063-1.486-.006-1.772,1.169-2.477,1.946C996.323,1397.511,999.879,1398,1002.067,1396.589Z" fill="#231815"/>
      <path id="Path_20148" data-name="Path 20148" d="M993.424,1395l.96-.489-1.017.2Z" fill="#231815"/>
      <path id="Path_20149" data-name="Path 20149" d="M1003.044,1392.339c-.465-.055-1.221-.807-1.518,0l.057.288Z" fill="#231815"/>
      <path id="Path_20150" data-name="Path 20150" d="M957.482,1156.955l-.872-.577-1.169.981Z" fill="#231815"/>
      <path id="Path_20151" data-name="Path 20151" d="M1010.074,1389.6c-.706.288-1.813.056-2.423.776C1008.461,1390.668,1009.979,1390.667,1010.074,1389.6Z" fill="#231815"/>
      <path id="Path_20152" data-name="Path 20152" d="M1019.54,1387.728c-3.094,1.957-6.824,3-10.288,4.586C1012.768,1392.515,1016.971,1390.037,1019.54,1387.728Z" fill="#231815"/>
      <path id="Path_20153" data-name="Path 20153" d="M1025.558,1381.43l-5.769,2.191c-2.255,3.148-6.066,3.005-8.7,5.78C1016.713,1387.984,1021.5,1383.885,1025.558,1381.43Z" fill="#231815"/>
      <path id="Path_20154" data-name="Path 20154" d="M1043.237,1380.477c-1.043-1.44-.129-3.724,1.209-4.592a75.327,75.327,0,0,0-8.387,6.772C1039.221,1382.261,1039.815,1379.825,1043.237,1380.477Z" fill="#231815"/>
      <path id="Path_20155" data-name="Path 20155" d="M1023.576,1389.777c-.3,3.058-4.372,2.365-5.776,3.7-1.2,1.586-3.779-.754-4.022,1.845,1.042-.058,2.151.174,2.38,1.328,1.109-1.272,4.549,0,3.887-2.569,2.2.462,3.414-4.126,5.911-1.472,1.024-.951-1.162-1.275-.135-2.224a2.487,2.487,0,0,0,2.856-.865c.034-2.773,5.581-4.243,7.129-6.618-.243.239-.5.458-.728.7C1030.265,1384.551,1028.736,1389.057,1023.576,1389.777Z" fill="#231815"/>
      <path id="Path_20156" data-name="Path 20156" d="M1035.806,1382.9c.083-.077.172-.159.253-.241-.04,0-.073.011-.107.017A2.46,2.46,0,0,1,1035.806,1382.9Z" fill="#231815"/>
      <path id="Path_20157" data-name="Path 20157" d="M1013.469,1384.574l1.691-.633C1014.374,1383.047,1014.023,1384.313,1013.469,1384.574Z" fill="#231815"/>
      <path id="Path_20158" data-name="Path 20158" d="M1021.131,1406.464l-.2-1.015-1.31,1.01Z" fill="#231815"/>
      <path id="Path_20159" data-name="Path 20159" d="M974.2,1157.246c-.494-.951-1.747-.4-2.185-.317C972.331,1157.767,974.2,1157.246,974.2,1157.246Z" fill="#231815"/>
      <path id="Path_20160" data-name="Path 20160" d="M1017.786,1382.67l2.036-1.152-.726.144Z" fill="#231815"/>
      <path id="Path_20161" data-name="Path 20161" d="M1029.875,1381.026c-1.729,1.244-3.273,1.848-4.5,3.291-1.022,1.7-5.246.285-4.327,3.407,4.4-1.472,6.891-5.718,11.3-7.188,2.308-2.109,4.853-4.567,7.043-6.5-1.575.465-2.688,3.239-4.96,2.484.381-1.125,1.261-2.044,1.471-3.288-1.752.347-2.923,2.074-3.741,3.291l.93.868C1032.353,1379.036,1030.316,1379.439,1029.875,1381.026Z" fill="#231815"/>
      <path id="Path_20162" data-name="Path 20162" d="M1020.7,1380.589l.761-1.5-.724.143C1020.179,1379.5,1020.755,1380.127,1020.7,1380.589Z" fill="#231815"/>
      <path id="Path_20163" data-name="Path 20163" d="M1024.676,1378.45c2.236-1.64,5.277-3.894,6.069-6.005a20.359,20.359,0,0,0-9.028,7.942C1022.654,1379.751,1024.286,1379.58,1024.676,1378.45Z" fill="#231815"/>
      <path id="Path_20164" data-name="Path 20164" d="M979.549,1165.943l2.185-.433-1.657-.724C979.985,1165.1,979.434,1165.363,979.549,1165.943Z" fill="#231815"/>
      <path id="Path_20165" data-name="Path 20165" d="M1027.928,1402.564c1.368.782,2.042-1.154,3.352-1.414l-.925-.866C1028.836,1400.283,1028.514,1401.7,1027.928,1402.564Z" fill="#231815"/>
      <path id="Path_20166" data-name="Path 20166" d="M1030.887,1397.63c-1.107.519-.528,1.149-.967,1.995,2.654-1.882,6.506-3.092,8.347-5.259a7.63,7.63,0,0,0-5.833,3.4C1031.968,1397.716,1031.32,1398.3,1030.887,1397.63Z" fill="#231815"/>
      <path id="Path_20167" data-name="Path 20167" d="M1031.05,1377.793l-1.747.346-2.342,2.713Z" fill="#231815"/>
      <path id="Path_20168" data-name="Path 20168" d="M1038.909,1402.943l-.5-.956-.584.866-1.684-.864-.539,2.652c-.9-.718-1.4.581-1.945.84C1036.819,1407.7,1036.139,1402.741,1038.909,1402.943Z" fill="#231815"/>
      <path id="Path_20169" data-name="Path 20169" d="M1042.005,1398.722l-2.769,2.052c.229,1.157,1.4,1.674,2.871,1.535-.511-1.849,2.981-1.045,2.232-3.291l1.945.665c-1.013-.554-.138-1.477-.11-2.081.966-.494,1.808-.064,2.59.085,1.251-.552.913-1.532.622-2.222a16.1,16.1,0,0,0,6.3-3.344l-.525-.352,3.108-4.963c-3.389,2.768-9.055,6.293-11.506,9.926C1044.786,1396.681,1044.108,1399.36,1042.005,1398.722Z" fill="#231815"/>
      <path id="Path_20170" data-name="Path 20170" d="M1056.288,1374.377l-.536-.28C1055.925,1374.4,1056.106,1374.448,1056.288,1374.377Z" fill="#231815"/>
      <path id="Path_20171" data-name="Path 20171" d="M1061.783,1373.207a.568.568,0,0,0-.2-1.015c.459,2.315-2.716,1.593-3.011,3.15l.356.228c-1.028.2-1.613,1.821-2.631,1.271l2.23-3.293c-.972-.822-1.657.6-2.238.829l.306.151c-2.649,1.133-.1,3.323-.915,4.543-1.457-.467-2.395,1.67-3.992.487-1.4.581-.825,1.966-1.21,3.088l-.862-.58-.823,1.212c-.962-.261-3.038,3.008-3.611.117-.757,0-.761,1.5-1.7.636a2.417,2.417,0,0,0,2.1,1.387c-1.168.232-1.172,1.732-2.28,1.5-1.9,1.12-.7,2.54-1.056,3.81-.294.059-.7.292-1.084-.088l.351-.516c-2.7-1.416-1.176,2.483-2.626,3.519,4.6-1.959,6.713-5.078,11.117-8.052-.14-1.477,1.93-1.732,2.81-2.655.633.173.371,1.127.625,1.674l.732-.145a1.962,1.962,0,0,0,.389-1.875,1.234,1.234,0,0,1-1.256-.206c1-2.595,5.749-3.84,4.881-5.167l.346.23c.208.262-.06.462-.146.783,1.49-.9,1.433-1.936,2.576-3.064l.868.578,1.41-2.078c-.906.028-1.261,1.3-2.421.779Z" fill="#231815"/>
      <path id="Path_20172" data-name="Path 20172" d="M1042.145,1386.4c-1.366-.782-2.137,1.469-2.841,1.759C1040.676,1388.942,1041.208,1387.034,1042.145,1386.4Z" fill="#231815"/>
      <path id="Path_20173" data-name="Path 20173" d="M1036.553,1368.9l1.523-1.506-1.025.2C1036.853,1368.092,1036.3,1368.349,1036.553,1368.9Z" fill="#231815"/>
      <path id="Path_20174" data-name="Path 20174" d="M1037.734,1365.667l.95,1.008c.875-.173,1.032-2.453,2.109-1.614l1.109-2.022-.838-.432C1040.067,1363.7,1038.294,1363.9,1037.734,1365.667Z" fill="#231815"/>
      <rect id="Rectangle_184" data-name="Rectangle 184" width="1.042" height="0.438" transform="translate(1043.747 1392.235) rotate(-11.203)" fill="#231815"/>
      <path id="Path_20175" data-name="Path 20175" d="M1041.563,1368.954c-.585.87.344,1.735.915,2.372l1.093-1.421c-1.6.318-1.331-2.13-2.5-1.9C1040.313,1368.756,1041.189,1368.582,1041.563,1368.954Z" fill="#231815"/>
      <path id="Path_20176" data-name="Path 20176" d="M1009.2,1203.283c-.087-.437-.719-.613-1.158-.526l.144.727Z" fill="#231815"/>
      <path id="Path_20177" data-name="Path 20177" d="M1012.571,1205.766c-.93-.12-.673-1.076-1.367-1.533C1010.59,1204.949,1011.6,1206.252,1012.571,1205.766Z" fill="#231815"/>
      <path id="Path_20178" data-name="Path 20178" d="M1049.18,1389.053l-.142-.718-1.176.979Z" fill="#231815"/>
      <path id="Path_20179" data-name="Path 20179" d="M1044.623,1369.1l3.063-2.861-1.16.23C1046.87,1368.2,1044.394,1367.947,1044.623,1369.1Z" fill="#231815"/>
      <path id="Path_20180" data-name="Path 20180" d="M1045.451,1364.139l-1.16.23c-.063.458-.623.722-.355,1.266Z" fill="#231815"/>
      <path id="Path_20181" data-name="Path 20181" d="M1050.126,1369.365l-2.428,3.024C1049.209,1372.393,1050.055,1370.575,1050.126,1369.365Z" fill="#231815"/>
      <path id="Path_20182" data-name="Path 20182" d="M1046.846,1364.309c1.144-1.128,1.351-2.37,3.069-2.857-1.838.663-.434-1.413-2-.952C1046.6,1361.511,1047.2,1363.044,1046.846,1364.309Z" fill="#231815"/>
      <path id="Path_20183" data-name="Path 20183" d="M1046.35,1357.957l.918-1.36C1046.762,1357,1046.089,1357.169,1046.35,1357.957Z" fill="#231815"/>
      <path id="Path_20184" data-name="Path 20184" d="M1047.749,1355.883l-.481.714A1.168,1.168,0,0,0,1047.749,1355.883Z" fill="#231815"/>
      <path id="Path_20185" data-name="Path 20185" d="M1052.746,1375.745c-.381,1.125-1.433,1.182-2.218,1.787,1.769,2.052,1.784-1.7,3.088-1.208Z" fill="#231815"/>
      <path id="Path_20186" data-name="Path 20186" d="M1049.081,1358.77c.9.722,1.661-.784,1.841-1.419C1049.99,1357.237,1049.552,1358.074,1049.081,1358.77Z" fill="#231815"/>
      <path id="Path_20187" data-name="Path 20187" d="M1050.678,1352.3c.328-2.169,2.307-2.859,2.9-5.229C1051.043,1347.275,1050.679,1350.8,1050.678,1352.3Z" fill="#231815"/>
      <path id="Path_20188" data-name="Path 20188" d="M1056.369,1364.227c2.184-.433.59-2.368.764-3.008-2.215,1.045-2.535,2.456-3.768,4.651C1054.322,1365.382,1054.863,1363.471,1056.369,1364.227Z" fill="#231815"/>
      <path id="Path_20189" data-name="Path 20189" d="M1055.872,1356.371c-1.393-.92-2.623,1.269-4.08,1.558C1053.626,1358.771,1054.239,1356.548,1055.872,1356.371Z" fill="#231815"/>
      <rect id="Rectangle_185" data-name="Rectangle 185" width="1.491" height="0.294" transform="translate(1014.821 1169.755) rotate(-11.203)" fill="#231815"/>
      <path id="Path_20190" data-name="Path 20190" d="M1071.489,1369.479c-.031,1.36-2.366,2.568-2.663,4.881-2.741.694-1.817,3.815-4.557,4.508-.1,2.569-2.461,2.881-3.769,4.645-.157.776.687,1.215,1.006,1.3.971-1.995,5.806-2.051,4.852-4.561l1.174-1.738c-1.6-1.932,1.843-2.159,2.517-3.35-.66-2.565,3.379-1.268,2.569-3.813l.381.38,2.046-2.654C1073.308,1367.169,1073.879,1370.055,1071.489,1369.479Zm-6.15,10.978-.879.922-.142-.72Z" fill="#231815"/>
      <path id="Path_20191" data-name="Path 20191" d="M1059.563,1351.292c.09-.32-.232-.4-.437-.662-.757-.007-.934.631-1.31,1.008-.937-.117-2.769-.2-2.385-1.331-.76.753-.735,1.646-1.021,2.457C1057.042,1354.64,1056.965,1351.954,1059.563,1351.292Z" fill="#231815"/>
      <path id="Path_20192" data-name="Path 20192" d="M1058.6,1359.438c.884-2.435,3.323-.811,4.177-2.635-.294.058-.7.3-1.08-.086,1.147-1.873,1.217-6.088,4.855-5.308l-.487-2.457c-4.073-.693-1.794,3.952-5.086,5.658C1061.435,1356.92,1058.518,1357.5,1058.6,1359.438Z" fill="#231815"/>
      <path id="Path_20193" data-name="Path 20193" d="M1055.957,1342.255c1.163.518.643-1.33,1.109-2.025C1056.019,1340.286,1056.305,1341.73,1055.957,1342.255Z" fill="#231815"/>
      <path id="Path_20194" data-name="Path 20194" d="M1058.324,1346.584l-.143-.723-.727.144a1.286,1.286,0,0,0-.29.808Z" fill="#231815"/>
      <path id="Path_20195" data-name="Path 20195" d="M1059.751,1346.9l1.548.151-.143-.723C1060.747,1346.555,1059.637,1346.324,1059.751,1346.9Z" fill="#231815"/>
      <path id="Path_20196" data-name="Path 20196" d="M1061.19,1342.714c1.525-2.253-.417-4.418.087-6.468-2.884.723.486,3.207-1.589,4.966l1.6.434Z" fill="#231815"/>
      <path id="Path_20197" data-name="Path 20197" d="M1065.721,1347.22l.586-.116-.2-1.008C1066.01,1346.409,1065.463,1346.67,1065.721,1347.22Z" fill="#231815"/>
      <path id="Path_20198" data-name="Path 20198" d="M1067.865,1343.5l-.441.087c-.18.635-.852,1.07-.737,1.647A1.133,1.133,0,0,0,1067.865,1343.5Z" fill="#231815"/>
      <path id="Path_20199" data-name="Path 20199" d="M1066.1,1339.942l-.286-1.444A.832.832,0,0,0,1066.1,1339.942Z" fill="#231815"/>
      <path id="Path_20200" data-name="Path 20200" d="M1070.121,1338.847c-1.868.517-1.29,2.656-2.084,4.014Z" fill="#231815"/>
      <path id="Path_20201" data-name="Path 20201" d="M1078.429,1360.152c.826,2.685-3.029.752-3.01,3.149l.871.578c-.385,1.129.019,2.4-1.151,3.379l1.11.232c.727-.9,2.711-2.337,1.117-3.52,1.107-.523.594-2.369,2.279-1.506-.519-1.848,2.452-2.132,1-4.1C1080.116,1359.524,1079.22,1359.549,1078.429,1360.152Z" fill="#231815"/>
      <path id="Path_20202" data-name="Path 20202" d="M1072.579,1351.258l1.253-1.291c-.344-1.736,3.429-4.131.132-4.678l-.615.721C1076.115,1348.465,1071.628,1348.751,1072.579,1351.258Z" fill="#231815"/>
      <path id="Path_20203" data-name="Path 20203" d="M1070.943,1335.38c-.461.694-1.223,1.443-.614,2.223l1.976-.69Z" fill="#231815"/>
      <rect id="Rectangle_186" data-name="Rectangle 186" width="1.485" height="0.298" transform="translate(1068.503 1326.861) rotate(-11.203)" fill="#231815"/>
      <path id="Path_20204" data-name="Path 20204" d="M1071.619,1333.448l-.087,1.062.53-1.149Z" fill="#231815"/>
      <path id="Path_20205" data-name="Path 20205" d="M1070.439,1322.13l-.436.836.965-.49Z" fill="#231815"/>
      <path id="Path_20206" data-name="Path 20206" d="M1043.516,1183.88l3.262.4-3.065-.9.617-.721-.732.145C1043.656,1183.1,1043.891,1183.5,1043.516,1183.88Z" fill="#231815"/>
      <path id="Path_20207" data-name="Path 20207" d="M1077.48,1324.038l-2.177-1.823c-1.113,2.02-.855,4.074-1.364,6.123Z" fill="#231815"/>
      <path id="Path_20208" data-name="Path 20208" d="M1082.793,1353.142c.087-.686-.8-1.745-.749-2.657a14.368,14.368,0,0,0-1.534,5.657l.3-.058c.81.286.2,1.013-.011,1.5l1.08.09a54.23,54.23,0,0,0,4.983-9.99C1083.71,1347.859,1085.906,1352.074,1082.793,1353.142Z" fill="#231815"/>
      <path id="Path_20209" data-name="Path 20209" d="M1082.044,1350.485c.167-.3.305-.606.5-.9A1.177,1.177,0,0,0,1082.044,1350.485Z" fill="#231815"/>
      <path id="Path_20210" data-name="Path 20210" d="M1079.59,1336.971l-.737.146c-1.075,1.408.119,2.075-1.431,3.434C1078.53,1340.033,1078.915,1338.154,1079.59,1336.971Z" fill="#231815"/>
      <path id="Path_20211" data-name="Path 20211" d="M1073.768,1312.919l-1.836-.083.085.429C1072.57,1313.009,1073.649,1313.088,1073.768,1312.919Z" fill="#231815"/>
      <path id="Path_20212" data-name="Path 20212" d="M1073.221,1308.679c-1.662.026-.228,1.1.06,1.783C1073.925,1309.888,1073.335,1309.255,1073.221,1308.679Z" fill="#231815"/>
      <path id="Path_20213" data-name="Path 20213" d="M1059.462,1242.234c.747.75,1.6-.317,1.6-1.069Z" fill="#231815"/>
      <rect id="Rectangle_187" data-name="Rectangle 187" width="1.194" height="0.298" transform="translate(1058.807 1235.909) rotate(-11.203)" fill="#231815"/>
      <path id="Path_20214" data-name="Path 20214" d="M1081.382,1331.514l-2.621,1.269C1080.336,1332.319,1081.056,1333.676,1081.382,1331.514Z" fill="#231815"/>
      <path id="Path_20215" data-name="Path 20215" d="M1073.67,1307.081c.317-.283.238-.684.159-1.081Z" fill="#231815"/>
      <path id="Path_20216" data-name="Path 20216" d="M1073.829,1306l.17-1.083C1073.672,1305.209,1073.752,1305.609,1073.829,1306Z" fill="#231815"/>
      <path id="Path_20217" data-name="Path 20217" d="M1060.559,1237.062l-.036,1.359.579-.115C1061.016,1237.873,1061.258,1236.771,1060.559,1237.062Z" fill="#231815"/>
      <path id="Path_20218" data-name="Path 20218" d="M1078.872,1316.558l-.135-2.223-.878.925-.986-1.153c.171.863-.415,1.729-.557,2.508C1077.1,1316.007,1078.033,1316.877,1078.872,1316.558Z" fill="#231815"/>
      <path id="Path_20219" data-name="Path 20219" d="M1073.736,1295.967l.186.939A1.03,1.03,0,0,0,1073.736,1295.967Z" fill="#231815"/>
      <path id="Path_20220" data-name="Path 20220" d="M1074.223,1298.424l-.3-1.518a1.654,1.654,0,0,1-1.3,1.084Z" fill="#231815"/>
      <path id="Path_20221" data-name="Path 20221" d="M1063.546,1248.326a9.513,9.513,0,0,0,2.866,3.783C1064.879,1250.462,1066.893,1247.663,1063.546,1248.326Z" fill="#231815"/>
      <path id="Path_20222" data-name="Path 20222" d="M1077.408,1311.448c-.808-2.542,3.071-4.363,2.389-6.325-1.695.634-1.253-1.7-2.3-2.4l-.208.492C1079,1305.732,1076.46,1308.934,1077.408,1311.448Z" fill="#231815"/>
      <path id="Path_20223" data-name="Path 20223" d="M1067.934,1257.512c3.9.575,1.2,6.065,4.636,7.33l.385-1.879,1.889.376c1.985-2.187-1.913-2.018-1.793-3.69-.673,1.179,1.683,1.618.865,2.829-.465-.059-1.109.515-1.4-.179-1.044-1.443-2.639-3.378-1.759-5.052l-2.58-1.587C1068.146,1256.27,1067.5,1256.849,1067.934,1257.512Z" fill="#231815"/>
      <path id="Path_20224" data-name="Path 20224" d="M1069.2,1254.708l-1.942-2.163-.208.492C1068.793,1253.44,1066.833,1255.776,1069.2,1254.708Z" fill="#231815"/>
      <path id="Path_20225" data-name="Path 20225" d="M1068.987,1248.3l-2.875-1.533C1066.459,1247.749,1067.531,1249.339,1068.987,1248.3Z" fill="#231815"/>
      <path id="Path_20226" data-name="Path 20226" d="M1078.731,1308.937l.229,1.155.206-1.241Z" fill="#231815"/>
      <path id="Path_20227" data-name="Path 20227" d="M1077.3,1301.716c1.685.863.791-2.1,2.71-1.586.125-1.68,1.648-4.678-.736-5.26C1074.963,1295.278,1078.538,1298.766,1077.3,1301.716Z" fill="#231815"/>
      <path id="Path_20228" data-name="Path 20228" d="M1056.2,1192.918l.057.287,2.04-.4C1057.551,1192.8,1056.731,1191.761,1056.2,1192.918Z" fill="#231815"/>
      <path id="Path_20229" data-name="Path 20229" d="M1086.808,1345.9l1.747-.346-.259-1.306-.722.143C1087.364,1344.88,1086.194,1345.112,1086.808,1345.9Z" fill="#231815"/>
      <path id="Path_20230" data-name="Path 20230" d="M1073.117,1250.781l-.529-.351c-.464-.055-.492.553-.874.933l-1.217-.812c.238-2.6-1.48.146-2.678-.524l1.484,2.112C1070.026,1251.245,1072.962,1253.061,1073.117,1250.781Z" fill="#231815"/>
      <path id="Path_20231" data-name="Path 20231" d="M1083.885,1323.519l-.285-1.443-.428.085C1082.781,1322.534,1083.038,1323.831,1083.885,1323.519Z" fill="#231815"/>
      <path id="Path_20232" data-name="Path 20232" d="M1078.352,1291.755c-.26-.552.036-1.36-.777-1.644C1076.347,1290.8,1077.62,1292.655,1078.352,1291.755Z" fill="#231815"/>
      <path id="Path_20233" data-name="Path 20233" d="M1073.943,1271.776c-.012,2.251.686,3.464,1.607,5.832C1076.12,1274.348,1074.543,1274.807,1073.943,1271.776Z" fill="#231815"/>
      <path id="Path_20234" data-name="Path 20234" d="M1073.162,1269.377c.286,1.442,1.948,1.417,3.113,1.186,1.193-.088-.082-1.934-.544-2.744-.758,0-.295.8-.822,1.212l-1.947-.664Z" fill="#231815"/>
      <path id="Path_20235" data-name="Path 20235" d="M1075.807,1278.908l.251,3.548C1078.3,1281.562,1075.83,1280.552,1075.807,1278.908Z" fill="#231815"/>
      <path id="Path_20236" data-name="Path 20236" d="M1073,1257.856l-.313-1.584-1.017.2C1070.759,1257.247,1072.188,1258.321,1073,1257.856Z" fill="#231815"/>
      <path id="Path_20237" data-name="Path 20237" d="M1084.661,1318.263l-.4-2.022c-.492.549-.061,1.218-.38,1.879Z" fill="#231815"/>
      <path id="Path_20238" data-name="Path 20238" d="M1086.092,1301.774c-3.2,1.53-1.075,4.005-.542,6.435l.114-.945C1085.664,1305.76,1087.49,1302.7,1086.092,1301.774Z" fill="#231815"/>
      <path id="Path_20239" data-name="Path 20239" d="M1085.55,1308.209l-.274,2.43A3.185,3.185,0,0,0,1085.55,1308.209Z" fill="#231815"/>
      <path id="Path_20240" data-name="Path 20240" d="M1065.643,1200.048l-1.168.231-.525.407Z" fill="#231815"/>
      <path id="Path_20241" data-name="Path 20241" d="M1077.124,1261.842c-.318-.088-.41.234-.672.429l.872.577Z" fill="#231815"/>
      <path id="Path_20242" data-name="Path 20242" d="M1085.794,1296.431c1.04-.053.615-1.473-.052-1.787C1085.212,1295.042,1085.823,1295.824,1085.794,1296.431Z" fill="#231815"/>
      <path id="Path_20243" data-name="Path 20243" d="M1084.822,1291.522l1.1.235c-.253-.553.276-.953.011-1.5C1084.974,1289.993,1085.2,1291.153,1084.822,1291.522Z" fill="#231815"/>
      <path id="Path_20244" data-name="Path 20244" d="M1086.112,1288.866l-.667-1.065c-.408.982-.847,1.069-.966,1.986Z" fill="#231815"/>
      <path id="Path_20245" data-name="Path 20245" d="M1084.539,1279.428a2.372,2.372,0,0,0-1.831,1.417l1.249-.555,1.268,2.6Z" fill="#231815"/>
      <rect id="Rectangle_188" data-name="Rectangle 188" width="1.034" height="0.293" transform="translate(1077.226 1234.814) rotate(-11.203)" fill="#231815"/>
    </g>
    <g id="Group_1023" data-name="Group 1023" opacity="0.47">
      <g id="Group_972" data-name="Group 972">
        <path id="Path_20246" data-name="Path 20246" d="M923.645,1074.52c.166.728,1.6.4,0,0Z" fill="#231815"/>
        <path id="Path_20247" data-name="Path 20247" d="M863.607,1002.905l-7.995,1.4c-1.853.487-17.671,7.252-12.511,7.99-7.43,2.216-18.78,24.777-17.769,31.771-.27.91-6.471,1.544-3.076,7.139-2.434,3.774,1.8,12.141,2.452,9.836-3.417,8.035.307,10.04,3.009,18.3-.474,3.316,6.956,14.594,4.649,19.012,8.414,5.7,1.982,12.06,9.688,17.674,3.855,3.832,3.659,10.144,9.708,7.363.141-3.426,14.08,3.393,16.18-1.662l9.518,1.211c1.537,1.349,1.112-3.8,1.9-4.338-.211.012,6.224.13,5.253-.283,4.053-1.85,4.69.528,7.434.183,2.55,3.191,2.687,2.208,8.183-.93,4.876-.778,6.621-7.246,9.293-8.93-.133.139-1-3.823-1.038-3.643,5.69.841,3.279,1.405,4.328-4.3.984-.413,9.049-1.209,8.3-6.325-.408-2.9-4.172-11.681-4.228-11.475a4.651,4.651,0,0,0,2.251.112s-3.435-3.576-4.38-3.75c3.6-2.309.1.371,2.865-3.058-.164.2,4.743-1.422,4.86-1.887.507.074.858.141,1.156.213-.07-.273.042-.681.563-1.3a26.066,26.066,0,0,1,.934-8.864c-.129.053,4.351,2.278,4.282,2.257-.225-.435-.151-.707.2-.839-.354-.35-4.216-3.892-2.927-4.8.659-.543,1.8,3.05,3.431,2.368.218-5.849-1.632-18.355-4.668-23.866-1.266-4.961-14.4-9.772-13.732-14.591,1.385-2.824.219-5.6.477-8.6-1.091.256-1.8,1.7-2.975,1.968-.545-3.184-2-3.37-3.78-3.7,1.6-.489,2.329-1.712,2.212-3.654-.369.22-.614.121-.737-.313-.861.278-5.3,3.261-5.779,2.521.044.2-.892-3.827-.867-3.671-1.287.123-1.74,2.98-2.862,2.747-2.782-1.2,1.663-9.993-4.7-1.807-2.976-12.538-3.651-4.047-8.526-5.7C878.372,997.423,866.724,993.623,863.607,1002.905Z" fill="#231815"/>
      </g>
      <g id="Group_973" data-name="Group 973">
        <path id="Path_20248" data-name="Path 20248" d="M863.136,1123.4c.738.694,1.419,1.347,0,0" fill="#231815"/>
      </g>
      <g id="Group_974" data-name="Group 974">
        <path id="Path_20249" data-name="Path 20249" d="M915.219,1084.283c.537-.155.714-.019.93.477C916.132,1085.594,914.914,1085.2,915.219,1084.283Z" fill="#231815"/>
      </g>
      <g id="Group_975" data-name="Group 975">
        <path id="Path_20250" data-name="Path 20250" d="M920.362,1074.9c.219-2.737.266-1.255,0,0" fill="#231815"/>
      </g>
      <g id="Group_976" data-name="Group 976">
        <path id="Path_20251" data-name="Path 20251" d="M922.351,1069.88h0" fill="#231815"/>
      </g>
      <g id="Group_977" data-name="Group 977">
        <path id="Path_20252" data-name="Path 20252" d="M828.661,1064.711c3.771-2.594.079.322,0,0" fill="#231815"/>
      </g>
      <g id="Group_978" data-name="Group 978">
        <path id="Path_20253" data-name="Path 20253" d="M825.67,1065.3c-.749-3.939.738.215,0,0" fill="#231815"/>
      </g>
      <g id="Group_979" data-name="Group 979">
        <path id="Path_20254" data-name="Path 20254" d="M824.254,1055.527c-.5-4.491-.021-1.08,0,0" fill="#231815"/>
      </g>
      <g id="Group_980" data-name="Group 980">
        <path id="Path_20255" data-name="Path 20255" d="M920.256,1041.127c.838.769.84.753,0,0" fill="#231815"/>
      </g>
      <g id="Group_981" data-name="Group 981">
        <path id="Path_20256" data-name="Path 20256" d="M923.873,1040.269c.6-.241,1.311,1.615,0,0" fill="#231815"/>
      </g>
      <g id="Group_982" data-name="Group 982">
        <path id="Path_20257" data-name="Path 20257" d="M830.385,1041.234c1.668,1.036-.038.752,0,0" fill="#231815"/>
      </g>
      <g id="Group_983" data-name="Group 983">
        <path id="Path_20258" data-name="Path 20258" d="M833.662,1030.9c.613-.314,2.134,2.253,0,0" fill="#231815"/>
      </g>
      <g id="Group_984" data-name="Group 984">
        <path id="Path_20259" data-name="Path 20259" d="M833.6,1188.3c-.532,1.911,1.287-7.674,1.107-6.5-.546,2.143,5.832,3.97-1.107,6.5" fill="#231815"/>
      </g>
      <g id="Group_985" data-name="Group 985">
        <path id="Path_20260" data-name="Path 20260" d="M807.312,1171.937c-.671-2.09,2.1-1.987,2.222-1.091.428,2.005-2,2.138-2.222,1.091" fill="#231815"/>
      </g>
      <g id="Group_986" data-name="Group 986">
        <path id="Path_20261" data-name="Path 20261" d="M933.351,1155.142c.147-.449-3.412-1-2.591-3.833,2.449-.186,6.93,2.288,2.591,3.833" fill="#231815"/>
      </g>
      <path id="Path_20262" data-name="Path 20262" d="M818.983,1145.346c-1.157.24-7.612,11.2-3.09,12.5.444,2.486,11.173,17.869,19.526,7.979,2.616-.258,11.355-7.006,7.308-8.861,3.358-10.683-2.9-7.959-4.053-16.189-4.571-.846-10.315.23-14.276-.6" fill="#231815"/>
      <g id="Group_987" data-name="Group 987">
        <path id="Path_20263" data-name="Path 20263" d="M857.367,1161.289c-.457-3.15.749-6.362,2.054-9.4,3.04-1.095.508,15.274-2.054,9.4" fill="#231815"/>
      </g>
      <g id="Group_988" data-name="Group 988">
        <path id="Path_20264" data-name="Path 20264" d="M865.494,1158.479c-.364-.891-.576-4.583,1.19-4.729,2.764,3.488,1.575,4.38-1.19,4.729" fill="#231815"/>
      </g>
      <g id="Group_989" data-name="Group 989">
        <path id="Path_20265" data-name="Path 20265" d="M767.462,1170.552c.115-2.613,3.18-4.583,5.11-4.813.04.793-4.459,7.258-5.11,4.813" fill="#231815"/>
      </g>
      <g id="Group_990" data-name="Group 990">
        <path id="Path_20266" data-name="Path 20266" d="M943.7,1143.924c.146-.586-3.683-1.123-3.2-3.185,4.729-.056,2.819,2.388,3.2,3.185" fill="#231815"/>
      </g>
      <g id="Group_991" data-name="Group 991">
        <path id="Path_20267" data-name="Path 20267" d="M851.008,1155.116c.036-.114-.742-2.28-.069-3.966,2.471-.913,1.459,4.2.069,3.966" fill="#231815"/>
      </g>
      <g id="Group_992" data-name="Group 992">
        <path id="Path_20268" data-name="Path 20268" d="M858.75,1145.012c-.31.085,1.865-5.132,2.3-5.446.407,1.053,1.532,12.031-1.449,11.287-.265-1.934-.568-3.894-.852-5.841" fill="#231815"/>
      </g>
      <g id="Group_993" data-name="Group 993">
        <path id="Path_20269" data-name="Path 20269" d="M922.325,1138.039c-.2-.755-.977-5.016,1.462-1.762,1.4,5.224.469,2.312-1.462,1.762" fill="#231815"/>
      </g>
      <g id="Group_994" data-name="Group 994">
        <path id="Path_20270" data-name="Path 20270" d="M782.254,1147.628c.724-.4.03-4.961,3.171-1.6.846,2.594-2.2,2.191-3.171,1.6" fill="#231815"/>
      </g>
      <g id="Group_995" data-name="Group 995">
        <path id="Path_20271" data-name="Path 20271" d="M882.125,1129.371c-.088.337-2.4-2.267-2.5-3.075.184-.181,3.91-.488,4.145.288-.123,1.356.609,2.97-1.645,2.787" fill="#231815"/>
      </g>
      <g id="Group_996" data-name="Group 996">
        <path id="Path_20272" data-name="Path 20272" d="M911.838,1122.254c-.046-.074-2.476-8.15-2.408-7.237,5.813-5.945,4.234,13.21,2.408,7.237" fill="#231815"/>
      </g>
      <g id="Group_997" data-name="Group 997">
        <path id="Path_20273" data-name="Path 20273" d="M827.3,1133.05c-.448,1.741-5.611-8.665-5.462-11.646,2.476-5.759,8.567-6.89,11.758-2.653,1.569-.6,6.7,17.95-6.3,14.3" fill="#231815"/>
      </g>
      <g id="Group_998" data-name="Group 998">
        <path id="Path_20274" data-name="Path 20274" d="M804.128,1131.195c.861-1.928,5.752-10.2,8.818-9.868-1.06,4.359-4.645,10.953-8.818,9.868" fill="#231815"/>
      </g>
      <g id="Group_999" data-name="Group 999">
        <path id="Path_20275" data-name="Path 20275" d="M926.42,1104.946a7.018,7.018,0,0,1-.42-4.122c3.92-2.413,1.38,8.669.42,4.122" fill="#231815"/>
      </g>
      <g id="Group_1000" data-name="Group 1000">
        <path id="Path_20276" data-name="Path 20276" d="M818.876,1113.835a2.5,2.5,0,0,1,2.847-2.742c.128.425.368.532.725.306.419,1.843-3.05,4.207-3.572,2.436" fill="#231815"/>
      </g>
      <g id="Group_1001" data-name="Group 1001">
        <path id="Path_20277" data-name="Path 20277" d="M755.988,1119.71c-1.606-3.052,3.23-5.386,4.946-3.591-.7,2.429-2.948,2.45-4.946,3.591" fill="#231815"/>
      </g>
      <g id="Group_1002" data-name="Group 1002">
        <path id="Path_20278" data-name="Path 20278" d="M929.717,1090.03c.748-.36,3.028-1.505,3.74-.264.843,4.226-4.489.11-3.74.264" fill="#231815"/>
      </g>
      <g id="Group_1003" data-name="Group 1003">
        <path id="Path_20279" data-name="Path 20279" d="M927.648,1087.51c-.257,1-2.11-3.08-2.185-3.325,3.17-7.932,1.98,7.726,2.185,3.325" fill="#231815"/>
      </g>
      <g id="Group_1004" data-name="Group 1004">
        <path id="Path_20280" data-name="Path 20280" d="M999.863,1076.48c-.919-3.182-2.853,2.091-2.325-4.275-1.545-.878-3.61,1.192-4.451-2.437,4.333-3.949,11.664,5.208,6.776,6.712" fill="#231815"/>
      </g>
      <g id="Group_1005" data-name="Group 1005">
        <path id="Path_20281" data-name="Path 20281" d="M965.909,1080.331c-.214.76-7.442-7.718-7.676-8.2,1.518-1.071,14.873,3.826,7.676,8.2" fill="#231815"/>
      </g>
      <g id="Group_1006" data-name="Group 1006">
        <path id="Path_20282" data-name="Path 20282" d="M820.349,1082.841c.754-.656-.1-2.03,2.165-1.645.213,2.13-.513,2.686-2.165,1.645" fill="#231815"/>
      </g>
      <g id="Group_1007" data-name="Group 1007">
        <path id="Path_20283" data-name="Path 20283" d="M952.836,1056.136c-.057-1.909-6.572-4.157-.608-5.394,6.1-1.291,2.344,3.644.608,5.394" fill="#231815"/>
      </g>
      <g id="Group_1008" data-name="Group 1008">
        <path id="Path_20284" data-name="Path 20284" d="M929.83,1050.655c-.744-1.728,2.311-1.907,2.6-.91.528,1.692-.333,2-2.6.91" fill="#231815"/>
      </g>
      <g id="Group_1009" data-name="Group 1009">
        <path id="Path_20285" data-name="Path 20285" d="M1010.829,1038.94c-1.04-1.327-2.638.421-1.516-2.215,3.6-.265,4.147,2.867,1.516,2.215" fill="#231815"/>
      </g>
      <g id="Group_1010" data-name="Group 1010">
        <path id="Path_20286" data-name="Path 20286" d="M802.661,1048.091c-.55-.48-3.058-.187-3.818-.51-.84-2.215,3.806.446,3.818.51" fill="#231815"/>
      </g>
      <g id="Group_1011" data-name="Group 1011">
        <path id="Path_20287" data-name="Path 20287" d="M917.059,1012.116c-1.7-6.139,4.623.025,0,0" fill="#231815"/>
      </g>
      <g id="Group_1012" data-name="Group 1012">
        <path id="Path_20288" data-name="Path 20288" d="M905.111,1007.449c-6.9-3.468,6.641-12.095,0,0" fill="#231815"/>
      </g>
      <g id="Group_1013" data-name="Group 1013">
        <path id="Path_20289" data-name="Path 20289" d="M816.13,1018.377c.026-.139-3-3.528.553-3.24.169-.553,2.255,4.329-.553,3.24" fill="#231815"/>
      </g>
      <g id="Group_1014" data-name="Group 1014">
        <path id="Path_20290" data-name="Path 20290" d="M817.139,1006.54c.327-1.841-5.5-14.027,3.43-4.67,4.534,4.745,1.739,8.43-3.43,4.67" fill="#231815"/>
      </g>
      <g id="Group_1015" data-name="Group 1015">
        <path id="Path_20291" data-name="Path 20291" d="M830.216,1007.084c-.687,2.7-3.723-11.329,1.978-2.829.094,1.068-1.853,3.489-1.978,2.829" fill="#231815"/>
      </g>
      <g id="Group_1016" data-name="Group 1016">
        <path id="Path_20292" data-name="Path 20292" d="M793.387,999.371c.152-.231-1.232-3.029,2.956-1.949.015,1.508-2.045,4.846-2.956,1.949" fill="#231815"/>
      </g>
      <g id="Group_1017" data-name="Group 1017">
        <path id="Path_20293" data-name="Path 20293" d="M883.89,988.445c.022-.289,2.033-5.744,2.713-2.528-.184,2.021-1.073,2.859-2.713,2.528" fill="#231815"/>
      </g>
      <g id="Group_1018" data-name="Group 1018">
        <path id="Path_20294" data-name="Path 20294" d="M782.286,992.412c1.206-4.323.286-3.91,0,0" fill="#231815"/>
      </g>
      <g id="Group_1019" data-name="Group 1019">
        <path id="Path_20295" data-name="Path 20295" d="M825.624,984.793c.18-1.849-.771-2.7,1.5-1.372.78,1.962.275,2.415-1.5,1.372" fill="#231815"/>
      </g>
      <g id="Group_1020" data-name="Group 1020">
        <path id="Path_20296" data-name="Path 20296" d="M915.5,949.508c1.551-6.234,4.09-5.854,0,0" fill="#231815"/>
      </g>
      <g id="Group_1021" data-name="Group 1021">
        <path id="Path_20297" data-name="Path 20297" d="M921.5,1074.554c1.015.118,1.514.174,0,0" fill="#231815"/>
      </g>
      <g id="Group_1022" data-name="Group 1022">
        <path id="Path_20298" data-name="Path 20298" d="M866.684,1153.75c-1.91-5.423.088-2.991-.424-6.492,4.891.245.718,4.864.424,6.492" fill="#231815"/>
      </g>
    </g>
  </g>
</svg>
