<svg xmlns="http://www.w3.org/2000/svg" width="356.583" height="273.36" viewBox="0 0 356.583 273.36">
  <g id="Group_1324" data-name="Group 1324" transform="translate(-415.681 -2377.641)" opacity="0.46">
    <g id="Group_1025" data-name="Group 1025">
      <path id="Path_20299" data-name="Path 20299" d="M649.1,2551.456c-.189.939,1.671,1.309,0,0Z" fill="#231815"/>
      <path id="Path_20300" data-name="Path 20300" d="M616.461,2436.018l-10.1-2.57c-2.426-.4-24.508-.8-18.853,2.777-9.866-1.313-35.023,19.137-37.518,27.859-.8.924-8.389-1.595-7.355,6.742-4.836,3.139-4.278,15.164-2.3,12.809-8.227,7.611-4.92,11.917-6.1,23.012-2.3,3.633.471,20.748-4.554,24.708,6.857,11.1-4.022,15.164,2.05,25.791,2.5,6.516-1.051,13.8,7.495,13.728,1.967-3.938,14.7,11.378,19.821,6.563l10.509,6.424c1.091,2.388,3.3-3.863,4.512-4.079-.254-.1,7.22,3.427,6.3,2.432,5.719-.034,5.215,3.085,8.609,4.125,1.308,5.077,1.985,4,10.071,3.214,6.119,1.653,11.566-5,15.579-5.57-.229.093.842-5,.7-4.812,6.221,3.978,3.1,3.369,7.332-2.764,1.369.035,11.232,3.343,13.05-3.039,1.046-3.607,1.257-15.873,1.084-15.661a5.976,5.976,0,0,0,2.577,1.314s-2.142-5.993-3.157-6.7c5.427-.811-.078.488,4.964-2.074-.3.149,6.3.83,6.683.346.555.354.931.617,1.242.858.061-.357.407-.775,1.34-1.221a33.491,33.491,0,0,1,5.755-9.888c-.178-.006,3.9,4.955,3.828,4.9-.035-.628.2-.907.68-.875-.23-.6-2.89-6.776-.9-7.155,1.057-.29.509,4.52,2.772,4.577,3.332-6.735,7.743-22.353,7.086-30.4,1.126-6.476-11.718-19.014-8.407-24.308,3.107-2.578,3.2-6.443,5.082-9.824-1.411-.273-3,1.047-4.518.741,1.036-4.015-.565-5-2.482-6.318,2.132.27,3.627-.78,4.512-3.116-.548.063-.782-.181-.7-.753-1.154-.128-7.915,1.034-8.093-.088-.052.255.968-4.95.916-4.755-1.572-.532-3.6,2.575-4.8,1.711-2.627-2.865,7.2-10.827-4.55-4.586,3.109-16.246-2.147-6.659-6.988-11.153C636.634,2437.363,624.992,2426.788,616.461,2436.018Z" fill="#231815"/>
    </g>
    <g id="Group_1026" data-name="Group 1026">
      <path id="Path_20301" data-name="Path 20301" d="M552.54,2576.869c.5,1.2.953,2.324,0,0" fill="#231815"/>
    </g>
    <g id="Group_1027" data-name="Group 1027">
      <path id="Path_20302" data-name="Path 20302" d="M634.1,2558.457c.711.1.846.354.838,1.048C634.481,2560.473,633.26,2559.374,634.1,2558.457Z" fill="#231815"/>
    </g>
    <g id="Group_1028" data-name="Group 1028">
      <path id="Path_20303" data-name="Path 20303" d="M645.057,2550.177c1.7-3.091.972-1.33,0,0" fill="#231815"/>
    </g>
    <g id="Group_1029" data-name="Group 1029">
      <path id="Path_20304" data-name="Path 20304" d="M650.028,2545.342h0" fill="#231815"/>
    </g>
    <g id="Group_1030" data-name="Group 1030">
      <path id="Path_20305" data-name="Path 20305" d="M543.033,2490.016c5.781-1.056-.076.418,0,0" fill="#231815"/>
    </g>
    <g id="Group_1031" data-name="Group 1031">
      <path id="Path_20306" data-name="Path 20306" d="M539.223,2489.127c1.2-5.006.751.641,0,0" fill="#231815"/>
    </g>
    <g id="Group_1032" data-name="Group 1032">
      <path id="Path_20307" data-name="Path 20307" d="M542.7,2476.943c1.772-5.524.544-1.276,0,0" fill="#231815"/>
    </g>
    <g id="Group_1033" data-name="Group 1033">
      <path id="Path_20308" data-name="Path 20308" d="M662.7,2510.57c.577,1.341.588,1.323,0,0" fill="#231815"/>
    </g>
    <g id="Group_1034" data-name="Group 1034">
      <path id="Path_20309" data-name="Path 20309" d="M667.383,2511.468c.824.03.686,2.58,0,0" fill="#231815"/>
    </g>
    <g id="Group_1035" data-name="Group 1035">
      <path id="Path_20310" data-name="Path 20310" d="M557.4,2463.43c1.408,2.09-.44.861,0,0" fill="#231815"/>
    </g>
    <g id="Group_1036" data-name="Group 1036">
      <path id="Path_20311" data-name="Path 20311" d="M566.674,2453.046c.883-.046,1.314,3.76,0,0" fill="#231815"/>
    </g>
    <g id="Group_1037" data-name="Group 1037">
      <path id="Path_20312" data-name="Path 20312" d="M483.821,2637.345c-1.628,1.958,5.543-8.31,4.716-7.033-1.766,2.224,4.741,7.718-4.716,7.033" fill="#231815"/>
    </g>
    <g id="Group_1038" data-name="Group 1038">
      <path id="Path_20313" data-name="Path 20313" d="M461.64,2604.352c.314-2.8,3.5-1.225,3.176-.11-.552,2.573-3.471,1.45-3.176.11" fill="#231815"/>
    </g>
    <g id="Group_1039" data-name="Group 1039">
      <path id="Path_20314" data-name="Path 20314" d="M618.068,2650.971c.408-.449-3.469-2.966-1.018-5.852,2.965,1.071,6.911,6.325,1.018,5.852" fill="#231815"/>
    </g>
    <path id="Path_20315" data-name="Path 20315" d="M489.293,2579.351c-1.482-.328-14.8,9.11-10.191,13.008-.787,3.144,3.685,26.8,18.668,19.613,3.2,1.073,16.983-2.232,13.219-6.534,9.551-10.743.79-10.844,3.768-21.088-4.907-3.4-12.2-5.156-16.4-8.206" fill="#231815"/>
    <g id="Group_1040" data-name="Group 1040">
      <path id="Path_20316" data-name="Path 20316" d="M525.856,2618.208c1.121-3.93,4.223-7.057,7.35-9.929,4.135.317-7.439,18.153-7.35,9.929" fill="#231815"/>
    </g>
    <g id="Group_1041" data-name="Group 1041">
      <path id="Path_20317" data-name="Path 20317" d="M536.851,2619.191c.042-1.235,1.736-5.67,3.88-4.912,1.4,5.538-.459,5.958-3.88,4.912" fill="#231815"/>
    </g>
    <g id="Group_1042" data-name="Group 1042">
      <path id="Path_20318" data-name="Path 20318" d="M415.7,2581.772c1.508-3,6.133-3.7,8.515-2.949-.371.95-9.039,6.154-8.515,2.949" fill="#231815"/>
    </g>
    <g id="Group_1043" data-name="Group 1043">
      <path id="Path_20319" data-name="Path 20319" d="M636.089,2643.278c.479-.609-3.723-3.253-2.075-5.413,5.568,2.422,2.045,4.278,2.075,5.413" fill="#231815"/>
    </g>
    <g id="Group_1044" data-name="Group 1044">
      <path id="Path_20320" data-name="Path 20320" d="M521.655,2607.634c.1-.114.332-3.059,2.007-4.681,3.373.232-.5,5.683-2.007,4.681" fill="#231815"/>
    </g>
    <g id="Group_1045" data-name="Group 1045">
      <path id="Path_20321" data-name="Path 20321" d="M536.036,2599.874c-.407-.063,4.883-5.029,5.559-5.167-.077,1.447-4.534,14.894-7.634,12.455.707-2.405,1.384-4.859,2.075-7.288" fill="#231815"/>
    </g>
    <g id="Group_1046" data-name="Group 1046">
      <path id="Path_20322" data-name="Path 20322" d="M614.151,2625.144c.16-.991,1.494-6.387,2.638-1.295-1.109,6.853-.667,2.954-2.638,1.295" fill="#231815"/>
    </g>
    <g id="Group_1047" data-name="Group 1047">
      <path id="Path_20323" data-name="Path 20323" d="M445.082,2562.706c1.059-.091,2.644-5.793,4.552-.2-.373,3.482-3.73,1.407-4.552.2" fill="#231815"/>
    </g>
    <g id="Group_1048" data-name="Group 1048">
      <path id="Path_20324" data-name="Path 20324" d="M571.635,2593.852c-.281.347-1.617-3.917-1.31-4.916.31-.115,4.835,1.485,4.7,2.517-.856,1.523-.848,3.8-3.391,2.4" fill="#231815"/>
    </g>
    <g id="Group_1049" data-name="Group 1049">
      <path id="Path_20325" data-name="Path 20325" d="M610.172,2601.145c-.015-.112,1.387-10.847.986-9.742,9.934-3.905-1.989,17.7-.986,9.742" fill="#231815"/>
    </g>
    <g id="Group_1050" data-name="Group 1050">
      <path id="Path_20326" data-name="Path 20326" d="M505.5,2569.325c-1.44,1.8-2.013-13.1-.271-16.51,5.928-5.442,13.656-3.563,15.164,3.077,2.152.126-1.6,24.543-14.893,13.433" fill="#231815"/>
    </g>
    <g id="Group_1051" data-name="Group 1051">
      <path id="Path_20327" data-name="Path 20327" d="M479.339,2554.967c2.022-1.8,12.1-8.92,15.516-6.918-3.534,4.547-11.2,10.384-15.516,6.918" fill="#231815"/>
    </g>
    <g id="Group_1052" data-name="Group 1052">
      <path id="Path_20328" data-name="Path 20328" d="M636.35,2588.545a9.018,9.018,0,0,1,1.676-5.048c5.86-.764-2.943,10.878-1.676,5.048" fill="#231815"/>
    </g>
    <g id="Group_1053" data-name="Group 1053">
      <path id="Path_20329" data-name="Path 20329" d="M505.739,2542.394c.666-2.079,3.336-2.883,4.776-1.713-.074.564.152.817.688.74-.479,2.378-5.784,3.322-5.464.973" fill="#231815"/>
    </g>
    <g id="Group_1054" data-name="Group 1054">
      <path id="Path_20330" data-name="Path 20330" d="M429.007,2516.2c-.276-4.418,6.614-4.609,7.68-1.6-2.1,2.475-4.741,1.319-7.68,1.6" fill="#231815"/>
    </g>
    <g id="Group_1055" data-name="Group 1055">
      <path id="Path_20331" data-name="Path 20331" d="M648.056,2572.813c1.065-.028,4.338-.171,4.519,1.657-1.236,5.392-5.314-2.232-4.519-1.657" fill="#231815"/>
    </g>
    <g id="Group_1056" data-name="Group 1056">
      <path id="Path_20332" data-name="Path 20332" d="M646.959,2568.773c-.828,1.037-.851-4.717-.811-5.043,7.884-7.621-1.744,10.089.811,5.043" fill="#231815"/>
    </g>
    <g id="Group_1057" data-name="Group 1057">
      <path id="Path_20333" data-name="Path 20333" d="M737.325,2593.836c.6-4.21-4.441.949-.474-6.229-1.348-1.84-4.854-.5-3.931-5.195,7.151-2.345,10.92,12.233,4.405,11.424" fill="#231815"/>
    </g>
    <g id="Group_1058" data-name="Group 1058">
      <path id="Path_20334" data-name="Path 20334" d="M695.539,2580.488c-.65.778-4.656-12.952-4.679-13.633,2.341-.456,15.4,12.3,4.679,13.633" fill="#231815"/>
    </g>
    <g id="Group_1059" data-name="Group 1059">
      <path id="Path_20335" data-name="Path 20335" d="M523.765,2506.874c1.227-.371.954-2.428,3.4-.788-.871,2.607-2.013,2.876-3.4.788" fill="#231815"/>
    </g>
    <g id="Group_1060" data-name="Group 1060">
      <path id="Path_20336" data-name="Path 20336" d="M692.954,2545.28c.938-2.265-5.509-8.324,2.125-6.636,7.819,1.7.829,5.5-2.125,6.636" fill="#231815"/>
    </g>
    <g id="Group_1061" data-name="Group 1061">
      <path id="Path_20337" data-name="Path 20337" d="M668.9,2526.762c.037-2.414,3.709-1.017,3.529.3-.272,2.259-1.44,2.163-3.529-.3" fill="#231815"/>
    </g>
    <g id="Group_1062" data-name="Group 1062">
      <path id="Path_20338" data-name="Path 20338" d="M769.909,2555.643c-.52-2.1-3.31-.9-.61-3.391,4.35,1.581,3.348,5.538.61,3.391" fill="#231815"/>
    </g>
    <g id="Group_1063" data-name="Group 1063">
      <path id="Path_20339" data-name="Path 20339" d="M521.328,2456.88c-.392-.853-3.483-1.828-4.2-2.607.181-3.035,4.222,2.524,4.2,2.607" fill="#231815"/>
    </g>
    <g id="Group_1064" data-name="Group 1064">
      <path id="Path_20340" data-name="Path 20340" d="M674.211,2474.916c1.234-8.084,5.4,2.46,0,0" fill="#231815"/>
    </g>
    <g id="Group_1065" data-name="Group 1065">
      <path id="Path_20341" data-name="Path 20341" d="M662.673,2463.167c-6.251-7.688,14.138-10.671,0,0" fill="#231815"/>
    </g>
    <g id="Group_1066" data-name="Group 1066">
      <path id="Path_20342" data-name="Path 20342" d="M552.728,2429.167c.1-.149-1.654-5.708,2.351-3.5.488-.558.364,6.256-2.351,3.5" fill="#231815"/>
    </g>
    <g id="Group_1067" data-name="Group 1067">
      <path id="Path_20343" data-name="Path 20343" d="M560.134,2415.836c1.351-1.983.937-19.319,6.473-3.665,2.814,7.942-2.4,10.786-6.473,3.665" fill="#231815"/>
    </g>
    <g id="Group_1068" data-name="Group 1068">
      <path id="Path_20344" data-name="Path 20344" d="M575.161,2423.35c-2.224,2.8,1.6-15.224,3.8-2.272-.452,1.3-4.005,3.112-3.8,2.272" fill="#231815"/>
    </g>
    <g id="Group_1069" data-name="Group 1069">
      <path id="Path_20345" data-name="Path 20345" d="M536.09,2394.95c.3-.191.151-4.2,4.488-.728-.776,1.773-4.945,4.6-4.488.728" fill="#231815"/>
    </g>
    <g id="Group_1070" data-name="Group 1070">
      <path id="Path_20346" data-name="Path 20346" d="M647.817,2429.752c.179-.326,5.4-5.657,4.507-1.533-1.278,2.27-2.76,2.783-4.507,1.533" fill="#231815"/>
    </g>
    <g id="Group_1071" data-name="Group 1071">
      <path id="Path_20347" data-name="Path 20347" d="M526.75,2380.962c3.687-4.428,2.392-4.429,0,0" fill="#231815"/>
    </g>
    <g id="Group_1072" data-name="Group 1072">
      <path id="Path_20348" data-name="Path 20348" d="M581.507,2394.832c1.183-2.07.518-3.567,2.48-.816-.119,2.707-.948,2.972-2.48.816" fill="#231815"/>
    </g>
    <g id="Group_1073" data-name="Group 1073">
      <path id="Path_20349" data-name="Path 20349" d="M705.307,2400.778c5.094-6.484,7.868-4.7,0,0" fill="#231815"/>
    </g>
    <g id="Group_1074" data-name="Group 1074">
      <path id="Path_20350" data-name="Path 20350" d="M646.571,2550.367h0" fill="#231815"/>
    </g>
    <g id="Group_1075" data-name="Group 1075">
      <path id="Path_20351" data-name="Path 20351" d="M540.731,2614.279c.616-7.355,1.676-3.456,2.919-7.825,5.6,2.859-1.719,6.073-2.919,7.825" fill="#231815"/>
    </g>
  </g>
</svg>
