<svg xmlns="http://www.w3.org/2000/svg" width="356.584" height="273.361" viewBox="0 0 356.584 273.361">
  <g id="Group_1325" data-name="Group 1325" transform="translate(-1333.66 -2236.213)" opacity="0.46">
    <g id="Group_1077" data-name="Group 1077">
      <path id="Path_20352" data-name="Path 20352" d="M1567.083,2410.028c-.189.94,1.67,1.31,0,0Z" fill="#231815"/>
      <path id="Path_20353" data-name="Path 20353" d="M1534.44,2294.59l-10.095-2.57c-2.427-.4-24.508-.8-18.853,2.777-9.867-1.313-35.023,19.137-37.518,27.859-.8.924-8.389-1.595-7.356,6.743-4.835,3.139-4.277,15.163-2.3,12.808-8.227,7.611-4.921,11.918-6.1,23.012-2.3,3.634.471,20.748-4.554,24.708,6.856,11.1-4.022,15.165,2.049,25.792,2.5,6.515-1.05,13.8,7.5,13.728,1.967-3.939,14.7,11.378,19.821,6.563l10.509,6.424c1.09,2.387,3.3-3.864,4.512-4.079-.254-.1,7.219,3.427,6.3,2.432,5.719-.035,5.214,3.085,8.609,4.124,1.308,5.078,1.985,4,10.071,3.214,6.119,1.653,11.565-5,15.579-5.569-.229.092.842-5,.7-4.813,6.22,3.978,3.1,3.37,7.332-2.764,1.369.035,11.232,3.344,13.05-3.038,1.045-3.608,1.257-15.874,1.083-15.662a5.984,5.984,0,0,0,2.577,1.315s-2.142-5.994-3.157-6.7c5.427-.812-.077.487,4.964-2.075-.3.149,6.3.83,6.684.347.555.353.931.616,1.242.857.061-.356.407-.775,1.34-1.22a33.456,33.456,0,0,1,5.755-9.888c-.179-.007,3.9,4.955,3.828,4.894-.035-.627.2-.907.679-.874-.229-.6-2.889-6.776-.905-7.156,1.057-.289.509,4.52,2.773,4.578,3.332-6.736,7.742-22.353,7.086-30.4,1.125-6.476-11.718-19.015-8.408-24.308,3.108-2.579,3.2-6.443,5.083-9.824-1.411-.274-3,1.046-4.518.74,1.036-4.015-.565-5-2.483-6.317,2.133.269,3.628-.78,4.512-3.117-.547.064-.782-.18-.7-.753-1.154-.128-7.916,1.034-8.093-.087-.052.254.968-4.951.916-4.755-1.573-.533-3.6,2.574-4.8,1.711-2.627-2.866,7.2-10.827-4.55-4.586,3.109-16.247-2.147-6.659-6.988-11.154C1554.614,2295.936,1542.972,2285.36,1534.44,2294.59Z" fill="#231815"/>
    </g>
    <g id="Group_1078" data-name="Group 1078">
      <path id="Path_20354" data-name="Path 20354" d="M1470.52,2435.441c.5,1.2.953,2.324,0,0" fill="#231815"/>
    </g>
    <g id="Group_1079" data-name="Group 1079">
      <path id="Path_20355" data-name="Path 20355" d="M1552.08,2417.03c.711.1.847.353.839,1.048C1552.461,2419.045,1551.24,2417.946,1552.08,2417.03Z" fill="#231815"/>
    </g>
    <g id="Group_1080" data-name="Group 1080">
      <path id="Path_20356" data-name="Path 20356" d="M1563.037,2408.75c1.7-3.091.972-1.331,0,0" fill="#231815"/>
    </g>
    <g id="Group_1081" data-name="Group 1081">
      <path id="Path_20357" data-name="Path 20357" d="M1568.008,2403.915h0" fill="#231815"/>
    </g>
    <g id="Group_1082" data-name="Group 1082">
      <path id="Path_20358" data-name="Path 20358" d="M1461.012,2348.588c5.781-1.055-.075.419,0,0" fill="#231815"/>
    </g>
    <g id="Group_1083" data-name="Group 1083">
      <path id="Path_20359" data-name="Path 20359" d="M1457.2,2347.7c1.2-5.007.752.64,0,0" fill="#231815"/>
    </g>
    <g id="Group_1084" data-name="Group 1084">
      <path id="Path_20360" data-name="Path 20360" d="M1460.683,2335.515c1.771-5.523.543-1.276,0,0" fill="#231815"/>
    </g>
    <g id="Group_1085" data-name="Group 1085">
      <path id="Path_20361" data-name="Path 20361" d="M1580.676,2369.143c.577,1.34.588,1.322,0,0" fill="#231815"/>
    </g>
    <g id="Group_1086" data-name="Group 1086">
      <path id="Path_20362" data-name="Path 20362" d="M1585.363,2370.04c.824.031.686,2.581,0,0" fill="#231815"/>
    </g>
    <g id="Group_1087" data-name="Group 1087">
      <path id="Path_20363" data-name="Path 20363" d="M1475.379,2322c1.408,2.091-.441.861,0,0" fill="#231815"/>
    </g>
    <g id="Group_1088" data-name="Group 1088">
      <path id="Path_20364" data-name="Path 20364" d="M1484.654,2311.618c.883-.045,1.313,3.761,0,0" fill="#231815"/>
    </g>
    <g id="Group_1089" data-name="Group 1089">
      <path id="Path_20365" data-name="Path 20365" d="M1401.8,2495.918c-1.628,1.957,5.543-8.31,4.715-7.033-1.765,2.223,4.742,7.717-4.715,7.033" fill="#231815"/>
    </g>
    <g id="Group_1090" data-name="Group 1090">
      <path id="Path_20366" data-name="Path 20366" d="M1379.62,2462.924c.313-2.8,3.5-1.224,3.175-.109-.552,2.573-3.47,1.45-3.175.109" fill="#231815"/>
    </g>
    <g id="Group_1091" data-name="Group 1091">
      <path id="Path_20367" data-name="Path 20367" d="M1536.048,2509.544c.408-.449-3.47-2.966-1.019-5.852,2.965,1.07,6.912,6.324,1.019,5.852" fill="#231815"/>
    </g>
    <path id="Path_20368" data-name="Path 20368" d="M1407.272,2437.923c-1.481-.327-14.8,9.11-10.19,13.008-.788,3.145,3.685,26.8,18.668,19.613,3.2,1.073,16.983-2.232,13.219-6.533,9.551-10.743.79-10.845,3.768-21.089-4.908-3.4-12.2-5.156-16.405-8.206" fill="#231815"/>
    <g id="Group_1092" data-name="Group 1092">
      <path id="Path_20369" data-name="Path 20369" d="M1443.836,2476.78c1.121-3.929,4.223-7.056,7.349-9.928,4.136.316-7.438,18.152-7.349,9.928" fill="#231815"/>
    </g>
    <g id="Group_1093" data-name="Group 1093">
      <path id="Path_20370" data-name="Path 20370" d="M1454.83,2477.764c.043-1.236,1.736-5.67,3.881-4.913,1.4,5.539-.46,5.958-3.881,4.913" fill="#231815"/>
    </g>
    <g id="Group_1094" data-name="Group 1094">
      <path id="Path_20371" data-name="Path 20371" d="M1333.683,2440.344c1.509-3,6.134-3.694,8.516-2.948-.371.949-9.04,6.153-8.516,2.948" fill="#231815"/>
    </g>
    <g id="Group_1095" data-name="Group 1095">
      <path id="Path_20372" data-name="Path 20372" d="M1554.068,2501.85c.48-.608-3.722-3.252-2.074-5.413,5.567,2.422,2.045,4.279,2.074,5.413" fill="#231815"/>
    </g>
    <g id="Group_1096" data-name="Group 1096">
      <path id="Path_20373" data-name="Path 20373" d="M1439.635,2466.207c.1-.115.331-3.06,2.007-4.681,3.373.231-.5,5.682-2.007,4.681" fill="#231815"/>
    </g>
    <g id="Group_1097" data-name="Group 1097">
      <path id="Path_20374" data-name="Path 20374" d="M1454.016,2458.446c-.408-.062,4.883-5.028,5.559-5.166-.077,1.446-4.534,14.893-7.634,12.455.707-2.405,1.383-4.859,2.075-7.289" fill="#231815"/>
    </g>
    <g id="Group_1098" data-name="Group 1098">
      <path id="Path_20375" data-name="Path 20375" d="M1532.131,2483.717c.159-.991,1.493-6.388,2.638-1.295-1.109,6.853-.667,2.954-2.638,1.295" fill="#231815"/>
    </g>
    <g id="Group_1099" data-name="Group 1099">
      <path id="Path_20376" data-name="Path 20376" d="M1363.062,2421.279c1.059-.091,2.644-5.794,4.552-.2-.374,3.483-3.73,1.407-4.552.2" fill="#231815"/>
    </g>
    <g id="Group_1100" data-name="Group 1100">
      <path id="Path_20377" data-name="Path 20377" d="M1489.614,2452.425c-.28.347-1.616-3.917-1.31-4.916.311-.116,4.836,1.484,4.7,2.517-.857,1.522-.848,3.8-3.392,2.4" fill="#231815"/>
    </g>
    <g id="Group_1101" data-name="Group 1101">
      <path id="Path_20378" data-name="Path 20378" d="M1528.152,2459.717c-.015-.111,1.386-10.846.986-9.741,9.934-3.905-1.989,17.7-.986,9.741" fill="#231815"/>
    </g>
    <g id="Group_1102" data-name="Group 1102">
      <path id="Path_20379" data-name="Path 20379" d="M1423.477,2427.9c-1.441,1.8-2.013-13.1-.271-16.51,5.928-5.442,13.655-3.564,15.163,3.076,2.153.127-1.594,24.543-14.892,13.434" fill="#231815"/>
    </g>
    <g id="Group_1103" data-name="Group 1103">
      <path id="Path_20380" data-name="Path 20380" d="M1397.318,2413.539c2.023-1.8,12.1-8.92,15.516-6.917-3.533,4.547-11.2,10.383-15.516,6.917" fill="#231815"/>
    </g>
    <g id="Group_1104" data-name="Group 1104">
      <path id="Path_20381" data-name="Path 20381" d="M1554.33,2447.117a9.007,9.007,0,0,1,1.676-5.047c5.86-.765-2.944,10.877-1.676,5.047" fill="#231815"/>
    </g>
    <g id="Group_1105" data-name="Group 1105">
      <path id="Path_20382" data-name="Path 20382" d="M1423.719,2400.967c.666-2.08,3.336-2.883,4.776-1.713-.074.564.151.816.688.739-.479,2.379-5.785,3.323-5.464.974" fill="#231815"/>
    </g>
    <g id="Group_1106" data-name="Group 1106">
      <path id="Path_20383" data-name="Path 20383" d="M1346.987,2374.772c-.276-4.418,6.614-4.608,7.68-1.6-2.1,2.475-4.742,1.319-7.68,1.6" fill="#231815"/>
    </g>
    <g id="Group_1107" data-name="Group 1107">
      <path id="Path_20384" data-name="Path 20384" d="M1566.036,2431.385c1.065-.028,4.337-.17,4.518,1.658-1.236,5.391-5.314-2.233-4.518-1.658" fill="#231815"/>
    </g>
    <g id="Group_1108" data-name="Group 1108">
      <path id="Path_20385" data-name="Path 20385" d="M1564.939,2427.345c-.828,1.038-.851-4.716-.811-5.043,7.884-7.621-1.744,10.089.811,5.043" fill="#231815"/>
    </g>
    <g id="Group_1109" data-name="Group 1109">
      <path id="Path_20386" data-name="Path 20386" d="M1655.305,2452.408c.6-4.209-4.441.949-.474-6.228-1.348-1.841-4.855-.5-3.932-5.195,7.152-2.346,10.92,12.233,4.406,11.423" fill="#231815"/>
    </g>
    <g id="Group_1110" data-name="Group 1110">
      <path id="Path_20387" data-name="Path 20387" d="M1613.519,2439.061c-.651.778-4.657-12.952-4.68-13.633,2.341-.457,15.405,12.3,4.68,13.633" fill="#231815"/>
    </g>
    <g id="Group_1111" data-name="Group 1111">
      <path id="Path_20388" data-name="Path 20388" d="M1441.745,2365.446c1.227-.371.953-2.427,3.4-.787-.871,2.606-2.013,2.876-3.4.787" fill="#231815"/>
    </g>
    <g id="Group_1112" data-name="Group 1112">
      <path id="Path_20389" data-name="Path 20389" d="M1610.934,2403.853c.938-2.266-5.509-8.324,2.124-6.636,7.82,1.694.83,5.5-2.124,6.636" fill="#231815"/>
    </g>
    <g id="Group_1113" data-name="Group 1113">
      <path id="Path_20390" data-name="Path 20390" d="M1586.877,2385.335c.037-2.415,3.709-1.018,3.529.3-.272,2.26-1.44,2.163-3.529-.3" fill="#231815"/>
    </g>
    <g id="Group_1114" data-name="Group 1114">
      <path id="Path_20391" data-name="Path 20391" d="M1687.889,2414.215c-.52-2.1-3.311-.894-.61-3.391,4.35,1.582,3.348,5.539.61,3.391" fill="#231815"/>
    </g>
    <g id="Group_1115" data-name="Group 1115">
      <path id="Path_20392" data-name="Path 20392" d="M1439.307,2315.452c-.391-.852-3.482-1.828-4.2-2.606.181-3.036,4.222,2.524,4.2,2.606" fill="#231815"/>
    </g>
    <g id="Group_1116" data-name="Group 1116">
      <path id="Path_20393" data-name="Path 20393" d="M1592.19,2333.489c1.235-8.084,5.4,2.46,0,0" fill="#231815"/>
    </g>
    <g id="Group_1117" data-name="Group 1117">
      <path id="Path_20394" data-name="Path 20394" d="M1580.653,2321.74c-6.251-7.688,14.138-10.672,0,0" fill="#231815"/>
    </g>
    <g id="Group_1118" data-name="Group 1118">
      <path id="Path_20395" data-name="Path 20395" d="M1470.707,2287.74c.1-.149-1.654-5.709,2.351-3.5.489-.559.365,6.255-2.351,3.5" fill="#231815"/>
    </g>
    <g id="Group_1119" data-name="Group 1119">
      <path id="Path_20396" data-name="Path 20396" d="M1478.114,2274.408c1.35-1.983.937-19.318,6.473-3.664,2.814,7.941-2.4,10.786-6.473,3.664" fill="#231815"/>
    </g>
    <g id="Group_1120" data-name="Group 1120">
      <path id="Path_20397" data-name="Path 20397" d="M1493.141,2281.922c-2.225,2.8,1.6-15.224,3.805-2.272-.452,1.3-4.006,3.112-3.805,2.272" fill="#231815"/>
    </g>
    <g id="Group_1121" data-name="Group 1121">
      <path id="Path_20398" data-name="Path 20398" d="M1454.07,2253.522c.3-.19.15-4.2,4.487-.728-.776,1.774-4.944,4.6-4.487.728" fill="#231815"/>
    </g>
    <g id="Group_1122" data-name="Group 1122">
      <path id="Path_20399" data-name="Path 20399" d="M1565.8,2288.324c.179-.326,5.4-5.657,4.506-1.533-1.277,2.27-2.759,2.784-4.506,1.533" fill="#231815"/>
    </g>
    <g id="Group_1123" data-name="Group 1123">
      <path id="Path_20400" data-name="Path 20400" d="M1444.73,2239.535c3.686-4.429,2.392-4.429,0,0" fill="#231815"/>
    </g>
    <g id="Group_1124" data-name="Group 1124">
      <path id="Path_20401" data-name="Path 20401" d="M1499.487,2253.4c1.183-2.069.518-3.566,2.48-.816-.119,2.708-.949,2.973-2.48.816" fill="#231815"/>
    </g>
    <g id="Group_1125" data-name="Group 1125">
      <path id="Path_20402" data-name="Path 20402" d="M1623.286,2259.351c5.095-6.485,7.869-4.7,0,0" fill="#231815"/>
    </g>
    <g id="Group_1126" data-name="Group 1126">
      <path id="Path_20403" data-name="Path 20403" d="M1564.551,2408.939c1.126.672,1.68,1,0,0" fill="#231815"/>
    </g>
    <g id="Group_1127" data-name="Group 1127">
      <path id="Path_20404" data-name="Path 20404" d="M1458.711,2472.851c.615-7.355,1.676-3.456,2.918-7.824,5.6,2.858-1.718,6.073-2.918,7.824" fill="#231815"/>
    </g>
  </g>
</svg>
