<svg xmlns="http://www.w3.org/2000/svg" width="584.504" height="485.67" viewBox="0 0 584.504 485.67">
  <g id="Group_1326" data-name="Group 1326" transform="translate(-26.218 -1270.865)" opacity="0.31">
    <g id="Group_1130" data-name="Group 1130">
      <path id="Path_20970" data-name="Path 20970" d="M408.55,1529.161c.377,1.451,3.653.792,0,0Z" fill="#231815"/>
      <path id="Path_20971" data-name="Path 20971" d="M271.9,1386.371l-18.2,2.783c-4.217.972-40.22,14.46-28.475,15.931-16.912,4.418-42.746,49.4-40.446,63.347-.614,1.815-14.728,3.078-7,14.234-5.541,7.525,4.1,24.207,5.581,19.613-7.779,16.019.7,20.017,6.847,36.488-1.078,6.611,15.833,29.1,10.582,37.906,19.151,11.358,4.511,24.046,22.051,35.239,8.774,7.642,8.327,20.227,22.1,14.682.321-6.833,32.047,6.764,36.827-3.315l21.663,2.416c3.5,2.688,2.531-7.575,4.336-8.651-.482.024,14.165.261,11.955-.563,9.226-3.689,10.676,1.052,16.921.365,5.8,6.362,6.116,4.4,18.624-1.855,11.1-1.551,15.072-14.449,21.152-17.8-.3.277-2.271-7.622-2.362-7.264,12.951,1.678,7.462,2.8,9.851-8.582,2.24-.822,20.6-2.41,18.9-12.61-.929-5.776-9.5-23.291-9.624-22.879a12.063,12.063,0,0,0,5.123.222s-7.818-7.129-9.969-7.477c8.188-4.6.228.74,6.522-6.1-.373.4,10.8-2.834,11.061-3.762,1.155.147,1.954.281,2.632.425-.16-.545.1-1.358,1.281-2.583-.251-5.591.066-12.326,2.126-17.672-.294.1,9.9,4.541,9.747,4.5-.513-.867-.344-1.409.463-1.671-.8-.7-9.6-7.762-6.661-9.563,1.5-1.082,4.106,6.081,7.809,4.722.5-11.664-3.714-36.6-10.624-47.587-2.884-9.892-32.765-19.484-31.256-29.091,3.153-5.631.5-11.167,1.084-17.154-2.481.51-4.086,3.39-6.769,3.924-1.241-6.348-4.544-6.72-8.605-7.371,3.645-.975,5.3-3.414,5.035-7.287-.84.439-1.4.242-1.677-.623-1.96.554-12.052,6.5-13.154,5.027.1.393-2.03-7.631-1.972-7.32-2.931.246-3.96,5.941-6.516,5.476-6.331-2.388,3.786-19.924-10.69-3.6-6.773-25-8.311-8.069-19.4-11.357C305.5,1375.44,278.993,1367.864,271.9,1386.371Z" fill="#231815"/>
    </g>
    <g id="Group_1131" data-name="Group 1131">
      <path id="Path_20972" data-name="Path 20972" d="M270.827,1626.614c1.679,1.386,3.229,2.687,0,0" fill="#231815"/>
    </g>
    <g id="Group_1132" data-name="Group 1132">
      <path id="Path_20973" data-name="Path 20973" d="M389.371,1548.627c1.223-.308,1.626-.037,2.118.952C391.45,1551.241,388.677,1550.461,389.371,1548.627Z" fill="#231815"/>
    </g>
    <g id="Group_1133" data-name="Group 1133">
      <path id="Path_20974" data-name="Path 20974" d="M401.078,1529.924c.5-5.459.605-2.5,0,0" fill="#231815"/>
    </g>
    <g id="Group_1134" data-name="Group 1134">
      <path id="Path_20975" data-name="Path 20975" d="M405.605,1519.909h0" fill="#231815"/>
    </g>
    <g id="Group_1135" data-name="Group 1135">
      <path id="Path_20976" data-name="Path 20976" d="M192.359,1509.6c8.583-5.174.181.642,0,0" fill="#231815"/>
    </g>
    <g id="Group_1136" data-name="Group 1136">
      <path id="Path_20977" data-name="Path 20977" d="M185.551,1510.77c-1.7-7.854,1.681.429,0,0" fill="#231815"/>
    </g>
    <g id="Group_1137" data-name="Group 1137">
      <path id="Path_20978" data-name="Path 20978" d="M182.329,1491.292c-1.147-8.954-.047-2.154,0,0" fill="#231815"/>
    </g>
    <g id="Group_1138" data-name="Group 1138">
      <path id="Path_20979" data-name="Path 20979" d="M400.836,1462.581c1.907,1.532,1.912,1.5,0,0" fill="#231815"/>
    </g>
    <g id="Group_1139" data-name="Group 1139">
      <path id="Path_20980" data-name="Path 20980" d="M409.069,1460.87c1.354-.481,2.984,3.219,0,0" fill="#231815"/>
    </g>
    <g id="Group_1140" data-name="Group 1140">
      <path id="Path_20981" data-name="Path 20981" d="M196.284,1462.793c3.795,2.066-.088,1.5,0,0" fill="#231815"/>
    </g>
    <g id="Group_1141" data-name="Group 1141">
      <path id="Path_20982" data-name="Path 20982" d="M203.742,1442.178c1.395-.626,4.856,4.493,0,0" fill="#231815"/>
    </g>
    <g id="Group_1142" data-name="Group 1142">
      <path id="Path_20983" data-name="Path 20983" d="M203.61,1756.031c-1.211,3.809,2.929-15.3,2.518-12.965-1.241,4.274,13.275,7.917-2.518,12.965" fill="#231815"/>
    </g>
    <g id="Group_1143" data-name="Group 1143">
      <path id="Path_20984" data-name="Path 20984" d="M143.767,1723.4c-1.528-4.168,4.774-3.963,5.057-2.176.976,4-4.56,4.263-5.057,2.176" fill="#231815"/>
    </g>
    <g id="Group_1144" data-name="Group 1144">
      <path id="Path_20985" data-name="Path 20985" d="M430.642,1689.911c.334-.9-7.766-1.995-5.9-7.644,5.573-.369,15.773,4.563,5.9,7.644" fill="#231815"/>
    </g>
    <path id="Path_20986" data-name="Path 20986" d="M170.332,1670.378c-2.635.479-17.325,22.328-7.034,24.916,1.011,4.956,25.43,35.629,44.442,15.909,5.955-.516,25.847-13.969,16.634-17.668,7.644-21.3-6.6-15.869-9.224-32.278-10.4-1.688-23.477.458-32.494-1.188" fill="#231815"/>
    <g id="Group_1145" data-name="Group 1145">
      <path id="Path_20987" data-name="Path 20987" d="M257.7,1702.167c-1.042-6.281,1.7-12.685,4.675-18.745,6.919-2.182,1.155,30.454-4.675,18.745" fill="#231815"/>
    </g>
    <g id="Group_1146" data-name="Group 1146">
      <path id="Path_20988" data-name="Path 20988" d="M276.194,1696.565c-.829-1.778-1.311-9.139,2.708-9.431,6.291,6.956,3.584,8.735-2.708,9.431" fill="#231815"/>
    </g>
    <g id="Group_1147" data-name="Group 1147">
      <path id="Path_20989" data-name="Path 20989" d="M53.066,1720.636c.26-5.209,7.237-9.138,11.631-9.6.091,1.581-10.15,14.471-11.631,9.6" fill="#231815"/>
    </g>
    <g id="Group_1148" data-name="Group 1148">
      <path id="Path_20990" data-name="Path 20990" d="M454.2,1667.543c.333-1.168-8.384-2.24-7.288-6.35,10.764-.111,6.416,4.761,7.288,6.35" fill="#231815"/>
    </g>
    <g id="Group_1149" data-name="Group 1149">
      <path id="Path_20991" data-name="Path 20991" d="M243.222,1689.859c.082-.228-1.687-4.546-.155-7.909,5.624-1.819,3.319,8.369.155,7.909" fill="#231815"/>
    </g>
    <g id="Group_1150" data-name="Group 1150">
      <path id="Path_20992" data-name="Path 20992" d="M260.844,1669.712c-.7.171,4.246-10.232,5.238-10.858.927,2.1,3.486,23.988-3.3,22.505-.6-3.857-1.292-7.765-1.939-11.647" fill="#231815"/>
    </g>
    <g id="Group_1151" data-name="Group 1151">
      <path id="Path_20993" data-name="Path 20993" d="M405.545,1655.809c-.461-1.505-2.223-10,3.327-3.513,3.184,10.416,1.067,4.609-3.327,3.513" fill="#231815"/>
    </g>
    <g id="Group_1152" data-name="Group 1152">
      <path id="Path_20994" data-name="Path 20994" d="M86.734,1674.928c1.647-.8.068-9.891,7.218-3.179,1.925,5.171-5.011,4.367-7.218,3.179" fill="#231815"/>
    </g>
    <g id="Group_1153" data-name="Group 1153">
      <path id="Path_20995" data-name="Path 20995" d="M314.048,1638.527c-.2.671-5.461-4.521-5.69-6.131.418-.362,8.9-.974,9.433.574-.28,2.7,1.387,5.922-3.743,5.557" fill="#231815"/>
    </g>
    <g id="Group_1154" data-name="Group 1154">
      <path id="Path_20996" data-name="Path 20996" d="M381.677,1624.337c-.106-.148-5.637-16.25-5.481-14.43,13.231-11.854,9.637,26.339,5.481,14.43" fill="#231815"/>
    </g>
    <g id="Group_1155" data-name="Group 1155">
      <path id="Path_20997" data-name="Path 20997" d="M189.259,1645.861c-1.02,3.472-12.77-17.276-12.431-23.22,5.634-11.482,19.5-13.738,26.76-5.289,3.573-1.191,15.25,35.788-14.329,28.509" fill="#231815"/>
    </g>
    <g id="Group_1156" data-name="Group 1156">
      <path id="Path_20998" data-name="Path 20998" d="M136.519,1642.163c1.961-3.843,13.093-20.338,20.071-19.674-2.412,8.691-10.571,21.839-20.071,19.674" fill="#231815"/>
    </g>
    <g id="Group_1157" data-name="Group 1157">
      <path id="Path_20999" data-name="Path 20999" d="M414.865,1589.826a12.4,12.4,0,0,1-.956-8.218c8.923-4.812,3.141,17.285.956,8.218" fill="#231815"/>
    </g>
    <g id="Group_1158" data-name="Group 1158">
      <path id="Path_21000" data-name="Path 21000" d="M170.087,1607.55c-.433-3.37,3.3-6.208,6.481-5.467.29.847.838,1.061,1.65.611.954,3.674-6.943,8.388-8.131,4.856" fill="#231815"/>
    </g>
    <g id="Group_1159" data-name="Group 1159">
      <path id="Path_21001" data-name="Path 21001" d="M26.951,1619.264c-3.655-6.085,7.35-10.74,11.257-7.161-1.6,4.844-6.711,4.887-11.257,7.161" fill="#231815"/>
    </g>
    <g id="Group_1160" data-name="Group 1160">
      <path id="Path_21002" data-name="Path 21002" d="M422.37,1560.087c1.7-.718,6.892-3,8.513-.527,1.918,8.426-10.217.219-8.513.527" fill="#231815"/>
    </g>
    <g id="Group_1161" data-name="Group 1161">
      <path id="Path_21003" data-name="Path 21003" d="M417.662,1555.061c-.586,2-4.8-6.141-4.975-6.63,7.215-15.814,4.508,15.405,4.975,6.63" fill="#231815"/>
    </g>
    <g id="Group_1162" data-name="Group 1162">
      <path id="Path_21004" data-name="Path 21004" d="M582.028,1533.069c-2.092-6.345-6.494,4.17-5.291-8.524-3.517-1.75-8.218,2.376-10.133-4.859,9.863-7.874,26.549,10.384,15.424,13.383" fill="#231815"/>
    </g>
    <g id="Group_1163" data-name="Group 1163">
      <path id="Path_21005" data-name="Path 21005" d="M504.746,1540.747c-.487,1.516-16.94-15.388-17.472-16.338,3.455-2.137,33.853,7.627,17.472,16.338" fill="#231815"/>
    </g>
    <g id="Group_1164" data-name="Group 1164">
      <path id="Path_21006" data-name="Path 21006" d="M173.44,1545.751c1.716-1.307-.22-4.046,4.928-3.279.485,4.247-1.167,5.356-4.928,3.279" fill="#231815"/>
    </g>
    <g id="Group_1165" data-name="Group 1165">
      <path id="Path_21007" data-name="Path 21007" d="M474.99,1492.506c-.129-3.806-14.957-8.288-1.384-10.754,13.878-2.574,5.337,7.265,1.384,10.754" fill="#231815"/>
    </g>
    <g id="Group_1166" data-name="Group 1166">
      <path id="Path_21008" data-name="Path 21008" d="M422.627,1481.577c-1.693-3.444,5.261-3.8,5.93-1.814,1.2,3.374-.758,3.981-5.93,1.814" fill="#231815"/>
    </g>
    <g id="Group_1167" data-name="Group 1167">
      <path id="Path_21009" data-name="Path 21009" d="M606.986,1458.219c-2.366-2.644-6,.839-3.449-4.416,8.184-.528,9.437,5.716,3.449,4.416" fill="#231815"/>
    </g>
    <g id="Group_1168" data-name="Group 1168">
      <path id="Path_21010" data-name="Path 21010" d="M133.182,1476.466c-1.253-.958-6.96-.374-8.691-1.018-1.913-4.416,8.662.89,8.691,1.018" fill="#231815"/>
    </g>
    <g id="Group_1169" data-name="Group 1169">
      <path id="Path_21011" data-name="Path 21011" d="M393.561,1404.736c-3.877-12.239,10.521.049,0,0" fill="#231815"/>
    </g>
    <g id="Group_1170" data-name="Group 1170">
      <path id="Path_21012" data-name="Path 21012" d="M366.366,1395.431c-15.7-6.915,15.115-24.117,0,0" fill="#231815"/>
    </g>
    <g id="Group_1171" data-name="Group 1171">
      <path id="Path_21013" data-name="Path 21013" d="M163.839,1417.22c.058-.277-6.822-7.035,1.257-6.461.385-1.1,5.134,8.631-1.257,6.461" fill="#231815"/>
    </g>
    <g id="Group_1172" data-name="Group 1172">
      <path id="Path_21014" data-name="Path 21014" d="M166.134,1393.618c.744-3.669-12.517-27.968,7.807-9.311,10.321,9.461,3.959,16.808-7.807,9.311" fill="#231815"/>
    </g>
    <g id="Group_1173" data-name="Group 1173">
      <path id="Path_21015" data-name="Path 21015" d="M195.9,1394.7c-1.563,5.388-8.473-22.588,4.5-5.64.214,2.13-4.218,6.958-4.5,5.64" fill="#231815"/>
    </g>
    <g id="Group_1174" data-name="Group 1174">
      <path id="Path_21016" data-name="Path 21016" d="M112.073,1379.325c.346-.46-2.8-6.04,6.729-3.886.033,3.006-4.656,9.662-6.729,3.886" fill="#231815"/>
    </g>
    <g id="Group_1175" data-name="Group 1175">
      <path id="Path_21017" data-name="Path 21017" d="M318.063,1357.539c.053-.576,4.629-11.452,6.176-5.039-.417,4.029-2.442,5.7-6.176,5.039" fill="#231815"/>
    </g>
    <g id="Group_1176" data-name="Group 1176">
      <path id="Path_21018" data-name="Path 21018" d="M86.806,1365.45c2.745-8.62.651-7.8,0,0" fill="#231815"/>
    </g>
    <g id="Group_1177" data-name="Group 1177">
      <path id="Path_21019" data-name="Path 21019" d="M185.446,1350.258c.41-3.686-1.753-5.383,3.418-2.735q2.661,5.868-3.418,2.735" fill="#231815"/>
    </g>
    <g id="Group_1178" data-name="Group 1178">
      <path id="Path_21020" data-name="Path 21020" d="M390,1279.905c3.529-12.43,9.31-11.671,0,0" fill="#231815"/>
    </g>
    <g id="Group_1179" data-name="Group 1179">
      <path id="Path_21021" data-name="Path 21021" d="M403.664,1529.229c2.309.235,3.444.347,0,0" fill="#231815"/>
    </g>
    <g id="Group_1180" data-name="Group 1180">
      <path id="Path_21022" data-name="Path 21022" d="M278.9,1687.134c-4.347-10.813.2-5.963-.964-12.943,11.132.488,1.633,9.7.964,12.943" fill="#231815"/>
    </g>
  </g>
</svg>
