<svg xmlns="http://www.w3.org/2000/svg" width="919.596" height="884.756" viewBox="0 0 919.596 884.756">
  <g id="Group_1327" data-name="Group 1327" transform="translate(-816.694 -1784.868)" opacity="0.14">
    <g id="Group_1182" data-name="Group 1182">
      <path id="Path_21023" data-name="Path 21023" d="M1211.052,2061.727c2.026-1.509-1.081-6.2,0,0Z" fill="#231815"/>
      <path id="Path_21024" data-name="Path 21024" d="M1074.875,2365.5l15.879,26.629c4.191,5.964,48.066,53.594,42.914,34.334,17.617,23.589,104.19,35.381,124.493,22.949,3.222-.192,14.141,21.031,26.649,1.9,15.255,3.876,35.176-21.739,27.066-21.143,29.929,1.981,30.793-13.781,52.595-33.819,11-2.509,35.368-43.155,52.443-40.546,5.581-37.085,34.661-22.284,41.007-56.751,6.362-18.537,26.283-25.819,8.9-43.787-10.865,3.832-9.762-54.3-28.521-55.365l-9.966-35.335c1.978-7.163-13.424.852-16.247-1.281.343.736-8.574-22.27-8.459-18.3-11.6-12.057-5.126-17.326-10.159-26.635,6.249-13.09,2.992-12.334-14.7-27.887-9.458-16.334-32.1-14.356-41.194-21.717.624.3-10.455,8.378-9.839,8.291-5.592-21.272-.36-13.419-19.637-9.93-2.7-2.974-16.819-30.611-31.66-21.5-8.425,5.112-30.322,29.587-29.6,29.524a20.3,20.3,0,0,0-2.9-8.135s-6.168,16.72-5.347,20.3c-12.374-9.859,1.01-.826-13.65-6.311.861.328-11.268-15.048-12.884-14.875-.5-1.9-.8-3.227-1.005-4.376-.749.593-2.179.712-4.843-.362-8.565,3.937-19.276,7.712-28.924,7.887.349.392.808-18.331.841-18.062-1.027,1.35-1.981,1.43-2.9.337-.581,1.7-6.028,19.894-10.7,16.458-2.64-1.654,6.884-10.263,2.416-15.18-18.516,6.62-54.754,29-67.519,46.749-13.608,10.771-9.631,63.481-25.58,67.217-10.785-1.35-17.742,6.3-27.455,9.184,2.37,3.548,7.881,4.227,10.416,8.076-9.119,5.96-7.606,11.349-6.047,18.1-3.833-5.07-8.688-6.108-14.563-3.236,1.217,1.032,1.263,2.025.091,3.011,2.106,2.707,17.788,14.684,16.184,17.339.549-.408-10.621,8-10.173,7.718,2.242,4.418,11.782,2.413,12.678,6.7.287,11.393-33.492,6.724,1.156,18.966-34.714,26.418-7.322,18.083-5.418,37.48C1036.511,2319.985,1041.5,2366.158,1074.875,2365.5Z" fill="#231815"/>
    </g>
    <g id="Group_1183" data-name="Group 1183">
      <path id="Path_21025" data-name="Path 21025" d="M1450.44,2214.848c1.1-3.5,2.146-6.743,0,0" fill="#231815"/>
    </g>
    <g id="Group_1184" data-name="Group 1184">
      <path id="Path_21026" data-name="Path 21026" d="M1253.588,2079.313c-1.258-1.714-1.089-2.514.142-3.908C1256.348,2074.411,1256.89,2079.233,1253.588,2079.313Z" fill="#231815"/>
    </g>
    <g id="Group_1185" data-name="Group 1185">
      <path id="Path_21027" data-name="Path 21027" d="M1216.979,2072.9c-8.833,2.684-4.29.643,0,0" fill="#231815"/>
    </g>
    <g id="Group_1186" data-name="Group 1186">
      <path id="Path_21028" data-name="Path 21028" d="M1198.482,2072.187h0" fill="#231815"/>
    </g>
    <g id="Group_1187" data-name="Group 1187">
      <path id="Path_21029" data-name="Path 21029" d="M1317.6,2411.479c-13.515-10.113.886-.689,0,0" fill="#231815"/>
    </g>
    <g id="Group_1188" data-name="Group 1188">
      <path id="Path_21030" data-name="Path 21030" d="M1323.739,2421.363c-11.177,7.639-.4-2.9,0,0" fill="#231815"/>
    </g>
    <g id="Group_1189" data-name="Group 1189">
      <path id="Path_21031" data-name="Path 21031" d="M1295.386,2438.741c-13.245,7.466-3.331,1.439,0,0" fill="#231815"/>
    </g>
    <g id="Group_1190" data-name="Group 1190">
      <path id="Path_21032" data-name="Path 21032" d="M1112.048,2115.976c1.182-3.947,1.128-3.935,0,0" fill="#231815"/>
    </g>
    <g id="Group_1191" data-name="Group 1191">
      <path id="Path_21033" data-name="Path 21033" d="M1104.159,2104.214c-1.61-1.808,3.131-6.7,0,0" fill="#231815"/>
    </g>
    <g id="Group_1192" data-name="Group 1192">
      <path id="Path_21034" data-name="Path 21034" d="M1242.069,2435.034c.817-7.233,2.4-.815,0,0" fill="#231815"/>
    </g>
    <g id="Group_1193" data-name="Group 1193">
      <path id="Path_21035" data-name="Path 21035" d="M1205.172,2436.466c-1.862-1.78,3.931-10.426,0,0" fill="#231815"/>
    </g>
    <g id="Group_1194" data-name="Group 1194">
      <path id="Path_21036" data-name="Path 21036" d="M1695,2237.684c6.712-.525-25.734,5.131-21.828,4.291,7.456-.774,3.938-25.735,21.828-4.291" fill="#231815"/>
    </g>
    <g id="Group_1195" data-name="Group 1195">
      <path id="Path_21037" data-name="Path 21037" d="M1682.023,2351.755c-5.535,5.027-9.21-4.936-6.6-6.511,5.618-4.057,9.543,4.413,6.6,6.511" fill="#231815"/>
    </g>
    <g id="Group_1196" data-name="Group 1196">
      <path id="Path_21038" data-name="Path 21038" d="M1447.885,1925.335c-1.61.046,1.811,13.383-8.187,14.049-4.111-8.462-2.88-27.505,8.187-14.049" fill="#231815"/>
    </g>
    <path id="Path_21039" data-name="Path 21039" d="M1582.447,2343.918c2.418,3.807,45.825,12.878,43.338-4.821,7.094-4.72,39.475-62.271-3.35-79.436-4.581-8.965-38.185-31.476-38.117-14.755-38.083,1.576-20.578,20.359-44.52,34.859,3.962,17.305,15.6,36.345,18.748,51.458" fill="#231815"/>
    <g id="Group_1197" data-name="Group 1197">
      <path id="Path_21040" data-name="Path 21040" d="M1576.66,2187.435c-9.14,5.608-20.874,5.384-32.213,4.59-7.793-9.413,46.789-21.111,32.213-4.59" fill="#231815"/>
    </g>
    <g id="Group_1198" data-name="Group 1198">
      <path id="Path_21041" data-name="Path 21041" d="M1556.191,2162.124c-2.249,2.42-13.43,7.84-16.433,1.753,6.866-14.227,11.357-11.131,16.433-1.753" fill="#231815"/>
    </g>
    <g id="Group_1199" data-name="Group 1199">
      <path id="Path_21042" data-name="Path 21042" d="M1735.22,2495.04c-8.295,2.9-18.847-5.5-22.349-12.066,2.41-1.143,29.017,6.665,22.349,12.066" fill="#231815"/>
    </g>
    <g id="Group_1200" data-name="Group 1200">
      <path id="Path_21043" data-name="Path 21043" d="M1398.045,1902.755c-2.034.22,1.82,14.5-5.288,15.4-7-16.727,3.361-13.031,5.288-15.4" fill="#231815"/>
    </g>
    <g id="Group_1201" data-name="Group 1201">
      <path id="Path_21044" data-name="Path 21044" d="M1566.632,2217.826c-.407.016-6.024,5.515-12.243,5.257-6.4-7.623,10.955-10.486,12.243-5.257" fill="#231815"/>
    </g>
    <g id="Group_1202" data-name="Group 1202">
      <path id="Path_21045" data-name="Path 21045" d="M1524.022,2203.1c.712.991-18.659-.138-20.265-1.289,2.688-2.777,35.222-20.649,37.21-9.121-5.637,3.388-11.3,6.94-16.945,10.41" fill="#231815"/>
    </g>
    <g id="Group_1203" data-name="Group 1203">
      <path id="Path_21046" data-name="Path 21046" d="M1410.584,1986.118c-2.057,1.675-14.2,9.811-7.592-2.964,14.235-11.572,6.516-4.588,7.592,2.964" fill="#231815"/>
    </g>
    <g id="Group_1204" data-name="Group 1204">
      <path id="Path_21047" data-name="Path 21047" d="M1642.55,2471.483c-2.3-2.062-15.478,6.165-9.538-9.247,6.849-6.284,9.991,5.05,9.538,9.247" fill="#231815"/>
    </g>
    <g id="Group_1205" data-name="Group 1205">
      <path id="Path_21048" data-name="Path 21048" d="M1441.627,2139.851c1.174-.11-3.593,11.387-5.961,12.766-.828-.422-7.16-13.269-5.083-15.083,4.393-1.277,8.36-5.919,11.044,2.317" fill="#231815"/>
    </g>
    <g id="Group_1206" data-name="Group 1206">
      <path id="Path_21049" data-name="Path 21049" d="M1376.606,2043.317c-.164.259-21.784,19.1-19.042,17.7-26.886-13.13,34.99-31.737,19.042-17.7" fill="#231815"/>
    </g>
    <g id="Group_1207" data-name="Group 1207">
      <path id="Path_21050" data-name="Path 21050" d="M1532.189,2329.927c6.065-.61-18.861,30.881-28.352,34.12-21.489-1.511-33.8-21.715-25.22-38.4-4.123-4.82,46.178-46.487,53.572,4.284" fill="#231815"/>
    </g>
    <g id="Group_1208" data-name="Group 1208">
      <path id="Path_21051" data-name="Path 21051" d="M1559.857,2414.569c-7.24-.622-40.038-7.536-43.427-18.845,15.092-1.747,40.781,2.649,43.427,18.845" fill="#231815"/>
    </g>
    <g id="Group_1209" data-name="Group 1209">
      <path id="Path_21052" data-name="Path 21052" d="M1301.712,2013.409a20.88,20.88,0,0,1-12.218,6.7c-13.166-10.872,24.982-15.86,12.218-6.7" fill="#231815"/>
    </g>
    <g id="Group_1210" data-name="Group 1210">
      <path id="Path_21053" data-name="Path 21053" d="M1484.561,2384.134c-4.983,2.813-11.78-1.217-12.639-6.648,1.137-.989,1.125-1.98-.093-2.961,5.13-3.818,17.491,5.515,12.732,9.609" fill="#231815"/>
    </g>
    <g id="Group_1211" data-name="Group 1211">
      <path id="Path_21054" data-name="Path 21054" d="M1593.591,2600.063c-7.177,9.562-21.418-4.661-18.31-13.026,8.572-.576,11.879,7.374,18.31,13.026" fill="#231815"/>
    </g>
    <g id="Group_1212" data-name="Group 1212">
      <path id="Path_21055" data-name="Path 21055" d="M1250.547,2020.553c-2.2-2.2-9.053-8.852-6.219-12.95,11.932-8.334,6.819,15.8,6.219,12.95" fill="#231815"/>
    </g>
    <g id="Group_1213" data-name="Group 1213">
      <path id="Path_21056" data-name="Path 21056" d="M1245.69,2031.087c3.488-.352-6.537,11.388-7.191,11.966-29.252-1.232,21.18-16.8,7.191-11.966" fill="#231815"/>
    </g>
    <g id="Group_1214" data-name="Group 1214">
      <path id="Path_21057" data-name="Path 21057" d="M1107.161,1788.546c-8.573,7.287,10.626,7.49-9.945,13.662-.5,6.6,8.917,11.316-1.158,18.892-18.541-10.4-.629-48.012,11.1-32.554" fill="#231815"/>
    </g>
    <g id="Group_1215" data-name="Group 1215">
      <path id="Path_21058" data-name="Path 21058" d="M1168.141,1904.273c2.674-.2-13.272,36.189-14.418,37.621-5.525-4.035-9.561-57.66,14.418-37.621" fill="#231815"/>
    </g>
    <g id="Group_1216" data-name="Group 1216">
      <path id="Path_21059" data-name="Path 21059" d="M1386,2418.083c-3.127-1.849-6.174,2.91-8.242-5.61,6.32-3.449,9.1-1.575,8.242,5.61" fill="#231815"/>
    </g>
    <g id="Group_1217" data-name="Group 1217">
      <path id="Path_21060" data-name="Path 21060" d="M1111.73,1981.29c-5.858,2.615-3.45,28.594-15.9,8.979-12.816-20.024,7.954-12.935,15.9-8.979" fill="#231815"/>
    </g>
    <g id="Group_1218" data-name="Group 1218">
      <path id="Path_21061" data-name="Path 21061" d="M1127.874,2069.928c-4.3,4.827-9.268-5.8-6.59-8.1,4.5-4.014,6.693-1.341,6.59,8.1" fill="#231815"/>
    </g>
    <g id="Group_1219" data-name="Group 1219">
      <path id="Path_21062" data-name="Path 21062" d="M974.539,1797.057c-2.626,5.368,5.117,8.837-4.7,8.182-6.012-12.437,2.937-18.351,4.7-8.182" fill="#231815"/>
    </g>
    <g id="Group_1220" data-name="Group 1220">
      <path id="Path_21063" data-name="Path 21063" d="M1303.412,2524.831c-.7,2.563,3.83,11.1,3.922,14.208-5.679,5.784-4.1-14.081-3.922-14.208" fill="#231815"/>
    </g>
    <g id="Group_1221" data-name="Group 1221">
      <path id="Path_21064" data-name="Path 21064" d="M1026.4,2164c-16.642,13.808-6.594-16.449,0,0" fill="#231815"/>
    </g>
    <g id="Group_1222" data-name="Group 1222">
      <path id="Path_21065" data-name="Path 21065" d="M1029.12,2212.339c-.84,28.876-47.216-8.3,0,0" fill="#231815"/>
    </g>
    <g id="Group_1223" data-name="Group 1223">
      <path id="Path_21066" data-name="Path 21066" d="M1191.526,2514.556c-.47.084-6.654,15.106-10.879,2.135-1.965.1,10.213-13.484,10.879-2.135" fill="#231815"/>
    </g>
    <g id="Group_1224" data-name="Group 1224">
      <path id="Path_21067" data-name="Path 21067" d="M1153.24,2525.938c-6.2,1.166-35.706,37.265-19.479-6.278,8.221-22.1,23.718-16.834,19.479,6.278" fill="#231815"/>
    </g>
    <g id="Group_1225" data-name="Group 1225">
      <path id="Path_21068" data-name="Path 21068" d="M1136.061,2478.807c9.4-.978-29.875,27.542-11.656-3.45,3.188-1.686,13.532,2.169,11.656,3.45" fill="#231815"/>
    </g>
    <g id="Group_1226" data-name="Group 1226">
      <path id="Path_21069" data-name="Path 21069" d="M1165.213,2619.36c-.938-.249-7.647,8.2-10.332-8.037,4.671-1.957,18.03,1.14,10.332,8.037" fill="#231815"/>
    </g>
    <g id="Group_1227" data-name="Group 1227">
      <path id="Path_21070" data-name="Path 21070" d="M1000.615,2311.736c-.931.284-20.8.039-11.779-6.441,6.552-1.9,10.442.2,11.779,6.441" fill="#231815"/>
    </g>
    <g id="Group_1228" data-name="Group 1228">
      <path id="Path_21071" data-name="Path 21071" d="M1159.581,2667.585c-15.192,1.181-12.581,3.927,0,0" fill="#231815"/>
    </g>
    <g id="Group_1229" data-name="Group 1229">
      <path id="Path_21072" data-name="Path 21072" d="M1073.335,2523.295c-6.011,1.7-7.288,6.148-6.434-3.6,4.979-5.249,7.118-4.029,6.434,3.6" fill="#231815"/>
    </g>
    <g id="Group_1230" data-name="Group 1230">
      <path id="Path_21073" data-name="Path 21073" d="M833.862,2248.7c-21.634,2.373-24.115-7.13,0,0" fill="#231815"/>
    </g>
    <g id="Group_1231" data-name="Group 1231">
      <path id="Path_21074" data-name="Path 21074" d="M1214.256,2069.308c-1.1-3.752-1.642-5.6,0,0" fill="#231815"/>
    </g>
    <g id="Group_1232" data-name="Group 1232">
      <path id="Path_21075" data-name="Path 21075" d="M1539.758,2163.877c-14.116,13.639-9.431,3.468-19.586,9.71-6.3-17.68,14.1-8.7,19.586-9.71" fill="#231815"/>
    </g>
  </g>
</svg>
